<?xml version="1.0" encoding="utf-8" standalone="no"?>
<!DOCTYPE svg PUBLIC "-//W3C//DTD SVG 1.1//EN"
  "http://www.w3.org/Graphics/SVG/1.1/DTD/svg11.dtd">
<svg xmlns:xlink="http://www.w3.org/1999/xlink" width="576pt" height="576pt" viewBox="0 0 576 576" xmlns="http://www.w3.org/2000/svg" version="1.1">
 <metadata>
  <rdf:RDF xmlns:dc="http://purl.org/dc/elements/1.1/" xmlns:cc="http://creativecommons.org/ns#" xmlns:rdf="http://www.w3.org/1999/02/22-rdf-syntax-ns#">
   <cc:Work>
    <dc:type rdf:resource="http://purl.org/dc/dcmitype/StillImage"/>
    <dc:date>2023-05-08T14:10:32.048523</dc:date>
    <dc:format>image/svg+xml</dc:format>
    <dc:creator>
     <cc:Agent>
      <dc:title>Matplotlib v3.7.1, https://matplotlib.org/</dc:title>
     </cc:Agent>
    </dc:creator>
   </cc:Work>
  </rdf:RDF>
 </metadata>
 <defs>
  <style type="text/css">*{stroke-linejoin: round; stroke-linecap: butt}</style>
 </defs>
 <g id="figure_1">
  <g id="patch_1">
   <path d="M 0 576 
L 576 576 
L 576 0 
L 0 0 
z
" style="fill: #ffffff"/>
  </g>
  <g id="axes_1">
   <g id="patch_2">
    <path d="M 72 270.72 
L 518.4 270.72 
L 518.4 69.12 
L 72 69.12 
z
" style="fill: #ffffff"/>
   </g>
   <g id="matplotlib.axis_1">
    <g id="xtick_1">
     <g id="line2d_1">
      <defs>
       <path id="mb6102b1393" d="M 0 0 
L 0 3.5 
" style="stroke: #000000; stroke-width: 0.8"/>
      </defs>
      <g>
       <use xlink:href="#mb6102b1393" x="72" y="270.72" style="stroke: #000000; stroke-width: 0.8"/>
      </g>
     </g>
    </g>
    <g id="xtick_2">
     <g id="line2d_2">
      <g>
       <use xlink:href="#mb6102b1393" x="135.771429" y="270.72" style="stroke: #000000; stroke-width: 0.8"/>
      </g>
     </g>
    </g>
    <g id="xtick_3">
     <g id="line2d_3">
      <g>
       <use xlink:href="#mb6102b1393" x="199.542857" y="270.72" style="stroke: #000000; stroke-width: 0.8"/>
      </g>
     </g>
    </g>
    <g id="xtick_4">
     <g id="line2d_4">
      <g>
       <use xlink:href="#mb6102b1393" x="263.314286" y="270.72" style="stroke: #000000; stroke-width: 0.8"/>
      </g>
     </g>
    </g>
    <g id="xtick_5">
     <g id="line2d_5">
      <g>
       <use xlink:href="#mb6102b1393" x="327.085714" y="270.72" style="stroke: #000000; stroke-width: 0.8"/>
      </g>
     </g>
    </g>
    <g id="xtick_6">
     <g id="line2d_6">
      <g>
       <use xlink:href="#mb6102b1393" x="390.857143" y="270.72" style="stroke: #000000; stroke-width: 0.8"/>
      </g>
     </g>
    </g>
    <g id="xtick_7">
     <g id="line2d_7">
      <g>
       <use xlink:href="#mb6102b1393" x="454.628571" y="270.72" style="stroke: #000000; stroke-width: 0.8"/>
      </g>
     </g>
    </g>
    <g id="xtick_8">
     <g id="line2d_8">
      <g>
       <use xlink:href="#mb6102b1393" x="518.4" y="270.72" style="stroke: #000000; stroke-width: 0.8"/>
      </g>
     </g>
    </g>
   </g>
   <g id="matplotlib.axis_2">
    <g id="ytick_1">
     <g id="line2d_9">
      <defs>
       <path id="mf360e760d2" d="M 0 0 
L -3.5 0 
" style="stroke: #000000; stroke-width: 0.8"/>
      </defs>
      <g>
       <use xlink:href="#mf360e760d2" x="72" y="267.738264" style="stroke: #000000; stroke-width: 0.8"/>
      </g>
     </g>
     <g id="text_1">
      <!-- −0.0005 -->
      <g transform="translate(21.629687 271.537483) scale(0.1 -0.1)">
       <defs>
        <path id="DejaVuSans-2212" d="M 678 2272 
L 4684 2272 
L 4684 1741 
L 678 1741 
L 678 2272 
z
" transform="scale(0.015625)"/>
        <path id="DejaVuSans-30" d="M 2034 4250 
Q 1547 4250 1301 3770 
Q 1056 3291 1056 2328 
Q 1056 1369 1301 889 
Q 1547 409 2034 409 
Q 2525 409 2770 889 
Q 3016 1369 3016 2328 
Q 3016 3291 2770 3770 
Q 2525 4250 2034 4250 
z
M 2034 4750 
Q 2819 4750 3233 4129 
Q 3647 3509 3647 2328 
Q 3647 1150 3233 529 
Q 2819 -91 2034 -91 
Q 1250 -91 836 529 
Q 422 1150 422 2328 
Q 422 3509 836 4129 
Q 1250 4750 2034 4750 
z
" transform="scale(0.015625)"/>
        <path id="DejaVuSans-2e" d="M 684 794 
L 1344 794 
L 1344 0 
L 684 0 
L 684 794 
z
" transform="scale(0.015625)"/>
        <path id="DejaVuSans-35" d="M 691 4666 
L 3169 4666 
L 3169 4134 
L 1269 4134 
L 1269 2991 
Q 1406 3038 1543 3061 
Q 1681 3084 1819 3084 
Q 2600 3084 3056 2656 
Q 3513 2228 3513 1497 
Q 3513 744 3044 326 
Q 2575 -91 1722 -91 
Q 1428 -91 1123 -41 
Q 819 9 494 109 
L 494 744 
Q 775 591 1075 516 
Q 1375 441 1709 441 
Q 2250 441 2565 725 
Q 2881 1009 2881 1497 
Q 2881 1984 2565 2268 
Q 2250 2553 1709 2553 
Q 1456 2553 1204 2497 
Q 953 2441 691 2322 
L 691 4666 
z
" transform="scale(0.015625)"/>
       </defs>
       <use xlink:href="#DejaVuSans-2212"/>
       <use xlink:href="#DejaVuSans-30" x="83.789062"/>
       <use xlink:href="#DejaVuSans-2e" x="147.412109"/>
       <use xlink:href="#DejaVuSans-30" x="179.199219"/>
       <use xlink:href="#DejaVuSans-30" x="242.822266"/>
       <use xlink:href="#DejaVuSans-30" x="306.445312"/>
       <use xlink:href="#DejaVuSans-35" x="370.068359"/>
      </g>
     </g>
    </g>
    <g id="ytick_2">
     <g id="line2d_10">
      <g>
       <use xlink:href="#mf360e760d2" x="72" y="230.706001" style="stroke: #000000; stroke-width: 0.8"/>
      </g>
     </g>
     <g id="text_2">
      <!-- 0.0000 -->
      <g transform="translate(30.009375 234.505219) scale(0.1 -0.1)">
       <use xlink:href="#DejaVuSans-30"/>
       <use xlink:href="#DejaVuSans-2e" x="63.623047"/>
       <use xlink:href="#DejaVuSans-30" x="95.410156"/>
       <use xlink:href="#DejaVuSans-30" x="159.033203"/>
       <use xlink:href="#DejaVuSans-30" x="222.65625"/>
       <use xlink:href="#DejaVuSans-30" x="286.279297"/>
      </g>
     </g>
    </g>
    <g id="ytick_3">
     <g id="line2d_11">
      <g>
       <use xlink:href="#mf360e760d2" x="72" y="193.673737" style="stroke: #000000; stroke-width: 0.8"/>
      </g>
     </g>
     <g id="text_3">
      <!-- 0.0005 -->
      <g transform="translate(30.009375 197.472956) scale(0.1 -0.1)">
       <use xlink:href="#DejaVuSans-30"/>
       <use xlink:href="#DejaVuSans-2e" x="63.623047"/>
       <use xlink:href="#DejaVuSans-30" x="95.410156"/>
       <use xlink:href="#DejaVuSans-30" x="159.033203"/>
       <use xlink:href="#DejaVuSans-30" x="222.65625"/>
       <use xlink:href="#DejaVuSans-35" x="286.279297"/>
      </g>
     </g>
    </g>
    <g id="ytick_4">
     <g id="line2d_12">
      <g>
       <use xlink:href="#mf360e760d2" x="72" y="156.641474" style="stroke: #000000; stroke-width: 0.8"/>
      </g>
     </g>
     <g id="text_4">
      <!-- 0.0010 -->
      <g transform="translate(30.009375 160.440692) scale(0.1 -0.1)">
       <defs>
        <path id="DejaVuSans-31" d="M 794 531 
L 1825 531 
L 1825 4091 
L 703 3866 
L 703 4441 
L 1819 4666 
L 2450 4666 
L 2450 531 
L 3481 531 
L 3481 0 
L 794 0 
L 794 531 
z
" transform="scale(0.015625)"/>
       </defs>
       <use xlink:href="#DejaVuSans-30"/>
       <use xlink:href="#DejaVuSans-2e" x="63.623047"/>
       <use xlink:href="#DejaVuSans-30" x="95.410156"/>
       <use xlink:href="#DejaVuSans-30" x="159.033203"/>
       <use xlink:href="#DejaVuSans-31" x="222.65625"/>
       <use xlink:href="#DejaVuSans-30" x="286.279297"/>
      </g>
     </g>
    </g>
    <g id="ytick_5">
     <g id="line2d_13">
      <g>
       <use xlink:href="#mf360e760d2" x="72" y="119.60921" style="stroke: #000000; stroke-width: 0.8"/>
      </g>
     </g>
     <g id="text_5">
      <!-- 0.0015 -->
      <g transform="translate(30.009375 123.408429) scale(0.1 -0.1)">
       <use xlink:href="#DejaVuSans-30"/>
       <use xlink:href="#DejaVuSans-2e" x="63.623047"/>
       <use xlink:href="#DejaVuSans-30" x="95.410156"/>
       <use xlink:href="#DejaVuSans-30" x="159.033203"/>
       <use xlink:href="#DejaVuSans-31" x="222.65625"/>
       <use xlink:href="#DejaVuSans-35" x="286.279297"/>
      </g>
     </g>
    </g>
    <g id="ytick_6">
     <g id="line2d_14">
      <g>
       <use xlink:href="#mf360e760d2" x="72" y="82.576947" style="stroke: #000000; stroke-width: 0.8"/>
      </g>
     </g>
     <g id="text_6">
      <!-- 0.0020 -->
      <g transform="translate(30.009375 86.376166) scale(0.1 -0.1)">
       <defs>
        <path id="DejaVuSans-32" d="M 1228 531 
L 3431 531 
L 3431 0 
L 469 0 
L 469 531 
Q 828 903 1448 1529 
Q 2069 2156 2228 2338 
Q 2531 2678 2651 2914 
Q 2772 3150 2772 3378 
Q 2772 3750 2511 3984 
Q 2250 4219 1831 4219 
Q 1534 4219 1204 4116 
Q 875 4013 500 3803 
L 500 4441 
Q 881 4594 1212 4672 
Q 1544 4750 1819 4750 
Q 2544 4750 2975 4387 
Q 3406 4025 3406 3419 
Q 3406 3131 3298 2873 
Q 3191 2616 2906 2266 
Q 2828 2175 2409 1742 
Q 1991 1309 1228 531 
z
" transform="scale(0.015625)"/>
       </defs>
       <use xlink:href="#DejaVuSans-30"/>
       <use xlink:href="#DejaVuSans-2e" x="63.623047"/>
       <use xlink:href="#DejaVuSans-30" x="95.410156"/>
       <use xlink:href="#DejaVuSans-30" x="159.033203"/>
       <use xlink:href="#DejaVuSans-32" x="222.65625"/>
       <use xlink:href="#DejaVuSans-30" x="286.279297"/>
      </g>
     </g>
    </g>
    <g id="text_7">
     <!-- δ [a.u.] -->
     <g transform="translate(15.55 187.880937) rotate(-90) scale(0.1 -0.1)">
      <defs>
       <path id="DejaVuSans-3b4" d="M 3138 4053 
Q 2819 4272 2072 4272 
Q 1281 4272 1281 3906 
Q 1281 3619 2106 3469 
Q 2756 3353 3122 3003 
Q 3566 2581 3566 1716 
Q 3566 888 3138 400 
Q 2709 -91 1959 -91 
Q 1213 -91 781 400 
Q 353 888 353 1747 
Q 353 2384 781 2900 
Q 947 3100 1181 3213 
Q 694 3459 694 3900 
Q 694 4750 2072 4750 
Q 2763 4750 3138 4531 
L 3138 4053 
z
M 1613 3056 
Q 1400 2966 1228 2738 
Q 959 2384 959 1747 
Q 959 1113 1225 756 
Q 1494 397 1959 397 
Q 2419 397 2687 759 
Q 2956 1122 2956 1716 
Q 2956 2338 2672 2638 
Q 2369 2959 1975 2994 
Q 1775 3013 1613 3056 
z
" transform="scale(0.015625)"/>
       <path id="DejaVuSans-20" transform="scale(0.015625)"/>
       <path id="DejaVuSans-5b" d="M 550 4863 
L 1875 4863 
L 1875 4416 
L 1125 4416 
L 1125 -397 
L 1875 -397 
L 1875 -844 
L 550 -844 
L 550 4863 
z
" transform="scale(0.015625)"/>
       <path id="DejaVuSans-61" d="M 2194 1759 
Q 1497 1759 1228 1600 
Q 959 1441 959 1056 
Q 959 750 1161 570 
Q 1363 391 1709 391 
Q 2188 391 2477 730 
Q 2766 1069 2766 1631 
L 2766 1759 
L 2194 1759 
z
M 3341 1997 
L 3341 0 
L 2766 0 
L 2766 531 
Q 2569 213 2275 61 
Q 1981 -91 1556 -91 
Q 1019 -91 701 211 
Q 384 513 384 1019 
Q 384 1609 779 1909 
Q 1175 2209 1959 2209 
L 2766 2209 
L 2766 2266 
Q 2766 2663 2505 2880 
Q 2244 3097 1772 3097 
Q 1472 3097 1187 3025 
Q 903 2953 641 2809 
L 641 3341 
Q 956 3463 1253 3523 
Q 1550 3584 1831 3584 
Q 2591 3584 2966 3190 
Q 3341 2797 3341 1997 
z
" transform="scale(0.015625)"/>
       <path id="DejaVuSans-75" d="M 544 1381 
L 544 3500 
L 1119 3500 
L 1119 1403 
Q 1119 906 1312 657 
Q 1506 409 1894 409 
Q 2359 409 2629 706 
Q 2900 1003 2900 1516 
L 2900 3500 
L 3475 3500 
L 3475 0 
L 2900 0 
L 2900 538 
Q 2691 219 2414 64 
Q 2138 -91 1772 -91 
Q 1169 -91 856 284 
Q 544 659 544 1381 
z
M 1991 3584 
L 1991 3584 
z
" transform="scale(0.015625)"/>
       <path id="DejaVuSans-5d" d="M 1947 4863 
L 1947 -844 
L 622 -844 
L 622 -397 
L 1369 -397 
L 1369 4416 
L 622 4416 
L 622 4863 
L 1947 4863 
z
" transform="scale(0.015625)"/>
      </defs>
      <use xlink:href="#DejaVuSans-3b4"/>
      <use xlink:href="#DejaVuSans-20" x="61.181641"/>
      <use xlink:href="#DejaVuSans-5b" x="92.96875"/>
      <use xlink:href="#DejaVuSans-61" x="131.982422"/>
      <use xlink:href="#DejaVuSans-2e" x="193.261719"/>
      <use xlink:href="#DejaVuSans-75" x="225.048828"/>
      <use xlink:href="#DejaVuSans-2e" x="288.427734"/>
      <use xlink:href="#DejaVuSans-5d" x="320.214844"/>
     </g>
    </g>
   </g>
   <g id="line2d_15">
    <path d="M -1 129.49677 
L 33.188709 139.810402 
L 84.754286 165.048707 
L 86.640258 166.399076 
L 88.52623 169.72883 
L 90.412202 171.255167 
L 92.298174 170.722062 
L 94.184146 172.337098 
L 96.070118 174.348861 
L 97.95609 174.069786 
L 99.842062 178.315307 
L 101.728034 178.45734 
L 103.614006 176.306906 
L 105.499979 177.550614 
L 107.385951 178.618336 
L 109.271923 182.299212 
L 111.157895 184.906454 
L 113.043867 188.854928 
L 114.929839 192.389411 
L 118.701783 201.670497 
L 120.587755 205.760057 
L 122.473727 208.995872 
L 124.359699 214.670516 
L 126.245671 223.383242 
L 128.131643 229.181961 
L 130.017615 224.598411 
L 131.903588 223.928087 
L 133.78956 233.766202 
L 135.675532 231.762338 
L 137.561504 214.086986 
L 139.447476 194.095934 
L 141.333448 192.518087 
L 143.21942 202.841272 
L 145.105392 211.319855 
L 146.991364 224.012022 
L 148.877336 234.453915 
L 150.763308 234.823983 
L 152.64928 235.986778 
L 154.535252 241.010783 
L 156.421224 246.932338 
L 160.193169 262.796828 
L 162.079141 265.01434 
L 163.965113 253.703662 
L 165.851085 238.424175 
L 167.737057 224.929057 
L 169.623029 212.589405 
L 171.509001 198.935002 
L 173.394973 189.773378 
L 175.280945 189.390787 
L 177.166917 191.739342 
L 179.052889 192.127159 
L 180.938861 192.298518 
L 182.824834 193.380772 
L 184.710806 191.407427 
L 186.596778 188.590117 
L 188.48275 188.329358 
L 190.368722 186.179435 
L 192.254694 183.240186 
L 194.140666 186.777075 
L 196.026638 190.793092 
L 197.91261 189.100217 
L 199.798582 187.99818 
L 201.684554 189.996735 
L 203.570526 188.076238 
L 205.456498 185.391269 
L 207.34247 182.503213 
L 209.228443 182.649631 
L 211.114415 181.911005 
L 213.000387 176.87762 
L 214.886359 175.985333 
L 216.772331 174.91565 
L 218.658303 172.39145 
L 220.544275 171.026831 
L 222.430247 166.669797 
L 224.316219 164.66803 
L 226.202191 165.184377 
L 228.088163 162.187778 
L 229.974135 159.489201 
L 231.860107 156.122986 
L 233.746079 153.778024 
L 235.632052 153.33589 
L 237.518024 153.488863 
L 239.403996 150.650862 
L 241.289968 145.764672 
L 243.17594 146.340834 
L 245.061912 145.173277 
L 246.947884 143.764195 
L 248.833856 140.77146 
L 250.719828 138.361144 
L 252.6058 139.806723 
L 254.491772 135.798741 
L 256.377744 132.271815 
L 258.263716 134.056343 
L 260.149689 134.188554 
L 262.035661 129.647595 
L 263.921633 127.455725 
L 265.807605 127.196088 
L 267.693577 125.243094 
L 269.579549 125.324282 
L 271.465521 123.551393 
L 273.351493 120.796847 
L 275.237465 121.535694 
L 277.123437 122.953669 
L 279.009409 122.393137 
L 280.895381 120.960884 
L 282.781353 117.954694 
L 284.667325 117.143629 
L 286.553298 117.704834 
L 288.43927 116.860883 
L 290.325242 116.948245 
L 292.211214 116.319066 
L 294.097186 116.522007 
L 295.983158 116.838221 
L 297.86913 117.487162 
L 299.755102 118.001854 
L 301.641074 117.630839 
L 303.527046 116.669163 
L 305.413018 115.19683 
L 307.29899 112.55776 
L 309.184962 111.082077 
L 311.070934 110.741733 
L 312.956907 109.289023 
L 314.842879 107.481645 
L 318.614823 103.280992 
L 320.500795 101.149996 
L 322.386767 98.660561 
L 324.272739 96.44602 
L 326.158711 97.139746 
L 328.044683 98.276899 
L 329.930655 96.865749 
L 331.816627 94.422959 
L 335.588571 89.808823 
L 337.474544 89.907067 
L 339.360516 92.558873 
L 341.246488 93.976047 
L 346.904404 95.100737 
L 350.676348 93.834164 
L 352.56232 93.742408 
L 354.448292 93.422151 
L 356.334264 92.336641 
L 358.220236 90.854779 
L 360.106208 89.810923 
L 361.99218 89.673426 
L 363.878153 90.648584 
L 365.764125 91.289906 
L 367.650097 90.059512 
L 369.536069 87.212324 
L 373.308013 80.261677 
L 375.193985 79.607174 
L 377.079957 82.589142 
L 378.965929 84.885461 
L 380.851901 85.936353 
L 382.737873 86.378926 
L 384.623845 85.823752 
L 386.509817 84.1554 
L 388.395789 82.136742 
L 390.281762 80.2844 
L 392.167734 78.790272 
L 394.053706 77.813845 
L 395.939678 76.963921 
L 397.82565 78.393062 
L 399.711622 83.366257 
L 401.597594 85.806489 
L 403.483566 84.163711 
L 405.369538 82.067922 
L 407.25551 78.972041 
L 409.141482 77.071529 
L 411.027454 78.080895 
L 412.913426 79.36205 
L 416.685371 81.114814 
L 418.571343 81.240733 
L 420.457315 81.207606 
L 422.343287 79.886804 
L 424.229259 76.570115 
L 426.115231 74.82566 
L 428.001203 76.157311 
L 429.887175 77.669276 
L 433.659119 78.888594 
L 435.545091 78.664087 
L 437.431063 77.093349 
L 439.317035 77.504209 
L 441.203008 79.819339 
L 443.08898 80.778719 
L 444.974952 80.566174 
L 446.860924 80.056325 
L 448.746896 80.235028 
L 450.632868 80.526205 
L 452.51884 81.348593 
L 454.404812 82.643626 
L 456.290784 83.129332 
L 460.062728 82.647732 
L 463.834672 84.292851 
L 465.720644 84.435176 
L 467.606617 84.722382 
L 469.492589 85.190292 
L 471.378561 85.803724 
L 475.150505 85.344132 
L 478.922449 87.941906 
L 480.808421 88.377498 
L 482.694393 88.244571 
L 484.580365 87.494285 
L 486.466337 86.002519 
L 488.352309 84.979714 
L 490.238281 85.900291 
L 492.124253 87.49873 
L 494.010226 88.032633 
L 495.896198 87.569337 
L 497.78217 86.93124 
L 499.668142 87.264291 
L 501.554114 88.527307 
L 503.440086 89.930192 
L 505.326058 90.856594 
L 507.21203 90.930435 
L 510.983974 90.483856 
L 512.869946 90.785699 
L 514.755918 91.468294 
L 516.64189 91.218909 
L 518.527863 90.40836 
L 520.413835 89.310295 
L 522.299807 88.507373 
L 524.185779 88.286189 
L 526.071751 88.632287 
L 529.843695 91.868483 
L 531.729667 91.924689 
L 533.615639 90.537427 
L 535.501611 88.530188 
L 537.387583 87.643552 
L 539.273555 88.480394 
L 541.159527 90.709176 
L 543.045499 92.745405 
L 544.931472 93.505601 
L 546.817444 93.895733 
L 548.703416 93.933938 
L 552.47536 92.855548 
L 556.247304 92.203531 
L 558.133276 92.166787 
L 560.019248 92.972636 
L 561.90522 93.006835 
L 563.791192 92.29554 
L 565.677164 92.704353 
L 567.563136 93.238297 
L 569.449108 93.194941 
L 573.221053 91.970084 
L 575.107025 91.246719 
L 577 90.915021 
L 577 90.915021 
" clip-path="url(#pcdd33e7b62)" style="fill: none; stroke: #440154; stroke-width: 2; stroke-linecap: square"/>
   </g>
   <g id="line2d_16">
    <path d="M -1 133.117127 
L 33.188709 143.994149 
L 84.754286 171.732499 
L 86.640258 173.433372 
L 88.52623 174.879415 
L 90.412202 176.521347 
L 92.298174 177.904133 
L 94.184146 178.718094 
L 96.070118 178.866362 
L 97.95609 180.46521 
L 99.842062 181.300398 
L 101.728034 184.428259 
L 103.614006 189.099583 
L 105.499979 191.230721 
L 107.385951 192.921958 
L 109.271923 195.816642 
L 111.157895 199.8605 
L 113.043867 200.937053 
L 114.929839 202.86478 
L 116.815811 207.431583 
L 118.701783 212.411891 
L 120.587755 218.008022 
L 122.473727 225.563455 
L 124.359699 233.790943 
L 126.245671 240.142879 
L 130.017615 245.719579 
L 131.903588 251.890184 
L 133.78956 259.620541 
L 135.675532 257.662853 
L 139.447476 219.509712 
L 141.333448 208.679464 
L 143.21942 201.203616 
L 145.105392 199.095461 
L 146.991364 202.336197 
L 150.763308 222.405127 
L 152.64928 224.307334 
L 154.535252 228.018939 
L 156.421224 238.419637 
L 158.307197 251.451162 
L 160.193169 260.877586 
L 162.079141 261.444768 
L 163.965113 255.149029 
L 165.851085 241.420772 
L 167.737057 223.237172 
L 169.623029 208.145632 
L 171.509001 197.640452 
L 173.394973 189.359235 
L 175.280945 186.157453 
L 177.166917 187.129041 
L 179.052889 189.269425 
L 180.938861 190.145826 
L 182.824834 189.247861 
L 186.596778 187.24535 
L 188.48275 187.167506 
L 190.368722 186.906087 
L 192.254694 187.74299 
L 194.140666 187.912724 
L 196.026638 188.645176 
L 197.91261 189.952481 
L 199.798582 190.106873 
L 201.684554 188.165807 
L 203.570526 187.129784 
L 205.456498 186.62925 
L 207.34247 185.215488 
L 209.228443 183.224236 
L 211.114415 182.171015 
L 213.000387 181.529139 
L 214.886359 179.357756 
L 216.772331 177.774756 
L 218.658303 175.134057 
L 220.544275 171.832879 
L 224.316219 168.391315 
L 228.088163 162.83179 
L 229.974135 159.303332 
L 233.746079 156.33728 
L 237.518024 148.862796 
L 239.403996 147.256204 
L 241.289968 146.743297 
L 243.17594 143.876604 
L 245.061912 141.350005 
L 246.947884 140.251921 
L 248.833856 138.411227 
L 252.6058 132.109092 
L 254.491772 132.731595 
L 256.377744 131.891564 
L 258.263716 127.869999 
L 260.149689 127.133804 
L 262.035661 126.686452 
L 263.921633 124.363994 
L 265.807605 122.642457 
L 269.579549 120.384628 
L 273.351493 120.764795 
L 275.237465 119.122531 
L 277.123437 115.936005 
L 279.009409 114.172778 
L 280.895381 113.952764 
L 282.781353 114.372614 
L 284.667325 113.704699 
L 286.553298 112.086409 
L 288.43927 111.127855 
L 290.325242 110.018005 
L 294.097186 109.362898 
L 295.983158 109.434452 
L 297.86913 108.932256 
L 299.755102 107.87175 
L 307.29899 104.116171 
L 309.184962 102.353481 
L 311.070934 101.159858 
L 312.956907 101.945167 
L 314.842879 103.197226 
L 316.728851 103.951546 
L 318.614823 104.219124 
L 322.386767 105.011249 
L 324.272739 104.587922 
L 326.158711 103.225982 
L 328.044683 102.034182 
L 329.930655 101.888612 
L 331.816627 102.21988 
L 333.702599 103.230662 
L 335.588571 104.764445 
L 337.474544 103.593569 
L 339.360516 100.579165 
L 341.246488 98.879507 
L 343.13246 97.747734 
L 346.904404 94.89736 
L 348.790376 94.029383 
L 350.676348 93.769786 
L 352.56232 93.644769 
L 356.334264 93.03724 
L 360.106208 91.81449 
L 363.878153 89.457036 
L 365.764125 88.927965 
L 367.650097 88.775726 
L 369.536069 88.919941 
L 371.422041 89.567936 
L 373.308013 90.516864 
L 375.193985 89.714283 
L 377.079957 86.895308 
L 378.965929 84.511721 
L 380.851901 83.116975 
L 382.737873 82.280522 
L 384.623845 82.358979 
L 386.509817 82.825167 
L 388.395789 82.832148 
L 392.167734 82.586943 
L 395.939678 81.954001 
L 397.82565 80.971992 
L 399.711622 78.792793 
L 401.597594 77.636811 
L 403.483566 77.997306 
L 409.141482 79.708988 
L 411.027454 79.633437 
L 414.799398 78.712466 
L 416.685371 78.692735 
L 420.457315 79.379212 
L 422.343287 80.248737 
L 424.229259 81.50762 
L 426.115231 81.671698 
L 428.001203 80.695175 
L 429.887175 80.002804 
L 431.773147 79.689025 
L 433.659119 79.504031 
L 437.431063 80.004396 
L 439.317035 79.898048 
L 441.203008 80.136922 
L 443.08898 80.868683 
L 446.860924 82.628751 
L 448.746896 82.940339 
L 450.632868 82.176916 
L 452.51884 80.962811 
L 454.404812 80.807431 
L 460.062728 82.849132 
L 465.720644 83.782562 
L 467.606617 83.775344 
L 471.378561 83.973046 
L 473.264533 83.933948 
L 475.150505 83.6525 
L 477.036477 83.225987 
L 478.922449 83.186359 
L 482.694393 83.880702 
L 486.466337 85.223968 
L 488.352309 84.889026 
L 490.238281 84.414878 
L 492.124253 84.851707 
L 497.78217 87.628955 
L 499.668142 88.292751 
L 501.554114 87.987337 
L 503.440086 87.072049 
L 505.326058 86.381829 
L 507.21203 86.239196 
L 512.869946 86.492622 
L 514.755918 86.485257 
L 516.64189 86.845774 
L 522.299807 88.470445 
L 524.185779 88.768021 
L 526.071751 88.47483 
L 527.957723 87.926593 
L 529.843695 87.938307 
L 531.729667 88.45563 
L 533.615639 89.235827 
L 535.501611 90.511152 
L 537.387583 91.481263 
L 539.273555 91.025769 
L 541.159527 89.525048 
L 543.045499 88.53448 
L 544.931472 88.533362 
L 546.817444 88.757856 
L 548.703416 89.355209 
L 552.47536 91.267025 
L 554.361332 91.798385 
L 558.133276 92.275134 
L 561.90522 92.117903 
L 563.791192 92.365321 
L 565.677164 92.442421 
L 569.449108 92.295906 
L 573.221053 92.537423 
L 577 93.173046 
L 577 93.173046 
" clip-path="url(#pcdd33e7b62)" style="fill: none; stroke: #7ad151; stroke-width: 2; stroke-linecap: square"/>
   </g>
   <g id="patch_3">
    <path d="M 72 270.72 
L 72 69.12 
" style="fill: none; stroke: #000000; stroke-width: 0.8; stroke-linejoin: miter; stroke-linecap: square"/>
   </g>
   <g id="patch_4">
    <path d="M 518.4 270.72 
L 518.4 69.12 
" style="fill: none; stroke: #000000; stroke-width: 0.8; stroke-linejoin: miter; stroke-linecap: square"/>
   </g>
   <g id="patch_5">
    <path d="M 72 270.72 
L 518.4 270.72 
" style="fill: none; stroke: #000000; stroke-width: 0.8; stroke-linejoin: miter; stroke-linecap: square"/>
   </g>
   <g id="patch_6">
    <path d="M 72 69.12 
L 518.4 69.12 
" style="fill: none; stroke: #000000; stroke-width: 0.8; stroke-linejoin: miter; stroke-linecap: square"/>
   </g>
   <g id="text_8">
    <!-- δ -->
    <g transform="translate(291.52875 63.12) scale(0.12 -0.12)">
     <use xlink:href="#DejaVuSans-3b4"/>
    </g>
   </g>
   <g id="legend_1">
    <g id="patch_7">
     <path d="M 461.675 265.72 
L 511.4 265.72 
Q 513.4 265.72 513.4 263.72 
L 513.4 235.36375 
Q 513.4 233.36375 511.4 233.36375 
L 461.675 233.36375 
Q 459.675 233.36375 459.675 235.36375 
L 459.675 263.72 
Q 459.675 265.72 461.675 265.72 
z
" style="fill: #ffffff; opacity: 0.8; stroke: #cccccc; stroke-linejoin: miter"/>
    </g>
    <g id="line2d_17">
     <path d="M 463.675 241.462187 
L 473.675 241.462187 
L 483.675 241.462187 
" style="fill: none; stroke: #440154; stroke-width: 2; stroke-linecap: square"/>
    </g>
    <g id="text_9">
     <!-- 0° -->
     <g transform="translate(491.675 244.962187) scale(0.1 -0.1)">
      <defs>
       <path id="DejaVuSans-b0" d="M 1600 4347 
Q 1350 4347 1178 4173 
Q 1006 4000 1006 3750 
Q 1006 3503 1178 3333 
Q 1350 3163 1600 3163 
Q 1850 3163 2022 3333 
Q 2194 3503 2194 3750 
Q 2194 3997 2020 4172 
Q 1847 4347 1600 4347 
z
M 1600 4750 
Q 1800 4750 1984 4673 
Q 2169 4597 2303 4453 
Q 2447 4313 2519 4134 
Q 2591 3956 2591 3750 
Q 2591 3338 2302 3052 
Q 2013 2766 1594 2766 
Q 1172 2766 890 3047 
Q 609 3328 609 3750 
Q 609 4169 896 4459 
Q 1184 4750 1600 4750 
z
" transform="scale(0.015625)"/>
      </defs>
      <use xlink:href="#DejaVuSans-30"/>
      <use xlink:href="#DejaVuSans-b0" x="63.623047"/>
     </g>
    </g>
    <g id="line2d_18">
     <path d="M 463.675 256.140312 
L 473.675 256.140312 
L 483.675 256.140312 
" style="fill: none; stroke: #7ad151; stroke-width: 2; stroke-linecap: square"/>
    </g>
    <g id="text_10">
     <!-- 90° -->
     <g transform="translate(491.675 259.640312) scale(0.1 -0.1)">
      <defs>
       <path id="DejaVuSans-39" d="M 703 97 
L 703 672 
Q 941 559 1184 500 
Q 1428 441 1663 441 
Q 2288 441 2617 861 
Q 2947 1281 2994 2138 
Q 2813 1869 2534 1725 
Q 2256 1581 1919 1581 
Q 1219 1581 811 2004 
Q 403 2428 403 3163 
Q 403 3881 828 4315 
Q 1253 4750 1959 4750 
Q 2769 4750 3195 4129 
Q 3622 3509 3622 2328 
Q 3622 1225 3098 567 
Q 2575 -91 1691 -91 
Q 1453 -91 1209 -44 
Q 966 3 703 97 
z
M 1959 2075 
Q 2384 2075 2632 2365 
Q 2881 2656 2881 3163 
Q 2881 3666 2632 3958 
Q 2384 4250 1959 4250 
Q 1534 4250 1286 3958 
Q 1038 3666 1038 3163 
Q 1038 2656 1286 2365 
Q 1534 2075 1959 2075 
z
" transform="scale(0.015625)"/>
      </defs>
      <use xlink:href="#DejaVuSans-39"/>
      <use xlink:href="#DejaVuSans-30" x="63.623047"/>
      <use xlink:href="#DejaVuSans-b0" x="127.246094"/>
     </g>
    </g>
   </g>
  </g>
  <g id="axes_2">
   <g id="patch_8">
    <path d="M 72 512.64 
L 518.4 512.64 
L 518.4 311.04 
L 72 311.04 
z
" style="fill: #ffffff"/>
   </g>
   <g id="matplotlib.axis_3">
    <g id="xtick_9">
     <g id="line2d_19">
      <g>
       <use xlink:href="#mb6102b1393" x="72" y="512.64" style="stroke: #000000; stroke-width: 0.8"/>
      </g>
     </g>
     <g id="text_11">
      <!-- 280 -->
      <g transform="translate(62.45625 527.238438) scale(0.1 -0.1)">
       <defs>
        <path id="DejaVuSans-38" d="M 2034 2216 
Q 1584 2216 1326 1975 
Q 1069 1734 1069 1313 
Q 1069 891 1326 650 
Q 1584 409 2034 409 
Q 2484 409 2743 651 
Q 3003 894 3003 1313 
Q 3003 1734 2745 1975 
Q 2488 2216 2034 2216 
z
M 1403 2484 
Q 997 2584 770 2862 
Q 544 3141 544 3541 
Q 544 4100 942 4425 
Q 1341 4750 2034 4750 
Q 2731 4750 3128 4425 
Q 3525 4100 3525 3541 
Q 3525 3141 3298 2862 
Q 3072 2584 2669 2484 
Q 3125 2378 3379 2068 
Q 3634 1759 3634 1313 
Q 3634 634 3220 271 
Q 2806 -91 2034 -91 
Q 1263 -91 848 271 
Q 434 634 434 1313 
Q 434 1759 690 2068 
Q 947 2378 1403 2484 
z
M 1172 3481 
Q 1172 3119 1398 2916 
Q 1625 2713 2034 2713 
Q 2441 2713 2670 2916 
Q 2900 3119 2900 3481 
Q 2900 3844 2670 4047 
Q 2441 4250 2034 4250 
Q 1625 4250 1398 4047 
Q 1172 3844 1172 3481 
z
" transform="scale(0.015625)"/>
       </defs>
       <use xlink:href="#DejaVuSans-32"/>
       <use xlink:href="#DejaVuSans-38" x="63.623047"/>
       <use xlink:href="#DejaVuSans-30" x="127.246094"/>
      </g>
     </g>
    </g>
    <g id="xtick_10">
     <g id="line2d_20">
      <g>
       <use xlink:href="#mb6102b1393" x="135.771429" y="512.64" style="stroke: #000000; stroke-width: 0.8"/>
      </g>
     </g>
     <g id="text_12">
      <!-- 285 -->
      <g transform="translate(126.227679 527.238438) scale(0.1 -0.1)">
       <use xlink:href="#DejaVuSans-32"/>
       <use xlink:href="#DejaVuSans-38" x="63.623047"/>
       <use xlink:href="#DejaVuSans-35" x="127.246094"/>
      </g>
     </g>
    </g>
    <g id="xtick_11">
     <g id="line2d_21">
      <g>
       <use xlink:href="#mb6102b1393" x="199.542857" y="512.64" style="stroke: #000000; stroke-width: 0.8"/>
      </g>
     </g>
     <g id="text_13">
      <!-- 290 -->
      <g transform="translate(189.999107 527.238438) scale(0.1 -0.1)">
       <use xlink:href="#DejaVuSans-32"/>
       <use xlink:href="#DejaVuSans-39" x="63.623047"/>
       <use xlink:href="#DejaVuSans-30" x="127.246094"/>
      </g>
     </g>
    </g>
    <g id="xtick_12">
     <g id="line2d_22">
      <g>
       <use xlink:href="#mb6102b1393" x="263.314286" y="512.64" style="stroke: #000000; stroke-width: 0.8"/>
      </g>
     </g>
     <g id="text_14">
      <!-- 295 -->
      <g transform="translate(253.770536 527.238438) scale(0.1 -0.1)">
       <use xlink:href="#DejaVuSans-32"/>
       <use xlink:href="#DejaVuSans-39" x="63.623047"/>
       <use xlink:href="#DejaVuSans-35" x="127.246094"/>
      </g>
     </g>
    </g>
    <g id="xtick_13">
     <g id="line2d_23">
      <g>
       <use xlink:href="#mb6102b1393" x="327.085714" y="512.64" style="stroke: #000000; stroke-width: 0.8"/>
      </g>
     </g>
     <g id="text_15">
      <!-- 300 -->
      <g transform="translate(317.541964 527.238438) scale(0.1 -0.1)">
       <defs>
        <path id="DejaVuSans-33" d="M 2597 2516 
Q 3050 2419 3304 2112 
Q 3559 1806 3559 1356 
Q 3559 666 3084 287 
Q 2609 -91 1734 -91 
Q 1441 -91 1130 -33 
Q 819 25 488 141 
L 488 750 
Q 750 597 1062 519 
Q 1375 441 1716 441 
Q 2309 441 2620 675 
Q 2931 909 2931 1356 
Q 2931 1769 2642 2001 
Q 2353 2234 1838 2234 
L 1294 2234 
L 1294 2753 
L 1863 2753 
Q 2328 2753 2575 2939 
Q 2822 3125 2822 3475 
Q 2822 3834 2567 4026 
Q 2313 4219 1838 4219 
Q 1578 4219 1281 4162 
Q 984 4106 628 3988 
L 628 4550 
Q 988 4650 1302 4700 
Q 1616 4750 1894 4750 
Q 2613 4750 3031 4423 
Q 3450 4097 3450 3541 
Q 3450 3153 3228 2886 
Q 3006 2619 2597 2516 
z
" transform="scale(0.015625)"/>
       </defs>
       <use xlink:href="#DejaVuSans-33"/>
       <use xlink:href="#DejaVuSans-30" x="63.623047"/>
       <use xlink:href="#DejaVuSans-30" x="127.246094"/>
      </g>
     </g>
    </g>
    <g id="xtick_14">
     <g id="line2d_24">
      <g>
       <use xlink:href="#mb6102b1393" x="390.857143" y="512.64" style="stroke: #000000; stroke-width: 0.8"/>
      </g>
     </g>
     <g id="text_16">
      <!-- 305 -->
      <g transform="translate(381.313393 527.238438) scale(0.1 -0.1)">
       <use xlink:href="#DejaVuSans-33"/>
       <use xlink:href="#DejaVuSans-30" x="63.623047"/>
       <use xlink:href="#DejaVuSans-35" x="127.246094"/>
      </g>
     </g>
    </g>
    <g id="xtick_15">
     <g id="line2d_25">
      <g>
       <use xlink:href="#mb6102b1393" x="454.628571" y="512.64" style="stroke: #000000; stroke-width: 0.8"/>
      </g>
     </g>
     <g id="text_17">
      <!-- 310 -->
      <g transform="translate(445.084821 527.238438) scale(0.1 -0.1)">
       <use xlink:href="#DejaVuSans-33"/>
       <use xlink:href="#DejaVuSans-31" x="63.623047"/>
       <use xlink:href="#DejaVuSans-30" x="127.246094"/>
      </g>
     </g>
    </g>
    <g id="xtick_16">
     <g id="line2d_26">
      <g>
       <use xlink:href="#mb6102b1393" x="518.4" y="512.64" style="stroke: #000000; stroke-width: 0.8"/>
      </g>
     </g>
     <g id="text_18">
      <!-- 315 -->
      <g transform="translate(508.85625 527.238438) scale(0.1 -0.1)">
       <use xlink:href="#DejaVuSans-33"/>
       <use xlink:href="#DejaVuSans-31" x="63.623047"/>
       <use xlink:href="#DejaVuSans-35" x="127.246094"/>
      </g>
     </g>
    </g>
    <g id="text_19">
     <!-- energy [eV] -->
     <g transform="translate(265.789062 540.916563) scale(0.1 -0.1)">
      <defs>
       <path id="DejaVuSans-65" d="M 3597 1894 
L 3597 1613 
L 953 1613 
Q 991 1019 1311 708 
Q 1631 397 2203 397 
Q 2534 397 2845 478 
Q 3156 559 3463 722 
L 3463 178 
Q 3153 47 2828 -22 
Q 2503 -91 2169 -91 
Q 1331 -91 842 396 
Q 353 884 353 1716 
Q 353 2575 817 3079 
Q 1281 3584 2069 3584 
Q 2775 3584 3186 3129 
Q 3597 2675 3597 1894 
z
M 3022 2063 
Q 3016 2534 2758 2815 
Q 2500 3097 2075 3097 
Q 1594 3097 1305 2825 
Q 1016 2553 972 2059 
L 3022 2063 
z
" transform="scale(0.015625)"/>
       <path id="DejaVuSans-6e" d="M 3513 2113 
L 3513 0 
L 2938 0 
L 2938 2094 
Q 2938 2591 2744 2837 
Q 2550 3084 2163 3084 
Q 1697 3084 1428 2787 
Q 1159 2491 1159 1978 
L 1159 0 
L 581 0 
L 581 3500 
L 1159 3500 
L 1159 2956 
Q 1366 3272 1645 3428 
Q 1925 3584 2291 3584 
Q 2894 3584 3203 3211 
Q 3513 2838 3513 2113 
z
" transform="scale(0.015625)"/>
       <path id="DejaVuSans-72" d="M 2631 2963 
Q 2534 3019 2420 3045 
Q 2306 3072 2169 3072 
Q 1681 3072 1420 2755 
Q 1159 2438 1159 1844 
L 1159 0 
L 581 0 
L 581 3500 
L 1159 3500 
L 1159 2956 
Q 1341 3275 1631 3429 
Q 1922 3584 2338 3584 
Q 2397 3584 2469 3576 
Q 2541 3569 2628 3553 
L 2631 2963 
z
" transform="scale(0.015625)"/>
       <path id="DejaVuSans-67" d="M 2906 1791 
Q 2906 2416 2648 2759 
Q 2391 3103 1925 3103 
Q 1463 3103 1205 2759 
Q 947 2416 947 1791 
Q 947 1169 1205 825 
Q 1463 481 1925 481 
Q 2391 481 2648 825 
Q 2906 1169 2906 1791 
z
M 3481 434 
Q 3481 -459 3084 -895 
Q 2688 -1331 1869 -1331 
Q 1566 -1331 1297 -1286 
Q 1028 -1241 775 -1147 
L 775 -588 
Q 1028 -725 1275 -790 
Q 1522 -856 1778 -856 
Q 2344 -856 2625 -561 
Q 2906 -266 2906 331 
L 2906 616 
Q 2728 306 2450 153 
Q 2172 0 1784 0 
Q 1141 0 747 490 
Q 353 981 353 1791 
Q 353 2603 747 3093 
Q 1141 3584 1784 3584 
Q 2172 3584 2450 3431 
Q 2728 3278 2906 2969 
L 2906 3500 
L 3481 3500 
L 3481 434 
z
" transform="scale(0.015625)"/>
       <path id="DejaVuSans-79" d="M 2059 -325 
Q 1816 -950 1584 -1140 
Q 1353 -1331 966 -1331 
L 506 -1331 
L 506 -850 
L 844 -850 
Q 1081 -850 1212 -737 
Q 1344 -625 1503 -206 
L 1606 56 
L 191 3500 
L 800 3500 
L 1894 763 
L 2988 3500 
L 3597 3500 
L 2059 -325 
z
" transform="scale(0.015625)"/>
       <path id="DejaVuSans-56" d="M 1831 0 
L 50 4666 
L 709 4666 
L 2188 738 
L 3669 4666 
L 4325 4666 
L 2547 0 
L 1831 0 
z
" transform="scale(0.015625)"/>
      </defs>
      <use xlink:href="#DejaVuSans-65"/>
      <use xlink:href="#DejaVuSans-6e" x="61.523438"/>
      <use xlink:href="#DejaVuSans-65" x="124.902344"/>
      <use xlink:href="#DejaVuSans-72" x="186.425781"/>
      <use xlink:href="#DejaVuSans-67" x="225.789062"/>
      <use xlink:href="#DejaVuSans-79" x="289.265625"/>
      <use xlink:href="#DejaVuSans-20" x="348.445312"/>
      <use xlink:href="#DejaVuSans-5b" x="380.232422"/>
      <use xlink:href="#DejaVuSans-65" x="419.246094"/>
      <use xlink:href="#DejaVuSans-56" x="480.769531"/>
      <use xlink:href="#DejaVuSans-5d" x="549.177734"/>
     </g>
    </g>
   </g>
   <g id="matplotlib.axis_4">
    <g id="ytick_7">
     <g id="line2d_27">
      <g>
       <use xlink:href="#mf360e760d2" x="72" y="512.64" style="stroke: #000000; stroke-width: 0.8"/>
      </g>
     </g>
     <g id="text_20">
      <!-- 0.0000 -->
      <g transform="translate(30.009375 516.439219) scale(0.1 -0.1)">
       <use xlink:href="#DejaVuSans-30"/>
       <use xlink:href="#DejaVuSans-2e" x="63.623047"/>
       <use xlink:href="#DejaVuSans-30" x="95.410156"/>
       <use xlink:href="#DejaVuSans-30" x="159.033203"/>
       <use xlink:href="#DejaVuSans-30" x="222.65625"/>
       <use xlink:href="#DejaVuSans-30" x="286.279297"/>
      </g>
     </g>
    </g>
    <g id="ytick_8">
     <g id="line2d_28">
      <g>
       <use xlink:href="#mf360e760d2" x="72" y="471.163773" style="stroke: #000000; stroke-width: 0.8"/>
      </g>
     </g>
     <g id="text_21">
      <!-- 0.0005 -->
      <g transform="translate(30.009375 474.962992) scale(0.1 -0.1)">
       <use xlink:href="#DejaVuSans-30"/>
       <use xlink:href="#DejaVuSans-2e" x="63.623047"/>
       <use xlink:href="#DejaVuSans-30" x="95.410156"/>
       <use xlink:href="#DejaVuSans-30" x="159.033203"/>
       <use xlink:href="#DejaVuSans-30" x="222.65625"/>
       <use xlink:href="#DejaVuSans-35" x="286.279297"/>
      </g>
     </g>
    </g>
    <g id="ytick_9">
     <g id="line2d_29">
      <g>
       <use xlink:href="#mf360e760d2" x="72" y="429.687547" style="stroke: #000000; stroke-width: 0.8"/>
      </g>
     </g>
     <g id="text_22">
      <!-- 0.0010 -->
      <g transform="translate(30.009375 433.486765) scale(0.1 -0.1)">
       <use xlink:href="#DejaVuSans-30"/>
       <use xlink:href="#DejaVuSans-2e" x="63.623047"/>
       <use xlink:href="#DejaVuSans-30" x="95.410156"/>
       <use xlink:href="#DejaVuSans-30" x="159.033203"/>
       <use xlink:href="#DejaVuSans-31" x="222.65625"/>
       <use xlink:href="#DejaVuSans-30" x="286.279297"/>
      </g>
     </g>
    </g>
    <g id="ytick_10">
     <g id="line2d_30">
      <g>
       <use xlink:href="#mf360e760d2" x="72" y="388.21132" style="stroke: #000000; stroke-width: 0.8"/>
      </g>
     </g>
     <g id="text_23">
      <!-- 0.0015 -->
      <g transform="translate(30.009375 392.010539) scale(0.1 -0.1)">
       <use xlink:href="#DejaVuSans-30"/>
       <use xlink:href="#DejaVuSans-2e" x="63.623047"/>
       <use xlink:href="#DejaVuSans-30" x="95.410156"/>
       <use xlink:href="#DejaVuSans-30" x="159.033203"/>
       <use xlink:href="#DejaVuSans-31" x="222.65625"/>
       <use xlink:href="#DejaVuSans-35" x="286.279297"/>
      </g>
     </g>
    </g>
    <g id="ytick_11">
     <g id="line2d_31">
      <g>
       <use xlink:href="#mf360e760d2" x="72" y="346.735093" style="stroke: #000000; stroke-width: 0.8"/>
      </g>
     </g>
     <g id="text_24">
      <!-- 0.0020 -->
      <g transform="translate(30.009375 350.534312) scale(0.1 -0.1)">
       <use xlink:href="#DejaVuSans-30"/>
       <use xlink:href="#DejaVuSans-2e" x="63.623047"/>
       <use xlink:href="#DejaVuSans-30" x="95.410156"/>
       <use xlink:href="#DejaVuSans-30" x="159.033203"/>
       <use xlink:href="#DejaVuSans-32" x="222.65625"/>
       <use xlink:href="#DejaVuSans-30" x="286.279297"/>
      </g>
     </g>
    </g>
    <g id="text_25">
     <!-- β [a.u.] -->
     <g transform="translate(23.929687 429.932187) rotate(-90) scale(0.1 -0.1)">
      <defs>
       <path id="DejaVuSans-3b2" d="M 1178 216 
L 1178 -1331 
L 600 -1331 
L 600 3478 
Q 600 4903 1931 4903 
Q 3288 4903 3288 3700 
Q 3288 2844 2750 2531 
Q 3625 2250 3625 1416 
Q 3625 -66 2119 -66 
Q 1456 -66 1178 216 
z
M 1178 966 
Q 1525 425 2141 425 
Q 3041 425 3041 1406 
Q 3041 2288 1591 2219 
L 1591 2750 
Q 2725 2750 2725 3750 
Q 2725 4434 1994 4434 
Q 1178 4434 1178 3459 
L 1178 966 
z
" transform="scale(0.015625)"/>
      </defs>
      <use xlink:href="#DejaVuSans-3b2"/>
      <use xlink:href="#DejaVuSans-20" x="63.818359"/>
      <use xlink:href="#DejaVuSans-5b" x="95.605469"/>
      <use xlink:href="#DejaVuSans-61" x="134.619141"/>
      <use xlink:href="#DejaVuSans-2e" x="195.898438"/>
      <use xlink:href="#DejaVuSans-75" x="227.685547"/>
      <use xlink:href="#DejaVuSans-2e" x="291.064453"/>
      <use xlink:href="#DejaVuSans-5d" x="322.851562"/>
     </g>
    </g>
   </g>
   <g id="line2d_32">
    <path d="M -1 473.303166 
L 84.754286 475.802366 
L 86.640258 476.193714 
L 88.52623 477.675645 
L 90.412202 472.466248 
L 92.298174 473.554625 
L 94.184146 474.191671 
L 96.070118 473.492529 
L 97.95609 471.260393 
L 99.842062 477.507855 
L 101.728034 464.613309 
L 103.614006 473.495449 
L 105.499979 469.727451 
L 107.385951 476.415615 
L 109.271923 475.369296 
L 111.157895 477.292547 
L 113.043867 477.839343 
L 114.929839 477.182129 
L 116.815811 478.303158 
L 118.701783 475.154594 
L 120.587755 474.092499 
L 122.473727 470.263908 
L 124.359699 472.553872 
L 126.245671 466.143458 
L 128.131643 455.447595 
L 130.017615 438.950365 
L 131.903588 448.486559 
L 133.78956 438.589092 
L 135.675532 415.368268 
L 137.561504 401.536155 
L 139.447476 410.742304 
L 141.333448 438.494019 
L 143.21942 443.969867 
L 145.105392 448.357663 
L 146.991364 450.620986 
L 150.763308 426.250953 
L 152.64928 427.513727 
L 154.535252 421.789803 
L 156.421224 418.486637 
L 158.307197 409.249918 
L 160.193169 396.35496 
L 163.965113 347.142216 
L 165.851085 339.81104 
L 167.737057 333.225226 
L 169.623029 333.935011 
L 171.509001 332.267146 
L 173.394973 347.40453 
L 175.280945 354.594263 
L 177.166917 360.225209 
L 179.052889 356.913992 
L 180.938861 361.29129 
L 182.824834 357.154472 
L 184.710806 355.683111 
L 186.596778 354.564727 
L 188.48275 358.018769 
L 190.368722 352.427062 
L 192.254694 358.751338 
L 194.140666 362.140808 
L 196.026638 358.47941 
L 197.91261 351.20318 
L 199.798582 354.584124 
L 201.684554 350.310761 
L 203.570526 344.568362 
L 205.456498 343.664356 
L 207.34247 340.755587 
L 209.228443 344.247763 
L 211.114415 335.747719 
L 213.000387 335.458652 
L 214.886359 337.886904 
L 216.772331 333.299515 
L 218.658303 333.481337 
L 220.544275 331.519471 
L 222.430247 328.032324 
L 224.316219 333.471551 
L 226.202191 330.148901 
L 228.088163 327.51378 
L 229.974135 328.239066 
L 231.860107 326.139151 
L 233.746079 330.176368 
L 235.632052 329.498774 
L 237.518024 330.465711 
L 239.403996 324.25636 
L 241.289968 327.780197 
L 243.17594 331.670931 
L 245.061912 326.782257 
L 246.947884 330.669141 
L 248.833856 324.661475 
L 250.719828 332.347357 
L 252.6058 329.638367 
L 254.491772 326.121449 
L 256.377744 331.380483 
L 258.263716 334.595003 
L 260.149689 329.86459 
L 262.035661 328.460621 
L 263.921633 333.517007 
L 265.807605 333.059353 
L 267.693577 333.844009 
L 269.579549 336.889692 
L 271.465521 333.115135 
L 273.351493 337.941874 
L 275.237465 340.289355 
L 277.123437 340.896803 
L 279.009409 338.052059 
L 280.895381 339.095332 
L 282.781353 336.841308 
L 284.667325 343.808311 
L 286.553298 340.968358 
L 288.43927 344.068697 
L 290.325242 343.304928 
L 292.211214 344.647548 
L 294.097186 345.448528 
L 297.86913 345.948901 
L 299.755102 344.624966 
L 301.641074 343.031832 
L 305.413018 340.26454 
L 307.29899 339.068207 
L 309.184962 341.549562 
L 311.070934 340.628513 
L 312.956907 339.982791 
L 314.842879 339.654006 
L 316.728851 339.651928 
L 318.614823 340.043529 
L 322.386767 341.856821 
L 324.272739 344.932487 
L 326.158711 349.289838 
L 328.044683 348.004469 
L 329.930655 347.014197 
L 331.816627 347.467066 
L 335.588571 351.684283 
L 337.474544 358.260176 
L 339.360516 359.831207 
L 343.13246 359.646447 
L 345.018432 360.160427 
L 346.904404 359.334761 
L 348.790376 358.967042 
L 352.56232 359.92441 
L 354.448292 359.355338 
L 356.334264 359.008966 
L 358.220236 359.417658 
L 361.99218 362.536043 
L 363.878153 363.739196 
L 365.764125 361.953982 
L 367.650097 360.002946 
L 369.536069 358.773606 
L 371.422041 360.000397 
L 373.308013 362.468453 
L 375.193985 369.750952 
L 377.079957 372.978172 
L 380.851901 372.236088 
L 382.737873 371.118959 
L 384.623845 369.823624 
L 386.509817 368.869467 
L 388.395789 369.579622 
L 390.281762 370.708254 
L 394.053706 375.283532 
L 395.939678 378.196245 
L 397.82565 383.565464 
L 399.711622 385.824683 
L 401.597594 380.04561 
L 403.483566 377.926989 
L 405.369538 377.11226 
L 407.25551 377.172524 
L 409.141482 381.635094 
L 411.027454 384.995651 
L 412.913426 385.672434 
L 414.799398 386.645474 
L 416.685371 386.346348 
L 418.571343 385.919612 
L 420.457315 385.630185 
L 422.343287 383.829466 
L 424.229259 384.202993 
L 426.115231 389.177117 
L 428.001203 392.690435 
L 431.773147 393.900267 
L 433.659119 394.413131 
L 435.545091 393.934372 
L 437.431063 394.692265 
L 439.317035 399.318193 
L 441.203008 399.838034 
L 443.08898 399.102956 
L 444.974952 398.80285 
L 446.860924 399.602436 
L 448.746896 401.214018 
L 450.632868 401.779936 
L 452.51884 403.762792 
L 454.404812 403.647644 
L 458.176756 403.174148 
L 460.062728 404.257702 
L 461.9487 405.806166 
L 463.834672 405.365728 
L 465.720644 405.671556 
L 469.492589 406.622874 
L 471.378561 406.80719 
L 473.264533 406.063855 
L 475.150505 407.86258 
L 477.036477 408.998077 
L 478.922449 408.307656 
L 480.808421 407.349513 
L 484.580365 405.76458 
L 486.466337 405.803258 
L 488.352309 408.007264 
L 490.238281 410.612266 
L 492.124253 410.646226 
L 494.010226 409.839165 
L 495.896198 409.474558 
L 497.78217 410.399555 
L 499.668142 412.278846 
L 501.554114 413.218914 
L 503.440086 413.275364 
L 507.21203 411.407982 
L 510.983974 411.189205 
L 512.869946 412.028001 
L 514.755918 411.432119 
L 516.64189 410.248695 
L 518.527863 410.069941 
L 520.413835 410.005561 
L 522.299807 411.530223 
L 524.185779 412.627073 
L 526.071751 414.520315 
L 527.957723 415.914158 
L 529.843695 414.619413 
L 531.729667 412.931847 
L 533.615639 411.625192 
L 535.501611 412.489584 
L 539.273555 418.02304 
L 541.159527 419.761343 
L 543.045499 418.769892 
L 544.931472 417.635103 
L 546.817444 417.028784 
L 548.703416 415.930394 
L 550.589388 415.358066 
L 554.361332 415.730515 
L 556.247304 416.250671 
L 558.133276 416.941847 
L 560.019248 417.907258 
L 561.90522 416.260374 
L 563.791192 417.284957 
L 565.677164 418.151357 
L 567.563136 417.926201 
L 569.449108 417.422548 
L 571.335081 417.215226 
L 573.221053 417.688507 
L 575.107025 418.33938 
L 577 420.202745 
L 577 420.202745 
" clip-path="url(#p45d5825286)" style="fill: none; stroke: #0d0887; stroke-width: 2; stroke-linecap: square"/>
   </g>
   <g id="line2d_33">
    <path d="M -1 473.303166 
L 84.754286 475.802366 
L 88.52623 474.83414 
L 90.412202 474.659794 
L 92.298174 473.464181 
L 96.070118 472.490731 
L 97.95609 475.269026 
L 99.842062 473.341403 
L 101.728034 479.831643 
L 103.614006 475.862462 
L 105.499979 475.877779 
L 107.385951 473.912229 
L 109.271923 476.523743 
L 113.043867 471.402434 
L 114.929839 474.095747 
L 116.815811 474.822224 
L 120.587755 473.871656 
L 122.473727 472.830477 
L 124.359699 467.088724 
L 126.245671 458.554658 
L 128.131643 448.271837 
L 130.017615 444.050388 
L 131.903588 436.131904 
L 133.78956 423.318348 
L 135.675532 394.160034 
L 137.561504 374.348156 
L 139.447476 379.171363 
L 141.333448 384.786673 
L 143.21942 393.768203 
L 145.105392 405.801812 
L 146.991364 415.885977 
L 148.877336 425.335561 
L 150.763308 418.179265 
L 152.64928 412.906722 
L 154.535252 416.531706 
L 156.421224 416.546662 
L 158.307197 408.361675 
L 160.193169 389.62617 
L 162.079141 366.500691 
L 165.851085 327.936224 
L 167.737057 322.358175 
L 169.623029 324.174382 
L 171.509001 330.293368 
L 173.394973 335.367881 
L 175.280945 347.453187 
L 177.166917 350.911505 
L 179.052889 355.652534 
L 180.938861 351.965634 
L 182.824834 353.742501 
L 184.710806 351.567895 
L 186.596778 354.216629 
L 188.48275 353.035328 
L 190.368722 354.378444 
L 192.254694 353.968402 
L 194.140666 352.636336 
L 196.026638 352.764803 
L 197.91261 350.2673 
L 199.798582 346.817165 
L 201.684554 342.832997 
L 203.570526 343.510263 
L 205.456498 339.544505 
L 207.34247 338.272165 
L 209.228443 334.921211 
L 211.114415 335.867102 
L 213.000387 331.627265 
L 214.886359 329.913865 
L 216.772331 327.887888 
L 218.658303 324.665819 
L 220.544275 323.924848 
L 222.430247 324.141892 
L 224.316219 321.669636 
L 226.202191 320.311488 
L 228.088163 319.174121 
L 229.974135 318.30345 
L 231.860107 320.919892 
L 233.746079 317.34888 
L 235.632052 316.911845 
L 237.518024 317.309774 
L 239.403996 320.685407 
L 241.289968 319.458634 
L 243.17594 318.043556 
L 245.061912 320.126977 
L 246.947884 320.465503 
L 248.833856 319.64725 
L 250.719828 319.295314 
L 252.6058 321.942195 
L 254.491772 325.956357 
L 256.377744 321.387039 
L 258.263716 323.064862 
L 260.149689 326.920262 
L 262.035661 325.406169 
L 263.921633 326.082818 
L 265.807605 327.754022 
L 267.693577 329.175014 
L 269.579549 330.301741 
L 271.465521 332.856787 
L 273.351493 331.361101 
L 275.237465 330.505893 
L 277.123437 330.059819 
L 279.009409 334.455959 
L 280.895381 335.165048 
L 282.781353 337.670153 
L 284.667325 335.146164 
L 286.553298 337.540152 
L 288.43927 337.389641 
L 290.325242 339.484912 
L 292.211214 340.462796 
L 294.097186 341.635892 
L 295.983158 342.334488 
L 297.86913 341.841527 
L 301.641074 342.934947 
L 307.29899 345.046313 
L 309.184962 345.615055 
L 311.070934 349.03663 
L 312.956907 351.813441 
L 314.842879 352.698791 
L 316.728851 352.885491 
L 318.614823 352.879838 
L 320.500795 353.351693 
L 322.386767 352.601488 
L 324.272739 351.719497 
L 326.158711 351.059005 
L 328.044683 352.488679 
L 329.930655 353.714687 
L 331.816627 354.566042 
L 333.702599 355.18707 
L 335.588571 354.022545 
L 337.474544 349.408345 
L 339.360516 349.653842 
L 341.246488 350.529174 
L 343.13246 351.180859 
L 345.018432 351.371207 
L 346.904404 352.68537 
L 350.676348 355.624338 
L 354.448292 356.800072 
L 356.334264 356.97022 
L 360.106208 357.585084 
L 361.99218 357.567901 
L 365.764125 360.401818 
L 367.650097 361.676301 
L 369.536069 362.720307 
L 371.422041 363.559878 
L 373.308013 362.99916 
L 375.193985 360.177145 
L 377.079957 359.557132 
L 380.851901 363.264485 
L 384.623845 367.760472 
L 386.509817 368.725233 
L 388.395789 369.216338 
L 390.281762 370.031149 
L 392.167734 370.512662 
L 394.053706 370.840949 
L 395.939678 371.43797 
L 397.82565 370.788025 
L 399.711622 371.618034 
L 401.597594 375.000983 
L 403.483566 377.275073 
L 405.369538 378.768942 
L 407.25551 379.925081 
L 409.141482 380.315784 
L 411.027454 380.55436 
L 412.913426 381.180525 
L 414.799398 382.414611 
L 416.685371 383.970463 
L 418.571343 385.221432 
L 420.457315 386.334901 
L 422.343287 387.721934 
L 424.229259 387.830013 
L 426.115231 386.529953 
L 428.001203 386.478772 
L 429.887175 387.631154 
L 431.773147 388.526558 
L 435.545091 391.064981 
L 437.431063 391.524055 
L 439.317035 392.443157 
L 441.203008 393.831635 
L 443.08898 394.911599 
L 444.974952 395.438434 
L 446.860924 395.515017 
L 448.746896 394.681035 
L 450.632868 394.073008 
L 452.51884 394.883705 
L 454.404812 397.181083 
L 458.176756 398.93328 
L 460.062728 399.632015 
L 461.9487 399.163608 
L 463.834672 400.109412 
L 465.720644 399.766692 
L 467.606617 400.191203 
L 473.264533 400.837151 
L 475.150505 400.966852 
L 477.036477 401.683086 
L 478.922449 402.866787 
L 480.808421 403.736257 
L 484.580365 405.305224 
L 488.352309 404.589009 
L 490.238281 405.696893 
L 492.124253 407.181505 
L 494.010226 407.802529 
L 495.896198 408.025309 
L 497.78217 408.075191 
L 501.554114 405.961286 
L 503.440086 405.771487 
L 505.326058 406.565224 
L 507.21203 407.482725 
L 509.098002 408.130603 
L 510.983974 408.633373 
L 512.869946 408.984988 
L 516.64189 410.674808 
L 520.413835 411.505206 
L 522.299807 411.506903 
L 524.185779 411.280108 
L 526.071751 410.824205 
L 527.957723 411.480081 
L 529.843695 412.641152 
L 531.729667 413.534682 
L 533.615639 414.182327 
L 535.501611 414.589958 
L 537.387583 413.194166 
L 539.273555 411.572747 
L 541.159527 411.168476 
L 543.045499 412.801816 
L 544.931472 414.046627 
L 546.817444 415.071773 
L 548.703416 416.273065 
L 550.589388 416.87176 
L 552.47536 416.881371 
L 554.361332 416.460506 
L 556.247304 416.359589 
L 560.019248 415.864613 
L 561.90522 416.351435 
L 563.791192 416.459338 
L 565.677164 416.391234 
L 567.563136 416.494059 
L 571.335081 417.285934 
L 573.221053 417.540423 
L 575.107025 418.116535 
L 577 418.149289 
L 577 418.149289 
" clip-path="url(#p45d5825286)" style="fill: none; stroke: #fca636; stroke-width: 2; stroke-linecap: square"/>
   </g>
   <g id="patch_9">
    <path d="M 72 512.64 
L 72 311.04 
" style="fill: none; stroke: #000000; stroke-width: 0.8; stroke-linejoin: miter; stroke-linecap: square"/>
   </g>
   <g id="patch_10">
    <path d="M 518.4 512.64 
L 518.4 311.04 
" style="fill: none; stroke: #000000; stroke-width: 0.8; stroke-linejoin: miter; stroke-linecap: square"/>
   </g>
   <g id="patch_11">
    <path d="M 72 512.64 
L 518.4 512.64 
" style="fill: none; stroke: #000000; stroke-width: 0.8; stroke-linejoin: miter; stroke-linecap: square"/>
   </g>
   <g id="patch_12">
    <path d="M 72 311.04 
L 518.4 311.04 
" style="fill: none; stroke: #000000; stroke-width: 0.8; stroke-linejoin: miter; stroke-linecap: square"/>
   </g>
   <g id="text_26">
    <!-- β -->
    <g transform="translate(291.37125 305.04) scale(0.12 -0.12)">
     <use xlink:href="#DejaVuSans-3b2"/>
    </g>
   </g>
   <g id="legend_2">
    <g id="patch_13">
     <path d="M 461.675 348.39625 
L 511.4 348.39625 
Q 513.4 348.39625 513.4 346.39625 
L 513.4 318.04 
Q 513.4 316.04 511.4 316.04 
L 461.675 316.04 
Q 459.675 316.04 459.675 318.04 
L 459.675 346.39625 
Q 459.675 348.39625 461.675 348.39625 
z
" style="fill: #ffffff; opacity: 0.8; stroke: #cccccc; stroke-linejoin: miter"/>
    </g>
    <g id="line2d_34">
     <path d="M 463.675 324.138438 
L 473.675 324.138438 
L 483.675 324.138438 
" style="fill: none; stroke: #0d0887; stroke-width: 2; stroke-linecap: square"/>
    </g>
    <g id="text_27">
     <!-- 0° -->
     <g transform="translate(491.675 327.638438) scale(0.1 -0.1)">
      <use xlink:href="#DejaVuSans-30"/>
      <use xlink:href="#DejaVuSans-b0" x="63.623047"/>
     </g>
    </g>
    <g id="line2d_35">
     <path d="M 463.675 338.816562 
L 473.675 338.816562 
L 483.675 338.816562 
" style="fill: none; stroke: #fca636; stroke-width: 2; stroke-linecap: square"/>
    </g>
    <g id="text_28">
     <!-- 90° -->
     <g transform="translate(491.675 342.316562) scale(0.1 -0.1)">
      <use xlink:href="#DejaVuSans-39"/>
      <use xlink:href="#DejaVuSans-30" x="63.623047"/>
      <use xlink:href="#DejaVuSans-b0" x="127.246094"/>
     </g>
    </g>
   </g>
  </g>
  <g id="text_29">
   <!-- PM6 dielectric functions -->
   <g transform="translate(216.329063 20.638125) scale(0.12 -0.12)">
    <defs>
     <path id="DejaVuSans-50" d="M 1259 4147 
L 1259 2394 
L 2053 2394 
Q 2494 2394 2734 2622 
Q 2975 2850 2975 3272 
Q 2975 3691 2734 3919 
Q 2494 4147 2053 4147 
L 1259 4147 
z
M 628 4666 
L 2053 4666 
Q 2838 4666 3239 4311 
Q 3641 3956 3641 3272 
Q 3641 2581 3239 2228 
Q 2838 1875 2053 1875 
L 1259 1875 
L 1259 0 
L 628 0 
L 628 4666 
z
" transform="scale(0.015625)"/>
     <path id="DejaVuSans-4d" d="M 628 4666 
L 1569 4666 
L 2759 1491 
L 3956 4666 
L 4897 4666 
L 4897 0 
L 4281 0 
L 4281 4097 
L 3078 897 
L 2444 897 
L 1241 4097 
L 1241 0 
L 628 0 
L 628 4666 
z
" transform="scale(0.015625)"/>
     <path id="DejaVuSans-36" d="M 2113 2584 
Q 1688 2584 1439 2293 
Q 1191 2003 1191 1497 
Q 1191 994 1439 701 
Q 1688 409 2113 409 
Q 2538 409 2786 701 
Q 3034 994 3034 1497 
Q 3034 2003 2786 2293 
Q 2538 2584 2113 2584 
z
M 3366 4563 
L 3366 3988 
Q 3128 4100 2886 4159 
Q 2644 4219 2406 4219 
Q 1781 4219 1451 3797 
Q 1122 3375 1075 2522 
Q 1259 2794 1537 2939 
Q 1816 3084 2150 3084 
Q 2853 3084 3261 2657 
Q 3669 2231 3669 1497 
Q 3669 778 3244 343 
Q 2819 -91 2113 -91 
Q 1303 -91 875 529 
Q 447 1150 447 2328 
Q 447 3434 972 4092 
Q 1497 4750 2381 4750 
Q 2619 4750 2861 4703 
Q 3103 4656 3366 4563 
z
" transform="scale(0.015625)"/>
     <path id="DejaVuSans-64" d="M 2906 2969 
L 2906 4863 
L 3481 4863 
L 3481 0 
L 2906 0 
L 2906 525 
Q 2725 213 2448 61 
Q 2172 -91 1784 -91 
Q 1150 -91 751 415 
Q 353 922 353 1747 
Q 353 2572 751 3078 
Q 1150 3584 1784 3584 
Q 2172 3584 2448 3432 
Q 2725 3281 2906 2969 
z
M 947 1747 
Q 947 1113 1208 752 
Q 1469 391 1925 391 
Q 2381 391 2643 752 
Q 2906 1113 2906 1747 
Q 2906 2381 2643 2742 
Q 2381 3103 1925 3103 
Q 1469 3103 1208 2742 
Q 947 2381 947 1747 
z
" transform="scale(0.015625)"/>
     <path id="DejaVuSans-69" d="M 603 3500 
L 1178 3500 
L 1178 0 
L 603 0 
L 603 3500 
z
M 603 4863 
L 1178 4863 
L 1178 4134 
L 603 4134 
L 603 4863 
z
" transform="scale(0.015625)"/>
     <path id="DejaVuSans-6c" d="M 603 4863 
L 1178 4863 
L 1178 0 
L 603 0 
L 603 4863 
z
" transform="scale(0.015625)"/>
     <path id="DejaVuSans-63" d="M 3122 3366 
L 3122 2828 
Q 2878 2963 2633 3030 
Q 2388 3097 2138 3097 
Q 1578 3097 1268 2742 
Q 959 2388 959 1747 
Q 959 1106 1268 751 
Q 1578 397 2138 397 
Q 2388 397 2633 464 
Q 2878 531 3122 666 
L 3122 134 
Q 2881 22 2623 -34 
Q 2366 -91 2075 -91 
Q 1284 -91 818 406 
Q 353 903 353 1747 
Q 353 2603 823 3093 
Q 1294 3584 2113 3584 
Q 2378 3584 2631 3529 
Q 2884 3475 3122 3366 
z
" transform="scale(0.015625)"/>
     <path id="DejaVuSans-74" d="M 1172 4494 
L 1172 3500 
L 2356 3500 
L 2356 3053 
L 1172 3053 
L 1172 1153 
Q 1172 725 1289 603 
Q 1406 481 1766 481 
L 2356 481 
L 2356 0 
L 1766 0 
Q 1100 0 847 248 
Q 594 497 594 1153 
L 594 3053 
L 172 3053 
L 172 3500 
L 594 3500 
L 594 4494 
L 1172 4494 
z
" transform="scale(0.015625)"/>
     <path id="DejaVuSans-66" d="M 2375 4863 
L 2375 4384 
L 1825 4384 
Q 1516 4384 1395 4259 
Q 1275 4134 1275 3809 
L 1275 3500 
L 2222 3500 
L 2222 3053 
L 1275 3053 
L 1275 0 
L 697 0 
L 697 3053 
L 147 3053 
L 147 3500 
L 697 3500 
L 697 3744 
Q 697 4328 969 4595 
Q 1241 4863 1831 4863 
L 2375 4863 
z
" transform="scale(0.015625)"/>
     <path id="DejaVuSans-6f" d="M 1959 3097 
Q 1497 3097 1228 2736 
Q 959 2375 959 1747 
Q 959 1119 1226 758 
Q 1494 397 1959 397 
Q 2419 397 2687 759 
Q 2956 1122 2956 1747 
Q 2956 2369 2687 2733 
Q 2419 3097 1959 3097 
z
M 1959 3584 
Q 2709 3584 3137 3096 
Q 3566 2609 3566 1747 
Q 3566 888 3137 398 
Q 2709 -91 1959 -91 
Q 1206 -91 779 398 
Q 353 888 353 1747 
Q 353 2609 779 3096 
Q 1206 3584 1959 3584 
z
" transform="scale(0.015625)"/>
     <path id="DejaVuSans-73" d="M 2834 3397 
L 2834 2853 
Q 2591 2978 2328 3040 
Q 2066 3103 1784 3103 
Q 1356 3103 1142 2972 
Q 928 2841 928 2578 
Q 928 2378 1081 2264 
Q 1234 2150 1697 2047 
L 1894 2003 
Q 2506 1872 2764 1633 
Q 3022 1394 3022 966 
Q 3022 478 2636 193 
Q 2250 -91 1575 -91 
Q 1294 -91 989 -36 
Q 684 19 347 128 
L 347 722 
Q 666 556 975 473 
Q 1284 391 1588 391 
Q 1994 391 2212 530 
Q 2431 669 2431 922 
Q 2431 1156 2273 1281 
Q 2116 1406 1581 1522 
L 1381 1569 
Q 847 1681 609 1914 
Q 372 2147 372 2553 
Q 372 3047 722 3315 
Q 1072 3584 1716 3584 
Q 2034 3584 2315 3537 
Q 2597 3491 2834 3397 
z
" transform="scale(0.015625)"/>
    </defs>
    <use xlink:href="#DejaVuSans-50"/>
    <use xlink:href="#DejaVuSans-4d" x="60.302734"/>
    <use xlink:href="#DejaVuSans-36" x="146.582031"/>
    <use xlink:href="#DejaVuSans-20" x="210.205078"/>
    <use xlink:href="#DejaVuSans-64" x="241.992188"/>
    <use xlink:href="#DejaVuSans-69" x="305.46875"/>
    <use xlink:href="#DejaVuSans-65" x="333.251953"/>
    <use xlink:href="#DejaVuSans-6c" x="394.775391"/>
    <use xlink:href="#DejaVuSans-65" x="422.558594"/>
    <use xlink:href="#DejaVuSans-63" x="484.082031"/>
    <use xlink:href="#DejaVuSans-74" x="539.0625"/>
    <use xlink:href="#DejaVuSans-72" x="578.271484"/>
    <use xlink:href="#DejaVuSans-69" x="619.384766"/>
    <use xlink:href="#DejaVuSans-63" x="647.167969"/>
    <use xlink:href="#DejaVuSans-20" x="702.148438"/>
    <use xlink:href="#DejaVuSans-66" x="733.935547"/>
    <use xlink:href="#DejaVuSans-75" x="769.140625"/>
    <use xlink:href="#DejaVuSans-6e" x="832.519531"/>
    <use xlink:href="#DejaVuSans-63" x="895.898438"/>
    <use xlink:href="#DejaVuSans-74" x="950.878906"/>
    <use xlink:href="#DejaVuSans-69" x="990.087891"/>
    <use xlink:href="#DejaVuSans-6f" x="1017.871094"/>
    <use xlink:href="#DejaVuSans-6e" x="1079.052734"/>
    <use xlink:href="#DejaVuSans-73" x="1142.431641"/>
   </g>
  </g>
 </g>
 <defs>
  <clipPath id="pcdd33e7b62">
   <rect x="72" y="69.12" width="446.4" height="201.6"/>
  </clipPath>
  <clipPath id="p45d5825286">
   <rect x="72" y="311.04" width="446.4" height="201.6"/>
  </clipPath>
 </defs>
</svg>
