<?xml version="1.0" encoding="utf-8" standalone="no"?>
<!DOCTYPE svg PUBLIC "-//W3C//DTD SVG 1.1//EN"
  "http://www.w3.org/Graphics/SVG/1.1/DTD/svg11.dtd">
<svg xmlns:xlink="http://www.w3.org/1999/xlink" width="432pt" height="288pt" viewBox="0 0 432 288" xmlns="http://www.w3.org/2000/svg" version="1.1">
 <metadata>
  <rdf:RDF xmlns:dc="http://purl.org/dc/elements/1.1/" xmlns:cc="http://creativecommons.org/ns#" xmlns:rdf="http://www.w3.org/1999/02/22-rdf-syntax-ns#">
   <cc:Work>
    <dc:type rdf:resource="http://purl.org/dc/dcmitype/StillImage"/>
    <dc:date>2022-12-05T11:24:57.675175</dc:date>
    <dc:format>image/svg+xml</dc:format>
    <dc:creator>
     <cc:Agent>
      <dc:title>Matplotlib v3.5.1, https://matplotlib.org/</dc:title>
     </cc:Agent>
    </dc:creator>
   </cc:Work>
  </rdf:RDF>
 </metadata>
 <defs>
  <style type="text/css">*{stroke-linejoin: round; stroke-linecap: butt}</style>
 </defs>
 <g id="figure_1">
  <g id="patch_1">
   <path d="M 0 288 
L 432 288 
L 432 0 
L 0 0 
L 0 288 
z
" style="fill: none"/>
  </g>
  <g id="axes_1">
   <g id="patch_2">
    <path d="M 54 252 
L 388.8 252 
L 388.8 34.56 
L 54 34.56 
z
" style="fill: #ffffff"/>
   </g>
   <g id="matplotlib.axis_1">
    <g id="xtick_1">
     <g id="line2d_1">
      <defs>
       <path id="mf025acea63" d="M 0 0 
L 0 3.5 
" style="stroke: #000000; stroke-width: 0.8"/>
      </defs>
      <g>
       <use xlink:href="#mf025acea63" x="54" y="252" style="stroke: #000000; stroke-width: 0.8"/>
      </g>
     </g>
     <g id="text_1">
      <!-- 280 -->
      <g transform="translate(44.45625 266.598437)scale(0.1 -0.1)">
       <defs>
        <path id="DejaVuSans-32" d="M 1228 531 
L 3431 531 
L 3431 0 
L 469 0 
L 469 531 
Q 828 903 1448 1529 
Q 2069 2156 2228 2338 
Q 2531 2678 2651 2914 
Q 2772 3150 2772 3378 
Q 2772 3750 2511 3984 
Q 2250 4219 1831 4219 
Q 1534 4219 1204 4116 
Q 875 4013 500 3803 
L 500 4441 
Q 881 4594 1212 4672 
Q 1544 4750 1819 4750 
Q 2544 4750 2975 4387 
Q 3406 4025 3406 3419 
Q 3406 3131 3298 2873 
Q 3191 2616 2906 2266 
Q 2828 2175 2409 1742 
Q 1991 1309 1228 531 
z
" transform="scale(0.015625)"/>
        <path id="DejaVuSans-38" d="M 2034 2216 
Q 1584 2216 1326 1975 
Q 1069 1734 1069 1313 
Q 1069 891 1326 650 
Q 1584 409 2034 409 
Q 2484 409 2743 651 
Q 3003 894 3003 1313 
Q 3003 1734 2745 1975 
Q 2488 2216 2034 2216 
z
M 1403 2484 
Q 997 2584 770 2862 
Q 544 3141 544 3541 
Q 544 4100 942 4425 
Q 1341 4750 2034 4750 
Q 2731 4750 3128 4425 
Q 3525 4100 3525 3541 
Q 3525 3141 3298 2862 
Q 3072 2584 2669 2484 
Q 3125 2378 3379 2068 
Q 3634 1759 3634 1313 
Q 3634 634 3220 271 
Q 2806 -91 2034 -91 
Q 1263 -91 848 271 
Q 434 634 434 1313 
Q 434 1759 690 2068 
Q 947 2378 1403 2484 
z
M 1172 3481 
Q 1172 3119 1398 2916 
Q 1625 2713 2034 2713 
Q 2441 2713 2670 2916 
Q 2900 3119 2900 3481 
Q 2900 3844 2670 4047 
Q 2441 4250 2034 4250 
Q 1625 4250 1398 4047 
Q 1172 3844 1172 3481 
z
" transform="scale(0.015625)"/>
        <path id="DejaVuSans-30" d="M 2034 4250 
Q 1547 4250 1301 3770 
Q 1056 3291 1056 2328 
Q 1056 1369 1301 889 
Q 1547 409 2034 409 
Q 2525 409 2770 889 
Q 3016 1369 3016 2328 
Q 3016 3291 2770 3770 
Q 2525 4250 2034 4250 
z
M 2034 4750 
Q 2819 4750 3233 4129 
Q 3647 3509 3647 2328 
Q 3647 1150 3233 529 
Q 2819 -91 2034 -91 
Q 1250 -91 836 529 
Q 422 1150 422 2328 
Q 422 3509 836 4129 
Q 1250 4750 2034 4750 
z
" transform="scale(0.015625)"/>
       </defs>
       <use xlink:href="#DejaVuSans-32"/>
       <use xlink:href="#DejaVuSans-38" x="63.623047"/>
       <use xlink:href="#DejaVuSans-30" x="127.246094"/>
      </g>
     </g>
    </g>
    <g id="xtick_2">
     <g id="line2d_2">
      <g>
       <use xlink:href="#mf025acea63" x="101.828571" y="252" style="stroke: #000000; stroke-width: 0.8"/>
      </g>
     </g>
     <g id="text_2">
      <!-- 285 -->
      <g transform="translate(92.284821 266.598437)scale(0.1 -0.1)">
       <defs>
        <path id="DejaVuSans-35" d="M 691 4666 
L 3169 4666 
L 3169 4134 
L 1269 4134 
L 1269 2991 
Q 1406 3038 1543 3061 
Q 1681 3084 1819 3084 
Q 2600 3084 3056 2656 
Q 3513 2228 3513 1497 
Q 3513 744 3044 326 
Q 2575 -91 1722 -91 
Q 1428 -91 1123 -41 
Q 819 9 494 109 
L 494 744 
Q 775 591 1075 516 
Q 1375 441 1709 441 
Q 2250 441 2565 725 
Q 2881 1009 2881 1497 
Q 2881 1984 2565 2268 
Q 2250 2553 1709 2553 
Q 1456 2553 1204 2497 
Q 953 2441 691 2322 
L 691 4666 
z
" transform="scale(0.015625)"/>
       </defs>
       <use xlink:href="#DejaVuSans-32"/>
       <use xlink:href="#DejaVuSans-38" x="63.623047"/>
       <use xlink:href="#DejaVuSans-35" x="127.246094"/>
      </g>
     </g>
    </g>
    <g id="xtick_3">
     <g id="line2d_3">
      <g>
       <use xlink:href="#mf025acea63" x="149.657143" y="252" style="stroke: #000000; stroke-width: 0.8"/>
      </g>
     </g>
     <g id="text_3">
      <!-- 290 -->
      <g transform="translate(140.113393 266.598437)scale(0.1 -0.1)">
       <defs>
        <path id="DejaVuSans-39" d="M 703 97 
L 703 672 
Q 941 559 1184 500 
Q 1428 441 1663 441 
Q 2288 441 2617 861 
Q 2947 1281 2994 2138 
Q 2813 1869 2534 1725 
Q 2256 1581 1919 1581 
Q 1219 1581 811 2004 
Q 403 2428 403 3163 
Q 403 3881 828 4315 
Q 1253 4750 1959 4750 
Q 2769 4750 3195 4129 
Q 3622 3509 3622 2328 
Q 3622 1225 3098 567 
Q 2575 -91 1691 -91 
Q 1453 -91 1209 -44 
Q 966 3 703 97 
z
M 1959 2075 
Q 2384 2075 2632 2365 
Q 2881 2656 2881 3163 
Q 2881 3666 2632 3958 
Q 2384 4250 1959 4250 
Q 1534 4250 1286 3958 
Q 1038 3666 1038 3163 
Q 1038 2656 1286 2365 
Q 1534 2075 1959 2075 
z
" transform="scale(0.015625)"/>
       </defs>
       <use xlink:href="#DejaVuSans-32"/>
       <use xlink:href="#DejaVuSans-39" x="63.623047"/>
       <use xlink:href="#DejaVuSans-30" x="127.246094"/>
      </g>
     </g>
    </g>
    <g id="xtick_4">
     <g id="line2d_4">
      <g>
       <use xlink:href="#mf025acea63" x="197.485714" y="252" style="stroke: #000000; stroke-width: 0.8"/>
      </g>
     </g>
     <g id="text_4">
      <!-- 295 -->
      <g transform="translate(187.941964 266.598437)scale(0.1 -0.1)">
       <use xlink:href="#DejaVuSans-32"/>
       <use xlink:href="#DejaVuSans-39" x="63.623047"/>
       <use xlink:href="#DejaVuSans-35" x="127.246094"/>
      </g>
     </g>
    </g>
    <g id="xtick_5">
     <g id="line2d_5">
      <g>
       <use xlink:href="#mf025acea63" x="245.314286" y="252" style="stroke: #000000; stroke-width: 0.8"/>
      </g>
     </g>
     <g id="text_5">
      <!-- 300 -->
      <g transform="translate(235.770536 266.598437)scale(0.1 -0.1)">
       <defs>
        <path id="DejaVuSans-33" d="M 2597 2516 
Q 3050 2419 3304 2112 
Q 3559 1806 3559 1356 
Q 3559 666 3084 287 
Q 2609 -91 1734 -91 
Q 1441 -91 1130 -33 
Q 819 25 488 141 
L 488 750 
Q 750 597 1062 519 
Q 1375 441 1716 441 
Q 2309 441 2620 675 
Q 2931 909 2931 1356 
Q 2931 1769 2642 2001 
Q 2353 2234 1838 2234 
L 1294 2234 
L 1294 2753 
L 1863 2753 
Q 2328 2753 2575 2939 
Q 2822 3125 2822 3475 
Q 2822 3834 2567 4026 
Q 2313 4219 1838 4219 
Q 1578 4219 1281 4162 
Q 984 4106 628 3988 
L 628 4550 
Q 988 4650 1302 4700 
Q 1616 4750 1894 4750 
Q 2613 4750 3031 4423 
Q 3450 4097 3450 3541 
Q 3450 3153 3228 2886 
Q 3006 2619 2597 2516 
z
" transform="scale(0.015625)"/>
       </defs>
       <use xlink:href="#DejaVuSans-33"/>
       <use xlink:href="#DejaVuSans-30" x="63.623047"/>
       <use xlink:href="#DejaVuSans-30" x="127.246094"/>
      </g>
     </g>
    </g>
    <g id="xtick_6">
     <g id="line2d_6">
      <g>
       <use xlink:href="#mf025acea63" x="293.142857" y="252" style="stroke: #000000; stroke-width: 0.8"/>
      </g>
     </g>
     <g id="text_6">
      <!-- 305 -->
      <g transform="translate(283.599107 266.598437)scale(0.1 -0.1)">
       <use xlink:href="#DejaVuSans-33"/>
       <use xlink:href="#DejaVuSans-30" x="63.623047"/>
       <use xlink:href="#DejaVuSans-35" x="127.246094"/>
      </g>
     </g>
    </g>
    <g id="xtick_7">
     <g id="line2d_7">
      <g>
       <use xlink:href="#mf025acea63" x="340.971429" y="252" style="stroke: #000000; stroke-width: 0.8"/>
      </g>
     </g>
     <g id="text_7">
      <!-- 310 -->
      <g transform="translate(331.427679 266.598437)scale(0.1 -0.1)">
       <defs>
        <path id="DejaVuSans-31" d="M 794 531 
L 1825 531 
L 1825 4091 
L 703 3866 
L 703 4441 
L 1819 4666 
L 2450 4666 
L 2450 531 
L 3481 531 
L 3481 0 
L 794 0 
L 794 531 
z
" transform="scale(0.015625)"/>
       </defs>
       <use xlink:href="#DejaVuSans-33"/>
       <use xlink:href="#DejaVuSans-31" x="63.623047"/>
       <use xlink:href="#DejaVuSans-30" x="127.246094"/>
      </g>
     </g>
    </g>
    <g id="xtick_8">
     <g id="line2d_8">
      <g>
       <use xlink:href="#mf025acea63" x="388.8" y="252" style="stroke: #000000; stroke-width: 0.8"/>
      </g>
     </g>
     <g id="text_8">
      <!-- 315 -->
      <g transform="translate(379.25625 266.598437)scale(0.1 -0.1)">
       <use xlink:href="#DejaVuSans-33"/>
       <use xlink:href="#DejaVuSans-31" x="63.623047"/>
       <use xlink:href="#DejaVuSans-35" x="127.246094"/>
      </g>
     </g>
    </g>
    <g id="text_9">
     <!-- energy [eV] -->
     <g transform="translate(191.989062 280.276563)scale(0.1 -0.1)">
      <defs>
       <path id="DejaVuSans-65" d="M 3597 1894 
L 3597 1613 
L 953 1613 
Q 991 1019 1311 708 
Q 1631 397 2203 397 
Q 2534 397 2845 478 
Q 3156 559 3463 722 
L 3463 178 
Q 3153 47 2828 -22 
Q 2503 -91 2169 -91 
Q 1331 -91 842 396 
Q 353 884 353 1716 
Q 353 2575 817 3079 
Q 1281 3584 2069 3584 
Q 2775 3584 3186 3129 
Q 3597 2675 3597 1894 
z
M 3022 2063 
Q 3016 2534 2758 2815 
Q 2500 3097 2075 3097 
Q 1594 3097 1305 2825 
Q 1016 2553 972 2059 
L 3022 2063 
z
" transform="scale(0.015625)"/>
       <path id="DejaVuSans-6e" d="M 3513 2113 
L 3513 0 
L 2938 0 
L 2938 2094 
Q 2938 2591 2744 2837 
Q 2550 3084 2163 3084 
Q 1697 3084 1428 2787 
Q 1159 2491 1159 1978 
L 1159 0 
L 581 0 
L 581 3500 
L 1159 3500 
L 1159 2956 
Q 1366 3272 1645 3428 
Q 1925 3584 2291 3584 
Q 2894 3584 3203 3211 
Q 3513 2838 3513 2113 
z
" transform="scale(0.015625)"/>
       <path id="DejaVuSans-72" d="M 2631 2963 
Q 2534 3019 2420 3045 
Q 2306 3072 2169 3072 
Q 1681 3072 1420 2755 
Q 1159 2438 1159 1844 
L 1159 0 
L 581 0 
L 581 3500 
L 1159 3500 
L 1159 2956 
Q 1341 3275 1631 3429 
Q 1922 3584 2338 3584 
Q 2397 3584 2469 3576 
Q 2541 3569 2628 3553 
L 2631 2963 
z
" transform="scale(0.015625)"/>
       <path id="DejaVuSans-67" d="M 2906 1791 
Q 2906 2416 2648 2759 
Q 2391 3103 1925 3103 
Q 1463 3103 1205 2759 
Q 947 2416 947 1791 
Q 947 1169 1205 825 
Q 1463 481 1925 481 
Q 2391 481 2648 825 
Q 2906 1169 2906 1791 
z
M 3481 434 
Q 3481 -459 3084 -895 
Q 2688 -1331 1869 -1331 
Q 1566 -1331 1297 -1286 
Q 1028 -1241 775 -1147 
L 775 -588 
Q 1028 -725 1275 -790 
Q 1522 -856 1778 -856 
Q 2344 -856 2625 -561 
Q 2906 -266 2906 331 
L 2906 616 
Q 2728 306 2450 153 
Q 2172 0 1784 0 
Q 1141 0 747 490 
Q 353 981 353 1791 
Q 353 2603 747 3093 
Q 1141 3584 1784 3584 
Q 2172 3584 2450 3431 
Q 2728 3278 2906 2969 
L 2906 3500 
L 3481 3500 
L 3481 434 
z
" transform="scale(0.015625)"/>
       <path id="DejaVuSans-79" d="M 2059 -325 
Q 1816 -950 1584 -1140 
Q 1353 -1331 966 -1331 
L 506 -1331 
L 506 -850 
L 844 -850 
Q 1081 -850 1212 -737 
Q 1344 -625 1503 -206 
L 1606 56 
L 191 3500 
L 800 3500 
L 1894 763 
L 2988 3500 
L 3597 3500 
L 2059 -325 
z
" transform="scale(0.015625)"/>
       <path id="DejaVuSans-20" transform="scale(0.015625)"/>
       <path id="DejaVuSans-5b" d="M 550 4863 
L 1875 4863 
L 1875 4416 
L 1125 4416 
L 1125 -397 
L 1875 -397 
L 1875 -844 
L 550 -844 
L 550 4863 
z
" transform="scale(0.015625)"/>
       <path id="DejaVuSans-56" d="M 1831 0 
L 50 4666 
L 709 4666 
L 2188 738 
L 3669 4666 
L 4325 4666 
L 2547 0 
L 1831 0 
z
" transform="scale(0.015625)"/>
       <path id="DejaVuSans-5d" d="M 1947 4863 
L 1947 -844 
L 622 -844 
L 622 -397 
L 1369 -397 
L 1369 4416 
L 622 4416 
L 622 4863 
L 1947 4863 
z
" transform="scale(0.015625)"/>
      </defs>
      <use xlink:href="#DejaVuSans-65"/>
      <use xlink:href="#DejaVuSans-6e" x="61.523438"/>
      <use xlink:href="#DejaVuSans-65" x="124.902344"/>
      <use xlink:href="#DejaVuSans-72" x="186.425781"/>
      <use xlink:href="#DejaVuSans-67" x="225.789062"/>
      <use xlink:href="#DejaVuSans-79" x="289.265625"/>
      <use xlink:href="#DejaVuSans-20" x="348.445312"/>
      <use xlink:href="#DejaVuSans-5b" x="380.232422"/>
      <use xlink:href="#DejaVuSans-65" x="419.246094"/>
      <use xlink:href="#DejaVuSans-56" x="480.769531"/>
      <use xlink:href="#DejaVuSans-5d" x="549.177734"/>
     </g>
    </g>
   </g>
   <g id="matplotlib.axis_2">
    <g id="ytick_1">
     <g id="line2d_9">
      <defs>
       <path id="m9c807afbb3" d="M 0 0 
L -3.5 0 
" style="stroke: #000000; stroke-width: 0.8"/>
      </defs>
      <g>
       <use xlink:href="#m9c807afbb3" x="54" y="222.565901" style="stroke: #000000; stroke-width: 0.8"/>
      </g>
     </g>
     <g id="text_10">
      <!-- 0.0 -->
      <g transform="translate(31.096875 226.365119)scale(0.1 -0.1)">
       <defs>
        <path id="DejaVuSans-2e" d="M 684 794 
L 1344 794 
L 1344 0 
L 684 0 
L 684 794 
z
" transform="scale(0.015625)"/>
       </defs>
       <use xlink:href="#DejaVuSans-30"/>
       <use xlink:href="#DejaVuSans-2e" x="63.623047"/>
       <use xlink:href="#DejaVuSans-30" x="95.410156"/>
      </g>
     </g>
    </g>
    <g id="ytick_2">
     <g id="line2d_10">
      <g>
       <use xlink:href="#m9c807afbb3" x="54" y="191.323332" style="stroke: #000000; stroke-width: 0.8"/>
      </g>
     </g>
     <g id="text_11">
      <!-- 0.5 -->
      <g transform="translate(31.096875 195.122551)scale(0.1 -0.1)">
       <use xlink:href="#DejaVuSans-30"/>
       <use xlink:href="#DejaVuSans-2e" x="63.623047"/>
       <use xlink:href="#DejaVuSans-35" x="95.410156"/>
      </g>
     </g>
    </g>
    <g id="ytick_3">
     <g id="line2d_11">
      <g>
       <use xlink:href="#m9c807afbb3" x="54" y="160.080763" style="stroke: #000000; stroke-width: 0.8"/>
      </g>
     </g>
     <g id="text_12">
      <!-- 1.0 -->
      <g transform="translate(31.096875 163.879982)scale(0.1 -0.1)">
       <use xlink:href="#DejaVuSans-31"/>
       <use xlink:href="#DejaVuSans-2e" x="63.623047"/>
       <use xlink:href="#DejaVuSans-30" x="95.410156"/>
      </g>
     </g>
    </g>
    <g id="ytick_4">
     <g id="line2d_12">
      <g>
       <use xlink:href="#m9c807afbb3" x="54" y="128.838195" style="stroke: #000000; stroke-width: 0.8"/>
      </g>
     </g>
     <g id="text_13">
      <!-- 1.5 -->
      <g transform="translate(31.096875 132.637413)scale(0.1 -0.1)">
       <use xlink:href="#DejaVuSans-31"/>
       <use xlink:href="#DejaVuSans-2e" x="63.623047"/>
       <use xlink:href="#DejaVuSans-35" x="95.410156"/>
      </g>
     </g>
    </g>
    <g id="ytick_5">
     <g id="line2d_13">
      <g>
       <use xlink:href="#m9c807afbb3" x="54" y="97.595626" style="stroke: #000000; stroke-width: 0.8"/>
      </g>
     </g>
     <g id="text_14">
      <!-- 2.0 -->
      <g transform="translate(31.096875 101.394845)scale(0.1 -0.1)">
       <use xlink:href="#DejaVuSans-32"/>
       <use xlink:href="#DejaVuSans-2e" x="63.623047"/>
       <use xlink:href="#DejaVuSans-30" x="95.410156"/>
      </g>
     </g>
    </g>
    <g id="ytick_6">
     <g id="line2d_14">
      <g>
       <use xlink:href="#m9c807afbb3" x="54" y="66.353057" style="stroke: #000000; stroke-width: 0.8"/>
      </g>
     </g>
     <g id="text_15">
      <!-- 2.5 -->
      <g transform="translate(31.096875 70.152276)scale(0.1 -0.1)">
       <use xlink:href="#DejaVuSans-32"/>
       <use xlink:href="#DejaVuSans-2e" x="63.623047"/>
       <use xlink:href="#DejaVuSans-35" x="95.410156"/>
      </g>
     </g>
    </g>
    <g id="ytick_7">
     <g id="line2d_15">
      <g>
       <use xlink:href="#m9c807afbb3" x="54" y="35.110489" style="stroke: #000000; stroke-width: 0.8"/>
      </g>
     </g>
     <g id="text_16">
      <!-- 3.0 -->
      <g transform="translate(31.096875 38.909707)scale(0.1 -0.1)">
       <use xlink:href="#DejaVuSans-33"/>
       <use xlink:href="#DejaVuSans-2e" x="63.623047"/>
       <use xlink:href="#DejaVuSans-30" x="95.410156"/>
      </g>
     </g>
    </g>
    <g id="text_17">
     <!-- electron_yield [a.u.] -->
     <g transform="translate(24.739062 193.0925)rotate(-90)scale(0.1 -0.1)">
      <defs>
       <path id="DejaVuSans-6c" d="M 603 4863 
L 1178 4863 
L 1178 0 
L 603 0 
L 603 4863 
z
" transform="scale(0.015625)"/>
       <path id="DejaVuSans-63" d="M 3122 3366 
L 3122 2828 
Q 2878 2963 2633 3030 
Q 2388 3097 2138 3097 
Q 1578 3097 1268 2742 
Q 959 2388 959 1747 
Q 959 1106 1268 751 
Q 1578 397 2138 397 
Q 2388 397 2633 464 
Q 2878 531 3122 666 
L 3122 134 
Q 2881 22 2623 -34 
Q 2366 -91 2075 -91 
Q 1284 -91 818 406 
Q 353 903 353 1747 
Q 353 2603 823 3093 
Q 1294 3584 2113 3584 
Q 2378 3584 2631 3529 
Q 2884 3475 3122 3366 
z
" transform="scale(0.015625)"/>
       <path id="DejaVuSans-74" d="M 1172 4494 
L 1172 3500 
L 2356 3500 
L 2356 3053 
L 1172 3053 
L 1172 1153 
Q 1172 725 1289 603 
Q 1406 481 1766 481 
L 2356 481 
L 2356 0 
L 1766 0 
Q 1100 0 847 248 
Q 594 497 594 1153 
L 594 3053 
L 172 3053 
L 172 3500 
L 594 3500 
L 594 4494 
L 1172 4494 
z
" transform="scale(0.015625)"/>
       <path id="DejaVuSans-6f" d="M 1959 3097 
Q 1497 3097 1228 2736 
Q 959 2375 959 1747 
Q 959 1119 1226 758 
Q 1494 397 1959 397 
Q 2419 397 2687 759 
Q 2956 1122 2956 1747 
Q 2956 2369 2687 2733 
Q 2419 3097 1959 3097 
z
M 1959 3584 
Q 2709 3584 3137 3096 
Q 3566 2609 3566 1747 
Q 3566 888 3137 398 
Q 2709 -91 1959 -91 
Q 1206 -91 779 398 
Q 353 888 353 1747 
Q 353 2609 779 3096 
Q 1206 3584 1959 3584 
z
" transform="scale(0.015625)"/>
       <path id="DejaVuSans-5f" d="M 3263 -1063 
L 3263 -1509 
L -63 -1509 
L -63 -1063 
L 3263 -1063 
z
" transform="scale(0.015625)"/>
       <path id="DejaVuSans-69" d="M 603 3500 
L 1178 3500 
L 1178 0 
L 603 0 
L 603 3500 
z
M 603 4863 
L 1178 4863 
L 1178 4134 
L 603 4134 
L 603 4863 
z
" transform="scale(0.015625)"/>
       <path id="DejaVuSans-64" d="M 2906 2969 
L 2906 4863 
L 3481 4863 
L 3481 0 
L 2906 0 
L 2906 525 
Q 2725 213 2448 61 
Q 2172 -91 1784 -91 
Q 1150 -91 751 415 
Q 353 922 353 1747 
Q 353 2572 751 3078 
Q 1150 3584 1784 3584 
Q 2172 3584 2448 3432 
Q 2725 3281 2906 2969 
z
M 947 1747 
Q 947 1113 1208 752 
Q 1469 391 1925 391 
Q 2381 391 2643 752 
Q 2906 1113 2906 1747 
Q 2906 2381 2643 2742 
Q 2381 3103 1925 3103 
Q 1469 3103 1208 2742 
Q 947 2381 947 1747 
z
" transform="scale(0.015625)"/>
       <path id="DejaVuSans-61" d="M 2194 1759 
Q 1497 1759 1228 1600 
Q 959 1441 959 1056 
Q 959 750 1161 570 
Q 1363 391 1709 391 
Q 2188 391 2477 730 
Q 2766 1069 2766 1631 
L 2766 1759 
L 2194 1759 
z
M 3341 1997 
L 3341 0 
L 2766 0 
L 2766 531 
Q 2569 213 2275 61 
Q 1981 -91 1556 -91 
Q 1019 -91 701 211 
Q 384 513 384 1019 
Q 384 1609 779 1909 
Q 1175 2209 1959 2209 
L 2766 2209 
L 2766 2266 
Q 2766 2663 2505 2880 
Q 2244 3097 1772 3097 
Q 1472 3097 1187 3025 
Q 903 2953 641 2809 
L 641 3341 
Q 956 3463 1253 3523 
Q 1550 3584 1831 3584 
Q 2591 3584 2966 3190 
Q 3341 2797 3341 1997 
z
" transform="scale(0.015625)"/>
       <path id="DejaVuSans-75" d="M 544 1381 
L 544 3500 
L 1119 3500 
L 1119 1403 
Q 1119 906 1312 657 
Q 1506 409 1894 409 
Q 2359 409 2629 706 
Q 2900 1003 2900 1516 
L 2900 3500 
L 3475 3500 
L 3475 0 
L 2900 0 
L 2900 538 
Q 2691 219 2414 64 
Q 2138 -91 1772 -91 
Q 1169 -91 856 284 
Q 544 659 544 1381 
z
M 1991 3584 
L 1991 3584 
z
" transform="scale(0.015625)"/>
      </defs>
      <use xlink:href="#DejaVuSans-65"/>
      <use xlink:href="#DejaVuSans-6c" x="61.523438"/>
      <use xlink:href="#DejaVuSans-65" x="89.306641"/>
      <use xlink:href="#DejaVuSans-63" x="150.830078"/>
      <use xlink:href="#DejaVuSans-74" x="205.810547"/>
      <use xlink:href="#DejaVuSans-72" x="245.019531"/>
      <use xlink:href="#DejaVuSans-6f" x="283.882812"/>
      <use xlink:href="#DejaVuSans-6e" x="345.064453"/>
      <use xlink:href="#DejaVuSans-5f" x="408.443359"/>
      <use xlink:href="#DejaVuSans-79" x="458.443359"/>
      <use xlink:href="#DejaVuSans-69" x="517.623047"/>
      <use xlink:href="#DejaVuSans-65" x="545.40625"/>
      <use xlink:href="#DejaVuSans-6c" x="606.929688"/>
      <use xlink:href="#DejaVuSans-64" x="634.712891"/>
      <use xlink:href="#DejaVuSans-20" x="698.189453"/>
      <use xlink:href="#DejaVuSans-5b" x="729.976562"/>
      <use xlink:href="#DejaVuSans-61" x="768.990234"/>
      <use xlink:href="#DejaVuSans-2e" x="830.269531"/>
      <use xlink:href="#DejaVuSans-75" x="862.056641"/>
      <use xlink:href="#DejaVuSans-2e" x="925.435547"/>
      <use xlink:href="#DejaVuSans-5d" x="957.222656"/>
     </g>
    </g>
   </g>
   <g id="line2d_16">
    <path d="M 63.565714 224.71244 
L 64.980193 225.505976 
L 66.394672 228.030609 
L 67.809151 219.803112 
L 69.223631 222.026147 
L 70.63811 223.227533 
L 72.052589 222.278272 
L 73.467068 217.43117 
L 74.881547 228.167915 
L 76.296026 204.727266 
L 77.710505 220.569305 
L 79.124984 214.54192 
L 80.539463 225.995014 
L 81.953942 223.104485 
L 83.368421 227.315158 
L 84.7829 229.257104 
L 86.197379 226.946652 
L 87.611858 228.349407 
L 89.026337 223.508504 
L 90.440816 222.014457 
L 91.855295 216.371468 
L 93.269774 222.565901 
L 94.684253 216.232118 
L 96.098733 203.897068 
L 97.513212 179.609657 
L 98.927691 198.283625 
L 100.34217 188.364251 
L 101.756649 164.741155 
L 103.171128 151.76114 
L 104.585607 164.12493 
L 106.000086 205.53742 
L 107.414565 210.097419 
L 108.829044 211.54591 
L 110.243523 210.511026 
L 111.658002 186.652593 
L 113.072481 170.7375 
L 114.48696 175.091001 
L 115.901439 164.324378 
L 117.315918 159.036129 
L 118.730397 148.063186 
L 120.144876 136.081195 
L 122.973835 77.154121 
L 124.388314 74.306364 
L 125.802793 66.353361 
L 127.217272 66.610964 
L 128.631751 61.144045 
L 130.04623 82.800288 
L 131.460709 88.66951 
L 132.875188 95.985222 
L 134.289667 88.538491 
L 135.704146 97.111634 
L 137.118625 89.702126 
L 138.533104 88.314101 
L 139.947583 85.29518 
L 141.362062 91.266533 
L 142.776541 81.747219 
L 144.19102 91.919847 
L 145.605499 97.857477 
L 147.019979 91.950996 
L 148.434458 81.505083 
L 149.848937 88.391383 
L 151.263416 83.382577 
L 152.677895 73.927174 
L 154.092374 74.25305 
L 155.506853 70.176652 
L 156.921332 77.194609 
L 158.335811 63.244556 
L 159.75029 64.670301 
L 161.164769 69.257592 
L 162.579248 62.86195 
L 163.993727 64.572335 
L 165.408206 61.756579 
L 166.822685 56.087072 
L 168.237164 65.793955 
L 169.651643 61.100853 
L 171.066122 57.397779 
L 172.480602 58.902359 
L 173.895081 54.34318 
L 175.30956 62.326192 
L 176.724039 61.409409 
L 178.138518 62.721252 
L 179.552997 51.30102 
L 180.967476 57.405475 
L 182.381955 64.177318 
L 183.796434 55.438421 
L 185.210913 61.407821 
L 186.625392 52.212517 
L 188.039871 64.519849 
L 189.45435 58.981686 
L 190.868829 51.541425 
L 192.283308 61.916069 
L 193.697787 66.211349 
L 195.112266 56.919091 
L 196.526745 55.340506 
L 197.941224 63.011403 
L 199.355704 61.486827 
L 200.770183 62.045933 
L 202.184662 66.324143 
L 203.599141 59.138582 
L 205.01362 67.43226 
L 206.428099 71.503649 
L 207.842578 72.630041 
L 209.257057 66.082958 
L 210.671536 67.375913 
L 212.086015 62.624557 
L 213.500494 74.779523 
L 214.914973 69.149622 
L 216.329452 74.095197 
L 217.743931 71.893366 
L 219.15841 73.539276 
L 220.572889 74.237681 
L 221.987368 74.329637 
L 223.401847 74.86005 
L 224.816327 72.486533 
L 227.645285 67.081584 
L 229.059764 64.570463 
L 230.474243 62.30028 
L 231.888722 65.93827 
L 233.303201 62.885282 
L 234.71768 60.56179 
L 236.132159 59.600007 
L 237.546638 59.473671 
L 238.961117 60.059025 
L 240.375596 61.254226 
L 241.790075 62.984643 
L 243.204554 68.224408 
L 244.619033 75.396045 
L 246.033512 72.670543 
L 247.447991 70.505545 
L 248.86247 70.799206 
L 250.27695 73.759352 
L 251.691429 77.65803 
L 253.105908 90.14374 
L 254.520387 92.485909 
L 255.934866 91.87145 
L 257.349345 91.424399 
L 258.763824 92.115576 
L 260.178303 90.172059 
L 261.592782 88.886106 
L 263.007261 89.024788 
L 264.42174 89.418984 
L 265.836219 88.186989 
L 267.250698 87.523377 
L 268.665177 87.990698 
L 271.494135 92.734025 
L 272.908614 93.958525 
L 275.737573 86.740798 
L 277.152052 84.280516 
L 278.566531 85.807915 
L 279.98101 89.939679 
L 281.395489 102.732988 
L 282.809968 108.095625 
L 285.638926 105.162235 
L 287.053405 102.352966 
L 288.467884 99.222087 
L 289.882363 97.234644 
L 291.296842 98.10154 
L 292.711321 99.485062 
L 295.540279 106.300376 
L 296.954758 110.612056 
L 298.369237 119.385515 
L 299.783716 122.555211 
L 301.198195 111.818831 
L 302.612675 107.390645 
L 304.027154 105.384505 
L 305.441633 104.91932 
L 306.856112 111.782735 
L 308.270591 116.967793 
L 309.68507 117.721105 
L 311.099549 118.668145 
L 313.928507 116.171571 
L 315.342986 115.171606 
L 316.757465 111.650932 
L 318.171944 112.158973 
L 319.586423 120.601958 
L 321.000902 126.161318 
L 323.82986 127.0797 
L 325.244339 127.291994 
L 326.658818 125.911049 
L 328.073298 126.869529 
L 329.487777 133.752808 
L 330.902256 133.911779 
L 332.316735 132.220951 
L 333.731214 131.471146 
L 335.145693 132.669713 
L 336.560172 135.569505 
L 337.974651 136.708574 
L 339.38913 139.450219 
L 340.803609 138.189802 
L 342.218088 137.304157 
L 343.632567 136.574513 
L 345.047046 137.94115 
L 346.461525 140.575159 
L 347.876004 139.413029 
L 352.119441 141.157765 
L 353.533921 141.335064 
L 354.9484 140.019564 
L 356.362879 142.779109 
L 357.777358 144.220604 
L 359.191837 142.554402 
L 360.606316 140.606432 
L 363.435274 137.313272 
L 364.849753 137.491531 
L 367.678711 144.72199 
L 369.09319 144.068131 
L 370.507669 142.47291 
L 371.922148 141.760229 
L 373.336627 143.171097 
L 374.751106 146.571389 
L 376.165585 148.535547 
L 377.580064 148.678127 
L 380.409023 144.873595 
L 381.823502 144.340107 
L 383.237981 143.938113 
L 384.65246 145.07562 
L 386.066939 143.731931 
L 387.481418 141.420946 
L 388.895897 140.89037 
L 390.310376 140.592758 
L 391.724855 142.977026 
L 393.139334 144.786721 
L 394.553813 147.963388 
L 395.968292 149.84323 
L 397.382771 147.230271 
L 398.79725 144.115962 
L 400.211729 141.717399 
L 401.626208 142.870605 
L 404.455166 152.951012 
L 405.869646 155.858898 
L 408.698604 151.115725 
L 410.113083 149.656571 
L 411.527562 147.337165 
L 412.942041 146.125691 
L 414.35652 146.33802 
L 415.770999 146.839228 
L 417.185478 147.678034 
L 418.599957 148.861065 
L 420.014436 150.466169 
L 421.428915 147.601809 
L 422.843394 149.145837 
L 424.257873 150.519012 
L 425.672352 150.083678 
L 427.086831 149.069026 
L 428.50131 148.533542 
L 429.915789 149.136991 
L 431.330269 149.876025 
L 433 153.314062 
L 433 153.314062 
" clip-path="url(#pb4eccac963)" style="fill: none; stroke: #440154; stroke-width: 1.5; stroke-linecap: square"/>
   </g>
   <g id="line2d_17">
    <path d="M 63.565714 224.128076 
L 64.980193 222.772085 
L 66.394672 220.392369 
L 67.809151 224.863768 
L 69.223631 221.454071 
L 70.63811 219.791512 
L 72.052589 219.512777 
L 73.467068 227.02116 
L 74.881547 217.361446 
L 76.296026 242.116364 
L 77.710505 225.981986 
L 79.124984 229.483564 
L 80.539463 219.338624 
L 81.953942 225.413665 
L 83.368421 218.352721 
L 84.7829 212.948163 
L 86.197379 218.821687 
L 87.611858 219.165944 
L 89.026337 221.207567 
L 90.440816 221.138698 
L 91.855295 222.617669 
L 93.269774 209.140047 
L 96.098733 187.96561 
L 97.513212 194.994424 
L 98.927691 170.477246 
L 100.34217 154.440621 
L 101.756649 118.650231 
L 103.171128 92.505736 
L 104.585607 93.377969 
L 106.000086 78.521144 
L 107.414565 91.05641 
L 108.829044 110.613923 
L 110.243523 128.314547 
L 111.658002 158.352867 
L 113.072481 155.46745 
L 114.48696 143.871938 
L 115.901439 156.303963 
L 117.315918 159.373206 
L 118.730397 151.832574 
L 120.144876 126.933988 
L 121.559356 104.559159 
L 122.973835 89.527413 
L 124.388314 58.093051 
L 125.802793 53.213174 
L 127.217272 56.08762 
L 128.631751 69.648437 
L 130.04623 65.487304 
L 131.460709 82.535562 
L 132.875188 84.055124 
L 134.289667 96.435675 
L 135.704146 85.058952 
L 137.118625 92.374427 
L 138.533104 89.426883 
L 139.947583 95.644896 
L 141.362062 90.061249 
L 142.776541 97.879396 
L 144.19102 91.138398 
L 145.605499 85.318344 
L 147.019979 88.946231 
L 148.434458 90.774843 
L 149.848937 80.793581 
L 151.263416 76.89657 
L 152.677895 83.544908 
L 154.092374 76.543307 
L 155.506853 76.712503 
L 156.921332 66.823074 
L 158.335811 76.571121 
L 159.75029 68.456985 
L 161.164769 62.782985 
L 162.579248 63.033793 
L 163.993727 56.484297 
L 165.408206 56.817163 
L 166.822685 60.457779 
L 168.237164 50.483427 
L 169.651643 50.870112 
L 171.066122 51.050529 
L 172.480602 48.623381 
L 173.895081 55.694205 
L 175.30956 44.864249 
L 178.138518 44.443636 
L 179.552997 56.839973 
L 180.967476 51.103355 
L 182.381955 44.654098 
L 183.796434 53.275789 
L 185.210913 50.282127 
L 186.625392 54.235239 
L 188.039871 46.341082 
L 189.45435 54.040223 
L 190.868829 65.184009 
L 192.283308 51.250605 
L 193.697787 51.52041 
L 195.112266 63.483078 
L 196.526745 61.775233 
L 197.941224 58.357425 
L 199.355704 62.037652 
L 200.770183 64.067309 
L 202.184662 63.410019 
L 203.599141 71.922263 
L 205.01362 64.442652 
L 206.428099 60.535039 
L 207.842578 59.054917 
L 209.257057 70.324712 
L 210.671536 70.712307 
L 212.086015 77.709108 
L 213.500494 66.210478 
L 214.914973 73.534864 
L 216.329452 70.312969 
L 217.743931 75.114014 
L 219.15841 75.751985 
L 220.572889 77.279199 
L 221.987368 78.355672 
L 223.401847 77.147093 
L 224.816327 79.366125 
L 230.474243 89.694652 
L 231.888722 88.466177 
L 233.303201 96.025188 
L 234.71768 102.058397 
L 236.132159 104.072945 
L 237.546638 104.40772 
L 238.961117 103.996918 
L 240.375596 104.040147 
L 241.790075 101.689541 
L 243.204554 97.051747 
L 244.619033 91.655216 
L 246.033512 95.633338 
L 247.447991 98.935509 
L 248.86247 100.154935 
L 250.27695 99.415001 
L 251.691429 95.085377 
L 253.105908 79.838296 
L 254.520387 78.822953 
L 255.934866 80.617447 
L 257.349345 81.933084 
L 258.763824 81.794726 
L 261.592782 88.310933 
L 263.007261 90.681009 
L 264.42174 91.298541 
L 265.836219 93.062916 
L 267.250698 93.687122 
L 268.665177 93.89551 
L 270.079656 92.970783 
L 271.494135 91.47511 
L 272.908614 93.122156 
L 275.737573 101.823594 
L 277.152052 104.991406 
L 278.566531 105.46722 
L 279.98101 102.02955 
L 281.395489 89.652592 
L 282.809968 85.390601 
L 285.638926 93.314138 
L 288.467884 104.347405 
L 289.882363 107.103132 
L 291.296842 107.375051 
L 292.711321 107.89411 
L 294.1258 106.707053 
L 296.954758 103.585065 
L 298.369237 97.267888 
L 299.783716 96.763155 
L 301.198195 108.777198 
L 302.612675 115.196237 
L 304.027154 118.86399 
L 305.441633 121.051307 
L 306.856112 117.62807 
L 308.270591 114.932733 
L 309.68507 115.502232 
L 311.099549 116.992272 
L 312.514028 120.301665 
L 313.928507 123.129917 
L 315.342986 125.55955 
L 316.757465 129.936567 
L 318.171944 129.769212 
L 319.586423 122.541321 
L 321.000902 119.133619 
L 322.415381 120.787121 
L 323.82986 121.973306 
L 325.244339 123.916777 
L 326.658818 126.875 
L 328.073298 127.040573 
L 329.487777 124.505922 
L 330.902256 126.722995 
L 332.316735 129.502661 
L 333.731214 130.788078 
L 335.145693 130.162092 
L 336.560172 126.986794 
L 337.974651 125.231101 
L 339.38913 124.947268 
L 340.803609 129.54573 
L 342.218088 131.580669 
L 343.632567 133.37404 
L 345.047046 133.708331 
L 346.461525 131.311803 
L 347.876004 133.553206 
L 349.290483 132.562573 
L 350.704962 132.911435 
L 352.119441 132.924202 
L 353.533921 133.072789 
L 354.9484 134.180831 
L 356.362879 132.728665 
L 357.777358 133.049376 
L 359.191837 135.992459 
L 360.606316 138.566606 
L 363.435274 143.071556 
L 364.849753 142.352846 
L 366.264232 139.510253 
L 367.678711 139.23233 
L 369.09319 142.092771 
L 370.507669 144.037324 
L 371.922148 144.785535 
L 373.336627 143.991264 
L 374.751106 140.243919 
L 376.165585 137.141685 
L 377.580064 136.685409 
L 378.994544 139.07505 
L 380.409023 141.734743 
L 381.823502 143.101387 
L 383.237981 144.143905 
L 384.65246 144.02428 
L 386.066939 146.135885 
L 387.481418 148.949769 
L 388.895897 150.015713 
L 390.310376 150.751658 
L 393.139334 147.805563 
L 394.553813 145.1137 
L 395.968292 145.075916 
L 398.79725 151.841582 
L 400.211729 154.305147 
L 401.626208 154.272425 
L 404.455166 143.116292 
L 405.869646 140.670833 
L 407.284125 144.781065 
L 408.698604 148.260157 
L 410.113083 150.814246 
L 411.527562 154.173823 
L 412.942041 155.856853 
L 414.35652 155.700638 
L 415.770999 154.64223 
L 417.185478 153.929799 
L 418.599957 152.741645 
L 420.014436 151.353528 
L 421.428915 153.818293 
L 422.843394 153.046848 
L 424.257873 152.07644 
L 425.672352 152.460095 
L 427.086831 153.700365 
L 428.50131 154.624479 
L 429.915789 154.65571 
L 431.330269 155.154528 
L 433 153.198269 
L 433 153.198269 
" clip-path="url(#pb4eccac963)" style="fill: none; stroke: #7ad151; stroke-width: 1.5; stroke-linecap: square"/>
   </g>
   <g id="patch_3">
    <path d="M 54 252 
L 54 34.56 
" style="fill: none; stroke: #000000; stroke-width: 0.8; stroke-linejoin: miter; stroke-linecap: square"/>
   </g>
   <g id="patch_4">
    <path d="M 388.8 252 
L 388.8 34.56 
" style="fill: none; stroke: #000000; stroke-width: 0.8; stroke-linejoin: miter; stroke-linecap: square"/>
   </g>
   <g id="patch_5">
    <path d="M 54 252 
L 388.8 252 
" style="fill: none; stroke: #000000; stroke-width: 0.8; stroke-linejoin: miter; stroke-linecap: square"/>
   </g>
   <g id="patch_6">
    <path d="M 54 34.56 
L 388.8 34.56 
" style="fill: none; stroke: #000000; stroke-width: 0.8; stroke-linejoin: miter; stroke-linecap: square"/>
   </g>
   <g id="text_18">
    <!-- PM6 Normalized NEXAFS -->
    <g transform="translate(147.298125 28.56)scale(0.12 -0.12)">
     <defs>
      <path id="DejaVuSans-50" d="M 1259 4147 
L 1259 2394 
L 2053 2394 
Q 2494 2394 2734 2622 
Q 2975 2850 2975 3272 
Q 2975 3691 2734 3919 
Q 2494 4147 2053 4147 
L 1259 4147 
z
M 628 4666 
L 2053 4666 
Q 2838 4666 3239 4311 
Q 3641 3956 3641 3272 
Q 3641 2581 3239 2228 
Q 2838 1875 2053 1875 
L 1259 1875 
L 1259 0 
L 628 0 
L 628 4666 
z
" transform="scale(0.015625)"/>
      <path id="DejaVuSans-4d" d="M 628 4666 
L 1569 4666 
L 2759 1491 
L 3956 4666 
L 4897 4666 
L 4897 0 
L 4281 0 
L 4281 4097 
L 3078 897 
L 2444 897 
L 1241 4097 
L 1241 0 
L 628 0 
L 628 4666 
z
" transform="scale(0.015625)"/>
      <path id="DejaVuSans-36" d="M 2113 2584 
Q 1688 2584 1439 2293 
Q 1191 2003 1191 1497 
Q 1191 994 1439 701 
Q 1688 409 2113 409 
Q 2538 409 2786 701 
Q 3034 994 3034 1497 
Q 3034 2003 2786 2293 
Q 2538 2584 2113 2584 
z
M 3366 4563 
L 3366 3988 
Q 3128 4100 2886 4159 
Q 2644 4219 2406 4219 
Q 1781 4219 1451 3797 
Q 1122 3375 1075 2522 
Q 1259 2794 1537 2939 
Q 1816 3084 2150 3084 
Q 2853 3084 3261 2657 
Q 3669 2231 3669 1497 
Q 3669 778 3244 343 
Q 2819 -91 2113 -91 
Q 1303 -91 875 529 
Q 447 1150 447 2328 
Q 447 3434 972 4092 
Q 1497 4750 2381 4750 
Q 2619 4750 2861 4703 
Q 3103 4656 3366 4563 
z
" transform="scale(0.015625)"/>
      <path id="DejaVuSans-4e" d="M 628 4666 
L 1478 4666 
L 3547 763 
L 3547 4666 
L 4159 4666 
L 4159 0 
L 3309 0 
L 1241 3903 
L 1241 0 
L 628 0 
L 628 4666 
z
" transform="scale(0.015625)"/>
      <path id="DejaVuSans-6d" d="M 3328 2828 
Q 3544 3216 3844 3400 
Q 4144 3584 4550 3584 
Q 5097 3584 5394 3201 
Q 5691 2819 5691 2113 
L 5691 0 
L 5113 0 
L 5113 2094 
Q 5113 2597 4934 2840 
Q 4756 3084 4391 3084 
Q 3944 3084 3684 2787 
Q 3425 2491 3425 1978 
L 3425 0 
L 2847 0 
L 2847 2094 
Q 2847 2600 2669 2842 
Q 2491 3084 2119 3084 
Q 1678 3084 1418 2786 
Q 1159 2488 1159 1978 
L 1159 0 
L 581 0 
L 581 3500 
L 1159 3500 
L 1159 2956 
Q 1356 3278 1631 3431 
Q 1906 3584 2284 3584 
Q 2666 3584 2933 3390 
Q 3200 3197 3328 2828 
z
" transform="scale(0.015625)"/>
      <path id="DejaVuSans-7a" d="M 353 3500 
L 3084 3500 
L 3084 2975 
L 922 459 
L 3084 459 
L 3084 0 
L 275 0 
L 275 525 
L 2438 3041 
L 353 3041 
L 353 3500 
z
" transform="scale(0.015625)"/>
      <path id="DejaVuSans-45" d="M 628 4666 
L 3578 4666 
L 3578 4134 
L 1259 4134 
L 1259 2753 
L 3481 2753 
L 3481 2222 
L 1259 2222 
L 1259 531 
L 3634 531 
L 3634 0 
L 628 0 
L 628 4666 
z
" transform="scale(0.015625)"/>
      <path id="DejaVuSans-58" d="M 403 4666 
L 1081 4666 
L 2241 2931 
L 3406 4666 
L 4084 4666 
L 2584 2425 
L 4184 0 
L 3506 0 
L 2194 1984 
L 872 0 
L 191 0 
L 1856 2491 
L 403 4666 
z
" transform="scale(0.015625)"/>
      <path id="DejaVuSans-41" d="M 2188 4044 
L 1331 1722 
L 3047 1722 
L 2188 4044 
z
M 1831 4666 
L 2547 4666 
L 4325 0 
L 3669 0 
L 3244 1197 
L 1141 1197 
L 716 0 
L 50 0 
L 1831 4666 
z
" transform="scale(0.015625)"/>
      <path id="DejaVuSans-46" d="M 628 4666 
L 3309 4666 
L 3309 4134 
L 1259 4134 
L 1259 2759 
L 3109 2759 
L 3109 2228 
L 1259 2228 
L 1259 0 
L 628 0 
L 628 4666 
z
" transform="scale(0.015625)"/>
      <path id="DejaVuSans-53" d="M 3425 4513 
L 3425 3897 
Q 3066 4069 2747 4153 
Q 2428 4238 2131 4238 
Q 1616 4238 1336 4038 
Q 1056 3838 1056 3469 
Q 1056 3159 1242 3001 
Q 1428 2844 1947 2747 
L 2328 2669 
Q 3034 2534 3370 2195 
Q 3706 1856 3706 1288 
Q 3706 609 3251 259 
Q 2797 -91 1919 -91 
Q 1588 -91 1214 -16 
Q 841 59 441 206 
L 441 856 
Q 825 641 1194 531 
Q 1563 422 1919 422 
Q 2459 422 2753 634 
Q 3047 847 3047 1241 
Q 3047 1584 2836 1778 
Q 2625 1972 2144 2069 
L 1759 2144 
Q 1053 2284 737 2584 
Q 422 2884 422 3419 
Q 422 4038 858 4394 
Q 1294 4750 2059 4750 
Q 2388 4750 2728 4690 
Q 3069 4631 3425 4513 
z
" transform="scale(0.015625)"/>
     </defs>
     <use xlink:href="#DejaVuSans-50"/>
     <use xlink:href="#DejaVuSans-4d" x="60.302734"/>
     <use xlink:href="#DejaVuSans-36" x="146.582031"/>
     <use xlink:href="#DejaVuSans-20" x="210.205078"/>
     <use xlink:href="#DejaVuSans-4e" x="241.992188"/>
     <use xlink:href="#DejaVuSans-6f" x="316.796875"/>
     <use xlink:href="#DejaVuSans-72" x="377.978516"/>
     <use xlink:href="#DejaVuSans-6d" x="417.341797"/>
     <use xlink:href="#DejaVuSans-61" x="514.753906"/>
     <use xlink:href="#DejaVuSans-6c" x="576.033203"/>
     <use xlink:href="#DejaVuSans-69" x="603.816406"/>
     <use xlink:href="#DejaVuSans-7a" x="631.599609"/>
     <use xlink:href="#DejaVuSans-65" x="684.089844"/>
     <use xlink:href="#DejaVuSans-64" x="745.613281"/>
     <use xlink:href="#DejaVuSans-20" x="809.089844"/>
     <use xlink:href="#DejaVuSans-4e" x="840.876953"/>
     <use xlink:href="#DejaVuSans-45" x="915.681641"/>
     <use xlink:href="#DejaVuSans-58" x="978.865234"/>
     <use xlink:href="#DejaVuSans-41" x="1047.371094"/>
     <use xlink:href="#DejaVuSans-46" x="1115.779297"/>
     <use xlink:href="#DejaVuSans-53" x="1171.548828"/>
    </g>
   </g>
   <g id="legend_1">
    <g id="patch_7">
     <path d="M 332.075 71.91625 
L 381.8 71.91625 
Q 383.8 71.91625 383.8 69.91625 
L 383.8 41.56 
Q 383.8 39.56 381.8 39.56 
L 332.075 39.56 
Q 330.075 39.56 330.075 41.56 
L 330.075 69.91625 
Q 330.075 71.91625 332.075 71.91625 
z
" style="fill: #ffffff; opacity: 0.8; stroke: #cccccc; stroke-linejoin: miter"/>
    </g>
    <g id="line2d_18">
     <path d="M 334.075 47.658437 
L 344.075 47.658437 
L 354.075 47.658437 
" style="fill: none; stroke: #440154; stroke-width: 1.5; stroke-linecap: square"/>
    </g>
    <g id="text_19">
     <!-- 0° -->
     <g transform="translate(362.075 51.158437)scale(0.1 -0.1)">
      <defs>
       <path id="DejaVuSans-b0" d="M 1600 4347 
Q 1350 4347 1178 4173 
Q 1006 4000 1006 3750 
Q 1006 3503 1178 3333 
Q 1350 3163 1600 3163 
Q 1850 3163 2022 3333 
Q 2194 3503 2194 3750 
Q 2194 3997 2020 4172 
Q 1847 4347 1600 4347 
z
M 1600 4750 
Q 1800 4750 1984 4673 
Q 2169 4597 2303 4453 
Q 2447 4313 2519 4134 
Q 2591 3956 2591 3750 
Q 2591 3338 2302 3052 
Q 2013 2766 1594 2766 
Q 1172 2766 890 3047 
Q 609 3328 609 3750 
Q 609 4169 896 4459 
Q 1184 4750 1600 4750 
z
" transform="scale(0.015625)"/>
      </defs>
      <use xlink:href="#DejaVuSans-30"/>
      <use xlink:href="#DejaVuSans-b0" x="63.623047"/>
     </g>
    </g>
    <g id="line2d_19">
     <path d="M 334.075 62.336562 
L 344.075 62.336562 
L 354.075 62.336562 
" style="fill: none; stroke: #7ad151; stroke-width: 1.5; stroke-linecap: square"/>
    </g>
    <g id="text_20">
     <!-- 90° -->
     <g transform="translate(362.075 65.836562)scale(0.1 -0.1)">
      <use xlink:href="#DejaVuSans-39"/>
      <use xlink:href="#DejaVuSans-30" x="63.623047"/>
      <use xlink:href="#DejaVuSans-b0" x="127.246094"/>
     </g>
    </g>
   </g>
  </g>
 </g>
 <defs>
  <clipPath id="pb4eccac963">
   <rect x="54" y="34.56" width="334.8" height="217.44"/>
  </clipPath>
 </defs>
</svg>
