<?xml version="1.0" encoding="utf-8" standalone="no"?>
<!DOCTYPE svg PUBLIC "-//W3C//DTD SVG 1.1//EN"
  "http://www.w3.org/Graphics/SVG/1.1/DTD/svg11.dtd">
<svg xmlns:xlink="http://www.w3.org/1999/xlink" width="432pt" height="288pt" viewBox="0 0 432 288" xmlns="http://www.w3.org/2000/svg" version="1.1">
 <metadata>
  <rdf:RDF xmlns:dc="http://purl.org/dc/elements/1.1/" xmlns:cc="http://creativecommons.org/ns#" xmlns:rdf="http://www.w3.org/1999/02/22-rdf-syntax-ns#">
   <cc:Work>
    <dc:type rdf:resource="http://purl.org/dc/dcmitype/StillImage"/>
    <dc:date>2022-12-02T13:51:18.927419</dc:date>
    <dc:format>image/svg+xml</dc:format>
    <dc:creator>
     <cc:Agent>
      <dc:title>Matplotlib v3.5.1, https://matplotlib.org/</dc:title>
     </cc:Agent>
    </dc:creator>
   </cc:Work>
  </rdf:RDF>
 </metadata>
 <defs>
  <style type="text/css">*{stroke-linejoin: round; stroke-linecap: butt}</style>
 </defs>
 <g id="figure_1">
  <g id="patch_1">
   <path d="M 0 288 
L 432 288 
L 432 0 
L 0 0 
L 0 288 
z
" style="fill: none"/>
  </g>
  <g id="axes_1">
   <g id="patch_2">
    <path d="M 54 252 
L 388.8 252 
L 388.8 34.56 
L 54 34.56 
z
" style="fill: #ffffff"/>
   </g>
   <g id="matplotlib.axis_1">
    <g id="xtick_1">
     <g id="line2d_1">
      <defs>
       <path id="m98c0a2d69c" d="M 0 0 
L 0 3.5 
" style="stroke: #000000; stroke-width: 0.8"/>
      </defs>
      <g>
       <use xlink:href="#m98c0a2d69c" x="54" y="252" style="stroke: #000000; stroke-width: 0.8"/>
      </g>
     </g>
     <g id="text_1">
      <!-- 280 -->
      <g transform="translate(44.45625 266.598437)scale(0.1 -0.1)">
       <defs>
        <path id="DejaVuSans-32" d="M 1228 531 
L 3431 531 
L 3431 0 
L 469 0 
L 469 531 
Q 828 903 1448 1529 
Q 2069 2156 2228 2338 
Q 2531 2678 2651 2914 
Q 2772 3150 2772 3378 
Q 2772 3750 2511 3984 
Q 2250 4219 1831 4219 
Q 1534 4219 1204 4116 
Q 875 4013 500 3803 
L 500 4441 
Q 881 4594 1212 4672 
Q 1544 4750 1819 4750 
Q 2544 4750 2975 4387 
Q 3406 4025 3406 3419 
Q 3406 3131 3298 2873 
Q 3191 2616 2906 2266 
Q 2828 2175 2409 1742 
Q 1991 1309 1228 531 
z
" transform="scale(0.015625)"/>
        <path id="DejaVuSans-38" d="M 2034 2216 
Q 1584 2216 1326 1975 
Q 1069 1734 1069 1313 
Q 1069 891 1326 650 
Q 1584 409 2034 409 
Q 2484 409 2743 651 
Q 3003 894 3003 1313 
Q 3003 1734 2745 1975 
Q 2488 2216 2034 2216 
z
M 1403 2484 
Q 997 2584 770 2862 
Q 544 3141 544 3541 
Q 544 4100 942 4425 
Q 1341 4750 2034 4750 
Q 2731 4750 3128 4425 
Q 3525 4100 3525 3541 
Q 3525 3141 3298 2862 
Q 3072 2584 2669 2484 
Q 3125 2378 3379 2068 
Q 3634 1759 3634 1313 
Q 3634 634 3220 271 
Q 2806 -91 2034 -91 
Q 1263 -91 848 271 
Q 434 634 434 1313 
Q 434 1759 690 2068 
Q 947 2378 1403 2484 
z
M 1172 3481 
Q 1172 3119 1398 2916 
Q 1625 2713 2034 2713 
Q 2441 2713 2670 2916 
Q 2900 3119 2900 3481 
Q 2900 3844 2670 4047 
Q 2441 4250 2034 4250 
Q 1625 4250 1398 4047 
Q 1172 3844 1172 3481 
z
" transform="scale(0.015625)"/>
        <path id="DejaVuSans-30" d="M 2034 4250 
Q 1547 4250 1301 3770 
Q 1056 3291 1056 2328 
Q 1056 1369 1301 889 
Q 1547 409 2034 409 
Q 2525 409 2770 889 
Q 3016 1369 3016 2328 
Q 3016 3291 2770 3770 
Q 2525 4250 2034 4250 
z
M 2034 4750 
Q 2819 4750 3233 4129 
Q 3647 3509 3647 2328 
Q 3647 1150 3233 529 
Q 2819 -91 2034 -91 
Q 1250 -91 836 529 
Q 422 1150 422 2328 
Q 422 3509 836 4129 
Q 1250 4750 2034 4750 
z
" transform="scale(0.015625)"/>
       </defs>
       <use xlink:href="#DejaVuSans-32"/>
       <use xlink:href="#DejaVuSans-38" x="63.623047"/>
       <use xlink:href="#DejaVuSans-30" x="127.246094"/>
      </g>
     </g>
    </g>
    <g id="xtick_2">
     <g id="line2d_2">
      <g>
       <use xlink:href="#m98c0a2d69c" x="101.828571" y="252" style="stroke: #000000; stroke-width: 0.8"/>
      </g>
     </g>
     <g id="text_2">
      <!-- 285 -->
      <g transform="translate(92.284821 266.598437)scale(0.1 -0.1)">
       <defs>
        <path id="DejaVuSans-35" d="M 691 4666 
L 3169 4666 
L 3169 4134 
L 1269 4134 
L 1269 2991 
Q 1406 3038 1543 3061 
Q 1681 3084 1819 3084 
Q 2600 3084 3056 2656 
Q 3513 2228 3513 1497 
Q 3513 744 3044 326 
Q 2575 -91 1722 -91 
Q 1428 -91 1123 -41 
Q 819 9 494 109 
L 494 744 
Q 775 591 1075 516 
Q 1375 441 1709 441 
Q 2250 441 2565 725 
Q 2881 1009 2881 1497 
Q 2881 1984 2565 2268 
Q 2250 2553 1709 2553 
Q 1456 2553 1204 2497 
Q 953 2441 691 2322 
L 691 4666 
z
" transform="scale(0.015625)"/>
       </defs>
       <use xlink:href="#DejaVuSans-32"/>
       <use xlink:href="#DejaVuSans-38" x="63.623047"/>
       <use xlink:href="#DejaVuSans-35" x="127.246094"/>
      </g>
     </g>
    </g>
    <g id="xtick_3">
     <g id="line2d_3">
      <g>
       <use xlink:href="#m98c0a2d69c" x="149.657143" y="252" style="stroke: #000000; stroke-width: 0.8"/>
      </g>
     </g>
     <g id="text_3">
      <!-- 290 -->
      <g transform="translate(140.113393 266.598437)scale(0.1 -0.1)">
       <defs>
        <path id="DejaVuSans-39" d="M 703 97 
L 703 672 
Q 941 559 1184 500 
Q 1428 441 1663 441 
Q 2288 441 2617 861 
Q 2947 1281 2994 2138 
Q 2813 1869 2534 1725 
Q 2256 1581 1919 1581 
Q 1219 1581 811 2004 
Q 403 2428 403 3163 
Q 403 3881 828 4315 
Q 1253 4750 1959 4750 
Q 2769 4750 3195 4129 
Q 3622 3509 3622 2328 
Q 3622 1225 3098 567 
Q 2575 -91 1691 -91 
Q 1453 -91 1209 -44 
Q 966 3 703 97 
z
M 1959 2075 
Q 2384 2075 2632 2365 
Q 2881 2656 2881 3163 
Q 2881 3666 2632 3958 
Q 2384 4250 1959 4250 
Q 1534 4250 1286 3958 
Q 1038 3666 1038 3163 
Q 1038 2656 1286 2365 
Q 1534 2075 1959 2075 
z
" transform="scale(0.015625)"/>
       </defs>
       <use xlink:href="#DejaVuSans-32"/>
       <use xlink:href="#DejaVuSans-39" x="63.623047"/>
       <use xlink:href="#DejaVuSans-30" x="127.246094"/>
      </g>
     </g>
    </g>
    <g id="xtick_4">
     <g id="line2d_4">
      <g>
       <use xlink:href="#m98c0a2d69c" x="197.485714" y="252" style="stroke: #000000; stroke-width: 0.8"/>
      </g>
     </g>
     <g id="text_4">
      <!-- 295 -->
      <g transform="translate(187.941964 266.598437)scale(0.1 -0.1)">
       <use xlink:href="#DejaVuSans-32"/>
       <use xlink:href="#DejaVuSans-39" x="63.623047"/>
       <use xlink:href="#DejaVuSans-35" x="127.246094"/>
      </g>
     </g>
    </g>
    <g id="xtick_5">
     <g id="line2d_5">
      <g>
       <use xlink:href="#m98c0a2d69c" x="245.314286" y="252" style="stroke: #000000; stroke-width: 0.8"/>
      </g>
     </g>
     <g id="text_5">
      <!-- 300 -->
      <g transform="translate(235.770536 266.598437)scale(0.1 -0.1)">
       <defs>
        <path id="DejaVuSans-33" d="M 2597 2516 
Q 3050 2419 3304 2112 
Q 3559 1806 3559 1356 
Q 3559 666 3084 287 
Q 2609 -91 1734 -91 
Q 1441 -91 1130 -33 
Q 819 25 488 141 
L 488 750 
Q 750 597 1062 519 
Q 1375 441 1716 441 
Q 2309 441 2620 675 
Q 2931 909 2931 1356 
Q 2931 1769 2642 2001 
Q 2353 2234 1838 2234 
L 1294 2234 
L 1294 2753 
L 1863 2753 
Q 2328 2753 2575 2939 
Q 2822 3125 2822 3475 
Q 2822 3834 2567 4026 
Q 2313 4219 1838 4219 
Q 1578 4219 1281 4162 
Q 984 4106 628 3988 
L 628 4550 
Q 988 4650 1302 4700 
Q 1616 4750 1894 4750 
Q 2613 4750 3031 4423 
Q 3450 4097 3450 3541 
Q 3450 3153 3228 2886 
Q 3006 2619 2597 2516 
z
" transform="scale(0.015625)"/>
       </defs>
       <use xlink:href="#DejaVuSans-33"/>
       <use xlink:href="#DejaVuSans-30" x="63.623047"/>
       <use xlink:href="#DejaVuSans-30" x="127.246094"/>
      </g>
     </g>
    </g>
    <g id="xtick_6">
     <g id="line2d_6">
      <g>
       <use xlink:href="#m98c0a2d69c" x="293.142857" y="252" style="stroke: #000000; stroke-width: 0.8"/>
      </g>
     </g>
     <g id="text_6">
      <!-- 305 -->
      <g transform="translate(283.599107 266.598437)scale(0.1 -0.1)">
       <use xlink:href="#DejaVuSans-33"/>
       <use xlink:href="#DejaVuSans-30" x="63.623047"/>
       <use xlink:href="#DejaVuSans-35" x="127.246094"/>
      </g>
     </g>
    </g>
    <g id="xtick_7">
     <g id="line2d_7">
      <g>
       <use xlink:href="#m98c0a2d69c" x="340.971429" y="252" style="stroke: #000000; stroke-width: 0.8"/>
      </g>
     </g>
     <g id="text_7">
      <!-- 310 -->
      <g transform="translate(331.427679 266.598437)scale(0.1 -0.1)">
       <defs>
        <path id="DejaVuSans-31" d="M 794 531 
L 1825 531 
L 1825 4091 
L 703 3866 
L 703 4441 
L 1819 4666 
L 2450 4666 
L 2450 531 
L 3481 531 
L 3481 0 
L 794 0 
L 794 531 
z
" transform="scale(0.015625)"/>
       </defs>
       <use xlink:href="#DejaVuSans-33"/>
       <use xlink:href="#DejaVuSans-31" x="63.623047"/>
       <use xlink:href="#DejaVuSans-30" x="127.246094"/>
      </g>
     </g>
    </g>
    <g id="xtick_8">
     <g id="line2d_8">
      <g>
       <use xlink:href="#m98c0a2d69c" x="388.8" y="252" style="stroke: #000000; stroke-width: 0.8"/>
      </g>
     </g>
     <g id="text_8">
      <!-- 315 -->
      <g transform="translate(379.25625 266.598437)scale(0.1 -0.1)">
       <use xlink:href="#DejaVuSans-33"/>
       <use xlink:href="#DejaVuSans-31" x="63.623047"/>
       <use xlink:href="#DejaVuSans-35" x="127.246094"/>
      </g>
     </g>
    </g>
    <g id="text_9">
     <!-- energy [eV] -->
     <g transform="translate(191.989062 280.276563)scale(0.1 -0.1)">
      <defs>
       <path id="DejaVuSans-65" d="M 3597 1894 
L 3597 1613 
L 953 1613 
Q 991 1019 1311 708 
Q 1631 397 2203 397 
Q 2534 397 2845 478 
Q 3156 559 3463 722 
L 3463 178 
Q 3153 47 2828 -22 
Q 2503 -91 2169 -91 
Q 1331 -91 842 396 
Q 353 884 353 1716 
Q 353 2575 817 3079 
Q 1281 3584 2069 3584 
Q 2775 3584 3186 3129 
Q 3597 2675 3597 1894 
z
M 3022 2063 
Q 3016 2534 2758 2815 
Q 2500 3097 2075 3097 
Q 1594 3097 1305 2825 
Q 1016 2553 972 2059 
L 3022 2063 
z
" transform="scale(0.015625)"/>
       <path id="DejaVuSans-6e" d="M 3513 2113 
L 3513 0 
L 2938 0 
L 2938 2094 
Q 2938 2591 2744 2837 
Q 2550 3084 2163 3084 
Q 1697 3084 1428 2787 
Q 1159 2491 1159 1978 
L 1159 0 
L 581 0 
L 581 3500 
L 1159 3500 
L 1159 2956 
Q 1366 3272 1645 3428 
Q 1925 3584 2291 3584 
Q 2894 3584 3203 3211 
Q 3513 2838 3513 2113 
z
" transform="scale(0.015625)"/>
       <path id="DejaVuSans-72" d="M 2631 2963 
Q 2534 3019 2420 3045 
Q 2306 3072 2169 3072 
Q 1681 3072 1420 2755 
Q 1159 2438 1159 1844 
L 1159 0 
L 581 0 
L 581 3500 
L 1159 3500 
L 1159 2956 
Q 1341 3275 1631 3429 
Q 1922 3584 2338 3584 
Q 2397 3584 2469 3576 
Q 2541 3569 2628 3553 
L 2631 2963 
z
" transform="scale(0.015625)"/>
       <path id="DejaVuSans-67" d="M 2906 1791 
Q 2906 2416 2648 2759 
Q 2391 3103 1925 3103 
Q 1463 3103 1205 2759 
Q 947 2416 947 1791 
Q 947 1169 1205 825 
Q 1463 481 1925 481 
Q 2391 481 2648 825 
Q 2906 1169 2906 1791 
z
M 3481 434 
Q 3481 -459 3084 -895 
Q 2688 -1331 1869 -1331 
Q 1566 -1331 1297 -1286 
Q 1028 -1241 775 -1147 
L 775 -588 
Q 1028 -725 1275 -790 
Q 1522 -856 1778 -856 
Q 2344 -856 2625 -561 
Q 2906 -266 2906 331 
L 2906 616 
Q 2728 306 2450 153 
Q 2172 0 1784 0 
Q 1141 0 747 490 
Q 353 981 353 1791 
Q 353 2603 747 3093 
Q 1141 3584 1784 3584 
Q 2172 3584 2450 3431 
Q 2728 3278 2906 2969 
L 2906 3500 
L 3481 3500 
L 3481 434 
z
" transform="scale(0.015625)"/>
       <path id="DejaVuSans-79" d="M 2059 -325 
Q 1816 -950 1584 -1140 
Q 1353 -1331 966 -1331 
L 506 -1331 
L 506 -850 
L 844 -850 
Q 1081 -850 1212 -737 
Q 1344 -625 1503 -206 
L 1606 56 
L 191 3500 
L 800 3500 
L 1894 763 
L 2988 3500 
L 3597 3500 
L 2059 -325 
z
" transform="scale(0.015625)"/>
       <path id="DejaVuSans-20" transform="scale(0.015625)"/>
       <path id="DejaVuSans-5b" d="M 550 4863 
L 1875 4863 
L 1875 4416 
L 1125 4416 
L 1125 -397 
L 1875 -397 
L 1875 -844 
L 550 -844 
L 550 4863 
z
" transform="scale(0.015625)"/>
       <path id="DejaVuSans-56" d="M 1831 0 
L 50 4666 
L 709 4666 
L 2188 738 
L 3669 4666 
L 4325 4666 
L 2547 0 
L 1831 0 
z
" transform="scale(0.015625)"/>
       <path id="DejaVuSans-5d" d="M 1947 4863 
L 1947 -844 
L 622 -844 
L 622 -397 
L 1369 -397 
L 1369 4416 
L 622 4416 
L 622 4863 
L 1947 4863 
z
" transform="scale(0.015625)"/>
      </defs>
      <use xlink:href="#DejaVuSans-65"/>
      <use xlink:href="#DejaVuSans-6e" x="61.523438"/>
      <use xlink:href="#DejaVuSans-65" x="124.902344"/>
      <use xlink:href="#DejaVuSans-72" x="186.425781"/>
      <use xlink:href="#DejaVuSans-67" x="225.789062"/>
      <use xlink:href="#DejaVuSans-79" x="289.265625"/>
      <use xlink:href="#DejaVuSans-20" x="348.445312"/>
      <use xlink:href="#DejaVuSans-5b" x="380.232422"/>
      <use xlink:href="#DejaVuSans-65" x="419.246094"/>
      <use xlink:href="#DejaVuSans-56" x="480.769531"/>
      <use xlink:href="#DejaVuSans-5d" x="549.177734"/>
     </g>
    </g>
   </g>
   <g id="matplotlib.axis_2">
    <g id="ytick_1">
     <g id="line2d_9">
      <defs>
       <path id="m013355a841" d="M 0 0 
L -3.5 0 
" style="stroke: #000000; stroke-width: 0.8"/>
      </defs>
      <g>
       <use xlink:href="#m013355a841" x="54" y="238.667944" style="stroke: #000000; stroke-width: 0.8"/>
      </g>
     </g>
     <g id="text_10">
      <!-- 0.0 -->
      <g transform="translate(31.096875 242.467163)scale(0.1 -0.1)">
       <defs>
        <path id="DejaVuSans-2e" d="M 684 794 
L 1344 794 
L 1344 0 
L 684 0 
L 684 794 
z
" transform="scale(0.015625)"/>
       </defs>
       <use xlink:href="#DejaVuSans-30"/>
       <use xlink:href="#DejaVuSans-2e" x="63.623047"/>
       <use xlink:href="#DejaVuSans-30" x="95.410156"/>
      </g>
     </g>
    </g>
    <g id="ytick_2">
     <g id="line2d_10">
      <g>
       <use xlink:href="#m013355a841" x="54" y="208.83842" style="stroke: #000000; stroke-width: 0.8"/>
      </g>
     </g>
     <g id="text_11">
      <!-- 0.5 -->
      <g transform="translate(31.096875 212.637639)scale(0.1 -0.1)">
       <use xlink:href="#DejaVuSans-30"/>
       <use xlink:href="#DejaVuSans-2e" x="63.623047"/>
       <use xlink:href="#DejaVuSans-35" x="95.410156"/>
      </g>
     </g>
    </g>
    <g id="ytick_3">
     <g id="line2d_11">
      <g>
       <use xlink:href="#m013355a841" x="54" y="179.008896" style="stroke: #000000; stroke-width: 0.8"/>
      </g>
     </g>
     <g id="text_12">
      <!-- 1.0 -->
      <g transform="translate(31.096875 182.808114)scale(0.1 -0.1)">
       <use xlink:href="#DejaVuSans-31"/>
       <use xlink:href="#DejaVuSans-2e" x="63.623047"/>
       <use xlink:href="#DejaVuSans-30" x="95.410156"/>
      </g>
     </g>
    </g>
    <g id="ytick_4">
     <g id="line2d_12">
      <g>
       <use xlink:href="#m013355a841" x="54" y="149.179371" style="stroke: #000000; stroke-width: 0.8"/>
      </g>
     </g>
     <g id="text_13">
      <!-- 1.5 -->
      <g transform="translate(31.096875 152.97859)scale(0.1 -0.1)">
       <use xlink:href="#DejaVuSans-31"/>
       <use xlink:href="#DejaVuSans-2e" x="63.623047"/>
       <use xlink:href="#DejaVuSans-35" x="95.410156"/>
      </g>
     </g>
    </g>
    <g id="ytick_5">
     <g id="line2d_13">
      <g>
       <use xlink:href="#m013355a841" x="54" y="119.349847" style="stroke: #000000; stroke-width: 0.8"/>
      </g>
     </g>
     <g id="text_14">
      <!-- 2.0 -->
      <g transform="translate(31.096875 123.149066)scale(0.1 -0.1)">
       <use xlink:href="#DejaVuSans-32"/>
       <use xlink:href="#DejaVuSans-2e" x="63.623047"/>
       <use xlink:href="#DejaVuSans-30" x="95.410156"/>
      </g>
     </g>
    </g>
    <g id="ytick_6">
     <g id="line2d_14">
      <g>
       <use xlink:href="#m013355a841" x="54" y="89.520323" style="stroke: #000000; stroke-width: 0.8"/>
      </g>
     </g>
     <g id="text_15">
      <!-- 2.5 -->
      <g transform="translate(31.096875 93.319542)scale(0.1 -0.1)">
       <use xlink:href="#DejaVuSans-32"/>
       <use xlink:href="#DejaVuSans-2e" x="63.623047"/>
       <use xlink:href="#DejaVuSans-35" x="95.410156"/>
      </g>
     </g>
    </g>
    <g id="ytick_7">
     <g id="line2d_15">
      <g>
       <use xlink:href="#m013355a841" x="54" y="59.690799" style="stroke: #000000; stroke-width: 0.8"/>
      </g>
     </g>
     <g id="text_16">
      <!-- 3.0 -->
      <g transform="translate(31.096875 63.490017)scale(0.1 -0.1)">
       <use xlink:href="#DejaVuSans-33"/>
       <use xlink:href="#DejaVuSans-2e" x="63.623047"/>
       <use xlink:href="#DejaVuSans-30" x="95.410156"/>
      </g>
     </g>
    </g>
    <g id="text_17">
     <!-- electron_yield [a.u.] -->
     <g transform="translate(24.739062 193.0925)rotate(-90)scale(0.1 -0.1)">
      <defs>
       <path id="DejaVuSans-6c" d="M 603 4863 
L 1178 4863 
L 1178 0 
L 603 0 
L 603 4863 
z
" transform="scale(0.015625)"/>
       <path id="DejaVuSans-63" d="M 3122 3366 
L 3122 2828 
Q 2878 2963 2633 3030 
Q 2388 3097 2138 3097 
Q 1578 3097 1268 2742 
Q 959 2388 959 1747 
Q 959 1106 1268 751 
Q 1578 397 2138 397 
Q 2388 397 2633 464 
Q 2878 531 3122 666 
L 3122 134 
Q 2881 22 2623 -34 
Q 2366 -91 2075 -91 
Q 1284 -91 818 406 
Q 353 903 353 1747 
Q 353 2603 823 3093 
Q 1294 3584 2113 3584 
Q 2378 3584 2631 3529 
Q 2884 3475 3122 3366 
z
" transform="scale(0.015625)"/>
       <path id="DejaVuSans-74" d="M 1172 4494 
L 1172 3500 
L 2356 3500 
L 2356 3053 
L 1172 3053 
L 1172 1153 
Q 1172 725 1289 603 
Q 1406 481 1766 481 
L 2356 481 
L 2356 0 
L 1766 0 
Q 1100 0 847 248 
Q 594 497 594 1153 
L 594 3053 
L 172 3053 
L 172 3500 
L 594 3500 
L 594 4494 
L 1172 4494 
z
" transform="scale(0.015625)"/>
       <path id="DejaVuSans-6f" d="M 1959 3097 
Q 1497 3097 1228 2736 
Q 959 2375 959 1747 
Q 959 1119 1226 758 
Q 1494 397 1959 397 
Q 2419 397 2687 759 
Q 2956 1122 2956 1747 
Q 2956 2369 2687 2733 
Q 2419 3097 1959 3097 
z
M 1959 3584 
Q 2709 3584 3137 3096 
Q 3566 2609 3566 1747 
Q 3566 888 3137 398 
Q 2709 -91 1959 -91 
Q 1206 -91 779 398 
Q 353 888 353 1747 
Q 353 2609 779 3096 
Q 1206 3584 1959 3584 
z
" transform="scale(0.015625)"/>
       <path id="DejaVuSans-5f" d="M 3263 -1063 
L 3263 -1509 
L -63 -1509 
L -63 -1063 
L 3263 -1063 
z
" transform="scale(0.015625)"/>
       <path id="DejaVuSans-69" d="M 603 3500 
L 1178 3500 
L 1178 0 
L 603 0 
L 603 3500 
z
M 603 4863 
L 1178 4863 
L 1178 4134 
L 603 4134 
L 603 4863 
z
" transform="scale(0.015625)"/>
       <path id="DejaVuSans-64" d="M 2906 2969 
L 2906 4863 
L 3481 4863 
L 3481 0 
L 2906 0 
L 2906 525 
Q 2725 213 2448 61 
Q 2172 -91 1784 -91 
Q 1150 -91 751 415 
Q 353 922 353 1747 
Q 353 2572 751 3078 
Q 1150 3584 1784 3584 
Q 2172 3584 2448 3432 
Q 2725 3281 2906 2969 
z
M 947 1747 
Q 947 1113 1208 752 
Q 1469 391 1925 391 
Q 2381 391 2643 752 
Q 2906 1113 2906 1747 
Q 2906 2381 2643 2742 
Q 2381 3103 1925 3103 
Q 1469 3103 1208 2742 
Q 947 2381 947 1747 
z
" transform="scale(0.015625)"/>
       <path id="DejaVuSans-61" d="M 2194 1759 
Q 1497 1759 1228 1600 
Q 959 1441 959 1056 
Q 959 750 1161 570 
Q 1363 391 1709 391 
Q 2188 391 2477 730 
Q 2766 1069 2766 1631 
L 2766 1759 
L 2194 1759 
z
M 3341 1997 
L 3341 0 
L 2766 0 
L 2766 531 
Q 2569 213 2275 61 
Q 1981 -91 1556 -91 
Q 1019 -91 701 211 
Q 384 513 384 1019 
Q 384 1609 779 1909 
Q 1175 2209 1959 2209 
L 2766 2209 
L 2766 2266 
Q 2766 2663 2505 2880 
Q 2244 3097 1772 3097 
Q 1472 3097 1187 3025 
Q 903 2953 641 2809 
L 641 3341 
Q 956 3463 1253 3523 
Q 1550 3584 1831 3584 
Q 2591 3584 2966 3190 
Q 3341 2797 3341 1997 
z
" transform="scale(0.015625)"/>
       <path id="DejaVuSans-75" d="M 544 1381 
L 544 3500 
L 1119 3500 
L 1119 1403 
Q 1119 906 1312 657 
Q 1506 409 1894 409 
Q 2359 409 2629 706 
Q 2900 1003 2900 1516 
L 2900 3500 
L 3475 3500 
L 3475 0 
L 2900 0 
L 2900 538 
Q 2691 219 2414 64 
Q 2138 -91 1772 -91 
Q 1169 -91 856 284 
Q 544 659 544 1381 
z
M 1991 3584 
L 1991 3584 
z
" transform="scale(0.015625)"/>
      </defs>
      <use xlink:href="#DejaVuSans-65"/>
      <use xlink:href="#DejaVuSans-6c" x="61.523438"/>
      <use xlink:href="#DejaVuSans-65" x="89.306641"/>
      <use xlink:href="#DejaVuSans-63" x="150.830078"/>
      <use xlink:href="#DejaVuSans-74" x="205.810547"/>
      <use xlink:href="#DejaVuSans-72" x="245.019531"/>
      <use xlink:href="#DejaVuSans-6f" x="283.882812"/>
      <use xlink:href="#DejaVuSans-6e" x="345.064453"/>
      <use xlink:href="#DejaVuSans-5f" x="408.443359"/>
      <use xlink:href="#DejaVuSans-79" x="458.443359"/>
      <use xlink:href="#DejaVuSans-69" x="517.623047"/>
      <use xlink:href="#DejaVuSans-65" x="545.40625"/>
      <use xlink:href="#DejaVuSans-6c" x="606.929688"/>
      <use xlink:href="#DejaVuSans-64" x="634.712891"/>
      <use xlink:href="#DejaVuSans-20" x="698.189453"/>
      <use xlink:href="#DejaVuSans-5b" x="729.976562"/>
      <use xlink:href="#DejaVuSans-61" x="768.990234"/>
      <use xlink:href="#DejaVuSans-2e" x="830.269531"/>
      <use xlink:href="#DejaVuSans-75" x="862.056641"/>
      <use xlink:href="#DejaVuSans-2e" x="925.435547"/>
      <use xlink:href="#DejaVuSans-5d" x="957.222656"/>
     </g>
    </g>
   </g>
   <g id="line2d_16">
    <path d="M 63.565714 241.459256 
L 64.980193 241.703251 
L 66.394672 240.758976 
L 67.809151 239.136342 
L 70.63811 239.859999 
L 72.052589 239.560384 
L 73.467068 235.855962 
L 74.881547 237.042877 
L 76.296026 239.679619 
L 77.710505 238.496428 
L 79.124984 238.823782 
L 80.539463 240.126005 
L 81.953942 239.108082 
L 83.368421 237.552771 
L 84.7829 238.506436 
L 87.611858 240.699457 
L 89.026337 238.802827 
L 90.440816 237.2192 
L 91.855295 228.509344 
L 93.269774 205.00914 
L 94.684253 168.952778 
L 96.098733 163.003025 
L 97.513212 159.51835 
L 98.927691 134.54225 
L 100.34217 102.684178 
L 101.756649 140.413213 
L 103.171128 169.741187 
L 104.585607 186.701314 
L 106.000086 182.623663 
L 107.414565 168.913467 
L 108.829044 153.603934 
L 111.658002 141.326988 
L 113.072481 135.061572 
L 114.48696 125.047871 
L 115.901439 120.018277 
L 117.315918 125.320003 
L 118.730397 123.425803 
L 120.144876 107.216884 
L 121.559356 83.053968 
L 122.973835 74.342932 
L 124.388314 68.530455 
L 125.802793 65.564012 
L 127.217272 57.455535 
L 128.631751 44.443636 
L 130.04623 44.908902 
L 132.875188 69.635622 
L 134.289667 83.686328 
L 137.118625 93.804997 
L 138.533104 95.143793 
L 139.947583 95.436143 
L 141.362062 93.04967 
L 142.776541 88.984599 
L 144.19102 88.642445 
L 145.605499 90.892991 
L 147.019979 89.446462 
L 148.434458 92.389458 
L 149.848937 93.207876 
L 151.263416 95.271599 
L 152.677895 94.160842 
L 154.092374 92.645823 
L 155.506853 91.777464 
L 158.335811 87.548659 
L 159.75029 82.947537 
L 161.164769 80.862287 
L 162.579248 77.767134 
L 163.993727 76.763209 
L 165.408206 71.776804 
L 166.822685 73.856191 
L 168.237164 72.076945 
L 169.651643 73.452593 
L 171.066122 73.419511 
L 172.480602 76.165311 
L 173.895081 73.408595 
L 175.30956 75.052109 
L 176.724039 74.926134 
L 178.138518 76.721626 
L 179.552997 77.060608 
L 180.967476 78.140099 
L 182.381955 80.204646 
L 183.796434 81.744559 
L 185.210913 82.042326 
L 186.625392 79.835043 
L 188.039871 84.085796 
L 189.45435 85.708632 
L 190.868829 86.727318 
L 192.283308 85.578412 
L 193.697787 89.120766 
L 195.112266 90.112403 
L 196.526745 89.877776 
L 197.941224 88.813179 
L 199.355704 93.869873 
L 200.770183 94.927239 
L 202.184662 94.275037 
L 203.599141 93.912062 
L 205.01362 98.15446 
L 206.428099 97.459111 
L 207.842578 97.415993 
L 209.257057 100.836735 
L 210.671536 101.745883 
L 212.086015 101.460928 
L 213.500494 99.998014 
L 214.914973 102.926923 
L 216.329452 103.861995 
L 217.743931 104.377673 
L 219.15841 105.534516 
L 220.572889 105.877292 
L 221.987368 105.488721 
L 223.401847 105.708948 
L 229.059764 108.910136 
L 230.474243 109.336004 
L 231.888722 107.41667 
L 233.303201 107.618281 
L 237.546638 109.680395 
L 238.961117 110.554487 
L 240.375596 112.558453 
L 241.790075 113.835563 
L 247.447991 114.055548 
L 248.86247 115.096674 
L 250.27695 118.134519 
L 251.691429 119.189397 
L 257.349345 120.395045 
L 258.763824 120.557511 
L 260.178303 120.436521 
L 261.592782 119.730462 
L 264.42174 120.753872 
L 267.250698 121.847042 
L 268.665177 123.208272 
L 270.079656 123.71536 
L 271.494135 123.530709 
L 275.737573 123.616778 
L 277.152052 124.082343 
L 278.566531 126.915448 
L 279.98101 129.392304 
L 285.638926 129.472156 
L 287.053405 130.08426 
L 288.467884 132.131373 
L 289.882363 133.852543 
L 291.296842 134.280137 
L 296.954758 135.44641 
L 298.369237 136.416159 
L 299.783716 136.27955 
L 304.027154 136.720571 
L 305.441633 137.427747 
L 306.856112 139.676313 
L 308.270591 140.180019 
L 313.928507 140.313376 
L 315.342986 140.839629 
L 318.171944 145.175205 
L 319.586423 145.437346 
L 323.82986 145.221431 
L 325.244339 145.33382 
L 328.073298 149.64558 
L 332.316735 149.019023 
L 333.731214 148.987625 
L 335.145693 150.503401 
L 336.560172 152.435432 
L 343.632567 152.859397 
L 346.461525 153.691067 
L 352.119441 153.217457 
L 353.533921 153.807735 
L 354.9484 155.359778 
L 356.362879 156.407704 
L 362.020795 156.767334 
L 363.435274 157.209621 
L 364.849753 158.332908 
L 370.507669 159.31495 
L 371.922148 159.708156 
L 373.336627 159.467793 
L 374.751106 158.663199 
L 376.165585 158.234266 
L 380.409023 159.207901 
L 383.237981 160.967214 
L 384.65246 160.487684 
L 387.481418 160.045699 
L 390.310376 159.715065 
L 391.724855 160.566034 
L 393.139334 160.417683 
L 397.382771 161.590087 
L 398.79725 161.999081 
L 400.211729 162.542296 
L 401.626208 163.281574 
L 403.040687 163.767937 
L 404.455166 163.775241 
L 408.698604 164.181649 
L 410.113083 164.830835 
L 411.527562 165.175225 
L 414.35652 165.171681 
L 418.599957 165.674686 
L 420.014436 166.140558 
L 421.428915 165.795816 
L 422.843394 166.053148 
L 429.915789 168.170104 
L 431.330269 168.016479 
L 432.744748 167.621721 
L 433 167.671194 
L 433 167.671194 
" clip-path="url(#p4bf71b2312)" style="fill: none; stroke: #440154; stroke-width: 1.5; stroke-linecap: square"/>
   </g>
   <g id="line2d_17">
    <path d="M 63.565714 238.247509 
L 64.980193 237.155591 
L 66.394672 236.459231 
L 67.809151 237.157931 
L 69.223631 242.116364 
L 72.052589 237.254508 
L 73.467068 240.211266 
L 74.881547 240.836646 
L 76.296026 239.056985 
L 77.710505 241.077749 
L 79.124984 238.276631 
L 80.539463 240.063758 
L 81.953942 238.46931 
L 83.368421 241.69452 
L 84.7829 239.707195 
L 86.197379 239.490989 
L 87.611858 238.515856 
L 89.026337 239.206826 
L 90.440816 237.661647 
L 91.855295 229.664456 
L 93.269774 212.914269 
L 94.684253 185.917074 
L 96.098733 179.303164 
L 97.513212 178.722681 
L 98.927691 151.59166 
L 100.34217 133.733922 
L 101.756649 152.4158 
L 103.171128 180.404914 
L 104.585607 193.37429 
L 106.000086 191.292401 
L 107.414565 177.436124 
L 108.829044 166.171593 
L 110.243523 158.987265 
L 111.658002 155.742001 
L 113.072481 150.701885 
L 114.48696 144.591961 
L 115.901439 135.521602 
L 117.315918 135.619206 
L 118.730397 138.364289 
L 121.559356 103.607152 
L 122.973835 91.067222 
L 124.388314 85.835809 
L 125.802793 82.113636 
L 127.217272 72.9849 
L 128.631751 65.139157 
L 130.04623 63.785835 
L 131.460709 75.910046 
L 132.875188 85.265712 
L 134.289667 97.471211 
L 135.704146 105.997007 
L 138.533104 107.253623 
L 139.947583 108.526626 
L 141.362062 105.059373 
L 142.776541 104.176428 
L 144.19102 100.281032 
L 145.605499 99.233578 
L 147.019979 101.87114 
L 148.434458 103.121186 
L 149.848937 104.769842 
L 151.263416 102.502725 
L 152.677895 102.504567 
L 154.092374 100.285312 
L 155.506853 99.328312 
L 156.921332 97.041236 
L 159.75029 89.59787 
L 161.164769 86.421179 
L 162.579248 84.02912 
L 163.993727 82.805765 
L 165.408206 81.217653 
L 166.822685 80.586549 
L 168.237164 77.113611 
L 169.651643 79.168424 
L 171.066122 77.913692 
L 175.30956 81.097208 
L 176.724039 80.940952 
L 178.138518 79.672114 
L 179.552997 82.137874 
L 180.967476 83.796799 
L 182.381955 81.665354 
L 183.796434 84.111427 
L 185.210913 85.809556 
L 186.625392 85.596134 
L 188.039871 88.70281 
L 189.45435 86.91275 
L 190.868829 89.681885 
L 192.283308 89.08369 
L 193.697787 92.176815 
L 195.112266 90.520727 
L 196.526745 92.398524 
L 197.941224 93.477663 
L 199.355704 94.86997 
L 200.770183 97.093779 
L 202.184662 96.555377 
L 203.599141 99.055084 
L 205.01362 98.522113 
L 206.428099 100.959414 
L 207.842578 100.14761 
L 209.257057 101.63298 
L 210.671536 100.625336 
L 212.086015 101.009659 
L 213.500494 104.0907 
L 214.914973 101.31527 
L 216.329452 104.431641 
L 219.15841 105.415178 
L 220.572889 105.873484 
L 223.401847 107.724461 
L 226.230806 106.171373 
L 231.888722 106.074539 
L 233.303201 106.274084 
L 234.71768 108.738478 
L 236.132159 111.9282 
L 237.546638 113.037057 
L 241.790075 113.015819 
L 243.204554 114.180413 
L 244.619033 116.042887 
L 246.033512 117.107347 
L 251.691429 118.675338 
L 253.105908 118.708872 
L 254.520387 117.936875 
L 255.934866 117.307526 
L 260.178303 116.908182 
L 261.592782 117.400905 
L 263.007261 118.171127 
L 264.42174 120.744386 
L 265.836219 121.757513 
L 270.079656 120.937302 
L 271.494135 121.25173 
L 272.908614 124.314838 
L 274.323093 126.409883 
L 275.737573 126.721917 
L 278.566531 126.513525 
L 279.98101 126.794087 
L 281.395489 128.207216 
L 282.809968 129.413574 
L 287.053405 129.926816 
L 288.467884 130.108341 
L 289.882363 130.421271 
L 291.296842 131.484426 
L 292.711321 133.140725 
L 294.1258 134.231664 
L 298.369237 134.769192 
L 299.783716 135.989786 
L 301.198195 136.661702 
L 302.612675 138.911299 
L 304.027154 139.278352 
L 306.856112 138.254425 
L 308.270591 138.122533 
L 309.68507 139.644487 
L 311.099549 141.949478 
L 312.514028 142.742702 
L 318.171944 141.82672 
L 319.586423 144.034346 
L 321.000902 147.588162 
L 328.073298 145.399688 
L 329.487777 148.415908 
L 330.902256 150.673183 
L 332.316735 151.649882 
L 335.145693 151.913567 
L 336.560172 152.190829 
L 339.38913 154.901949 
L 342.218088 154.360611 
L 346.461525 153.370073 
L 347.876004 153.877707 
L 350.704962 155.540999 
L 354.9484 156.064018 
L 356.362879 156.907538 
L 357.777358 157.455132 
L 359.191837 158.243034 
L 360.606316 158.768508 
L 364.849753 158.36904 
L 366.264232 159.541669 
L 367.678711 160.084184 
L 369.09319 159.364043 
L 370.507669 159.354429 
L 373.336627 159.809031 
L 374.751106 160.363531 
L 376.165585 161.409686 
L 377.580064 160.878565 
L 378.994544 159.359299 
L 383.237981 159.452355 
L 384.65246 160.314835 
L 386.066939 161.724787 
L 387.481418 162.024417 
L 388.895897 162.031818 
L 393.139334 160.673136 
L 394.553813 161.188007 
L 395.968292 163.993561 
L 397.382771 165.172742 
L 403.040687 164.627782 
L 404.455166 164.637424 
L 407.284125 163.649504 
L 411.527562 165.33914 
L 414.35652 166.749234 
L 415.770999 167.187071 
L 418.599957 167.310992 
L 421.428915 167.535442 
L 424.257873 169.341116 
L 425.672352 169.324057 
L 428.50131 169.080015 
L 429.915789 168.998013 
L 431.330269 169.047359 
L 433 169.944408 
L 433 169.944408 
" clip-path="url(#p4bf71b2312)" style="fill: none; stroke: #414487; stroke-width: 1.5; stroke-linecap: square"/>
   </g>
   <g id="line2d_18">
    <path d="M 63.565714 239.168283 
L 64.980193 238.35213 
L 66.394672 239.243127 
L 67.809151 240.61741 
L 70.63811 239.493704 
L 72.052589 239.201459 
L 73.467068 240.200204 
L 74.881547 242.01324 
L 76.296026 236.436544 
L 77.710505 239.277726 
L 79.124984 238.692585 
L 80.539463 239.997567 
L 81.953942 236.315549 
L 83.368421 239.04631 
L 84.7829 238.212984 
L 86.197379 237.997038 
L 87.611858 239.171517 
L 89.026337 238.620777 
L 90.440816 237.503613 
L 91.855295 232.378202 
L 93.269774 220.566703 
L 94.684253 204.23515 
L 96.098733 200.215456 
L 97.513212 198.074542 
L 100.34217 169.278788 
L 103.171128 201.508322 
L 104.585607 208.131279 
L 106.000086 207.956058 
L 107.414565 198.832503 
L 108.829044 190.892246 
L 110.243523 189.901686 
L 111.658002 184.550675 
L 113.072481 180.180072 
L 114.48696 169.519917 
L 115.901439 156.377127 
L 117.315918 154.685014 
L 118.730397 152.294672 
L 120.144876 140.56429 
L 121.559356 124.750233 
L 122.973835 113.448666 
L 124.388314 109.795477 
L 125.802793 103.889198 
L 127.217272 98.654613 
L 128.631751 92.537504 
L 130.04623 93.833996 
L 131.460709 101.602242 
L 132.875188 107.18739 
L 134.289667 115.441568 
L 135.704146 117.447329 
L 137.118625 119.705879 
L 138.533104 119.868419 
L 139.947583 116.468976 
L 141.362062 115.673047 
L 142.776541 113.518662 
L 144.19102 110.275625 
L 145.605499 105.999454 
L 147.019979 107.27294 
L 148.434458 106.556726 
L 149.848937 105.652748 
L 151.263416 105.552797 
L 152.677895 103.501508 
L 154.092374 98.979911 
L 155.506853 99.585463 
L 156.921332 96.867836 
L 158.335811 95.676702 
L 159.75029 90.322128 
L 161.164769 88.757434 
L 162.579248 83.723584 
L 163.993727 82.394448 
L 165.408206 82.737829 
L 166.822685 79.353326 
L 168.237164 81.016381 
L 169.651643 79.046736 
L 171.066122 78.362159 
L 172.480602 78.101226 
L 173.895081 78.954092 
L 175.30956 79.628337 
L 176.724039 78.920948 
L 178.138518 79.72243 
L 180.967476 78.946164 
L 182.381955 80.683647 
L 183.796434 81.20248 
L 185.210913 83.054116 
L 186.625392 81.344649 
L 188.039871 82.106492 
L 189.45435 83.360993 
L 190.868829 83.992644 
L 192.283308 84.896778 
L 193.697787 85.068082 
L 195.112266 86.675041 
L 196.526745 84.939658 
L 197.941224 86.850949 
L 199.355704 86.159079 
L 200.770183 87.154131 
L 202.184662 89.926946 
L 203.599141 90.485323 
L 205.01362 89.604257 
L 206.428099 89.036109 
L 207.842578 89.559098 
L 209.257057 89.791349 
L 210.671536 92.246814 
L 212.086015 93.323397 
L 213.500494 91.89541 
L 214.914973 93.035003 
L 216.329452 91.757815 
L 217.743931 94.494534 
L 219.15841 95.247362 
L 220.572889 95.72219 
L 223.401847 96.144864 
L 224.816327 96.909536 
L 229.059764 97.475613 
L 230.474243 97.438166 
L 231.888722 96.672665 
L 233.303201 98.041346 
L 234.71768 99.143939 
L 238.961117 100.325457 
L 240.375596 101.046497 
L 243.204554 103.326154 
L 244.619033 104.502074 
L 247.447991 104.915294 
L 248.86247 105.092681 
L 250.27695 106.182495 
L 251.691429 107.431708 
L 253.105908 109.010527 
L 258.763824 107.980933 
L 260.178303 107.987488 
L 261.592782 109.165486 
L 263.007261 110.538031 
L 267.250698 110.988564 
L 268.665177 110.953736 
L 270.079656 110.758839 
L 272.908614 113.796351 
L 274.323093 114.272623 
L 277.152052 114.883112 
L 278.566531 116.304365 
L 279.98101 118.6267 
L 281.395489 120.531987 
L 282.809968 121.313857 
L 287.053405 121.223437 
L 288.467884 121.824729 
L 289.882363 125.195172 
L 291.296842 126.884505 
L 296.954758 127.635644 
L 298.369237 127.963 
L 299.783716 129.370522 
L 301.198195 131.033671 
L 302.612675 131.910098 
L 306.856112 133.807577 
L 308.270591 133.009526 
L 309.68507 133.063901 
L 312.514028 135.076436 
L 315.342986 136.952876 
L 316.757465 138.426805 
L 318.171944 140.260056 
L 319.586423 141.480016 
L 321.000902 142.18512 
L 325.244339 142.781209 
L 326.658818 143.654483 
L 328.073298 145.804404 
L 329.487777 147.222407 
L 330.902256 147.902806 
L 333.731214 148.572371 
L 336.560172 149.538281 
L 337.974651 150.618101 
L 339.38913 151.881802 
L 343.632567 153.364877 
L 345.047046 152.887148 
L 346.461525 152.543058 
L 347.876004 154.319174 
L 353.533921 154.535216 
L 357.777358 156.807651 
L 359.191837 157.251793 
L 362.020795 157.526966 
L 363.435274 157.859007 
L 364.849753 158.470058 
L 366.264232 159.295919 
L 367.678711 159.902767 
L 371.922148 160.311754 
L 374.751106 159.677902 
L 376.165585 160.287316 
L 378.994544 160.673482 
L 381.823502 160.983317 
L 383.237981 160.850015 
L 384.65246 160.93174 
L 386.066939 161.81835 
L 387.481418 162.354847 
L 391.724855 162.777092 
L 394.553813 163.509219 
L 395.968292 164.268543 
L 397.382771 164.460739 
L 401.626208 164.509073 
L 403.040687 164.731618 
L 404.455166 165.641913 
L 405.869646 165.739119 
L 410.113083 165.610475 
L 411.527562 165.78365 
L 412.942041 166.257036 
L 414.35652 166.925011 
L 415.770999 167.3498 
L 421.428915 167.41908 
L 422.843394 167.22662 
L 424.257873 167.865904 
L 425.672352 168.008321 
L 428.50131 167.762816 
L 429.915789 168.097672 
L 431.330269 168.992604 
L 433 170.296923 
L 433 170.296923 
" clip-path="url(#p4bf71b2312)" style="fill: none; stroke: #2a788e; stroke-width: 1.5; stroke-linecap: square"/>
   </g>
   <g id="line2d_19">
    <path d="M 63.565714 239.497447 
L 64.980193 239.642464 
L 67.809151 239.647715 
L 69.223631 239.282755 
L 70.63811 238.787789 
L 72.052589 238.432573 
L 73.467068 240.410734 
L 74.881547 239.358647 
L 76.296026 240.100988 
L 77.710505 238.749007 
L 79.124984 239.027781 
L 80.539463 239.606151 
L 81.953942 236.952225 
L 83.368421 239.233324 
L 84.7829 236.113452 
L 86.197379 236.654562 
L 87.611858 237.727585 
L 89.026337 239.43636 
L 91.855295 235.948153 
L 93.269774 231.150612 
L 94.684253 225.295301 
L 96.098733 221.051447 
L 97.513212 220.335353 
L 100.34217 205.421601 
L 101.756649 210.576992 
L 103.171128 219.121993 
L 104.585607 219.316762 
L 106.000086 220.835988 
L 107.414565 216.007863 
L 108.829044 215.760485 
L 111.658002 211.560055 
L 113.072481 206.337785 
L 114.48696 196.078651 
L 115.901439 177.279495 
L 117.315918 169.307481 
L 118.730397 166.120193 
L 120.144876 160.08385 
L 121.559356 143.421335 
L 122.973835 135.237144 
L 124.388314 126.154514 
L 125.802793 123.46726 
L 127.217272 119.015853 
L 128.631751 118.434215 
L 130.04623 117.483664 
L 131.460709 120.311216 
L 132.875188 125.574824 
L 134.289667 128.822746 
L 135.704146 131.513498 
L 137.118625 130.282111 
L 138.533104 130.448066 
L 139.947583 127.029973 
L 141.362062 125.420098 
L 142.776541 121.198363 
L 144.19102 118.343445 
L 145.605499 112.567782 
L 147.019979 109.678305 
L 148.434458 107.230149 
L 149.848937 105.950445 
L 151.263416 105.325064 
L 152.677895 102.079044 
L 154.092374 102.742284 
L 155.506853 99.609966 
L 156.921332 98.466915 
L 158.335811 95.21538 
L 159.75029 89.732212 
L 161.164769 88.261655 
L 162.579248 84.697318 
L 163.993727 83.504426 
L 166.822685 79.567861 
L 168.237164 78.461627 
L 169.651643 76.935926 
L 171.066122 78.333292 
L 172.480602 76.895727 
L 173.895081 76.299505 
L 175.30956 75.898666 
L 176.724039 77.377163 
L 178.138518 74.10815 
L 179.552997 75.370993 
L 180.967476 75.977299 
L 182.381955 77.389625 
L 183.796434 76.61018 
L 185.210913 75.55662 
L 188.039871 77.386144 
L 189.45435 78.349884 
L 190.868829 77.374157 
L 192.283308 78.072659 
L 193.697787 79.110978 
L 195.112266 79.050364 
L 196.526745 80.944502 
L 197.941224 79.510847 
L 199.355704 80.012725 
L 200.770183 78.157784 
L 202.184662 81.04533 
L 203.599141 80.87458 
L 205.01362 80.315061 
L 207.842578 81.363327 
L 210.671536 81.792335 
L 212.086015 82.529781 
L 213.500494 82.342026 
L 214.914973 81.164336 
L 216.329452 84.507021 
L 217.743931 83.897947 
L 220.572889 85.249477 
L 221.987368 85.889304 
L 223.401847 86.677532 
L 224.816327 86.398555 
L 227.645285 85.288496 
L 229.059764 85.887128 
L 231.888722 87.904936 
L 233.303201 88.92129 
L 234.71768 89.319124 
L 236.132159 86.903482 
L 237.546638 87.115963 
L 238.961117 87.482778 
L 240.375596 89.606107 
L 241.790075 90.689819 
L 243.204554 91.398381 
L 244.619033 93.699571 
L 246.033512 94.980808 
L 247.447991 94.860356 
L 248.86247 94.968612 
L 251.691429 95.846114 
L 255.934866 95.662668 
L 258.763824 96.723026 
L 260.178303 98.432189 
L 261.592782 98.862524 
L 263.007261 99.038651 
L 264.42174 98.758569 
L 265.836219 98.657796 
L 267.250698 99.105945 
L 270.079656 101.884749 
L 271.494135 102.549946 
L 274.323093 104.371043 
L 275.737573 104.779681 
L 277.152052 105.442868 
L 279.98101 108.533235 
L 281.395489 109.097886 
L 284.224447 111.115767 
L 285.638926 111.800921 
L 287.053405 112.948941 
L 288.467884 114.575856 
L 289.882363 115.778388 
L 291.296842 116.459727 
L 294.1258 118.279922 
L 295.540279 118.687741 
L 298.369237 121.732085 
L 299.783716 122.689318 
L 301.198195 123.112215 
L 302.612675 123.359285 
L 304.027154 123.759539 
L 305.441633 124.416936 
L 306.856112 125.570145 
L 309.68507 127.330417 
L 312.514028 130.681057 
L 315.342986 132.434507 
L 316.757465 133.679994 
L 318.171944 134.681681 
L 319.586423 135.395165 
L 322.415381 138.519016 
L 323.82986 138.949468 
L 325.244339 140.259091 
L 326.658818 141.767736 
L 330.902256 144.949024 
L 336.560172 147.681758 
L 337.974651 148.157216 
L 339.38913 147.597114 
L 340.803609 146.833439 
L 342.218088 147.139483 
L 343.632567 148.094066 
L 346.461525 150.565178 
L 347.876004 151.207575 
L 349.290483 151.303872 
L 350.704962 150.207994 
L 352.119441 150.84739 
L 356.362879 153.410363 
L 357.777358 154.049237 
L 360.606316 155.501094 
L 362.020795 155.821247 
L 364.849753 157.159602 
L 366.264232 157.451369 
L 369.09319 157.643168 
L 370.507669 157.931494 
L 371.922148 158.345492 
L 373.336627 159.130677 
L 374.751106 160.252916 
L 376.165585 160.448537 
L 378.994544 158.178599 
L 380.409023 158.469932 
L 381.823502 159.339909 
L 383.237981 160.466586 
L 384.65246 161.326842 
L 386.066939 161.363718 
L 387.481418 160.573835 
L 388.895897 159.993852 
L 390.310376 160.380429 
L 393.139334 162.058243 
L 394.553813 162.471072 
L 395.968292 163.022127 
L 397.382771 163.730395 
L 398.79725 164.112557 
L 400.211729 164.231512 
L 403.040687 165.345118 
L 405.869646 165.263369 
L 407.284125 165.67701 
L 408.698604 165.735268 
L 410.113083 166.039605 
L 411.527562 166.737845 
L 412.942041 167.238008 
L 414.35652 167.182651 
L 417.185478 166.357045 
L 418.599957 166.78549 
L 421.428915 168.111893 
L 422.843394 168.558463 
L 424.257873 168.345712 
L 425.672352 167.73122 
L 427.086831 167.385263 
L 428.50131 167.460607 
L 429.915789 167.731075 
L 431.330269 168.580146 
L 433 168.664911 
L 433 168.664911 
" clip-path="url(#p4bf71b2312)" style="fill: none; stroke: #22a884; stroke-width: 1.5; stroke-linecap: square"/>
   </g>
   <g id="line2d_20">
    <path d="M 63.565714 236.357818 
L 66.394672 239.127069 
L 67.809151 239.438821 
L 69.223631 238.316053 
L 72.052589 239.86994 
L 73.467068 239.682414 
L 76.296026 237.418935 
L 77.710505 238.481582 
L 79.124984 240.12759 
L 80.539463 238.508487 
L 81.953942 237.310065 
L 83.368421 239.997495 
L 84.7829 239.98764 
L 86.197379 240.391389 
L 87.611858 236.598421 
L 89.026337 238.460535 
L 90.440816 238.277955 
L 91.855295 238.242722 
L 93.269774 235.219658 
L 94.684253 233.965714 
L 96.098733 231.07048 
L 97.513212 229.062772 
L 98.927691 225.526051 
L 100.34217 222.805281 
L 101.756649 222.421284 
L 103.171128 226.501268 
L 104.585607 228.934964 
L 106.000086 230.260079 
L 107.414565 227.158687 
L 108.829044 225.382445 
L 110.243523 225.159963 
L 111.658002 221.060632 
L 113.072481 218.84636 
L 114.48696 206.758551 
L 115.901439 185.018016 
L 117.315918 175.834786 
L 120.144876 168.129766 
L 122.973835 141.04513 
L 124.388314 135.037688 
L 125.802793 130.969432 
L 127.217272 127.976268 
L 128.631751 128.212584 
L 130.04623 124.23676 
L 131.460709 129.353071 
L 132.875188 132.261742 
L 134.289667 134.887158 
L 135.704146 133.440207 
L 137.118625 133.352247 
L 138.533104 132.075312 
L 139.947583 131.505192 
L 141.362062 126.394648 
L 142.776541 122.882535 
L 144.19102 117.137897 
L 145.605499 114.835602 
L 147.019979 109.856431 
L 149.848937 103.445541 
L 151.263416 100.918167 
L 152.677895 102.105669 
L 154.092374 99.112827 
L 155.506853 97.371172 
L 156.921332 95.983064 
L 159.75029 89.067295 
L 161.164769 85.696741 
L 162.579248 83.144559 
L 163.993727 79.417488 
L 165.408206 77.54193 
L 166.822685 76.30258 
L 168.237164 75.553637 
L 169.651643 75.659079 
L 171.066122 75.251614 
L 172.480602 74.450247 
L 173.895081 71.922873 
L 175.30956 72.397779 
L 176.724039 70.106646 
L 178.138518 71.294632 
L 179.552997 71.456815 
L 180.967476 70.030977 
L 182.381955 70.98546 
L 183.796434 69.538385 
L 185.210913 71.765347 
L 186.625392 71.230934 
L 188.039871 72.196695 
L 189.45435 73.014787 
L 190.868829 70.458498 
L 192.283308 72.011983 
L 193.697787 71.462393 
L 195.112266 73.02018 
L 196.526745 71.57423 
L 197.941224 71.778051 
L 199.355704 72.330974 
L 200.770183 74.184719 
L 202.184662 72.869066 
L 203.599141 74.614109 
L 205.01362 72.908211 
L 206.428099 74.510362 
L 207.842578 73.645781 
L 209.257057 74.25899 
L 210.671536 75.152613 
L 212.086015 75.006114 
L 213.500494 76.257227 
L 214.914973 75.724664 
L 216.329452 76.847436 
L 217.743931 73.294666 
L 219.15841 74.089462 
L 221.987368 76.679398 
L 223.401847 77.688948 
L 224.816327 78.326645 
L 227.645285 79.003105 
L 230.474243 79.60742 
L 231.888722 79.874505 
L 234.71768 82.775647 
L 237.546638 84.410635 
L 240.375596 85.22104 
L 244.619033 86.27705 
L 246.033512 87.269573 
L 248.86247 88.188693 
L 250.27695 88.593877 
L 251.691429 88.758738 
L 253.105908 88.739671 
L 254.520387 89.149611 
L 255.934866 90.143716 
L 257.349345 90.982425 
L 260.178303 91.852908 
L 263.007261 93.04907 
L 264.42174 93.460231 
L 265.836219 94.444829 
L 268.665177 95.487961 
L 270.079656 96.145944 
L 272.908614 98.359544 
L 275.737573 99.824116 
L 278.566531 100.712337 
L 279.98101 101.480149 
L 282.809968 103.961685 
L 285.638926 106.713195 
L 288.467884 109.238799 
L 291.296842 110.506696 
L 292.711321 111.753364 
L 295.540279 114.737592 
L 298.369237 117.181323 
L 301.198195 118.874119 
L 302.612675 120.698314 
L 304.027154 122.187637 
L 306.856112 124.709234 
L 308.270591 125.27285 
L 309.68507 124.815646 
L 311.099549 126.310622 
L 313.928507 129.978137 
L 316.757465 133.077715 
L 318.171944 132.49369 
L 319.586423 132.076455 
L 325.244339 137.023608 
L 326.658818 138.145505 
L 332.316735 143.773245 
L 333.731214 144.756335 
L 335.145693 145.527323 
L 336.560172 145.944331 
L 337.974651 145.589273 
L 339.38913 146.457339 
L 340.803609 147.9251 
L 342.218088 148.827658 
L 345.047046 150.345247 
L 346.461525 149.579446 
L 347.876004 148.430702 
L 352.119441 151.323215 
L 354.9484 152.878361 
L 357.777358 153.270061 
L 360.606316 154.360265 
L 367.678711 156.313127 
L 370.507669 158.321551 
L 373.336627 159.672374 
L 374.751106 158.877119 
L 376.165585 158.294198 
L 377.580064 158.979769 
L 380.409023 160.863583 
L 383.237981 162.114378 
L 384.65246 161.300317 
L 386.066939 160.106284 
L 387.481418 160.257516 
L 388.895897 161.071081 
L 390.310376 161.732035 
L 393.139334 162.703624 
L 394.553813 162.952503 
L 395.968292 162.796367 
L 398.79725 163.966891 
L 401.626208 164.441581 
L 403.040687 164.443204 
L 404.455166 164.221094 
L 405.869646 164.727797 
L 408.698604 166.155212 
L 411.527562 166.876397 
L 412.942041 166.382689 
L 414.35652 165.492904 
L 415.770999 165.391739 
L 417.185478 165.865101 
L 421.428915 166.422858 
L 424.257873 166.069349 
L 429.915789 167.606064 
L 431.330269 167.975691 
L 433 168.634635 
L 433 168.634635 
" clip-path="url(#p4bf71b2312)" style="fill: none; stroke: #7ad151; stroke-width: 1.5; stroke-linecap: square"/>
   </g>
   <g id="patch_3">
    <path d="M 54 252 
L 54 34.56 
" style="fill: none; stroke: #000000; stroke-width: 0.8; stroke-linejoin: miter; stroke-linecap: square"/>
   </g>
   <g id="patch_4">
    <path d="M 388.8 252 
L 388.8 34.56 
" style="fill: none; stroke: #000000; stroke-width: 0.8; stroke-linejoin: miter; stroke-linecap: square"/>
   </g>
   <g id="patch_5">
    <path d="M 54 252 
L 388.8 252 
" style="fill: none; stroke: #000000; stroke-width: 0.8; stroke-linejoin: miter; stroke-linecap: square"/>
   </g>
   <g id="patch_6">
    <path d="M 54 34.56 
L 388.8 34.56 
" style="fill: none; stroke: #000000; stroke-width: 0.8; stroke-linejoin: miter; stroke-linecap: square"/>
   </g>
   <g id="text_18">
    <!-- Y12 Normalized NEXAFS -->
    <g transform="translate(148.610625 28.56)scale(0.12 -0.12)">
     <defs>
      <path id="DejaVuSans-59" d="M -13 4666 
L 666 4666 
L 1959 2747 
L 3244 4666 
L 3922 4666 
L 2272 2222 
L 2272 0 
L 1638 0 
L 1638 2222 
L -13 4666 
z
" transform="scale(0.015625)"/>
      <path id="DejaVuSans-4e" d="M 628 4666 
L 1478 4666 
L 3547 763 
L 3547 4666 
L 4159 4666 
L 4159 0 
L 3309 0 
L 1241 3903 
L 1241 0 
L 628 0 
L 628 4666 
z
" transform="scale(0.015625)"/>
      <path id="DejaVuSans-6d" d="M 3328 2828 
Q 3544 3216 3844 3400 
Q 4144 3584 4550 3584 
Q 5097 3584 5394 3201 
Q 5691 2819 5691 2113 
L 5691 0 
L 5113 0 
L 5113 2094 
Q 5113 2597 4934 2840 
Q 4756 3084 4391 3084 
Q 3944 3084 3684 2787 
Q 3425 2491 3425 1978 
L 3425 0 
L 2847 0 
L 2847 2094 
Q 2847 2600 2669 2842 
Q 2491 3084 2119 3084 
Q 1678 3084 1418 2786 
Q 1159 2488 1159 1978 
L 1159 0 
L 581 0 
L 581 3500 
L 1159 3500 
L 1159 2956 
Q 1356 3278 1631 3431 
Q 1906 3584 2284 3584 
Q 2666 3584 2933 3390 
Q 3200 3197 3328 2828 
z
" transform="scale(0.015625)"/>
      <path id="DejaVuSans-7a" d="M 353 3500 
L 3084 3500 
L 3084 2975 
L 922 459 
L 3084 459 
L 3084 0 
L 275 0 
L 275 525 
L 2438 3041 
L 353 3041 
L 353 3500 
z
" transform="scale(0.015625)"/>
      <path id="DejaVuSans-45" d="M 628 4666 
L 3578 4666 
L 3578 4134 
L 1259 4134 
L 1259 2753 
L 3481 2753 
L 3481 2222 
L 1259 2222 
L 1259 531 
L 3634 531 
L 3634 0 
L 628 0 
L 628 4666 
z
" transform="scale(0.015625)"/>
      <path id="DejaVuSans-58" d="M 403 4666 
L 1081 4666 
L 2241 2931 
L 3406 4666 
L 4084 4666 
L 2584 2425 
L 4184 0 
L 3506 0 
L 2194 1984 
L 872 0 
L 191 0 
L 1856 2491 
L 403 4666 
z
" transform="scale(0.015625)"/>
      <path id="DejaVuSans-41" d="M 2188 4044 
L 1331 1722 
L 3047 1722 
L 2188 4044 
z
M 1831 4666 
L 2547 4666 
L 4325 0 
L 3669 0 
L 3244 1197 
L 1141 1197 
L 716 0 
L 50 0 
L 1831 4666 
z
" transform="scale(0.015625)"/>
      <path id="DejaVuSans-46" d="M 628 4666 
L 3309 4666 
L 3309 4134 
L 1259 4134 
L 1259 2759 
L 3109 2759 
L 3109 2228 
L 1259 2228 
L 1259 0 
L 628 0 
L 628 4666 
z
" transform="scale(0.015625)"/>
      <path id="DejaVuSans-53" d="M 3425 4513 
L 3425 3897 
Q 3066 4069 2747 4153 
Q 2428 4238 2131 4238 
Q 1616 4238 1336 4038 
Q 1056 3838 1056 3469 
Q 1056 3159 1242 3001 
Q 1428 2844 1947 2747 
L 2328 2669 
Q 3034 2534 3370 2195 
Q 3706 1856 3706 1288 
Q 3706 609 3251 259 
Q 2797 -91 1919 -91 
Q 1588 -91 1214 -16 
Q 841 59 441 206 
L 441 856 
Q 825 641 1194 531 
Q 1563 422 1919 422 
Q 2459 422 2753 634 
Q 3047 847 3047 1241 
Q 3047 1584 2836 1778 
Q 2625 1972 2144 2069 
L 1759 2144 
Q 1053 2284 737 2584 
Q 422 2884 422 3419 
Q 422 4038 858 4394 
Q 1294 4750 2059 4750 
Q 2388 4750 2728 4690 
Q 3069 4631 3425 4513 
z
" transform="scale(0.015625)"/>
     </defs>
     <use xlink:href="#DejaVuSans-59"/>
     <use xlink:href="#DejaVuSans-31" x="61.083984"/>
     <use xlink:href="#DejaVuSans-32" x="124.707031"/>
     <use xlink:href="#DejaVuSans-20" x="188.330078"/>
     <use xlink:href="#DejaVuSans-4e" x="220.117188"/>
     <use xlink:href="#DejaVuSans-6f" x="294.921875"/>
     <use xlink:href="#DejaVuSans-72" x="356.103516"/>
     <use xlink:href="#DejaVuSans-6d" x="395.466797"/>
     <use xlink:href="#DejaVuSans-61" x="492.878906"/>
     <use xlink:href="#DejaVuSans-6c" x="554.158203"/>
     <use xlink:href="#DejaVuSans-69" x="581.941406"/>
     <use xlink:href="#DejaVuSans-7a" x="609.724609"/>
     <use xlink:href="#DejaVuSans-65" x="662.214844"/>
     <use xlink:href="#DejaVuSans-64" x="723.738281"/>
     <use xlink:href="#DejaVuSans-20" x="787.214844"/>
     <use xlink:href="#DejaVuSans-4e" x="819.001953"/>
     <use xlink:href="#DejaVuSans-45" x="893.806641"/>
     <use xlink:href="#DejaVuSans-58" x="956.990234"/>
     <use xlink:href="#DejaVuSans-41" x="1025.496094"/>
     <use xlink:href="#DejaVuSans-46" x="1093.904297"/>
     <use xlink:href="#DejaVuSans-53" x="1149.673828"/>
    </g>
   </g>
   <g id="legend_1">
    <g id="patch_7">
     <path d="M 332.075 115.950625 
L 381.8 115.950625 
Q 383.8 115.950625 383.8 113.950625 
L 383.8 41.56 
Q 383.8 39.56 381.8 39.56 
L 332.075 39.56 
Q 330.075 39.56 330.075 41.56 
L 330.075 113.950625 
Q 330.075 115.950625 332.075 115.950625 
z
" style="fill: #ffffff; opacity: 0.8; stroke: #cccccc; stroke-linejoin: miter"/>
    </g>
    <g id="line2d_21">
     <path d="M 334.075 47.658437 
L 344.075 47.658437 
L 354.075 47.658437 
" style="fill: none; stroke: #440154; stroke-width: 1.5; stroke-linecap: square"/>
    </g>
    <g id="text_19">
     <!-- 30 -->
     <g transform="translate(362.075 51.158437)scale(0.1 -0.1)">
      <defs>
       <path id="DejaVuSans-b0" d="M 1600 4347 
Q 1350 4347 1178 4173 
Q 1006 4000 1006 3750 
Q 1006 3503 1178 3333 
Q 1350 3163 1600 3163 
Q 1850 3163 2022 3333 
Q 2194 3503 2194 3750 
Q 2194 3997 2020 4172 
Q 1847 4347 1600 4347 
z
M 1600 4750 
Q 1800 4750 1984 4673 
Q 2169 4597 2303 4453 
Q 2447 4313 2519 4134 
Q 2591 3956 2591 3750 
Q 2591 3338 2302 3052 
Q 2013 2766 1594 2766 
Q 1172 2766 890 3047 
Q 609 3328 609 3750 
Q 609 4169 896 4459 
Q 1184 4750 1600 4750 
z
" transform="scale(0.015625)"/>
      </defs>
      <use xlink:href="#DejaVuSans-33"/>
      <use xlink:href="#DejaVuSans-30" x="63.623047"/>
      <use xlink:href="#DejaVuSans-b0" x="127.246094"/>
     </g>
    </g>
    <g id="line2d_22">
     <path d="M 334.075 62.336562 
L 344.075 62.336562 
L 354.075 62.336562 
" style="fill: none; stroke: #414487; stroke-width: 1.5; stroke-linecap: square"/>
    </g>
    <g id="text_20">
     <!-- 40 -->
     <g transform="translate(362.075 65.836562)scale(0.1 -0.1)">
      <defs>
       <path id="DejaVuSans-34" d="M 2419 4116 
L 825 1625 
L 2419 1625 
L 2419 4116 
z
M 2253 4666 
L 3047 4666 
L 3047 1625 
L 3713 1625 
L 3713 1100 
L 3047 1100 
L 3047 0 
L 2419 0 
L 2419 1100 
L 313 1100 
L 313 1709 
L 2253 4666 
z
" transform="scale(0.015625)"/>
      </defs>
      <use xlink:href="#DejaVuSans-34"/>
      <use xlink:href="#DejaVuSans-30" x="63.623047"/>
      <use xlink:href="#DejaVuSans-b0" x="127.246094"/>
     </g>
    </g>
    <g id="line2d_23">
     <path d="M 334.075 77.014687 
L 344.075 77.014687 
L 354.075 77.014687 
" style="fill: none; stroke: #2a788e; stroke-width: 1.5; stroke-linecap: square"/>
    </g>
    <g id="text_21">
     <!-- 55 -->
     <g transform="translate(362.075 80.514687)scale(0.1 -0.1)">
      <use xlink:href="#DejaVuSans-35"/>
      <use xlink:href="#DejaVuSans-35" x="63.623047"/>
      <use xlink:href="#DejaVuSans-b0" x="127.246094"/>
     </g>
    </g>
    <g id="line2d_24">
     <path d="M 334.075 91.692813 
L 344.075 91.692813 
L 354.075 91.692813 
" style="fill: none; stroke: #22a884; stroke-width: 1.5; stroke-linecap: square"/>
    </g>
    <g id="text_22">
     <!-- 70 -->
     <g transform="translate(362.075 95.192813)scale(0.1 -0.1)">
      <defs>
       <path id="DejaVuSans-37" d="M 525 4666 
L 3525 4666 
L 3525 4397 
L 1831 0 
L 1172 0 
L 2766 4134 
L 525 4134 
L 525 4666 
z
" transform="scale(0.015625)"/>
      </defs>
      <use xlink:href="#DejaVuSans-37"/>
      <use xlink:href="#DejaVuSans-30" x="63.623047"/>
      <use xlink:href="#DejaVuSans-b0" x="127.246094"/>
     </g>
    </g>
    <g id="line2d_25">
     <path d="M 334.075 106.370937 
L 344.075 106.370937 
L 354.075 106.370937 
" style="fill: none; stroke: #7ad151; stroke-width: 1.5; stroke-linecap: square"/>
    </g>
    <g id="text_23">
     <!-- 90 -->
     <g transform="translate(362.075 109.870937)scale(0.1 -0.1)">
      <use xlink:href="#DejaVuSans-39"/>
      <use xlink:href="#DejaVuSans-30" x="63.623047"/>
      <use xlink:href="#DejaVuSans-b0" x="127.246094"/>
     </g>
    </g>
   </g>
  </g>
 </g>
 <defs>
  <clipPath id="p4bf71b2312">
   <rect x="54" y="34.56" width="334.8" height="217.44"/>
  </clipPath>
 </defs>
</svg>
