<?xml version="1.0" encoding="utf-8" standalone="no"?>
<!DOCTYPE svg PUBLIC "-//W3C//DTD SVG 1.1//EN"
  "http://www.w3.org/Graphics/SVG/1.1/DTD/svg11.dtd">
<svg xmlns:xlink="http://www.w3.org/1999/xlink" width="432pt" height="288pt" viewBox="0 0 432 288" xmlns="http://www.w3.org/2000/svg" version="1.1">
 <metadata>
  <rdf:RDF xmlns:dc="http://purl.org/dc/elements/1.1/" xmlns:cc="http://creativecommons.org/ns#" xmlns:rdf="http://www.w3.org/1999/02/22-rdf-syntax-ns#">
   <cc:Work>
    <dc:type rdf:resource="http://purl.org/dc/dcmitype/StillImage"/>
    <dc:date>2022-12-02T15:00:02.731898</dc:date>
    <dc:format>image/svg+xml</dc:format>
    <dc:creator>
     <cc:Agent>
      <dc:title>Matplotlib v3.5.1, https://matplotlib.org/</dc:title>
     </cc:Agent>
    </dc:creator>
   </cc:Work>
  </rdf:RDF>
 </metadata>
 <defs>
  <style type="text/css">*{stroke-linejoin: round; stroke-linecap: butt}</style>
 </defs>
 <g id="figure_1">
  <g id="patch_1">
   <path d="M 0 288 
L 432 288 
L 432 0 
L 0 0 
L 0 288 
z
" style="fill: none"/>
  </g>
  <g id="axes_1">
   <g id="patch_2">
    <path d="M 54 252 
L 388.8 252 
L 388.8 34.56 
L 54 34.56 
z
" style="fill: #ffffff"/>
   </g>
   <g id="matplotlib.axis_1">
    <g id="xtick_1">
     <g id="line2d_1">
      <defs>
       <path id="mfa30e09356" d="M 0 0 
L 0 3.5 
" style="stroke: #000000; stroke-width: 0.8"/>
      </defs>
      <g>
       <use xlink:href="#mfa30e09356" x="54" y="252" style="stroke: #000000; stroke-width: 0.8"/>
      </g>
     </g>
     <g id="text_1">
      <!-- 280 -->
      <g transform="translate(44.45625 266.598437)scale(0.1 -0.1)">
       <defs>
        <path id="DejaVuSans-32" d="M 1228 531 
L 3431 531 
L 3431 0 
L 469 0 
L 469 531 
Q 828 903 1448 1529 
Q 2069 2156 2228 2338 
Q 2531 2678 2651 2914 
Q 2772 3150 2772 3378 
Q 2772 3750 2511 3984 
Q 2250 4219 1831 4219 
Q 1534 4219 1204 4116 
Q 875 4013 500 3803 
L 500 4441 
Q 881 4594 1212 4672 
Q 1544 4750 1819 4750 
Q 2544 4750 2975 4387 
Q 3406 4025 3406 3419 
Q 3406 3131 3298 2873 
Q 3191 2616 2906 2266 
Q 2828 2175 2409 1742 
Q 1991 1309 1228 531 
z
" transform="scale(0.015625)"/>
        <path id="DejaVuSans-38" d="M 2034 2216 
Q 1584 2216 1326 1975 
Q 1069 1734 1069 1313 
Q 1069 891 1326 650 
Q 1584 409 2034 409 
Q 2484 409 2743 651 
Q 3003 894 3003 1313 
Q 3003 1734 2745 1975 
Q 2488 2216 2034 2216 
z
M 1403 2484 
Q 997 2584 770 2862 
Q 544 3141 544 3541 
Q 544 4100 942 4425 
Q 1341 4750 2034 4750 
Q 2731 4750 3128 4425 
Q 3525 4100 3525 3541 
Q 3525 3141 3298 2862 
Q 3072 2584 2669 2484 
Q 3125 2378 3379 2068 
Q 3634 1759 3634 1313 
Q 3634 634 3220 271 
Q 2806 -91 2034 -91 
Q 1263 -91 848 271 
Q 434 634 434 1313 
Q 434 1759 690 2068 
Q 947 2378 1403 2484 
z
M 1172 3481 
Q 1172 3119 1398 2916 
Q 1625 2713 2034 2713 
Q 2441 2713 2670 2916 
Q 2900 3119 2900 3481 
Q 2900 3844 2670 4047 
Q 2441 4250 2034 4250 
Q 1625 4250 1398 4047 
Q 1172 3844 1172 3481 
z
" transform="scale(0.015625)"/>
        <path id="DejaVuSans-30" d="M 2034 4250 
Q 1547 4250 1301 3770 
Q 1056 3291 1056 2328 
Q 1056 1369 1301 889 
Q 1547 409 2034 409 
Q 2525 409 2770 889 
Q 3016 1369 3016 2328 
Q 3016 3291 2770 3770 
Q 2525 4250 2034 4250 
z
M 2034 4750 
Q 2819 4750 3233 4129 
Q 3647 3509 3647 2328 
Q 3647 1150 3233 529 
Q 2819 -91 2034 -91 
Q 1250 -91 836 529 
Q 422 1150 422 2328 
Q 422 3509 836 4129 
Q 1250 4750 2034 4750 
z
" transform="scale(0.015625)"/>
       </defs>
       <use xlink:href="#DejaVuSans-32"/>
       <use xlink:href="#DejaVuSans-38" x="63.623047"/>
       <use xlink:href="#DejaVuSans-30" x="127.246094"/>
      </g>
     </g>
    </g>
    <g id="xtick_2">
     <g id="line2d_2">
      <g>
       <use xlink:href="#mfa30e09356" x="101.828571" y="252" style="stroke: #000000; stroke-width: 0.8"/>
      </g>
     </g>
     <g id="text_2">
      <!-- 285 -->
      <g transform="translate(92.284821 266.598437)scale(0.1 -0.1)">
       <defs>
        <path id="DejaVuSans-35" d="M 691 4666 
L 3169 4666 
L 3169 4134 
L 1269 4134 
L 1269 2991 
Q 1406 3038 1543 3061 
Q 1681 3084 1819 3084 
Q 2600 3084 3056 2656 
Q 3513 2228 3513 1497 
Q 3513 744 3044 326 
Q 2575 -91 1722 -91 
Q 1428 -91 1123 -41 
Q 819 9 494 109 
L 494 744 
Q 775 591 1075 516 
Q 1375 441 1709 441 
Q 2250 441 2565 725 
Q 2881 1009 2881 1497 
Q 2881 1984 2565 2268 
Q 2250 2553 1709 2553 
Q 1456 2553 1204 2497 
Q 953 2441 691 2322 
L 691 4666 
z
" transform="scale(0.015625)"/>
       </defs>
       <use xlink:href="#DejaVuSans-32"/>
       <use xlink:href="#DejaVuSans-38" x="63.623047"/>
       <use xlink:href="#DejaVuSans-35" x="127.246094"/>
      </g>
     </g>
    </g>
    <g id="xtick_3">
     <g id="line2d_3">
      <g>
       <use xlink:href="#mfa30e09356" x="149.657143" y="252" style="stroke: #000000; stroke-width: 0.8"/>
      </g>
     </g>
     <g id="text_3">
      <!-- 290 -->
      <g transform="translate(140.113393 266.598437)scale(0.1 -0.1)">
       <defs>
        <path id="DejaVuSans-39" d="M 703 97 
L 703 672 
Q 941 559 1184 500 
Q 1428 441 1663 441 
Q 2288 441 2617 861 
Q 2947 1281 2994 2138 
Q 2813 1869 2534 1725 
Q 2256 1581 1919 1581 
Q 1219 1581 811 2004 
Q 403 2428 403 3163 
Q 403 3881 828 4315 
Q 1253 4750 1959 4750 
Q 2769 4750 3195 4129 
Q 3622 3509 3622 2328 
Q 3622 1225 3098 567 
Q 2575 -91 1691 -91 
Q 1453 -91 1209 -44 
Q 966 3 703 97 
z
M 1959 2075 
Q 2384 2075 2632 2365 
Q 2881 2656 2881 3163 
Q 2881 3666 2632 3958 
Q 2384 4250 1959 4250 
Q 1534 4250 1286 3958 
Q 1038 3666 1038 3163 
Q 1038 2656 1286 2365 
Q 1534 2075 1959 2075 
z
" transform="scale(0.015625)"/>
       </defs>
       <use xlink:href="#DejaVuSans-32"/>
       <use xlink:href="#DejaVuSans-39" x="63.623047"/>
       <use xlink:href="#DejaVuSans-30" x="127.246094"/>
      </g>
     </g>
    </g>
    <g id="xtick_4">
     <g id="line2d_4">
      <g>
       <use xlink:href="#mfa30e09356" x="197.485714" y="252" style="stroke: #000000; stroke-width: 0.8"/>
      </g>
     </g>
     <g id="text_4">
      <!-- 295 -->
      <g transform="translate(187.941964 266.598437)scale(0.1 -0.1)">
       <use xlink:href="#DejaVuSans-32"/>
       <use xlink:href="#DejaVuSans-39" x="63.623047"/>
       <use xlink:href="#DejaVuSans-35" x="127.246094"/>
      </g>
     </g>
    </g>
    <g id="xtick_5">
     <g id="line2d_5">
      <g>
       <use xlink:href="#mfa30e09356" x="245.314286" y="252" style="stroke: #000000; stroke-width: 0.8"/>
      </g>
     </g>
     <g id="text_5">
      <!-- 300 -->
      <g transform="translate(235.770536 266.598437)scale(0.1 -0.1)">
       <defs>
        <path id="DejaVuSans-33" d="M 2597 2516 
Q 3050 2419 3304 2112 
Q 3559 1806 3559 1356 
Q 3559 666 3084 287 
Q 2609 -91 1734 -91 
Q 1441 -91 1130 -33 
Q 819 25 488 141 
L 488 750 
Q 750 597 1062 519 
Q 1375 441 1716 441 
Q 2309 441 2620 675 
Q 2931 909 2931 1356 
Q 2931 1769 2642 2001 
Q 2353 2234 1838 2234 
L 1294 2234 
L 1294 2753 
L 1863 2753 
Q 2328 2753 2575 2939 
Q 2822 3125 2822 3475 
Q 2822 3834 2567 4026 
Q 2313 4219 1838 4219 
Q 1578 4219 1281 4162 
Q 984 4106 628 3988 
L 628 4550 
Q 988 4650 1302 4700 
Q 1616 4750 1894 4750 
Q 2613 4750 3031 4423 
Q 3450 4097 3450 3541 
Q 3450 3153 3228 2886 
Q 3006 2619 2597 2516 
z
" transform="scale(0.015625)"/>
       </defs>
       <use xlink:href="#DejaVuSans-33"/>
       <use xlink:href="#DejaVuSans-30" x="63.623047"/>
       <use xlink:href="#DejaVuSans-30" x="127.246094"/>
      </g>
     </g>
    </g>
    <g id="xtick_6">
     <g id="line2d_6">
      <g>
       <use xlink:href="#mfa30e09356" x="293.142857" y="252" style="stroke: #000000; stroke-width: 0.8"/>
      </g>
     </g>
     <g id="text_6">
      <!-- 305 -->
      <g transform="translate(283.599107 266.598437)scale(0.1 -0.1)">
       <use xlink:href="#DejaVuSans-33"/>
       <use xlink:href="#DejaVuSans-30" x="63.623047"/>
       <use xlink:href="#DejaVuSans-35" x="127.246094"/>
      </g>
     </g>
    </g>
    <g id="xtick_7">
     <g id="line2d_7">
      <g>
       <use xlink:href="#mfa30e09356" x="340.971429" y="252" style="stroke: #000000; stroke-width: 0.8"/>
      </g>
     </g>
     <g id="text_7">
      <!-- 310 -->
      <g transform="translate(331.427679 266.598437)scale(0.1 -0.1)">
       <defs>
        <path id="DejaVuSans-31" d="M 794 531 
L 1825 531 
L 1825 4091 
L 703 3866 
L 703 4441 
L 1819 4666 
L 2450 4666 
L 2450 531 
L 3481 531 
L 3481 0 
L 794 0 
L 794 531 
z
" transform="scale(0.015625)"/>
       </defs>
       <use xlink:href="#DejaVuSans-33"/>
       <use xlink:href="#DejaVuSans-31" x="63.623047"/>
       <use xlink:href="#DejaVuSans-30" x="127.246094"/>
      </g>
     </g>
    </g>
    <g id="xtick_8">
     <g id="line2d_8">
      <g>
       <use xlink:href="#mfa30e09356" x="388.8" y="252" style="stroke: #000000; stroke-width: 0.8"/>
      </g>
     </g>
     <g id="text_8">
      <!-- 315 -->
      <g transform="translate(379.25625 266.598437)scale(0.1 -0.1)">
       <use xlink:href="#DejaVuSans-33"/>
       <use xlink:href="#DejaVuSans-31" x="63.623047"/>
       <use xlink:href="#DejaVuSans-35" x="127.246094"/>
      </g>
     </g>
    </g>
    <g id="text_9">
     <!-- energy [eV] -->
     <g transform="translate(191.989062 280.276563)scale(0.1 -0.1)">
      <defs>
       <path id="DejaVuSans-65" d="M 3597 1894 
L 3597 1613 
L 953 1613 
Q 991 1019 1311 708 
Q 1631 397 2203 397 
Q 2534 397 2845 478 
Q 3156 559 3463 722 
L 3463 178 
Q 3153 47 2828 -22 
Q 2503 -91 2169 -91 
Q 1331 -91 842 396 
Q 353 884 353 1716 
Q 353 2575 817 3079 
Q 1281 3584 2069 3584 
Q 2775 3584 3186 3129 
Q 3597 2675 3597 1894 
z
M 3022 2063 
Q 3016 2534 2758 2815 
Q 2500 3097 2075 3097 
Q 1594 3097 1305 2825 
Q 1016 2553 972 2059 
L 3022 2063 
z
" transform="scale(0.015625)"/>
       <path id="DejaVuSans-6e" d="M 3513 2113 
L 3513 0 
L 2938 0 
L 2938 2094 
Q 2938 2591 2744 2837 
Q 2550 3084 2163 3084 
Q 1697 3084 1428 2787 
Q 1159 2491 1159 1978 
L 1159 0 
L 581 0 
L 581 3500 
L 1159 3500 
L 1159 2956 
Q 1366 3272 1645 3428 
Q 1925 3584 2291 3584 
Q 2894 3584 3203 3211 
Q 3513 2838 3513 2113 
z
" transform="scale(0.015625)"/>
       <path id="DejaVuSans-72" d="M 2631 2963 
Q 2534 3019 2420 3045 
Q 2306 3072 2169 3072 
Q 1681 3072 1420 2755 
Q 1159 2438 1159 1844 
L 1159 0 
L 581 0 
L 581 3500 
L 1159 3500 
L 1159 2956 
Q 1341 3275 1631 3429 
Q 1922 3584 2338 3584 
Q 2397 3584 2469 3576 
Q 2541 3569 2628 3553 
L 2631 2963 
z
" transform="scale(0.015625)"/>
       <path id="DejaVuSans-67" d="M 2906 1791 
Q 2906 2416 2648 2759 
Q 2391 3103 1925 3103 
Q 1463 3103 1205 2759 
Q 947 2416 947 1791 
Q 947 1169 1205 825 
Q 1463 481 1925 481 
Q 2391 481 2648 825 
Q 2906 1169 2906 1791 
z
M 3481 434 
Q 3481 -459 3084 -895 
Q 2688 -1331 1869 -1331 
Q 1566 -1331 1297 -1286 
Q 1028 -1241 775 -1147 
L 775 -588 
Q 1028 -725 1275 -790 
Q 1522 -856 1778 -856 
Q 2344 -856 2625 -561 
Q 2906 -266 2906 331 
L 2906 616 
Q 2728 306 2450 153 
Q 2172 0 1784 0 
Q 1141 0 747 490 
Q 353 981 353 1791 
Q 353 2603 747 3093 
Q 1141 3584 1784 3584 
Q 2172 3584 2450 3431 
Q 2728 3278 2906 2969 
L 2906 3500 
L 3481 3500 
L 3481 434 
z
" transform="scale(0.015625)"/>
       <path id="DejaVuSans-79" d="M 2059 -325 
Q 1816 -950 1584 -1140 
Q 1353 -1331 966 -1331 
L 506 -1331 
L 506 -850 
L 844 -850 
Q 1081 -850 1212 -737 
Q 1344 -625 1503 -206 
L 1606 56 
L 191 3500 
L 800 3500 
L 1894 763 
L 2988 3500 
L 3597 3500 
L 2059 -325 
z
" transform="scale(0.015625)"/>
       <path id="DejaVuSans-20" transform="scale(0.015625)"/>
       <path id="DejaVuSans-5b" d="M 550 4863 
L 1875 4863 
L 1875 4416 
L 1125 4416 
L 1125 -397 
L 1875 -397 
L 1875 -844 
L 550 -844 
L 550 4863 
z
" transform="scale(0.015625)"/>
       <path id="DejaVuSans-56" d="M 1831 0 
L 50 4666 
L 709 4666 
L 2188 738 
L 3669 4666 
L 4325 4666 
L 2547 0 
L 1831 0 
z
" transform="scale(0.015625)"/>
       <path id="DejaVuSans-5d" d="M 1947 4863 
L 1947 -844 
L 622 -844 
L 622 -397 
L 1369 -397 
L 1369 4416 
L 622 4416 
L 622 4863 
L 1947 4863 
z
" transform="scale(0.015625)"/>
      </defs>
      <use xlink:href="#DejaVuSans-65"/>
      <use xlink:href="#DejaVuSans-6e" x="61.523438"/>
      <use xlink:href="#DejaVuSans-65" x="124.902344"/>
      <use xlink:href="#DejaVuSans-72" x="186.425781"/>
      <use xlink:href="#DejaVuSans-67" x="225.789062"/>
      <use xlink:href="#DejaVuSans-79" x="289.265625"/>
      <use xlink:href="#DejaVuSans-20" x="348.445312"/>
      <use xlink:href="#DejaVuSans-5b" x="380.232422"/>
      <use xlink:href="#DejaVuSans-65" x="419.246094"/>
      <use xlink:href="#DejaVuSans-56" x="480.769531"/>
      <use xlink:href="#DejaVuSans-5d" x="549.177734"/>
     </g>
    </g>
   </g>
   <g id="matplotlib.axis_2">
    <g id="ytick_1">
     <g id="line2d_9">
      <defs>
       <path id="m5465600824" d="M 0 0 
L -3.5 0 
" style="stroke: #000000; stroke-width: 0.8"/>
      </defs>
      <g>
       <use xlink:href="#m5465600824" x="54" y="237.354249" style="stroke: #000000; stroke-width: 0.8"/>
      </g>
     </g>
     <g id="text_10">
      <!-- 0.0 -->
      <g transform="translate(31.096875 241.153467)scale(0.1 -0.1)">
       <defs>
        <path id="DejaVuSans-2e" d="M 684 794 
L 1344 794 
L 1344 0 
L 684 0 
L 684 794 
z
" transform="scale(0.015625)"/>
       </defs>
       <use xlink:href="#DejaVuSans-30"/>
       <use xlink:href="#DejaVuSans-2e" x="63.623047"/>
       <use xlink:href="#DejaVuSans-30" x="95.410156"/>
      </g>
     </g>
    </g>
    <g id="ytick_2">
     <g id="line2d_10">
      <g>
       <use xlink:href="#m5465600824" x="54" y="205.674544" style="stroke: #000000; stroke-width: 0.8"/>
      </g>
     </g>
     <g id="text_11">
      <!-- 0.5 -->
      <g transform="translate(31.096875 209.473762)scale(0.1 -0.1)">
       <use xlink:href="#DejaVuSans-30"/>
       <use xlink:href="#DejaVuSans-2e" x="63.623047"/>
       <use xlink:href="#DejaVuSans-35" x="95.410156"/>
      </g>
     </g>
    </g>
    <g id="ytick_3">
     <g id="line2d_11">
      <g>
       <use xlink:href="#m5465600824" x="54" y="173.994838" style="stroke: #000000; stroke-width: 0.8"/>
      </g>
     </g>
     <g id="text_12">
      <!-- 1.0 -->
      <g transform="translate(31.096875 177.794057)scale(0.1 -0.1)">
       <use xlink:href="#DejaVuSans-31"/>
       <use xlink:href="#DejaVuSans-2e" x="63.623047"/>
       <use xlink:href="#DejaVuSans-30" x="95.410156"/>
      </g>
     </g>
    </g>
    <g id="ytick_4">
     <g id="line2d_12">
      <g>
       <use xlink:href="#m5465600824" x="54" y="142.315133" style="stroke: #000000; stroke-width: 0.8"/>
      </g>
     </g>
     <g id="text_13">
      <!-- 1.5 -->
      <g transform="translate(31.096875 146.114352)scale(0.1 -0.1)">
       <use xlink:href="#DejaVuSans-31"/>
       <use xlink:href="#DejaVuSans-2e" x="63.623047"/>
       <use xlink:href="#DejaVuSans-35" x="95.410156"/>
      </g>
     </g>
    </g>
    <g id="ytick_5">
     <g id="line2d_13">
      <g>
       <use xlink:href="#m5465600824" x="54" y="110.635428" style="stroke: #000000; stroke-width: 0.8"/>
      </g>
     </g>
     <g id="text_14">
      <!-- 2.0 -->
      <g transform="translate(31.096875 114.434647)scale(0.1 -0.1)">
       <use xlink:href="#DejaVuSans-32"/>
       <use xlink:href="#DejaVuSans-2e" x="63.623047"/>
       <use xlink:href="#DejaVuSans-30" x="95.410156"/>
      </g>
     </g>
    </g>
    <g id="ytick_6">
     <g id="line2d_14">
      <g>
       <use xlink:href="#m5465600824" x="54" y="78.955723" style="stroke: #000000; stroke-width: 0.8"/>
      </g>
     </g>
     <g id="text_15">
      <!-- 2.5 -->
      <g transform="translate(31.096875 82.754942)scale(0.1 -0.1)">
       <use xlink:href="#DejaVuSans-32"/>
       <use xlink:href="#DejaVuSans-2e" x="63.623047"/>
       <use xlink:href="#DejaVuSans-35" x="95.410156"/>
      </g>
     </g>
    </g>
    <g id="ytick_7">
     <g id="line2d_15">
      <g>
       <use xlink:href="#m5465600824" x="54" y="47.276018" style="stroke: #000000; stroke-width: 0.8"/>
      </g>
     </g>
     <g id="text_16">
      <!-- 3.0 -->
      <g transform="translate(31.096875 51.075237)scale(0.1 -0.1)">
       <use xlink:href="#DejaVuSans-33"/>
       <use xlink:href="#DejaVuSans-2e" x="63.623047"/>
       <use xlink:href="#DejaVuSans-30" x="95.410156"/>
      </g>
     </g>
    </g>
    <g id="text_17">
     <!-- electron_yield [a.u.] -->
     <g transform="translate(24.739062 193.0925)rotate(-90)scale(0.1 -0.1)">
      <defs>
       <path id="DejaVuSans-6c" d="M 603 4863 
L 1178 4863 
L 1178 0 
L 603 0 
L 603 4863 
z
" transform="scale(0.015625)"/>
       <path id="DejaVuSans-63" d="M 3122 3366 
L 3122 2828 
Q 2878 2963 2633 3030 
Q 2388 3097 2138 3097 
Q 1578 3097 1268 2742 
Q 959 2388 959 1747 
Q 959 1106 1268 751 
Q 1578 397 2138 397 
Q 2388 397 2633 464 
Q 2878 531 3122 666 
L 3122 134 
Q 2881 22 2623 -34 
Q 2366 -91 2075 -91 
Q 1284 -91 818 406 
Q 353 903 353 1747 
Q 353 2603 823 3093 
Q 1294 3584 2113 3584 
Q 2378 3584 2631 3529 
Q 2884 3475 3122 3366 
z
" transform="scale(0.015625)"/>
       <path id="DejaVuSans-74" d="M 1172 4494 
L 1172 3500 
L 2356 3500 
L 2356 3053 
L 1172 3053 
L 1172 1153 
Q 1172 725 1289 603 
Q 1406 481 1766 481 
L 2356 481 
L 2356 0 
L 1766 0 
Q 1100 0 847 248 
Q 594 497 594 1153 
L 594 3053 
L 172 3053 
L 172 3500 
L 594 3500 
L 594 4494 
L 1172 4494 
z
" transform="scale(0.015625)"/>
       <path id="DejaVuSans-6f" d="M 1959 3097 
Q 1497 3097 1228 2736 
Q 959 2375 959 1747 
Q 959 1119 1226 758 
Q 1494 397 1959 397 
Q 2419 397 2687 759 
Q 2956 1122 2956 1747 
Q 2956 2369 2687 2733 
Q 2419 3097 1959 3097 
z
M 1959 3584 
Q 2709 3584 3137 3096 
Q 3566 2609 3566 1747 
Q 3566 888 3137 398 
Q 2709 -91 1959 -91 
Q 1206 -91 779 398 
Q 353 888 353 1747 
Q 353 2609 779 3096 
Q 1206 3584 1959 3584 
z
" transform="scale(0.015625)"/>
       <path id="DejaVuSans-5f" d="M 3263 -1063 
L 3263 -1509 
L -63 -1509 
L -63 -1063 
L 3263 -1063 
z
" transform="scale(0.015625)"/>
       <path id="DejaVuSans-69" d="M 603 3500 
L 1178 3500 
L 1178 0 
L 603 0 
L 603 3500 
z
M 603 4863 
L 1178 4863 
L 1178 4134 
L 603 4134 
L 603 4863 
z
" transform="scale(0.015625)"/>
       <path id="DejaVuSans-64" d="M 2906 2969 
L 2906 4863 
L 3481 4863 
L 3481 0 
L 2906 0 
L 2906 525 
Q 2725 213 2448 61 
Q 2172 -91 1784 -91 
Q 1150 -91 751 415 
Q 353 922 353 1747 
Q 353 2572 751 3078 
Q 1150 3584 1784 3584 
Q 2172 3584 2448 3432 
Q 2725 3281 2906 2969 
z
M 947 1747 
Q 947 1113 1208 752 
Q 1469 391 1925 391 
Q 2381 391 2643 752 
Q 2906 1113 2906 1747 
Q 2906 2381 2643 2742 
Q 2381 3103 1925 3103 
Q 1469 3103 1208 2742 
Q 947 2381 947 1747 
z
" transform="scale(0.015625)"/>
       <path id="DejaVuSans-61" d="M 2194 1759 
Q 1497 1759 1228 1600 
Q 959 1441 959 1056 
Q 959 750 1161 570 
Q 1363 391 1709 391 
Q 2188 391 2477 730 
Q 2766 1069 2766 1631 
L 2766 1759 
L 2194 1759 
z
M 3341 1997 
L 3341 0 
L 2766 0 
L 2766 531 
Q 2569 213 2275 61 
Q 1981 -91 1556 -91 
Q 1019 -91 701 211 
Q 384 513 384 1019 
Q 384 1609 779 1909 
Q 1175 2209 1959 2209 
L 2766 2209 
L 2766 2266 
Q 2766 2663 2505 2880 
Q 2244 3097 1772 3097 
Q 1472 3097 1187 3025 
Q 903 2953 641 2809 
L 641 3341 
Q 956 3463 1253 3523 
Q 1550 3584 1831 3584 
Q 2591 3584 2966 3190 
Q 3341 2797 3341 1997 
z
" transform="scale(0.015625)"/>
       <path id="DejaVuSans-75" d="M 544 1381 
L 544 3500 
L 1119 3500 
L 1119 1403 
Q 1119 906 1312 657 
Q 1506 409 1894 409 
Q 2359 409 2629 706 
Q 2900 1003 2900 1516 
L 2900 3500 
L 3475 3500 
L 3475 0 
L 2900 0 
L 2900 538 
Q 2691 219 2414 64 
Q 2138 -91 1772 -91 
Q 1169 -91 856 284 
Q 544 659 544 1381 
z
M 1991 3584 
L 1991 3584 
z
" transform="scale(0.015625)"/>
      </defs>
      <use xlink:href="#DejaVuSans-65"/>
      <use xlink:href="#DejaVuSans-6c" x="61.523438"/>
      <use xlink:href="#DejaVuSans-65" x="89.306641"/>
      <use xlink:href="#DejaVuSans-63" x="150.830078"/>
      <use xlink:href="#DejaVuSans-74" x="205.810547"/>
      <use xlink:href="#DejaVuSans-72" x="245.019531"/>
      <use xlink:href="#DejaVuSans-6f" x="283.882812"/>
      <use xlink:href="#DejaVuSans-6e" x="345.064453"/>
      <use xlink:href="#DejaVuSans-5f" x="408.443359"/>
      <use xlink:href="#DejaVuSans-79" x="458.443359"/>
      <use xlink:href="#DejaVuSans-69" x="517.623047"/>
      <use xlink:href="#DejaVuSans-65" x="545.40625"/>
      <use xlink:href="#DejaVuSans-6c" x="606.929688"/>
      <use xlink:href="#DejaVuSans-64" x="634.712891"/>
      <use xlink:href="#DejaVuSans-20" x="698.189453"/>
      <use xlink:href="#DejaVuSans-5b" x="729.976562"/>
      <use xlink:href="#DejaVuSans-61" x="768.990234"/>
      <use xlink:href="#DejaVuSans-2e" x="830.269531"/>
      <use xlink:href="#DejaVuSans-75" x="862.056641"/>
      <use xlink:href="#DejaVuSans-2e" x="925.435547"/>
      <use xlink:href="#DejaVuSans-5d" x="957.222656"/>
     </g>
    </g>
   </g>
   <g id="line2d_16">
    <path d="M 63.565714 238.93918 
L 64.980193 238.020434 
L 66.394672 237.667949 
L 67.809151 237.142944 
L 69.223631 237.238221 
L 70.63811 238.144154 
L 72.052589 237.268761 
L 73.467068 239.121142 
L 74.881547 237.919288 
L 76.296026 236.902097 
L 77.710505 239.604174 
L 79.124984 236.802762 
L 80.539463 236.663257 
L 81.953942 238.552859 
L 83.368421 238.641048 
L 84.7829 240.01879 
L 86.197379 237.026648 
L 87.611858 238.134627 
L 89.026337 235.962777 
L 90.440816 236.448956 
L 91.855295 228.219153 
L 93.269774 203.649493 
L 94.684253 167.685299 
L 96.098733 155.803103 
L 97.513212 157.332672 
L 98.927691 126.746697 
L 100.34217 104.610876 
L 101.756649 124.674949 
L 103.171128 163.849615 
L 104.585607 182.189718 
L 106.000086 181.055865 
L 107.414565 163.750546 
L 108.829044 148.872317 
L 110.243523 142.519043 
L 114.48696 121.498862 
L 115.901439 115.882557 
L 117.315918 116.468012 
L 118.730397 116.90493 
L 121.559356 86.287783 
L 122.973835 74.504091 
L 124.388314 71.132433 
L 125.802793 68.083333 
L 127.217272 59.461426 
L 128.631751 44.443636 
L 130.04623 44.479056 
L 131.460709 53.233357 
L 132.875188 69.273334 
L 134.289667 79.98884 
L 135.704146 84.812037 
L 137.118625 88.478699 
L 138.533104 93.956464 
L 139.947583 93.743283 
L 141.362062 94.355996 
L 142.776541 88.503548 
L 145.605499 89.311664 
L 147.019979 91.756082 
L 148.434458 92.381106 
L 149.848937 94.883043 
L 152.677895 96.559203 
L 154.092374 93.869761 
L 155.506853 91.912262 
L 156.921332 92.354701 
L 158.335811 87.121313 
L 159.75029 84.545658 
L 161.164769 79.313881 
L 162.579248 78.280371 
L 163.993727 74.34148 
L 165.408206 72.919646 
L 166.822685 71.708484 
L 168.237164 68.846784 
L 169.651643 71.847052 
L 171.066122 70.718551 
L 172.480602 71.020548 
L 173.895081 72.612782 
L 175.30956 73.936559 
L 176.724039 74.812881 
L 178.138518 74.12262 
L 179.552997 76.691909 
L 180.967476 77.350808 
L 182.381955 77.683534 
L 183.796434 77.894632 
L 185.210913 81.139181 
L 186.625392 81.053781 
L 188.039871 83.304287 
L 189.45435 83.616503 
L 190.868829 83.590601 
L 192.283308 85.178313 
L 193.697787 87.104221 
L 195.112266 87.031359 
L 196.526745 87.868091 
L 197.941224 88.478875 
L 199.355704 92.247495 
L 200.770183 90.336417 
L 202.184662 93.454474 
L 203.599141 93.09765 
L 205.01362 95.024666 
L 206.428099 95.086056 
L 207.842578 94.498219 
L 209.257057 93.043308 
L 210.671536 99.153174 
L 212.086015 97.642181 
L 213.500494 98.03289 
L 214.914973 98.796432 
L 216.329452 100.25159 
L 217.743931 102.719507 
L 219.15841 102.723231 
L 224.816327 104.774693 
L 227.645285 104.874472 
L 229.059764 105.244806 
L 230.474243 105.815726 
L 231.888722 106.929357 
L 234.71768 107.865629 
L 236.132159 109.056701 
L 237.546638 110.022852 
L 238.961117 110.57548 
L 240.375596 111.983958 
L 241.790075 112.568518 
L 246.033512 113.589532 
L 247.447991 113.737806 
L 248.86247 114.81248 
L 250.27695 116.599294 
L 253.105908 117.074417 
L 254.520387 117.121474 
L 257.349345 116.729046 
L 258.763824 117.430191 
L 260.178303 118.314348 
L 261.592782 118.611831 
L 264.42174 118.55779 
L 265.836219 118.310907 
L 267.250698 118.666438 
L 268.665177 119.847699 
L 270.079656 120.715812 
L 272.908614 121.526646 
L 277.152052 123.669881 
L 278.566531 124.942915 
L 279.98101 125.957825 
L 282.809968 126.651944 
L 284.224447 126.621281 
L 287.053405 127.273962 
L 288.467884 128.499926 
L 289.882363 129.402197 
L 291.296842 129.805455 
L 292.711321 129.997675 
L 295.540279 130.197686 
L 296.954758 130.735971 
L 298.369237 132.487415 
L 299.783716 133.01758 
L 301.198195 133.220061 
L 302.612675 133.590748 
L 304.027154 133.714485 
L 305.441633 134.166469 
L 306.856112 136.179688 
L 308.270591 136.576695 
L 309.68507 136.846162 
L 311.099549 137.255821 
L 313.928507 139.076083 
L 315.342986 139.435948 
L 316.757465 140.163065 
L 318.171944 140.563709 
L 319.586423 140.487207 
L 321.000902 140.630937 
L 322.415381 141.042705 
L 323.82986 141.155671 
L 325.244339 141.031367 
L 326.658818 142.105333 
L 329.487777 141.308223 
L 330.902256 142.663043 
L 332.316735 143.416349 
L 333.731214 143.114719 
L 336.560172 144.187173 
L 337.974651 143.739156 
L 339.38913 143.603448 
L 342.218088 148.098897 
L 343.632567 148.262152 
L 346.461525 149.070798 
L 347.876004 148.773011 
L 349.290483 148.676698 
L 352.119441 149.035235 
L 353.533921 149.672023 
L 354.9484 150.473228 
L 356.362879 150.766016 
L 359.191837 150.679842 
L 360.606316 150.312533 
L 362.020795 150.235975 
L 363.435274 150.526823 
L 364.849753 150.680003 
L 367.678711 150.314345 
L 370.507669 153.24434 
L 371.922148 153.608139 
L 373.336627 154.099076 
L 374.751106 154.421017 
L 376.165585 154.187149 
L 377.580064 154.307339 
L 378.994544 155.320632 
L 380.409023 156.089571 
L 381.823502 156.400316 
L 383.237981 156.953938 
L 384.65246 157.085076 
L 386.066939 156.775072 
L 387.481418 156.27312 
L 388.895897 155.637287 
L 390.310376 155.156461 
L 391.724855 156.054288 
L 393.139334 156.22923 
L 395.968292 155.714602 
L 397.382771 156.379369 
L 398.79725 157.177806 
L 403.040687 157.375073 
L 404.455166 156.781514 
L 405.869646 156.651308 
L 408.698604 160.50493 
L 410.113083 160.547527 
L 411.527562 160.902253 
L 412.942041 160.95285 
L 415.770999 160.212732 
L 417.185478 160.966768 
L 418.599957 160.687122 
L 420.014436 160.717868 
L 421.428915 160.593492 
L 424.257873 159.964688 
L 425.672352 160.882519 
L 427.086831 162.11571 
L 428.50131 162.376543 
L 431.330269 162.45397 
L 433 161.848175 
L 433 161.848175 
" clip-path="url(#p3215350a29)" style="fill: none; stroke: #440154; stroke-width: 1.5; stroke-linecap: square"/>
   </g>
   <g id="line2d_17">
    <path d="M 63.565714 239.093547 
L 66.394672 237.349631 
L 67.809151 238.587272 
L 69.223631 238.674249 
L 72.052589 238.006972 
L 73.467068 242.116364 
L 74.881547 240.482287 
L 76.296026 239.323009 
L 77.710505 237.919215 
L 79.124984 239.181662 
L 80.539463 239.03464 
L 81.953942 235.115423 
L 83.368421 237.012783 
L 84.7829 238.392717 
L 86.197379 235.490967 
L 87.611858 235.373074 
L 89.026337 234.519421 
L 90.440816 233.091613 
L 91.855295 229.111078 
L 93.269774 206.129377 
L 94.684253 176.565176 
L 96.098733 168.080516 
L 97.513212 169.755762 
L 100.34217 119.671443 
L 101.756649 137.713627 
L 103.171128 173.632061 
L 104.585607 186.541126 
L 106.000086 186.577906 
L 107.414565 169.799687 
L 108.829044 157.818292 
L 110.243523 150.769108 
L 113.072481 137.683541 
L 114.48696 129.384456 
L 115.901439 124.527769 
L 117.315918 125.947918 
L 118.730397 122.326048 
L 121.559356 93.1082 
L 122.973835 84.597241 
L 125.802793 78.614187 
L 128.631751 55.155553 
L 130.04623 53.943256 
L 132.875188 76.2372 
L 134.289667 88.076489 
L 135.704146 92.566249 
L 137.118625 98.095371 
L 138.533104 96.365534 
L 139.947583 99.907443 
L 141.362062 98.398903 
L 142.776541 94.563786 
L 144.19102 91.320888 
L 145.605499 94.231135 
L 147.019979 94.22212 
L 148.434458 95.283023 
L 149.848937 95.354768 
L 151.263416 96.321302 
L 152.677895 98.294481 
L 154.092374 93.97405 
L 155.506853 92.140265 
L 156.921332 89.899436 
L 158.335811 88.844069 
L 161.164769 79.925558 
L 162.579248 75.181708 
L 163.993727 75.3279 
L 165.408206 74.862632 
L 168.237164 71.483308 
L 169.651643 68.567546 
L 171.066122 71.578579 
L 172.480602 70.851567 
L 173.895081 72.189512 
L 175.30956 74.205066 
L 176.724039 74.660138 
L 178.138518 74.003345 
L 179.552997 74.117241 
L 180.967476 77.373675 
L 182.381955 77.972863 
L 183.796434 79.937093 
L 185.210913 77.648933 
L 186.625392 79.782789 
L 188.039871 80.38669 
L 189.45435 83.799122 
L 190.868829 83.625406 
L 192.283308 82.912921 
L 193.697787 84.517767 
L 195.112266 86.906142 
L 196.526745 87.545181 
L 197.941224 87.492323 
L 199.355704 88.514301 
L 200.770183 89.855666 
L 202.184662 92.294857 
L 203.599141 91.299365 
L 205.01362 91.611841 
L 206.428099 92.125034 
L 207.842578 95.555489 
L 209.257057 95.091462 
L 210.671536 96.148681 
L 212.086015 94.527186 
L 213.500494 97.472736 
L 214.914973 96.159699 
L 216.329452 96.937873 
L 217.743931 99.328124 
L 219.15841 98.009793 
L 220.572889 97.529912 
L 223.401847 100.897487 
L 224.816327 102.684841 
L 226.230806 103.289828 
L 231.888722 104.37505 
L 233.303201 104.160422 
L 234.71768 103.597843 
L 240.375596 106.779372 
L 241.790075 106.226668 
L 243.204554 106.539139 
L 244.619033 108.320553 
L 247.447991 109.871762 
L 250.27695 111.319612 
L 251.691429 112.427466 
L 253.105908 113.290821 
L 258.763824 115.342388 
L 260.178303 115.443397 
L 261.592782 114.698351 
L 263.007261 114.306761 
L 264.42174 115.10303 
L 270.079656 115.910138 
L 271.494135 115.867818 
L 272.908614 117.546483 
L 278.566531 119.622143 
L 279.98101 120.618937 
L 281.395489 122.810593 
L 282.809968 124.608389 
L 288.467884 126.082765 
L 289.882363 126.600987 
L 291.296842 127.309875 
L 298.369237 128.960772 
L 299.783716 130.222763 
L 301.198195 130.81042 
L 305.441633 131.014181 
L 308.270591 130.789545 
L 309.68507 132.481194 
L 311.099549 134.596681 
L 316.757465 136.758373 
L 318.171944 137.646322 
L 319.586423 139.546256 
L 321.000902 140.816079 
L 325.244339 141.119731 
L 326.658818 141.08724 
L 328.073298 140.784974 
L 329.487777 142.31683 
L 335.145693 142.718833 
L 336.560172 143.357956 
L 337.974651 145.410856 
L 339.38913 147.068302 
L 342.218088 146.401239 
L 345.047046 145.670876 
L 346.461525 145.673012 
L 347.876004 147.041955 
L 354.9484 148.682544 
L 356.362879 150.164388 
L 357.777358 151.297319 
L 363.435274 150.900248 
L 364.849753 150.242089 
L 366.264232 150.464561 
L 367.678711 151.046491 
L 369.09319 150.853234 
L 373.336627 149.5563 
L 374.751106 150.970251 
L 376.165585 153.669309 
L 377.580064 155.006551 
L 381.823502 153.361279 
L 383.237981 153.034141 
L 384.65246 155.044353 
L 386.066939 156.51119 
L 391.724855 156.151744 
L 393.139334 155.819969 
L 394.553813 156.146197 
L 395.968292 156.884187 
L 397.382771 157.340845 
L 403.040687 157.901299 
L 404.455166 157.85964 
L 405.869646 157.620048 
L 411.527562 155.532681 
L 414.35652 160.905457 
L 415.770999 161.366418 
L 421.428915 160.614308 
L 422.843394 160.145989 
L 424.257873 160.981642 
L 425.672352 161.199281 
L 429.915789 160.837042 
L 431.330269 160.855161 
L 433 161.783324 
L 433 161.783324 
" clip-path="url(#p3215350a29)" style="fill: none; stroke: #414487; stroke-width: 1.5; stroke-linecap: square"/>
   </g>
   <g id="line2d_18">
    <path d="M 63.565714 238.170534 
L 64.980193 239.953336 
L 67.809151 237.825946 
L 69.223631 238.525657 
L 70.63811 239.570169 
L 72.052589 239.390026 
L 73.467068 237.468762 
L 74.881547 238.591927 
L 76.296026 237.495207 
L 77.710505 237.854931 
L 79.124984 239.018107 
L 81.953942 237.525379 
L 83.368421 236.015708 
L 84.7829 237.470734 
L 86.197379 236.576781 
L 87.611858 237.084511 
L 90.440816 233.902597 
L 91.855295 229.368616 
L 93.269774 218.368135 
L 94.684253 199.857201 
L 96.098733 193.721033 
L 97.513212 192.298341 
L 98.927691 177.195103 
L 100.34217 163.353727 
L 101.756649 175.534429 
L 103.171128 196.821991 
L 104.585607 203.92565 
L 106.000086 201.829334 
L 108.829044 183.475313 
L 110.243523 181.949715 
L 111.658002 177.745646 
L 113.072481 170.387734 
L 114.48696 160.894952 
L 115.901439 142.506612 
L 117.315918 143.405229 
L 118.730397 140.478289 
L 120.144876 131.573246 
L 121.559356 119.039397 
L 122.973835 110.029288 
L 124.388314 104.641987 
L 125.802793 100.34976 
L 127.217272 94.909727 
L 128.631751 87.041758 
L 130.04623 86.953756 
L 131.460709 91.742987 
L 134.289667 107.066924 
L 135.704146 110.363302 
L 137.118625 112.337796 
L 138.533104 112.53887 
L 139.947583 113.118843 
L 141.362062 110.610398 
L 144.19102 101.88697 
L 145.605499 100.310433 
L 147.019979 99.376522 
L 148.434458 99.888892 
L 149.848937 97.400007 
L 151.263416 97.480154 
L 152.677895 97.077266 
L 155.506853 94.032037 
L 156.921332 90.408258 
L 158.335811 88.671408 
L 159.75029 82.172788 
L 161.164769 80.756365 
L 162.579248 80.461019 
L 163.993727 76.054791 
L 165.408206 74.652364 
L 166.822685 72.0123 
L 168.237164 71.546566 
L 169.651643 69.331509 
L 171.066122 71.204832 
L 172.480602 70.387748 
L 173.895081 69.054166 
L 175.30956 71.88715 
L 176.724039 70.527331 
L 178.138518 72.001331 
L 179.552997 70.600531 
L 180.967476 72.462366 
L 182.381955 72.148254 
L 183.796434 72.544404 
L 185.210913 74.71676 
L 186.625392 73.914931 
L 188.039871 74.022171 
L 190.868829 77.550423 
L 192.283308 75.565144 
L 193.697787 75.034343 
L 195.112266 77.057353 
L 196.526745 77.817385 
L 197.941224 79.566193 
L 199.355704 79.01558 
L 200.770183 76.789184 
L 202.184662 80.500839 
L 203.599141 78.63596 
L 205.01362 81.515633 
L 206.428099 81.718215 
L 207.842578 84.188039 
L 209.257057 82.847225 
L 210.671536 80.894588 
L 212.086015 84.202497 
L 213.500494 83.547687 
L 214.914973 85.034595 
L 216.329452 84.761252 
L 217.743931 87.494 
L 220.572889 87.847858 
L 223.401847 88.144167 
L 224.816327 87.966044 
L 227.645285 86.901827 
L 229.059764 86.981417 
L 231.888722 88.427636 
L 233.303201 90.091698 
L 234.71768 91.294418 
L 237.546638 91.600967 
L 240.375596 91.273035 
L 241.790075 91.355775 
L 243.204554 92.758105 
L 244.619033 94.372464 
L 247.447991 96.750814 
L 251.691429 98.36285 
L 253.105908 100.19474 
L 254.520387 99.900419 
L 255.934866 99.157999 
L 260.178303 100.225237 
L 263.007261 103.280571 
L 264.42174 102.188315 
L 265.836219 100.83912 
L 267.250698 100.531106 
L 270.079656 101.03173 
L 274.323093 106.218984 
L 275.737573 106.814893 
L 278.566531 107.643263 
L 279.98101 108.452173 
L 281.395489 110.190741 
L 282.809968 111.633504 
L 284.224447 112.101916 
L 289.882363 115.513051 
L 291.296842 117.562572 
L 292.711321 116.6562 
L 294.1258 115.082751 
L 295.540279 115.034867 
L 298.369237 117.276783 
L 301.198195 121.807478 
L 302.612675 121.928311 
L 304.027154 121.782364 
L 305.441633 122.255011 
L 308.270591 123.453406 
L 311.099549 125.745551 
L 312.514028 126.090691 
L 316.757465 129.137302 
L 318.171944 130.467869 
L 319.586423 132.092135 
L 321.000902 133.17995 
L 322.415381 133.585027 
L 323.82986 134.266152 
L 328.073298 136.989383 
L 329.487777 139.077458 
L 330.902256 138.866001 
L 332.316735 138.197574 
L 333.731214 138.626185 
L 336.560172 140.544922 
L 337.974651 142.036546 
L 339.38913 143.344694 
L 342.218088 143.191011 
L 346.461525 143.69452 
L 347.876004 145.701079 
L 349.290483 145.822231 
L 350.704962 146.862156 
L 352.119441 147.672331 
L 354.9484 147.817195 
L 356.362879 148.364861 
L 357.777358 149.099702 
L 359.191837 150.659423 
L 360.606316 151.493944 
L 364.849753 151.429092 
L 366.264232 151.716708 
L 367.678711 152.154636 
L 369.09319 153.341606 
L 370.507669 153.480927 
L 373.336627 153.217098 
L 374.751106 153.322851 
L 376.165585 153.950166 
L 380.409023 153.644491 
L 383.237981 153.183449 
L 384.65246 153.400807 
L 386.066939 153.944483 
L 387.481418 154.818639 
L 388.895897 155.504155 
L 390.310376 155.775176 
L 394.553813 155.739609 
L 395.968292 156.406626 
L 397.382771 157.267303 
L 398.79725 157.940189 
L 403.040687 158.130298 
L 404.455166 159.102491 
L 407.284125 159.354684 
L 411.527562 158.959648 
L 412.942041 159.135372 
L 414.35652 159.635948 
L 415.770999 159.768003 
L 417.185478 159.398003 
L 418.599957 159.188221 
L 422.843394 159.135499 
L 425.672352 160.446075 
L 427.086831 160.487042 
L 431.330269 160.064622 
L 433 160.604887 
L 433 160.604887 
" clip-path="url(#p3215350a29)" style="fill: none; stroke: #2a788e; stroke-width: 1.5; stroke-linecap: square"/>
   </g>
   <g id="line2d_19">
    <path d="M 63.565714 237.395016 
L 64.980193 236.669162 
L 67.809151 238.525165 
L 69.223631 236.88411 
L 70.63811 236.093673 
L 72.052589 236.50322 
L 73.467068 238.101075 
L 74.881547 237.181216 
L 76.296026 237.804488 
L 77.710505 237.974888 
L 79.124984 238.794652 
L 80.539463 236.034163 
L 83.368421 239.39939 
L 84.7829 238.30107 
L 86.197379 235.244622 
L 87.611858 236.488124 
L 89.026337 238.594313 
L 90.440816 237.80076 
L 91.855295 235.359176 
L 93.269774 230.169997 
L 94.684253 221.68474 
L 96.098733 218.707413 
L 97.513212 217.968571 
L 98.927691 210.54952 
L 100.34217 204.250798 
L 101.756649 207.971686 
L 103.171128 216.689997 
L 104.585607 220.690788 
L 106.000086 219.335147 
L 107.414565 216.598731 
L 108.829044 212.404449 
L 110.243523 209.151171 
L 111.658002 206.354824 
L 113.072481 203.878076 
L 114.48696 193.057499 
L 115.901439 167.981656 
L 117.315918 159.02348 
L 118.730397 159.592509 
L 120.144876 155.874134 
L 121.559356 145.550612 
L 122.973835 131.763302 
L 124.388314 126.835252 
L 125.802793 124.082539 
L 127.217272 122.365936 
L 128.631751 115.937805 
L 130.04623 112.969285 
L 131.460709 118.066366 
L 132.875188 122.533732 
L 134.289667 124.890514 
L 135.704146 122.707878 
L 137.118625 124.697404 
L 138.533104 123.925377 
L 139.947583 124.959526 
L 141.362062 119.025278 
L 142.776541 116.928979 
L 145.605499 107.535604 
L 147.019979 102.238156 
L 148.434458 101.892427 
L 149.848937 99.818401 
L 151.263416 98.943674 
L 152.677895 97.746541 
L 154.092374 96.902598 
L 155.506853 95.334788 
L 156.921332 91.534471 
L 158.335811 89.916194 
L 159.75029 85.029583 
L 161.164769 82.943651 
L 162.579248 78.920009 
L 165.408206 74.315297 
L 166.822685 73.831962 
L 168.237164 73.196087 
L 171.066122 69.056019 
L 173.895081 70.536716 
L 175.30956 69.116802 
L 176.724039 68.301533 
L 178.138518 65.428376 
L 179.552997 68.608204 
L 180.967476 67.952345 
L 182.381955 68.943457 
L 183.796434 67.349288 
L 185.210913 68.563698 
L 186.625392 69.201672 
L 188.039871 69.233525 
L 189.45435 67.250695 
L 190.868829 68.676029 
L 192.283308 70.264763 
L 193.697787 69.656139 
L 195.112266 69.246032 
L 196.526745 68.132101 
L 197.941224 67.794294 
L 199.355704 68.997397 
L 200.770183 70.719629 
L 202.184662 69.303666 
L 203.599141 70.711011 
L 205.01362 70.137626 
L 206.428099 70.156979 
L 207.842578 69.511425 
L 209.257057 71.17195 
L 210.671536 71.476889 
L 212.086015 70.950636 
L 213.500494 71.350305 
L 214.914973 71.575011 
L 216.329452 71.62964 
L 217.743931 74.223665 
L 219.15841 74.012251 
L 220.572889 73.679826 
L 221.987368 73.902215 
L 226.230806 75.398957 
L 229.059764 75.668361 
L 231.888722 76.820975 
L 233.303201 77.411146 
L 234.71768 76.043935 
L 237.546638 76.701859 
L 238.961117 77.19603 
L 240.375596 79.561468 
L 241.790075 80.8122 
L 244.619033 82.305003 
L 247.447991 82.730488 
L 248.86247 83.156367 
L 251.691429 84.714926 
L 258.763824 86.818202 
L 260.178303 88.444216 
L 261.592782 88.445417 
L 263.007261 88.266989 
L 264.42174 88.426566 
L 267.250698 89.555663 
L 270.079656 92.686577 
L 271.494135 92.573362 
L 272.908614 92.147019 
L 274.323093 92.303363 
L 275.737573 92.631836 
L 277.152052 93.236512 
L 281.395489 97.954684 
L 282.809968 99.294107 
L 285.638926 100.631834 
L 287.053405 101.86363 
L 288.467884 103.614398 
L 289.882363 104.906293 
L 291.296842 107.673751 
L 295.540279 108.774577 
L 298.369237 111.910485 
L 299.783716 112.342555 
L 301.198195 112.411946 
L 302.612675 113.02948 
L 305.441633 114.877796 
L 306.856112 116.379541 
L 309.68507 118.755393 
L 311.099549 119.831966 
L 313.928507 121.49286 
L 315.342986 122.590737 
L 316.757465 124.054647 
L 318.171944 125.253085 
L 319.586423 126.668204 
L 321.000902 128.31131 
L 323.82986 129.298803 
L 325.244339 130.748296 
L 326.658818 132.414604 
L 328.073298 133.530118 
L 330.902256 135.070546 
L 336.560172 138.620501 
L 339.38913 138.366573 
L 342.218088 139.21703 
L 343.632567 139.892873 
L 346.461525 141.863598 
L 347.876004 142.731194 
L 352.119441 144.109713 
L 354.9484 145.520934 
L 356.362879 146.649276 
L 357.777358 147.960184 
L 359.191837 148.836065 
L 362.020795 149.576703 
L 364.849753 151.06386 
L 366.264232 151.268936 
L 367.678711 150.868995 
L 371.922148 150.962088 
L 373.336627 151.395661 
L 374.751106 152.381184 
L 377.580064 152.470681 
L 380.409023 151.932563 
L 381.823502 152.066548 
L 383.237981 152.489163 
L 386.066939 153.900391 
L 390.310376 155.040701 
L 393.139334 156.764028 
L 394.553813 156.801601 
L 395.968292 156.616585 
L 398.79725 156.667062 
L 400.211729 156.822867 
L 403.040687 158.036452 
L 404.455166 157.651725 
L 405.869646 157.680575 
L 408.698604 158.02951 
L 410.113083 158.560559 
L 411.527562 159.519063 
L 412.942041 159.915688 
L 415.770999 159.726287 
L 418.599957 160.100121 
L 421.428915 161.0673 
L 422.843394 161.317808 
L 424.257873 161.838508 
L 425.672352 161.859177 
L 428.50131 161.142938 
L 429.915789 160.998958 
L 431.330269 161.49985 
L 433 161.416619 
L 433 161.416619 
" clip-path="url(#p3215350a29)" style="fill: none; stroke: #22a884; stroke-width: 1.5; stroke-linecap: square"/>
   </g>
   <g id="line2d_20">
    <path d="M 63.565714 237.854736 
L 66.394672 236.419188 
L 67.809151 237.78088 
L 69.223631 237.836208 
L 72.052589 236.78588 
L 73.467068 238.009721 
L 74.881547 237.316113 
L 76.296026 237.666255 
L 77.710505 238.755276 
L 79.124984 236.090797 
L 80.539463 238.65212 
L 81.953942 238.412374 
L 83.368421 237.758086 
L 84.7829 236.902214 
L 86.197379 236.487013 
L 87.611858 238.140831 
L 89.026337 236.489799 
L 90.440816 238.707339 
L 91.855295 233.930544 
L 93.269774 234.393195 
L 94.684253 230.165577 
L 96.098733 230.133754 
L 97.513212 226.598328 
L 98.927691 222.110554 
L 100.34217 220.154932 
L 101.756649 220.796185 
L 103.171128 224.307955 
L 104.585607 225.929468 
L 106.000086 227.964535 
L 107.414565 223.572766 
L 108.829044 225.621701 
L 110.243523 221.927985 
L 111.658002 220.881807 
L 113.072481 216.242154 
L 114.48696 205.88324 
L 115.901439 176.829128 
L 117.315918 168.875837 
L 118.730397 167.08691 
L 120.144876 164.412804 
L 122.973835 138.938678 
L 124.388314 134.485766 
L 125.802793 131.269286 
L 127.217272 129.064895 
L 128.631751 125.436919 
L 130.04623 125.445281 
L 131.460709 126.622457 
L 132.875188 126.981216 
L 134.289667 129.379693 
L 135.704146 128.429921 
L 137.118625 129.661529 
L 138.533104 127.51789 
L 139.947583 126.384096 
L 141.362062 121.21633 
L 142.776541 117.555732 
L 144.19102 111.694904 
L 145.605499 110.258251 
L 147.019979 103.973426 
L 148.434458 100.281586 
L 149.848937 94.534646 
L 151.263416 95.202676 
L 152.677895 94.776751 
L 154.092374 93.088233 
L 155.506853 93.337226 
L 156.921332 89.609835 
L 158.335811 87.344387 
L 159.75029 81.371412 
L 161.164769 80.641592 
L 162.579248 75.437105 
L 163.993727 75.433963 
L 165.408206 71.443418 
L 166.822685 70.674796 
L 168.237164 69.650163 
L 169.651643 66.224969 
L 171.066122 66.703831 
L 172.480602 67.54684 
L 173.895081 65.997488 
L 175.30956 65.322983 
L 176.724039 62.811575 
L 178.138518 62.671379 
L 179.552997 63.861554 
L 180.967476 62.299247 
L 182.381955 62.892332 
L 183.796434 62.646773 
L 185.210913 63.22639 
L 186.625392 63.1431 
L 188.039871 63.684497 
L 189.45435 62.855358 
L 190.868829 62.925998 
L 192.283308 62.758547 
L 193.697787 63.25474 
L 195.112266 62.587204 
L 199.355704 62.735763 
L 200.770183 63.330073 
L 202.184662 62.355749 
L 203.599141 62.471214 
L 205.01362 62.762346 
L 206.428099 63.719535 
L 207.842578 63.827835 
L 209.257057 62.533211 
L 210.671536 64.573929 
L 212.086015 63.900701 
L 213.500494 64.226767 
L 214.914973 64.288117 
L 216.329452 66.353583 
L 217.743931 64.620592 
L 219.15841 65.231493 
L 221.987368 66.785357 
L 223.401847 67.394192 
L 227.645285 68.64079 
L 230.474243 69.420689 
L 234.71768 70.619151 
L 238.961117 73.083025 
L 244.619033 75.175782 
L 246.033512 76.025762 
L 248.86247 76.592377 
L 250.27695 76.818525 
L 253.105908 77.680572 
L 254.520387 78.31564 
L 255.934866 79.302349 
L 257.349345 80.124192 
L 258.763824 80.517567 
L 260.178303 80.75166 
L 261.592782 80.269057 
L 263.007261 80.655677 
L 264.42174 81.278257 
L 265.836219 82.515701 
L 271.494135 85.599079 
L 272.908614 86.38519 
L 275.737573 88.546297 
L 278.566531 90.088426 
L 279.98101 91.490716 
L 281.395489 93.083349 
L 284.224447 95.183836 
L 287.053405 97.011377 
L 288.467884 97.908355 
L 289.882363 99.356614 
L 292.711321 101.450117 
L 294.1258 102.680487 
L 295.540279 103.745611 
L 296.954758 104.633177 
L 298.369237 105.296445 
L 299.783716 105.599053 
L 301.198195 106.420945 
L 302.612675 108.081177 
L 304.027154 109.367859 
L 306.856112 111.447049 
L 308.270591 113.057443 
L 309.68507 114.951089 
L 312.514028 117.72839 
L 313.928507 119.011859 
L 316.757465 121.016809 
L 318.171944 122.846464 
L 319.586423 124.963369 
L 326.658818 128.040523 
L 329.487777 131.212921 
L 332.316735 133.692759 
L 333.731214 134.522566 
L 336.560172 135.719513 
L 337.974651 135.129896 
L 339.38913 135.918077 
L 340.803609 137.343758 
L 342.218088 138.151886 
L 343.632567 138.803934 
L 345.047046 139.65624 
L 347.876004 141.950267 
L 349.290483 142.502905 
L 352.119441 143.067455 
L 353.533921 143.166389 
L 354.9484 143.481701 
L 357.777358 146.71497 
L 360.606316 147.933143 
L 363.435274 148.722967 
L 364.849753 148.774079 
L 366.264232 148.460432 
L 367.678711 148.439532 
L 370.507669 150.064951 
L 373.336627 150.985206 
L 376.165585 151.907218 
L 377.580064 151.890766 
L 380.409023 152.422933 
L 383.237981 152.373785 
L 386.066939 154.552879 
L 388.895897 154.767843 
L 390.310376 154.681062 
L 391.724855 154.409857 
L 393.139334 154.508604 
L 394.553813 155.233875 
L 397.382771 156.868234 
L 398.79725 157.634146 
L 400.211729 158.054372 
L 401.626208 158.260916 
L 404.455166 157.592233 
L 405.869646 157.692928 
L 408.698604 158.977952 
L 411.527562 159.502873 
L 412.942041 159.026329 
L 414.35652 158.851146 
L 417.185478 159.354694 
L 420.014436 159.352087 
L 421.428915 159.553578 
L 424.257873 160.803232 
L 428.50131 161.432229 
L 431.330269 161.431752 
L 433 162.261872 
L 433 162.261872 
" clip-path="url(#p3215350a29)" style="fill: none; stroke: #7ad151; stroke-width: 1.5; stroke-linecap: square"/>
   </g>
   <g id="patch_3">
    <path d="M 54 252 
L 54 34.56 
" style="fill: none; stroke: #000000; stroke-width: 0.8; stroke-linejoin: miter; stroke-linecap: square"/>
   </g>
   <g id="patch_4">
    <path d="M 388.8 252 
L 388.8 34.56 
" style="fill: none; stroke: #000000; stroke-width: 0.8; stroke-linejoin: miter; stroke-linecap: square"/>
   </g>
   <g id="patch_5">
    <path d="M 54 252 
L 388.8 252 
" style="fill: none; stroke: #000000; stroke-width: 0.8; stroke-linejoin: miter; stroke-linecap: square"/>
   </g>
   <g id="patch_6">
    <path d="M 54 34.56 
L 388.8 34.56 
" style="fill: none; stroke: #000000; stroke-width: 0.8; stroke-linejoin: miter; stroke-linecap: square"/>
   </g>
   <g id="text_18">
    <!-- Y6 Normalized NEXAFS -->
    <g transform="translate(152.428125 28.56)scale(0.12 -0.12)">
     <defs>
      <path id="DejaVuSans-59" d="M -13 4666 
L 666 4666 
L 1959 2747 
L 3244 4666 
L 3922 4666 
L 2272 2222 
L 2272 0 
L 1638 0 
L 1638 2222 
L -13 4666 
z
" transform="scale(0.015625)"/>
      <path id="DejaVuSans-36" d="M 2113 2584 
Q 1688 2584 1439 2293 
Q 1191 2003 1191 1497 
Q 1191 994 1439 701 
Q 1688 409 2113 409 
Q 2538 409 2786 701 
Q 3034 994 3034 1497 
Q 3034 2003 2786 2293 
Q 2538 2584 2113 2584 
z
M 3366 4563 
L 3366 3988 
Q 3128 4100 2886 4159 
Q 2644 4219 2406 4219 
Q 1781 4219 1451 3797 
Q 1122 3375 1075 2522 
Q 1259 2794 1537 2939 
Q 1816 3084 2150 3084 
Q 2853 3084 3261 2657 
Q 3669 2231 3669 1497 
Q 3669 778 3244 343 
Q 2819 -91 2113 -91 
Q 1303 -91 875 529 
Q 447 1150 447 2328 
Q 447 3434 972 4092 
Q 1497 4750 2381 4750 
Q 2619 4750 2861 4703 
Q 3103 4656 3366 4563 
z
" transform="scale(0.015625)"/>
      <path id="DejaVuSans-4e" d="M 628 4666 
L 1478 4666 
L 3547 763 
L 3547 4666 
L 4159 4666 
L 4159 0 
L 3309 0 
L 1241 3903 
L 1241 0 
L 628 0 
L 628 4666 
z
" transform="scale(0.015625)"/>
      <path id="DejaVuSans-6d" d="M 3328 2828 
Q 3544 3216 3844 3400 
Q 4144 3584 4550 3584 
Q 5097 3584 5394 3201 
Q 5691 2819 5691 2113 
L 5691 0 
L 5113 0 
L 5113 2094 
Q 5113 2597 4934 2840 
Q 4756 3084 4391 3084 
Q 3944 3084 3684 2787 
Q 3425 2491 3425 1978 
L 3425 0 
L 2847 0 
L 2847 2094 
Q 2847 2600 2669 2842 
Q 2491 3084 2119 3084 
Q 1678 3084 1418 2786 
Q 1159 2488 1159 1978 
L 1159 0 
L 581 0 
L 581 3500 
L 1159 3500 
L 1159 2956 
Q 1356 3278 1631 3431 
Q 1906 3584 2284 3584 
Q 2666 3584 2933 3390 
Q 3200 3197 3328 2828 
z
" transform="scale(0.015625)"/>
      <path id="DejaVuSans-7a" d="M 353 3500 
L 3084 3500 
L 3084 2975 
L 922 459 
L 3084 459 
L 3084 0 
L 275 0 
L 275 525 
L 2438 3041 
L 353 3041 
L 353 3500 
z
" transform="scale(0.015625)"/>
      <path id="DejaVuSans-45" d="M 628 4666 
L 3578 4666 
L 3578 4134 
L 1259 4134 
L 1259 2753 
L 3481 2753 
L 3481 2222 
L 1259 2222 
L 1259 531 
L 3634 531 
L 3634 0 
L 628 0 
L 628 4666 
z
" transform="scale(0.015625)"/>
      <path id="DejaVuSans-58" d="M 403 4666 
L 1081 4666 
L 2241 2931 
L 3406 4666 
L 4084 4666 
L 2584 2425 
L 4184 0 
L 3506 0 
L 2194 1984 
L 872 0 
L 191 0 
L 1856 2491 
L 403 4666 
z
" transform="scale(0.015625)"/>
      <path id="DejaVuSans-41" d="M 2188 4044 
L 1331 1722 
L 3047 1722 
L 2188 4044 
z
M 1831 4666 
L 2547 4666 
L 4325 0 
L 3669 0 
L 3244 1197 
L 1141 1197 
L 716 0 
L 50 0 
L 1831 4666 
z
" transform="scale(0.015625)"/>
      <path id="DejaVuSans-46" d="M 628 4666 
L 3309 4666 
L 3309 4134 
L 1259 4134 
L 1259 2759 
L 3109 2759 
L 3109 2228 
L 1259 2228 
L 1259 0 
L 628 0 
L 628 4666 
z
" transform="scale(0.015625)"/>
      <path id="DejaVuSans-53" d="M 3425 4513 
L 3425 3897 
Q 3066 4069 2747 4153 
Q 2428 4238 2131 4238 
Q 1616 4238 1336 4038 
Q 1056 3838 1056 3469 
Q 1056 3159 1242 3001 
Q 1428 2844 1947 2747 
L 2328 2669 
Q 3034 2534 3370 2195 
Q 3706 1856 3706 1288 
Q 3706 609 3251 259 
Q 2797 -91 1919 -91 
Q 1588 -91 1214 -16 
Q 841 59 441 206 
L 441 856 
Q 825 641 1194 531 
Q 1563 422 1919 422 
Q 2459 422 2753 634 
Q 3047 847 3047 1241 
Q 3047 1584 2836 1778 
Q 2625 1972 2144 2069 
L 1759 2144 
Q 1053 2284 737 2584 
Q 422 2884 422 3419 
Q 422 4038 858 4394 
Q 1294 4750 2059 4750 
Q 2388 4750 2728 4690 
Q 3069 4631 3425 4513 
z
" transform="scale(0.015625)"/>
     </defs>
     <use xlink:href="#DejaVuSans-59"/>
     <use xlink:href="#DejaVuSans-36" x="61.083984"/>
     <use xlink:href="#DejaVuSans-20" x="124.707031"/>
     <use xlink:href="#DejaVuSans-4e" x="156.494141"/>
     <use xlink:href="#DejaVuSans-6f" x="231.298828"/>
     <use xlink:href="#DejaVuSans-72" x="292.480469"/>
     <use xlink:href="#DejaVuSans-6d" x="331.84375"/>
     <use xlink:href="#DejaVuSans-61" x="429.255859"/>
     <use xlink:href="#DejaVuSans-6c" x="490.535156"/>
     <use xlink:href="#DejaVuSans-69" x="518.318359"/>
     <use xlink:href="#DejaVuSans-7a" x="546.101562"/>
     <use xlink:href="#DejaVuSans-65" x="598.591797"/>
     <use xlink:href="#DejaVuSans-64" x="660.115234"/>
     <use xlink:href="#DejaVuSans-20" x="723.591797"/>
     <use xlink:href="#DejaVuSans-4e" x="755.378906"/>
     <use xlink:href="#DejaVuSans-45" x="830.183594"/>
     <use xlink:href="#DejaVuSans-58" x="893.367188"/>
     <use xlink:href="#DejaVuSans-41" x="961.873047"/>
     <use xlink:href="#DejaVuSans-46" x="1030.28125"/>
     <use xlink:href="#DejaVuSans-53" x="1086.050781"/>
    </g>
   </g>
   <g id="legend_1">
    <g id="patch_7">
     <path d="M 332.075 115.950625 
L 381.8 115.950625 
Q 383.8 115.950625 383.8 113.950625 
L 383.8 41.56 
Q 383.8 39.56 381.8 39.56 
L 332.075 39.56 
Q 330.075 39.56 330.075 41.56 
L 330.075 113.950625 
Q 330.075 115.950625 332.075 115.950625 
z
" style="fill: #ffffff; opacity: 0.8; stroke: #cccccc; stroke-linejoin: miter"/>
    </g>
    <g id="line2d_21">
     <path d="M 334.075 47.658437 
L 344.075 47.658437 
L 354.075 47.658437 
" style="fill: none; stroke: #440154; stroke-width: 1.5; stroke-linecap: square"/>
    </g>
    <g id="text_19">
     <!-- 30 -->
     <g transform="translate(362.075 51.158437)scale(0.1 -0.1)">
      <defs>
       <path id="DejaVuSans-b0" d="M 1600 4347 
Q 1350 4347 1178 4173 
Q 1006 4000 1006 3750 
Q 1006 3503 1178 3333 
Q 1350 3163 1600 3163 
Q 1850 3163 2022 3333 
Q 2194 3503 2194 3750 
Q 2194 3997 2020 4172 
Q 1847 4347 1600 4347 
z
M 1600 4750 
Q 1800 4750 1984 4673 
Q 2169 4597 2303 4453 
Q 2447 4313 2519 4134 
Q 2591 3956 2591 3750 
Q 2591 3338 2302 3052 
Q 2013 2766 1594 2766 
Q 1172 2766 890 3047 
Q 609 3328 609 3750 
Q 609 4169 896 4459 
Q 1184 4750 1600 4750 
z
" transform="scale(0.015625)"/>
      </defs>
      <use xlink:href="#DejaVuSans-33"/>
      <use xlink:href="#DejaVuSans-30" x="63.623047"/>
      <use xlink:href="#DejaVuSans-b0" x="127.246094"/>
     </g>
    </g>
    <g id="line2d_22">
     <path d="M 334.075 62.336562 
L 344.075 62.336562 
L 354.075 62.336562 
" style="fill: none; stroke: #414487; stroke-width: 1.5; stroke-linecap: square"/>
    </g>
    <g id="text_20">
     <!-- 40 -->
     <g transform="translate(362.075 65.836562)scale(0.1 -0.1)">
      <defs>
       <path id="DejaVuSans-34" d="M 2419 4116 
L 825 1625 
L 2419 1625 
L 2419 4116 
z
M 2253 4666 
L 3047 4666 
L 3047 1625 
L 3713 1625 
L 3713 1100 
L 3047 1100 
L 3047 0 
L 2419 0 
L 2419 1100 
L 313 1100 
L 313 1709 
L 2253 4666 
z
" transform="scale(0.015625)"/>
      </defs>
      <use xlink:href="#DejaVuSans-34"/>
      <use xlink:href="#DejaVuSans-30" x="63.623047"/>
      <use xlink:href="#DejaVuSans-b0" x="127.246094"/>
     </g>
    </g>
    <g id="line2d_23">
     <path d="M 334.075 77.014687 
L 344.075 77.014687 
L 354.075 77.014687 
" style="fill: none; stroke: #2a788e; stroke-width: 1.5; stroke-linecap: square"/>
    </g>
    <g id="text_21">
     <!-- 55 -->
     <g transform="translate(362.075 80.514687)scale(0.1 -0.1)">
      <use xlink:href="#DejaVuSans-35"/>
      <use xlink:href="#DejaVuSans-35" x="63.623047"/>
      <use xlink:href="#DejaVuSans-b0" x="127.246094"/>
     </g>
    </g>
    <g id="line2d_24">
     <path d="M 334.075 91.692813 
L 344.075 91.692813 
L 354.075 91.692813 
" style="fill: none; stroke: #22a884; stroke-width: 1.5; stroke-linecap: square"/>
    </g>
    <g id="text_22">
     <!-- 70 -->
     <g transform="translate(362.075 95.192813)scale(0.1 -0.1)">
      <defs>
       <path id="DejaVuSans-37" d="M 525 4666 
L 3525 4666 
L 3525 4397 
L 1831 0 
L 1172 0 
L 2766 4134 
L 525 4134 
L 525 4666 
z
" transform="scale(0.015625)"/>
      </defs>
      <use xlink:href="#DejaVuSans-37"/>
      <use xlink:href="#DejaVuSans-30" x="63.623047"/>
      <use xlink:href="#DejaVuSans-b0" x="127.246094"/>
     </g>
    </g>
    <g id="line2d_25">
     <path d="M 334.075 106.370937 
L 344.075 106.370937 
L 354.075 106.370937 
" style="fill: none; stroke: #7ad151; stroke-width: 1.5; stroke-linecap: square"/>
    </g>
    <g id="text_23">
     <!-- 90 -->
     <g transform="translate(362.075 109.870937)scale(0.1 -0.1)">
      <use xlink:href="#DejaVuSans-39"/>
      <use xlink:href="#DejaVuSans-30" x="63.623047"/>
      <use xlink:href="#DejaVuSans-b0" x="127.246094"/>
     </g>
    </g>
   </g>
  </g>
 </g>
 <defs>
  <clipPath id="p3215350a29">
   <rect x="54" y="34.56" width="334.8" height="217.44"/>
  </clipPath>
 </defs>
</svg>
