<?xml version="1.0" encoding="utf-8" standalone="no"?>
<!DOCTYPE svg PUBLIC "-//W3C//DTD SVG 1.1//EN"
  "http://www.w3.org/Graphics/SVG/1.1/DTD/svg11.dtd">
<svg xmlns:xlink="http://www.w3.org/1999/xlink" width="576pt" height="288pt" viewBox="0 0 576 288" xmlns="http://www.w3.org/2000/svg" version="1.1">
 <metadata>
  <rdf:RDF xmlns:dc="http://purl.org/dc/elements/1.1/" xmlns:cc="http://creativecommons.org/ns#" xmlns:rdf="http://www.w3.org/1999/02/22-rdf-syntax-ns#">
   <cc:Work>
    <dc:type rdf:resource="http://purl.org/dc/dcmitype/StillImage"/>
    <dc:date>2023-04-11T14:44:20.337427</dc:date>
    <dc:format>image/svg+xml</dc:format>
    <dc:creator>
     <cc:Agent>
      <dc:title>Matplotlib v3.5.1, https://matplotlib.org/</dc:title>
     </cc:Agent>
    </dc:creator>
   </cc:Work>
  </rdf:RDF>
 </metadata>
 <defs>
  <style type="text/css">*{stroke-linejoin: round; stroke-linecap: butt}</style>
 </defs>
 <g id="figure_1">
  <g id="patch_1">
   <path d="M 0 288 
L 576 288 
L 576 0 
L 0 0 
L 0 288 
z
" style="fill: none"/>
  </g>
  <g id="axes_1">
   <g id="patch_2">
    <path d="M 72 252 
L 518.4 252 
L 518.4 34.56 
L 72 34.56 
z
" style="fill: #ffffff"/>
   </g>
   <g id="matplotlib.axis_1">
    <g id="xtick_1">
     <g id="line2d_1">
      <defs>
       <path id="m543e0d5c66" d="M 0 0 
L 0 3.5 
" style="stroke: #000000; stroke-width: 0.8"/>
      </defs>
      <g>
       <use xlink:href="#m543e0d5c66" x="72" y="252" style="stroke: #000000; stroke-width: 0.8"/>
      </g>
     </g>
     <g id="text_1">
      <!-- 280 -->
      <g transform="translate(62.45625 266.598437)scale(0.1 -0.1)">
       <defs>
        <path id="DejaVuSans-32" d="M 1228 531 
L 3431 531 
L 3431 0 
L 469 0 
L 469 531 
Q 828 903 1448 1529 
Q 2069 2156 2228 2338 
Q 2531 2678 2651 2914 
Q 2772 3150 2772 3378 
Q 2772 3750 2511 3984 
Q 2250 4219 1831 4219 
Q 1534 4219 1204 4116 
Q 875 4013 500 3803 
L 500 4441 
Q 881 4594 1212 4672 
Q 1544 4750 1819 4750 
Q 2544 4750 2975 4387 
Q 3406 4025 3406 3419 
Q 3406 3131 3298 2873 
Q 3191 2616 2906 2266 
Q 2828 2175 2409 1742 
Q 1991 1309 1228 531 
z
" transform="scale(0.015625)"/>
        <path id="DejaVuSans-38" d="M 2034 2216 
Q 1584 2216 1326 1975 
Q 1069 1734 1069 1313 
Q 1069 891 1326 650 
Q 1584 409 2034 409 
Q 2484 409 2743 651 
Q 3003 894 3003 1313 
Q 3003 1734 2745 1975 
Q 2488 2216 2034 2216 
z
M 1403 2484 
Q 997 2584 770 2862 
Q 544 3141 544 3541 
Q 544 4100 942 4425 
Q 1341 4750 2034 4750 
Q 2731 4750 3128 4425 
Q 3525 4100 3525 3541 
Q 3525 3141 3298 2862 
Q 3072 2584 2669 2484 
Q 3125 2378 3379 2068 
Q 3634 1759 3634 1313 
Q 3634 634 3220 271 
Q 2806 -91 2034 -91 
Q 1263 -91 848 271 
Q 434 634 434 1313 
Q 434 1759 690 2068 
Q 947 2378 1403 2484 
z
M 1172 3481 
Q 1172 3119 1398 2916 
Q 1625 2713 2034 2713 
Q 2441 2713 2670 2916 
Q 2900 3119 2900 3481 
Q 2900 3844 2670 4047 
Q 2441 4250 2034 4250 
Q 1625 4250 1398 4047 
Q 1172 3844 1172 3481 
z
" transform="scale(0.015625)"/>
        <path id="DejaVuSans-30" d="M 2034 4250 
Q 1547 4250 1301 3770 
Q 1056 3291 1056 2328 
Q 1056 1369 1301 889 
Q 1547 409 2034 409 
Q 2525 409 2770 889 
Q 3016 1369 3016 2328 
Q 3016 3291 2770 3770 
Q 2525 4250 2034 4250 
z
M 2034 4750 
Q 2819 4750 3233 4129 
Q 3647 3509 3647 2328 
Q 3647 1150 3233 529 
Q 2819 -91 2034 -91 
Q 1250 -91 836 529 
Q 422 1150 422 2328 
Q 422 3509 836 4129 
Q 1250 4750 2034 4750 
z
" transform="scale(0.015625)"/>
       </defs>
       <use xlink:href="#DejaVuSans-32"/>
       <use xlink:href="#DejaVuSans-38" x="63.623047"/>
       <use xlink:href="#DejaVuSans-30" x="127.246094"/>
      </g>
     </g>
    </g>
    <g id="xtick_2">
     <g id="line2d_2">
      <g>
       <use xlink:href="#m543e0d5c66" x="135.771429" y="252" style="stroke: #000000; stroke-width: 0.8"/>
      </g>
     </g>
     <g id="text_2">
      <!-- 285 -->
      <g transform="translate(126.227679 266.598437)scale(0.1 -0.1)">
       <defs>
        <path id="DejaVuSans-35" d="M 691 4666 
L 3169 4666 
L 3169 4134 
L 1269 4134 
L 1269 2991 
Q 1406 3038 1543 3061 
Q 1681 3084 1819 3084 
Q 2600 3084 3056 2656 
Q 3513 2228 3513 1497 
Q 3513 744 3044 326 
Q 2575 -91 1722 -91 
Q 1428 -91 1123 -41 
Q 819 9 494 109 
L 494 744 
Q 775 591 1075 516 
Q 1375 441 1709 441 
Q 2250 441 2565 725 
Q 2881 1009 2881 1497 
Q 2881 1984 2565 2268 
Q 2250 2553 1709 2553 
Q 1456 2553 1204 2497 
Q 953 2441 691 2322 
L 691 4666 
z
" transform="scale(0.015625)"/>
       </defs>
       <use xlink:href="#DejaVuSans-32"/>
       <use xlink:href="#DejaVuSans-38" x="63.623047"/>
       <use xlink:href="#DejaVuSans-35" x="127.246094"/>
      </g>
     </g>
    </g>
    <g id="xtick_3">
     <g id="line2d_3">
      <g>
       <use xlink:href="#m543e0d5c66" x="199.542857" y="252" style="stroke: #000000; stroke-width: 0.8"/>
      </g>
     </g>
     <g id="text_3">
      <!-- 290 -->
      <g transform="translate(189.999107 266.598437)scale(0.1 -0.1)">
       <defs>
        <path id="DejaVuSans-39" d="M 703 97 
L 703 672 
Q 941 559 1184 500 
Q 1428 441 1663 441 
Q 2288 441 2617 861 
Q 2947 1281 2994 2138 
Q 2813 1869 2534 1725 
Q 2256 1581 1919 1581 
Q 1219 1581 811 2004 
Q 403 2428 403 3163 
Q 403 3881 828 4315 
Q 1253 4750 1959 4750 
Q 2769 4750 3195 4129 
Q 3622 3509 3622 2328 
Q 3622 1225 3098 567 
Q 2575 -91 1691 -91 
Q 1453 -91 1209 -44 
Q 966 3 703 97 
z
M 1959 2075 
Q 2384 2075 2632 2365 
Q 2881 2656 2881 3163 
Q 2881 3666 2632 3958 
Q 2384 4250 1959 4250 
Q 1534 4250 1286 3958 
Q 1038 3666 1038 3163 
Q 1038 2656 1286 2365 
Q 1534 2075 1959 2075 
z
" transform="scale(0.015625)"/>
       </defs>
       <use xlink:href="#DejaVuSans-32"/>
       <use xlink:href="#DejaVuSans-39" x="63.623047"/>
       <use xlink:href="#DejaVuSans-30" x="127.246094"/>
      </g>
     </g>
    </g>
    <g id="xtick_4">
     <g id="line2d_4">
      <g>
       <use xlink:href="#m543e0d5c66" x="263.314286" y="252" style="stroke: #000000; stroke-width: 0.8"/>
      </g>
     </g>
     <g id="text_4">
      <!-- 295 -->
      <g transform="translate(253.770536 266.598437)scale(0.1 -0.1)">
       <use xlink:href="#DejaVuSans-32"/>
       <use xlink:href="#DejaVuSans-39" x="63.623047"/>
       <use xlink:href="#DejaVuSans-35" x="127.246094"/>
      </g>
     </g>
    </g>
    <g id="xtick_5">
     <g id="line2d_5">
      <g>
       <use xlink:href="#m543e0d5c66" x="327.085714" y="252" style="stroke: #000000; stroke-width: 0.8"/>
      </g>
     </g>
     <g id="text_5">
      <!-- 300 -->
      <g transform="translate(317.541964 266.598437)scale(0.1 -0.1)">
       <defs>
        <path id="DejaVuSans-33" d="M 2597 2516 
Q 3050 2419 3304 2112 
Q 3559 1806 3559 1356 
Q 3559 666 3084 287 
Q 2609 -91 1734 -91 
Q 1441 -91 1130 -33 
Q 819 25 488 141 
L 488 750 
Q 750 597 1062 519 
Q 1375 441 1716 441 
Q 2309 441 2620 675 
Q 2931 909 2931 1356 
Q 2931 1769 2642 2001 
Q 2353 2234 1838 2234 
L 1294 2234 
L 1294 2753 
L 1863 2753 
Q 2328 2753 2575 2939 
Q 2822 3125 2822 3475 
Q 2822 3834 2567 4026 
Q 2313 4219 1838 4219 
Q 1578 4219 1281 4162 
Q 984 4106 628 3988 
L 628 4550 
Q 988 4650 1302 4700 
Q 1616 4750 1894 4750 
Q 2613 4750 3031 4423 
Q 3450 4097 3450 3541 
Q 3450 3153 3228 2886 
Q 3006 2619 2597 2516 
z
" transform="scale(0.015625)"/>
       </defs>
       <use xlink:href="#DejaVuSans-33"/>
       <use xlink:href="#DejaVuSans-30" x="63.623047"/>
       <use xlink:href="#DejaVuSans-30" x="127.246094"/>
      </g>
     </g>
    </g>
    <g id="xtick_6">
     <g id="line2d_6">
      <g>
       <use xlink:href="#m543e0d5c66" x="390.857143" y="252" style="stroke: #000000; stroke-width: 0.8"/>
      </g>
     </g>
     <g id="text_6">
      <!-- 305 -->
      <g transform="translate(381.313393 266.598437)scale(0.1 -0.1)">
       <use xlink:href="#DejaVuSans-33"/>
       <use xlink:href="#DejaVuSans-30" x="63.623047"/>
       <use xlink:href="#DejaVuSans-35" x="127.246094"/>
      </g>
     </g>
    </g>
    <g id="xtick_7">
     <g id="line2d_7">
      <g>
       <use xlink:href="#m543e0d5c66" x="454.628571" y="252" style="stroke: #000000; stroke-width: 0.8"/>
      </g>
     </g>
     <g id="text_7">
      <!-- 310 -->
      <g transform="translate(445.084821 266.598437)scale(0.1 -0.1)">
       <defs>
        <path id="DejaVuSans-31" d="M 794 531 
L 1825 531 
L 1825 4091 
L 703 3866 
L 703 4441 
L 1819 4666 
L 2450 4666 
L 2450 531 
L 3481 531 
L 3481 0 
L 794 0 
L 794 531 
z
" transform="scale(0.015625)"/>
       </defs>
       <use xlink:href="#DejaVuSans-33"/>
       <use xlink:href="#DejaVuSans-31" x="63.623047"/>
       <use xlink:href="#DejaVuSans-30" x="127.246094"/>
      </g>
     </g>
    </g>
    <g id="xtick_8">
     <g id="line2d_8">
      <g>
       <use xlink:href="#m543e0d5c66" x="518.4" y="252" style="stroke: #000000; stroke-width: 0.8"/>
      </g>
     </g>
     <g id="text_8">
      <!-- 315 -->
      <g transform="translate(508.85625 266.598437)scale(0.1 -0.1)">
       <use xlink:href="#DejaVuSans-33"/>
       <use xlink:href="#DejaVuSans-31" x="63.623047"/>
       <use xlink:href="#DejaVuSans-35" x="127.246094"/>
      </g>
     </g>
    </g>
    <g id="text_9">
     <!-- energy [eV] -->
     <g transform="translate(265.789062 280.276563)scale(0.1 -0.1)">
      <defs>
       <path id="DejaVuSans-65" d="M 3597 1894 
L 3597 1613 
L 953 1613 
Q 991 1019 1311 708 
Q 1631 397 2203 397 
Q 2534 397 2845 478 
Q 3156 559 3463 722 
L 3463 178 
Q 3153 47 2828 -22 
Q 2503 -91 2169 -91 
Q 1331 -91 842 396 
Q 353 884 353 1716 
Q 353 2575 817 3079 
Q 1281 3584 2069 3584 
Q 2775 3584 3186 3129 
Q 3597 2675 3597 1894 
z
M 3022 2063 
Q 3016 2534 2758 2815 
Q 2500 3097 2075 3097 
Q 1594 3097 1305 2825 
Q 1016 2553 972 2059 
L 3022 2063 
z
" transform="scale(0.015625)"/>
       <path id="DejaVuSans-6e" d="M 3513 2113 
L 3513 0 
L 2938 0 
L 2938 2094 
Q 2938 2591 2744 2837 
Q 2550 3084 2163 3084 
Q 1697 3084 1428 2787 
Q 1159 2491 1159 1978 
L 1159 0 
L 581 0 
L 581 3500 
L 1159 3500 
L 1159 2956 
Q 1366 3272 1645 3428 
Q 1925 3584 2291 3584 
Q 2894 3584 3203 3211 
Q 3513 2838 3513 2113 
z
" transform="scale(0.015625)"/>
       <path id="DejaVuSans-72" d="M 2631 2963 
Q 2534 3019 2420 3045 
Q 2306 3072 2169 3072 
Q 1681 3072 1420 2755 
Q 1159 2438 1159 1844 
L 1159 0 
L 581 0 
L 581 3500 
L 1159 3500 
L 1159 2956 
Q 1341 3275 1631 3429 
Q 1922 3584 2338 3584 
Q 2397 3584 2469 3576 
Q 2541 3569 2628 3553 
L 2631 2963 
z
" transform="scale(0.015625)"/>
       <path id="DejaVuSans-67" d="M 2906 1791 
Q 2906 2416 2648 2759 
Q 2391 3103 1925 3103 
Q 1463 3103 1205 2759 
Q 947 2416 947 1791 
Q 947 1169 1205 825 
Q 1463 481 1925 481 
Q 2391 481 2648 825 
Q 2906 1169 2906 1791 
z
M 3481 434 
Q 3481 -459 3084 -895 
Q 2688 -1331 1869 -1331 
Q 1566 -1331 1297 -1286 
Q 1028 -1241 775 -1147 
L 775 -588 
Q 1028 -725 1275 -790 
Q 1522 -856 1778 -856 
Q 2344 -856 2625 -561 
Q 2906 -266 2906 331 
L 2906 616 
Q 2728 306 2450 153 
Q 2172 0 1784 0 
Q 1141 0 747 490 
Q 353 981 353 1791 
Q 353 2603 747 3093 
Q 1141 3584 1784 3584 
Q 2172 3584 2450 3431 
Q 2728 3278 2906 2969 
L 2906 3500 
L 3481 3500 
L 3481 434 
z
" transform="scale(0.015625)"/>
       <path id="DejaVuSans-79" d="M 2059 -325 
Q 1816 -950 1584 -1140 
Q 1353 -1331 966 -1331 
L 506 -1331 
L 506 -850 
L 844 -850 
Q 1081 -850 1212 -737 
Q 1344 -625 1503 -206 
L 1606 56 
L 191 3500 
L 800 3500 
L 1894 763 
L 2988 3500 
L 3597 3500 
L 2059 -325 
z
" transform="scale(0.015625)"/>
       <path id="DejaVuSans-20" transform="scale(0.015625)"/>
       <path id="DejaVuSans-5b" d="M 550 4863 
L 1875 4863 
L 1875 4416 
L 1125 4416 
L 1125 -397 
L 1875 -397 
L 1875 -844 
L 550 -844 
L 550 4863 
z
" transform="scale(0.015625)"/>
       <path id="DejaVuSans-56" d="M 1831 0 
L 50 4666 
L 709 4666 
L 2188 738 
L 3669 4666 
L 4325 4666 
L 2547 0 
L 1831 0 
z
" transform="scale(0.015625)"/>
       <path id="DejaVuSans-5d" d="M 1947 4863 
L 1947 -844 
L 622 -844 
L 622 -397 
L 1369 -397 
L 1369 4416 
L 622 4416 
L 622 4863 
L 1947 4863 
z
" transform="scale(0.015625)"/>
      </defs>
      <use xlink:href="#DejaVuSans-65"/>
      <use xlink:href="#DejaVuSans-6e" x="61.523438"/>
      <use xlink:href="#DejaVuSans-65" x="124.902344"/>
      <use xlink:href="#DejaVuSans-72" x="186.425781"/>
      <use xlink:href="#DejaVuSans-67" x="225.789062"/>
      <use xlink:href="#DejaVuSans-79" x="289.265625"/>
      <use xlink:href="#DejaVuSans-20" x="348.445312"/>
      <use xlink:href="#DejaVuSans-5b" x="380.232422"/>
      <use xlink:href="#DejaVuSans-65" x="419.246094"/>
      <use xlink:href="#DejaVuSans-56" x="480.769531"/>
      <use xlink:href="#DejaVuSans-5d" x="549.177734"/>
     </g>
    </g>
   </g>
   <g id="matplotlib.axis_2">
    <g id="ytick_1">
     <g id="line2d_9">
      <defs>
       <path id="m2736455b72" d="M 0 0 
L -3.5 0 
" style="stroke: #000000; stroke-width: 0.8"/>
      </defs>
      <g>
       <use xlink:href="#m2736455b72" x="72" y="238.020351" style="stroke: #000000; stroke-width: 0.8"/>
      </g>
     </g>
     <g id="text_10">
      <!-- 0.0 -->
      <g transform="translate(49.096875 241.81957)scale(0.1 -0.1)">
       <defs>
        <path id="DejaVuSans-2e" d="M 684 794 
L 1344 794 
L 1344 0 
L 684 0 
L 684 794 
z
" transform="scale(0.015625)"/>
       </defs>
       <use xlink:href="#DejaVuSans-30"/>
       <use xlink:href="#DejaVuSans-2e" x="63.623047"/>
       <use xlink:href="#DejaVuSans-30" x="95.410156"/>
      </g>
     </g>
    </g>
    <g id="ytick_2">
     <g id="line2d_10">
      <g>
       <use xlink:href="#m2736455b72" x="72" y="210.771855" style="stroke: #000000; stroke-width: 0.8"/>
      </g>
     </g>
     <g id="text_11">
      <!-- 0.5 -->
      <g transform="translate(49.096875 214.571074)scale(0.1 -0.1)">
       <use xlink:href="#DejaVuSans-30"/>
       <use xlink:href="#DejaVuSans-2e" x="63.623047"/>
       <use xlink:href="#DejaVuSans-35" x="95.410156"/>
      </g>
     </g>
    </g>
    <g id="ytick_3">
     <g id="line2d_11">
      <g>
       <use xlink:href="#m2736455b72" x="72" y="183.523359" style="stroke: #000000; stroke-width: 0.8"/>
      </g>
     </g>
     <g id="text_12">
      <!-- 1.0 -->
      <g transform="translate(49.096875 187.322578)scale(0.1 -0.1)">
       <use xlink:href="#DejaVuSans-31"/>
       <use xlink:href="#DejaVuSans-2e" x="63.623047"/>
       <use xlink:href="#DejaVuSans-30" x="95.410156"/>
      </g>
     </g>
    </g>
    <g id="ytick_4">
     <g id="line2d_12">
      <g>
       <use xlink:href="#m2736455b72" x="72" y="156.274863" style="stroke: #000000; stroke-width: 0.8"/>
      </g>
     </g>
     <g id="text_13">
      <!-- 1.5 -->
      <g transform="translate(49.096875 160.074082)scale(0.1 -0.1)">
       <use xlink:href="#DejaVuSans-31"/>
       <use xlink:href="#DejaVuSans-2e" x="63.623047"/>
       <use xlink:href="#DejaVuSans-35" x="95.410156"/>
      </g>
     </g>
    </g>
    <g id="ytick_5">
     <g id="line2d_13">
      <g>
       <use xlink:href="#m2736455b72" x="72" y="129.026367" style="stroke: #000000; stroke-width: 0.8"/>
      </g>
     </g>
     <g id="text_14">
      <!-- 2.0 -->
      <g transform="translate(49.096875 132.825586)scale(0.1 -0.1)">
       <use xlink:href="#DejaVuSans-32"/>
       <use xlink:href="#DejaVuSans-2e" x="63.623047"/>
       <use xlink:href="#DejaVuSans-30" x="95.410156"/>
      </g>
     </g>
    </g>
    <g id="ytick_6">
     <g id="line2d_14">
      <g>
       <use xlink:href="#m2736455b72" x="72" y="101.777871" style="stroke: #000000; stroke-width: 0.8"/>
      </g>
     </g>
     <g id="text_15">
      <!-- 2.5 -->
      <g transform="translate(49.096875 105.577089)scale(0.1 -0.1)">
       <use xlink:href="#DejaVuSans-32"/>
       <use xlink:href="#DejaVuSans-2e" x="63.623047"/>
       <use xlink:href="#DejaVuSans-35" x="95.410156"/>
      </g>
     </g>
    </g>
    <g id="ytick_7">
     <g id="line2d_15">
      <g>
       <use xlink:href="#m2736455b72" x="72" y="74.529375" style="stroke: #000000; stroke-width: 0.8"/>
      </g>
     </g>
     <g id="text_16">
      <!-- 3.0 -->
      <g transform="translate(49.096875 78.328593)scale(0.1 -0.1)">
       <use xlink:href="#DejaVuSans-33"/>
       <use xlink:href="#DejaVuSans-2e" x="63.623047"/>
       <use xlink:href="#DejaVuSans-30" x="95.410156"/>
      </g>
     </g>
    </g>
    <g id="ytick_8">
     <g id="line2d_16">
      <g>
       <use xlink:href="#m2736455b72" x="72" y="47.280879" style="stroke: #000000; stroke-width: 0.8"/>
      </g>
     </g>
     <g id="text_17">
      <!-- 3.5 -->
      <g transform="translate(49.096875 51.080097)scale(0.1 -0.1)">
       <use xlink:href="#DejaVuSans-33"/>
       <use xlink:href="#DejaVuSans-2e" x="63.623047"/>
       <use xlink:href="#DejaVuSans-35" x="95.410156"/>
      </g>
     </g>
    </g>
    <g id="text_18">
     <!-- electron_yield [a.u.] -->
     <g transform="translate(42.739062 193.0925)rotate(-90)scale(0.1 -0.1)">
      <defs>
       <path id="DejaVuSans-6c" d="M 603 4863 
L 1178 4863 
L 1178 0 
L 603 0 
L 603 4863 
z
" transform="scale(0.015625)"/>
       <path id="DejaVuSans-63" d="M 3122 3366 
L 3122 2828 
Q 2878 2963 2633 3030 
Q 2388 3097 2138 3097 
Q 1578 3097 1268 2742 
Q 959 2388 959 1747 
Q 959 1106 1268 751 
Q 1578 397 2138 397 
Q 2388 397 2633 464 
Q 2878 531 3122 666 
L 3122 134 
Q 2881 22 2623 -34 
Q 2366 -91 2075 -91 
Q 1284 -91 818 406 
Q 353 903 353 1747 
Q 353 2603 823 3093 
Q 1294 3584 2113 3584 
Q 2378 3584 2631 3529 
Q 2884 3475 3122 3366 
z
" transform="scale(0.015625)"/>
       <path id="DejaVuSans-74" d="M 1172 4494 
L 1172 3500 
L 2356 3500 
L 2356 3053 
L 1172 3053 
L 1172 1153 
Q 1172 725 1289 603 
Q 1406 481 1766 481 
L 2356 481 
L 2356 0 
L 1766 0 
Q 1100 0 847 248 
Q 594 497 594 1153 
L 594 3053 
L 172 3053 
L 172 3500 
L 594 3500 
L 594 4494 
L 1172 4494 
z
" transform="scale(0.015625)"/>
       <path id="DejaVuSans-6f" d="M 1959 3097 
Q 1497 3097 1228 2736 
Q 959 2375 959 1747 
Q 959 1119 1226 758 
Q 1494 397 1959 397 
Q 2419 397 2687 759 
Q 2956 1122 2956 1747 
Q 2956 2369 2687 2733 
Q 2419 3097 1959 3097 
z
M 1959 3584 
Q 2709 3584 3137 3096 
Q 3566 2609 3566 1747 
Q 3566 888 3137 398 
Q 2709 -91 1959 -91 
Q 1206 -91 779 398 
Q 353 888 353 1747 
Q 353 2609 779 3096 
Q 1206 3584 1959 3584 
z
" transform="scale(0.015625)"/>
       <path id="DejaVuSans-5f" d="M 3263 -1063 
L 3263 -1509 
L -63 -1509 
L -63 -1063 
L 3263 -1063 
z
" transform="scale(0.015625)"/>
       <path id="DejaVuSans-69" d="M 603 3500 
L 1178 3500 
L 1178 0 
L 603 0 
L 603 3500 
z
M 603 4863 
L 1178 4863 
L 1178 4134 
L 603 4134 
L 603 4863 
z
" transform="scale(0.015625)"/>
       <path id="DejaVuSans-64" d="M 2906 2969 
L 2906 4863 
L 3481 4863 
L 3481 0 
L 2906 0 
L 2906 525 
Q 2725 213 2448 61 
Q 2172 -91 1784 -91 
Q 1150 -91 751 415 
Q 353 922 353 1747 
Q 353 2572 751 3078 
Q 1150 3584 1784 3584 
Q 2172 3584 2448 3432 
Q 2725 3281 2906 2969 
z
M 947 1747 
Q 947 1113 1208 752 
Q 1469 391 1925 391 
Q 2381 391 2643 752 
Q 2906 1113 2906 1747 
Q 2906 2381 2643 2742 
Q 2381 3103 1925 3103 
Q 1469 3103 1208 2742 
Q 947 2381 947 1747 
z
" transform="scale(0.015625)"/>
       <path id="DejaVuSans-61" d="M 2194 1759 
Q 1497 1759 1228 1600 
Q 959 1441 959 1056 
Q 959 750 1161 570 
Q 1363 391 1709 391 
Q 2188 391 2477 730 
Q 2766 1069 2766 1631 
L 2766 1759 
L 2194 1759 
z
M 3341 1997 
L 3341 0 
L 2766 0 
L 2766 531 
Q 2569 213 2275 61 
Q 1981 -91 1556 -91 
Q 1019 -91 701 211 
Q 384 513 384 1019 
Q 384 1609 779 1909 
Q 1175 2209 1959 2209 
L 2766 2209 
L 2766 2266 
Q 2766 2663 2505 2880 
Q 2244 3097 1772 3097 
Q 1472 3097 1187 3025 
Q 903 2953 641 2809 
L 641 3341 
Q 956 3463 1253 3523 
Q 1550 3584 1831 3584 
Q 2591 3584 2966 3190 
Q 3341 2797 3341 1997 
z
" transform="scale(0.015625)"/>
       <path id="DejaVuSans-75" d="M 544 1381 
L 544 3500 
L 1119 3500 
L 1119 1403 
Q 1119 906 1312 657 
Q 1506 409 1894 409 
Q 2359 409 2629 706 
Q 2900 1003 2900 1516 
L 2900 3500 
L 3475 3500 
L 3475 0 
L 2900 0 
L 2900 538 
Q 2691 219 2414 64 
Q 2138 -91 1772 -91 
Q 1169 -91 856 284 
Q 544 659 544 1381 
z
M 1991 3584 
L 1991 3584 
z
" transform="scale(0.015625)"/>
      </defs>
      <use xlink:href="#DejaVuSans-65"/>
      <use xlink:href="#DejaVuSans-6c" x="61.523438"/>
      <use xlink:href="#DejaVuSans-65" x="89.306641"/>
      <use xlink:href="#DejaVuSans-63" x="150.830078"/>
      <use xlink:href="#DejaVuSans-74" x="205.810547"/>
      <use xlink:href="#DejaVuSans-72" x="245.019531"/>
      <use xlink:href="#DejaVuSans-6f" x="283.882812"/>
      <use xlink:href="#DejaVuSans-6e" x="345.064453"/>
      <use xlink:href="#DejaVuSans-5f" x="408.443359"/>
      <use xlink:href="#DejaVuSans-79" x="458.443359"/>
      <use xlink:href="#DejaVuSans-69" x="517.623047"/>
      <use xlink:href="#DejaVuSans-65" x="545.40625"/>
      <use xlink:href="#DejaVuSans-6c" x="606.929688"/>
      <use xlink:href="#DejaVuSans-64" x="634.712891"/>
      <use xlink:href="#DejaVuSans-20" x="698.189453"/>
      <use xlink:href="#DejaVuSans-5b" x="729.976562"/>
      <use xlink:href="#DejaVuSans-61" x="768.990234"/>
      <use xlink:href="#DejaVuSans-2e" x="830.269531"/>
      <use xlink:href="#DejaVuSans-75" x="862.056641"/>
      <use xlink:href="#DejaVuSans-2e" x="925.435547"/>
      <use xlink:href="#DejaVuSans-5d" x="957.222656"/>
     </g>
    </g>
   </g>
   <g id="line2d_17">
    <path d="M 84.754286 239.970811 
L 86.640258 239.456441 
L 88.52623 238.712037 
L 90.412202 238.207342 
L 92.298174 238.665832 
L 94.184146 239.611937 
L 96.070118 238.881551 
L 97.95609 241.341523 
L 99.842062 240.188728 
L 101.728034 238.510446 
L 103.614006 239.435828 
L 105.499979 238.927256 
L 107.385951 238.271969 
L 109.271923 237.399376 
L 111.157895 238.135487 
L 113.043867 240.478103 
L 114.929839 237.389201 
L 116.815811 237.451459 
L 118.701783 235.429843 
L 120.587755 234.267981 
L 122.473727 227.694218 
L 124.359699 197.69431 
L 126.245671 157.248328 
L 128.131643 144.097708 
L 130.017615 147.138445 
L 131.903588 112.953467 
L 133.78956 84.551433 
L 135.675532 108.865239 
L 137.561504 155.362355 
L 139.447476 174.831581 
L 141.333448 173.300042 
L 143.21942 153.104769 
L 145.105392 135.139875 
L 146.991364 128.583202 
L 150.763308 113.141852 
L 152.64928 107.86191 
L 154.535252 112.656144 
L 156.421224 118.010249 
L 158.307197 116.636553 
L 160.193169 98.506623 
L 162.079141 84.597578 
L 163.965113 76.966038 
L 165.851085 74.589387 
L 167.737057 71.846696 
L 169.623029 60.236462 
L 171.509001 44.543353 
L 173.394973 44.443636 
L 175.280945 55.621496 
L 177.166917 73.066215 
L 179.052889 86.569247 
L 180.938861 93.411604 
L 182.824834 98.344763 
L 184.710806 102.324565 
L 186.596778 104.207767 
L 188.48275 106.255718 
L 190.368722 101.069612 
L 192.254694 101.838025 
L 194.140666 104.66827 
L 196.026638 109.263064 
L 197.91261 111.58674 
L 199.798582 115.346016 
L 201.684554 116.397065 
L 203.570526 118.241021 
L 205.456498 114.629359 
L 207.34247 112.281822 
L 209.228443 112.866297 
L 211.114415 109.32712 
L 213.000387 107.196199 
L 214.886359 101.543638 
L 216.772331 100.782343 
L 218.658303 97.774286 
L 220.544275 98.03746 
L 222.430247 96.261307 
L 224.316219 93.766945 
L 226.202191 95.691204 
L 228.088163 96.783839 
L 229.974135 96.13149 
L 231.860107 98.163919 
L 233.746079 100.959624 
L 235.632052 102.603823 
L 237.518024 102.494292 
L 239.403996 103.311101 
L 241.289968 106.277172 
L 243.17594 106.414694 
L 245.061912 107.939854 
L 246.947884 109.057212 
L 248.833856 109.869276 
L 250.719828 111.633029 
L 252.6058 114.391835 
L 254.491772 114.260349 
L 256.377744 114.5876 
L 258.263716 116.64816 
L 260.149689 118.337911 
L 262.035661 119.542996 
L 263.921633 120.277063 
L 265.807605 123.175369 
L 267.693577 121.676342 
L 269.579549 126.200103 
L 271.465521 124.927995 
L 273.351493 126.864236 
L 275.237465 126.871409 
L 277.123437 128.546852 
L 279.009409 127.234559 
L 280.895381 131.210633 
L 282.781353 130.058929 
L 284.667325 131.54328 
L 286.553298 131.586721 
L 288.43927 132.302246 
L 290.325242 135.786969 
L 292.211214 134.996636 
L 294.097186 134.911242 
L 297.86913 136.769801 
L 299.755102 137.839762 
L 301.641074 137.899074 
L 303.527046 137.830417 
L 305.413018 138.081662 
L 307.29899 138.524155 
L 309.184962 139.337259 
L 312.956907 139.867526 
L 314.842879 140.813302 
L 316.728851 141.55858 
L 318.614823 142.043917 
L 320.500795 142.869009 
L 322.386767 142.641942 
L 324.272739 142.932246 
L 326.158711 144.017968 
L 329.930655 144.969078 
L 331.816627 146.036106 
L 333.702599 147.551515 
L 337.474544 148.715385 
L 339.360516 148.670407 
L 341.246488 148.27908 
L 343.13246 148.117764 
L 345.018432 148.734107 
L 346.904404 149.127442 
L 348.790376 149.344328 
L 350.676348 149.22781 
L 352.56232 149.225945 
L 354.448292 148.466218 
L 356.334264 148.446209 
L 358.220236 148.933893 
L 361.99218 149.427775 
L 363.878153 150.611463 
L 365.764125 151.244197 
L 369.536069 152.138054 
L 371.422041 152.861374 
L 373.308013 153.454958 
L 377.079957 155.020631 
L 378.965929 154.805642 
L 382.737873 154.956024 
L 384.623845 155.556062 
L 386.509817 155.889985 
L 388.395789 156.024253 
L 390.281762 155.785535 
L 392.167734 155.314688 
L 394.053706 155.175531 
L 395.939678 155.346438 
L 399.711622 157.559028 
L 401.597594 158.017375 
L 403.483566 157.685868 
L 405.369538 157.220031 
L 407.25551 157.141827 
L 409.141482 158.047753 
L 411.027454 157.614966 
L 412.913426 157.981665 
L 414.799398 158.82852 
L 418.571343 159.742259 
L 420.457315 159.892385 
L 422.343287 160.245206 
L 426.115231 160.523369 
L 428.001203 160.929966 
L 429.887175 161.03152 
L 431.773147 160.982757 
L 433.659119 160.66995 
L 435.545091 161.028296 
L 437.431063 159.979095 
L 439.317035 160.110061 
L 441.203008 160.585469 
L 443.08898 160.519806 
L 444.974952 159.987256 
L 446.860924 160.210755 
L 448.746896 160.702325 
L 450.632868 161.80756 
L 452.51884 162.469082 
L 454.404812 163.407335 
L 456.290784 164.503384 
L 460.062728 163.844675 
L 461.9487 163.601873 
L 463.834672 163.810974 
L 465.720644 163.650986 
L 469.492589 164.127849 
L 475.150505 165.466633 
L 477.036477 165.354817 
L 478.922449 165.125813 
L 480.808421 164.666537 
L 482.694393 164.368072 
L 484.580365 164.278295 
L 486.466337 163.917616 
L 488.352309 164.002975 
L 490.238281 164.290563 
L 492.124253 165.115506 
L 494.010226 165.736596 
L 497.78217 165.513111 
L 499.668142 166.158117 
L 501.554114 167.239938 
L 503.440086 167.979256 
L 505.326058 168.401624 
L 507.21203 168.611867 
L 509.098002 168.535233 
L 510.983974 168.667888 
L 512.869946 169.3221 
L 514.755918 169.412516 
L 520.413835 168.116971 
L 522.299807 168.672554 
L 526.071751 168.182592 
L 527.957723 168.197902 
L 531.729667 169.244891 
L 535.501611 169.173673 
L 537.387583 169.298615 
L 541.159527 168.91487 
L 544.931472 170.703459 
L 546.817444 170.285405 
L 548.703416 170.02925 
L 550.589388 171.47822 
L 552.47536 172.725174 
L 554.361332 172.64395 
L 556.247304 172.925917 
L 558.133276 172.564486 
L 560.019248 172.411511 
L 561.90522 172.079757 
L 563.791192 171.358683 
L 565.677164 171.356366 
L 569.449108 172.932946 
L 571.335081 173.067958 
L 575.107025 172.980117 
L 577 172.78584 
L 577 172.78584 
" clip-path="url(#pdb31eff111)" style="fill: none; stroke: #0d0887; stroke-width: 2; stroke-linecap: square"/>
   </g>
   <g id="line2d_18">
    <path d="M 84.754286 239.525907 
L 86.640258 239.116203 
L 88.52623 238.519035 
L 90.412202 238.341283 
L 92.298174 238.574595 
L 94.184146 239.1712 
L 96.070118 238.626055 
L 97.95609 240.588894 
L 99.842062 239.661683 
L 101.728034 238.481762 
L 103.614006 239.242594 
L 107.385951 238.303819 
L 109.271923 237.675053 
L 111.157895 238.228156 
L 113.043867 239.811536 
L 114.929839 237.23706 
L 116.815811 237.56889 
L 118.701783 236.051519 
L 120.587755 235.270078 
L 122.473727 229.648842 
L 124.359699 207.075579 
L 126.245671 175.877596 
L 128.131643 165.863931 
L 130.017615 167.556663 
L 131.903588 141.09665 
L 133.78956 119.133476 
L 135.675532 137.653129 
L 137.561504 173.343763 
L 139.447476 188.187703 
L 141.333448 187.083194 
L 143.21942 171.373535 
L 145.105392 157.829738 
L 146.991364 152.358486 
L 152.64928 133.298592 
L 154.535252 130.683138 
L 156.421224 133.020769 
L 158.307197 131.690762 
L 160.193169 117.58598 
L 162.079141 104.671933 
L 163.965113 96.30141 
L 167.737057 90.669142 
L 169.623029 81.608568 
L 171.509001 69.002494 
L 173.394973 68.659129 
L 175.280945 77.54805 
L 177.166917 90.877288 
L 179.052889 101.476303 
L 180.938861 106.293578 
L 182.824834 110.271919 
L 184.710806 112.774492 
L 186.596778 114.180592 
L 188.48275 114.463273 
L 190.368722 109.964397 
L 192.254694 109.260398 
L 194.140666 110.688102 
L 196.026638 112.823877 
L 197.91261 114.12179 
L 199.798582 115.903384 
L 201.684554 116.660822 
L 203.570526 117.838224 
L 205.456498 114.885607 
L 207.34247 113.011512 
L 209.228443 112.503357 
L 213.000387 106.615146 
L 214.886359 102.222981 
L 216.772331 100.734802 
L 218.658303 98.199785 
L 220.544275 97.713842 
L 222.430247 96.168338 
L 224.316219 94.202239 
L 226.202191 94.862737 
L 228.088163 95.681955 
L 229.974135 95.306472 
L 231.860107 96.601274 
L 233.746079 98.583306 
L 235.632052 99.364428 
L 237.518024 99.104532 
L 239.403996 99.981775 
L 241.289968 102.033297 
L 243.17594 102.264564 
L 246.947884 104.258306 
L 248.833856 104.87525 
L 250.719828 106.189987 
L 252.6058 108.057124 
L 256.377744 108.400871 
L 258.263716 109.853826 
L 260.149689 111.104999 
L 262.035661 111.917813 
L 263.921633 112.492572 
L 265.807605 114.643248 
L 267.693577 113.694593 
L 269.579549 116.920463 
L 271.465521 116.029365 
L 273.351493 117.536596 
L 275.237465 117.658196 
L 277.123437 119.001833 
L 279.009409 118.005994 
L 280.895381 120.942523 
L 282.781353 120.169851 
L 284.667325 121.305207 
L 286.553298 121.413543 
L 288.43927 122.123766 
L 290.325242 124.819459 
L 292.211214 124.288959 
L 294.097186 124.280152 
L 297.86913 125.866689 
L 299.755102 126.729489 
L 305.413018 127.052031 
L 307.29899 127.485796 
L 309.184962 128.190454 
L 311.070934 128.521067 
L 312.956907 128.720514 
L 314.842879 129.52257 
L 316.728851 130.192206 
L 318.614823 130.646389 
L 320.500795 131.476446 
L 322.386767 131.465619 
L 324.272739 131.870657 
L 326.158711 132.865101 
L 329.930655 133.847459 
L 331.816627 134.699905 
L 333.702599 135.90063 
L 337.474544 137.068492 
L 339.360516 137.136044 
L 341.246488 136.959004 
L 343.13246 136.987504 
L 346.904404 137.975682 
L 348.790376 138.152373 
L 352.56232 138.19466 
L 354.448292 137.757517 
L 356.334264 137.849149 
L 358.220236 138.405646 
L 361.99218 139.142823 
L 363.878153 140.153063 
L 365.764125 140.816807 
L 369.536069 141.781609 
L 373.308013 143.288887 
L 377.079957 145.134783 
L 378.965929 145.168615 
L 382.737873 145.716892 
L 384.623845 146.424133 
L 388.395789 147.507582 
L 390.281762 147.435007 
L 392.167734 147.174815 
L 394.053706 147.215163 
L 395.939678 147.613196 
L 399.711622 149.650683 
L 401.597594 150.195063 
L 403.483566 150.181918 
L 405.369538 150.044921 
L 407.25551 150.197828 
L 409.141482 151.090201 
L 411.027454 151.072633 
L 412.913426 151.704949 
L 414.799398 152.640586 
L 422.343287 154.662543 
L 424.229259 155.105375 
L 428.001203 156.242971 
L 431.773147 156.545639 
L 433.659119 156.54141 
L 435.545091 157.052476 
L 437.431063 156.610245 
L 441.203008 157.563422 
L 443.08898 157.681533 
L 444.974952 157.486056 
L 446.860924 157.827019 
L 448.746896 158.370826 
L 450.632868 159.206688 
L 452.51884 159.843542 
L 456.290784 161.5392 
L 460.062728 161.36602 
L 461.9487 161.392111 
L 463.834672 161.860218 
L 465.720644 161.852997 
L 471.378561 162.846331 
L 475.150505 163.866667 
L 477.036477 164.114119 
L 478.922449 164.169476 
L 482.694393 163.832606 
L 484.580365 163.864396 
L 486.466337 163.662649 
L 488.352309 163.729439 
L 490.238281 163.933126 
L 492.124253 164.655947 
L 494.010226 165.172783 
L 497.78217 165.110394 
L 499.668142 165.722422 
L 501.554114 166.627031 
L 503.440086 167.172578 
L 505.326058 167.452517 
L 507.21203 167.589705 
L 509.098002 167.515813 
L 510.983974 167.62634 
L 512.869946 168.300982 
L 514.755918 168.592932 
L 518.527863 168.121645 
L 520.413835 167.881706 
L 522.299807 168.310762 
L 526.071751 168.122142 
L 527.957723 168.253497 
L 531.729667 169.240159 
L 539.273555 169.321956 
L 541.159527 169.16963 
L 544.931472 170.559178 
L 546.817444 170.316049 
L 548.703416 170.222082 
L 550.589388 171.292584 
L 552.47536 172.227176 
L 554.361332 172.20279 
L 556.247304 172.417975 
L 558.133276 172.166755 
L 561.90522 171.91468 
L 563.791192 171.480892 
L 565.677164 171.635398 
L 569.449108 172.806411 
L 573.221053 172.833006 
L 577 172.79513 
L 577 172.79513 
" clip-path="url(#pdb31eff111)" style="fill: none; stroke: #6a00a8; stroke-width: 2; stroke-linecap: square"/>
   </g>
   <g id="line2d_19">
    <path d="M 84.754286 239.235517 
L 86.640258 238.894128 
L 88.52623 238.393062 
L 92.298174 238.515044 
L 94.184146 238.88353 
L 96.070118 238.459291 
L 97.95609 240.097651 
L 101.728034 238.463039 
L 103.614006 239.11647 
L 109.271923 237.854989 
L 111.157895 238.288641 
L 113.043867 239.376465 
L 114.929839 237.137758 
L 116.815811 237.645538 
L 118.701783 236.457289 
L 120.587755 235.92415 
L 122.473727 230.924632 
L 124.359699 213.198767 
L 126.245671 188.036987 
L 128.131643 180.070824 
L 130.017615 180.883709 
L 131.903588 159.465809 
L 133.78956 141.705302 
L 135.675532 156.443089 
L 137.561504 185.080294 
L 139.447476 196.905293 
L 141.333448 196.079507 
L 143.21942 183.297625 
L 145.105392 172.639494 
L 146.991364 167.8767 
L 148.877336 162.674131 
L 150.763308 156.872217 
L 152.64928 149.901206 
L 154.535252 142.449423 
L 156.421224 142.81819 
L 158.307197 141.516699 
L 160.193169 130.039146 
L 162.079141 117.774537 
L 163.965113 108.921678 
L 165.851085 105.734528 
L 167.737057 102.954621 
L 169.623029 95.558221 
L 171.509001 84.967065 
L 173.394973 84.464669 
L 175.280945 91.859592 
L 177.166917 102.50264 
L 179.052889 111.206192 
L 182.824834 118.056817 
L 184.710806 119.595198 
L 186.596778 120.689891 
L 188.48275 119.820373 
L 190.368722 115.770055 
L 192.254694 114.105008 
L 196.026638 115.148034 
L 197.91261 115.776426 
L 201.684554 116.832977 
L 203.570526 117.575316 
L 205.456498 115.052862 
L 207.34247 113.487784 
L 209.228443 112.266464 
L 211.114415 109.684372 
L 214.886359 102.666391 
L 216.772331 100.703772 
L 218.658303 98.47751 
L 220.544275 97.502616 
L 222.430247 96.107657 
L 224.316219 94.486357 
L 226.202191 94.321993 
L 228.088163 94.962751 
L 229.974135 94.76798 
L 231.860107 95.581331 
L 233.746079 97.032275 
L 235.632052 97.250062 
L 237.518024 96.892023 
L 239.403996 97.808712 
L 241.289968 99.263305 
L 243.17594 99.555759 
L 245.061912 100.182393 
L 246.947884 101.126042 
L 248.833856 101.61563 
L 250.719828 102.637293 
L 252.6058 103.922436 
L 254.491772 104.211279 
L 256.377744 104.362771 
L 260.149689 106.38405 
L 263.921633 107.411606 
L 265.807605 109.074301 
L 267.693577 108.484876 
L 269.579549 110.863608 
L 271.465521 110.221197 
L 273.351493 111.448412 
L 275.237465 111.644699 
L 277.123437 112.771764 
L 279.009409 111.982476 
L 280.895381 114.240489 
L 282.781353 113.715213 
L 284.667325 114.62278 
L 286.553298 114.773474 
L 288.43927 115.480234 
L 290.325242 117.660926 
L 292.211214 117.30002 
L 294.097186 117.3412 
L 299.755102 119.477774 
L 305.413018 119.852951 
L 307.29899 120.281018 
L 309.184962 120.914893 
L 311.070934 121.316818 
L 312.956907 121.444819 
L 316.728851 122.773332 
L 318.614823 123.207181 
L 320.500795 124.040478 
L 322.386767 124.170793 
L 324.272739 124.650717 
L 326.158711 125.585584 
L 331.816627 127.300725 
L 333.702599 128.296055 
L 335.588571 128.822166 
L 337.474544 129.466523 
L 339.360516 129.607524 
L 341.246488 129.570349 
L 343.13246 129.722743 
L 346.904404 130.696888 
L 350.676348 130.944458 
L 352.56232 130.9945 
L 354.448292 130.767908 
L 356.334264 130.93241 
L 360.106208 132.035064 
L 361.99218 132.429797 
L 363.878153 133.326827 
L 365.764125 134.010812 
L 369.536069 135.021919 
L 373.308013 136.653455 
L 375.193985 137.747806 
L 377.079957 138.682254 
L 378.965929 138.878493 
L 382.737873 139.686476 
L 388.395789 141.94872 
L 390.281762 141.984586 
L 392.167734 141.86189 
L 394.053706 142.019402 
L 395.939678 142.565681 
L 399.711622 144.488878 
L 401.597594 145.089411 
L 403.483566 145.284062 
L 405.369538 145.361701 
L 407.25551 145.665454 
L 409.141482 146.548981 
L 411.027454 146.802429 
L 412.913426 147.608114 
L 414.799398 148.601699 
L 424.229259 151.680797 
L 426.115231 152.513078 
L 428.001203 153.183752 
L 431.773147 153.649516 
L 433.659119 153.846697 
L 435.545091 154.457445 
L 437.431063 154.411384 
L 439.317035 155.061063 
L 441.203008 155.590921 
L 443.08898 155.828982 
L 444.974952 155.853514 
L 446.860924 156.271145 
L 450.632868 157.509089 
L 452.51884 158.129842 
L 456.290784 159.604466 
L 458.176756 159.615708 
L 461.9487 159.949792 
L 463.834672 160.586953 
L 465.720644 160.679442 
L 473.264533 162.155144 
L 475.150505 162.822364 
L 477.036477 163.304312 
L 478.922449 163.54527 
L 488.352309 163.550901 
L 490.238281 163.699826 
L 492.124253 164.355991 
L 494.010226 164.80478 
L 497.78217 164.84754 
L 499.668142 165.438042 
L 501.554114 166.226984 
L 503.440086 166.646057 
L 507.21203 166.922536 
L 509.098002 166.850433 
L 510.983974 166.946517 
L 512.869946 167.634495 
L 514.755918 168.057986 
L 518.527863 167.869097 
L 520.413835 167.728147 
L 522.299807 168.074619 
L 526.071751 168.082685 
L 527.957723 168.289784 
L 531.729667 169.23707 
L 539.273555 169.433807 
L 541.159527 169.335913 
L 544.931472 170.465006 
L 546.817444 170.33605 
L 548.703416 170.347944 
L 552.47536 171.902131 
L 554.361332 171.914844 
L 556.247304 172.086439 
L 558.133276 171.907154 
L 561.90522 171.806934 
L 563.791192 171.560658 
L 565.677164 171.817523 
L 569.449108 172.723821 
L 577 172.801194 
L 577 172.801194 
" clip-path="url(#pdb31eff111)" style="fill: none; stroke: #b12a90; stroke-width: 2; stroke-linecap: square"/>
   </g>
   <g id="line2d_20">
    <path d="M 84.754286 238.776671 
L 86.640258 238.543227 
L 88.52623 238.194012 
L 90.412202 238.566844 
L 92.298174 238.420948 
L 94.184146 238.428982 
L 96.070118 238.195788 
L 97.95609 239.321438 
L 99.842062 238.774119 
L 101.728034 238.433456 
L 103.614006 238.917181 
L 105.499979 238.540623 
L 109.271923 238.139305 
L 113.043867 238.68901 
L 114.929839 236.980849 
L 116.815811 237.766649 
L 118.701783 237.098446 
L 120.587755 236.95765 
L 122.473727 232.940507 
L 124.359699 222.874013 
L 126.245671 207.250033 
L 128.131643 202.519127 
L 130.017615 201.941766 
L 131.903588 188.490905 
L 133.78956 177.37103 
L 135.675532 186.133094 
L 137.561504 203.62518 
L 139.447476 210.679951 
L 141.333448 210.294577 
L 143.21942 202.138873 
L 145.105392 196.040382 
L 148.877336 188.903833 
L 150.763308 184.161276 
L 152.64928 176.134988 
L 154.535252 161.041323 
L 156.421224 158.299089 
L 158.307197 157.042657 
L 160.193169 149.716386 
L 162.079141 138.477954 
L 163.965113 128.862956 
L 165.851085 125.170031 
L 167.737057 122.3669 
L 169.623029 117.600058 
L 171.509001 110.192674 
L 173.394973 109.438994 
L 175.280945 114.473251 
L 177.166917 120.871852 
L 179.052889 126.580385 
L 180.938861 127.98734 
L 182.824834 130.35773 
L 184.710806 130.37259 
L 186.596778 130.975231 
L 188.48275 128.285125 
L 192.254694 121.759973 
L 194.140666 120.825742 
L 196.026638 118.820431 
L 197.91261 118.390916 
L 199.798582 116.842015 
L 201.684554 117.104999 
L 203.570526 117.159897 
L 205.456498 115.317141 
L 207.34247 114.240341 
L 209.228443 111.892151 
L 211.114415 109.907309 
L 213.000387 105.63663 
L 214.886359 103.367022 
L 216.772331 100.654741 
L 220.544275 97.168857 
L 224.316219 94.935292 
L 226.202191 93.467564 
L 228.088163 93.826337 
L 231.860107 93.969718 
L 233.746079 94.581491 
L 235.632052 93.909155 
L 237.518024 93.39604 
L 239.403996 94.375056 
L 241.289968 94.886442 
L 243.17594 95.275578 
L 245.061912 95.341505 
L 246.947884 96.176754 
L 248.833856 96.465108 
L 250.719828 97.023684 
L 252.6058 97.389216 
L 254.491772 97.940358 
L 256.377744 97.98217 
L 260.149689 98.924482 
L 262.035661 99.076697 
L 263.921633 99.383175 
L 265.807605 100.274811 
L 267.693577 100.253005 
L 269.579549 101.293175 
L 271.465521 101.043714 
L 273.351493 101.828475 
L 275.237465 102.142775 
L 277.123437 102.927637 
L 279.009409 102.464719 
L 280.895381 103.650611 
L 282.781353 103.516244 
L 284.667325 104.06388 
L 286.553298 104.281503 
L 288.43927 104.982795 
L 290.325242 106.349732 
L 292.211214 106.256801 
L 294.097186 106.376966 
L 299.755102 108.019343 
L 305.413018 108.477688 
L 309.184962 109.418784 
L 311.070934 109.933388 
L 312.956907 109.948497 
L 316.728851 111.050774 
L 318.614823 111.452493 
L 320.500795 112.29091 
L 322.386767 112.644243 
L 324.272739 113.242494 
L 326.158711 114.083224 
L 328.044683 114.683646 
L 331.816627 115.609286 
L 333.702599 116.280071 
L 335.588571 116.799012 
L 337.474544 117.454656 
L 343.13246 118.243698 
L 345.018432 118.638334 
L 346.904404 119.195669 
L 348.790376 119.304669 
L 350.676348 119.535097 
L 354.448292 119.723632 
L 356.334264 120.003273 
L 360.106208 121.335665 
L 361.99218 121.822549 
L 365.764125 123.256664 
L 369.536069 124.340937 
L 371.422041 125.12965 
L 373.308013 126.168813 
L 375.193985 127.436709 
L 377.079957 128.486617 
L 380.851901 129.504693 
L 382.737873 130.157821 
L 386.509817 131.930083 
L 388.395789 133.165165 
L 390.281762 133.372379 
L 392.167734 133.46694 
L 394.053706 133.809583 
L 395.939678 134.590106 
L 399.711622 136.332712 
L 401.597594 137.021973 
L 407.25551 138.503852 
L 409.141482 139.373402 
L 411.027454 140.055082 
L 414.799398 142.219857 
L 420.457315 144.427316 
L 422.343287 145.261114 
L 424.229259 146.269624 
L 426.115231 147.514417 
L 428.001203 148.349883 
L 431.773147 149.073354 
L 433.659119 149.588782 
L 435.545091 150.357036 
L 437.431063 150.936965 
L 439.317035 151.910337 
L 441.203008 152.474173 
L 446.860924 153.812711 
L 448.746896 154.444489 
L 450.632868 154.826714 
L 456.290784 156.547394 
L 458.176756 156.795046 
L 461.9487 157.670784 
L 463.834672 158.575067 
L 465.720644 158.825109 
L 469.492589 159.576323 
L 473.264533 160.270778 
L 477.036477 162.024735 
L 478.922449 162.558964 
L 480.808421 162.815685 
L 482.694393 162.930861 
L 484.580365 163.167374 
L 490.238281 163.331189 
L 492.124253 163.882031 
L 494.010226 164.2233 
L 497.78217 164.432203 
L 501.554114 165.59487 
L 503.440086 165.814101 
L 507.21203 165.868342 
L 509.098002 165.799067 
L 510.983974 165.872331 
L 514.755918 167.212719 
L 518.527863 167.470048 
L 520.413835 167.48551 
L 524.185779 167.855635 
L 526.071751 168.020341 
L 527.957723 168.34712 
L 531.729667 169.23219 
L 537.387583 169.672813 
L 541.159527 169.598657 
L 544.931472 170.316205 
L 546.817444 170.367654 
L 548.703416 170.546819 
L 552.47536 171.388528 
L 558.133276 171.49696 
L 563.791192 171.686696 
L 567.563136 172.433278 
L 569.449108 172.59332 
L 573.221053 172.469707 
L 575.107025 172.553191 
L 577 172.810775 
L 577 172.810775 
" clip-path="url(#pdb31eff111)" style="fill: none; stroke: #e16462; stroke-width: 2; stroke-linecap: square"/>
   </g>
   <g id="line2d_21">
    <path d="M 84.754286 238.399371 
L 88.52623 238.030336 
L 90.412202 238.680432 
L 94.184146 238.055216 
L 96.070118 237.979114 
L 97.95609 238.683172 
L 99.842062 238.327159 
L 101.728034 238.40913 
L 103.614006 238.753309 
L 105.499979 238.418462 
L 109.271923 238.373093 
L 111.157895 238.462802 
L 113.043867 238.123729 
L 114.929839 236.851826 
L 116.815811 237.866236 
L 118.701783 237.625657 
L 120.587755 237.807476 
L 122.473727 234.598122 
L 124.359699 230.829785 
L 126.245671 223.048557 
L 128.131643 220.977942 
L 130.017615 219.257408 
L 131.903588 212.357692 
L 133.78956 206.698283 
L 135.675532 210.546624 
L 137.561504 218.874288 
L 139.447476 222.006592 
L 141.333448 221.983359 
L 143.21942 217.631674 
L 145.105392 215.282488 
L 146.991364 212.559617 
L 148.877336 210.47202 
L 150.763308 206.600553 
L 152.64928 197.706529 
L 154.535252 176.32909 
L 156.421224 171.02874 
L 158.307197 169.809358 
L 160.193169 165.896608 
L 163.965113 145.260292 
L 165.851085 141.151477 
L 167.737057 138.329249 
L 169.623029 135.724643 
L 171.509001 130.935214 
L 173.394973 129.974908 
L 179.052889 139.222293 
L 180.938861 138.911879 
L 182.824834 140.472538 
L 184.710806 139.234636 
L 186.596778 139.432672 
L 188.48275 135.245531 
L 190.368722 132.486782 
L 192.254694 128.054506 
L 194.140666 125.930852 
L 196.026638 121.840174 
L 197.91261 120.540761 
L 199.798582 117.314691 
L 201.684554 117.328678 
L 203.570526 116.818305 
L 205.456498 115.534452 
L 207.34247 114.859154 
L 209.228443 111.584359 
L 211.114415 110.090625 
L 213.000387 105.143869 
L 214.886359 103.943138 
L 216.772331 100.614424 
L 218.658303 99.277186 
L 220.544275 96.894413 
L 222.430247 95.932933 
L 224.316219 95.304442 
L 226.202191 92.764983 
L 228.088163 92.891885 
L 229.974135 93.217454 
L 231.860107 92.644519 
L 233.746079 92.566257 
L 235.632052 91.16199 
L 237.518024 90.521358 
L 239.403996 91.551625 
L 241.289968 91.28743 
L 243.17594 91.756067 
L 245.061912 91.360934 
L 246.947884 92.107048 
L 250.719828 92.407719 
L 252.6058 92.017073 
L 254.491772 92.783899 
L 258.263716 92.649968 
L 260.149689 92.790621 
L 262.035661 92.610171 
L 265.807605 93.039157 
L 267.693577 93.484093 
L 269.579549 93.423589 
L 271.465521 93.497244 
L 277.123437 94.832997 
L 279.009409 94.638447 
L 280.895381 94.942754 
L 284.667325 95.381496 
L 286.553298 95.654155 
L 290.325242 97.048751 
L 294.097186 97.361285 
L 299.755102 98.597291 
L 305.413018 99.124025 
L 309.184962 99.965752 
L 311.070934 100.573009 
L 312.956907 100.495289 
L 318.614823 101.786835 
L 320.500795 102.629463 
L 322.386767 103.166178 
L 328.044683 105.266165 
L 331.816627 105.995637 
L 335.588571 106.912601 
L 337.474544 107.577525 
L 341.246488 108.295564 
L 343.13246 108.804697 
L 345.018432 109.129282 
L 346.904404 109.738435 
L 348.790376 109.813347 
L 350.676348 110.153396 
L 352.56232 110.262465 
L 356.334264 111.016451 
L 361.99218 113.10041 
L 363.878153 113.671463 
L 365.764125 114.413731 
L 369.536069 115.558167 
L 371.422041 116.367543 
L 373.308013 117.54749 
L 375.193985 118.95809 
L 377.079957 120.102937 
L 380.851901 121.479033 
L 382.737873 122.322587 
L 386.509817 124.359719 
L 388.395789 125.942613 
L 394.053706 127.058805 
L 397.82565 128.920689 
L 401.597594 130.388272 
L 405.369538 131.876906 
L 407.25551 132.615003 
L 409.141482 133.47306 
L 411.027454 134.506866 
L 412.913426 135.811746 
L 414.799398 136.972188 
L 418.571343 138.649312 
L 422.343287 140.526744 
L 424.229259 141.820118 
L 426.115231 143.404112 
L 428.001203 144.375083 
L 431.773147 145.310463 
L 433.659119 146.087579 
L 435.545091 146.985348 
L 437.431063 148.080016 
L 439.317035 149.319555 
L 446.860924 151.791186 
L 448.746896 152.467264 
L 450.632868 152.621048 
L 454.404812 153.715084 
L 456.290784 154.033622 
L 458.176756 154.475668 
L 461.9487 155.796799 
L 463.834672 156.920731 
L 473.264533 158.721299 
L 477.036477 160.972563 
L 478.922449 161.747943 
L 480.808421 162.23089 
L 486.466337 163.01705 
L 490.238281 163.028065 
L 492.124253 163.492303 
L 494.010226 163.745159 
L 497.78217 164.090679 
L 501.554114 165.075094 
L 503.440086 165.129999 
L 509.098002 164.934549 
L 510.983974 164.989047 
L 514.755918 166.517672 
L 518.527863 167.141917 
L 524.185779 167.667633 
L 526.071751 167.969076 
L 531.729667 169.228177 
L 537.387583 169.791044 
L 541.159527 169.814707 
L 550.589388 170.822537 
L 554.361332 171.085735 
L 560.019248 171.289528 
L 563.791192 171.790335 
L 565.677164 172.341931 
L 567.563136 172.52953 
L 571.335081 172.368313 
L 573.221053 172.286757 
L 575.107025 172.4183 
L 577 172.818653 
L 577 172.818653 
" clip-path="url(#pdb31eff111)" style="fill: none; stroke: #fca636; stroke-width: 2; stroke-linecap: square"/>
   </g>
   <g id="line2d_22">
    <path d="M 84.754286 238.191196 
L 88.52623 237.940028 
L 90.412202 238.743104 
L 94.184146 237.84899 
L 96.070118 237.859565 
L 97.95609 238.331009 
L 99.842062 238.080549 
L 103.614006 238.662893 
L 105.499979 238.35106 
L 111.157895 238.506163 
L 113.043867 237.811835 
L 114.929839 236.780638 
L 116.815811 237.921183 
L 118.701783 237.916546 
L 120.587755 238.276369 
L 122.473727 235.512712 
L 124.359699 235.219385 
L 126.245671 231.765398 
L 128.131643 231.162599 
L 130.017615 228.81132 
L 131.903588 225.5262 
L 133.78956 222.879605 
L 135.675532 224.016797 
L 137.561504 227.287989 
L 139.447476 228.25607 
L 141.333448 228.432649 
L 143.21942 226.179833 
L 145.105392 225.899327 
L 146.991364 223.684336 
L 148.877336 222.372275 
L 150.763308 218.981432 
L 152.64928 209.608635 
L 154.535252 184.764121 
L 156.421224 178.052329 
L 158.307197 176.85339 
L 160.193169 174.824052 
L 162.079141 164.894996 
L 163.965113 154.307527 
L 165.851085 149.969245 
L 167.737057 147.136481 
L 169.623029 145.724889 
L 171.509001 142.379918 
L 173.394973 141.305607 
L 175.280945 143.327712 
L 177.166917 144.310507 
L 179.052889 146.19747 
L 180.938861 144.939498 
L 182.824834 146.053387 
L 184.710806 144.124273 
L 186.596778 144.099067 
L 188.48275 139.085937 
L 190.368722 136.648751 
L 192.254694 131.527517 
L 194.140666 128.747598 
L 196.026638 123.506319 
L 197.91261 121.726939 
L 199.798582 117.57549 
L 201.684554 117.452093 
L 203.570526 116.629832 
L 205.456498 115.654353 
L 207.34247 115.200584 
L 209.228443 111.414536 
L 211.114415 110.19177 
L 213.000387 104.871987 
L 214.886359 104.26101 
L 216.772331 100.592179 
L 218.658303 99.476282 
L 220.544275 96.742989 
L 222.430247 95.889432 
L 224.316219 95.508121 
L 226.202191 92.377334 
L 228.088163 92.376301 
L 229.974135 92.831419 
L 231.860107 91.91334 
L 233.746079 91.454352 
L 235.632052 89.646241 
L 237.518024 88.935252 
L 239.403996 89.993796 
L 241.289968 89.301674 
L 243.17594 89.814175 
L 245.061912 89.164653 
L 246.947884 89.861586 
L 250.719828 89.860859 
L 252.6058 89.052992 
L 254.491772 89.93882 
L 256.377744 89.840685 
L 258.263716 89.470824 
L 260.149689 89.406261 
L 262.035661 89.042262 
L 263.921633 89.139098 
L 265.807605 89.046882 
L 267.693577 89.749344 
L 269.579549 89.081543 
L 273.351493 89.553677 
L 275.237465 90.018558 
L 277.123437 90.366776 
L 279.009409 90.320299 
L 280.895381 90.138191 
L 282.781353 90.502615 
L 284.667325 90.590988 
L 286.553298 90.894012 
L 288.43927 91.588325 
L 292.211214 92.165931 
L 294.097186 92.386879 
L 299.755102 93.398671 
L 305.413018 93.963138 
L 309.184962 94.750038 
L 311.070934 95.408417 
L 312.956907 95.279478 
L 318.614823 96.453805 
L 320.500795 97.298756 
L 324.272739 98.685887 
L 328.044683 100.070067 
L 329.930655 100.482604 
L 333.702599 100.947976 
L 335.588571 101.457769 
L 337.474544 102.127815 
L 341.246488 102.998775 
L 343.13246 103.596725 
L 345.018432 103.882659 
L 346.904404 104.520403 
L 348.790376 104.576507 
L 350.676348 104.97704 
L 352.56232 105.100804 
L 356.334264 106.057969 
L 361.99218 108.287966 
L 363.878153 108.777861 
L 365.764125 109.534639 
L 369.536069 110.712271 
L 371.422041 111.533047 
L 373.308013 112.790672 
L 375.193985 114.280008 
L 377.079957 115.477239 
L 380.851901 117.050873 
L 384.623845 119.028346 
L 386.509817 120.182768 
L 388.395789 121.957568 
L 394.053706 123.33406 
L 395.939678 124.413472 
L 397.82565 125.27799 
L 399.711622 125.925649 
L 401.597594 126.728125 
L 405.369538 128.519592 
L 409.141482 130.217544 
L 411.027454 131.445636 
L 412.913426 132.874801 
L 414.799398 134.076785 
L 418.571343 135.855037 
L 422.343287 137.914554 
L 424.229259 139.365102 
L 426.115231 141.13625 
L 428.001203 142.181986 
L 431.773147 143.234286 
L 435.545091 145.125018 
L 439.317035 147.890089 
L 443.08898 149.166714 
L 444.974952 149.982457 
L 448.746896 151.37633 
L 450.632868 151.404071 
L 454.404812 152.431109 
L 456.290784 152.646647 
L 458.176756 153.195951 
L 461.9487 154.762827 
L 463.834672 156.007951 
L 469.492589 157.344753 
L 473.264533 157.866374 
L 477.036477 160.392027 
L 478.922449 161.300462 
L 480.808421 161.908229 
L 486.466337 162.897748 
L 490.238281 162.860816 
L 492.124253 163.27727 
L 497.78217 163.902243 
L 499.668142 164.415335 
L 501.554114 164.788308 
L 503.440086 164.752545 
L 507.21203 164.523218 
L 510.983974 164.501695 
L 512.869946 165.237629 
L 514.755918 166.134179 
L 518.527863 166.96087 
L 520.413835 167.17591 
L 522.299807 167.225386 
L 526.071751 167.94079 
L 529.843695 168.835787 
L 531.729667 169.225963 
L 537.387583 169.856278 
L 539.273555 169.836054 
L 544.931472 170.126338 
L 548.703416 170.800578 
L 552.47536 170.733184 
L 554.361332 170.879311 
L 558.133276 170.973561 
L 561.90522 171.419451 
L 563.791192 171.847518 
L 565.677164 172.472493 
L 567.563136 172.582636 
L 573.221053 172.185814 
L 575.107025 172.343874 
L 577 172.823 
L 577 172.823 
" clip-path="url(#pdb31eff111)" style="fill: none; stroke: #f0f921; stroke-width: 2; stroke-linecap: square"/>
   </g>
   <g id="line2d_23">
    <path d="M 84.754286 239.38359 
L 86.640258 238.593353 
L 88.52623 238.290172 
L 90.412202 237.838603 
L 92.298174 237.920553 
L 94.184146 238.699769 
L 96.070118 237.946821 
L 97.95609 239.5401 
L 99.842062 238.506356 
L 101.728034 237.631445 
L 103.614006 239.955567 
L 105.499979 237.546004 
L 107.385951 237.426012 
L 109.271923 239.051306 
L 111.157895 239.127159 
L 113.043867 240.312189 
L 114.929839 237.738574 
L 116.815811 238.691574 
L 118.701783 236.823512 
L 120.587755 237.241686 
L 122.473727 230.163029 
L 124.359699 209.030059 
L 126.245671 178.096369 
L 128.131643 167.876199 
L 130.017615 169.191818 
L 131.903588 142.884066 
L 133.78956 123.844501 
L 135.675532 141.102105 
L 137.561504 174.797202 
L 139.447476 190.571977 
L 141.333448 189.596722 
L 143.21942 174.711991 
L 145.105392 161.914858 
L 146.991364 156.45025 
L 152.64928 138.370274 
L 154.535252 133.539552 
L 156.421224 134.043116 
L 158.307197 134.41892 
L 162.079141 108.084357 
L 163.965113 97.948912 
L 165.851085 95.048866 
L 167.737057 92.42626 
L 169.623029 85.010345 
L 171.509001 72.093174 
L 173.394973 72.123639 
L 175.280945 79.653429 
L 177.166917 93.449809 
L 179.052889 102.66648 
L 180.938861 106.815031 
L 182.824834 109.968818 
L 184.710806 114.680378 
L 186.596778 114.497016 
L 188.48275 115.024026 
L 190.368722 109.990191 
L 194.140666 110.685271 
L 196.026638 112.787776 
L 197.91261 113.325374 
L 199.798582 115.477352 
L 203.570526 116.919059 
L 205.456498 114.605803 
L 207.34247 112.92211 
L 209.228443 113.302663 
L 211.114415 108.801297 
L 213.000387 106.585912 
L 214.886359 102.085931 
L 216.772331 101.196984 
L 218.658303 97.809046 
L 220.544275 96.586092 
L 222.430247 95.544341 
L 224.316219 93.082923 
L 226.202191 95.663527 
L 228.088163 94.692876 
L 229.974135 94.952631 
L 231.860107 96.322151 
L 233.746079 97.460764 
L 235.632052 98.21451 
L 237.518024 97.6208 
L 239.403996 99.830708 
L 241.289968 100.397444 
L 245.061912 100.8652 
L 246.947884 103.655917 
L 248.833856 103.582462 
L 250.719828 105.518178 
L 252.6058 105.786723 
L 254.491772 105.764444 
L 256.377744 107.130074 
L 258.263716 108.786595 
L 260.149689 108.723924 
L 262.035661 109.443619 
L 263.921633 109.968968 
L 265.807605 113.210452 
L 267.693577 111.566686 
L 269.579549 114.248604 
L 271.465521 113.941691 
L 273.351493 115.599165 
L 275.237465 115.651968 
L 277.123437 115.146355 
L 279.009409 113.894951 
L 280.895381 119.150197 
L 282.781353 117.850555 
L 284.667325 118.186613 
L 286.553298 118.843354 
L 288.43927 120.094971 
L 290.325242 122.217688 
L 292.211214 122.220891 
L 299.755102 123.985404 
L 303.527046 124.071226 
L 305.413018 124.38976 
L 307.29899 124.880822 
L 309.184962 125.838683 
L 312.956907 126.643995 
L 314.842879 127.668465 
L 316.728851 128.499475 
L 318.614823 128.974804 
L 320.500795 130.186271 
L 322.386767 130.689065 
L 328.044683 131.567265 
L 329.930655 131.694799 
L 331.816627 132.619152 
L 333.702599 134.156035 
L 337.474544 134.5647 
L 339.360516 134.605175 
L 343.13246 134.267638 
L 345.018432 134.87071 
L 346.904404 135.631195 
L 348.790376 135.887068 
L 352.56232 135.840586 
L 354.448292 135.628236 
L 356.334264 135.934037 
L 358.220236 136.950069 
L 360.106208 137.696754 
L 363.878153 138.394172 
L 369.536069 140.237621 
L 371.422041 141.33259 
L 373.308013 142.205538 
L 377.079957 142.802567 
L 378.965929 142.776194 
L 382.737873 143.337581 
L 384.623845 144.392063 
L 386.509817 145.168128 
L 388.395789 145.51498 
L 390.281762 145.680313 
L 394.053706 145.852348 
L 395.939678 146.315339 
L 397.82565 147.8218 
L 399.711622 148.277808 
L 401.597594 148.451967 
L 403.483566 148.770804 
L 405.369538 148.877233 
L 407.25551 149.265996 
L 409.141482 150.997615 
L 414.799398 151.923223 
L 418.571343 153.488876 
L 420.457315 153.798404 
L 422.343287 154.423815 
L 424.229259 154.76842 
L 426.115231 154.702618 
L 428.001203 154.826244 
L 429.887175 155.180416 
L 431.773147 155.277581 
L 433.659119 155.170664 
L 435.545091 156.094409 
L 439.317035 155.408795 
L 441.203008 156.574109 
L 443.08898 157.222046 
L 444.974952 156.962606 
L 448.746896 157.885051 
L 450.632868 157.4997 
L 452.51884 157.382974 
L 456.290784 161.249621 
L 458.176756 161.39004 
L 461.9487 162.085577 
L 463.834672 161.829443 
L 465.720644 161.746602 
L 469.492589 162.054988 
L 471.378561 162.602705 
L 473.264533 163.291841 
L 475.150505 163.543676 
L 478.922449 163.469555 
L 480.808421 163.153624 
L 482.694393 163.087774 
L 484.580365 163.337939 
L 486.466337 163.469694 
L 490.238281 163.155183 
L 494.010226 165.675343 
L 499.668142 166.687432 
L 501.554114 166.486277 
L 503.440086 166.589655 
L 505.326058 167.461214 
L 507.21203 168.122597 
L 509.098002 168.389877 
L 510.983974 168.86606 
L 512.869946 168.978855 
L 514.755918 168.712213 
L 516.64189 168.280471 
L 518.527863 167.733576 
L 520.413835 167.320006 
L 522.299807 168.092249 
L 524.185779 168.242721 
L 527.957723 167.800077 
L 531.729667 169.058614 
L 537.387583 169.228289 
L 539.273555 168.717754 
L 541.159527 168.60576 
L 544.931472 171.920356 
L 546.817444 171.956994 
L 548.703416 172.262103 
L 550.589388 172.305623 
L 554.361332 171.669029 
L 556.247304 172.317594 
L 558.133276 172.077064 
L 560.019248 172.103509 
L 561.90522 171.99653 
L 565.677164 171.455681 
L 567.563136 172.24513 
L 569.449108 173.305828 
L 571.335081 173.530177 
L 575.107025 173.596774 
L 577 173.130594 
L 577 173.130594 
" clip-path="url(#pdb31eff111)" style="fill: none; stroke: #0000ff; stroke-linecap: square"/>
   </g>
   <g id="line2d_24">
    <path d="M 84.754286 239.516364 
L 88.52623 238.016379 
L 90.412202 239.080905 
L 92.298174 239.155716 
L 96.070118 238.581775 
L 97.95609 242.116364 
L 99.842062 240.710854 
L 101.728034 239.71373 
L 103.614006 238.506292 
L 105.499979 239.592154 
L 107.385951 239.465697 
L 109.271923 236.094682 
L 111.157895 237.726648 
L 113.043867 238.913564 
L 114.929839 236.417697 
L 116.815811 236.316294 
L 118.701783 235.582046 
L 120.587755 234.353953 
L 122.473727 230.930196 
L 124.359699 211.163068 
L 126.245671 185.73417 
L 128.131643 178.436304 
L 130.017615 179.877225 
L 133.78956 136.798466 
L 135.675532 152.316994 
L 137.561504 183.211325 
L 139.447476 194.314731 
L 141.333448 194.346366 
L 143.21942 179.915005 
L 145.105392 169.609512 
L 146.991364 163.546335 
L 150.763308 152.291116 
L 152.64928 145.152868 
L 154.535252 140.975512 
L 156.421224 142.197017 
L 158.307197 139.081758 
L 160.193169 126.93641 
L 162.079141 113.950766 
L 163.965113 106.630279 
L 167.737057 101.484107 
L 169.623029 91.711658 
L 171.509001 81.306757 
L 173.394973 80.26403 
L 177.166917 99.439602 
L 179.052889 109.622866 
L 180.938861 113.48462 
L 182.824834 118.240354 
L 184.710806 116.752479 
L 186.596778 119.798962 
L 188.48275 118.50143 
L 190.368722 115.202751 
L 192.254694 112.413454 
L 194.140666 114.91663 
L 196.026638 114.908876 
L 197.91261 115.821384 
L 199.798582 115.883094 
L 201.684554 116.714433 
L 203.570526 118.411613 
L 205.456498 114.695505 
L 207.34247 113.118221 
L 209.228443 111.190828 
L 211.114415 110.283081 
L 214.886359 102.61205 
L 216.772331 98.531747 
L 218.658303 98.657491 
L 220.544275 98.257302 
L 224.316219 95.350663 
L 226.202191 92.842744 
L 228.088163 95.432607 
L 229.974135 94.807286 
L 231.860107 95.958086 
L 233.746079 97.691713 
L 235.632052 98.083132 
L 237.518024 97.518209 
L 239.403996 97.616173 
L 241.289968 100.417112 
L 243.17594 100.932488 
L 245.061912 102.621972 
L 246.947884 100.653868 
L 248.833856 102.489251 
L 250.719828 103.008681 
L 252.6058 105.943797 
L 254.491772 105.79438 
L 256.377744 105.181555 
L 258.263716 106.561922 
L 260.149689 108.616222 
L 262.035661 109.165875 
L 263.921633 109.120411 
L 265.807605 109.999439 
L 267.693577 111.15318 
L 269.579549 113.251189 
L 271.465521 112.394941 
L 273.351493 112.66371 
L 275.237465 113.10512 
L 277.123437 116.055739 
L 279.009409 115.656618 
L 280.895381 116.565959 
L 282.781353 115.17127 
L 284.667325 117.70481 
L 286.553298 116.575435 
L 288.43927 117.244762 
L 290.325242 119.300676 
L 292.211214 118.166746 
L 294.097186 117.753989 
L 297.86913 120.650524 
L 299.755102 122.18787 
L 301.641074 122.708235 
L 309.184962 123.641661 
L 311.070934 123.457054 
L 312.956907 122.973166 
L 320.500795 125.709678 
L 322.386767 125.234283 
L 324.272739 125.503048 
L 326.158711 127.035285 
L 329.930655 128.369518 
L 333.702599 129.61485 
L 335.588571 130.567743 
L 337.474544 131.310336 
L 345.018432 133.074939 
L 346.904404 133.161819 
L 348.790376 132.520987 
L 350.676348 132.184171 
L 352.56232 132.869062 
L 360.106208 133.563275 
L 361.99218 133.526875 
L 363.878153 134.970735 
L 371.422041 136.756062 
L 373.308013 137.613429 
L 375.193985 139.498526 
L 377.079957 141.044855 
L 384.623845 142.313002 
L 386.509817 142.758738 
L 388.395789 143.36847 
L 397.82565 144.788447 
L 399.711622 145.873917 
L 401.597594 146.379375 
L 407.25551 146.554635 
L 411.027454 146.36142 
L 412.913426 147.816449 
L 414.799398 149.636031 
L 422.343287 151.495357 
L 424.229259 152.259103 
L 426.115231 153.893283 
L 428.001203 154.985489 
L 433.659119 155.246668 
L 435.545091 155.218722 
L 437.431063 154.958735 
L 439.317035 156.276323 
L 446.860924 156.622095 
L 448.746896 157.171821 
L 450.632868 158.93757 
L 452.51884 160.36318 
L 456.290784 159.789423 
L 460.062728 159.16122 
L 461.9487 159.163057 
L 463.834672 160.340519 
L 473.264533 161.75163 
L 475.150505 163.026201 
L 477.036477 164.000662 
L 484.580365 163.659132 
L 486.466337 163.093033 
L 488.352309 163.284387 
L 490.238281 163.784919 
L 492.124253 163.618694 
L 497.78217 162.503169 
L 499.668142 163.719344 
L 501.554114 166.04087 
L 503.440086 167.191064 
L 509.098002 165.775925 
L 510.983974 165.494546 
L 512.869946 167.223579 
L 514.755918 168.485242 
L 522.299807 168.176073 
L 524.185779 167.890705 
L 526.071751 168.171302 
L 527.957723 168.806066 
L 529.843695 169.198848 
L 537.387583 169.680909 
L 539.273555 169.645076 
L 541.159527 169.438998 
L 548.703416 167.643602 
L 552.47536 172.264859 
L 554.361332 172.661343 
L 561.90522 172.014435 
L 563.791192 171.611622 
L 565.677164 172.330388 
L 567.563136 172.517585 
L 573.221053 172.206014 
L 575.107025 172.221598 
L 577 172.902952 
L 577 172.902952 
" clip-path="url(#pdb31eff111)" style="fill: none; stroke: #0040df; stroke-linecap: square"/>
   </g>
   <g id="line2d_25">
    <path d="M 84.754286 238.722458 
L 86.640258 240.25589 
L 90.412202 238.42607 
L 92.298174 239.027908 
L 94.184146 239.926319 
L 96.070118 239.771373 
L 97.95609 238.118847 
L 99.842062 239.084908 
L 101.728034 238.141592 
L 103.614006 238.451 
L 105.499979 239.451477 
L 109.271923 238.167545 
L 111.157895 236.86904 
L 113.043867 238.120543 
L 114.929839 237.351632 
L 116.815811 237.788343 
L 120.587755 235.051501 
L 122.473727 231.151711 
L 124.359699 221.689926 
L 126.245671 205.768215 
L 128.131643 200.490346 
L 130.017615 199.266653 
L 131.903588 186.275986 
L 133.78956 174.370677 
L 135.675532 184.847599 
L 137.561504 203.157556 
L 139.447476 209.267589 
L 141.333448 207.464495 
L 145.105392 191.677749 
L 146.991364 190.365545 
L 148.877336 186.749521 
L 150.763308 180.4208 
L 152.64928 172.255823 
L 154.535252 156.439558 
L 156.421224 157.212481 
L 158.307197 154.694948 
L 160.193169 147.0355 
L 162.079141 136.254828 
L 163.965113 128.505011 
L 165.851085 123.87126 
L 167.737057 120.17941 
L 169.623029 115.500303 
L 171.509001 108.732869 
L 173.394973 108.657176 
L 175.280945 112.776512 
L 179.052889 125.957008 
L 180.938861 128.792304 
L 182.824834 130.490615 
L 184.710806 130.663564 
L 186.596778 131.162414 
L 188.48275 129.004838 
L 192.254694 121.501602 
L 194.140666 120.145584 
L 196.026638 119.342304 
L 197.91261 119.783006 
L 199.798582 117.642254 
L 201.684554 117.711191 
L 203.570526 117.364657 
L 207.34247 114.74538 
L 209.228443 111.628478 
L 211.114415 110.134571 
L 213.000387 104.544947 
L 214.886359 103.326647 
L 216.772331 103.072613 
L 218.658303 99.282708 
L 220.544275 98.076446 
L 222.430247 95.805661 
L 224.316219 95.405072 
L 226.202191 93.499847 
L 228.088163 95.111138 
L 229.974135 94.408344 
L 231.860107 93.261297 
L 233.746079 95.698017 
L 235.632052 94.528403 
L 237.518024 95.796227 
L 239.403996 94.591364 
L 241.289968 96.192774 
L 243.17594 95.922599 
L 245.061912 96.263337 
L 246.947884 98.131834 
L 248.833856 97.442161 
L 250.719828 97.534401 
L 254.491772 100.569138 
L 256.377744 98.86155 
L 258.263716 98.404995 
L 260.149689 100.145036 
L 262.035661 100.798758 
L 263.921633 102.302951 
L 265.807605 101.829355 
L 267.693577 99.914378 
L 269.579549 103.106863 
L 271.465521 101.502835 
L 273.351493 103.979712 
L 275.237465 104.153958 
L 277.123437 106.278315 
L 279.009409 105.125048 
L 280.895381 103.445536 
L 282.781353 106.290751 
L 284.667325 105.727532 
L 286.553298 107.006459 
L 288.43927 106.77135 
L 290.325242 109.121854 
L 295.983158 109.552881 
L 297.86913 109.681078 
L 299.755102 109.52787 
L 303.527046 108.612511 
L 305.413018 108.680968 
L 309.184962 109.924897 
L 311.070934 111.356198 
L 312.956907 112.390687 
L 316.728851 112.654357 
L 322.386767 112.443462 
L 324.272739 113.64964 
L 326.158711 115.03819 
L 329.930655 117.083868 
L 335.588571 118.470419 
L 337.474544 120.046073 
L 339.360516 119.792921 
L 341.246488 119.154347 
L 346.904404 120.072304 
L 350.676348 122.700272 
L 352.56232 121.760796 
L 354.448292 120.60032 
L 356.334264 120.33539 
L 360.106208 120.765989 
L 365.764125 125.227674 
L 367.650097 125.74023 
L 371.422041 126.452732 
L 373.308013 127.148496 
L 375.193985 128.643881 
L 377.079957 129.884837 
L 378.965929 130.287729 
L 386.509817 133.221731 
L 388.395789 134.984574 
L 390.281762 134.204981 
L 392.167734 132.851619 
L 394.053706 132.810433 
L 397.82565 134.73876 
L 401.597594 138.635723 
L 403.483566 138.739654 
L 405.369538 138.614122 
L 409.141482 139.536916 
L 411.027454 140.051426 
L 414.799398 142.022956 
L 416.685371 142.31982 
L 422.343287 144.940285 
L 424.229259 146.084739 
L 426.115231 147.48181 
L 428.001203 148.417466 
L 429.887175 148.765883 
L 431.773147 149.351735 
L 437.431063 151.694054 
L 439.317035 153.490058 
L 441.203008 153.308179 
L 443.08898 152.733249 
L 444.974952 153.101908 
L 448.746896 154.752261 
L 450.632868 156.035243 
L 452.51884 157.160414 
L 456.290784 157.028227 
L 461.9487 157.461307 
L 463.834672 159.187199 
L 465.720644 159.291404 
L 467.606617 160.185869 
L 469.492589 160.882721 
L 473.264533 161.007322 
L 475.150505 161.478383 
L 477.036477 162.110438 
L 478.922449 163.451992 
L 480.808421 164.169785 
L 486.466337 164.114004 
L 488.352309 164.361389 
L 490.238281 164.738062 
L 492.124253 165.759004 
L 494.010226 165.878838 
L 497.78217 165.651912 
L 499.668142 165.742872 
L 501.554114 166.282441 
L 507.21203 166.019523 
L 510.983974 165.62297 
L 512.869946 165.809924 
L 514.755918 166.277554 
L 516.64189 167.029437 
L 518.527863 167.619066 
L 520.413835 167.852178 
L 526.071751 167.821586 
L 527.957723 168.395304 
L 529.843695 169.135593 
L 531.729667 169.714359 
L 537.387583 169.877876 
L 539.273555 170.714084 
L 543.045499 170.931001 
L 548.703416 170.59122 
L 550.589388 170.742366 
L 552.47536 171.172923 
L 554.361332 171.286507 
L 556.247304 170.968261 
L 558.133276 170.787822 
L 563.791192 170.742475 
L 567.563136 171.869733 
L 569.449108 171.90497 
L 575.107025 171.541636 
L 577 171.89687 
L 577 171.89687 
" clip-path="url(#pdb31eff111)" style="fill: none; stroke: #0080bf; stroke-linecap: square"/>
   </g>
   <g id="line2d_26">
    <path d="M 84.754286 238.055416 
L 86.640258 237.431091 
L 90.412202 239.027485 
L 92.298174 237.615973 
L 94.184146 236.936098 
L 96.070118 237.28836 
L 97.95609 238.662714 
L 99.842062 237.871521 
L 101.728034 238.407613 
L 103.614006 238.554178 
L 105.499979 239.259277 
L 107.385951 236.884913 
L 111.157895 239.779428 
L 113.043867 238.834736 
L 114.929839 236.205809 
L 116.815811 237.275376 
L 118.701783 239.086961 
L 120.587755 238.404406 
L 122.473727 236.30434 
L 124.359699 231.840999 
L 126.245671 224.54262 
L 128.131643 221.981748 
L 130.017615 221.346252 
L 131.903588 214.964943 
L 133.78956 209.547257 
L 135.675532 212.747684 
L 137.561504 220.246518 
L 139.447476 223.687698 
L 141.333448 222.521677 
L 143.21942 220.168018 
L 145.105392 216.560413 
L 146.991364 213.762188 
L 148.877336 211.356981 
L 150.763308 209.226669 
L 152.64928 199.919624 
L 154.535252 178.351272 
L 156.421224 170.646124 
L 158.307197 171.13556 
L 160.193169 167.937294 
L 162.079141 159.057778 
L 163.965113 147.198972 
L 165.851085 142.960235 
L 167.737057 140.592558 
L 169.623029 139.116066 
L 171.509001 133.587072 
L 173.394973 131.033775 
L 175.280945 135.417899 
L 177.166917 139.260392 
L 179.052889 141.287518 
L 180.938861 139.410179 
L 182.824834 141.12142 
L 184.710806 140.45738 
L 186.596778 141.346876 
L 188.48275 136.242684 
L 190.368722 134.439605 
L 192.254694 130.546043 
L 194.140666 126.360131 
L 196.026638 121.803666 
L 197.91261 121.506296 
L 199.798582 119.722375 
L 201.684554 118.97 
L 203.570526 117.940317 
L 205.456498 117.214421 
L 207.34247 115.865909 
L 209.228443 112.597162 
L 211.114415 111.205243 
L 213.000387 107.002147 
L 214.886359 105.207986 
L 216.772331 101.747153 
L 218.658303 99.849141 
L 220.544275 97.786526 
L 222.430247 97.370797 
L 224.316219 96.823866 
L 226.202191 94.960657 
L 228.088163 93.262891 
L 231.860107 94.536475 
L 233.746079 93.315172 
L 235.632052 92.613939 
L 237.518024 90.142666 
L 239.403996 92.877715 
L 241.289968 92.313594 
L 243.17594 93.166074 
L 245.061912 91.79489 
L 246.947884 92.839433 
L 248.833856 93.388171 
L 250.719828 93.415568 
L 252.6058 91.710088 
L 254.491772 92.936053 
L 256.377744 94.302562 
L 258.263716 93.779069 
L 260.149689 93.426326 
L 262.035661 92.468207 
L 263.921633 92.17765 
L 265.807605 93.212469 
L 267.693577 94.693803 
L 269.579549 93.475898 
L 271.465521 94.686391 
L 273.351493 94.193208 
L 275.237465 94.209854 
L 277.123437 93.654597 
L 279.009409 95.082855 
L 280.895381 95.345141 
L 282.781353 94.892498 
L 284.667325 95.236263 
L 286.553298 95.429538 
L 288.43927 95.476526 
L 290.325242 97.707711 
L 294.097186 97.239942 
L 295.983158 97.431224 
L 301.641074 98.718608 
L 305.413018 98.950329 
L 309.184962 99.941721 
L 311.070934 100.449342 
L 312.956907 99.27337 
L 316.728851 99.839267 
L 318.614823 100.264316 
L 320.500795 102.298887 
L 322.386767 103.374673 
L 326.158711 104.658669 
L 331.816627 105.390949 
L 335.588571 106.731503 
L 345.018432 108.540583 
L 346.904404 109.939158 
L 348.790376 109.94019 
L 350.676348 109.78672 
L 352.56232 109.923976 
L 356.334264 110.895141 
L 360.106208 113.588117 
L 361.99218 113.490738 
L 363.878153 113.12403 
L 365.764125 113.258505 
L 367.650097 113.541033 
L 369.536069 114.06113 
L 375.193985 118.119346 
L 377.079957 119.271417 
L 380.851901 120.422029 
L 382.737873 121.481527 
L 384.623845 122.987405 
L 386.509817 124.098596 
L 388.395789 126.478955 
L 394.053706 127.425803 
L 397.82565 130.123075 
L 399.711622 130.494709 
L 401.597594 130.554393 
L 403.483566 131.08555 
L 407.25551 132.675332 
L 409.141482 133.96702 
L 412.913426 136.010549 
L 414.799398 136.936536 
L 418.571343 138.365112 
L 420.457315 139.309423 
L 422.343287 140.568568 
L 424.229259 141.599374 
L 426.115231 142.816553 
L 428.001203 144.229829 
L 431.773147 145.079196 
L 433.659119 146.32594 
L 435.545091 147.759173 
L 437.431063 148.718655 
L 441.203008 150.043615 
L 448.746896 153.097018 
L 452.51884 152.878609 
L 456.290784 153.610108 
L 458.176756 154.191417 
L 461.9487 155.886487 
L 463.834672 156.632727 
L 469.492589 157.818426 
L 473.264533 159.032251 
L 475.150505 160.002766 
L 477.036477 161.130311 
L 478.922449 161.883677 
L 482.694393 162.520718 
L 486.466337 163.799858 
L 488.352309 163.976249 
L 490.238281 163.63225 
L 495.896198 163.712322 
L 497.78217 164.085249 
L 499.668142 164.932921 
L 503.440086 165.0099 
L 507.21203 164.547051 
L 509.098002 164.662295 
L 510.983974 165.025797 
L 514.755918 166.239629 
L 520.413835 167.220438 
L 524.185779 168.702714 
L 526.071751 168.735031 
L 527.957723 168.575894 
L 531.729667 168.619311 
L 533.615639 168.753323 
L 537.387583 169.797157 
L 539.273555 169.466244 
L 541.159527 169.491059 
L 544.931472 169.791186 
L 546.817444 170.247954 
L 548.703416 171.072387 
L 550.589388 171.413534 
L 554.361332 171.250626 
L 558.133276 171.572169 
L 561.90522 172.404064 
L 563.791192 172.619533 
L 565.677164 173.067399 
L 567.563136 173.085177 
L 571.335081 172.469122 
L 573.221053 172.345282 
L 575.107025 172.776111 
L 577 172.727639 
L 577 172.727639 
" clip-path="url(#pdb31eff111)" style="fill: none; stroke: #00c09f; stroke-linecap: square"/>
   </g>
   <g id="line2d_27">
    <path d="M 84.754286 238.450832 
L 88.52623 237.216082 
L 90.412202 238.387307 
L 92.298174 238.434896 
L 96.070118 237.531483 
L 97.95609 238.584139 
L 99.842062 237.98755 
L 101.728034 238.288715 
L 103.614006 239.225409 
L 105.499979 236.933625 
L 107.385951 239.136682 
L 109.271923 238.930471 
L 111.157895 238.367701 
L 113.043867 237.631545 
L 114.929839 237.27442 
L 116.815811 238.69691 
L 118.701783 237.276817 
L 120.587755 239.184177 
L 122.473727 235.075538 
L 124.359699 235.473476 
L 126.245671 231.837197 
L 128.131643 231.809826 
L 130.017615 228.768918 
L 131.903588 224.908873 
L 133.78956 223.226794 
L 135.675532 223.778352 
L 137.561504 226.798912 
L 139.447476 228.193615 
L 141.333448 229.944026 
L 143.21942 226.166558 
L 145.105392 227.928898 
L 146.991364 224.751841 
L 148.877336 223.851998 
L 150.763308 219.861317 
L 152.64928 210.95136 
L 154.535252 185.961201 
L 156.421224 179.12038 
L 158.307197 177.581679 
L 160.193169 175.281615 
L 162.079141 163.973674 
L 163.965113 153.37069 
L 165.851085 149.540631 
L 167.737057 146.774057 
L 169.623029 144.878006 
L 171.509001 141.757494 
L 173.394973 141.764687 
L 175.280945 142.777205 
L 177.166917 143.085783 
L 179.052889 145.148771 
L 180.938861 144.331849 
L 182.824834 145.391185 
L 184.710806 143.547389 
L 186.596778 142.572185 
L 188.48275 138.127261 
L 190.368722 134.978691 
L 192.254694 129.937648 
L 194.140666 128.701947 
L 196.026638 123.296215 
L 197.91261 120.120772 
L 199.798582 115.177687 
L 201.684554 115.752276 
L 203.570526 115.385928 
L 205.456498 113.933591 
L 207.34247 114.147757 
L 209.228443 110.941736 
L 211.114415 108.993167 
L 213.000387 103.855664 
L 214.886359 103.227929 
L 216.772331 98.75142 
L 218.658303 98.748718 
L 220.544275 95.316352 
L 222.430247 94.655241 
L 224.316219 93.773929 
L 226.202191 90.827836 
L 228.088163 91.239717 
L 229.974135 91.964809 
L 231.860107 90.632173 
L 233.746079 90.052014 
L 235.632052 87.89189 
L 237.518024 87.771305 
L 239.403996 88.795003 
L 241.289968 87.451225 
L 243.17594 87.961352 
L 245.061912 87.75014 
L 246.947884 88.248683 
L 248.833856 88.177044 
L 250.719828 88.642712 
L 252.6058 87.92955 
L 254.491772 87.990309 
L 256.377744 87.84628 
L 258.263716 88.273068 
L 260.149689 87.698904 
L 265.807605 87.826683 
L 267.693577 88.337863 
L 269.579549 87.499824 
L 271.465521 87.599138 
L 273.351493 87.849548 
L 275.237465 88.67285 
L 277.123437 88.766001 
L 279.009409 87.652463 
L 280.895381 89.407735 
L 282.781353 88.828675 
L 284.667325 89.109133 
L 286.553298 89.161901 
L 288.43927 90.938459 
L 290.325242 89.447871 
L 292.211214 89.973322 
L 295.983158 91.309839 
L 297.86913 91.833513 
L 312.956907 94.607379 
L 318.614823 96.726618 
L 326.158711 98.52665 
L 328.044683 99.257739 
L 331.816627 99.745098 
L 333.702599 99.939614 
L 337.474544 100.681082 
L 339.360516 101.22732 
L 341.246488 102.076013 
L 343.13246 102.7829 
L 345.018432 103.121252 
L 346.904404 103.322601 
L 348.790376 102.907502 
L 350.676348 103.240043 
L 352.56232 103.77554 
L 354.448292 104.839896 
L 361.99218 107.491985 
L 363.878153 108.168139 
L 367.650097 110.02696 
L 371.422041 111.353384 
L 373.308013 112.559528 
L 375.193985 113.92939 
L 378.965929 115.736071 
L 382.737873 117.307985 
L 384.623845 118.079497 
L 386.509817 119.32518 
L 390.281762 121.125854 
L 392.167734 122.184125 
L 394.053706 123.100266 
L 395.939678 123.863683 
L 397.82565 124.434176 
L 399.711622 124.694456 
L 401.597594 125.401386 
L 403.483566 126.829392 
L 405.369538 127.936099 
L 409.141482 129.724462 
L 411.027454 131.109602 
L 412.913426 132.738374 
L 416.685371 135.127199 
L 418.571343 136.231142 
L 422.343287 137.955649 
L 424.229259 139.52938 
L 426.115231 141.350183 
L 435.545091 143.996919 
L 439.317035 146.725576 
L 443.08898 148.858546 
L 444.974952 149.572284 
L 448.746896 150.601807 
L 450.632868 150.094663 
L 452.51884 150.772597 
L 454.404812 151.99886 
L 456.290784 152.693951 
L 458.176756 153.254794 
L 460.062728 153.987883 
L 463.834672 155.961032 
L 465.720644 156.43637 
L 469.492589 156.921954 
L 471.378561 157.007049 
L 473.264533 157.278257 
L 477.036477 160.059271 
L 480.808421 161.107052 
L 484.580365 161.786399 
L 486.466337 161.830362 
L 488.352309 161.560586 
L 490.238281 161.542609 
L 494.010226 162.940673 
L 501.554114 164.525252 
L 503.440086 164.511101 
L 507.21203 164.968831 
L 510.983974 164.926557 
L 514.755918 166.80085 
L 518.527863 166.985746 
L 520.413835 166.911103 
L 522.299807 166.677833 
L 524.185779 166.762768 
L 526.071751 167.386591 
L 529.843695 168.792344 
L 531.729667 169.451124 
L 533.615639 169.81257 
L 535.501611 169.990224 
L 539.273555 169.415073 
L 541.159527 169.501683 
L 544.931472 170.606964 
L 548.703416 171.058462 
L 550.589388 170.648575 
L 552.47536 170.497895 
L 558.133276 170.92992 
L 560.019248 170.928767 
L 561.90522 171.102074 
L 565.677164 172.176933 
L 571.335081 172.717948 
L 575.107025 172.717539 
L 577 173.390697 
L 577 173.390697 
" clip-path="url(#pdb31eff111)" style="fill: none; stroke: #00ff80; stroke-linecap: square"/>
   </g>
   <g id="patch_3">
    <path d="M 72 252 
L 72 34.56 
" style="fill: none; stroke: #000000; stroke-width: 0.8; stroke-linejoin: miter; stroke-linecap: square"/>
   </g>
   <g id="patch_4">
    <path d="M 518.4 252 
L 518.4 34.56 
" style="fill: none; stroke: #000000; stroke-width: 0.8; stroke-linejoin: miter; stroke-linecap: square"/>
   </g>
   <g id="patch_5">
    <path d="M 72 252 
L 518.4 252 
" style="fill: none; stroke: #000000; stroke-width: 0.8; stroke-linejoin: miter; stroke-linecap: square"/>
   </g>
   <g id="patch_6">
    <path d="M 72 34.56 
L 518.4 34.56 
" style="fill: none; stroke: #000000; stroke-width: 0.8; stroke-linejoin: miter; stroke-linecap: square"/>
   </g>
   <g id="text_19">
    <!-- Y6 Normalized NEXAFS -->
    <g transform="translate(226.228125 28.56)scale(0.12 -0.12)">
     <defs>
      <path id="DejaVuSans-59" d="M -13 4666 
L 666 4666 
L 1959 2747 
L 3244 4666 
L 3922 4666 
L 2272 2222 
L 2272 0 
L 1638 0 
L 1638 2222 
L -13 4666 
z
" transform="scale(0.015625)"/>
      <path id="DejaVuSans-36" d="M 2113 2584 
Q 1688 2584 1439 2293 
Q 1191 2003 1191 1497 
Q 1191 994 1439 701 
Q 1688 409 2113 409 
Q 2538 409 2786 701 
Q 3034 994 3034 1497 
Q 3034 2003 2786 2293 
Q 2538 2584 2113 2584 
z
M 3366 4563 
L 3366 3988 
Q 3128 4100 2886 4159 
Q 2644 4219 2406 4219 
Q 1781 4219 1451 3797 
Q 1122 3375 1075 2522 
Q 1259 2794 1537 2939 
Q 1816 3084 2150 3084 
Q 2853 3084 3261 2657 
Q 3669 2231 3669 1497 
Q 3669 778 3244 343 
Q 2819 -91 2113 -91 
Q 1303 -91 875 529 
Q 447 1150 447 2328 
Q 447 3434 972 4092 
Q 1497 4750 2381 4750 
Q 2619 4750 2861 4703 
Q 3103 4656 3366 4563 
z
" transform="scale(0.015625)"/>
      <path id="DejaVuSans-4e" d="M 628 4666 
L 1478 4666 
L 3547 763 
L 3547 4666 
L 4159 4666 
L 4159 0 
L 3309 0 
L 1241 3903 
L 1241 0 
L 628 0 
L 628 4666 
z
" transform="scale(0.015625)"/>
      <path id="DejaVuSans-6d" d="M 3328 2828 
Q 3544 3216 3844 3400 
Q 4144 3584 4550 3584 
Q 5097 3584 5394 3201 
Q 5691 2819 5691 2113 
L 5691 0 
L 5113 0 
L 5113 2094 
Q 5113 2597 4934 2840 
Q 4756 3084 4391 3084 
Q 3944 3084 3684 2787 
Q 3425 2491 3425 1978 
L 3425 0 
L 2847 0 
L 2847 2094 
Q 2847 2600 2669 2842 
Q 2491 3084 2119 3084 
Q 1678 3084 1418 2786 
Q 1159 2488 1159 1978 
L 1159 0 
L 581 0 
L 581 3500 
L 1159 3500 
L 1159 2956 
Q 1356 3278 1631 3431 
Q 1906 3584 2284 3584 
Q 2666 3584 2933 3390 
Q 3200 3197 3328 2828 
z
" transform="scale(0.015625)"/>
      <path id="DejaVuSans-7a" d="M 353 3500 
L 3084 3500 
L 3084 2975 
L 922 459 
L 3084 459 
L 3084 0 
L 275 0 
L 275 525 
L 2438 3041 
L 353 3041 
L 353 3500 
z
" transform="scale(0.015625)"/>
      <path id="DejaVuSans-45" d="M 628 4666 
L 3578 4666 
L 3578 4134 
L 1259 4134 
L 1259 2753 
L 3481 2753 
L 3481 2222 
L 1259 2222 
L 1259 531 
L 3634 531 
L 3634 0 
L 628 0 
L 628 4666 
z
" transform="scale(0.015625)"/>
      <path id="DejaVuSans-58" d="M 403 4666 
L 1081 4666 
L 2241 2931 
L 3406 4666 
L 4084 4666 
L 2584 2425 
L 4184 0 
L 3506 0 
L 2194 1984 
L 872 0 
L 191 0 
L 1856 2491 
L 403 4666 
z
" transform="scale(0.015625)"/>
      <path id="DejaVuSans-41" d="M 2188 4044 
L 1331 1722 
L 3047 1722 
L 2188 4044 
z
M 1831 4666 
L 2547 4666 
L 4325 0 
L 3669 0 
L 3244 1197 
L 1141 1197 
L 716 0 
L 50 0 
L 1831 4666 
z
" transform="scale(0.015625)"/>
      <path id="DejaVuSans-46" d="M 628 4666 
L 3309 4666 
L 3309 4134 
L 1259 4134 
L 1259 2759 
L 3109 2759 
L 3109 2228 
L 1259 2228 
L 1259 0 
L 628 0 
L 628 4666 
z
" transform="scale(0.015625)"/>
      <path id="DejaVuSans-53" d="M 3425 4513 
L 3425 3897 
Q 3066 4069 2747 4153 
Q 2428 4238 2131 4238 
Q 1616 4238 1336 4038 
Q 1056 3838 1056 3469 
Q 1056 3159 1242 3001 
Q 1428 2844 1947 2747 
L 2328 2669 
Q 3034 2534 3370 2195 
Q 3706 1856 3706 1288 
Q 3706 609 3251 259 
Q 2797 -91 1919 -91 
Q 1588 -91 1214 -16 
Q 841 59 441 206 
L 441 856 
Q 825 641 1194 531 
Q 1563 422 1919 422 
Q 2459 422 2753 634 
Q 3047 847 3047 1241 
Q 3047 1584 2836 1778 
Q 2625 1972 2144 2069 
L 1759 2144 
Q 1053 2284 737 2584 
Q 422 2884 422 3419 
Q 422 4038 858 4394 
Q 1294 4750 2059 4750 
Q 2388 4750 2728 4690 
Q 3069 4631 3425 4513 
z
" transform="scale(0.015625)"/>
     </defs>
     <use xlink:href="#DejaVuSans-59"/>
     <use xlink:href="#DejaVuSans-36" x="61.083984"/>
     <use xlink:href="#DejaVuSans-20" x="124.707031"/>
     <use xlink:href="#DejaVuSans-4e" x="156.494141"/>
     <use xlink:href="#DejaVuSans-6f" x="231.298828"/>
     <use xlink:href="#DejaVuSans-72" x="292.480469"/>
     <use xlink:href="#DejaVuSans-6d" x="331.84375"/>
     <use xlink:href="#DejaVuSans-61" x="429.255859"/>
     <use xlink:href="#DejaVuSans-6c" x="490.535156"/>
     <use xlink:href="#DejaVuSans-69" x="518.318359"/>
     <use xlink:href="#DejaVuSans-7a" x="546.101562"/>
     <use xlink:href="#DejaVuSans-65" x="598.591797"/>
     <use xlink:href="#DejaVuSans-64" x="660.115234"/>
     <use xlink:href="#DejaVuSans-20" x="723.591797"/>
     <use xlink:href="#DejaVuSans-4e" x="755.378906"/>
     <use xlink:href="#DejaVuSans-45" x="830.183594"/>
     <use xlink:href="#DejaVuSans-58" x="893.367188"/>
     <use xlink:href="#DejaVuSans-41" x="961.873047"/>
     <use xlink:href="#DejaVuSans-46" x="1030.28125"/>
     <use xlink:href="#DejaVuSans-53" x="1086.050781"/>
    </g>
   </g>
   <g id="legend_1">
    <g id="patch_7">
     <path d="M 394.645312 247 
L 511.4 247 
Q 513.4 247 513.4 245 
L 513.4 84.540625 
Q 513.4 82.540625 511.4 82.540625 
L 394.645312 82.540625 
Q 392.645312 82.540625 392.645312 84.540625 
L 392.645312 245 
Q 392.645312 247 394.645312 247 
z
" style="fill: #ffffff; opacity: 0.8; stroke: #cccccc; stroke-linejoin: miter"/>
    </g>
    <g id="line2d_28">
     <path d="M 396.645312 90.639063 
L 406.645312 90.639063 
L 416.645312 90.639063 
" style="fill: none; stroke: #0d0887; stroke-width: 2; stroke-linecap: square"/>
    </g>
    <g id="text_20">
     <!-- extrapolated 0 -->
     <g transform="translate(424.645312 94.139063)scale(0.1 -0.1)">
      <defs>
       <path id="DejaVuSans-78" d="M 3513 3500 
L 2247 1797 
L 3578 0 
L 2900 0 
L 1881 1375 
L 863 0 
L 184 0 
L 1544 1831 
L 300 3500 
L 978 3500 
L 1906 2253 
L 2834 3500 
L 3513 3500 
z
" transform="scale(0.015625)"/>
       <path id="DejaVuSans-70" d="M 1159 525 
L 1159 -1331 
L 581 -1331 
L 581 3500 
L 1159 3500 
L 1159 2969 
Q 1341 3281 1617 3432 
Q 1894 3584 2278 3584 
Q 2916 3584 3314 3078 
Q 3713 2572 3713 1747 
Q 3713 922 3314 415 
Q 2916 -91 2278 -91 
Q 1894 -91 1617 61 
Q 1341 213 1159 525 
z
M 3116 1747 
Q 3116 2381 2855 2742 
Q 2594 3103 2138 3103 
Q 1681 3103 1420 2742 
Q 1159 2381 1159 1747 
Q 1159 1113 1420 752 
Q 1681 391 2138 391 
Q 2594 391 2855 752 
Q 3116 1113 3116 1747 
z
" transform="scale(0.015625)"/>
       <path id="DejaVuSans-b0" d="M 1600 4347 
Q 1350 4347 1178 4173 
Q 1006 4000 1006 3750 
Q 1006 3503 1178 3333 
Q 1350 3163 1600 3163 
Q 1850 3163 2022 3333 
Q 2194 3503 2194 3750 
Q 2194 3997 2020 4172 
Q 1847 4347 1600 4347 
z
M 1600 4750 
Q 1800 4750 1984 4673 
Q 2169 4597 2303 4453 
Q 2447 4313 2519 4134 
Q 2591 3956 2591 3750 
Q 2591 3338 2302 3052 
Q 2013 2766 1594 2766 
Q 1172 2766 890 3047 
Q 609 3328 609 3750 
Q 609 4169 896 4459 
Q 1184 4750 1600 4750 
z
" transform="scale(0.015625)"/>
      </defs>
      <use xlink:href="#DejaVuSans-65"/>
      <use xlink:href="#DejaVuSans-78" x="59.773438"/>
      <use xlink:href="#DejaVuSans-74" x="118.953125"/>
      <use xlink:href="#DejaVuSans-72" x="158.162109"/>
      <use xlink:href="#DejaVuSans-61" x="199.275391"/>
      <use xlink:href="#DejaVuSans-70" x="260.554688"/>
      <use xlink:href="#DejaVuSans-6f" x="324.03125"/>
      <use xlink:href="#DejaVuSans-6c" x="385.212891"/>
      <use xlink:href="#DejaVuSans-61" x="412.996094"/>
      <use xlink:href="#DejaVuSans-74" x="474.275391"/>
      <use xlink:href="#DejaVuSans-65" x="513.484375"/>
      <use xlink:href="#DejaVuSans-64" x="575.007812"/>
      <use xlink:href="#DejaVuSans-20" x="638.484375"/>
      <use xlink:href="#DejaVuSans-30" x="670.271484"/>
      <use xlink:href="#DejaVuSans-b0" x="733.894531"/>
     </g>
    </g>
    <g id="line2d_29">
     <path d="M 396.645312 105.317188 
L 406.645312 105.317188 
L 416.645312 105.317188 
" style="fill: none; stroke: #6a00a8; stroke-width: 2; stroke-linecap: square"/>
    </g>
    <g id="text_21">
     <!-- extrapolated 30 -->
     <g transform="translate(424.645312 108.817188)scale(0.1 -0.1)">
      <use xlink:href="#DejaVuSans-65"/>
      <use xlink:href="#DejaVuSans-78" x="59.773438"/>
      <use xlink:href="#DejaVuSans-74" x="118.953125"/>
      <use xlink:href="#DejaVuSans-72" x="158.162109"/>
      <use xlink:href="#DejaVuSans-61" x="199.275391"/>
      <use xlink:href="#DejaVuSans-70" x="260.554688"/>
      <use xlink:href="#DejaVuSans-6f" x="324.03125"/>
      <use xlink:href="#DejaVuSans-6c" x="385.212891"/>
      <use xlink:href="#DejaVuSans-61" x="412.996094"/>
      <use xlink:href="#DejaVuSans-74" x="474.275391"/>
      <use xlink:href="#DejaVuSans-65" x="513.484375"/>
      <use xlink:href="#DejaVuSans-64" x="575.007812"/>
      <use xlink:href="#DejaVuSans-20" x="638.484375"/>
      <use xlink:href="#DejaVuSans-33" x="670.271484"/>
      <use xlink:href="#DejaVuSans-30" x="733.894531"/>
      <use xlink:href="#DejaVuSans-b0" x="797.517578"/>
     </g>
    </g>
    <g id="line2d_30">
     <path d="M 396.645312 119.995313 
L 406.645312 119.995313 
L 416.645312 119.995313 
" style="fill: none; stroke: #b12a90; stroke-width: 2; stroke-linecap: square"/>
    </g>
    <g id="text_22">
     <!-- extrapolated 40 -->
     <g transform="translate(424.645312 123.495313)scale(0.1 -0.1)">
      <defs>
       <path id="DejaVuSans-34" d="M 2419 4116 
L 825 1625 
L 2419 1625 
L 2419 4116 
z
M 2253 4666 
L 3047 4666 
L 3047 1625 
L 3713 1625 
L 3713 1100 
L 3047 1100 
L 3047 0 
L 2419 0 
L 2419 1100 
L 313 1100 
L 313 1709 
L 2253 4666 
z
" transform="scale(0.015625)"/>
      </defs>
      <use xlink:href="#DejaVuSans-65"/>
      <use xlink:href="#DejaVuSans-78" x="59.773438"/>
      <use xlink:href="#DejaVuSans-74" x="118.953125"/>
      <use xlink:href="#DejaVuSans-72" x="158.162109"/>
      <use xlink:href="#DejaVuSans-61" x="199.275391"/>
      <use xlink:href="#DejaVuSans-70" x="260.554688"/>
      <use xlink:href="#DejaVuSans-6f" x="324.03125"/>
      <use xlink:href="#DejaVuSans-6c" x="385.212891"/>
      <use xlink:href="#DejaVuSans-61" x="412.996094"/>
      <use xlink:href="#DejaVuSans-74" x="474.275391"/>
      <use xlink:href="#DejaVuSans-65" x="513.484375"/>
      <use xlink:href="#DejaVuSans-64" x="575.007812"/>
      <use xlink:href="#DejaVuSans-20" x="638.484375"/>
      <use xlink:href="#DejaVuSans-34" x="670.271484"/>
      <use xlink:href="#DejaVuSans-30" x="733.894531"/>
      <use xlink:href="#DejaVuSans-b0" x="797.517578"/>
     </g>
    </g>
    <g id="line2d_31">
     <path d="M 396.645312 134.673438 
L 406.645312 134.673438 
L 416.645312 134.673438 
" style="fill: none; stroke: #e16462; stroke-width: 2; stroke-linecap: square"/>
    </g>
    <g id="text_23">
     <!-- extrapolated 55 -->
     <g transform="translate(424.645312 138.173438)scale(0.1 -0.1)">
      <use xlink:href="#DejaVuSans-65"/>
      <use xlink:href="#DejaVuSans-78" x="59.773438"/>
      <use xlink:href="#DejaVuSans-74" x="118.953125"/>
      <use xlink:href="#DejaVuSans-72" x="158.162109"/>
      <use xlink:href="#DejaVuSans-61" x="199.275391"/>
      <use xlink:href="#DejaVuSans-70" x="260.554688"/>
      <use xlink:href="#DejaVuSans-6f" x="324.03125"/>
      <use xlink:href="#DejaVuSans-6c" x="385.212891"/>
      <use xlink:href="#DejaVuSans-61" x="412.996094"/>
      <use xlink:href="#DejaVuSans-74" x="474.275391"/>
      <use xlink:href="#DejaVuSans-65" x="513.484375"/>
      <use xlink:href="#DejaVuSans-64" x="575.007812"/>
      <use xlink:href="#DejaVuSans-20" x="638.484375"/>
      <use xlink:href="#DejaVuSans-35" x="670.271484"/>
      <use xlink:href="#DejaVuSans-35" x="733.894531"/>
      <use xlink:href="#DejaVuSans-b0" x="797.517578"/>
     </g>
    </g>
    <g id="line2d_32">
     <path d="M 396.645312 149.351563 
L 406.645312 149.351563 
L 416.645312 149.351563 
" style="fill: none; stroke: #fca636; stroke-width: 2; stroke-linecap: square"/>
    </g>
    <g id="text_24">
     <!-- extrapolated 70 -->
     <g transform="translate(424.645312 152.851563)scale(0.1 -0.1)">
      <defs>
       <path id="DejaVuSans-37" d="M 525 4666 
L 3525 4666 
L 3525 4397 
L 1831 0 
L 1172 0 
L 2766 4134 
L 525 4134 
L 525 4666 
z
" transform="scale(0.015625)"/>
      </defs>
      <use xlink:href="#DejaVuSans-65"/>
      <use xlink:href="#DejaVuSans-78" x="59.773438"/>
      <use xlink:href="#DejaVuSans-74" x="118.953125"/>
      <use xlink:href="#DejaVuSans-72" x="158.162109"/>
      <use xlink:href="#DejaVuSans-61" x="199.275391"/>
      <use xlink:href="#DejaVuSans-70" x="260.554688"/>
      <use xlink:href="#DejaVuSans-6f" x="324.03125"/>
      <use xlink:href="#DejaVuSans-6c" x="385.212891"/>
      <use xlink:href="#DejaVuSans-61" x="412.996094"/>
      <use xlink:href="#DejaVuSans-74" x="474.275391"/>
      <use xlink:href="#DejaVuSans-65" x="513.484375"/>
      <use xlink:href="#DejaVuSans-64" x="575.007812"/>
      <use xlink:href="#DejaVuSans-20" x="638.484375"/>
      <use xlink:href="#DejaVuSans-37" x="670.271484"/>
      <use xlink:href="#DejaVuSans-30" x="733.894531"/>
      <use xlink:href="#DejaVuSans-b0" x="797.517578"/>
     </g>
    </g>
    <g id="line2d_33">
     <path d="M 396.645312 164.029688 
L 406.645312 164.029688 
L 416.645312 164.029688 
" style="fill: none; stroke: #f0f921; stroke-width: 2; stroke-linecap: square"/>
    </g>
    <g id="text_25">
     <!-- extrapolated 90 -->
     <g transform="translate(424.645312 167.529688)scale(0.1 -0.1)">
      <use xlink:href="#DejaVuSans-65"/>
      <use xlink:href="#DejaVuSans-78" x="59.773438"/>
      <use xlink:href="#DejaVuSans-74" x="118.953125"/>
      <use xlink:href="#DejaVuSans-72" x="158.162109"/>
      <use xlink:href="#DejaVuSans-61" x="199.275391"/>
      <use xlink:href="#DejaVuSans-70" x="260.554688"/>
      <use xlink:href="#DejaVuSans-6f" x="324.03125"/>
      <use xlink:href="#DejaVuSans-6c" x="385.212891"/>
      <use xlink:href="#DejaVuSans-61" x="412.996094"/>
      <use xlink:href="#DejaVuSans-74" x="474.275391"/>
      <use xlink:href="#DejaVuSans-65" x="513.484375"/>
      <use xlink:href="#DejaVuSans-64" x="575.007812"/>
      <use xlink:href="#DejaVuSans-20" x="638.484375"/>
      <use xlink:href="#DejaVuSans-39" x="670.271484"/>
      <use xlink:href="#DejaVuSans-30" x="733.894531"/>
      <use xlink:href="#DejaVuSans-b0" x="797.517578"/>
     </g>
    </g>
    <g id="line2d_34">
     <path d="M 396.645312 178.707813 
L 406.645312 178.707813 
L 416.645312 178.707813 
" style="fill: none; stroke: #0000ff; stroke-linecap: square"/>
    </g>
    <g id="text_26">
     <!-- original 30 -->
     <g transform="translate(424.645312 182.207813)scale(0.1 -0.1)">
      <use xlink:href="#DejaVuSans-6f"/>
      <use xlink:href="#DejaVuSans-72" x="61.181641"/>
      <use xlink:href="#DejaVuSans-69" x="102.294922"/>
      <use xlink:href="#DejaVuSans-67" x="130.078125"/>
      <use xlink:href="#DejaVuSans-69" x="193.554688"/>
      <use xlink:href="#DejaVuSans-6e" x="221.337891"/>
      <use xlink:href="#DejaVuSans-61" x="284.716797"/>
      <use xlink:href="#DejaVuSans-6c" x="345.996094"/>
      <use xlink:href="#DejaVuSans-20" x="373.779297"/>
      <use xlink:href="#DejaVuSans-33" x="405.566406"/>
      <use xlink:href="#DejaVuSans-30" x="469.189453"/>
      <use xlink:href="#DejaVuSans-b0" x="532.8125"/>
     </g>
    </g>
    <g id="line2d_35">
     <path d="M 396.645312 193.385938 
L 406.645312 193.385938 
L 416.645312 193.385938 
" style="fill: none; stroke: #0040df; stroke-linecap: square"/>
    </g>
    <g id="text_27">
     <!-- original 40 -->
     <g transform="translate(424.645312 196.885938)scale(0.1 -0.1)">
      <use xlink:href="#DejaVuSans-6f"/>
      <use xlink:href="#DejaVuSans-72" x="61.181641"/>
      <use xlink:href="#DejaVuSans-69" x="102.294922"/>
      <use xlink:href="#DejaVuSans-67" x="130.078125"/>
      <use xlink:href="#DejaVuSans-69" x="193.554688"/>
      <use xlink:href="#DejaVuSans-6e" x="221.337891"/>
      <use xlink:href="#DejaVuSans-61" x="284.716797"/>
      <use xlink:href="#DejaVuSans-6c" x="345.996094"/>
      <use xlink:href="#DejaVuSans-20" x="373.779297"/>
      <use xlink:href="#DejaVuSans-34" x="405.566406"/>
      <use xlink:href="#DejaVuSans-30" x="469.189453"/>
      <use xlink:href="#DejaVuSans-b0" x="532.8125"/>
     </g>
    </g>
    <g id="line2d_36">
     <path d="M 396.645312 208.064063 
L 406.645312 208.064063 
L 416.645312 208.064063 
" style="fill: none; stroke: #0080bf; stroke-linecap: square"/>
    </g>
    <g id="text_28">
     <!-- original 55 -->
     <g transform="translate(424.645312 211.564063)scale(0.1 -0.1)">
      <use xlink:href="#DejaVuSans-6f"/>
      <use xlink:href="#DejaVuSans-72" x="61.181641"/>
      <use xlink:href="#DejaVuSans-69" x="102.294922"/>
      <use xlink:href="#DejaVuSans-67" x="130.078125"/>
      <use xlink:href="#DejaVuSans-69" x="193.554688"/>
      <use xlink:href="#DejaVuSans-6e" x="221.337891"/>
      <use xlink:href="#DejaVuSans-61" x="284.716797"/>
      <use xlink:href="#DejaVuSans-6c" x="345.996094"/>
      <use xlink:href="#DejaVuSans-20" x="373.779297"/>
      <use xlink:href="#DejaVuSans-35" x="405.566406"/>
      <use xlink:href="#DejaVuSans-35" x="469.189453"/>
      <use xlink:href="#DejaVuSans-b0" x="532.8125"/>
     </g>
    </g>
    <g id="line2d_37">
     <path d="M 396.645312 222.742188 
L 406.645312 222.742188 
L 416.645312 222.742188 
" style="fill: none; stroke: #00c09f; stroke-linecap: square"/>
    </g>
    <g id="text_29">
     <!-- original 70 -->
     <g transform="translate(424.645312 226.242188)scale(0.1 -0.1)">
      <use xlink:href="#DejaVuSans-6f"/>
      <use xlink:href="#DejaVuSans-72" x="61.181641"/>
      <use xlink:href="#DejaVuSans-69" x="102.294922"/>
      <use xlink:href="#DejaVuSans-67" x="130.078125"/>
      <use xlink:href="#DejaVuSans-69" x="193.554688"/>
      <use xlink:href="#DejaVuSans-6e" x="221.337891"/>
      <use xlink:href="#DejaVuSans-61" x="284.716797"/>
      <use xlink:href="#DejaVuSans-6c" x="345.996094"/>
      <use xlink:href="#DejaVuSans-20" x="373.779297"/>
      <use xlink:href="#DejaVuSans-37" x="405.566406"/>
      <use xlink:href="#DejaVuSans-30" x="469.189453"/>
      <use xlink:href="#DejaVuSans-b0" x="532.8125"/>
     </g>
    </g>
    <g id="line2d_38">
     <path d="M 396.645312 237.420312 
L 406.645312 237.420312 
L 416.645312 237.420312 
" style="fill: none; stroke: #00ff80; stroke-linecap: square"/>
    </g>
    <g id="text_30">
     <!-- original 90 -->
     <g transform="translate(424.645312 240.920312)scale(0.1 -0.1)">
      <use xlink:href="#DejaVuSans-6f"/>
      <use xlink:href="#DejaVuSans-72" x="61.181641"/>
      <use xlink:href="#DejaVuSans-69" x="102.294922"/>
      <use xlink:href="#DejaVuSans-67" x="130.078125"/>
      <use xlink:href="#DejaVuSans-69" x="193.554688"/>
      <use xlink:href="#DejaVuSans-6e" x="221.337891"/>
      <use xlink:href="#DejaVuSans-61" x="284.716797"/>
      <use xlink:href="#DejaVuSans-6c" x="345.996094"/>
      <use xlink:href="#DejaVuSans-20" x="373.779297"/>
      <use xlink:href="#DejaVuSans-39" x="405.566406"/>
      <use xlink:href="#DejaVuSans-30" x="469.189453"/>
      <use xlink:href="#DejaVuSans-b0" x="532.8125"/>
     </g>
    </g>
   </g>
  </g>
 </g>
 <defs>
  <clipPath id="pdb31eff111">
   <rect x="72" y="34.56" width="446.4" height="217.44"/>
  </clipPath>
 </defs>
</svg>
