<?xml version="1.0" encoding="utf-8" standalone="no"?>
<!DOCTYPE svg PUBLIC "-//W3C//DTD SVG 1.1//EN"
  "http://www.w3.org/Graphics/SVG/1.1/DTD/svg11.dtd">
<svg xmlns:xlink="http://www.w3.org/1999/xlink" width="576pt" height="288pt" viewBox="0 0 576 288" xmlns="http://www.w3.org/2000/svg" version="1.1">
 <metadata>
  <rdf:RDF xmlns:dc="http://purl.org/dc/elements/1.1/" xmlns:cc="http://creativecommons.org/ns#" xmlns:rdf="http://www.w3.org/1999/02/22-rdf-syntax-ns#">
   <cc:Work>
    <dc:type rdf:resource="http://purl.org/dc/dcmitype/StillImage"/>
    <dc:date>2022-12-13T15:28:30.162523</dc:date>
    <dc:format>image/svg+xml</dc:format>
    <dc:creator>
     <cc:Agent>
      <dc:title>Matplotlib v3.5.1, https://matplotlib.org/</dc:title>
     </cc:Agent>
    </dc:creator>
   </cc:Work>
  </rdf:RDF>
 </metadata>
 <defs>
  <style type="text/css">*{stroke-linejoin: round; stroke-linecap: butt}</style>
 </defs>
 <g id="figure_1">
  <g id="patch_1">
   <path d="M 0 288 
L 576 288 
L 576 0 
L 0 0 
L 0 288 
z
" style="fill: none"/>
  </g>
  <g id="axes_1">
   <g id="patch_2">
    <path d="M 72 252 
L 518.4 252 
L 518.4 34.56 
L 72 34.56 
z
" style="fill: #ffffff"/>
   </g>
   <g id="matplotlib.axis_1">
    <g id="xtick_1">
     <g id="line2d_1">
      <defs>
       <path id="mc7a752e1f3" d="M 0 0 
L 0 3.5 
" style="stroke: #000000; stroke-width: 0.8"/>
      </defs>
      <g>
       <use xlink:href="#mc7a752e1f3" x="72" y="252" style="stroke: #000000; stroke-width: 0.8"/>
      </g>
     </g>
     <g id="text_1">
      <!-- 280 -->
      <g transform="translate(62.45625 266.598437)scale(0.1 -0.1)">
       <defs>
        <path id="DejaVuSans-32" d="M 1228 531 
L 3431 531 
L 3431 0 
L 469 0 
L 469 531 
Q 828 903 1448 1529 
Q 2069 2156 2228 2338 
Q 2531 2678 2651 2914 
Q 2772 3150 2772 3378 
Q 2772 3750 2511 3984 
Q 2250 4219 1831 4219 
Q 1534 4219 1204 4116 
Q 875 4013 500 3803 
L 500 4441 
Q 881 4594 1212 4672 
Q 1544 4750 1819 4750 
Q 2544 4750 2975 4387 
Q 3406 4025 3406 3419 
Q 3406 3131 3298 2873 
Q 3191 2616 2906 2266 
Q 2828 2175 2409 1742 
Q 1991 1309 1228 531 
z
" transform="scale(0.015625)"/>
        <path id="DejaVuSans-38" d="M 2034 2216 
Q 1584 2216 1326 1975 
Q 1069 1734 1069 1313 
Q 1069 891 1326 650 
Q 1584 409 2034 409 
Q 2484 409 2743 651 
Q 3003 894 3003 1313 
Q 3003 1734 2745 1975 
Q 2488 2216 2034 2216 
z
M 1403 2484 
Q 997 2584 770 2862 
Q 544 3141 544 3541 
Q 544 4100 942 4425 
Q 1341 4750 2034 4750 
Q 2731 4750 3128 4425 
Q 3525 4100 3525 3541 
Q 3525 3141 3298 2862 
Q 3072 2584 2669 2484 
Q 3125 2378 3379 2068 
Q 3634 1759 3634 1313 
Q 3634 634 3220 271 
Q 2806 -91 2034 -91 
Q 1263 -91 848 271 
Q 434 634 434 1313 
Q 434 1759 690 2068 
Q 947 2378 1403 2484 
z
M 1172 3481 
Q 1172 3119 1398 2916 
Q 1625 2713 2034 2713 
Q 2441 2713 2670 2916 
Q 2900 3119 2900 3481 
Q 2900 3844 2670 4047 
Q 2441 4250 2034 4250 
Q 1625 4250 1398 4047 
Q 1172 3844 1172 3481 
z
" transform="scale(0.015625)"/>
        <path id="DejaVuSans-30" d="M 2034 4250 
Q 1547 4250 1301 3770 
Q 1056 3291 1056 2328 
Q 1056 1369 1301 889 
Q 1547 409 2034 409 
Q 2525 409 2770 889 
Q 3016 1369 3016 2328 
Q 3016 3291 2770 3770 
Q 2525 4250 2034 4250 
z
M 2034 4750 
Q 2819 4750 3233 4129 
Q 3647 3509 3647 2328 
Q 3647 1150 3233 529 
Q 2819 -91 2034 -91 
Q 1250 -91 836 529 
Q 422 1150 422 2328 
Q 422 3509 836 4129 
Q 1250 4750 2034 4750 
z
" transform="scale(0.015625)"/>
       </defs>
       <use xlink:href="#DejaVuSans-32"/>
       <use xlink:href="#DejaVuSans-38" x="63.623047"/>
       <use xlink:href="#DejaVuSans-30" x="127.246094"/>
      </g>
     </g>
    </g>
    <g id="xtick_2">
     <g id="line2d_2">
      <g>
       <use xlink:href="#mc7a752e1f3" x="135.771429" y="252" style="stroke: #000000; stroke-width: 0.8"/>
      </g>
     </g>
     <g id="text_2">
      <!-- 285 -->
      <g transform="translate(126.227679 266.598437)scale(0.1 -0.1)">
       <defs>
        <path id="DejaVuSans-35" d="M 691 4666 
L 3169 4666 
L 3169 4134 
L 1269 4134 
L 1269 2991 
Q 1406 3038 1543 3061 
Q 1681 3084 1819 3084 
Q 2600 3084 3056 2656 
Q 3513 2228 3513 1497 
Q 3513 744 3044 326 
Q 2575 -91 1722 -91 
Q 1428 -91 1123 -41 
Q 819 9 494 109 
L 494 744 
Q 775 591 1075 516 
Q 1375 441 1709 441 
Q 2250 441 2565 725 
Q 2881 1009 2881 1497 
Q 2881 1984 2565 2268 
Q 2250 2553 1709 2553 
Q 1456 2553 1204 2497 
Q 953 2441 691 2322 
L 691 4666 
z
" transform="scale(0.015625)"/>
       </defs>
       <use xlink:href="#DejaVuSans-32"/>
       <use xlink:href="#DejaVuSans-38" x="63.623047"/>
       <use xlink:href="#DejaVuSans-35" x="127.246094"/>
      </g>
     </g>
    </g>
    <g id="xtick_3">
     <g id="line2d_3">
      <g>
       <use xlink:href="#mc7a752e1f3" x="199.542857" y="252" style="stroke: #000000; stroke-width: 0.8"/>
      </g>
     </g>
     <g id="text_3">
      <!-- 290 -->
      <g transform="translate(189.999107 266.598437)scale(0.1 -0.1)">
       <defs>
        <path id="DejaVuSans-39" d="M 703 97 
L 703 672 
Q 941 559 1184 500 
Q 1428 441 1663 441 
Q 2288 441 2617 861 
Q 2947 1281 2994 2138 
Q 2813 1869 2534 1725 
Q 2256 1581 1919 1581 
Q 1219 1581 811 2004 
Q 403 2428 403 3163 
Q 403 3881 828 4315 
Q 1253 4750 1959 4750 
Q 2769 4750 3195 4129 
Q 3622 3509 3622 2328 
Q 3622 1225 3098 567 
Q 2575 -91 1691 -91 
Q 1453 -91 1209 -44 
Q 966 3 703 97 
z
M 1959 2075 
Q 2384 2075 2632 2365 
Q 2881 2656 2881 3163 
Q 2881 3666 2632 3958 
Q 2384 4250 1959 4250 
Q 1534 4250 1286 3958 
Q 1038 3666 1038 3163 
Q 1038 2656 1286 2365 
Q 1534 2075 1959 2075 
z
" transform="scale(0.015625)"/>
       </defs>
       <use xlink:href="#DejaVuSans-32"/>
       <use xlink:href="#DejaVuSans-39" x="63.623047"/>
       <use xlink:href="#DejaVuSans-30" x="127.246094"/>
      </g>
     </g>
    </g>
    <g id="xtick_4">
     <g id="line2d_4">
      <g>
       <use xlink:href="#mc7a752e1f3" x="263.314286" y="252" style="stroke: #000000; stroke-width: 0.8"/>
      </g>
     </g>
     <g id="text_4">
      <!-- 295 -->
      <g transform="translate(253.770536 266.598437)scale(0.1 -0.1)">
       <use xlink:href="#DejaVuSans-32"/>
       <use xlink:href="#DejaVuSans-39" x="63.623047"/>
       <use xlink:href="#DejaVuSans-35" x="127.246094"/>
      </g>
     </g>
    </g>
    <g id="xtick_5">
     <g id="line2d_5">
      <g>
       <use xlink:href="#mc7a752e1f3" x="327.085714" y="252" style="stroke: #000000; stroke-width: 0.8"/>
      </g>
     </g>
     <g id="text_5">
      <!-- 300 -->
      <g transform="translate(317.541964 266.598437)scale(0.1 -0.1)">
       <defs>
        <path id="DejaVuSans-33" d="M 2597 2516 
Q 3050 2419 3304 2112 
Q 3559 1806 3559 1356 
Q 3559 666 3084 287 
Q 2609 -91 1734 -91 
Q 1441 -91 1130 -33 
Q 819 25 488 141 
L 488 750 
Q 750 597 1062 519 
Q 1375 441 1716 441 
Q 2309 441 2620 675 
Q 2931 909 2931 1356 
Q 2931 1769 2642 2001 
Q 2353 2234 1838 2234 
L 1294 2234 
L 1294 2753 
L 1863 2753 
Q 2328 2753 2575 2939 
Q 2822 3125 2822 3475 
Q 2822 3834 2567 4026 
Q 2313 4219 1838 4219 
Q 1578 4219 1281 4162 
Q 984 4106 628 3988 
L 628 4550 
Q 988 4650 1302 4700 
Q 1616 4750 1894 4750 
Q 2613 4750 3031 4423 
Q 3450 4097 3450 3541 
Q 3450 3153 3228 2886 
Q 3006 2619 2597 2516 
z
" transform="scale(0.015625)"/>
       </defs>
       <use xlink:href="#DejaVuSans-33"/>
       <use xlink:href="#DejaVuSans-30" x="63.623047"/>
       <use xlink:href="#DejaVuSans-30" x="127.246094"/>
      </g>
     </g>
    </g>
    <g id="xtick_6">
     <g id="line2d_6">
      <g>
       <use xlink:href="#mc7a752e1f3" x="390.857143" y="252" style="stroke: #000000; stroke-width: 0.8"/>
      </g>
     </g>
     <g id="text_6">
      <!-- 305 -->
      <g transform="translate(381.313393 266.598437)scale(0.1 -0.1)">
       <use xlink:href="#DejaVuSans-33"/>
       <use xlink:href="#DejaVuSans-30" x="63.623047"/>
       <use xlink:href="#DejaVuSans-35" x="127.246094"/>
      </g>
     </g>
    </g>
    <g id="xtick_7">
     <g id="line2d_7">
      <g>
       <use xlink:href="#mc7a752e1f3" x="454.628571" y="252" style="stroke: #000000; stroke-width: 0.8"/>
      </g>
     </g>
     <g id="text_7">
      <!-- 310 -->
      <g transform="translate(445.084821 266.598437)scale(0.1 -0.1)">
       <defs>
        <path id="DejaVuSans-31" d="M 794 531 
L 1825 531 
L 1825 4091 
L 703 3866 
L 703 4441 
L 1819 4666 
L 2450 4666 
L 2450 531 
L 3481 531 
L 3481 0 
L 794 0 
L 794 531 
z
" transform="scale(0.015625)"/>
       </defs>
       <use xlink:href="#DejaVuSans-33"/>
       <use xlink:href="#DejaVuSans-31" x="63.623047"/>
       <use xlink:href="#DejaVuSans-30" x="127.246094"/>
      </g>
     </g>
    </g>
    <g id="xtick_8">
     <g id="line2d_8">
      <g>
       <use xlink:href="#mc7a752e1f3" x="518.4" y="252" style="stroke: #000000; stroke-width: 0.8"/>
      </g>
     </g>
     <g id="text_8">
      <!-- 315 -->
      <g transform="translate(508.85625 266.598437)scale(0.1 -0.1)">
       <use xlink:href="#DejaVuSans-33"/>
       <use xlink:href="#DejaVuSans-31" x="63.623047"/>
       <use xlink:href="#DejaVuSans-35" x="127.246094"/>
      </g>
     </g>
    </g>
    <g id="text_9">
     <!-- energy [eV] -->
     <g transform="translate(265.789062 280.276563)scale(0.1 -0.1)">
      <defs>
       <path id="DejaVuSans-65" d="M 3597 1894 
L 3597 1613 
L 953 1613 
Q 991 1019 1311 708 
Q 1631 397 2203 397 
Q 2534 397 2845 478 
Q 3156 559 3463 722 
L 3463 178 
Q 3153 47 2828 -22 
Q 2503 -91 2169 -91 
Q 1331 -91 842 396 
Q 353 884 353 1716 
Q 353 2575 817 3079 
Q 1281 3584 2069 3584 
Q 2775 3584 3186 3129 
Q 3597 2675 3597 1894 
z
M 3022 2063 
Q 3016 2534 2758 2815 
Q 2500 3097 2075 3097 
Q 1594 3097 1305 2825 
Q 1016 2553 972 2059 
L 3022 2063 
z
" transform="scale(0.015625)"/>
       <path id="DejaVuSans-6e" d="M 3513 2113 
L 3513 0 
L 2938 0 
L 2938 2094 
Q 2938 2591 2744 2837 
Q 2550 3084 2163 3084 
Q 1697 3084 1428 2787 
Q 1159 2491 1159 1978 
L 1159 0 
L 581 0 
L 581 3500 
L 1159 3500 
L 1159 2956 
Q 1366 3272 1645 3428 
Q 1925 3584 2291 3584 
Q 2894 3584 3203 3211 
Q 3513 2838 3513 2113 
z
" transform="scale(0.015625)"/>
       <path id="DejaVuSans-72" d="M 2631 2963 
Q 2534 3019 2420 3045 
Q 2306 3072 2169 3072 
Q 1681 3072 1420 2755 
Q 1159 2438 1159 1844 
L 1159 0 
L 581 0 
L 581 3500 
L 1159 3500 
L 1159 2956 
Q 1341 3275 1631 3429 
Q 1922 3584 2338 3584 
Q 2397 3584 2469 3576 
Q 2541 3569 2628 3553 
L 2631 2963 
z
" transform="scale(0.015625)"/>
       <path id="DejaVuSans-67" d="M 2906 1791 
Q 2906 2416 2648 2759 
Q 2391 3103 1925 3103 
Q 1463 3103 1205 2759 
Q 947 2416 947 1791 
Q 947 1169 1205 825 
Q 1463 481 1925 481 
Q 2391 481 2648 825 
Q 2906 1169 2906 1791 
z
M 3481 434 
Q 3481 -459 3084 -895 
Q 2688 -1331 1869 -1331 
Q 1566 -1331 1297 -1286 
Q 1028 -1241 775 -1147 
L 775 -588 
Q 1028 -725 1275 -790 
Q 1522 -856 1778 -856 
Q 2344 -856 2625 -561 
Q 2906 -266 2906 331 
L 2906 616 
Q 2728 306 2450 153 
Q 2172 0 1784 0 
Q 1141 0 747 490 
Q 353 981 353 1791 
Q 353 2603 747 3093 
Q 1141 3584 1784 3584 
Q 2172 3584 2450 3431 
Q 2728 3278 2906 2969 
L 2906 3500 
L 3481 3500 
L 3481 434 
z
" transform="scale(0.015625)"/>
       <path id="DejaVuSans-79" d="M 2059 -325 
Q 1816 -950 1584 -1140 
Q 1353 -1331 966 -1331 
L 506 -1331 
L 506 -850 
L 844 -850 
Q 1081 -850 1212 -737 
Q 1344 -625 1503 -206 
L 1606 56 
L 191 3500 
L 800 3500 
L 1894 763 
L 2988 3500 
L 3597 3500 
L 2059 -325 
z
" transform="scale(0.015625)"/>
       <path id="DejaVuSans-20" transform="scale(0.015625)"/>
       <path id="DejaVuSans-5b" d="M 550 4863 
L 1875 4863 
L 1875 4416 
L 1125 4416 
L 1125 -397 
L 1875 -397 
L 1875 -844 
L 550 -844 
L 550 4863 
z
" transform="scale(0.015625)"/>
       <path id="DejaVuSans-56" d="M 1831 0 
L 50 4666 
L 709 4666 
L 2188 738 
L 3669 4666 
L 4325 4666 
L 2547 0 
L 1831 0 
z
" transform="scale(0.015625)"/>
       <path id="DejaVuSans-5d" d="M 1947 4863 
L 1947 -844 
L 622 -844 
L 622 -397 
L 1369 -397 
L 1369 4416 
L 622 4416 
L 622 4863 
L 1947 4863 
z
" transform="scale(0.015625)"/>
      </defs>
      <use xlink:href="#DejaVuSans-65"/>
      <use xlink:href="#DejaVuSans-6e" x="61.523438"/>
      <use xlink:href="#DejaVuSans-65" x="124.902344"/>
      <use xlink:href="#DejaVuSans-72" x="186.425781"/>
      <use xlink:href="#DejaVuSans-67" x="225.789062"/>
      <use xlink:href="#DejaVuSans-79" x="289.265625"/>
      <use xlink:href="#DejaVuSans-20" x="348.445312"/>
      <use xlink:href="#DejaVuSans-5b" x="380.232422"/>
      <use xlink:href="#DejaVuSans-65" x="419.246094"/>
      <use xlink:href="#DejaVuSans-56" x="480.769531"/>
      <use xlink:href="#DejaVuSans-5d" x="549.177734"/>
     </g>
    </g>
   </g>
   <g id="matplotlib.axis_2">
    <g id="ytick_1">
     <g id="line2d_9">
      <defs>
       <path id="mb561b725c1" d="M 0 0 
L -3.5 0 
" style="stroke: #000000; stroke-width: 0.8"/>
      </defs>
      <g>
       <use xlink:href="#mb561b725c1" x="72" y="236.942525" style="stroke: #000000; stroke-width: 0.8"/>
      </g>
     </g>
     <g id="text_10">
      <!-- 0.0 -->
      <g transform="translate(49.096875 240.741744)scale(0.1 -0.1)">
       <defs>
        <path id="DejaVuSans-2e" d="M 684 794 
L 1344 794 
L 1344 0 
L 684 0 
L 684 794 
z
" transform="scale(0.015625)"/>
       </defs>
       <use xlink:href="#DejaVuSans-30"/>
       <use xlink:href="#DejaVuSans-2e" x="63.623047"/>
       <use xlink:href="#DejaVuSans-30" x="95.410156"/>
      </g>
     </g>
    </g>
    <g id="ytick_2">
     <g id="line2d_10">
      <g>
       <use xlink:href="#mb561b725c1" x="72" y="211.337078" style="stroke: #000000; stroke-width: 0.8"/>
      </g>
     </g>
     <g id="text_11">
      <!-- 0.5 -->
      <g transform="translate(49.096875 215.136297)scale(0.1 -0.1)">
       <use xlink:href="#DejaVuSans-30"/>
       <use xlink:href="#DejaVuSans-2e" x="63.623047"/>
       <use xlink:href="#DejaVuSans-35" x="95.410156"/>
      </g>
     </g>
    </g>
    <g id="ytick_3">
     <g id="line2d_11">
      <g>
       <use xlink:href="#mb561b725c1" x="72" y="185.731632" style="stroke: #000000; stroke-width: 0.8"/>
      </g>
     </g>
     <g id="text_12">
      <!-- 1.0 -->
      <g transform="translate(49.096875 189.530851)scale(0.1 -0.1)">
       <use xlink:href="#DejaVuSans-31"/>
       <use xlink:href="#DejaVuSans-2e" x="63.623047"/>
       <use xlink:href="#DejaVuSans-30" x="95.410156"/>
      </g>
     </g>
    </g>
    <g id="ytick_4">
     <g id="line2d_12">
      <g>
       <use xlink:href="#mb561b725c1" x="72" y="160.126185" style="stroke: #000000; stroke-width: 0.8"/>
      </g>
     </g>
     <g id="text_13">
      <!-- 1.5 -->
      <g transform="translate(49.096875 163.925404)scale(0.1 -0.1)">
       <use xlink:href="#DejaVuSans-31"/>
       <use xlink:href="#DejaVuSans-2e" x="63.623047"/>
       <use xlink:href="#DejaVuSans-35" x="95.410156"/>
      </g>
     </g>
    </g>
    <g id="ytick_5">
     <g id="line2d_13">
      <g>
       <use xlink:href="#mb561b725c1" x="72" y="134.520739" style="stroke: #000000; stroke-width: 0.8"/>
      </g>
     </g>
     <g id="text_14">
      <!-- 2.0 -->
      <g transform="translate(49.096875 138.319958)scale(0.1 -0.1)">
       <use xlink:href="#DejaVuSans-32"/>
       <use xlink:href="#DejaVuSans-2e" x="63.623047"/>
       <use xlink:href="#DejaVuSans-30" x="95.410156"/>
      </g>
     </g>
    </g>
    <g id="ytick_6">
     <g id="line2d_14">
      <g>
       <use xlink:href="#mb561b725c1" x="72" y="108.915292" style="stroke: #000000; stroke-width: 0.8"/>
      </g>
     </g>
     <g id="text_15">
      <!-- 2.5 -->
      <g transform="translate(49.096875 112.714511)scale(0.1 -0.1)">
       <use xlink:href="#DejaVuSans-32"/>
       <use xlink:href="#DejaVuSans-2e" x="63.623047"/>
       <use xlink:href="#DejaVuSans-35" x="95.410156"/>
      </g>
     </g>
    </g>
    <g id="ytick_7">
     <g id="line2d_15">
      <g>
       <use xlink:href="#mb561b725c1" x="72" y="83.309846" style="stroke: #000000; stroke-width: 0.8"/>
      </g>
     </g>
     <g id="text_16">
      <!-- 3.0 -->
      <g transform="translate(49.096875 87.109065)scale(0.1 -0.1)">
       <use xlink:href="#DejaVuSans-33"/>
       <use xlink:href="#DejaVuSans-2e" x="63.623047"/>
       <use xlink:href="#DejaVuSans-30" x="95.410156"/>
      </g>
     </g>
    </g>
    <g id="ytick_8">
     <g id="line2d_16">
      <g>
       <use xlink:href="#mb561b725c1" x="72" y="57.704399" style="stroke: #000000; stroke-width: 0.8"/>
      </g>
     </g>
     <g id="text_17">
      <!-- 3.5 -->
      <g transform="translate(49.096875 61.503618)scale(0.1 -0.1)">
       <use xlink:href="#DejaVuSans-33"/>
       <use xlink:href="#DejaVuSans-2e" x="63.623047"/>
       <use xlink:href="#DejaVuSans-35" x="95.410156"/>
      </g>
     </g>
    </g>
    <g id="text_18">
     <!-- electron_yield [a.u.] -->
     <g transform="translate(42.739062 193.0925)rotate(-90)scale(0.1 -0.1)">
      <defs>
       <path id="DejaVuSans-6c" d="M 603 4863 
L 1178 4863 
L 1178 0 
L 603 0 
L 603 4863 
z
" transform="scale(0.015625)"/>
       <path id="DejaVuSans-63" d="M 3122 3366 
L 3122 2828 
Q 2878 2963 2633 3030 
Q 2388 3097 2138 3097 
Q 1578 3097 1268 2742 
Q 959 2388 959 1747 
Q 959 1106 1268 751 
Q 1578 397 2138 397 
Q 2388 397 2633 464 
Q 2878 531 3122 666 
L 3122 134 
Q 2881 22 2623 -34 
Q 2366 -91 2075 -91 
Q 1284 -91 818 406 
Q 353 903 353 1747 
Q 353 2603 823 3093 
Q 1294 3584 2113 3584 
Q 2378 3584 2631 3529 
Q 2884 3475 3122 3366 
z
" transform="scale(0.015625)"/>
       <path id="DejaVuSans-74" d="M 1172 4494 
L 1172 3500 
L 2356 3500 
L 2356 3053 
L 1172 3053 
L 1172 1153 
Q 1172 725 1289 603 
Q 1406 481 1766 481 
L 2356 481 
L 2356 0 
L 1766 0 
Q 1100 0 847 248 
Q 594 497 594 1153 
L 594 3053 
L 172 3053 
L 172 3500 
L 594 3500 
L 594 4494 
L 1172 4494 
z
" transform="scale(0.015625)"/>
       <path id="DejaVuSans-6f" d="M 1959 3097 
Q 1497 3097 1228 2736 
Q 959 2375 959 1747 
Q 959 1119 1226 758 
Q 1494 397 1959 397 
Q 2419 397 2687 759 
Q 2956 1122 2956 1747 
Q 2956 2369 2687 2733 
Q 2419 3097 1959 3097 
z
M 1959 3584 
Q 2709 3584 3137 3096 
Q 3566 2609 3566 1747 
Q 3566 888 3137 398 
Q 2709 -91 1959 -91 
Q 1206 -91 779 398 
Q 353 888 353 1747 
Q 353 2609 779 3096 
Q 1206 3584 1959 3584 
z
" transform="scale(0.015625)"/>
       <path id="DejaVuSans-5f" d="M 3263 -1063 
L 3263 -1509 
L -63 -1509 
L -63 -1063 
L 3263 -1063 
z
" transform="scale(0.015625)"/>
       <path id="DejaVuSans-69" d="M 603 3500 
L 1178 3500 
L 1178 0 
L 603 0 
L 603 3500 
z
M 603 4863 
L 1178 4863 
L 1178 4134 
L 603 4134 
L 603 4863 
z
" transform="scale(0.015625)"/>
       <path id="DejaVuSans-64" d="M 2906 2969 
L 2906 4863 
L 3481 4863 
L 3481 0 
L 2906 0 
L 2906 525 
Q 2725 213 2448 61 
Q 2172 -91 1784 -91 
Q 1150 -91 751 415 
Q 353 922 353 1747 
Q 353 2572 751 3078 
Q 1150 3584 1784 3584 
Q 2172 3584 2448 3432 
Q 2725 3281 2906 2969 
z
M 947 1747 
Q 947 1113 1208 752 
Q 1469 391 1925 391 
Q 2381 391 2643 752 
Q 2906 1113 2906 1747 
Q 2906 2381 2643 2742 
Q 2381 3103 1925 3103 
Q 1469 3103 1208 2742 
Q 947 2381 947 1747 
z
" transform="scale(0.015625)"/>
       <path id="DejaVuSans-61" d="M 2194 1759 
Q 1497 1759 1228 1600 
Q 959 1441 959 1056 
Q 959 750 1161 570 
Q 1363 391 1709 391 
Q 2188 391 2477 730 
Q 2766 1069 2766 1631 
L 2766 1759 
L 2194 1759 
z
M 3341 1997 
L 3341 0 
L 2766 0 
L 2766 531 
Q 2569 213 2275 61 
Q 1981 -91 1556 -91 
Q 1019 -91 701 211 
Q 384 513 384 1019 
Q 384 1609 779 1909 
Q 1175 2209 1959 2209 
L 2766 2209 
L 2766 2266 
Q 2766 2663 2505 2880 
Q 2244 3097 1772 3097 
Q 1472 3097 1187 3025 
Q 903 2953 641 2809 
L 641 3341 
Q 956 3463 1253 3523 
Q 1550 3584 1831 3584 
Q 2591 3584 2966 3190 
Q 3341 2797 3341 1997 
z
" transform="scale(0.015625)"/>
       <path id="DejaVuSans-75" d="M 544 1381 
L 544 3500 
L 1119 3500 
L 1119 1403 
Q 1119 906 1312 657 
Q 1506 409 1894 409 
Q 2359 409 2629 706 
Q 2900 1003 2900 1516 
L 2900 3500 
L 3475 3500 
L 3475 0 
L 2900 0 
L 2900 538 
Q 2691 219 2414 64 
Q 2138 -91 1772 -91 
Q 1169 -91 856 284 
Q 544 659 544 1381 
z
M 1991 3584 
L 1991 3584 
z
" transform="scale(0.015625)"/>
      </defs>
      <use xlink:href="#DejaVuSans-65"/>
      <use xlink:href="#DejaVuSans-6c" x="61.523438"/>
      <use xlink:href="#DejaVuSans-65" x="89.306641"/>
      <use xlink:href="#DejaVuSans-63" x="150.830078"/>
      <use xlink:href="#DejaVuSans-74" x="205.810547"/>
      <use xlink:href="#DejaVuSans-72" x="245.019531"/>
      <use xlink:href="#DejaVuSans-6f" x="283.882812"/>
      <use xlink:href="#DejaVuSans-6e" x="345.064453"/>
      <use xlink:href="#DejaVuSans-5f" x="408.443359"/>
      <use xlink:href="#DejaVuSans-79" x="458.443359"/>
      <use xlink:href="#DejaVuSans-69" x="517.623047"/>
      <use xlink:href="#DejaVuSans-65" x="545.40625"/>
      <use xlink:href="#DejaVuSans-6c" x="606.929688"/>
      <use xlink:href="#DejaVuSans-64" x="634.712891"/>
      <use xlink:href="#DejaVuSans-20" x="698.189453"/>
      <use xlink:href="#DejaVuSans-5b" x="729.976562"/>
      <use xlink:href="#DejaVuSans-61" x="768.990234"/>
      <use xlink:href="#DejaVuSans-2e" x="830.269531"/>
      <use xlink:href="#DejaVuSans-75" x="862.056641"/>
      <use xlink:href="#DejaVuSans-2e" x="925.435547"/>
      <use xlink:href="#DejaVuSans-5d" x="957.222656"/>
     </g>
    </g>
   </g>
   <g id="line2d_17">
    <path d="M 84.754286 235.057245 
L 86.640258 234.900712 
L 88.52623 239.116458 
L 90.412202 241.251473 
L 92.298174 241.620488 
L 94.184146 241.763543 
L 96.070118 240.534875 
L 97.95609 240.718229 
L 99.842062 238.940401 
L 101.728034 236.549245 
L 103.614006 238.543183 
L 105.499979 236.56224 
L 107.385951 237.438701 
L 109.271923 237.202261 
L 111.157895 236.314495 
L 113.043867 238.209186 
L 114.929839 236.384497 
L 116.815811 237.174702 
L 118.701783 231.377827 
L 120.587755 231.346173 
L 122.473727 224.787092 
L 124.359699 198.227297 
L 126.245671 169.143575 
L 128.131643 162.910482 
L 130.017615 155.093192 
L 131.903588 138.595097 
L 133.78956 125.62708 
L 135.675532 141.274771 
L 137.561504 165.092142 
L 139.447476 178.200267 
L 141.333448 174.168131 
L 143.21942 158.586382 
L 145.105392 137.320506 
L 146.991364 122.159134 
L 148.877336 116.710487 
L 150.763308 119.261889 
L 152.64928 126.178899 
L 154.535252 136.301879 
L 156.421224 147.940151 
L 158.307197 152.027111 
L 160.193169 141.101122 
L 162.079141 116.216453 
L 165.851085 74.676163 
L 167.737057 66.765731 
L 169.623029 54.634169 
L 171.509001 44.443636 
L 173.394973 44.964423 
L 175.280945 48.574356 
L 177.166917 56.061245 
L 179.052889 59.836026 
L 180.938861 65.056035 
L 182.824834 69.623027 
L 184.710806 77.517252 
L 186.596778 84.62961 
L 188.48275 89.60495 
L 190.368722 91.703518 
L 192.254694 92.99631 
L 194.140666 88.900324 
L 197.91261 88.537121 
L 201.684554 87.438028 
L 203.570526 82.367552 
L 205.456498 81.693643 
L 207.34247 77.770019 
L 209.228443 75.115434 
L 211.114415 74.887581 
L 213.000387 70.662912 
L 214.886359 64.692433 
L 216.772331 64.416111 
L 218.658303 66.19117 
L 220.544275 63.342282 
L 224.316219 59.790836 
L 226.202191 58.936904 
L 228.088163 58.247778 
L 229.974135 59.468079 
L 231.860107 59.092088 
L 233.746079 56.935788 
L 235.632052 57.980418 
L 237.518024 59.424318 
L 239.403996 63.546037 
L 241.289968 62.233944 
L 243.17594 64.33745 
L 245.061912 63.776305 
L 246.947884 66.104099 
L 248.833856 67.54121 
L 250.719828 68.712676 
L 252.6058 71.78701 
L 254.491772 72.506617 
L 256.377744 71.924768 
L 258.263716 74.096433 
L 260.149689 76.762456 
L 263.921633 78.341122 
L 265.807605 79.393665 
L 267.693577 80.120078 
L 269.579549 81.949492 
L 271.465521 84.419211 
L 273.351493 86.252467 
L 275.237465 85.512453 
L 279.009409 92.021291 
L 280.895381 91.530563 
L 282.781353 94.938764 
L 284.667325 92.900204 
L 286.553298 93.204232 
L 288.43927 94.8002 
L 290.325242 98.421406 
L 292.211214 99.800687 
L 294.097186 100.308256 
L 295.983158 100.369444 
L 297.86913 100.215517 
L 301.641074 100.993127 
L 305.413018 101.439088 
L 307.29899 101.822465 
L 309.184962 103.012947 
L 311.070934 104.401525 
L 312.956907 105.992287 
L 316.728851 107.156241 
L 318.614823 108.047684 
L 320.500795 107.90744 
L 322.386767 106.561843 
L 324.272739 108.243556 
L 326.158711 110.274704 
L 328.044683 110.691106 
L 329.930655 111.261894 
L 331.816627 113.065999 
L 333.702599 115.548048 
L 335.588571 115.462435 
L 337.474544 114.861771 
L 343.13246 113.573656 
L 345.018432 115.315087 
L 346.904404 117.932965 
L 348.790376 120.048408 
L 350.676348 120.818821 
L 352.56232 121.344473 
L 354.448292 121.110143 
L 356.334264 121.103199 
L 358.220236 121.960375 
L 360.106208 122.966132 
L 363.878153 126.534302 
L 367.650097 126.075391 
L 371.422041 126.532558 
L 373.308013 127.632007 
L 375.193985 129.397224 
L 377.079957 130.722503 
L 380.851901 130.740473 
L 382.737873 130.982855 
L 384.623845 133.084691 
L 386.509817 133.951507 
L 388.395789 134.460955 
L 394.053706 134.727934 
L 395.939678 135.840088 
L 397.82565 138.658815 
L 399.711622 140.894518 
L 401.597594 141.061725 
L 405.369538 139.4222 
L 407.25551 139.445983 
L 409.141482 141.037663 
L 411.027454 141.438397 
L 412.913426 143.642356 
L 414.799398 145.523061 
L 418.571343 145.041692 
L 420.457315 145.219797 
L 422.343287 145.223793 
L 424.229259 145.392354 
L 426.115231 147.286682 
L 428.001203 148.294892 
L 431.773147 148.160527 
L 433.659119 148.190997 
L 435.545091 150.019372 
L 437.431063 150.008255 
L 439.317035 151.234287 
L 441.203008 151.224845 
L 443.08898 151.088297 
L 444.974952 151.406234 
L 446.860924 152.874531 
L 448.746896 154.670416 
L 450.632868 155.068306 
L 452.51884 156.579536 
L 454.404812 156.360207 
L 458.176756 156.435171 
L 460.062728 156.639311 
L 461.9487 155.639793 
L 463.834672 155.076168 
L 465.720644 155.208692 
L 469.492589 156.025303 
L 471.378561 157.165263 
L 473.264533 158.698521 
L 475.150505 159.757195 
L 477.036477 159.773597 
L 482.694393 157.71923 
L 484.580365 157.710081 
L 486.466337 158.106147 
L 488.352309 160.892729 
L 490.238281 162.139282 
L 492.124253 162.047306 
L 494.010226 161.744747 
L 495.896198 161.783592 
L 497.78217 162.482048 
L 499.668142 163.537338 
L 501.554114 164.460027 
L 503.440086 164.967495 
L 507.21203 163.626326 
L 509.098002 163.732896 
L 510.983974 163.698265 
L 512.869946 163.49189 
L 514.755918 163.896785 
L 520.413835 163.770401 
L 522.299807 164.85636 
L 524.185779 164.474781 
L 526.071751 164.345338 
L 527.957723 165.320955 
L 529.843695 165.387151 
L 531.729667 165.150599 
L 533.615639 165.247437 
L 535.501611 165.117916 
L 537.387583 165.987675 
L 539.273555 167.009058 
L 541.159527 167.326919 
L 544.931472 166.938829 
L 546.817444 167.522691 
L 548.703416 168.645095 
L 550.589388 170.322216 
L 552.47536 171.430685 
L 554.361332 171.329496 
L 556.247304 170.645384 
L 558.133276 170.103237 
L 561.90522 169.770318 
L 563.791192 170.588433 
L 565.677164 172.020491 
L 567.563136 172.769014 
L 569.449108 173.14348 
L 571.335081 173.705522 
L 573.221053 173.092346 
L 575.107025 171.580912 
L 577 170.658296 
L 577 170.658296 
" clip-path="url(#pe04172212a)" style="fill: none; stroke: #0d0887; stroke-width: 2; stroke-linecap: square"/>
   </g>
   <g id="line2d_18">
    <path d="M 84.754286 235.501257 
L 86.640258 235.334556 
L 88.52623 238.349972 
L 90.412202 240.048864 
L 92.298174 240.273436 
L 94.184146 240.34338 
L 96.070118 239.742704 
L 97.95609 239.464869 
L 99.842062 238.364 
L 101.728034 236.92971 
L 103.614006 238.214212 
L 105.499979 236.951759 
L 107.385951 237.385577 
L 109.271923 237.385194 
L 111.157895 236.319136 
L 113.043867 238.176203 
L 114.929839 236.954054 
L 116.815811 236.923472 
L 118.701783 232.857942 
L 120.587755 232.545753 
L 122.473727 227.726975 
L 124.359699 207.115366 
L 126.245671 184.092547 
L 128.131643 179.274725 
L 130.017615 172.287205 
L 131.903588 158.924459 
L 133.78956 147.461401 
L 135.675532 158.201965 
L 137.561504 175.62215 
L 139.447476 186.363653 
L 141.333448 184.328949 
L 143.21942 172.918891 
L 145.105392 157.504876 
L 146.991364 145.521877 
L 148.877336 140.960426 
L 150.763308 142.394615 
L 154.535252 149.086054 
L 156.421224 156.674929 
L 158.307197 158.709773 
L 160.193169 148.640551 
L 162.079141 125.808419 
L 163.965113 106.051237 
L 165.851085 88.057989 
L 167.737057 80.590584 
L 169.623029 70.034816 
L 171.509001 61.174068 
L 173.394973 61.051283 
L 175.280945 64.24804 
L 177.166917 70.200451 
L 179.052889 73.168354 
L 182.824834 80.401595 
L 184.710806 86.786016 
L 186.596778 92.500478 
L 188.48275 96.331485 
L 190.368722 97.153646 
L 192.254694 97.643476 
L 194.140666 93.658328 
L 196.026638 93.134477 
L 197.91261 92.47955 
L 201.684554 90.454559 
L 203.570526 86.344139 
L 205.456498 85.185828 
L 207.34247 81.605601 
L 209.228443 79.593919 
L 211.114415 78.363644 
L 213.000387 74.534658 
L 214.886359 69.528108 
L 216.772331 68.360221 
L 218.658303 68.956937 
L 220.544275 66.070197 
L 222.430247 63.89834 
L 224.316219 62.227452 
L 228.088163 60.283209 
L 229.974135 60.761244 
L 231.860107 60.25829 
L 233.746079 58.194887 
L 237.518024 59.29203 
L 239.403996 62.278962 
L 241.289968 61.234229 
L 243.17594 62.452349 
L 245.061912 62.357293 
L 246.947884 64.160719 
L 250.719828 66.33171 
L 252.6058 68.848318 
L 254.491772 69.539885 
L 256.377744 69.445399 
L 258.263716 71.337433 
L 260.149689 73.415469 
L 263.921633 75.125228 
L 265.807605 76.232131 
L 267.693577 76.898754 
L 269.579549 78.68385 
L 271.465521 80.704252 
L 273.351493 82.142871 
L 275.237465 82.099938 
L 277.123437 84.610069 
L 279.009409 86.848208 
L 280.895381 86.834076 
L 282.781353 89.468801 
L 284.667325 88.349258 
L 286.553298 88.912849 
L 288.43927 89.882603 
L 290.325242 92.594655 
L 292.211214 93.626622 
L 294.097186 94.083103 
L 295.983158 94.226908 
L 297.86913 94.188706 
L 301.641074 95.046451 
L 305.413018 95.687206 
L 307.29899 96.143017 
L 309.184962 97.135133 
L 312.956907 99.611842 
L 316.728851 100.631747 
L 318.614823 101.341535 
L 320.500795 101.561907 
L 322.386767 100.793421 
L 324.272739 102.341718 
L 326.158711 104.055278 
L 329.930655 105.168985 
L 331.816627 106.621955 
L 333.702599 108.670127 
L 335.588571 108.908612 
L 343.13246 108.455277 
L 345.018432 109.822159 
L 346.904404 112.028574 
L 348.790376 113.971236 
L 350.676348 114.837636 
L 352.56232 115.32572 
L 356.334264 115.451567 
L 358.220236 116.23694 
L 360.106208 117.161451 
L 363.878153 120.374739 
L 367.650097 120.55906 
L 371.422041 121.41396 
L 373.308013 122.350251 
L 375.193985 123.818223 
L 377.079957 125.092525 
L 380.851901 125.613501 
L 382.737873 126.09033 
L 384.623845 127.869809 
L 386.509817 128.654938 
L 388.395789 129.217888 
L 394.053706 130.026122 
L 395.939678 131.186414 
L 397.82565 133.736075 
L 399.711622 135.812131 
L 401.597594 136.208811 
L 405.369538 135.503028 
L 407.25551 135.682997 
L 409.141482 137.094976 
L 411.027454 137.764533 
L 412.913426 139.791717 
L 414.799398 141.479904 
L 418.571343 141.776886 
L 420.457315 142.211804 
L 424.229259 142.664328 
L 426.115231 144.231019 
L 428.001203 145.271842 
L 431.773147 145.666131 
L 433.659119 146.02692 
L 435.545091 147.466368 
L 437.431063 147.452177 
L 439.317035 148.537147 
L 444.974952 149.410672 
L 446.860924 150.607279 
L 448.746896 152.225794 
L 450.632868 152.815483 
L 452.51884 154.113439 
L 456.290784 154.252817 
L 458.176756 154.382038 
L 460.062728 154.793638 
L 461.9487 154.479471 
L 463.834672 154.489971 
L 465.720644 154.661773 
L 469.492589 155.409759 
L 471.378561 156.297309 
L 473.264533 157.354025 
L 475.150505 158.1831 
L 477.036477 158.404619 
L 482.694393 157.362209 
L 484.580365 157.48933 
L 486.466337 157.729368 
L 488.352309 159.660414 
L 490.238281 160.653994 
L 492.124253 160.685794 
L 494.010226 160.555336 
L 495.896198 160.614446 
L 497.78217 161.180486 
L 501.554114 162.990819 
L 503.440086 163.421254 
L 507.21203 162.596788 
L 510.983974 162.95357 
L 512.869946 163.216248 
L 514.755918 163.598053 
L 518.527863 163.58135 
L 520.413835 163.555256 
L 522.299807 164.354517 
L 524.185779 164.319061 
L 526.071751 164.421616 
L 527.957723 165.241351 
L 529.843695 165.324285 
L 531.729667 165.165155 
L 535.501611 165.172022 
L 539.273555 166.763394 
L 541.159527 167.024647 
L 544.931472 166.849379 
L 546.817444 167.298372 
L 548.703416 168.114217 
L 550.589388 169.439802 
L 552.47536 170.282444 
L 554.361332 170.302983 
L 558.133276 169.502734 
L 561.90522 169.3841 
L 563.791192 170.007234 
L 565.677164 171.101803 
L 567.563136 171.697365 
L 571.335081 172.401166 
L 573.221053 171.95826 
L 575.107025 171.127232 
L 577 170.693185 
L 577 170.693185 
" clip-path="url(#pe04172212a)" style="fill: none; stroke: #6a00a8; stroke-width: 2; stroke-linecap: square"/>
   </g>
   <g id="line2d_19">
    <path d="M 84.754286 235.791065 
L 86.640258 235.617727 
L 88.52623 237.849685 
L 90.412202 239.263917 
L 94.184146 239.416434 
L 96.070118 239.22565 
L 99.842062 237.987781 
L 101.728034 237.178041 
L 103.614006 237.999491 
L 105.499979 237.205999 
L 109.271923 237.504594 
L 111.157895 236.322166 
L 113.043867 238.154675 
L 114.929839 237.325807 
L 116.815811 236.759493 
L 118.701783 233.824019 
L 120.587755 233.328723 
L 122.473727 229.645848 
L 124.359699 212.916641 
L 126.245671 193.849795 
L 128.131643 189.955726 
L 130.017615 183.5098 
L 131.903588 172.193508 
L 133.78956 161.712742 
L 135.675532 169.250406 
L 137.561504 182.495125 
L 139.447476 191.691924 
L 141.333448 190.960951 
L 143.21942 182.273772 
L 145.105392 170.679287 
L 146.991364 160.770825 
L 148.877336 156.78845 
L 150.763308 157.493429 
L 152.64928 158.586181 
L 154.535252 157.430331 
L 156.421224 162.376151 
L 158.307197 163.071571 
L 160.193169 153.561564 
L 162.079141 132.06913 
L 163.965113 113.059717 
L 165.851085 96.792356 
L 167.737057 89.614117 
L 169.623029 80.086875 
L 171.509001 72.094082 
L 173.394973 71.551234 
L 175.280945 74.478312 
L 177.166917 79.429162 
L 180.938861 84.479471 
L 182.824834 87.436805 
L 184.710806 92.835772 
L 186.596778 97.637822 
L 188.48275 100.721918 
L 192.254694 100.676698 
L 194.140666 96.763894 
L 196.026638 96.003837 
L 197.91261 95.052788 
L 201.684554 92.42346 
L 203.570526 88.939672 
L 205.456498 87.46519 
L 207.34247 84.1091 
L 209.228443 82.517043 
L 211.114415 80.632482 
L 213.000387 77.061761 
L 214.886359 72.684371 
L 216.772331 70.934557 
L 218.658303 70.762164 
L 220.544275 67.850718 
L 222.430247 65.470878 
L 224.316219 63.81784 
L 228.088163 61.611742 
L 229.974135 61.605297 
L 231.860107 61.019474 
L 233.746079 59.016706 
L 235.632052 59.287062 
L 237.518024 59.205685 
L 239.403996 61.451938 
L 241.289968 60.581711 
L 243.17594 61.221936 
L 245.061912 61.431099 
L 246.947884 62.892267 
L 248.833856 63.709166 
L 250.719828 64.777645 
L 252.6058 66.930223 
L 254.491772 67.603488 
L 256.377744 67.827106 
L 260.149689 71.230879 
L 263.921633 73.026202 
L 265.807605 74.168586 
L 267.693577 74.796184 
L 271.465521 78.279485 
L 273.351493 79.460522 
L 275.237465 79.872577 
L 277.123437 81.946929 
L 279.009409 83.471718 
L 280.895381 83.768662 
L 282.781353 85.898537 
L 284.667325 85.378839 
L 286.553298 86.111847 
L 288.43927 86.67287 
L 290.325242 88.791514 
L 292.211214 89.596787 
L 294.097186 90.019922 
L 295.983158 90.217653 
L 297.86913 90.254984 
L 303.527046 91.54887 
L 305.413018 91.932932 
L 307.29899 92.436021 
L 309.184962 93.298661 
L 312.956907 95.447302 
L 316.728851 96.373185 
L 318.614823 96.964408 
L 320.500795 97.420154 
L 322.386767 97.028351 
L 326.158711 99.995836 
L 329.930655 101.192122 
L 331.816627 102.415905 
L 333.702599 104.180883 
L 335.588571 104.630907 
L 337.474544 104.797552 
L 341.246488 104.98191 
L 343.13246 105.114492 
L 345.018432 106.236905 
L 348.790376 110.004643 
L 350.676348 110.933695 
L 352.56232 111.397259 
L 356.334264 111.762727 
L 358.220236 112.501234 
L 360.106208 113.372715 
L 363.878153 116.35437 
L 367.650097 116.958531 
L 371.422041 118.073032 
L 373.308013 118.90283 
L 377.079957 121.417817 
L 380.851901 122.267107 
L 382.737873 122.89696 
L 384.623845 124.466037 
L 386.509817 125.197848 
L 388.395789 125.79572 
L 394.053706 126.957232 
L 395.939678 128.148944 
L 397.82565 130.522984 
L 399.711622 132.494839 
L 401.597594 133.041296 
L 405.369538 132.94497 
L 407.25551 133.226882 
L 409.141482 134.521569 
L 411.027454 135.366589 
L 412.913426 137.278391 
L 414.799398 138.840921 
L 418.571343 139.645934 
L 420.457315 140.248476 
L 424.229259 140.883735 
L 426.115231 142.236577 
L 428.001203 143.298686 
L 431.773147 144.03803 
L 433.659119 144.614419 
L 435.545091 145.800013 
L 437.431063 145.783815 
L 439.317035 146.776713 
L 444.974952 148.10816 
L 446.860924 149.127435 
L 448.746896 150.63018 
L 450.632868 151.345058 
L 452.51884 152.503809 
L 458.176756 153.04195 
L 460.062728 153.588961 
L 461.9487 153.722125 
L 463.834672 154.107358 
L 465.720644 154.304798 
L 469.492589 155.007992 
L 475.150505 157.155682 
L 477.036477 157.511082 
L 480.808421 157.282832 
L 482.694393 157.12918 
L 486.466337 157.483443 
L 488.352309 158.856077 
L 490.238281 159.684541 
L 492.124253 159.797131 
L 495.896198 159.85134 
L 497.78217 160.330953 
L 501.554114 162.031862 
L 503.440086 162.412017 
L 507.21203 161.924804 
L 509.098002 162.079466 
L 510.983974 162.467504 
L 512.869946 163.036335 
L 514.755918 163.403069 
L 516.64189 163.484302 
L 520.413835 163.41483 
L 522.299807 164.026963 
L 526.071751 164.471403 
L 527.957723 165.189393 
L 529.843695 165.283252 
L 533.615639 165.165478 
L 535.501611 165.207337 
L 539.273555 166.603049 
L 541.159527 166.827353 
L 544.931472 166.790994 
L 546.817444 167.151958 
L 548.703416 167.767711 
L 550.589388 168.863846 
L 552.47536 169.532982 
L 554.361332 169.632974 
L 558.133276 169.110784 
L 561.90522 169.132014 
L 563.791192 169.627883 
L 565.677164 170.502173 
L 567.563136 170.997896 
L 571.335081 171.549808 
L 575.107025 170.831113 
L 577 170.715956 
L 577 170.715956 
" clip-path="url(#pe04172212a)" style="fill: none; stroke: #b12a90; stroke-width: 2; stroke-linecap: square"/>
   </g>
   <g id="line2d_20">
    <path d="M 84.754286 236.248991 
L 86.640258 236.065165 
L 90.412202 238.023622 
L 94.184146 237.951767 
L 96.070118 238.408654 
L 97.95609 237.354161 
L 99.842062 237.393317 
L 103.614006 237.660211 
L 105.499979 237.607724 
L 107.385951 237.296113 
L 109.271923 237.693259 
L 111.157895 236.326954 
L 113.043867 238.120658 
L 114.929839 237.913212 
L 116.815811 236.500391 
L 118.701783 235.350515 
L 120.587755 234.565894 
L 122.473727 232.677858 
L 124.359699 222.083232 
L 126.245671 209.267218 
L 128.131643 206.832769 
L 130.017615 201.242616 
L 131.903588 193.159924 
L 133.78956 184.231277 
L 135.675532 186.708041 
L 139.447476 200.111123 
L 141.333448 201.440175 
L 143.21942 197.055414 
L 145.105392 191.496168 
L 146.991364 184.865678 
L 148.877336 181.798301 
L 150.763308 181.351057 
L 152.64928 178.809297 
L 154.535252 170.615119 
L 156.421224 171.384649 
L 158.307197 169.963645 
L 160.193169 161.337253 
L 162.079141 141.961676 
L 163.965113 124.133812 
L 165.851085 110.593524 
L 167.737057 103.872195 
L 169.623029 95.970127 
L 171.509001 89.348789 
L 173.394973 88.142202 
L 175.280945 90.643157 
L 177.166917 94.011444 
L 179.052889 95.620532 
L 180.938861 96.600277 
L 182.824834 98.553137 
L 184.710806 102.394988 
L 186.596778 105.755337 
L 188.48275 107.65924 
L 190.368722 106.331882 
L 192.254694 105.469491 
L 194.140666 101.670998 
L 196.026638 100.537712 
L 197.91261 99.118759 
L 201.684554 95.534519 
L 203.570526 93.040873 
L 205.456498 91.066809 
L 207.34247 88.064877 
L 209.228443 87.135869 
L 211.114415 84.217473 
L 213.000387 81.054835 
L 214.886359 77.67158 
L 216.772331 75.002263 
L 218.658303 73.614601 
L 220.544275 70.664117 
L 222.430247 67.955644 
L 224.316219 66.330811 
L 226.202191 65.167366 
L 228.088163 63.710957 
L 231.860107 62.222221 
L 233.746079 60.315261 
L 235.632052 60.102446 
L 237.518024 59.069251 
L 239.403996 60.145158 
L 241.289968 59.550669 
L 243.17594 59.277762 
L 245.061912 59.96762 
L 246.947884 60.887988 
L 248.833856 61.317856 
L 250.719828 62.322068 
L 252.6058 63.899442 
L 256.377744 65.270042 
L 258.263716 66.691166 
L 262.035661 68.802028 
L 263.921633 69.709532 
L 265.807605 70.90798 
L 267.693577 71.473915 
L 269.579549 73.184377 
L 271.465521 74.448112 
L 273.351493 75.222145 
L 275.237465 76.353125 
L 277.123437 77.738902 
L 279.009409 78.136529 
L 280.895381 78.925003 
L 282.781353 80.257164 
L 284.667325 80.685282 
L 286.553298 81.685987 
L 288.43927 81.601172 
L 290.325242 82.782172 
L 294.097186 83.599693 
L 295.983158 83.88263 
L 297.86913 84.039312 
L 307.29899 86.578598 
L 309.184962 87.236655 
L 311.070934 88.195289 
L 312.956907 88.866916 
L 318.614823 90.048111 
L 320.500795 90.875773 
L 322.386767 91.079167 
L 324.272739 92.402785 
L 326.158711 93.581513 
L 328.044683 94.335323 
L 329.930655 94.908282 
L 331.816627 95.769926 
L 333.702599 97.087431 
L 335.588571 97.871709 
L 337.474544 98.517177 
L 339.360516 98.871256 
L 343.13246 99.835721 
L 345.018432 100.571847 
L 348.790376 103.737033 
L 350.676348 104.76508 
L 356.334264 105.933993 
L 358.220236 106.598446 
L 360.106208 107.386135 
L 361.99218 108.599588 
L 363.878153 110.001787 
L 369.536069 111.967116 
L 371.422041 112.794033 
L 373.308013 113.455562 
L 375.193985 114.422961 
L 377.079957 115.611414 
L 380.851901 116.979473 
L 382.737873 117.851119 
L 384.623845 119.087739 
L 390.281762 120.953541 
L 394.053706 122.108081 
L 395.939678 123.34944 
L 397.82565 125.445981 
L 399.711622 127.253188 
L 401.597594 128.036308 
L 403.483566 128.556955 
L 407.25551 129.345976 
L 411.027454 131.577598 
L 412.913426 133.307085 
L 414.799398 134.671066 
L 420.457315 137.146223 
L 422.343287 137.717507 
L 424.229259 138.070222 
L 428.001203 140.180904 
L 431.773147 141.465469 
L 433.659119 142.382526 
L 435.545091 143.167006 
L 437.431063 143.147638 
L 441.203008 144.760457 
L 446.860924 146.789134 
L 448.746896 148.108952 
L 452.51884 149.960433 
L 454.404812 150.418447 
L 458.176756 150.924479 
L 461.9487 152.525442 
L 463.834672 153.502791 
L 467.606617 154.066602 
L 469.492589 154.373159 
L 471.378561 154.835638 
L 473.264533 155.089839 
L 475.150505 155.532259 
L 477.036477 156.099205 
L 480.808421 156.616708 
L 482.694393 156.760971 
L 484.580365 157.117577 
L 486.466337 157.094857 
L 490.238281 158.15271 
L 494.010226 158.552319 
L 495.896198 158.645556 
L 497.78217 158.988605 
L 501.554114 160.516614 
L 503.440086 160.817322 
L 507.21203 160.863004 
L 509.098002 161.047676 
L 510.983974 161.699472 
L 512.869946 162.752055 
L 514.755918 163.094975 
L 516.64189 163.230687 
L 520.413835 163.192943 
L 522.299807 163.509394 
L 527.957723 165.107294 
L 529.843695 165.218416 
L 533.615639 165.114332 
L 535.501611 165.263139 
L 539.273555 166.349687 
L 543.045499 166.613825 
L 544.931472 166.698741 
L 548.703416 167.220196 
L 550.589388 167.953779 
L 552.47536 168.348759 
L 554.361332 168.574294 
L 560.019248 168.596667 
L 561.90522 168.733694 
L 563.791192 169.028471 
L 565.677164 169.554697 
L 567.563136 169.892665 
L 571.335081 170.204578 
L 573.221053 170.048415 
L 577 170.751938 
L 577 170.751938 
" clip-path="url(#pe04172212a)" style="fill: none; stroke: #e16462; stroke-width: 2; stroke-linecap: square"/>
   </g>
   <g id="line2d_21">
    <path d="M 84.754286 236.625535 
L 86.640258 236.433086 
L 88.52623 236.409163 
L 90.412202 237.003751 
L 94.184146 236.747399 
L 96.070118 237.736854 
L 97.95609 236.291251 
L 99.842062 236.904501 
L 101.728034 237.893083 
L 103.614006 237.381227 
L 105.499979 237.938055 
L 107.385951 237.251061 
L 109.271923 237.848395 
L 111.157895 236.33089 
L 113.043867 238.092687 
L 114.929839 238.396225 
L 116.815811 236.287336 
L 118.701783 236.605725 
L 120.587755 235.583196 
L 122.473727 235.171022 
L 124.359699 229.620747 
L 126.245671 221.944673 
L 128.131643 220.710443 
L 130.017615 215.823975 
L 131.903588 210.400212 
L 133.78956 202.747842 
L 135.675532 201.063124 
L 137.561504 202.285068 
L 139.447476 207.034071 
L 141.333448 210.057042 
L 143.21942 209.210078 
L 145.105392 208.613494 
L 146.991364 204.67842 
L 148.877336 202.363428 
L 150.763308 200.968732 
L 152.64928 195.438383 
L 154.535252 181.45672 
L 156.421224 178.792166 
L 158.307197 175.630867 
L 160.193169 167.731056 
L 163.965113 133.23983 
L 165.851085 121.941963 
L 169.623029 109.030624 
L 171.509001 103.537009 
L 173.394973 101.784641 
L 177.166917 106.002178 
L 179.052889 106.926995 
L 180.938861 106.566987 
L 182.824834 107.693887 
L 184.710806 110.25535 
L 186.596778 112.430215 
L 188.48275 113.363668 
L 190.368722 110.953855 
L 192.254694 109.410514 
L 194.140666 105.706017 
L 196.026638 104.265831 
L 197.91261 102.46213 
L 201.684554 98.092684 
L 203.570526 96.413212 
L 205.456498 94.028352 
L 207.34247 91.317637 
L 209.228443 90.933843 
L 211.114415 87.165343 
L 213.000387 84.338265 
L 214.886359 81.772467 
L 216.772331 78.34706 
L 218.658303 75.960106 
L 222.430247 69.998821 
L 224.316219 68.397179 
L 226.202191 67.135941 
L 228.088163 65.437101 
L 229.974135 64.035652 
L 231.860107 63.211218 
L 233.746079 61.383038 
L 235.632052 60.772921 
L 237.518024 58.957063 
L 239.403996 59.070617 
L 241.289968 58.702862 
L 243.17594 57.679104 
L 245.061912 58.764229 
L 246.947884 59.239907 
L 248.833856 59.351526 
L 250.719828 60.302893 
L 252.6058 61.407289 
L 254.491772 62.027857 
L 258.263716 64.351399 
L 260.149689 64.940602 
L 262.035661 66.045327 
L 263.921633 66.982298 
L 265.807605 68.226845 
L 267.693577 68.742076 
L 269.579549 70.414953 
L 271.465521 71.297646 
L 273.351493 71.737008 
L 275.237465 73.459146 
L 277.123437 74.278721 
L 279.009409 73.749503 
L 280.895381 74.942153 
L 282.781353 75.61837 
L 286.553298 78.046686 
L 288.43927 77.430811 
L 290.325242 77.840804 
L 292.211214 77.99334 
L 297.86913 78.928283 
L 305.413018 81.122931 
L 307.29899 81.76215 
L 309.184962 82.251983 
L 311.070934 83.074771 
L 316.728851 84.111147 
L 318.614823 84.360971 
L 320.500795 85.494453 
L 322.386767 86.187265 
L 324.272739 87.397739 
L 328.044683 89.167555 
L 331.816627 90.305064 
L 335.588571 92.313749 
L 337.474544 93.352944 
L 339.360516 93.953823 
L 343.13246 95.495087 
L 345.018432 95.913577 
L 346.904404 97.078131 
L 348.790376 98.583296 
L 350.676348 99.692745 
L 352.56232 100.085704 
L 354.448292 100.737982 
L 356.334264 101.141134 
L 360.106208 102.463483 
L 361.99218 103.493767 
L 363.878153 104.778178 
L 367.650097 106.591221 
L 369.536069 107.42472 
L 371.422041 108.453213 
L 373.308013 108.976376 
L 375.193985 109.691697 
L 377.079957 110.836919 
L 380.851901 112.631551 
L 384.623845 114.665266 
L 386.509817 115.243554 
L 394.053706 118.120716 
L 395.939678 119.402899 
L 397.82565 121.271258 
L 399.711622 122.943078 
L 403.483566 124.884214 
L 405.369538 125.579336 
L 407.25551 126.15478 
L 409.141482 127.11174 
L 411.027454 128.461983 
L 412.913426 130.041556 
L 416.685371 132.385844 
L 420.457315 134.595299 
L 422.343287 135.345823 
L 424.229259 135.756723 
L 426.115231 136.493809 
L 428.001203 137.617211 
L 431.773147 139.3501 
L 433.659119 140.547284 
L 435.545091 141.001934 
L 437.431063 140.979959 
L 439.317035 141.707747 
L 443.08898 143.670886 
L 444.974952 144.357729 
L 446.860924 144.866394 
L 450.632868 147.111136 
L 454.404812 148.54109 
L 458.176756 149.183322 
L 460.062728 150.120229 
L 463.834672 153.005667 
L 471.378561 154.09957 
L 473.264533 153.949642 
L 475.150505 154.19735 
L 478.922449 155.569275 
L 482.694393 156.4582 
L 484.580365 156.93037 
L 488.352309 156.540082 
L 494.010226 157.543641 
L 495.896198 157.654063 
L 497.78217 157.884818 
L 499.668142 158.49054 
L 501.554114 159.270655 
L 509.098002 160.199255 
L 510.983974 161.067934 
L 512.869946 162.518296 
L 514.755918 162.841635 
L 516.64189 163.022145 
L 522.299807 163.083807 
L 524.185779 163.924764 
L 526.071751 164.614758 
L 527.957723 165.039786 
L 531.729667 165.20201 
L 533.615639 165.072276 
L 535.501611 165.309023 
L 537.387583 165.795997 
L 539.273555 166.141352 
L 543.045499 166.453802 
L 546.817444 166.730376 
L 548.703416 166.769986 
L 550.589388 167.205449 
L 552.47536 167.374995 
L 554.361332 167.703761 
L 556.247304 167.911373 
L 558.133276 167.982209 
L 569.449108 169.101063 
L 573.221053 169.086655 
L 577 170.781525 
L 577 170.781525 
" clip-path="url(#pe04172212a)" style="fill: none; stroke: #fca636; stroke-width: 2; stroke-linecap: square"/>
   </g>
   <g id="line2d_22">
    <path d="M 84.754286 236.833293 
L 86.640258 236.636086 
L 88.52623 236.050516 
L 90.412202 236.441037 
L 94.184146 236.082889 
L 96.070118 237.366188 
L 97.95609 235.70479 
L 99.842062 236.634797 
L 101.728034 238.071107 
L 103.614006 237.227298 
L 105.499979 238.120315 
L 107.385951 237.226204 
L 109.271923 237.933991 
L 111.157895 236.333062 
L 113.043867 238.077254 
L 114.929839 238.662727 
L 116.815811 236.169783 
L 118.701783 237.298287 
L 120.587755 236.144492 
L 122.473727 236.546627 
L 124.359699 233.779573 
L 126.245671 228.939463 
L 128.131643 228.367454 
L 130.017615 223.869245 
L 131.903588 219.912546 
L 133.78956 212.964363 
L 135.675532 208.983546 
L 137.561504 207.212177 
L 139.447476 210.85381 
L 141.333448 214.811402 
L 143.21942 215.916418 
L 145.105392 218.057985 
L 146.991364 215.610107 
L 150.763308 211.792792 
L 152.64928 204.613487 
L 154.535252 187.438578 
L 156.421224 182.879266 
L 158.307197 178.757759 
L 160.193169 171.258838 
L 163.965113 138.264079 
L 165.851085 128.203469 
L 169.623029 116.236758 
L 171.509001 111.365364 
L 173.394973 109.311861 
L 175.280945 111.269095 
L 177.166917 112.618069 
L 179.052889 113.16534 
L 180.938861 112.066123 
L 182.824834 112.737298 
L 184.710806 114.592308 
L 186.596778 116.113082 
L 188.48275 116.511088 
L 190.368722 113.504031 
L 192.254694 111.584974 
L 194.140666 107.93234 
L 196.026638 106.322822 
L 197.91261 104.306837 
L 201.684554 99.504152 
L 203.570526 98.273902 
L 207.34247 93.112349 
L 209.228443 93.029376 
L 211.114415 88.791831 
L 213.000387 86.149898 
L 214.886359 84.035133 
L 216.772331 80.192553 
L 220.544275 74.253943 
L 222.430247 71.126144 
L 224.316219 69.537299 
L 226.202191 68.222102 
L 229.974135 64.640739 
L 231.860107 63.756897 
L 233.746079 61.972185 
L 235.632052 61.142856 
L 237.518024 58.895164 
L 239.403996 58.477739 
L 241.289968 58.235084 
L 243.17594 56.797045 
L 245.061912 58.100258 
L 246.947884 58.330577 
L 248.833856 58.266604 
L 252.6058 60.032242 
L 254.491772 60.63969 
L 256.377744 62.007292 
L 258.263716 63.060433 
L 260.149689 63.374509 
L 262.035661 64.524317 
L 263.921633 65.477545 
L 265.807605 66.747528 
L 267.693577 67.234783 
L 269.579549 68.886923 
L 271.465521 69.559376 
L 273.351493 69.814083 
L 275.237465 71.862392 
L 277.123437 72.369565 
L 279.009409 71.32896 
L 280.895381 72.744615 
L 282.781353 73.058914 
L 284.667325 74.696421 
L 286.553298 76.0387 
L 288.43927 75.129813 
L 292.211214 75.104427 
L 297.86913 76.108271 
L 301.641074 77.206424 
L 307.29899 79.104673 
L 309.184962 79.501688 
L 311.070934 80.249523 
L 314.842879 80.732103 
L 316.728851 81.058263 
L 318.614823 81.22309 
L 320.500795 82.525307 
L 322.386767 83.488157 
L 324.272739 84.636203 
L 326.158711 85.396998 
L 328.044683 86.316237 
L 329.930655 86.890259 
L 331.816627 87.289824 
L 333.702599 88.036363 
L 337.474544 90.503577 
L 339.360516 91.240627 
L 343.13246 93.10014 
L 345.018432 93.343375 
L 346.904404 94.315401 
L 348.790376 95.73972 
L 350.676348 96.894082 
L 352.56232 97.269463 
L 354.448292 98.039193 
L 358.220236 99.066636 
L 360.106208 99.747409 
L 361.99218 100.676629 
L 363.878153 101.89605 
L 367.650097 104.010069 
L 369.536069 104.918452 
L 371.422041 106.058164 
L 373.308013 106.504984 
L 375.193985 107.081221 
L 378.965929 109.228282 
L 380.851901 110.232584 
L 382.737873 111.412753 
L 384.623845 112.225165 
L 386.509817 112.765231 
L 390.281762 114.279428 
L 394.053706 115.920686 
L 395.939678 117.225393 
L 399.711622 120.564973 
L 405.369538 123.745512 
L 407.25551 124.394037 
L 409.141482 125.266913 
L 412.913426 128.239799 
L 414.799398 129.350435 
L 418.571343 131.982465 
L 420.457315 133.187825 
L 422.343287 134.037245 
L 424.229259 134.480249 
L 426.115231 135.064031 
L 429.887175 137.225094 
L 431.773147 138.182944 
L 433.659119 139.534688 
L 435.545091 139.807355 
L 437.431063 139.783941 
L 439.317035 140.445725 
L 443.08898 142.68827 
L 444.974952 143.423983 
L 446.860924 143.805522 
L 450.632868 146.057015 
L 452.51884 146.715149 
L 454.404812 147.505257 
L 458.176756 148.222638 
L 460.062728 149.256618 
L 463.834672 152.731379 
L 469.492589 153.563128 
L 471.378561 153.693445 
L 473.264533 153.320537 
L 475.150505 153.460813 
L 478.922449 155.103726 
L 480.808421 155.766749 
L 484.580365 156.827079 
L 486.466337 156.599032 
L 488.352309 155.963468 
L 490.238281 156.198131 
L 494.010226 156.987102 
L 497.78217 157.275803 
L 499.668142 157.821969 
L 501.554114 158.583196 
L 503.440086 158.782531 
L 509.098002 159.731138 
L 510.983974 160.719483 
L 512.869946 162.38932 
L 516.64189 162.907081 
L 518.527863 162.96731 
L 522.299807 162.848989 
L 524.185779 163.8519 
L 526.071751 164.650449 
L 527.957723 165.002538 
L 531.729667 165.208821 
L 533.615639 165.049072 
L 535.501611 165.33434 
L 537.387583 165.770605 
L 539.273555 166.026404 
L 541.159527 166.117831 
L 544.931472 166.581028 
L 546.817444 166.625415 
L 548.703416 166.521582 
L 550.589388 166.792557 
L 552.47536 166.83772 
L 556.247304 167.549187 
L 560.019248 167.934967 
L 561.90522 168.225447 
L 565.677164 168.345742 
L 569.449108 168.565547 
L 571.335081 168.488097 
L 573.221053 168.556004 
L 575.107025 169.76619 
L 577 170.79785 
L 577 170.79785 
" clip-path="url(#pe04172212a)" style="fill: none; stroke: #f0f921; stroke-width: 2; stroke-linecap: square"/>
   </g>
   <g id="line2d_23">
    <path d="M 84.754286 236.970381 
L 86.640258 236.191632 
L 88.52623 240.204235 
L 90.412202 242.116364 
L 94.184146 242.098479 
L 96.070118 241.037098 
L 97.95609 237.686925 
L 99.842062 236.552744 
L 101.728034 236.288144 
L 103.614006 236.745551 
L 105.499979 236.18794 
L 107.385951 236.281304 
L 109.271923 235.967819 
L 111.157895 235.996078 
L 113.043867 237.324687 
L 114.929839 236.068016 
L 116.815811 237.317384 
L 118.701783 232.156158 
L 120.587755 233.481122 
L 122.473727 227.010231 
L 124.359699 207.579654 
L 126.245671 184.831445 
L 128.131643 179.122313 
L 130.017615 172.340845 
L 133.78956 147.83678 
L 135.675532 157.689145 
L 137.561504 175.447404 
L 139.447476 187.617367 
L 141.333448 185.719838 
L 143.21942 173.350832 
L 145.105392 158.158974 
L 146.991364 148.36561 
L 148.877336 142.070805 
L 150.763308 145.264439 
L 152.64928 145.605389 
L 154.535252 149.793191 
L 156.421224 156.460211 
L 158.307197 159.618346 
L 160.193169 147.30812 
L 163.965113 103.711097 
L 165.851085 86.173027 
L 167.737057 79.426411 
L 169.623029 67.421046 
L 171.509001 59.559003 
L 173.394973 57.24776 
L 175.280945 61.369673 
L 177.166917 68.829293 
L 179.052889 71.012418 
L 180.938861 74.134721 
L 182.824834 78.041669 
L 184.710806 83.833877 
L 186.596778 90.209062 
L 188.48275 94.095308 
L 190.368722 94.406986 
L 192.254694 93.603148 
L 194.140666 89.435081 
L 196.026638 89.827976 
L 197.91261 89.679002 
L 199.798582 88.933424 
L 201.684554 86.260611 
L 203.570526 83.120678 
L 205.456498 82.343106 
L 207.34247 79.610914 
L 209.228443 75.894245 
L 211.114415 75.633522 
L 213.000387 70.68147 
L 214.886359 66.606062 
L 216.772331 64.835814 
L 218.658303 65.453448 
L 220.544275 62.158785 
L 222.430247 60.058743 
L 224.316219 59.389993 
L 226.202191 57.509914 
L 228.088163 58.233736 
L 229.974135 56.438574 
L 231.860107 57.116531 
L 233.746079 54.088476 
L 235.632052 56.335925 
L 237.518024 56.196738 
L 239.403996 59.124903 
L 241.289968 58.30265 
L 243.17594 59.320671 
L 245.061912 59.73975 
L 246.947884 60.034336 
L 248.833856 61.866839 
L 250.719828 62.681142 
L 252.6058 64.772976 
L 254.491772 66.010893 
L 256.377744 65.282026 
L 258.263716 68.59499 
L 260.149689 69.513836 
L 262.035661 72.044079 
L 263.921633 71.912673 
L 267.693577 74.466389 
L 269.579549 74.302044 
L 271.465521 78.014954 
L 273.351493 78.169638 
L 275.237465 78.603404 
L 277.123437 81.1733 
L 279.009409 84.309226 
L 280.895381 84.87815 
L 282.781353 87.192835 
L 284.667325 85.783068 
L 286.553298 85.666388 
L 290.325242 89.047025 
L 292.211214 90.180399 
L 295.983158 91.637098 
L 299.755102 92.348825 
L 305.413018 93.599973 
L 307.29899 94.288731 
L 309.184962 95.764244 
L 311.070934 96.439483 
L 316.728851 98.968723 
L 318.614823 100.074173 
L 320.500795 100.540043 
L 322.386767 99.513325 
L 324.272739 99.482038 
L 329.930655 100.66993 
L 331.816627 102.53829 
L 333.702599 105.632022 
L 335.588571 106.429149 
L 343.13246 105.185687 
L 345.018432 107.167843 
L 346.904404 110.736729 
L 348.790376 112.902883 
L 356.334264 114.261391 
L 358.220236 115.782211 
L 360.106208 116.92964 
L 367.650097 118.960532 
L 371.422041 120.964845 
L 373.308013 121.561355 
L 375.193985 121.554282 
L 380.851901 122.952913 
L 382.737873 123.796318 
L 384.623845 126.584583 
L 386.509817 127.460705 
L 394.053706 128.069615 
L 395.939678 129.646196 
L 397.82565 133.50502 
L 399.711622 134.715485 
L 405.369538 134.368316 
L 407.25551 135.070221 
L 409.141482 138.035613 
L 411.027454 138.635766 
L 418.571343 140.122545 
L 420.457315 140.902661 
L 422.343287 141.397736 
L 424.229259 141.55801 
L 431.773147 143.530156 
L 433.659119 144.29358 
L 435.545091 146.656351 
L 439.317035 147.211908 
L 443.08898 147.865896 
L 444.974952 148.453354 
L 446.860924 150.262264 
L 448.746896 152.246775 
L 450.632868 152.460918 
L 458.176756 152.862246 
L 461.9487 154.911201 
L 469.492589 155.487339 
L 473.264533 157.511375 
L 475.150505 157.825852 
L 482.694393 157.099829 
L 484.580365 157.413644 
L 486.466337 156.872388 
L 494.010226 159.570898 
L 495.896198 160.448511 
L 497.78217 161.560435 
L 499.668142 162.41614 
L 507.21203 162.122468 
L 510.983974 163.658441 
L 512.869946 163.67756 
L 520.413835 163.056121 
L 522.299807 164.309649 
L 524.185779 164.32096 
L 526.071751 164.163034 
L 531.729667 164.923378 
L 533.615639 165.381242 
L 535.501611 165.515201 
L 537.387583 166.066714 
L 544.931472 166.08475 
L 546.817444 166.882932 
L 548.703416 168.150232 
L 550.589388 168.919464 
L 558.133276 168.582181 
L 561.90522 169.539815 
L 571.335081 172.590902 
L 573.221053 171.984797 
L 575.107025 171.131342 
L 577 170.695244 
L 577 170.695244 
" clip-path="url(#pe04172212a)" style="fill: none; stroke: #0000ff; stroke-linecap: square"/>
   </g>
   <g id="line2d_24">
    <path d="M 84.754286 233.647545 
L 86.640258 234.042889 
L 90.412202 236.911819 
L 92.298174 237.262207 
L 96.070118 237.603276 
L 97.95609 241.197311 
L 99.842062 239.29793 
L 101.728034 238.508433 
L 103.614006 240.32603 
L 105.499979 238.687924 
L 107.385951 238.259629 
L 109.271923 238.66926 
L 111.157895 236.343915 
L 113.043867 239.522297 
L 114.929839 238.519429 
L 116.815811 237.017282 
L 118.701783 234.779891 
L 120.587755 232.154211 
L 122.473727 230.088386 
L 126.245671 193.21683 
L 128.131643 189.711103 
L 130.017615 183.134994 
L 133.78956 160.291429 
L 135.675532 169.23485 
L 137.561504 182.178844 
L 139.447476 189.692805 
L 141.333448 188.37713 
L 143.21942 180.813116 
L 145.105392 170.244702 
L 146.991364 157.172916 
L 148.877336 156.349628 
L 150.763308 153.613906 
L 152.64928 158.956985 
L 154.535252 156.253936 
L 156.421224 162.941928 
L 158.307197 161.985686 
L 160.193169 154.470547 
L 162.079141 132.039326 
L 165.851085 99.267198 
L 167.737057 89.716015 
L 169.623029 81.863444 
L 171.509001 73.090901 
L 173.394973 75.031364 
L 175.280945 77.712893 
L 177.166917 79.725927 
L 179.052889 83.851638 
L 180.938861 85.663835 
L 182.824834 89.771986 
L 184.710806 95.373527 
L 188.48275 102.964704 
L 190.368722 102.599014 
L 192.254694 103.829233 
L 194.140666 100.410202 
L 196.026638 99.180437 
L 197.91261 97.484985 
L 199.798582 95.952018 
L 201.684554 96.245188 
L 203.570526 91.157727 
L 205.456498 90.161188 
L 207.34247 85.715228 
L 209.228443 87.337328 
L 211.114415 82.662786 
L 213.000387 80.703684 
L 214.886359 74.723003 
L 216.772331 74.00007 
L 218.658303 74.560775 
L 220.544275 71.29201 
L 222.430247 68.713875 
L 224.316219 65.50082 
L 226.202191 66.798093 
L 228.088163 63.072033 
L 229.974135 65.721132 
L 231.860107 63.013771 
L 233.746079 62.540726 
L 235.632052 60.753526 
L 237.518024 62.091902 
L 239.403996 64.517972 
L 241.289968 62.962485 
L 243.17594 63.639988 
L 245.061912 63.109412 
L 246.947884 67.136811 
L 248.833856 66.262436 
L 250.719828 68.380953 
L 252.6058 70.694129 
L 254.491772 70.525328 
L 256.377744 71.975124 
L 258.263716 72.291875 
L 260.149689 73.863515 
L 262.035661 73.718543 
L 263.921633 76.453603 
L 265.807605 76.702095 
L 267.693577 76.720212 
L 269.579549 81.175694 
L 271.465521 81.174303 
L 273.351493 83.794968 
L 275.237465 83.190789 
L 277.123437 85.188549 
L 279.009409 85.007786 
L 280.895381 85.760162 
L 282.781353 87.948035 
L 284.667325 87.997511 
L 286.553298 89.038063 
L 288.43927 89.87622 
L 290.325242 92.204806 
L 292.211214 93.155035 
L 294.097186 93.466604 
L 295.983158 92.90557 
L 297.86913 92.483857 
L 299.755102 92.67716 
L 301.641074 93.087937 
L 307.29899 93.670932 
L 309.184962 94.228548 
L 312.956907 97.497453 
L 322.386767 99.928411 
L 324.272739 102.970029 
L 326.158711 105.611905 
L 328.044683 106.381341 
L 333.702599 108.293047 
L 335.588571 107.990715 
L 337.474544 107.563748 
L 339.360516 107.908987 
L 345.018432 109.657078 
L 346.904404 110.075835 
L 348.790376 110.791425 
L 350.676348 111.915481 
L 352.56232 112.788335 
L 358.220236 112.933732 
L 360.106208 113.738008 
L 361.99218 116.145841 
L 363.878153 118.829137 
L 371.422041 118.318529 
L 373.308013 120.024238 
L 375.193985 123.046468 
L 377.079957 125.055591 
L 384.623845 125.956526 
L 386.509817 126.351857 
L 388.395789 126.964879 
L 397.82565 130.97026 
L 399.711622 133.338592 
L 401.597594 133.95811 
L 409.141482 132.556931 
L 411.027454 134.226127 
L 412.913426 138.78912 
L 414.799398 142.083687 
L 422.343287 141.908165 
L 424.229259 142.075168 
L 426.115231 144.752132 
L 428.001203 146.55585 
L 433.659119 146.999997 
L 435.545091 146.918123 
L 437.431063 146.254309 
L 439.317035 147.863377 
L 446.860924 149.848652 
L 448.746896 150.562561 
L 450.632868 151.485776 
L 452.51884 153.955941 
L 456.290784 154.40994 
L 460.062728 154.751263 
L 461.9487 153.419605 
L 463.834672 152.678772 
L 465.720644 153.000501 
L 473.264533 156.146469 
L 475.150505 157.684953 
L 477.036477 158.4361 
L 484.580365 157.500288 
L 486.466337 157.841135 
L 488.352309 160.476489 
L 490.238281 162.079298 
L 492.124253 161.854257 
L 497.78217 160.135892 
L 499.668142 160.253194 
L 503.440086 163.267242 
L 510.983974 162.019651 
L 514.755918 163.367758 
L 524.185779 164.019951 
L 526.071751 164.874321 
L 527.957723 166.261156 
L 529.843695 166.373435 
L 535.501611 165.346751 
L 537.387583 165.848272 
L 539.273555 167.081682 
L 541.159527 167.967099 
L 548.703416 169.100617 
L 550.589388 169.872829 
L 552.47536 171.29089 
L 554.361332 171.442737 
L 561.90522 169.079074 
L 563.791192 169.936892 
L 565.677164 171.04548 
L 567.563136 171.423229 
L 573.221053 171.088427 
L 577 171.215028 
L 577 171.215028 
" clip-path="url(#pe04172212a)" style="fill: none; stroke: #0040df; stroke-linecap: square"/>
   </g>
   <g id="line2d_25">
    <path d="M 84.754286 236.44507 
L 86.640258 236.838642 
L 90.412202 236.938214 
L 92.298174 237.186328 
L 94.184146 237.198523 
L 96.070118 238.373246 
L 97.95609 236.542452 
L 99.842062 239.69823 
L 101.728034 236.246219 
L 103.614006 236.93661 
L 105.499979 236.543863 
L 109.271923 239.724654 
L 111.157895 237.298599 
L 113.043867 237.902172 
L 114.929839 237.531659 
L 116.815811 235.160456 
L 120.587755 235.127619 
L 122.473727 233.910219 
L 124.359699 223.601654 
L 126.245671 208.358111 
L 128.131643 207.048262 
L 130.017615 201.662634 
L 131.903588 191.896567 
L 133.78956 186.299018 
L 135.675532 187.231047 
L 139.447476 200.859202 
L 141.333448 202.420019 
L 143.21942 198.319003 
L 145.105392 189.874588 
L 146.991364 184.303935 
L 148.877336 179.646361 
L 150.763308 180.853585 
L 152.64928 178.800995 
L 154.535252 170.494057 
L 156.421224 170.426353 
L 158.307197 169.344398 
L 160.193169 162.734054 
L 163.965113 125.115425 
L 165.851085 110.158605 
L 167.737057 106.284088 
L 171.509001 91.140226 
L 173.394973 90.416214 
L 175.280945 91.287861 
L 177.166917 96.192041 
L 179.052889 96.687978 
L 180.938861 100.62614 
L 182.824834 99.852617 
L 184.710806 104.548505 
L 186.596778 108.307843 
L 188.48275 108.871442 
L 190.368722 109.316856 
L 192.254694 108.751252 
L 196.026638 102.40382 
L 197.91261 101.057389 
L 199.798582 99.180865 
L 201.684554 98.420237 
L 203.570526 96.793735 
L 205.456498 92.519788 
L 207.34247 90.190534 
L 209.228443 87.016316 
L 211.114415 86.968871 
L 214.886359 80.781185 
L 216.772331 78.315426 
L 218.658303 74.953915 
L 220.544275 73.856929 
L 222.430247 71.239989 
L 224.316219 69.854162 
L 226.202191 67.083052 
L 228.088163 65.83136 
L 229.974135 66.02965 
L 231.860107 66.059505 
L 233.746079 63.604339 
L 235.632052 63.166286 
L 237.518024 60.926761 
L 239.403996 62.649302 
L 241.289968 62.183356 
L 243.17594 62.157744 
L 245.061912 63.27596 
L 246.947884 62.901014 
L 248.833856 65.011849 
L 250.719828 64.439638 
L 252.6058 66.875107 
L 254.491772 67.580945 
L 256.377744 67.376938 
L 258.263716 67.813393 
L 260.149689 72.044173 
L 262.035661 71.755556 
L 263.921633 70.997992 
L 265.807605 73.596243 
L 267.693577 73.689927 
L 269.579549 75.148521 
L 271.465521 75.807557 
L 273.351493 77.496739 
L 275.237465 78.980765 
L 277.123437 79.72317 
L 279.009409 81.26236 
L 280.895381 80.012683 
L 282.781353 82.594642 
L 284.667325 82.684478 
L 286.553298 84.308156 
L 288.43927 82.363513 
L 290.325242 84.896757 
L 292.211214 84.962721 
L 294.097186 85.147785 
L 295.983158 85.670554 
L 297.86913 85.969852 
L 299.755102 86.981634 
L 305.413018 88.757615 
L 307.29899 89.196312 
L 309.184962 89.07301 
L 311.070934 90.201407 
L 312.956907 90.896137 
L 320.500795 89.72175 
L 322.386767 88.58873 
L 326.158711 93.247421 
L 329.930655 95.11387 
L 335.588571 97.675658 
L 337.474544 99.965391 
L 345.018432 101.149065 
L 346.904404 101.799742 
L 348.790376 105.012477 
L 350.676348 107.023908 
L 356.334264 107.693403 
L 358.220236 107.7383 
L 360.106208 107.640996 
L 361.99218 109.47506 
L 363.878153 111.60955 
L 365.764125 112.302296 
L 371.422041 113.663654 
L 373.308013 113.21576 
L 375.193985 114.624971 
L 377.079957 116.435645 
L 382.737873 118.346124 
L 386.509817 120.540875 
L 388.395789 122.368672 
L 394.053706 122.881832 
L 395.939678 123.611511 
L 397.82565 125.415265 
L 399.711622 128.475807 
L 401.597594 130.328338 
L 403.483566 131.061456 
L 409.141482 132.218734 
L 411.027454 131.942564 
L 412.913426 132.729054 
L 414.799398 134.044174 
L 420.457315 137.449164 
L 422.343287 137.813897 
L 424.229259 138.520907 
L 426.115231 139.962602 
L 428.001203 141.132001 
L 433.659119 142.45891 
L 437.431063 143.898948 
L 439.317035 145.642571 
L 441.203008 146.287035 
L 446.860924 146.664613 
L 448.746896 148.540414 
L 452.51884 151.433468 
L 458.176756 152.300859 
L 461.9487 152.270289 
L 463.834672 154.919154 
L 471.378561 155.266309 
L 473.264533 155.193413 
L 475.150505 155.320459 
L 477.036477 156.196368 
L 478.922449 156.544355 
L 482.694393 156.309328 
L 484.580365 156.860329 
L 488.352309 159.523707 
L 490.238281 159.683139 
L 494.010226 158.586755 
L 495.896198 157.996531 
L 497.78217 158.848584 
L 499.668142 160.659475 
L 501.554114 162.258924 
L 503.440086 161.975093 
L 509.098002 160.776724 
L 510.983974 161.083843 
L 512.869946 162.028154 
L 514.755918 163.283552 
L 516.64189 163.979289 
L 522.299807 164.133312 
L 524.185779 164.488985 
L 526.071751 164.344437 
L 527.957723 165.043487 
L 529.843695 164.861475 
L 533.615639 163.943633 
L 535.501611 164.280505 
L 537.387583 165.633054 
L 539.273555 167.331279 
L 541.159527 166.988994 
L 548.703416 164.863586 
L 550.589388 167.522256 
L 552.47536 168.898218 
L 554.361332 169.295394 
L 563.791192 168.250053 
L 565.677164 169.637385 
L 567.563136 170.240125 
L 571.335081 170.61105 
L 573.221053 170.289568 
L 575.107025 169.622479 
L 577 170.00556 
L 577 170.00556 
" clip-path="url(#pe04172212a)" style="fill: none; stroke: #0080bf; stroke-linecap: square"/>
   </g>
   <g id="line2d_26">
    <path d="M 84.754286 237.407892 
L 86.640258 236.66287 
L 88.52623 236.797266 
L 90.412202 238.600054 
L 94.184146 237.560221 
L 96.070118 237.676173 
L 97.95609 237.17859 
L 99.842062 235.46253 
L 101.728034 239.056727 
L 103.614006 237.16139 
L 105.499979 238.393138 
L 107.385951 237.248234 
L 109.271923 235.380138 
L 111.157895 235.560403 
L 114.929839 239.162266 
L 116.815811 236.237022 
L 118.701783 236.883052 
L 120.587755 233.898282 
L 122.473727 234.080492 
L 124.359699 230.308249 
L 126.245671 222.93933 
L 128.131643 222.30873 
L 130.017615 216.179028 
L 131.903588 210.875625 
L 133.78956 201.655839 
L 135.675532 202.95818 
L 137.561504 202.552856 
L 141.333448 211.345519 
L 143.21942 210.214405 
L 145.105392 211.16043 
L 146.991364 206.074826 
L 148.877336 203.497778 
L 150.763308 203.429819 
L 152.64928 194.769474 
L 154.535252 183.164843 
L 158.307197 176.994546 
L 160.193169 167.785563 
L 162.079141 149.841535 
L 163.965113 134.479338 
L 165.851085 122.835368 
L 169.623029 109.045237 
L 171.509001 103.853109 
L 173.394973 102.317147 
L 175.280945 104.350192 
L 177.166917 107.171843 
L 179.052889 107.808728 
L 180.938861 106.446409 
L 182.824834 107.455273 
L 184.710806 110.395576 
L 186.596778 112.247051 
L 188.48275 113.040613 
L 190.368722 110.697528 
L 192.254694 110.270471 
L 194.140666 103.733886 
L 196.026638 104.281549 
L 197.91261 102.764318 
L 203.570526 95.39878 
L 205.456498 94.643426 
L 207.34247 90.071085 
L 209.228443 90.809272 
L 211.114415 86.746269 
L 213.000387 83.113848 
L 214.886359 81.53471 
L 216.772331 76.247439 
L 218.658303 75.600031 
L 220.544275 71.812536 
L 222.430247 69.110727 
L 224.316219 68.237608 
L 226.202191 65.589878 
L 228.088163 65.288187 
L 229.974135 62.410846 
L 231.860107 62.558018 
L 233.746079 60.782538 
L 235.632052 60.412153 
L 237.518024 59.09952 
L 239.403996 56.869212 
L 241.289968 58.151143 
L 243.17594 57.527811 
L 245.061912 57.822792 
L 246.947884 58.741706 
L 248.833856 57.669007 
L 250.719828 59.67678 
L 252.6058 60.285641 
L 254.491772 61.454622 
L 256.377744 63.126596 
L 258.263716 64.956497 
L 260.149689 64.753686 
L 262.035661 64.204283 
L 263.921633 66.762122 
L 267.693577 68.452807 
L 269.579549 69.791608 
L 271.465521 70.194704 
L 273.351493 69.070253 
L 277.123437 74.471171 
L 279.009409 73.531239 
L 280.895381 74.433068 
L 282.781353 73.355317 
L 284.667325 74.519673 
L 286.553298 76.807171 
L 288.43927 75.705681 
L 290.325242 77.516324 
L 292.211214 77.363364 
L 295.983158 76.765527 
L 297.86913 76.669632 
L 305.413018 79.006601 
L 311.070934 82.220151 
L 316.728851 82.60703 
L 318.614823 82.932881 
L 320.500795 85.626593 
L 322.386767 86.850434 
L 326.158711 87.854215 
L 329.930655 88.753944 
L 331.816627 89.51539 
L 333.702599 90.782599 
L 335.588571 91.907513 
L 339.360516 92.870038 
L 345.018432 94.150828 
L 346.904404 96.62714 
L 348.790376 97.899016 
L 350.676348 98.625923 
L 356.334264 98.189149 
L 358.220236 99.284791 
L 360.106208 101.400445 
L 361.99218 102.710092 
L 363.878153 103.446505 
L 367.650097 104.575226 
L 369.536069 105.484135 
L 371.422041 107.655421 
L 373.308013 109.083193 
L 375.193985 109.242893 
L 380.851901 111.354195 
L 382.737873 112.773812 
L 384.623845 114.436858 
L 386.509817 114.845608 
L 388.395789 114.775728 
L 394.053706 116.384366 
L 395.939678 118.399646 
L 397.82565 120.59527 
L 399.711622 122.302966 
L 401.597594 123.189958 
L 405.369538 124.09472 
L 407.25551 124.663948 
L 409.141482 125.977142 
L 412.913426 129.111118 
L 416.685371 131.211306 
L 418.571343 132.221467 
L 420.457315 133.593815 
L 422.343287 135.121307 
L 424.229259 135.605469 
L 426.115231 135.379968 
L 431.773147 137.489159 
L 433.659119 139.478365 
L 435.545091 140.560467 
L 437.431063 140.126603 
L 439.317035 140.119684 
L 446.860924 143.810635 
L 448.746896 145.027043 
L 450.632868 145.966203 
L 452.51884 146.382777 
L 456.290784 146.824828 
L 458.176756 147.32882 
L 460.062728 148.655652 
L 461.9487 151.008605 
L 463.834672 152.534379 
L 469.492589 153.291103 
L 473.264533 154.304955 
L 475.150505 154.428394 
L 482.694393 156.370613 
L 484.580365 157.361343 
L 486.466337 157.319418 
L 488.352309 156.500442 
L 490.238281 156.158833 
L 495.896198 156.215444 
L 497.78217 156.821113 
L 499.668142 158.454748 
L 501.554114 159.593212 
L 505.326058 158.937051 
L 507.21203 158.572029 
L 509.098002 158.78035 
L 510.983974 160.526748 
L 512.869946 163.309448 
L 520.413835 161.989007 
L 522.299807 162.311625 
L 524.185779 163.687786 
L 526.071751 164.829721 
L 527.957723 165.132308 
L 531.729667 164.661902 
L 533.615639 164.557274 
L 537.387583 165.778398 
L 539.273555 165.413516 
L 544.931472 165.119996 
L 546.817444 165.554534 
L 548.703416 166.480258 
L 550.589388 166.693598 
L 552.47536 166.301675 
L 556.247304 166.824794 
L 558.133276 167.20251 
L 560.019248 167.957173 
L 561.90522 168.436757 
L 567.563136 168.325451 
L 571.335081 168.4953 
L 573.221053 168.888493 
L 575.107025 170.270737 
L 577 170.363832 
L 577 170.363832 
" clip-path="url(#pe04172212a)" style="fill: none; stroke: #00c09f; stroke-linecap: square"/>
   </g>
   <g id="line2d_27">
    <path d="M 84.754286 236.529253 
L 86.640258 236.350586 
L 88.52623 236.347355 
L 92.298174 236.127803 
L 94.184146 236.251084 
L 96.070118 237.790258 
L 97.95609 234.85659 
L 99.842062 236.272962 
L 101.728034 237.542847 
L 103.614006 237.312859 
L 105.499979 238.010987 
L 107.385951 236.527064 
L 109.271923 238.623562 
L 111.157895 236.433214 
L 113.043867 238.566426 
L 114.929839 237.970656 
L 116.815811 236.90833 
L 118.701783 236.970623 
L 120.587755 237.506823 
L 122.473727 236.679002 
L 126.245671 228.74798 
L 128.131643 226.950707 
L 130.017615 223.415339 
L 131.903588 220.344456 
L 133.78956 213.034559 
L 135.675532 207.093858 
L 137.561504 206.568107 
L 139.447476 210.964532 
L 141.333448 213.736013 
L 143.21942 214.677216 
L 145.105392 216.913116 
L 148.877336 214.056277 
L 150.763308 210.838875 
L 152.64928 205.102051 
L 154.535252 186.320775 
L 158.307197 178.19064 
L 160.193169 170.230977 
L 162.079141 153.87656 
L 163.965113 136.189649 
L 165.851085 127.155102 
L 169.623029 114.27481 
L 171.509001 109.876072 
L 173.394973 106.828737 
L 175.280945 109.853188 
L 177.166917 110.3422 
L 179.052889 111.390873 
L 180.938861 109.650311 
L 182.824834 111.701176 
L 184.710806 112.71295 
L 186.596778 114.501069 
L 188.48275 115.615333 
L 190.368722 111.633994 
L 192.254694 108.331048 
L 194.140666 106.656401 
L 199.798582 100.341129 
L 201.684554 97.388964 
L 203.570526 96.540878 
L 205.456498 93.741057 
L 207.34247 92.621802 
L 209.228443 92.152888 
L 211.114415 87.159324 
L 213.000387 84.862236 
L 214.886359 82.0467 
L 216.772331 79.437905 
L 220.544275 72.696235 
L 222.430247 69.326493 
L 224.316219 67.327997 
L 226.202191 67.576 
L 228.088163 65.007196 
L 231.860107 61.720275 
L 233.746079 59.865998 
L 235.632052 59.408423 
L 237.518024 57.104271 
L 239.403996 58.263027 
L 241.289968 56.704922 
L 243.17594 54.781981 
L 245.061912 56.672586 
L 246.947884 56.697591 
L 248.833856 57.057579 
L 252.6058 58.489662 
L 254.491772 58.782921 
L 256.377744 59.956571 
L 258.263716 61.320299 
L 260.149689 60.565259 
L 262.035661 64.079981 
L 263.921633 64.194415 
L 265.807605 65.170297 
L 267.693577 65.816376 
L 269.579549 67.304588 
L 271.465521 69.097352 
L 273.351493 69.845031 
L 275.237465 71.031107 
L 277.123437 70.387997 
L 279.009409 69.424307 
L 280.895381 72.130446 
L 282.781353 73.210957 
L 284.667325 74.950929 
L 286.553298 74.97629 
L 288.43927 75.46099 
L 290.325242 73.458635 
L 292.211214 73.888905 
L 295.983158 75.821203 
L 297.86913 76.446007 
L 299.755102 76.715302 
L 301.641074 77.191977 
L 305.413018 78.334367 
L 309.184962 79.146327 
L 312.956907 79.802969 
L 314.842879 80.594684 
L 316.728851 81.508079 
L 320.500795 82.642407 
L 322.386767 83.695461 
L 324.272739 84.484251 
L 326.158711 84.744943 
L 328.044683 85.855433 
L 329.930655 86.339349 
L 331.816627 86.683461 
L 333.702599 87.675433 
L 335.588571 88.969084 
L 339.360516 90.709948 
L 341.246488 92.036059 
L 343.13246 93.160424 
L 346.904404 94.442758 
L 350.676348 96.31292 
L 352.56232 97.168059 
L 354.448292 98.761188 
L 356.334264 99.756225 
L 358.220236 100.408917 
L 360.106208 100.422103 
L 361.99218 100.555759 
L 363.878153 101.57908 
L 367.650097 104.525657 
L 369.536069 105.650766 
L 371.422041 106.189953 
L 373.308013 106.305456 
L 375.193985 106.722277 
L 377.079957 107.698471 
L 380.851901 110.194129 
L 382.737873 111.300553 
L 388.395789 113.107022 
L 390.281762 114.176927 
L 392.167734 115.404013 
L 395.939678 117.485228 
L 397.82565 119.458337 
L 399.711622 120.23536 
L 401.597594 120.78083 
L 403.483566 122.371207 
L 405.369538 123.500002 
L 407.25551 124.323783 
L 409.141482 125.662108 
L 411.027454 127.538353 
L 412.913426 129.020906 
L 414.799398 129.877219 
L 418.571343 132.536932 
L 420.457315 133.492541 
L 422.343287 133.888407 
L 424.229259 134.095703 
L 426.115231 134.964292 
L 431.773147 138.853791 
L 433.659119 139.874984 
L 437.431063 139.980089 
L 439.317035 140.624846 
L 443.08898 143.310749 
L 444.974952 144.112951 
L 446.860924 144.609599 
L 450.632868 146.451393 
L 452.51884 146.826797 
L 454.404812 148.055274 
L 456.290784 148.469907 
L 458.176756 148.680117 
L 460.062728 149.877964 
L 461.9487 151.657274 
L 463.834672 152.644904 
L 469.492589 153.680729 
L 471.378561 153.765424 
L 473.264533 153.034298 
L 475.150505 153.269546 
L 477.036477 154.05932 
L 480.808421 155.87593 
L 482.694393 156.486754 
L 484.580365 156.573998 
L 486.466337 155.43205 
L 488.352309 154.556171 
L 490.238281 155.437762 
L 494.010226 157.778452 
L 495.896198 158.497873 
L 497.78217 158.29464 
L 499.668142 157.515601 
L 501.554114 157.382011 
L 503.440086 158.118632 
L 507.21203 160.37496 
L 510.983974 161.619279 
L 512.869946 162.202214 
L 518.527863 163.109543 
L 522.299807 163.180635 
L 526.071751 164.496784 
L 527.957723 164.727084 
L 531.729667 165.91963 
L 533.615639 166.026782 
L 537.387583 165.913578 
L 539.273555 165.985571 
L 541.159527 166.423057 
L 544.931472 167.933379 
L 546.817444 168.152971 
L 548.703416 167.798999 
L 550.589388 167.247286 
L 552.47536 167.052733 
L 554.361332 167.387237 
L 556.247304 167.85207 
L 560.019248 167.956018 
L 563.791192 168.770597 
L 565.677164 168.633061 
L 569.449108 168.936699 
L 571.335081 168.845158 
L 573.221053 168.616087 
L 575.107025 169.858787 
L 577 171.460789 
L 577 171.460789 
" clip-path="url(#pe04172212a)" style="fill: none; stroke: #00ff80; stroke-linecap: square"/>
   </g>
   <g id="patch_3">
    <path d="M 72 252 
L 72 34.56 
" style="fill: none; stroke: #000000; stroke-width: 0.8; stroke-linejoin: miter; stroke-linecap: square"/>
   </g>
   <g id="patch_4">
    <path d="M 518.4 252 
L 518.4 34.56 
" style="fill: none; stroke: #000000; stroke-width: 0.8; stroke-linejoin: miter; stroke-linecap: square"/>
   </g>
   <g id="patch_5">
    <path d="M 72 252 
L 518.4 252 
" style="fill: none; stroke: #000000; stroke-width: 0.8; stroke-linejoin: miter; stroke-linecap: square"/>
   </g>
   <g id="patch_6">
    <path d="M 72 34.56 
L 518.4 34.56 
" style="fill: none; stroke: #000000; stroke-width: 0.8; stroke-linejoin: miter; stroke-linecap: square"/>
   </g>
   <g id="text_19">
    <!-- Y7 Normalized NEXAFS -->
    <g transform="translate(226.228125 28.56)scale(0.12 -0.12)">
     <defs>
      <path id="DejaVuSans-59" d="M -13 4666 
L 666 4666 
L 1959 2747 
L 3244 4666 
L 3922 4666 
L 2272 2222 
L 2272 0 
L 1638 0 
L 1638 2222 
L -13 4666 
z
" transform="scale(0.015625)"/>
      <path id="DejaVuSans-37" d="M 525 4666 
L 3525 4666 
L 3525 4397 
L 1831 0 
L 1172 0 
L 2766 4134 
L 525 4134 
L 525 4666 
z
" transform="scale(0.015625)"/>
      <path id="DejaVuSans-4e" d="M 628 4666 
L 1478 4666 
L 3547 763 
L 3547 4666 
L 4159 4666 
L 4159 0 
L 3309 0 
L 1241 3903 
L 1241 0 
L 628 0 
L 628 4666 
z
" transform="scale(0.015625)"/>
      <path id="DejaVuSans-6d" d="M 3328 2828 
Q 3544 3216 3844 3400 
Q 4144 3584 4550 3584 
Q 5097 3584 5394 3201 
Q 5691 2819 5691 2113 
L 5691 0 
L 5113 0 
L 5113 2094 
Q 5113 2597 4934 2840 
Q 4756 3084 4391 3084 
Q 3944 3084 3684 2787 
Q 3425 2491 3425 1978 
L 3425 0 
L 2847 0 
L 2847 2094 
Q 2847 2600 2669 2842 
Q 2491 3084 2119 3084 
Q 1678 3084 1418 2786 
Q 1159 2488 1159 1978 
L 1159 0 
L 581 0 
L 581 3500 
L 1159 3500 
L 1159 2956 
Q 1356 3278 1631 3431 
Q 1906 3584 2284 3584 
Q 2666 3584 2933 3390 
Q 3200 3197 3328 2828 
z
" transform="scale(0.015625)"/>
      <path id="DejaVuSans-7a" d="M 353 3500 
L 3084 3500 
L 3084 2975 
L 922 459 
L 3084 459 
L 3084 0 
L 275 0 
L 275 525 
L 2438 3041 
L 353 3041 
L 353 3500 
z
" transform="scale(0.015625)"/>
      <path id="DejaVuSans-45" d="M 628 4666 
L 3578 4666 
L 3578 4134 
L 1259 4134 
L 1259 2753 
L 3481 2753 
L 3481 2222 
L 1259 2222 
L 1259 531 
L 3634 531 
L 3634 0 
L 628 0 
L 628 4666 
z
" transform="scale(0.015625)"/>
      <path id="DejaVuSans-58" d="M 403 4666 
L 1081 4666 
L 2241 2931 
L 3406 4666 
L 4084 4666 
L 2584 2425 
L 4184 0 
L 3506 0 
L 2194 1984 
L 872 0 
L 191 0 
L 1856 2491 
L 403 4666 
z
" transform="scale(0.015625)"/>
      <path id="DejaVuSans-41" d="M 2188 4044 
L 1331 1722 
L 3047 1722 
L 2188 4044 
z
M 1831 4666 
L 2547 4666 
L 4325 0 
L 3669 0 
L 3244 1197 
L 1141 1197 
L 716 0 
L 50 0 
L 1831 4666 
z
" transform="scale(0.015625)"/>
      <path id="DejaVuSans-46" d="M 628 4666 
L 3309 4666 
L 3309 4134 
L 1259 4134 
L 1259 2759 
L 3109 2759 
L 3109 2228 
L 1259 2228 
L 1259 0 
L 628 0 
L 628 4666 
z
" transform="scale(0.015625)"/>
      <path id="DejaVuSans-53" d="M 3425 4513 
L 3425 3897 
Q 3066 4069 2747 4153 
Q 2428 4238 2131 4238 
Q 1616 4238 1336 4038 
Q 1056 3838 1056 3469 
Q 1056 3159 1242 3001 
Q 1428 2844 1947 2747 
L 2328 2669 
Q 3034 2534 3370 2195 
Q 3706 1856 3706 1288 
Q 3706 609 3251 259 
Q 2797 -91 1919 -91 
Q 1588 -91 1214 -16 
Q 841 59 441 206 
L 441 856 
Q 825 641 1194 531 
Q 1563 422 1919 422 
Q 2459 422 2753 634 
Q 3047 847 3047 1241 
Q 3047 1584 2836 1778 
Q 2625 1972 2144 2069 
L 1759 2144 
Q 1053 2284 737 2584 
Q 422 2884 422 3419 
Q 422 4038 858 4394 
Q 1294 4750 2059 4750 
Q 2388 4750 2728 4690 
Q 3069 4631 3425 4513 
z
" transform="scale(0.015625)"/>
     </defs>
     <use xlink:href="#DejaVuSans-59"/>
     <use xlink:href="#DejaVuSans-37" x="61.083984"/>
     <use xlink:href="#DejaVuSans-20" x="124.707031"/>
     <use xlink:href="#DejaVuSans-4e" x="156.494141"/>
     <use xlink:href="#DejaVuSans-6f" x="231.298828"/>
     <use xlink:href="#DejaVuSans-72" x="292.480469"/>
     <use xlink:href="#DejaVuSans-6d" x="331.84375"/>
     <use xlink:href="#DejaVuSans-61" x="429.255859"/>
     <use xlink:href="#DejaVuSans-6c" x="490.535156"/>
     <use xlink:href="#DejaVuSans-69" x="518.318359"/>
     <use xlink:href="#DejaVuSans-7a" x="546.101562"/>
     <use xlink:href="#DejaVuSans-65" x="598.591797"/>
     <use xlink:href="#DejaVuSans-64" x="660.115234"/>
     <use xlink:href="#DejaVuSans-20" x="723.591797"/>
     <use xlink:href="#DejaVuSans-4e" x="755.378906"/>
     <use xlink:href="#DejaVuSans-45" x="830.183594"/>
     <use xlink:href="#DejaVuSans-58" x="893.367188"/>
     <use xlink:href="#DejaVuSans-41" x="961.873047"/>
     <use xlink:href="#DejaVuSans-46" x="1030.28125"/>
     <use xlink:href="#DejaVuSans-53" x="1086.050781"/>
    </g>
   </g>
   <g id="legend_1">
    <g id="patch_7">
     <path d="M 394.645312 247 
L 511.4 247 
Q 513.4 247 513.4 245 
L 513.4 84.540625 
Q 513.4 82.540625 511.4 82.540625 
L 394.645312 82.540625 
Q 392.645312 82.540625 392.645312 84.540625 
L 392.645312 245 
Q 392.645312 247 394.645312 247 
z
" style="fill: #ffffff; opacity: 0.8; stroke: #cccccc; stroke-linejoin: miter"/>
    </g>
    <g id="line2d_28">
     <path d="M 396.645312 90.639063 
L 406.645312 90.639063 
L 416.645312 90.639063 
" style="fill: none; stroke: #0d0887; stroke-width: 2; stroke-linecap: square"/>
    </g>
    <g id="text_20">
     <!-- extrapolated 0 -->
     <g transform="translate(424.645312 94.139063)scale(0.1 -0.1)">
      <defs>
       <path id="DejaVuSans-78" d="M 3513 3500 
L 2247 1797 
L 3578 0 
L 2900 0 
L 1881 1375 
L 863 0 
L 184 0 
L 1544 1831 
L 300 3500 
L 978 3500 
L 1906 2253 
L 2834 3500 
L 3513 3500 
z
" transform="scale(0.015625)"/>
       <path id="DejaVuSans-70" d="M 1159 525 
L 1159 -1331 
L 581 -1331 
L 581 3500 
L 1159 3500 
L 1159 2969 
Q 1341 3281 1617 3432 
Q 1894 3584 2278 3584 
Q 2916 3584 3314 3078 
Q 3713 2572 3713 1747 
Q 3713 922 3314 415 
Q 2916 -91 2278 -91 
Q 1894 -91 1617 61 
Q 1341 213 1159 525 
z
M 3116 1747 
Q 3116 2381 2855 2742 
Q 2594 3103 2138 3103 
Q 1681 3103 1420 2742 
Q 1159 2381 1159 1747 
Q 1159 1113 1420 752 
Q 1681 391 2138 391 
Q 2594 391 2855 752 
Q 3116 1113 3116 1747 
z
" transform="scale(0.015625)"/>
       <path id="DejaVuSans-b0" d="M 1600 4347 
Q 1350 4347 1178 4173 
Q 1006 4000 1006 3750 
Q 1006 3503 1178 3333 
Q 1350 3163 1600 3163 
Q 1850 3163 2022 3333 
Q 2194 3503 2194 3750 
Q 2194 3997 2020 4172 
Q 1847 4347 1600 4347 
z
M 1600 4750 
Q 1800 4750 1984 4673 
Q 2169 4597 2303 4453 
Q 2447 4313 2519 4134 
Q 2591 3956 2591 3750 
Q 2591 3338 2302 3052 
Q 2013 2766 1594 2766 
Q 1172 2766 890 3047 
Q 609 3328 609 3750 
Q 609 4169 896 4459 
Q 1184 4750 1600 4750 
z
" transform="scale(0.015625)"/>
      </defs>
      <use xlink:href="#DejaVuSans-65"/>
      <use xlink:href="#DejaVuSans-78" x="59.773438"/>
      <use xlink:href="#DejaVuSans-74" x="118.953125"/>
      <use xlink:href="#DejaVuSans-72" x="158.162109"/>
      <use xlink:href="#DejaVuSans-61" x="199.275391"/>
      <use xlink:href="#DejaVuSans-70" x="260.554688"/>
      <use xlink:href="#DejaVuSans-6f" x="324.03125"/>
      <use xlink:href="#DejaVuSans-6c" x="385.212891"/>
      <use xlink:href="#DejaVuSans-61" x="412.996094"/>
      <use xlink:href="#DejaVuSans-74" x="474.275391"/>
      <use xlink:href="#DejaVuSans-65" x="513.484375"/>
      <use xlink:href="#DejaVuSans-64" x="575.007812"/>
      <use xlink:href="#DejaVuSans-20" x="638.484375"/>
      <use xlink:href="#DejaVuSans-30" x="670.271484"/>
      <use xlink:href="#DejaVuSans-b0" x="733.894531"/>
     </g>
    </g>
    <g id="line2d_29">
     <path d="M 396.645312 105.317188 
L 406.645312 105.317188 
L 416.645312 105.317188 
" style="fill: none; stroke: #6a00a8; stroke-width: 2; stroke-linecap: square"/>
    </g>
    <g id="text_21">
     <!-- extrapolated 30 -->
     <g transform="translate(424.645312 108.817188)scale(0.1 -0.1)">
      <use xlink:href="#DejaVuSans-65"/>
      <use xlink:href="#DejaVuSans-78" x="59.773438"/>
      <use xlink:href="#DejaVuSans-74" x="118.953125"/>
      <use xlink:href="#DejaVuSans-72" x="158.162109"/>
      <use xlink:href="#DejaVuSans-61" x="199.275391"/>
      <use xlink:href="#DejaVuSans-70" x="260.554688"/>
      <use xlink:href="#DejaVuSans-6f" x="324.03125"/>
      <use xlink:href="#DejaVuSans-6c" x="385.212891"/>
      <use xlink:href="#DejaVuSans-61" x="412.996094"/>
      <use xlink:href="#DejaVuSans-74" x="474.275391"/>
      <use xlink:href="#DejaVuSans-65" x="513.484375"/>
      <use xlink:href="#DejaVuSans-64" x="575.007812"/>
      <use xlink:href="#DejaVuSans-20" x="638.484375"/>
      <use xlink:href="#DejaVuSans-33" x="670.271484"/>
      <use xlink:href="#DejaVuSans-30" x="733.894531"/>
      <use xlink:href="#DejaVuSans-b0" x="797.517578"/>
     </g>
    </g>
    <g id="line2d_30">
     <path d="M 396.645312 119.995313 
L 406.645312 119.995313 
L 416.645312 119.995313 
" style="fill: none; stroke: #b12a90; stroke-width: 2; stroke-linecap: square"/>
    </g>
    <g id="text_22">
     <!-- extrapolated 40 -->
     <g transform="translate(424.645312 123.495313)scale(0.1 -0.1)">
      <defs>
       <path id="DejaVuSans-34" d="M 2419 4116 
L 825 1625 
L 2419 1625 
L 2419 4116 
z
M 2253 4666 
L 3047 4666 
L 3047 1625 
L 3713 1625 
L 3713 1100 
L 3047 1100 
L 3047 0 
L 2419 0 
L 2419 1100 
L 313 1100 
L 313 1709 
L 2253 4666 
z
" transform="scale(0.015625)"/>
      </defs>
      <use xlink:href="#DejaVuSans-65"/>
      <use xlink:href="#DejaVuSans-78" x="59.773438"/>
      <use xlink:href="#DejaVuSans-74" x="118.953125"/>
      <use xlink:href="#DejaVuSans-72" x="158.162109"/>
      <use xlink:href="#DejaVuSans-61" x="199.275391"/>
      <use xlink:href="#DejaVuSans-70" x="260.554688"/>
      <use xlink:href="#DejaVuSans-6f" x="324.03125"/>
      <use xlink:href="#DejaVuSans-6c" x="385.212891"/>
      <use xlink:href="#DejaVuSans-61" x="412.996094"/>
      <use xlink:href="#DejaVuSans-74" x="474.275391"/>
      <use xlink:href="#DejaVuSans-65" x="513.484375"/>
      <use xlink:href="#DejaVuSans-64" x="575.007812"/>
      <use xlink:href="#DejaVuSans-20" x="638.484375"/>
      <use xlink:href="#DejaVuSans-34" x="670.271484"/>
      <use xlink:href="#DejaVuSans-30" x="733.894531"/>
      <use xlink:href="#DejaVuSans-b0" x="797.517578"/>
     </g>
    </g>
    <g id="line2d_31">
     <path d="M 396.645312 134.673438 
L 406.645312 134.673438 
L 416.645312 134.673438 
" style="fill: none; stroke: #e16462; stroke-width: 2; stroke-linecap: square"/>
    </g>
    <g id="text_23">
     <!-- extrapolated 55 -->
     <g transform="translate(424.645312 138.173438)scale(0.1 -0.1)">
      <use xlink:href="#DejaVuSans-65"/>
      <use xlink:href="#DejaVuSans-78" x="59.773438"/>
      <use xlink:href="#DejaVuSans-74" x="118.953125"/>
      <use xlink:href="#DejaVuSans-72" x="158.162109"/>
      <use xlink:href="#DejaVuSans-61" x="199.275391"/>
      <use xlink:href="#DejaVuSans-70" x="260.554688"/>
      <use xlink:href="#DejaVuSans-6f" x="324.03125"/>
      <use xlink:href="#DejaVuSans-6c" x="385.212891"/>
      <use xlink:href="#DejaVuSans-61" x="412.996094"/>
      <use xlink:href="#DejaVuSans-74" x="474.275391"/>
      <use xlink:href="#DejaVuSans-65" x="513.484375"/>
      <use xlink:href="#DejaVuSans-64" x="575.007812"/>
      <use xlink:href="#DejaVuSans-20" x="638.484375"/>
      <use xlink:href="#DejaVuSans-35" x="670.271484"/>
      <use xlink:href="#DejaVuSans-35" x="733.894531"/>
      <use xlink:href="#DejaVuSans-b0" x="797.517578"/>
     </g>
    </g>
    <g id="line2d_32">
     <path d="M 396.645312 149.351563 
L 406.645312 149.351563 
L 416.645312 149.351563 
" style="fill: none; stroke: #fca636; stroke-width: 2; stroke-linecap: square"/>
    </g>
    <g id="text_24">
     <!-- extrapolated 70 -->
     <g transform="translate(424.645312 152.851563)scale(0.1 -0.1)">
      <use xlink:href="#DejaVuSans-65"/>
      <use xlink:href="#DejaVuSans-78" x="59.773438"/>
      <use xlink:href="#DejaVuSans-74" x="118.953125"/>
      <use xlink:href="#DejaVuSans-72" x="158.162109"/>
      <use xlink:href="#DejaVuSans-61" x="199.275391"/>
      <use xlink:href="#DejaVuSans-70" x="260.554688"/>
      <use xlink:href="#DejaVuSans-6f" x="324.03125"/>
      <use xlink:href="#DejaVuSans-6c" x="385.212891"/>
      <use xlink:href="#DejaVuSans-61" x="412.996094"/>
      <use xlink:href="#DejaVuSans-74" x="474.275391"/>
      <use xlink:href="#DejaVuSans-65" x="513.484375"/>
      <use xlink:href="#DejaVuSans-64" x="575.007812"/>
      <use xlink:href="#DejaVuSans-20" x="638.484375"/>
      <use xlink:href="#DejaVuSans-37" x="670.271484"/>
      <use xlink:href="#DejaVuSans-30" x="733.894531"/>
      <use xlink:href="#DejaVuSans-b0" x="797.517578"/>
     </g>
    </g>
    <g id="line2d_33">
     <path d="M 396.645312 164.029688 
L 406.645312 164.029688 
L 416.645312 164.029688 
" style="fill: none; stroke: #f0f921; stroke-width: 2; stroke-linecap: square"/>
    </g>
    <g id="text_25">
     <!-- extrapolated 90 -->
     <g transform="translate(424.645312 167.529688)scale(0.1 -0.1)">
      <use xlink:href="#DejaVuSans-65"/>
      <use xlink:href="#DejaVuSans-78" x="59.773438"/>
      <use xlink:href="#DejaVuSans-74" x="118.953125"/>
      <use xlink:href="#DejaVuSans-72" x="158.162109"/>
      <use xlink:href="#DejaVuSans-61" x="199.275391"/>
      <use xlink:href="#DejaVuSans-70" x="260.554688"/>
      <use xlink:href="#DejaVuSans-6f" x="324.03125"/>
      <use xlink:href="#DejaVuSans-6c" x="385.212891"/>
      <use xlink:href="#DejaVuSans-61" x="412.996094"/>
      <use xlink:href="#DejaVuSans-74" x="474.275391"/>
      <use xlink:href="#DejaVuSans-65" x="513.484375"/>
      <use xlink:href="#DejaVuSans-64" x="575.007812"/>
      <use xlink:href="#DejaVuSans-20" x="638.484375"/>
      <use xlink:href="#DejaVuSans-39" x="670.271484"/>
      <use xlink:href="#DejaVuSans-30" x="733.894531"/>
      <use xlink:href="#DejaVuSans-b0" x="797.517578"/>
     </g>
    </g>
    <g id="line2d_34">
     <path d="M 396.645312 178.707813 
L 406.645312 178.707813 
L 416.645312 178.707813 
" style="fill: none; stroke: #0000ff; stroke-linecap: square"/>
    </g>
    <g id="text_26">
     <!-- original 30 -->
     <g transform="translate(424.645312 182.207813)scale(0.1 -0.1)">
      <use xlink:href="#DejaVuSans-6f"/>
      <use xlink:href="#DejaVuSans-72" x="61.181641"/>
      <use xlink:href="#DejaVuSans-69" x="102.294922"/>
      <use xlink:href="#DejaVuSans-67" x="130.078125"/>
      <use xlink:href="#DejaVuSans-69" x="193.554688"/>
      <use xlink:href="#DejaVuSans-6e" x="221.337891"/>
      <use xlink:href="#DejaVuSans-61" x="284.716797"/>
      <use xlink:href="#DejaVuSans-6c" x="345.996094"/>
      <use xlink:href="#DejaVuSans-20" x="373.779297"/>
      <use xlink:href="#DejaVuSans-33" x="405.566406"/>
      <use xlink:href="#DejaVuSans-30" x="469.189453"/>
      <use xlink:href="#DejaVuSans-b0" x="532.8125"/>
     </g>
    </g>
    <g id="line2d_35">
     <path d="M 396.645312 193.385938 
L 406.645312 193.385938 
L 416.645312 193.385938 
" style="fill: none; stroke: #0040df; stroke-linecap: square"/>
    </g>
    <g id="text_27">
     <!-- original 40 -->
     <g transform="translate(424.645312 196.885938)scale(0.1 -0.1)">
      <use xlink:href="#DejaVuSans-6f"/>
      <use xlink:href="#DejaVuSans-72" x="61.181641"/>
      <use xlink:href="#DejaVuSans-69" x="102.294922"/>
      <use xlink:href="#DejaVuSans-67" x="130.078125"/>
      <use xlink:href="#DejaVuSans-69" x="193.554688"/>
      <use xlink:href="#DejaVuSans-6e" x="221.337891"/>
      <use xlink:href="#DejaVuSans-61" x="284.716797"/>
      <use xlink:href="#DejaVuSans-6c" x="345.996094"/>
      <use xlink:href="#DejaVuSans-20" x="373.779297"/>
      <use xlink:href="#DejaVuSans-34" x="405.566406"/>
      <use xlink:href="#DejaVuSans-30" x="469.189453"/>
      <use xlink:href="#DejaVuSans-b0" x="532.8125"/>
     </g>
    </g>
    <g id="line2d_36">
     <path d="M 396.645312 208.064063 
L 406.645312 208.064063 
L 416.645312 208.064063 
" style="fill: none; stroke: #0080bf; stroke-linecap: square"/>
    </g>
    <g id="text_28">
     <!-- original 55 -->
     <g transform="translate(424.645312 211.564063)scale(0.1 -0.1)">
      <use xlink:href="#DejaVuSans-6f"/>
      <use xlink:href="#DejaVuSans-72" x="61.181641"/>
      <use xlink:href="#DejaVuSans-69" x="102.294922"/>
      <use xlink:href="#DejaVuSans-67" x="130.078125"/>
      <use xlink:href="#DejaVuSans-69" x="193.554688"/>
      <use xlink:href="#DejaVuSans-6e" x="221.337891"/>
      <use xlink:href="#DejaVuSans-61" x="284.716797"/>
      <use xlink:href="#DejaVuSans-6c" x="345.996094"/>
      <use xlink:href="#DejaVuSans-20" x="373.779297"/>
      <use xlink:href="#DejaVuSans-35" x="405.566406"/>
      <use xlink:href="#DejaVuSans-35" x="469.189453"/>
      <use xlink:href="#DejaVuSans-b0" x="532.8125"/>
     </g>
    </g>
    <g id="line2d_37">
     <path d="M 396.645312 222.742188 
L 406.645312 222.742188 
L 416.645312 222.742188 
" style="fill: none; stroke: #00c09f; stroke-linecap: square"/>
    </g>
    <g id="text_29">
     <!-- original 70 -->
     <g transform="translate(424.645312 226.242188)scale(0.1 -0.1)">
      <use xlink:href="#DejaVuSans-6f"/>
      <use xlink:href="#DejaVuSans-72" x="61.181641"/>
      <use xlink:href="#DejaVuSans-69" x="102.294922"/>
      <use xlink:href="#DejaVuSans-67" x="130.078125"/>
      <use xlink:href="#DejaVuSans-69" x="193.554688"/>
      <use xlink:href="#DejaVuSans-6e" x="221.337891"/>
      <use xlink:href="#DejaVuSans-61" x="284.716797"/>
      <use xlink:href="#DejaVuSans-6c" x="345.996094"/>
      <use xlink:href="#DejaVuSans-20" x="373.779297"/>
      <use xlink:href="#DejaVuSans-37" x="405.566406"/>
      <use xlink:href="#DejaVuSans-30" x="469.189453"/>
      <use xlink:href="#DejaVuSans-b0" x="532.8125"/>
     </g>
    </g>
    <g id="line2d_38">
     <path d="M 396.645312 237.420312 
L 406.645312 237.420312 
L 416.645312 237.420312 
" style="fill: none; stroke: #00ff80; stroke-linecap: square"/>
    </g>
    <g id="text_30">
     <!-- original 90 -->
     <g transform="translate(424.645312 240.920312)scale(0.1 -0.1)">
      <use xlink:href="#DejaVuSans-6f"/>
      <use xlink:href="#DejaVuSans-72" x="61.181641"/>
      <use xlink:href="#DejaVuSans-69" x="102.294922"/>
      <use xlink:href="#DejaVuSans-67" x="130.078125"/>
      <use xlink:href="#DejaVuSans-69" x="193.554688"/>
      <use xlink:href="#DejaVuSans-6e" x="221.337891"/>
      <use xlink:href="#DejaVuSans-61" x="284.716797"/>
      <use xlink:href="#DejaVuSans-6c" x="345.996094"/>
      <use xlink:href="#DejaVuSans-20" x="373.779297"/>
      <use xlink:href="#DejaVuSans-39" x="405.566406"/>
      <use xlink:href="#DejaVuSans-30" x="469.189453"/>
      <use xlink:href="#DejaVuSans-b0" x="532.8125"/>
     </g>
    </g>
   </g>
  </g>
 </g>
 <defs>
  <clipPath id="pe04172212a">
   <rect x="72" y="34.56" width="446.4" height="217.44"/>
  </clipPath>
 </defs>
</svg>
