<?xml version="1.0" encoding="utf-8" standalone="no"?>
<!DOCTYPE svg PUBLIC "-//W3C//DTD SVG 1.1//EN"
  "http://www.w3.org/Graphics/SVG/1.1/DTD/svg11.dtd">
<svg xmlns:xlink="http://www.w3.org/1999/xlink" width="432pt" height="288pt" viewBox="0 0 432 288" xmlns="http://www.w3.org/2000/svg" version="1.1">
 <metadata>
  <rdf:RDF xmlns:dc="http://purl.org/dc/elements/1.1/" xmlns:cc="http://creativecommons.org/ns#" xmlns:rdf="http://www.w3.org/1999/02/22-rdf-syntax-ns#">
   <cc:Work>
    <dc:type rdf:resource="http://purl.org/dc/dcmitype/StillImage"/>
    <dc:date>2022-12-02T13:38:44.715431</dc:date>
    <dc:format>image/svg+xml</dc:format>
    <dc:creator>
     <cc:Agent>
      <dc:title>Matplotlib v3.5.1, https://matplotlib.org/</dc:title>
     </cc:Agent>
    </dc:creator>
   </cc:Work>
  </rdf:RDF>
 </metadata>
 <defs>
  <style type="text/css">*{stroke-linejoin: round; stroke-linecap: butt}</style>
 </defs>
 <g id="figure_1">
  <g id="patch_1">
   <path d="M 0 288 
L 432 288 
L 432 0 
L 0 0 
L 0 288 
z
" style="fill: none"/>
  </g>
  <g id="axes_1">
   <g id="patch_2">
    <path d="M 54 252 
L 388.8 252 
L 388.8 34.56 
L 54 34.56 
z
" style="fill: #ffffff"/>
   </g>
   <g id="matplotlib.axis_1">
    <g id="xtick_1">
     <g id="line2d_1">
      <defs>
       <path id="mf8add0ac33" d="M 0 0 
L 0 3.5 
" style="stroke: #000000; stroke-width: 0.8"/>
      </defs>
      <g>
       <use xlink:href="#mf8add0ac33" x="54" y="252" style="stroke: #000000; stroke-width: 0.8"/>
      </g>
     </g>
     <g id="text_1">
      <!-- 280 -->
      <g transform="translate(44.45625 266.598437)scale(0.1 -0.1)">
       <defs>
        <path id="DejaVuSans-32" d="M 1228 531 
L 3431 531 
L 3431 0 
L 469 0 
L 469 531 
Q 828 903 1448 1529 
Q 2069 2156 2228 2338 
Q 2531 2678 2651 2914 
Q 2772 3150 2772 3378 
Q 2772 3750 2511 3984 
Q 2250 4219 1831 4219 
Q 1534 4219 1204 4116 
Q 875 4013 500 3803 
L 500 4441 
Q 881 4594 1212 4672 
Q 1544 4750 1819 4750 
Q 2544 4750 2975 4387 
Q 3406 4025 3406 3419 
Q 3406 3131 3298 2873 
Q 3191 2616 2906 2266 
Q 2828 2175 2409 1742 
Q 1991 1309 1228 531 
z
" transform="scale(0.015625)"/>
        <path id="DejaVuSans-38" d="M 2034 2216 
Q 1584 2216 1326 1975 
Q 1069 1734 1069 1313 
Q 1069 891 1326 650 
Q 1584 409 2034 409 
Q 2484 409 2743 651 
Q 3003 894 3003 1313 
Q 3003 1734 2745 1975 
Q 2488 2216 2034 2216 
z
M 1403 2484 
Q 997 2584 770 2862 
Q 544 3141 544 3541 
Q 544 4100 942 4425 
Q 1341 4750 2034 4750 
Q 2731 4750 3128 4425 
Q 3525 4100 3525 3541 
Q 3525 3141 3298 2862 
Q 3072 2584 2669 2484 
Q 3125 2378 3379 2068 
Q 3634 1759 3634 1313 
Q 3634 634 3220 271 
Q 2806 -91 2034 -91 
Q 1263 -91 848 271 
Q 434 634 434 1313 
Q 434 1759 690 2068 
Q 947 2378 1403 2484 
z
M 1172 3481 
Q 1172 3119 1398 2916 
Q 1625 2713 2034 2713 
Q 2441 2713 2670 2916 
Q 2900 3119 2900 3481 
Q 2900 3844 2670 4047 
Q 2441 4250 2034 4250 
Q 1625 4250 1398 4047 
Q 1172 3844 1172 3481 
z
" transform="scale(0.015625)"/>
        <path id="DejaVuSans-30" d="M 2034 4250 
Q 1547 4250 1301 3770 
Q 1056 3291 1056 2328 
Q 1056 1369 1301 889 
Q 1547 409 2034 409 
Q 2525 409 2770 889 
Q 3016 1369 3016 2328 
Q 3016 3291 2770 3770 
Q 2525 4250 2034 4250 
z
M 2034 4750 
Q 2819 4750 3233 4129 
Q 3647 3509 3647 2328 
Q 3647 1150 3233 529 
Q 2819 -91 2034 -91 
Q 1250 -91 836 529 
Q 422 1150 422 2328 
Q 422 3509 836 4129 
Q 1250 4750 2034 4750 
z
" transform="scale(0.015625)"/>
       </defs>
       <use xlink:href="#DejaVuSans-32"/>
       <use xlink:href="#DejaVuSans-38" x="63.623047"/>
       <use xlink:href="#DejaVuSans-30" x="127.246094"/>
      </g>
     </g>
    </g>
    <g id="xtick_2">
     <g id="line2d_2">
      <g>
       <use xlink:href="#mf8add0ac33" x="101.828571" y="252" style="stroke: #000000; stroke-width: 0.8"/>
      </g>
     </g>
     <g id="text_2">
      <!-- 285 -->
      <g transform="translate(92.284821 266.598437)scale(0.1 -0.1)">
       <defs>
        <path id="DejaVuSans-35" d="M 691 4666 
L 3169 4666 
L 3169 4134 
L 1269 4134 
L 1269 2991 
Q 1406 3038 1543 3061 
Q 1681 3084 1819 3084 
Q 2600 3084 3056 2656 
Q 3513 2228 3513 1497 
Q 3513 744 3044 326 
Q 2575 -91 1722 -91 
Q 1428 -91 1123 -41 
Q 819 9 494 109 
L 494 744 
Q 775 591 1075 516 
Q 1375 441 1709 441 
Q 2250 441 2565 725 
Q 2881 1009 2881 1497 
Q 2881 1984 2565 2268 
Q 2250 2553 1709 2553 
Q 1456 2553 1204 2497 
Q 953 2441 691 2322 
L 691 4666 
z
" transform="scale(0.015625)"/>
       </defs>
       <use xlink:href="#DejaVuSans-32"/>
       <use xlink:href="#DejaVuSans-38" x="63.623047"/>
       <use xlink:href="#DejaVuSans-35" x="127.246094"/>
      </g>
     </g>
    </g>
    <g id="xtick_3">
     <g id="line2d_3">
      <g>
       <use xlink:href="#mf8add0ac33" x="149.657143" y="252" style="stroke: #000000; stroke-width: 0.8"/>
      </g>
     </g>
     <g id="text_3">
      <!-- 290 -->
      <g transform="translate(140.113393 266.598437)scale(0.1 -0.1)">
       <defs>
        <path id="DejaVuSans-39" d="M 703 97 
L 703 672 
Q 941 559 1184 500 
Q 1428 441 1663 441 
Q 2288 441 2617 861 
Q 2947 1281 2994 2138 
Q 2813 1869 2534 1725 
Q 2256 1581 1919 1581 
Q 1219 1581 811 2004 
Q 403 2428 403 3163 
Q 403 3881 828 4315 
Q 1253 4750 1959 4750 
Q 2769 4750 3195 4129 
Q 3622 3509 3622 2328 
Q 3622 1225 3098 567 
Q 2575 -91 1691 -91 
Q 1453 -91 1209 -44 
Q 966 3 703 97 
z
M 1959 2075 
Q 2384 2075 2632 2365 
Q 2881 2656 2881 3163 
Q 2881 3666 2632 3958 
Q 2384 4250 1959 4250 
Q 1534 4250 1286 3958 
Q 1038 3666 1038 3163 
Q 1038 2656 1286 2365 
Q 1534 2075 1959 2075 
z
" transform="scale(0.015625)"/>
       </defs>
       <use xlink:href="#DejaVuSans-32"/>
       <use xlink:href="#DejaVuSans-39" x="63.623047"/>
       <use xlink:href="#DejaVuSans-30" x="127.246094"/>
      </g>
     </g>
    </g>
    <g id="xtick_4">
     <g id="line2d_4">
      <g>
       <use xlink:href="#mf8add0ac33" x="197.485714" y="252" style="stroke: #000000; stroke-width: 0.8"/>
      </g>
     </g>
     <g id="text_4">
      <!-- 295 -->
      <g transform="translate(187.941964 266.598437)scale(0.1 -0.1)">
       <use xlink:href="#DejaVuSans-32"/>
       <use xlink:href="#DejaVuSans-39" x="63.623047"/>
       <use xlink:href="#DejaVuSans-35" x="127.246094"/>
      </g>
     </g>
    </g>
    <g id="xtick_5">
     <g id="line2d_5">
      <g>
       <use xlink:href="#mf8add0ac33" x="245.314286" y="252" style="stroke: #000000; stroke-width: 0.8"/>
      </g>
     </g>
     <g id="text_5">
      <!-- 300 -->
      <g transform="translate(235.770536 266.598437)scale(0.1 -0.1)">
       <defs>
        <path id="DejaVuSans-33" d="M 2597 2516 
Q 3050 2419 3304 2112 
Q 3559 1806 3559 1356 
Q 3559 666 3084 287 
Q 2609 -91 1734 -91 
Q 1441 -91 1130 -33 
Q 819 25 488 141 
L 488 750 
Q 750 597 1062 519 
Q 1375 441 1716 441 
Q 2309 441 2620 675 
Q 2931 909 2931 1356 
Q 2931 1769 2642 2001 
Q 2353 2234 1838 2234 
L 1294 2234 
L 1294 2753 
L 1863 2753 
Q 2328 2753 2575 2939 
Q 2822 3125 2822 3475 
Q 2822 3834 2567 4026 
Q 2313 4219 1838 4219 
Q 1578 4219 1281 4162 
Q 984 4106 628 3988 
L 628 4550 
Q 988 4650 1302 4700 
Q 1616 4750 1894 4750 
Q 2613 4750 3031 4423 
Q 3450 4097 3450 3541 
Q 3450 3153 3228 2886 
Q 3006 2619 2597 2516 
z
" transform="scale(0.015625)"/>
       </defs>
       <use xlink:href="#DejaVuSans-33"/>
       <use xlink:href="#DejaVuSans-30" x="63.623047"/>
       <use xlink:href="#DejaVuSans-30" x="127.246094"/>
      </g>
     </g>
    </g>
    <g id="xtick_6">
     <g id="line2d_6">
      <g>
       <use xlink:href="#mf8add0ac33" x="293.142857" y="252" style="stroke: #000000; stroke-width: 0.8"/>
      </g>
     </g>
     <g id="text_6">
      <!-- 305 -->
      <g transform="translate(283.599107 266.598437)scale(0.1 -0.1)">
       <use xlink:href="#DejaVuSans-33"/>
       <use xlink:href="#DejaVuSans-30" x="63.623047"/>
       <use xlink:href="#DejaVuSans-35" x="127.246094"/>
      </g>
     </g>
    </g>
    <g id="xtick_7">
     <g id="line2d_7">
      <g>
       <use xlink:href="#mf8add0ac33" x="340.971429" y="252" style="stroke: #000000; stroke-width: 0.8"/>
      </g>
     </g>
     <g id="text_7">
      <!-- 310 -->
      <g transform="translate(331.427679 266.598437)scale(0.1 -0.1)">
       <defs>
        <path id="DejaVuSans-31" d="M 794 531 
L 1825 531 
L 1825 4091 
L 703 3866 
L 703 4441 
L 1819 4666 
L 2450 4666 
L 2450 531 
L 3481 531 
L 3481 0 
L 794 0 
L 794 531 
z
" transform="scale(0.015625)"/>
       </defs>
       <use xlink:href="#DejaVuSans-33"/>
       <use xlink:href="#DejaVuSans-31" x="63.623047"/>
       <use xlink:href="#DejaVuSans-30" x="127.246094"/>
      </g>
     </g>
    </g>
    <g id="xtick_8">
     <g id="line2d_8">
      <g>
       <use xlink:href="#mf8add0ac33" x="388.8" y="252" style="stroke: #000000; stroke-width: 0.8"/>
      </g>
     </g>
     <g id="text_8">
      <!-- 315 -->
      <g transform="translate(379.25625 266.598437)scale(0.1 -0.1)">
       <use xlink:href="#DejaVuSans-33"/>
       <use xlink:href="#DejaVuSans-31" x="63.623047"/>
       <use xlink:href="#DejaVuSans-35" x="127.246094"/>
      </g>
     </g>
    </g>
    <g id="text_9">
     <!-- energy [eV] -->
     <g transform="translate(191.989062 280.276563)scale(0.1 -0.1)">
      <defs>
       <path id="DejaVuSans-65" d="M 3597 1894 
L 3597 1613 
L 953 1613 
Q 991 1019 1311 708 
Q 1631 397 2203 397 
Q 2534 397 2845 478 
Q 3156 559 3463 722 
L 3463 178 
Q 3153 47 2828 -22 
Q 2503 -91 2169 -91 
Q 1331 -91 842 396 
Q 353 884 353 1716 
Q 353 2575 817 3079 
Q 1281 3584 2069 3584 
Q 2775 3584 3186 3129 
Q 3597 2675 3597 1894 
z
M 3022 2063 
Q 3016 2534 2758 2815 
Q 2500 3097 2075 3097 
Q 1594 3097 1305 2825 
Q 1016 2553 972 2059 
L 3022 2063 
z
" transform="scale(0.015625)"/>
       <path id="DejaVuSans-6e" d="M 3513 2113 
L 3513 0 
L 2938 0 
L 2938 2094 
Q 2938 2591 2744 2837 
Q 2550 3084 2163 3084 
Q 1697 3084 1428 2787 
Q 1159 2491 1159 1978 
L 1159 0 
L 581 0 
L 581 3500 
L 1159 3500 
L 1159 2956 
Q 1366 3272 1645 3428 
Q 1925 3584 2291 3584 
Q 2894 3584 3203 3211 
Q 3513 2838 3513 2113 
z
" transform="scale(0.015625)"/>
       <path id="DejaVuSans-72" d="M 2631 2963 
Q 2534 3019 2420 3045 
Q 2306 3072 2169 3072 
Q 1681 3072 1420 2755 
Q 1159 2438 1159 1844 
L 1159 0 
L 581 0 
L 581 3500 
L 1159 3500 
L 1159 2956 
Q 1341 3275 1631 3429 
Q 1922 3584 2338 3584 
Q 2397 3584 2469 3576 
Q 2541 3569 2628 3553 
L 2631 2963 
z
" transform="scale(0.015625)"/>
       <path id="DejaVuSans-67" d="M 2906 1791 
Q 2906 2416 2648 2759 
Q 2391 3103 1925 3103 
Q 1463 3103 1205 2759 
Q 947 2416 947 1791 
Q 947 1169 1205 825 
Q 1463 481 1925 481 
Q 2391 481 2648 825 
Q 2906 1169 2906 1791 
z
M 3481 434 
Q 3481 -459 3084 -895 
Q 2688 -1331 1869 -1331 
Q 1566 -1331 1297 -1286 
Q 1028 -1241 775 -1147 
L 775 -588 
Q 1028 -725 1275 -790 
Q 1522 -856 1778 -856 
Q 2344 -856 2625 -561 
Q 2906 -266 2906 331 
L 2906 616 
Q 2728 306 2450 153 
Q 2172 0 1784 0 
Q 1141 0 747 490 
Q 353 981 353 1791 
Q 353 2603 747 3093 
Q 1141 3584 1784 3584 
Q 2172 3584 2450 3431 
Q 2728 3278 2906 2969 
L 2906 3500 
L 3481 3500 
L 3481 434 
z
" transform="scale(0.015625)"/>
       <path id="DejaVuSans-79" d="M 2059 -325 
Q 1816 -950 1584 -1140 
Q 1353 -1331 966 -1331 
L 506 -1331 
L 506 -850 
L 844 -850 
Q 1081 -850 1212 -737 
Q 1344 -625 1503 -206 
L 1606 56 
L 191 3500 
L 800 3500 
L 1894 763 
L 2988 3500 
L 3597 3500 
L 2059 -325 
z
" transform="scale(0.015625)"/>
       <path id="DejaVuSans-20" transform="scale(0.015625)"/>
       <path id="DejaVuSans-5b" d="M 550 4863 
L 1875 4863 
L 1875 4416 
L 1125 4416 
L 1125 -397 
L 1875 -397 
L 1875 -844 
L 550 -844 
L 550 4863 
z
" transform="scale(0.015625)"/>
       <path id="DejaVuSans-56" d="M 1831 0 
L 50 4666 
L 709 4666 
L 2188 738 
L 3669 4666 
L 4325 4666 
L 2547 0 
L 1831 0 
z
" transform="scale(0.015625)"/>
       <path id="DejaVuSans-5d" d="M 1947 4863 
L 1947 -844 
L 622 -844 
L 622 -397 
L 1369 -397 
L 1369 4416 
L 622 4416 
L 622 4863 
L 1947 4863 
z
" transform="scale(0.015625)"/>
      </defs>
      <use xlink:href="#DejaVuSans-65"/>
      <use xlink:href="#DejaVuSans-6e" x="61.523438"/>
      <use xlink:href="#DejaVuSans-65" x="124.902344"/>
      <use xlink:href="#DejaVuSans-72" x="186.425781"/>
      <use xlink:href="#DejaVuSans-67" x="225.789062"/>
      <use xlink:href="#DejaVuSans-79" x="289.265625"/>
      <use xlink:href="#DejaVuSans-20" x="348.445312"/>
      <use xlink:href="#DejaVuSans-5b" x="380.232422"/>
      <use xlink:href="#DejaVuSans-65" x="419.246094"/>
      <use xlink:href="#DejaVuSans-56" x="480.769531"/>
      <use xlink:href="#DejaVuSans-5d" x="549.177734"/>
     </g>
    </g>
   </g>
   <g id="matplotlib.axis_2">
    <g id="ytick_1">
     <g id="line2d_9">
      <defs>
       <path id="md1df190122" d="M 0 0 
L -3.5 0 
" style="stroke: #000000; stroke-width: 0.8"/>
      </defs>
      <g>
       <use xlink:href="#md1df190122" x="54" y="236.677134" style="stroke: #000000; stroke-width: 0.8"/>
      </g>
     </g>
     <g id="text_10">
      <!-- 0.0 -->
      <g transform="translate(31.096875 240.476353)scale(0.1 -0.1)">
       <defs>
        <path id="DejaVuSans-2e" d="M 684 794 
L 1344 794 
L 1344 0 
L 684 0 
L 684 794 
z
" transform="scale(0.015625)"/>
       </defs>
       <use xlink:href="#DejaVuSans-30"/>
       <use xlink:href="#DejaVuSans-2e" x="63.623047"/>
       <use xlink:href="#DejaVuSans-30" x="95.410156"/>
      </g>
     </g>
    </g>
    <g id="ytick_2">
     <g id="line2d_10">
      <g>
       <use xlink:href="#md1df190122" x="54" y="209.758263" style="stroke: #000000; stroke-width: 0.8"/>
      </g>
     </g>
     <g id="text_11">
      <!-- 0.5 -->
      <g transform="translate(31.096875 213.557482)scale(0.1 -0.1)">
       <use xlink:href="#DejaVuSans-30"/>
       <use xlink:href="#DejaVuSans-2e" x="63.623047"/>
       <use xlink:href="#DejaVuSans-35" x="95.410156"/>
      </g>
     </g>
    </g>
    <g id="ytick_3">
     <g id="line2d_11">
      <g>
       <use xlink:href="#md1df190122" x="54" y="182.839392" style="stroke: #000000; stroke-width: 0.8"/>
      </g>
     </g>
     <g id="text_12">
      <!-- 1.0 -->
      <g transform="translate(31.096875 186.638611)scale(0.1 -0.1)">
       <use xlink:href="#DejaVuSans-31"/>
       <use xlink:href="#DejaVuSans-2e" x="63.623047"/>
       <use xlink:href="#DejaVuSans-30" x="95.410156"/>
      </g>
     </g>
    </g>
    <g id="ytick_4">
     <g id="line2d_12">
      <g>
       <use xlink:href="#md1df190122" x="54" y="155.920521" style="stroke: #000000; stroke-width: 0.8"/>
      </g>
     </g>
     <g id="text_13">
      <!-- 1.5 -->
      <g transform="translate(31.096875 159.71974)scale(0.1 -0.1)">
       <use xlink:href="#DejaVuSans-31"/>
       <use xlink:href="#DejaVuSans-2e" x="63.623047"/>
       <use xlink:href="#DejaVuSans-35" x="95.410156"/>
      </g>
     </g>
    </g>
    <g id="ytick_5">
     <g id="line2d_13">
      <g>
       <use xlink:href="#md1df190122" x="54" y="129.00165" style="stroke: #000000; stroke-width: 0.8"/>
      </g>
     </g>
     <g id="text_14">
      <!-- 2.0 -->
      <g transform="translate(31.096875 132.800869)scale(0.1 -0.1)">
       <use xlink:href="#DejaVuSans-32"/>
       <use xlink:href="#DejaVuSans-2e" x="63.623047"/>
       <use xlink:href="#DejaVuSans-30" x="95.410156"/>
      </g>
     </g>
    </g>
    <g id="ytick_6">
     <g id="line2d_14">
      <g>
       <use xlink:href="#md1df190122" x="54" y="102.082779" style="stroke: #000000; stroke-width: 0.8"/>
      </g>
     </g>
     <g id="text_15">
      <!-- 2.5 -->
      <g transform="translate(31.096875 105.881998)scale(0.1 -0.1)">
       <use xlink:href="#DejaVuSans-32"/>
       <use xlink:href="#DejaVuSans-2e" x="63.623047"/>
       <use xlink:href="#DejaVuSans-35" x="95.410156"/>
      </g>
     </g>
    </g>
    <g id="ytick_7">
     <g id="line2d_15">
      <g>
       <use xlink:href="#md1df190122" x="54" y="75.163908" style="stroke: #000000; stroke-width: 0.8"/>
      </g>
     </g>
     <g id="text_16">
      <!-- 3.0 -->
      <g transform="translate(31.096875 78.963127)scale(0.1 -0.1)">
       <use xlink:href="#DejaVuSans-33"/>
       <use xlink:href="#DejaVuSans-2e" x="63.623047"/>
       <use xlink:href="#DejaVuSans-30" x="95.410156"/>
      </g>
     </g>
    </g>
    <g id="ytick_8">
     <g id="line2d_16">
      <g>
       <use xlink:href="#md1df190122" x="54" y="48.245037" style="stroke: #000000; stroke-width: 0.8"/>
      </g>
     </g>
     <g id="text_17">
      <!-- 3.5 -->
      <g transform="translate(31.096875 52.044256)scale(0.1 -0.1)">
       <use xlink:href="#DejaVuSans-33"/>
       <use xlink:href="#DejaVuSans-2e" x="63.623047"/>
       <use xlink:href="#DejaVuSans-35" x="95.410156"/>
      </g>
     </g>
    </g>
    <g id="text_18">
     <!-- electron_yield [a.u.] -->
     <g transform="translate(24.739062 193.0925)rotate(-90)scale(0.1 -0.1)">
      <defs>
       <path id="DejaVuSans-6c" d="M 603 4863 
L 1178 4863 
L 1178 0 
L 603 0 
L 603 4863 
z
" transform="scale(0.015625)"/>
       <path id="DejaVuSans-63" d="M 3122 3366 
L 3122 2828 
Q 2878 2963 2633 3030 
Q 2388 3097 2138 3097 
Q 1578 3097 1268 2742 
Q 959 2388 959 1747 
Q 959 1106 1268 751 
Q 1578 397 2138 397 
Q 2388 397 2633 464 
Q 2878 531 3122 666 
L 3122 134 
Q 2881 22 2623 -34 
Q 2366 -91 2075 -91 
Q 1284 -91 818 406 
Q 353 903 353 1747 
Q 353 2603 823 3093 
Q 1294 3584 2113 3584 
Q 2378 3584 2631 3529 
Q 2884 3475 3122 3366 
z
" transform="scale(0.015625)"/>
       <path id="DejaVuSans-74" d="M 1172 4494 
L 1172 3500 
L 2356 3500 
L 2356 3053 
L 1172 3053 
L 1172 1153 
Q 1172 725 1289 603 
Q 1406 481 1766 481 
L 2356 481 
L 2356 0 
L 1766 0 
Q 1100 0 847 248 
Q 594 497 594 1153 
L 594 3053 
L 172 3053 
L 172 3500 
L 594 3500 
L 594 4494 
L 1172 4494 
z
" transform="scale(0.015625)"/>
       <path id="DejaVuSans-6f" d="M 1959 3097 
Q 1497 3097 1228 2736 
Q 959 2375 959 1747 
Q 959 1119 1226 758 
Q 1494 397 1959 397 
Q 2419 397 2687 759 
Q 2956 1122 2956 1747 
Q 2956 2369 2687 2733 
Q 2419 3097 1959 3097 
z
M 1959 3584 
Q 2709 3584 3137 3096 
Q 3566 2609 3566 1747 
Q 3566 888 3137 398 
Q 2709 -91 1959 -91 
Q 1206 -91 779 398 
Q 353 888 353 1747 
Q 353 2609 779 3096 
Q 1206 3584 1959 3584 
z
" transform="scale(0.015625)"/>
       <path id="DejaVuSans-5f" d="M 3263 -1063 
L 3263 -1509 
L -63 -1509 
L -63 -1063 
L 3263 -1063 
z
" transform="scale(0.015625)"/>
       <path id="DejaVuSans-69" d="M 603 3500 
L 1178 3500 
L 1178 0 
L 603 0 
L 603 3500 
z
M 603 4863 
L 1178 4863 
L 1178 4134 
L 603 4134 
L 603 4863 
z
" transform="scale(0.015625)"/>
       <path id="DejaVuSans-64" d="M 2906 2969 
L 2906 4863 
L 3481 4863 
L 3481 0 
L 2906 0 
L 2906 525 
Q 2725 213 2448 61 
Q 2172 -91 1784 -91 
Q 1150 -91 751 415 
Q 353 922 353 1747 
Q 353 2572 751 3078 
Q 1150 3584 1784 3584 
Q 2172 3584 2448 3432 
Q 2725 3281 2906 2969 
z
M 947 1747 
Q 947 1113 1208 752 
Q 1469 391 1925 391 
Q 2381 391 2643 752 
Q 2906 1113 2906 1747 
Q 2906 2381 2643 2742 
Q 2381 3103 1925 3103 
Q 1469 3103 1208 2742 
Q 947 2381 947 1747 
z
" transform="scale(0.015625)"/>
       <path id="DejaVuSans-61" d="M 2194 1759 
Q 1497 1759 1228 1600 
Q 959 1441 959 1056 
Q 959 750 1161 570 
Q 1363 391 1709 391 
Q 2188 391 2477 730 
Q 2766 1069 2766 1631 
L 2766 1759 
L 2194 1759 
z
M 3341 1997 
L 3341 0 
L 2766 0 
L 2766 531 
Q 2569 213 2275 61 
Q 1981 -91 1556 -91 
Q 1019 -91 701 211 
Q 384 513 384 1019 
Q 384 1609 779 1909 
Q 1175 2209 1959 2209 
L 2766 2209 
L 2766 2266 
Q 2766 2663 2505 2880 
Q 2244 3097 1772 3097 
Q 1472 3097 1187 3025 
Q 903 2953 641 2809 
L 641 3341 
Q 956 3463 1253 3523 
Q 1550 3584 1831 3584 
Q 2591 3584 2966 3190 
Q 3341 2797 3341 1997 
z
" transform="scale(0.015625)"/>
       <path id="DejaVuSans-75" d="M 544 1381 
L 544 3500 
L 1119 3500 
L 1119 1403 
Q 1119 906 1312 657 
Q 1506 409 1894 409 
Q 2359 409 2629 706 
Q 2900 1003 2900 1516 
L 2900 3500 
L 3475 3500 
L 3475 0 
L 2900 0 
L 2900 538 
Q 2691 219 2414 64 
Q 2138 -91 1772 -91 
Q 1169 -91 856 284 
Q 544 659 544 1381 
z
M 1991 3584 
L 1991 3584 
z
" transform="scale(0.015625)"/>
      </defs>
      <use xlink:href="#DejaVuSans-65"/>
      <use xlink:href="#DejaVuSans-6c" x="61.523438"/>
      <use xlink:href="#DejaVuSans-65" x="89.306641"/>
      <use xlink:href="#DejaVuSans-63" x="150.830078"/>
      <use xlink:href="#DejaVuSans-74" x="205.810547"/>
      <use xlink:href="#DejaVuSans-72" x="245.019531"/>
      <use xlink:href="#DejaVuSans-6f" x="283.882812"/>
      <use xlink:href="#DejaVuSans-6e" x="345.064453"/>
      <use xlink:href="#DejaVuSans-5f" x="408.443359"/>
      <use xlink:href="#DejaVuSans-79" x="458.443359"/>
      <use xlink:href="#DejaVuSans-69" x="517.623047"/>
      <use xlink:href="#DejaVuSans-65" x="545.40625"/>
      <use xlink:href="#DejaVuSans-6c" x="606.929688"/>
      <use xlink:href="#DejaVuSans-64" x="634.712891"/>
      <use xlink:href="#DejaVuSans-20" x="698.189453"/>
      <use xlink:href="#DejaVuSans-5b" x="729.976562"/>
      <use xlink:href="#DejaVuSans-61" x="768.990234"/>
      <use xlink:href="#DejaVuSans-2e" x="830.269531"/>
      <use xlink:href="#DejaVuSans-75" x="862.056641"/>
      <use xlink:href="#DejaVuSans-2e" x="925.435547"/>
      <use xlink:href="#DejaVuSans-5d" x="957.222656"/>
     </g>
    </g>
   </g>
   <g id="line2d_17">
    <path d="M 63.565714 236.706419 
L 64.980193 235.887724 
L 66.394672 240.106153 
L 67.809151 242.116364 
L 70.63811 242.097562 
L 72.052589 240.981737 
L 73.467068 237.459718 
L 74.881547 236.26736 
L 76.296026 235.989187 
L 77.710505 236.470057 
L 79.124984 235.883843 
L 80.539463 235.981996 
L 81.953942 235.652431 
L 83.368421 235.682139 
L 84.7829 237.078899 
L 86.197379 235.757768 
L 87.611858 237.071221 
L 89.026337 231.645252 
L 90.440816 233.03818 
L 91.855295 226.235366 
L 93.269774 205.808103 
L 94.684253 181.893031 
L 96.098733 175.89105 
L 97.513212 168.761729 
L 100.34217 143.000734 
L 101.756649 153.358474 
L 103.171128 172.027638 
L 104.585607 184.821856 
L 106.000086 182.826993 
L 107.414565 169.823523 
L 108.829044 153.852402 
L 110.243523 143.55669 
L 111.658002 136.938995 
L 113.072481 140.296445 
L 114.48696 140.654884 
L 115.901439 145.057498 
L 117.315918 152.066502 
L 118.730397 155.386632 
L 120.144876 142.444957 
L 122.973835 96.611636 
L 124.388314 78.173956 
L 125.802793 71.081274 
L 127.217272 58.460097 
L 128.631751 50.194772 
L 130.04623 47.764975 
L 131.460709 52.09832 
L 132.875188 59.94058 
L 134.289667 62.235687 
L 135.704146 65.518148 
L 137.118625 69.625502 
L 138.533104 75.71482 
L 139.947583 82.417018 
L 141.362062 86.502608 
L 142.776541 86.830274 
L 144.19102 85.985203 
L 145.605499 81.603336 
L 147.019979 82.016385 
L 148.434458 81.859769 
L 149.848937 81.075946 
L 151.263416 78.266032 
L 152.677895 74.965037 
L 154.092374 74.14758 
L 155.506853 71.27524 
L 156.921332 67.367926 
L 158.335811 67.093829 
L 159.75029 61.887764 
L 161.164769 57.603309 
L 162.579248 55.742256 
L 163.993727 56.391572 
L 165.408206 52.92791 
L 166.822685 50.720147 
L 168.237164 50.017093 
L 169.651643 48.040576 
L 171.066122 48.801526 
L 172.480602 46.914282 
L 173.895081 47.627015 
L 175.30956 44.443636 
L 176.724039 46.806368 
L 178.138518 46.660041 
L 179.552997 49.738405 
L 180.967476 48.873975 
L 182.381955 49.944216 
L 183.796434 50.384791 
L 185.210913 50.694487 
L 186.625392 52.620988 
L 188.039871 53.477061 
L 189.45435 55.676195 
L 190.868829 56.977611 
L 192.283308 56.211357 
L 193.697787 59.694258 
L 195.112266 60.660236 
L 196.526745 63.320267 
L 197.941224 63.182121 
L 200.770183 65.866829 
L 202.184662 65.694054 
L 203.599141 69.597417 
L 205.01362 69.760035 
L 206.428099 70.216051 
L 207.842578 72.917769 
L 209.257057 76.214552 
L 210.671536 76.812658 
L 212.086015 79.246075 
L 213.500494 77.763993 
L 214.914973 77.641329 
L 217.743931 81.195375 
L 219.15841 82.386885 
L 221.987368 83.918305 
L 224.816327 84.666539 
L 229.059764 85.981865 
L 230.474243 86.705953 
L 231.888722 88.257152 
L 233.303201 88.967027 
L 237.546638 91.626004 
L 238.961117 92.788157 
L 240.375596 93.277924 
L 241.790075 92.19854 
L 243.204554 92.165648 
L 247.447991 93.414473 
L 248.86247 95.378671 
L 250.27695 98.631095 
L 251.691429 99.46911 
L 257.349345 98.161865 
L 258.763824 100.245695 
L 260.178303 103.997646 
L 261.592782 106.274912 
L 267.250698 107.703104 
L 268.665177 109.301935 
L 270.079656 110.508221 
L 275.737573 112.643287 
L 278.566531 114.75041 
L 279.98101 115.377518 
L 281.395489 115.370083 
L 285.638926 116.840456 
L 287.053405 117.727123 
L 288.467884 120.658411 
L 289.882363 121.579474 
L 295.540279 122.219618 
L 296.954758 123.877069 
L 298.369237 127.93383 
L 299.783716 129.206386 
L 304.027154 128.841409 
L 305.441633 129.579318 
L 306.856112 132.696819 
L 308.270591 133.327757 
L 313.928507 134.890799 
L 315.342986 135.710932 
L 316.757465 136.231401 
L 318.171944 136.399896 
L 323.82986 138.473203 
L 325.244339 139.275787 
L 326.658818 141.759756 
L 329.487777 142.34381 
L 332.316735 143.031343 
L 333.731214 143.648935 
L 336.560172 147.636939 
L 337.974651 147.862066 
L 343.632567 148.28398 
L 346.461525 150.438036 
L 352.119441 151.043727 
L 354.9484 153.171585 
L 356.362879 153.502193 
L 362.020795 152.738929 
L 363.435274 153.068841 
L 364.849753 152.499821 
L 370.507669 155.33675 
L 371.922148 156.259381 
L 373.336627 157.42834 
L 374.751106 158.327939 
L 380.409023 158.019203 
L 383.237981 159.633963 
L 384.65246 159.654063 
L 390.310376 159.000747 
L 391.724855 160.318575 
L 393.139334 160.330466 
L 394.553813 160.164439 
L 398.79725 160.963784 
L 400.211729 161.445134 
L 401.626208 161.585965 
L 403.040687 162.165768 
L 408.698604 162.184729 
L 410.113083 163.023853 
L 411.527562 164.35616 
L 412.942041 165.164849 
L 418.599957 164.810265 
L 421.428915 165.817021 
L 428.50131 169.024613 
L 429.915789 168.387417 
L 431.330269 167.490184 
L 433 167.023685 
L 433 167.023685 
" clip-path="url(#p01ddd13287)" style="fill: none; stroke: #440154; stroke-width: 1.5; stroke-linecap: square"/>
   </g>
   <g id="line2d_18">
    <path d="M 63.565714 233.213139 
L 64.980193 233.628762 
L 67.809151 236.644853 
L 69.223631 237.013214 
L 72.052589 237.371778 
L 73.467068 241.150168 
L 74.881547 239.15336 
L 76.296026 238.323365 
L 77.710505 240.234195 
L 79.124984 238.512063 
L 80.539463 238.061799 
L 81.953942 238.492442 
L 83.368421 236.047818 
L 84.7829 239.389235 
L 86.197379 238.334925 
L 87.611858 236.755726 
L 89.026337 234.403569 
L 90.440816 231.643205 
L 91.855295 229.471414 
L 94.684253 190.708541 
L 96.098733 187.022989 
L 97.513212 180.10956 
L 100.34217 156.094242 
L 101.756649 165.496412 
L 103.171128 179.104365 
L 104.585607 187.003753 
L 106.000086 185.62059 
L 107.414565 177.668583 
L 108.829044 166.558064 
L 110.243523 152.815765 
L 111.658002 151.950246 
L 113.072481 149.074197 
L 114.48696 154.691347 
L 115.901439 151.849646 
L 117.315918 158.880696 
L 118.730397 157.875404 
L 120.144876 149.974779 
L 121.559356 126.392954 
L 124.388314 91.939789 
L 125.802793 81.89868 
L 127.217272 73.643314 
L 128.631751 64.420786 
L 130.04623 66.460784 
L 131.460709 69.279862 
L 132.875188 71.396153 
L 134.289667 75.733491 
L 135.704146 77.638645 
L 137.118625 81.957523 
L 138.533104 87.846393 
L 141.362062 95.826957 
L 142.776541 95.442509 
L 144.19102 96.735833 
L 145.605499 93.141422 
L 147.019979 91.848578 
L 149.848937 88.454557 
L 151.263416 88.762766 
L 152.677895 83.414345 
L 154.092374 82.366689 
L 155.506853 77.692674 
L 156.921332 79.397979 
L 158.335811 74.483658 
L 159.75029 72.424064 
L 161.164769 66.136605 
L 162.579248 65.37659 
L 163.993727 65.966056 
L 165.408206 62.529621 
L 166.822685 59.819241 
L 168.237164 56.441374 
L 169.651643 57.805189 
L 171.066122 53.888002 
L 172.480602 56.672986 
L 173.895081 53.826752 
L 175.30956 53.329442 
L 176.724039 51.450568 
L 178.138518 52.857596 
L 179.552997 55.40811 
L 180.967476 53.772835 
L 182.381955 54.48509 
L 183.796434 53.927299 
L 185.210913 58.161282 
L 186.625392 57.242057 
L 189.45435 61.901072 
L 190.868829 61.723613 
L 192.283308 63.247775 
L 193.697787 63.580774 
L 195.112266 65.23303 
L 196.526745 65.080623 
L 197.941224 67.955976 
L 199.355704 68.217214 
L 200.770183 68.236261 
L 202.184662 72.920286 
L 203.599141 72.918824 
L 205.01362 75.673915 
L 206.428099 75.038745 
L 207.842578 77.138979 
L 209.257057 76.948944 
L 210.671536 77.739913 
L 212.086015 80.040012 
L 213.500494 80.092026 
L 214.914973 81.185953 
L 216.329452 82.067103 
L 217.743931 84.515134 
L 219.15841 85.514104 
L 220.572889 85.841655 
L 221.987368 85.251842 
L 223.401847 84.808498 
L 224.816327 85.011716 
L 226.230806 85.443564 
L 230.474243 86.056464 
L 231.888722 86.642683 
L 234.71768 90.079265 
L 241.790075 92.634919 
L 243.204554 95.832555 
L 244.619033 98.609946 
L 246.033512 99.41885 
L 250.27695 101.428617 
L 251.691429 101.110776 
L 253.105908 100.661908 
L 254.520387 101.024856 
L 258.763824 102.862615 
L 260.178303 103.302852 
L 261.592782 104.055147 
L 263.007261 105.236862 
L 264.42174 106.154488 
L 268.665177 106.307344 
L 270.079656 107.152875 
L 271.494135 109.684218 
L 272.908614 112.505152 
L 278.566531 111.968353 
L 279.98101 113.761556 
L 281.395489 116.93881 
L 282.809968 119.050991 
L 288.467884 119.998138 
L 289.882363 120.413748 
L 291.296842 121.058214 
L 298.369237 125.269051 
L 299.783716 127.758866 
L 301.198195 128.410162 
L 306.856112 126.937109 
L 308.270591 128.691926 
L 309.68507 133.488977 
L 311.099549 136.952538 
L 316.757465 136.768012 
L 318.171944 136.943581 
L 319.586423 139.75786 
L 321.000902 141.654099 
L 325.244339 142.121029 
L 326.658818 142.034955 
L 328.073298 141.337091 
L 329.487777 143.028696 
L 335.145693 145.115805 
L 336.560172 145.866334 
L 337.974651 146.836905 
L 339.38913 149.433775 
L 342.218088 149.911063 
L 345.047046 150.269893 
L 346.461525 148.869929 
L 347.876004 148.091094 
L 349.290483 148.429327 
L 354.9484 151.736666 
L 356.362879 153.354066 
L 357.777358 154.143744 
L 363.435274 153.159929 
L 364.849753 153.51826 
L 366.264232 156.288794 
L 367.678711 157.973818 
L 369.09319 157.737234 
L 373.336627 155.930726 
L 374.751106 156.054045 
L 377.580064 159.222698 
L 383.237981 157.911112 
L 386.066939 159.328369 
L 393.139334 160.014017 
L 394.553813 160.912211 
L 395.968292 162.370184 
L 397.382771 162.488222 
L 401.626208 161.408874 
L 403.040687 161.936121 
L 404.455166 163.232798 
L 405.869646 164.163632 
L 411.527562 165.355294 
L 412.942041 166.167116 
L 414.35652 167.657917 
L 415.770999 167.817552 
L 421.428915 165.332646 
L 422.843394 166.234465 
L 424.257873 167.399919 
L 425.672352 167.797044 
L 429.915789 167.445069 
L 432.744748 167.57329 
L 433 167.810132 
L 433 167.810132 
" clip-path="url(#p01ddd13287)" style="fill: none; stroke: #414487; stroke-width: 1.5; stroke-linecap: square"/>
   </g>
   <g id="line2d_19">
    <path d="M 63.565714 236.154162 
L 64.980193 236.567922 
L 67.809151 236.672602 
L 69.223631 236.933443 
L 70.63811 236.946264 
L 72.052589 238.181244 
L 73.467068 236.256539 
L 74.881547 239.574192 
L 76.296026 235.945112 
L 77.710505 236.670916 
L 79.124984 236.258023 
L 81.953942 239.601972 
L 83.368421 237.051473 
L 84.7829 237.686007 
L 86.197379 237.296487 
L 87.611858 234.803655 
L 90.440816 234.769133 
L 91.855295 233.489288 
L 93.269774 222.651947 
L 94.684253 206.626491 
L 96.098733 205.249454 
L 97.513212 199.587571 
L 98.927691 189.320556 
L 100.34217 183.435883 
L 101.756649 184.415719 
L 104.585607 198.742928 
L 106.000086 200.383806 
L 107.414565 196.07243 
L 108.829044 187.19486 
L 110.243523 181.338462 
L 111.658002 176.44198 
L 113.072481 177.711127 
L 114.48696 175.553251 
L 115.901439 166.82021 
L 117.315918 166.749034 
L 118.730397 165.61158 
L 120.144876 158.66216 
L 122.973835 119.113893 
L 124.388314 103.389867 
L 125.802793 99.316608 
L 128.631751 83.395946 
L 130.04623 82.634796 
L 131.460709 83.551154 
L 132.875188 88.706892 
L 134.289667 89.228268 
L 135.704146 93.368437 
L 137.118625 92.555237 
L 138.533104 97.491998 
L 139.947583 101.444172 
L 141.362062 102.036679 
L 142.776541 102.504941 
L 144.19102 101.910325 
L 147.019979 95.237303 
L 148.434458 93.821807 
L 149.848937 91.849027 
L 151.263416 91.049383 
L 152.677895 89.33945 
L 154.092374 84.846272 
L 155.506853 82.39754 
L 156.921332 79.060501 
L 158.335811 79.010623 
L 161.164769 72.505541 
L 162.579248 69.913302 
L 163.993727 66.379363 
L 165.408206 65.226107 
L 166.822685 62.474931 
L 168.237164 61.018019 
L 169.651643 58.104766 
L 171.066122 56.788868 
L 172.480602 56.99733 
L 173.895081 57.028717 
L 175.30956 54.447613 
L 176.724039 53.98709 
L 178.138518 51.63269 
L 179.552997 53.443587 
L 180.967476 52.953741 
L 182.381955 52.926815 
L 183.796434 54.10239 
L 185.210913 53.708211 
L 186.625392 55.927321 
L 188.039871 55.325759 
L 189.45435 57.886154 
L 190.868829 58.628198 
L 192.283308 58.413727 
L 193.697787 58.872569 
L 195.112266 63.320366 
L 196.526745 63.016944 
L 197.941224 62.220522 
L 199.355704 64.952048 
L 200.770183 65.050539 
L 202.184662 66.583951 
L 203.599141 67.276792 
L 205.01362 69.05262 
L 206.428099 70.612769 
L 207.842578 71.393255 
L 209.257057 73.011397 
L 210.671536 71.697619 
L 212.086015 74.412018 
L 213.500494 74.506463 
L 214.914973 76.213426 
L 216.329452 74.169034 
L 217.743931 76.83222 
L 219.15841 76.901567 
L 220.572889 77.096124 
L 221.987368 77.645708 
L 223.401847 77.960359 
L 224.816327 79.02404 
L 229.059764 80.89112 
L 230.474243 81.35232 
L 231.888722 81.222693 
L 233.303201 82.40897 
L 234.71768 83.139336 
L 240.375596 81.90471 
L 241.790075 80.713572 
L 244.619033 85.611229 
L 247.447991 87.573417 
L 251.691429 90.266611 
L 253.105908 92.673795 
L 258.763824 93.918186 
L 260.178303 94.602239 
L 261.592782 97.97977 
L 263.007261 100.094378 
L 267.250698 100.798213 
L 268.665177 100.845414 
L 270.079656 100.743118 
L 271.494135 102.67126 
L 272.908614 104.915238 
L 274.323093 105.643519 
L 278.566531 107.074707 
L 279.98101 106.603839 
L 281.395489 108.085335 
L 282.809968 109.988887 
L 287.053405 111.997363 
L 289.882363 114.304693 
L 291.296842 116.226247 
L 295.540279 116.765729 
L 296.954758 117.532837 
L 298.369237 119.429113 
L 299.783716 122.646646 
L 301.198195 124.594202 
L 302.612675 125.364924 
L 306.856112 126.581565 
L 308.270591 126.291228 
L 309.68507 127.118061 
L 311.099549 128.50064 
L 315.342986 132.080288 
L 316.757465 132.46373 
L 318.171944 133.207006 
L 319.586423 134.722652 
L 321.000902 135.952035 
L 325.244339 137.347008 
L 328.073298 138.860913 
L 329.487777 140.693973 
L 330.902256 141.371495 
L 335.145693 141.768441 
L 336.560172 143.740461 
L 339.38913 146.781914 
L 343.632567 147.693797 
L 346.461525 147.661659 
L 347.876004 150.446397 
L 353.533921 150.811359 
L 354.9484 150.734724 
L 356.362879 150.868286 
L 357.777358 151.789125 
L 359.191837 152.154962 
L 362.020795 151.907879 
L 363.435274 152.487144 
L 366.264232 155.287139 
L 367.678711 155.454749 
L 370.507669 154.302126 
L 371.922148 153.681627 
L 373.336627 154.577386 
L 374.751106 156.481166 
L 376.165585 158.162658 
L 377.580064 157.864268 
L 381.823502 156.60443 
L 383.237981 156.927302 
L 384.65246 157.920051 
L 386.066939 159.239844 
L 387.481418 159.971269 
L 391.724855 160.133193 
L 393.139334 160.507109 
L 394.553813 160.355147 
L 395.968292 161.090055 
L 397.382771 160.898706 
L 400.211729 159.933784 
L 401.626208 160.287935 
L 403.040687 161.709863 
L 404.455166 163.495198 
L 405.869646 163.135356 
L 411.527562 160.900925 
L 412.942041 163.695972 
L 414.35652 165.142513 
L 415.770999 165.560062 
L 422.843394 164.461101 
L 424.257873 165.919595 
L 425.672352 166.553252 
L 428.50131 166.943204 
L 429.915789 166.605232 
L 431.330269 165.903924 
L 432.744748 166.302514 
L 433 166.5038 
L 433 166.5038 
" clip-path="url(#p01ddd13287)" style="fill: none; stroke: #2a788e; stroke-width: 1.5; stroke-linecap: square"/>
   </g>
   <g id="line2d_20">
    <path d="M 63.565714 237.166372 
L 64.980193 236.383135 
L 66.394672 236.524425 
L 67.809151 238.419686 
L 70.63811 237.326514 
L 72.052589 237.448414 
L 73.467068 236.925309 
L 74.881547 235.121223 
L 76.296026 238.899783 
L 77.710505 236.907226 
L 79.124984 238.202156 
L 80.539463 236.998525 
L 81.953942 235.034605 
L 83.368421 235.224117 
L 86.197379 239.010736 
L 87.611858 235.935443 
L 89.026337 236.614611 
L 90.440816 233.476738 
L 91.855295 233.668294 
L 93.269774 229.702555 
L 94.684253 221.955649 
L 96.098733 221.292703 
L 97.513212 214.84858 
L 98.927691 209.27314 
L 100.34217 199.580427 
L 101.756649 200.949572 
L 103.171128 200.523457 
L 106.000086 209.767137 
L 107.414565 208.578002 
L 108.829044 209.572554 
L 110.243523 204.226085 
L 111.658002 201.516848 
L 113.072481 201.445403 
L 114.48696 192.340828 
L 115.901439 180.140941 
L 118.730397 173.65414 
L 120.144876 163.972785 
L 121.559356 145.108322 
L 122.973835 128.958126 
L 124.388314 116.716882 
L 127.217272 102.219389 
L 128.631751 96.760933 
L 130.04623 95.146184 
L 131.460709 97.283513 
L 132.875188 100.2499 
L 134.289667 100.919454 
L 135.704146 99.487255 
L 137.118625 100.547869 
L 138.533104 103.638994 
L 139.947583 105.585439 
L 141.362062 106.419707 
L 142.776541 103.956434 
L 144.19102 103.507472 
L 145.605499 96.635595 
L 147.019979 97.21135 
L 148.434458 95.616292 
L 152.677895 87.872941 
L 154.092374 87.078841 
L 155.506853 82.271964 
L 156.921332 83.048016 
L 158.335811 78.776602 
L 159.75029 74.957857 
L 161.164769 73.297717 
L 162.579248 67.739237 
L 163.993727 67.058621 
L 165.408206 63.076848 
L 166.822685 60.23645 
L 168.237164 59.318545 
L 169.651643 56.535 
L 171.066122 56.217834 
L 172.480602 53.1929 
L 173.895081 53.347621 
L 175.30956 51.481068 
L 176.724039 51.091684 
L 178.138518 49.71172 
L 179.552997 47.367009 
L 180.967476 48.714696 
L 182.381955 48.059392 
L 183.796434 48.369503 
L 185.210913 49.335552 
L 186.625392 48.20783 
L 188.039871 50.318591 
L 189.45435 50.958683 
L 190.868829 52.187627 
L 193.697787 55.86913 
L 195.112266 55.655915 
L 196.526745 55.078331 
L 197.941224 57.767374 
L 200.770183 59.544782 
L 202.184662 60.952257 
L 203.599141 61.376029 
L 205.01362 60.193899 
L 207.842578 65.871856 
L 209.257057 64.883711 
L 210.671536 65.831798 
L 212.086015 64.698765 
L 213.500494 65.922846 
L 214.914973 68.327681 
L 216.329452 67.16969 
L 217.743931 69.07321 
L 219.15841 68.912404 
L 221.987368 68.283901 
L 223.401847 68.183087 
L 229.059764 70.639929 
L 233.303201 74.018318 
L 237.546638 74.425042 
L 238.961117 74.767607 
L 240.375596 77.599493 
L 241.790075 78.88611 
L 244.619033 79.94138 
L 247.447991 80.88726 
L 248.86247 81.687765 
L 251.691429 84.20259 
L 254.520387 85.214488 
L 258.763824 86.560976 
L 260.178303 89.164309 
L 261.592782 90.501426 
L 263.007261 91.26562 
L 267.250698 90.806441 
L 268.665177 91.958284 
L 270.079656 94.18246 
L 271.494135 95.559285 
L 272.908614 96.333472 
L 275.737573 97.52009 
L 277.152052 98.475622 
L 278.566531 100.758284 
L 279.98101 102.259293 
L 281.395489 102.427184 
L 285.638926 104.646784 
L 287.053405 106.139221 
L 288.467884 107.887573 
L 289.882363 108.317289 
L 291.296842 108.243824 
L 295.540279 109.934977 
L 299.783716 116.15717 
L 301.198195 117.08966 
L 304.027154 118.040831 
L 305.441633 118.639258 
L 306.856112 120.019813 
L 309.68507 123.314545 
L 312.514028 125.522461 
L 313.928507 126.584438 
L 315.342986 128.02718 
L 316.757465 129.633025 
L 318.171944 130.142021 
L 319.586423 129.904954 
L 323.82986 132.122335 
L 325.244339 134.213576 
L 326.658818 135.351185 
L 328.073298 134.895066 
L 329.487777 134.887792 
L 335.145693 138.76807 
L 336.560172 140.046872 
L 337.974651 141.034206 
L 339.38913 141.472149 
L 342.218088 141.936875 
L 343.632567 142.466718 
L 345.047046 143.86161 
L 346.461525 146.335257 
L 347.876004 147.939296 
L 352.119441 148.734835 
L 354.9484 149.800693 
L 356.362879 149.930463 
L 362.020795 151.972308 
L 363.435274 153.013857 
L 364.849753 152.969782 
L 366.264232 152.108797 
L 367.678711 151.749665 
L 371.922148 151.80918 
L 373.336627 152.445917 
L 374.751106 154.163348 
L 376.165585 155.360209 
L 378.994544 154.670391 
L 380.409023 154.286645 
L 381.823502 154.505652 
L 383.237981 156.341631 
L 384.65246 159.267068 
L 390.310376 157.878896 
L 391.724855 158.218062 
L 393.139334 159.664813 
L 394.553813 160.865323 
L 395.968292 161.183431 
L 398.79725 160.688896 
L 400.211729 160.578901 
L 403.040687 161.862663 
L 404.455166 161.479064 
L 408.698604 161.170488 
L 410.113083 161.627315 
L 411.527562 162.600525 
L 412.942041 162.824808 
L 414.35652 162.412781 
L 417.185478 162.962733 
L 418.599957 163.359824 
L 420.014436 164.153197 
L 421.428915 164.657382 
L 425.672352 164.540366 
L 428.50131 164.718928 
L 429.915789 165.132289 
L 431.330269 166.585435 
L 433 166.651506 
L 433 166.651506 
" clip-path="url(#p01ddd13287)" style="fill: none; stroke: #22a884; stroke-width: 1.5; stroke-linecap: square"/>
   </g>
   <g id="line2d_21">
    <path d="M 63.565714 236.242664 
L 64.980193 236.054832 
L 66.394672 236.051435 
L 69.223631 235.820621 
L 70.63811 235.950226 
L 72.052589 237.568352 
L 73.467068 234.484202 
L 76.296026 237.30825 
L 77.710505 237.066464 
L 79.124984 237.800403 
L 80.539463 236.240362 
L 81.953942 238.4444 
L 83.368421 236.141699 
L 84.7829 238.384333 
L 86.197379 237.758003 
L 87.611858 236.641185 
L 89.026337 236.706673 
L 90.440816 237.270377 
L 91.855295 236.400094 
L 94.684253 228.062252 
L 96.098733 226.172789 
L 97.513212 222.456075 
L 98.927691 219.227671 
L 100.34217 211.542815 
L 101.756649 205.297388 
L 103.171128 204.744669 
L 104.585607 209.366607 
L 106.000086 212.280251 
L 107.414565 213.269733 
L 108.829044 215.620322 
L 111.658002 212.616942 
L 113.072481 209.234505 
L 114.48696 203.203412 
L 115.901439 183.458755 
L 118.730397 174.911588 
L 120.144876 166.543635 
L 121.559356 149.350323 
L 122.973835 130.756167 
L 124.388314 121.258196 
L 127.217272 107.717212 
L 128.631751 103.092842 
L 130.04623 99.889194 
L 131.460709 103.068785 
L 132.875188 103.58288 
L 134.289667 104.685344 
L 135.704146 102.8555 
L 137.118625 105.011564 
L 138.533104 106.075237 
L 139.947583 107.955077 
L 141.362062 109.126497 
L 142.776541 104.940936 
L 144.19102 101.468567 
L 145.605499 99.708018 
L 149.848937 93.068807 
L 151.263416 89.965211 
L 152.677895 89.073623 
L 154.092374 86.130186 
L 155.506853 84.953519 
L 156.921332 84.460552 
L 158.335811 79.210844 
L 159.75029 76.795928 
L 162.579248 71.093358 
L 166.822685 60.463283 
L 168.237164 58.362275 
L 169.651643 58.622999 
L 171.066122 55.922429 
L 173.895081 52.466906 
L 175.30956 50.517515 
L 176.724039 50.036469 
L 178.138518 47.614126 
L 179.552997 48.83232 
L 180.967476 47.194292 
L 182.381955 45.172715 
L 183.796434 47.160297 
L 185.210913 47.186586 
L 186.625392 47.565038 
L 189.45435 49.07058 
L 190.868829 49.378881 
L 192.283308 50.612734 
L 193.697787 52.046414 
L 195.112266 51.252644 
L 196.526745 54.947653 
L 197.941224 55.067957 
L 199.355704 56.093896 
L 200.770183 56.773115 
L 202.184662 58.337666 
L 203.599141 60.222389 
L 205.01362 61.00842 
L 206.428099 62.255335 
L 207.842578 61.579237 
L 209.257057 60.566115 
L 210.671536 63.411064 
L 212.086015 64.547 
L 213.500494 66.376223 
L 214.914973 66.402886 
L 216.329452 66.912447 
L 217.743931 64.807383 
L 219.15841 65.259723 
L 221.987368 67.291137 
L 223.401847 67.94799 
L 224.816327 68.231099 
L 226.230806 68.732225 
L 229.059764 69.933214 
L 231.888722 70.786823 
L 234.71768 71.477148 
L 237.546638 73.26972 
L 240.375596 74.462234 
L 241.790075 75.569304 
L 243.204554 76.398555 
L 244.619033 76.672618 
L 246.033512 77.840071 
L 247.447991 78.348809 
L 248.86247 78.710572 
L 250.27695 79.753428 
L 251.691429 81.113436 
L 254.520387 82.943597 
L 255.934866 84.33773 
L 257.349345 85.51977 
L 260.178303 86.86788 
L 263.007261 88.833972 
L 264.42174 89.732975 
L 265.836219 91.407823 
L 267.250698 92.453901 
L 268.665177 93.140072 
L 270.079656 93.153934 
L 271.494135 93.294446 
L 272.908614 94.370258 
L 275.737573 97.467979 
L 277.152052 98.6508 
L 278.566531 99.217644 
L 279.98101 99.339072 
L 281.395489 99.777274 
L 282.809968 100.803542 
L 285.638926 103.427214 
L 287.053405 104.590392 
L 291.296842 106.489522 
L 292.711321 107.614308 
L 294.1258 108.904337 
L 296.954758 111.092308 
L 298.369237 113.166627 
L 299.783716 113.983507 
L 301.198195 114.556956 
L 302.612675 116.228912 
L 304.027154 117.415608 
L 305.441633 118.281645 
L 306.856112 119.688619 
L 308.270591 121.661105 
L 309.68507 123.219705 
L 311.099549 124.119943 
L 313.928507 126.916085 
L 315.342986 127.920711 
L 316.757465 128.336884 
L 318.171944 128.554812 
L 319.586423 129.467956 
L 323.82986 133.556965 
L 325.244339 134.63054 
L 328.073298 134.741036 
L 329.487777 135.418866 
L 332.316735 138.242541 
L 333.731214 139.085893 
L 335.145693 139.608016 
L 337.974651 141.544284 
L 339.38913 141.938945 
L 340.803609 143.230436 
L 342.218088 143.666338 
L 343.632567 143.88733 
L 345.047046 145.14662 
L 346.461525 147.017199 
L 347.876004 148.05549 
L 352.119441 149.144447 
L 353.533921 149.233486 
L 354.9484 148.464858 
L 356.362879 148.712172 
L 357.777358 149.542458 
L 360.606316 151.45225 
L 362.020795 152.094406 
L 363.435274 152.186126 
L 364.849753 150.985601 
L 366.264232 150.064794 
L 367.678711 150.991606 
L 370.507669 153.452362 
L 371.922148 154.208686 
L 373.336627 153.995027 
L 374.751106 153.176028 
L 376.165585 153.035585 
L 377.580064 153.809991 
L 380.409023 156.182057 
L 383.237981 157.490203 
L 384.65246 158.103039 
L 388.895897 159.056909 
L 391.724855 159.131648 
L 394.553813 160.515309 
L 395.968292 160.757422 
L 398.79725 162.011139 
L 400.211729 162.123788 
L 403.040687 162.004776 
L 404.455166 162.080463 
L 405.869646 162.540389 
L 408.698604 164.128182 
L 410.113083 164.359039 
L 411.527562 163.98691 
L 412.942041 163.406897 
L 414.35652 163.202364 
L 415.770999 163.554027 
L 417.185478 164.042703 
L 420.014436 164.151983 
L 422.843394 165.008346 
L 424.257873 164.863755 
L 427.086831 165.182968 
L 428.50131 165.086731 
L 429.915789 164.84591 
L 431.330269 166.152354 
L 432.744748 167.837557 
L 433 167.787675 
L 433 167.787675 
" clip-path="url(#p01ddd13287)" style="fill: none; stroke: #7ad151; stroke-width: 1.5; stroke-linecap: square"/>
   </g>
   <g id="patch_3">
    <path d="M 54 252 
L 54 34.56 
" style="fill: none; stroke: #000000; stroke-width: 0.8; stroke-linejoin: miter; stroke-linecap: square"/>
   </g>
   <g id="patch_4">
    <path d="M 388.8 252 
L 388.8 34.56 
" style="fill: none; stroke: #000000; stroke-width: 0.8; stroke-linejoin: miter; stroke-linecap: square"/>
   </g>
   <g id="patch_5">
    <path d="M 54 252 
L 388.8 252 
" style="fill: none; stroke: #000000; stroke-width: 0.8; stroke-linejoin: miter; stroke-linecap: square"/>
   </g>
   <g id="patch_6">
    <path d="M 54 34.56 
L 388.8 34.56 
" style="fill: none; stroke: #000000; stroke-width: 0.8; stroke-linejoin: miter; stroke-linecap: square"/>
   </g>
   <g id="text_19">
    <!-- Y7 Normalized NEXAFS -->
    <g transform="translate(152.428125 28.56)scale(0.12 -0.12)">
     <defs>
      <path id="DejaVuSans-59" d="M -13 4666 
L 666 4666 
L 1959 2747 
L 3244 4666 
L 3922 4666 
L 2272 2222 
L 2272 0 
L 1638 0 
L 1638 2222 
L -13 4666 
z
" transform="scale(0.015625)"/>
      <path id="DejaVuSans-37" d="M 525 4666 
L 3525 4666 
L 3525 4397 
L 1831 0 
L 1172 0 
L 2766 4134 
L 525 4134 
L 525 4666 
z
" transform="scale(0.015625)"/>
      <path id="DejaVuSans-4e" d="M 628 4666 
L 1478 4666 
L 3547 763 
L 3547 4666 
L 4159 4666 
L 4159 0 
L 3309 0 
L 1241 3903 
L 1241 0 
L 628 0 
L 628 4666 
z
" transform="scale(0.015625)"/>
      <path id="DejaVuSans-6d" d="M 3328 2828 
Q 3544 3216 3844 3400 
Q 4144 3584 4550 3584 
Q 5097 3584 5394 3201 
Q 5691 2819 5691 2113 
L 5691 0 
L 5113 0 
L 5113 2094 
Q 5113 2597 4934 2840 
Q 4756 3084 4391 3084 
Q 3944 3084 3684 2787 
Q 3425 2491 3425 1978 
L 3425 0 
L 2847 0 
L 2847 2094 
Q 2847 2600 2669 2842 
Q 2491 3084 2119 3084 
Q 1678 3084 1418 2786 
Q 1159 2488 1159 1978 
L 1159 0 
L 581 0 
L 581 3500 
L 1159 3500 
L 1159 2956 
Q 1356 3278 1631 3431 
Q 1906 3584 2284 3584 
Q 2666 3584 2933 3390 
Q 3200 3197 3328 2828 
z
" transform="scale(0.015625)"/>
      <path id="DejaVuSans-7a" d="M 353 3500 
L 3084 3500 
L 3084 2975 
L 922 459 
L 3084 459 
L 3084 0 
L 275 0 
L 275 525 
L 2438 3041 
L 353 3041 
L 353 3500 
z
" transform="scale(0.015625)"/>
      <path id="DejaVuSans-45" d="M 628 4666 
L 3578 4666 
L 3578 4134 
L 1259 4134 
L 1259 2753 
L 3481 2753 
L 3481 2222 
L 1259 2222 
L 1259 531 
L 3634 531 
L 3634 0 
L 628 0 
L 628 4666 
z
" transform="scale(0.015625)"/>
      <path id="DejaVuSans-58" d="M 403 4666 
L 1081 4666 
L 2241 2931 
L 3406 4666 
L 4084 4666 
L 2584 2425 
L 4184 0 
L 3506 0 
L 2194 1984 
L 872 0 
L 191 0 
L 1856 2491 
L 403 4666 
z
" transform="scale(0.015625)"/>
      <path id="DejaVuSans-41" d="M 2188 4044 
L 1331 1722 
L 3047 1722 
L 2188 4044 
z
M 1831 4666 
L 2547 4666 
L 4325 0 
L 3669 0 
L 3244 1197 
L 1141 1197 
L 716 0 
L 50 0 
L 1831 4666 
z
" transform="scale(0.015625)"/>
      <path id="DejaVuSans-46" d="M 628 4666 
L 3309 4666 
L 3309 4134 
L 1259 4134 
L 1259 2759 
L 3109 2759 
L 3109 2228 
L 1259 2228 
L 1259 0 
L 628 0 
L 628 4666 
z
" transform="scale(0.015625)"/>
      <path id="DejaVuSans-53" d="M 3425 4513 
L 3425 3897 
Q 3066 4069 2747 4153 
Q 2428 4238 2131 4238 
Q 1616 4238 1336 4038 
Q 1056 3838 1056 3469 
Q 1056 3159 1242 3001 
Q 1428 2844 1947 2747 
L 2328 2669 
Q 3034 2534 3370 2195 
Q 3706 1856 3706 1288 
Q 3706 609 3251 259 
Q 2797 -91 1919 -91 
Q 1588 -91 1214 -16 
Q 841 59 441 206 
L 441 856 
Q 825 641 1194 531 
Q 1563 422 1919 422 
Q 2459 422 2753 634 
Q 3047 847 3047 1241 
Q 3047 1584 2836 1778 
Q 2625 1972 2144 2069 
L 1759 2144 
Q 1053 2284 737 2584 
Q 422 2884 422 3419 
Q 422 4038 858 4394 
Q 1294 4750 2059 4750 
Q 2388 4750 2728 4690 
Q 3069 4631 3425 4513 
z
" transform="scale(0.015625)"/>
     </defs>
     <use xlink:href="#DejaVuSans-59"/>
     <use xlink:href="#DejaVuSans-37" x="61.083984"/>
     <use xlink:href="#DejaVuSans-20" x="124.707031"/>
     <use xlink:href="#DejaVuSans-4e" x="156.494141"/>
     <use xlink:href="#DejaVuSans-6f" x="231.298828"/>
     <use xlink:href="#DejaVuSans-72" x="292.480469"/>
     <use xlink:href="#DejaVuSans-6d" x="331.84375"/>
     <use xlink:href="#DejaVuSans-61" x="429.255859"/>
     <use xlink:href="#DejaVuSans-6c" x="490.535156"/>
     <use xlink:href="#DejaVuSans-69" x="518.318359"/>
     <use xlink:href="#DejaVuSans-7a" x="546.101562"/>
     <use xlink:href="#DejaVuSans-65" x="598.591797"/>
     <use xlink:href="#DejaVuSans-64" x="660.115234"/>
     <use xlink:href="#DejaVuSans-20" x="723.591797"/>
     <use xlink:href="#DejaVuSans-4e" x="755.378906"/>
     <use xlink:href="#DejaVuSans-45" x="830.183594"/>
     <use xlink:href="#DejaVuSans-58" x="893.367188"/>
     <use xlink:href="#DejaVuSans-41" x="961.873047"/>
     <use xlink:href="#DejaVuSans-46" x="1030.28125"/>
     <use xlink:href="#DejaVuSans-53" x="1086.050781"/>
    </g>
   </g>
   <g id="legend_1">
    <g id="patch_7">
     <path d="M 332.075 115.950625 
L 381.8 115.950625 
Q 383.8 115.950625 383.8 113.950625 
L 383.8 41.56 
Q 383.8 39.56 381.8 39.56 
L 332.075 39.56 
Q 330.075 39.56 330.075 41.56 
L 330.075 113.950625 
Q 330.075 115.950625 332.075 115.950625 
z
" style="fill: #ffffff; opacity: 0.8; stroke: #cccccc; stroke-linejoin: miter"/>
    </g>
    <g id="line2d_22">
     <path d="M 334.075 47.658437 
L 344.075 47.658437 
L 354.075 47.658437 
" style="fill: none; stroke: #440154; stroke-width: 1.5; stroke-linecap: square"/>
    </g>
    <g id="text_20">
     <!-- 30 -->
     <g transform="translate(362.075 51.158437)scale(0.1 -0.1)">
      <defs>
       <path id="DejaVuSans-b0" d="M 1600 4347 
Q 1350 4347 1178 4173 
Q 1006 4000 1006 3750 
Q 1006 3503 1178 3333 
Q 1350 3163 1600 3163 
Q 1850 3163 2022 3333 
Q 2194 3503 2194 3750 
Q 2194 3997 2020 4172 
Q 1847 4347 1600 4347 
z
M 1600 4750 
Q 1800 4750 1984 4673 
Q 2169 4597 2303 4453 
Q 2447 4313 2519 4134 
Q 2591 3956 2591 3750 
Q 2591 3338 2302 3052 
Q 2013 2766 1594 2766 
Q 1172 2766 890 3047 
Q 609 3328 609 3750 
Q 609 4169 896 4459 
Q 1184 4750 1600 4750 
z
" transform="scale(0.015625)"/>
      </defs>
      <use xlink:href="#DejaVuSans-33"/>
      <use xlink:href="#DejaVuSans-30" x="63.623047"/>
      <use xlink:href="#DejaVuSans-b0" x="127.246094"/>
     </g>
    </g>
    <g id="line2d_23">
     <path d="M 334.075 62.336562 
L 344.075 62.336562 
L 354.075 62.336562 
" style="fill: none; stroke: #414487; stroke-width: 1.5; stroke-linecap: square"/>
    </g>
    <g id="text_21">
     <!-- 40 -->
     <g transform="translate(362.075 65.836562)scale(0.1 -0.1)">
      <defs>
       <path id="DejaVuSans-34" d="M 2419 4116 
L 825 1625 
L 2419 1625 
L 2419 4116 
z
M 2253 4666 
L 3047 4666 
L 3047 1625 
L 3713 1625 
L 3713 1100 
L 3047 1100 
L 3047 0 
L 2419 0 
L 2419 1100 
L 313 1100 
L 313 1709 
L 2253 4666 
z
" transform="scale(0.015625)"/>
      </defs>
      <use xlink:href="#DejaVuSans-34"/>
      <use xlink:href="#DejaVuSans-30" x="63.623047"/>
      <use xlink:href="#DejaVuSans-b0" x="127.246094"/>
     </g>
    </g>
    <g id="line2d_24">
     <path d="M 334.075 77.014687 
L 344.075 77.014687 
L 354.075 77.014687 
" style="fill: none; stroke: #2a788e; stroke-width: 1.5; stroke-linecap: square"/>
    </g>
    <g id="text_22">
     <!-- 55 -->
     <g transform="translate(362.075 80.514687)scale(0.1 -0.1)">
      <use xlink:href="#DejaVuSans-35"/>
      <use xlink:href="#DejaVuSans-35" x="63.623047"/>
      <use xlink:href="#DejaVuSans-b0" x="127.246094"/>
     </g>
    </g>
    <g id="line2d_25">
     <path d="M 334.075 91.692813 
L 344.075 91.692813 
L 354.075 91.692813 
" style="fill: none; stroke: #22a884; stroke-width: 1.5; stroke-linecap: square"/>
    </g>
    <g id="text_23">
     <!-- 70 -->
     <g transform="translate(362.075 95.192813)scale(0.1 -0.1)">
      <use xlink:href="#DejaVuSans-37"/>
      <use xlink:href="#DejaVuSans-30" x="63.623047"/>
      <use xlink:href="#DejaVuSans-b0" x="127.246094"/>
     </g>
    </g>
    <g id="line2d_26">
     <path d="M 334.075 106.370937 
L 344.075 106.370937 
L 354.075 106.370937 
" style="fill: none; stroke: #7ad151; stroke-width: 1.5; stroke-linecap: square"/>
    </g>
    <g id="text_24">
     <!-- 90 -->
     <g transform="translate(362.075 109.870937)scale(0.1 -0.1)">
      <use xlink:href="#DejaVuSans-39"/>
      <use xlink:href="#DejaVuSans-30" x="63.623047"/>
      <use xlink:href="#DejaVuSans-b0" x="127.246094"/>
     </g>
    </g>
   </g>
  </g>
 </g>
 <defs>
  <clipPath id="p01ddd13287">
   <rect x="54" y="34.56" width="334.8" height="217.44"/>
  </clipPath>
 </defs>
</svg>
