<?xml version="1.0" encoding="utf-8" standalone="no"?>
<!DOCTYPE svg PUBLIC "-//W3C//DTD SVG 1.1//EN"
  "http://www.w3.org/Graphics/SVG/1.1/DTD/svg11.dtd">
<svg xmlns:xlink="http://www.w3.org/1999/xlink" width="432pt" height="288pt" viewBox="0 0 432 288" xmlns="http://www.w3.org/2000/svg" version="1.1">
 <metadata>
  <rdf:RDF xmlns:dc="http://purl.org/dc/elements/1.1/" xmlns:cc="http://creativecommons.org/ns#" xmlns:rdf="http://www.w3.org/1999/02/22-rdf-syntax-ns#">
   <cc:Work>
    <dc:type rdf:resource="http://purl.org/dc/dcmitype/StillImage"/>
    <dc:date>2022-12-02T13:52:24.599128</dc:date>
    <dc:format>image/svg+xml</dc:format>
    <dc:creator>
     <cc:Agent>
      <dc:title>Matplotlib v3.5.1, https://matplotlib.org/</dc:title>
     </cc:Agent>
    </dc:creator>
   </cc:Work>
  </rdf:RDF>
 </metadata>
 <defs>
  <style type="text/css">*{stroke-linejoin: round; stroke-linecap: butt}</style>
 </defs>
 <g id="figure_1">
  <g id="patch_1">
   <path d="M 0 288 
L 432 288 
L 432 0 
L 0 0 
L 0 288 
z
" style="fill: none"/>
  </g>
  <g id="axes_1">
   <g id="patch_2">
    <path d="M 54 252 
L 388.8 252 
L 388.8 34.56 
L 54 34.56 
z
" style="fill: #ffffff"/>
   </g>
   <g id="matplotlib.axis_1">
    <g id="xtick_1">
     <g id="line2d_1">
      <defs>
       <path id="m826613b050" d="M 0 0 
L 0 3.5 
" style="stroke: #000000; stroke-width: 0.8"/>
      </defs>
      <g>
       <use xlink:href="#m826613b050" x="54" y="252" style="stroke: #000000; stroke-width: 0.8"/>
      </g>
     </g>
     <g id="text_1">
      <!-- 280 -->
      <g transform="translate(44.45625 266.598437)scale(0.1 -0.1)">
       <defs>
        <path id="DejaVuSans-32" d="M 1228 531 
L 3431 531 
L 3431 0 
L 469 0 
L 469 531 
Q 828 903 1448 1529 
Q 2069 2156 2228 2338 
Q 2531 2678 2651 2914 
Q 2772 3150 2772 3378 
Q 2772 3750 2511 3984 
Q 2250 4219 1831 4219 
Q 1534 4219 1204 4116 
Q 875 4013 500 3803 
L 500 4441 
Q 881 4594 1212 4672 
Q 1544 4750 1819 4750 
Q 2544 4750 2975 4387 
Q 3406 4025 3406 3419 
Q 3406 3131 3298 2873 
Q 3191 2616 2906 2266 
Q 2828 2175 2409 1742 
Q 1991 1309 1228 531 
z
" transform="scale(0.015625)"/>
        <path id="DejaVuSans-38" d="M 2034 2216 
Q 1584 2216 1326 1975 
Q 1069 1734 1069 1313 
Q 1069 891 1326 650 
Q 1584 409 2034 409 
Q 2484 409 2743 651 
Q 3003 894 3003 1313 
Q 3003 1734 2745 1975 
Q 2488 2216 2034 2216 
z
M 1403 2484 
Q 997 2584 770 2862 
Q 544 3141 544 3541 
Q 544 4100 942 4425 
Q 1341 4750 2034 4750 
Q 2731 4750 3128 4425 
Q 3525 4100 3525 3541 
Q 3525 3141 3298 2862 
Q 3072 2584 2669 2484 
Q 3125 2378 3379 2068 
Q 3634 1759 3634 1313 
Q 3634 634 3220 271 
Q 2806 -91 2034 -91 
Q 1263 -91 848 271 
Q 434 634 434 1313 
Q 434 1759 690 2068 
Q 947 2378 1403 2484 
z
M 1172 3481 
Q 1172 3119 1398 2916 
Q 1625 2713 2034 2713 
Q 2441 2713 2670 2916 
Q 2900 3119 2900 3481 
Q 2900 3844 2670 4047 
Q 2441 4250 2034 4250 
Q 1625 4250 1398 4047 
Q 1172 3844 1172 3481 
z
" transform="scale(0.015625)"/>
        <path id="DejaVuSans-30" d="M 2034 4250 
Q 1547 4250 1301 3770 
Q 1056 3291 1056 2328 
Q 1056 1369 1301 889 
Q 1547 409 2034 409 
Q 2525 409 2770 889 
Q 3016 1369 3016 2328 
Q 3016 3291 2770 3770 
Q 2525 4250 2034 4250 
z
M 2034 4750 
Q 2819 4750 3233 4129 
Q 3647 3509 3647 2328 
Q 3647 1150 3233 529 
Q 2819 -91 2034 -91 
Q 1250 -91 836 529 
Q 422 1150 422 2328 
Q 422 3509 836 4129 
Q 1250 4750 2034 4750 
z
" transform="scale(0.015625)"/>
       </defs>
       <use xlink:href="#DejaVuSans-32"/>
       <use xlink:href="#DejaVuSans-38" x="63.623047"/>
       <use xlink:href="#DejaVuSans-30" x="127.246094"/>
      </g>
     </g>
    </g>
    <g id="xtick_2">
     <g id="line2d_2">
      <g>
       <use xlink:href="#m826613b050" x="101.828571" y="252" style="stroke: #000000; stroke-width: 0.8"/>
      </g>
     </g>
     <g id="text_2">
      <!-- 285 -->
      <g transform="translate(92.284821 266.598437)scale(0.1 -0.1)">
       <defs>
        <path id="DejaVuSans-35" d="M 691 4666 
L 3169 4666 
L 3169 4134 
L 1269 4134 
L 1269 2991 
Q 1406 3038 1543 3061 
Q 1681 3084 1819 3084 
Q 2600 3084 3056 2656 
Q 3513 2228 3513 1497 
Q 3513 744 3044 326 
Q 2575 -91 1722 -91 
Q 1428 -91 1123 -41 
Q 819 9 494 109 
L 494 744 
Q 775 591 1075 516 
Q 1375 441 1709 441 
Q 2250 441 2565 725 
Q 2881 1009 2881 1497 
Q 2881 1984 2565 2268 
Q 2250 2553 1709 2553 
Q 1456 2553 1204 2497 
Q 953 2441 691 2322 
L 691 4666 
z
" transform="scale(0.015625)"/>
       </defs>
       <use xlink:href="#DejaVuSans-32"/>
       <use xlink:href="#DejaVuSans-38" x="63.623047"/>
       <use xlink:href="#DejaVuSans-35" x="127.246094"/>
      </g>
     </g>
    </g>
    <g id="xtick_3">
     <g id="line2d_3">
      <g>
       <use xlink:href="#m826613b050" x="149.657143" y="252" style="stroke: #000000; stroke-width: 0.8"/>
      </g>
     </g>
     <g id="text_3">
      <!-- 290 -->
      <g transform="translate(140.113393 266.598437)scale(0.1 -0.1)">
       <defs>
        <path id="DejaVuSans-39" d="M 703 97 
L 703 672 
Q 941 559 1184 500 
Q 1428 441 1663 441 
Q 2288 441 2617 861 
Q 2947 1281 2994 2138 
Q 2813 1869 2534 1725 
Q 2256 1581 1919 1581 
Q 1219 1581 811 2004 
Q 403 2428 403 3163 
Q 403 3881 828 4315 
Q 1253 4750 1959 4750 
Q 2769 4750 3195 4129 
Q 3622 3509 3622 2328 
Q 3622 1225 3098 567 
Q 2575 -91 1691 -91 
Q 1453 -91 1209 -44 
Q 966 3 703 97 
z
M 1959 2075 
Q 2384 2075 2632 2365 
Q 2881 2656 2881 3163 
Q 2881 3666 2632 3958 
Q 2384 4250 1959 4250 
Q 1534 4250 1286 3958 
Q 1038 3666 1038 3163 
Q 1038 2656 1286 2365 
Q 1534 2075 1959 2075 
z
" transform="scale(0.015625)"/>
       </defs>
       <use xlink:href="#DejaVuSans-32"/>
       <use xlink:href="#DejaVuSans-39" x="63.623047"/>
       <use xlink:href="#DejaVuSans-30" x="127.246094"/>
      </g>
     </g>
    </g>
    <g id="xtick_4">
     <g id="line2d_4">
      <g>
       <use xlink:href="#m826613b050" x="197.485714" y="252" style="stroke: #000000; stroke-width: 0.8"/>
      </g>
     </g>
     <g id="text_4">
      <!-- 295 -->
      <g transform="translate(187.941964 266.598437)scale(0.1 -0.1)">
       <use xlink:href="#DejaVuSans-32"/>
       <use xlink:href="#DejaVuSans-39" x="63.623047"/>
       <use xlink:href="#DejaVuSans-35" x="127.246094"/>
      </g>
     </g>
    </g>
    <g id="xtick_5">
     <g id="line2d_5">
      <g>
       <use xlink:href="#m826613b050" x="245.314286" y="252" style="stroke: #000000; stroke-width: 0.8"/>
      </g>
     </g>
     <g id="text_5">
      <!-- 300 -->
      <g transform="translate(235.770536 266.598437)scale(0.1 -0.1)">
       <defs>
        <path id="DejaVuSans-33" d="M 2597 2516 
Q 3050 2419 3304 2112 
Q 3559 1806 3559 1356 
Q 3559 666 3084 287 
Q 2609 -91 1734 -91 
Q 1441 -91 1130 -33 
Q 819 25 488 141 
L 488 750 
Q 750 597 1062 519 
Q 1375 441 1716 441 
Q 2309 441 2620 675 
Q 2931 909 2931 1356 
Q 2931 1769 2642 2001 
Q 2353 2234 1838 2234 
L 1294 2234 
L 1294 2753 
L 1863 2753 
Q 2328 2753 2575 2939 
Q 2822 3125 2822 3475 
Q 2822 3834 2567 4026 
Q 2313 4219 1838 4219 
Q 1578 4219 1281 4162 
Q 984 4106 628 3988 
L 628 4550 
Q 988 4650 1302 4700 
Q 1616 4750 1894 4750 
Q 2613 4750 3031 4423 
Q 3450 4097 3450 3541 
Q 3450 3153 3228 2886 
Q 3006 2619 2597 2516 
z
" transform="scale(0.015625)"/>
       </defs>
       <use xlink:href="#DejaVuSans-33"/>
       <use xlink:href="#DejaVuSans-30" x="63.623047"/>
       <use xlink:href="#DejaVuSans-30" x="127.246094"/>
      </g>
     </g>
    </g>
    <g id="xtick_6">
     <g id="line2d_6">
      <g>
       <use xlink:href="#m826613b050" x="293.142857" y="252" style="stroke: #000000; stroke-width: 0.8"/>
      </g>
     </g>
     <g id="text_6">
      <!-- 305 -->
      <g transform="translate(283.599107 266.598437)scale(0.1 -0.1)">
       <use xlink:href="#DejaVuSans-33"/>
       <use xlink:href="#DejaVuSans-30" x="63.623047"/>
       <use xlink:href="#DejaVuSans-35" x="127.246094"/>
      </g>
     </g>
    </g>
    <g id="xtick_7">
     <g id="line2d_7">
      <g>
       <use xlink:href="#m826613b050" x="340.971429" y="252" style="stroke: #000000; stroke-width: 0.8"/>
      </g>
     </g>
     <g id="text_7">
      <!-- 310 -->
      <g transform="translate(331.427679 266.598437)scale(0.1 -0.1)">
       <defs>
        <path id="DejaVuSans-31" d="M 794 531 
L 1825 531 
L 1825 4091 
L 703 3866 
L 703 4441 
L 1819 4666 
L 2450 4666 
L 2450 531 
L 3481 531 
L 3481 0 
L 794 0 
L 794 531 
z
" transform="scale(0.015625)"/>
       </defs>
       <use xlink:href="#DejaVuSans-33"/>
       <use xlink:href="#DejaVuSans-31" x="63.623047"/>
       <use xlink:href="#DejaVuSans-30" x="127.246094"/>
      </g>
     </g>
    </g>
    <g id="xtick_8">
     <g id="line2d_8">
      <g>
       <use xlink:href="#m826613b050" x="388.8" y="252" style="stroke: #000000; stroke-width: 0.8"/>
      </g>
     </g>
     <g id="text_8">
      <!-- 315 -->
      <g transform="translate(379.25625 266.598437)scale(0.1 -0.1)">
       <use xlink:href="#DejaVuSans-33"/>
       <use xlink:href="#DejaVuSans-31" x="63.623047"/>
       <use xlink:href="#DejaVuSans-35" x="127.246094"/>
      </g>
     </g>
    </g>
    <g id="text_9">
     <!-- energy [eV] -->
     <g transform="translate(191.989062 280.276563)scale(0.1 -0.1)">
      <defs>
       <path id="DejaVuSans-65" d="M 3597 1894 
L 3597 1613 
L 953 1613 
Q 991 1019 1311 708 
Q 1631 397 2203 397 
Q 2534 397 2845 478 
Q 3156 559 3463 722 
L 3463 178 
Q 3153 47 2828 -22 
Q 2503 -91 2169 -91 
Q 1331 -91 842 396 
Q 353 884 353 1716 
Q 353 2575 817 3079 
Q 1281 3584 2069 3584 
Q 2775 3584 3186 3129 
Q 3597 2675 3597 1894 
z
M 3022 2063 
Q 3016 2534 2758 2815 
Q 2500 3097 2075 3097 
Q 1594 3097 1305 2825 
Q 1016 2553 972 2059 
L 3022 2063 
z
" transform="scale(0.015625)"/>
       <path id="DejaVuSans-6e" d="M 3513 2113 
L 3513 0 
L 2938 0 
L 2938 2094 
Q 2938 2591 2744 2837 
Q 2550 3084 2163 3084 
Q 1697 3084 1428 2787 
Q 1159 2491 1159 1978 
L 1159 0 
L 581 0 
L 581 3500 
L 1159 3500 
L 1159 2956 
Q 1366 3272 1645 3428 
Q 1925 3584 2291 3584 
Q 2894 3584 3203 3211 
Q 3513 2838 3513 2113 
z
" transform="scale(0.015625)"/>
       <path id="DejaVuSans-72" d="M 2631 2963 
Q 2534 3019 2420 3045 
Q 2306 3072 2169 3072 
Q 1681 3072 1420 2755 
Q 1159 2438 1159 1844 
L 1159 0 
L 581 0 
L 581 3500 
L 1159 3500 
L 1159 2956 
Q 1341 3275 1631 3429 
Q 1922 3584 2338 3584 
Q 2397 3584 2469 3576 
Q 2541 3569 2628 3553 
L 2631 2963 
z
" transform="scale(0.015625)"/>
       <path id="DejaVuSans-67" d="M 2906 1791 
Q 2906 2416 2648 2759 
Q 2391 3103 1925 3103 
Q 1463 3103 1205 2759 
Q 947 2416 947 1791 
Q 947 1169 1205 825 
Q 1463 481 1925 481 
Q 2391 481 2648 825 
Q 2906 1169 2906 1791 
z
M 3481 434 
Q 3481 -459 3084 -895 
Q 2688 -1331 1869 -1331 
Q 1566 -1331 1297 -1286 
Q 1028 -1241 775 -1147 
L 775 -588 
Q 1028 -725 1275 -790 
Q 1522 -856 1778 -856 
Q 2344 -856 2625 -561 
Q 2906 -266 2906 331 
L 2906 616 
Q 2728 306 2450 153 
Q 2172 0 1784 0 
Q 1141 0 747 490 
Q 353 981 353 1791 
Q 353 2603 747 3093 
Q 1141 3584 1784 3584 
Q 2172 3584 2450 3431 
Q 2728 3278 2906 2969 
L 2906 3500 
L 3481 3500 
L 3481 434 
z
" transform="scale(0.015625)"/>
       <path id="DejaVuSans-79" d="M 2059 -325 
Q 1816 -950 1584 -1140 
Q 1353 -1331 966 -1331 
L 506 -1331 
L 506 -850 
L 844 -850 
Q 1081 -850 1212 -737 
Q 1344 -625 1503 -206 
L 1606 56 
L 191 3500 
L 800 3500 
L 1894 763 
L 2988 3500 
L 3597 3500 
L 2059 -325 
z
" transform="scale(0.015625)"/>
       <path id="DejaVuSans-20" transform="scale(0.015625)"/>
       <path id="DejaVuSans-5b" d="M 550 4863 
L 1875 4863 
L 1875 4416 
L 1125 4416 
L 1125 -397 
L 1875 -397 
L 1875 -844 
L 550 -844 
L 550 4863 
z
" transform="scale(0.015625)"/>
       <path id="DejaVuSans-56" d="M 1831 0 
L 50 4666 
L 709 4666 
L 2188 738 
L 3669 4666 
L 4325 4666 
L 2547 0 
L 1831 0 
z
" transform="scale(0.015625)"/>
       <path id="DejaVuSans-5d" d="M 1947 4863 
L 1947 -844 
L 622 -844 
L 622 -397 
L 1369 -397 
L 1369 4416 
L 622 4416 
L 622 4863 
L 1947 4863 
z
" transform="scale(0.015625)"/>
      </defs>
      <use xlink:href="#DejaVuSans-65"/>
      <use xlink:href="#DejaVuSans-6e" x="61.523438"/>
      <use xlink:href="#DejaVuSans-65" x="124.902344"/>
      <use xlink:href="#DejaVuSans-72" x="186.425781"/>
      <use xlink:href="#DejaVuSans-67" x="225.789062"/>
      <use xlink:href="#DejaVuSans-79" x="289.265625"/>
      <use xlink:href="#DejaVuSans-20" x="348.445312"/>
      <use xlink:href="#DejaVuSans-5b" x="380.232422"/>
      <use xlink:href="#DejaVuSans-65" x="419.246094"/>
      <use xlink:href="#DejaVuSans-56" x="480.769531"/>
      <use xlink:href="#DejaVuSans-5d" x="549.177734"/>
     </g>
    </g>
   </g>
   <g id="matplotlib.axis_2">
    <g id="ytick_1">
     <g id="line2d_9">
      <defs>
       <path id="m98c397e1a8" d="M 0 0 
L -3.5 0 
" style="stroke: #000000; stroke-width: 0.8"/>
      </defs>
      <g>
       <use xlink:href="#m98c397e1a8" x="54" y="236.788836" style="stroke: #000000; stroke-width: 0.8"/>
      </g>
     </g>
     <g id="text_10">
      <!-- 0.0 -->
      <g transform="translate(31.096875 240.588055)scale(0.1 -0.1)">
       <defs>
        <path id="DejaVuSans-2e" d="M 684 794 
L 1344 794 
L 1344 0 
L 684 0 
L 684 794 
z
" transform="scale(0.015625)"/>
       </defs>
       <use xlink:href="#DejaVuSans-30"/>
       <use xlink:href="#DejaVuSans-2e" x="63.623047"/>
       <use xlink:href="#DejaVuSans-30" x="95.410156"/>
      </g>
     </g>
    </g>
    <g id="ytick_2">
     <g id="line2d_10">
      <g>
       <use xlink:href="#m98c397e1a8" x="54" y="202.201563" style="stroke: #000000; stroke-width: 0.8"/>
      </g>
     </g>
     <g id="text_11">
      <!-- 0.5 -->
      <g transform="translate(31.096875 206.000781)scale(0.1 -0.1)">
       <use xlink:href="#DejaVuSans-30"/>
       <use xlink:href="#DejaVuSans-2e" x="63.623047"/>
       <use xlink:href="#DejaVuSans-35" x="95.410156"/>
      </g>
     </g>
    </g>
    <g id="ytick_3">
     <g id="line2d_11">
      <g>
       <use xlink:href="#m98c397e1a8" x="54" y="167.614289" style="stroke: #000000; stroke-width: 0.8"/>
      </g>
     </g>
     <g id="text_12">
      <!-- 1.0 -->
      <g transform="translate(31.096875 171.413508)scale(0.1 -0.1)">
       <use xlink:href="#DejaVuSans-31"/>
       <use xlink:href="#DejaVuSans-2e" x="63.623047"/>
       <use xlink:href="#DejaVuSans-30" x="95.410156"/>
      </g>
     </g>
    </g>
    <g id="ytick_4">
     <g id="line2d_12">
      <g>
       <use xlink:href="#m98c397e1a8" x="54" y="133.027016" style="stroke: #000000; stroke-width: 0.8"/>
      </g>
     </g>
     <g id="text_13">
      <!-- 1.5 -->
      <g transform="translate(31.096875 136.826234)scale(0.1 -0.1)">
       <use xlink:href="#DejaVuSans-31"/>
       <use xlink:href="#DejaVuSans-2e" x="63.623047"/>
       <use xlink:href="#DejaVuSans-35" x="95.410156"/>
      </g>
     </g>
    </g>
    <g id="ytick_5">
     <g id="line2d_13">
      <g>
       <use xlink:href="#m98c397e1a8" x="54" y="98.439742" style="stroke: #000000; stroke-width: 0.8"/>
      </g>
     </g>
     <g id="text_14">
      <!-- 2.0 -->
      <g transform="translate(31.096875 102.238961)scale(0.1 -0.1)">
       <use xlink:href="#DejaVuSans-32"/>
       <use xlink:href="#DejaVuSans-2e" x="63.623047"/>
       <use xlink:href="#DejaVuSans-30" x="95.410156"/>
      </g>
     </g>
    </g>
    <g id="ytick_6">
     <g id="line2d_14">
      <g>
       <use xlink:href="#m98c397e1a8" x="54" y="63.852468" style="stroke: #000000; stroke-width: 0.8"/>
      </g>
     </g>
     <g id="text_15">
      <!-- 2.5 -->
      <g transform="translate(31.096875 67.651687)scale(0.1 -0.1)">
       <use xlink:href="#DejaVuSans-32"/>
       <use xlink:href="#DejaVuSans-2e" x="63.623047"/>
       <use xlink:href="#DejaVuSans-35" x="95.410156"/>
      </g>
     </g>
    </g>
    <g id="text_16">
     <!-- electron_yield [a.u.] -->
     <g transform="translate(24.739062 193.0925)rotate(-90)scale(0.1 -0.1)">
      <defs>
       <path id="DejaVuSans-6c" d="M 603 4863 
L 1178 4863 
L 1178 0 
L 603 0 
L 603 4863 
z
" transform="scale(0.015625)"/>
       <path id="DejaVuSans-63" d="M 3122 3366 
L 3122 2828 
Q 2878 2963 2633 3030 
Q 2388 3097 2138 3097 
Q 1578 3097 1268 2742 
Q 959 2388 959 1747 
Q 959 1106 1268 751 
Q 1578 397 2138 397 
Q 2388 397 2633 464 
Q 2878 531 3122 666 
L 3122 134 
Q 2881 22 2623 -34 
Q 2366 -91 2075 -91 
Q 1284 -91 818 406 
Q 353 903 353 1747 
Q 353 2603 823 3093 
Q 1294 3584 2113 3584 
Q 2378 3584 2631 3529 
Q 2884 3475 3122 3366 
z
" transform="scale(0.015625)"/>
       <path id="DejaVuSans-74" d="M 1172 4494 
L 1172 3500 
L 2356 3500 
L 2356 3053 
L 1172 3053 
L 1172 1153 
Q 1172 725 1289 603 
Q 1406 481 1766 481 
L 2356 481 
L 2356 0 
L 1766 0 
Q 1100 0 847 248 
Q 594 497 594 1153 
L 594 3053 
L 172 3053 
L 172 3500 
L 594 3500 
L 594 4494 
L 1172 4494 
z
" transform="scale(0.015625)"/>
       <path id="DejaVuSans-6f" d="M 1959 3097 
Q 1497 3097 1228 2736 
Q 959 2375 959 1747 
Q 959 1119 1226 758 
Q 1494 397 1959 397 
Q 2419 397 2687 759 
Q 2956 1122 2956 1747 
Q 2956 2369 2687 2733 
Q 2419 3097 1959 3097 
z
M 1959 3584 
Q 2709 3584 3137 3096 
Q 3566 2609 3566 1747 
Q 3566 888 3137 398 
Q 2709 -91 1959 -91 
Q 1206 -91 779 398 
Q 353 888 353 1747 
Q 353 2609 779 3096 
Q 1206 3584 1959 3584 
z
" transform="scale(0.015625)"/>
       <path id="DejaVuSans-5f" d="M 3263 -1063 
L 3263 -1509 
L -63 -1509 
L -63 -1063 
L 3263 -1063 
z
" transform="scale(0.015625)"/>
       <path id="DejaVuSans-69" d="M 603 3500 
L 1178 3500 
L 1178 0 
L 603 0 
L 603 3500 
z
M 603 4863 
L 1178 4863 
L 1178 4134 
L 603 4134 
L 603 4863 
z
" transform="scale(0.015625)"/>
       <path id="DejaVuSans-64" d="M 2906 2969 
L 2906 4863 
L 3481 4863 
L 3481 0 
L 2906 0 
L 2906 525 
Q 2725 213 2448 61 
Q 2172 -91 1784 -91 
Q 1150 -91 751 415 
Q 353 922 353 1747 
Q 353 2572 751 3078 
Q 1150 3584 1784 3584 
Q 2172 3584 2448 3432 
Q 2725 3281 2906 2969 
z
M 947 1747 
Q 947 1113 1208 752 
Q 1469 391 1925 391 
Q 2381 391 2643 752 
Q 2906 1113 2906 1747 
Q 2906 2381 2643 2742 
Q 2381 3103 1925 3103 
Q 1469 3103 1208 2742 
Q 947 2381 947 1747 
z
" transform="scale(0.015625)"/>
       <path id="DejaVuSans-61" d="M 2194 1759 
Q 1497 1759 1228 1600 
Q 959 1441 959 1056 
Q 959 750 1161 570 
Q 1363 391 1709 391 
Q 2188 391 2477 730 
Q 2766 1069 2766 1631 
L 2766 1759 
L 2194 1759 
z
M 3341 1997 
L 3341 0 
L 2766 0 
L 2766 531 
Q 2569 213 2275 61 
Q 1981 -91 1556 -91 
Q 1019 -91 701 211 
Q 384 513 384 1019 
Q 384 1609 779 1909 
Q 1175 2209 1959 2209 
L 2766 2209 
L 2766 2266 
Q 2766 2663 2505 2880 
Q 2244 3097 1772 3097 
Q 1472 3097 1187 3025 
Q 903 2953 641 2809 
L 641 3341 
Q 956 3463 1253 3523 
Q 1550 3584 1831 3584 
Q 2591 3584 2966 3190 
Q 3341 2797 3341 1997 
z
" transform="scale(0.015625)"/>
       <path id="DejaVuSans-75" d="M 544 1381 
L 544 3500 
L 1119 3500 
L 1119 1403 
Q 1119 906 1312 657 
Q 1506 409 1894 409 
Q 2359 409 2629 706 
Q 2900 1003 2900 1516 
L 2900 3500 
L 3475 3500 
L 3475 0 
L 2900 0 
L 2900 538 
Q 2691 219 2414 64 
Q 2138 -91 1772 -91 
Q 1169 -91 856 284 
Q 544 659 544 1381 
z
M 1991 3584 
L 1991 3584 
z
" transform="scale(0.015625)"/>
      </defs>
      <use xlink:href="#DejaVuSans-65"/>
      <use xlink:href="#DejaVuSans-6c" x="61.523438"/>
      <use xlink:href="#DejaVuSans-65" x="89.306641"/>
      <use xlink:href="#DejaVuSans-63" x="150.830078"/>
      <use xlink:href="#DejaVuSans-74" x="205.810547"/>
      <use xlink:href="#DejaVuSans-72" x="245.019531"/>
      <use xlink:href="#DejaVuSans-6f" x="283.882812"/>
      <use xlink:href="#DejaVuSans-6e" x="345.064453"/>
      <use xlink:href="#DejaVuSans-5f" x="408.443359"/>
      <use xlink:href="#DejaVuSans-79" x="458.443359"/>
      <use xlink:href="#DejaVuSans-69" x="517.623047"/>
      <use xlink:href="#DejaVuSans-65" x="545.40625"/>
      <use xlink:href="#DejaVuSans-6c" x="606.929688"/>
      <use xlink:href="#DejaVuSans-64" x="634.712891"/>
      <use xlink:href="#DejaVuSans-20" x="698.189453"/>
      <use xlink:href="#DejaVuSans-5b" x="729.976562"/>
      <use xlink:href="#DejaVuSans-61" x="768.990234"/>
      <use xlink:href="#DejaVuSans-2e" x="830.269531"/>
      <use xlink:href="#DejaVuSans-75" x="862.056641"/>
      <use xlink:href="#DejaVuSans-2e" x="925.435547"/>
      <use xlink:href="#DejaVuSans-5d" x="957.222656"/>
     </g>
    </g>
   </g>
   <g id="line2d_15">
    <path d="M 63.565714 240.065915 
L 64.980193 240.687885 
L 66.394672 239.161475 
L 67.809151 232.324484 
L 69.223631 232.465157 
L 70.63811 233.970779 
L 72.052589 235.913887 
L 73.467068 232.760997 
L 74.881547 238.210733 
L 76.296026 233.22032 
L 77.710505 237.128921 
L 79.124984 236.894092 
L 81.953942 239.88205 
L 83.368421 240.356802 
L 84.7829 239.471342 
L 86.197379 235.744399 
L 87.611858 239.744834 
L 89.026337 237.349078 
L 90.440816 237.803787 
L 91.855295 230.965361 
L 93.269774 233.762112 
L 94.684253 220.565636 
L 96.098733 209.215112 
L 97.513212 190.357772 
L 98.927691 198.440986 
L 100.34217 181.974593 
L 101.756649 153.739053 
L 103.171128 131.095402 
L 104.585607 140.011634 
L 106.000086 161.61719 
L 107.414565 172.865519 
L 108.829044 182.921605 
L 110.243523 189.490654 
L 111.658002 183.852451 
L 113.072481 171.917318 
L 114.48696 169.19855 
L 115.901439 169.72721 
L 117.315918 163.843024 
L 118.730397 155.263994 
L 120.144876 134.26591 
L 121.559356 107.181326 
L 122.973835 76.208439 
L 124.388314 63.954779 
L 125.802793 55.915902 
L 127.217272 55.981879 
L 128.631751 58.314514 
L 131.460709 81.641149 
L 132.875188 89.127222 
L 134.289667 86.298683 
L 135.704146 93.771875 
L 137.118625 85.885714 
L 138.533104 86.941523 
L 139.947583 83.993133 
L 141.362062 89.275538 
L 142.776541 86.018481 
L 144.19102 90.578722 
L 145.605499 88.888203 
L 147.019979 89.513077 
L 148.434458 84.09099 
L 149.848937 83.46879 
L 151.263416 76.637186 
L 152.677895 74.32608 
L 154.092374 71.693513 
L 156.921332 68.054844 
L 158.335811 62.84007 
L 159.75029 60.171245 
L 161.164769 61.162157 
L 162.579248 55.17167 
L 163.993727 55.205112 
L 165.408206 53.616039 
L 166.822685 50.465785 
L 168.237164 54.190412 
L 169.651643 49.000751 
L 171.066122 47.382149 
L 172.480602 47.552024 
L 173.895081 49.554918 
L 175.30956 47.061963 
L 176.724039 47.793658 
L 178.138518 48.659724 
L 179.552997 47.016773 
L 180.967476 48.582209 
L 182.381955 51.00173 
L 183.796434 45.795726 
L 185.210913 47.72917 
L 186.625392 47.309703 
L 188.039871 53.160338 
L 189.45435 50.733449 
L 190.868829 47.557679 
L 193.697787 56.069286 
L 195.112266 55.010644 
L 196.526745 47.875926 
L 197.941224 55.524128 
L 199.355704 56.345295 
L 200.770183 60.636638 
L 202.184662 55.625557 
L 205.01362 59.564314 
L 206.428099 62.87555 
L 207.842578 62.544585 
L 209.257057 62.992895 
L 210.671536 63.838931 
L 212.086015 61.859983 
L 213.500494 65.336765 
L 214.914973 66.581618 
L 216.329452 69.629687 
L 217.743931 68.032266 
L 219.15841 69.962053 
L 220.572889 71.519018 
L 221.987368 71.529672 
L 224.816327 71.185583 
L 229.059764 70.112144 
L 230.474243 70.026652 
L 231.888722 70.683627 
L 233.303201 72.209471 
L 234.71768 73.934881 
L 236.132159 74.091037 
L 237.546638 73.708679 
L 238.961117 73.587388 
L 240.375596 74.655352 
L 241.790075 74.594534 
L 243.204554 76.243693 
L 244.619033 80.369109 
L 247.447991 79.335141 
L 248.86247 80.158723 
L 250.27695 81.971473 
L 251.691429 81.659851 
L 254.520387 84.437625 
L 257.349345 84.500819 
L 258.763824 85.540944 
L 260.178303 86.828478 
L 261.592782 87.558138 
L 263.007261 87.91748 
L 264.42174 87.895945 
L 267.250698 87.472137 
L 268.665177 88.387158 
L 270.079656 89.047395 
L 272.908614 91.977975 
L 274.323093 91.173647 
L 275.737573 90.157491 
L 277.152052 89.744798 
L 278.566531 90.3402 
L 279.98101 90.59476 
L 281.395489 94.534582 
L 287.053405 99.49446 
L 288.467884 101.9316 
L 289.882363 102.50509 
L 291.296842 101.731381 
L 292.711321 102.363209 
L 295.540279 106.093141 
L 296.954758 108.273589 
L 298.369237 112.039553 
L 299.783716 113.59904 
L 301.198195 109.460609 
L 302.612675 109.949483 
L 304.027154 111.345494 
L 305.441633 113.49174 
L 306.856112 117.673392 
L 308.270591 119.711642 
L 309.68507 118.380774 
L 311.099549 118.148445 
L 313.928507 118.192221 
L 315.342986 118.869458 
L 316.757465 120.029573 
L 318.171944 122.155189 
L 319.586423 124.513369 
L 321.000902 126.19184 
L 323.82986 127.569954 
L 325.244339 128.495167 
L 326.658818 130.928748 
L 328.073298 131.735374 
L 329.487777 136.111575 
L 330.902256 137.051299 
L 332.316735 136.773431 
L 333.731214 136.718401 
L 336.560172 138.665132 
L 337.974651 137.022071 
L 339.38913 136.868928 
L 343.632567 139.252998 
L 345.047046 140.722916 
L 346.461525 141.063373 
L 347.876004 139.550623 
L 349.290483 138.706095 
L 352.119441 139.971877 
L 353.533921 141.424296 
L 356.362879 144.714392 
L 357.777358 146.176992 
L 359.191837 146.738433 
L 362.020795 146.743231 
L 364.849753 147.603678 
L 367.678711 150.62914 
L 369.09319 150.482295 
L 370.507669 150.169684 
L 371.922148 150.048815 
L 373.336627 150.2995 
L 374.751106 150.073548 
L 376.165585 148.78634 
L 377.580064 147.76048 
L 380.409023 148.110765 
L 381.823502 148.996222 
L 383.237981 150.181218 
L 384.65246 150.826427 
L 386.066939 150.010343 
L 387.481418 149.849684 
L 390.310376 150.836265 
L 391.724855 152.776863 
L 393.139334 153.815012 
L 395.968292 155.61255 
L 398.79725 154.792578 
L 400.211729 154.555089 
L 401.626208 154.81883 
L 404.455166 155.711817 
L 405.869646 156.035009 
L 408.698604 155.164414 
L 410.113083 155.392149 
L 411.527562 156.009536 
L 412.942041 156.243833 
L 414.35652 155.573554 
L 415.770999 155.284531 
L 418.599957 155.861718 
L 420.014436 156.534675 
L 421.428915 157.009803 
L 424.257873 157.366954 
L 428.50131 157.218206 
L 429.915789 157.662211 
L 431.330269 158.447718 
L 433 160.319134 
L 433 160.319134 
" clip-path="url(#p1172954493)" style="fill: none; stroke: #440154; stroke-width: 1.5; stroke-linecap: square"/>
   </g>
   <g id="line2d_16">
    <path d="M 63.565714 235.919184 
L 64.980193 235.7977 
L 66.394672 240.449295 
L 67.809151 240.35129 
L 69.223631 239.892763 
L 70.63811 239.173933 
L 72.052589 235.755121 
L 73.467068 239.127926 
L 74.881547 237.573312 
L 76.296026 232.211489 
L 77.710505 235.304909 
L 79.124984 231.639095 
L 80.539463 236.909901 
L 81.953942 236.792561 
L 83.368421 235.576873 
L 84.7829 235.676206 
L 86.197379 240.262371 
L 87.611858 239.746395 
L 89.026337 234.584123 
L 90.440816 234.992972 
L 91.855295 234.828144 
L 93.269774 228.416154 
L 94.684253 223.377946 
L 96.098733 211.102673 
L 97.513212 203.832559 
L 98.927691 198.471708 
L 100.34217 186.159054 
L 101.756649 152.978873 
L 103.171128 138.132862 
L 104.585607 142.59706 
L 106.000086 164.278506 
L 107.414565 173.730581 
L 108.829044 179.061695 
L 110.243523 187.906819 
L 111.658002 185.81593 
L 113.072481 173.559712 
L 114.48696 174.427863 
L 115.901439 169.232781 
L 117.315918 168.46477 
L 118.730397 157.548072 
L 120.144876 143.422811 
L 121.559356 109.857669 
L 122.973835 86.508075 
L 124.388314 67.824693 
L 125.802793 62.397185 
L 127.217272 62.790922 
L 128.631751 65.862599 
L 130.04623 79.41553 
L 131.460709 91.401029 
L 132.875188 93.471012 
L 134.289667 97.27465 
L 135.704146 90.776122 
L 137.118625 95.455093 
L 138.533104 92.103814 
L 139.947583 95.082708 
L 141.362062 91.44347 
L 142.776541 88.533147 
L 144.19102 95.09803 
L 145.605499 100.257254 
L 147.019979 93.115637 
L 148.434458 84.807596 
L 149.848937 86.805195 
L 151.263416 85.060403 
L 152.677895 79.326252 
L 154.092374 79.250087 
L 155.506853 72.476356 
L 156.921332 76.146113 
L 158.335811 71.041276 
L 159.75029 68.510174 
L 161.164769 68.742377 
L 162.579248 65.744354 
L 163.993727 63.611207 
L 165.408206 60.010418 
L 166.822685 60.937294 
L 168.237164 59.323413 
L 169.651643 59.517353 
L 171.066122 53.437942 
L 172.480602 56.078612 
L 173.895081 52.676586 
L 175.30956 58.119596 
L 176.724039 55.039115 
L 178.138518 56.229781 
L 179.552997 52.432986 
L 180.967476 53.300556 
L 182.381955 56.327425 
L 183.796434 57.983648 
L 185.210913 60.854521 
L 186.625392 50.499542 
L 188.039871 54.34112 
L 189.45435 56.20771 
L 190.868829 59.90683 
L 192.283308 56.541409 
L 193.697787 59.753515 
L 195.112266 57.764117 
L 196.526745 62.906519 
L 197.941224 59.361634 
L 199.355704 62.462084 
L 200.770183 58.891353 
L 202.184662 70.215991 
L 203.599141 66.073969 
L 205.01362 69.851098 
L 206.428099 67.441128 
L 207.842578 68.637913 
L 209.257057 69.417594 
L 210.671536 69.588743 
L 212.086015 71.195643 
L 213.500494 76.252052 
L 214.914973 72.544025 
L 216.329452 73.209239 
L 217.743931 77.386792 
L 220.572889 77.265472 
L 223.401847 78.106151 
L 226.230806 75.465278 
L 230.474243 70.782958 
L 231.888722 74.43959 
L 240.375596 79.136791 
L 241.790075 79.59384 
L 244.619033 82.819633 
L 246.033512 83.20663 
L 247.447991 83.476218 
L 248.86247 83.937015 
L 251.691429 87.243464 
L 253.105908 88.52294 
L 257.349345 91.819555 
L 258.763824 91.846512 
L 260.178303 90.697608 
L 261.592782 90.664876 
L 263.007261 91.968518 
L 264.42174 92.630263 
L 268.665177 92.341877 
L 270.079656 94.625354 
L 271.494135 94.900469 
L 272.908614 96.038062 
L 277.152052 95.080383 
L 278.566531 97.46479 
L 279.98101 100.39144 
L 281.395489 102.965031 
L 282.809968 105.134987 
L 285.638926 106.211068 
L 287.053405 105.794965 
L 288.467884 103.558566 
L 289.882363 102.144839 
L 292.711321 105.731485 
L 295.540279 109.45901 
L 296.954758 112.237613 
L 298.369237 115.511124 
L 299.783716 118.134521 
L 301.198195 117.644211 
L 305.441633 113.647095 
L 306.856112 116.262156 
L 309.68507 122.751077 
L 311.099549 125.518471 
L 313.928507 127.220123 
L 315.342986 127.165149 
L 316.757465 124.178674 
L 318.171944 121.515283 
L 321.000902 127.084565 
L 325.244339 131.331198 
L 326.658818 129.037267 
L 328.073298 129.982361 
L 329.487777 132.731243 
L 333.731214 135.535185 
L 335.145693 136.331014 
L 336.560172 137.279833 
L 339.38913 141.251189 
L 343.632567 141.339576 
L 346.461525 143.848434 
L 347.876004 144.859595 
L 352.119441 147.078129 
L 353.533921 146.095294 
L 354.9484 143.285548 
L 356.362879 144.753461 
L 357.777358 145.826211 
L 362.020795 145.15211 
L 364.849753 143.885743 
L 366.264232 145.267569 
L 367.678711 146.874672 
L 369.09319 146.901395 
L 370.507669 146.637297 
L 371.922148 146.508708 
L 373.336627 147.888538 
L 374.751106 149.710065 
L 376.165585 150.796653 
L 377.580064 151.662163 
L 381.823502 149.657548 
L 383.237981 148.463814 
L 384.65246 149.353884 
L 386.066939 150.792938 
L 390.310376 150.31739 
L 391.724855 150.461775 
L 393.139334 150.767759 
L 394.553813 151.7515 
L 395.968292 152.386259 
L 397.382771 151.946912 
L 400.211729 150.311861 
L 403.040687 154.41906 
L 404.455166 155.417258 
L 407.284125 156.983948 
L 408.698604 157.720523 
L 410.113083 158.088884 
L 411.527562 157.304987 
L 412.942041 156.781868 
L 414.35652 157.579397 
L 415.770999 158.126761 
L 420.014436 158.171737 
L 421.428915 154.844907 
L 422.843394 156.088454 
L 424.257873 157.518381 
L 425.672352 158.187122 
L 428.50131 158.697607 
L 429.915789 159.31387 
L 433 161.12138 
L 433 161.12138 
" clip-path="url(#p1172954493)" style="fill: none; stroke: #414487; stroke-width: 1.5; stroke-linecap: square"/>
   </g>
   <g id="line2d_17">
    <path d="M 63.565714 242.116364 
L 66.394672 238.429535 
L 67.809151 237.033246 
L 69.223631 236.852691 
L 70.63811 234.727365 
L 72.052589 232.354387 
L 73.467068 234.611243 
L 74.881547 238.866642 
L 76.296026 237.899689 
L 77.710505 238.897337 
L 79.124984 234.571201 
L 80.539463 236.680649 
L 81.953942 237.839632 
L 83.368421 236.766704 
L 84.7829 233.12506 
L 86.197379 239.305163 
L 87.611858 236.382296 
L 89.026337 240.545734 
L 90.440816 232.708118 
L 91.855295 232.584693 
L 94.684253 222.159224 
L 96.098733 204.433046 
L 97.513212 194.749299 
L 98.927691 193.293577 
L 100.34217 183.892378 
L 101.756649 147.11959 
L 103.171128 122.223268 
L 106.000086 154.324841 
L 107.414565 155.069846 
L 108.829044 170.995965 
L 110.243523 179.108659 
L 111.658002 182.562741 
L 113.072481 172.678618 
L 114.48696 165.102041 
L 115.901439 165.476108 
L 117.315918 168.961694 
L 118.730397 154.52452 
L 120.144876 133.07201 
L 121.559356 105.950599 
L 124.388314 63.732116 
L 125.802793 55.770273 
L 127.217272 61.990661 
L 128.631751 62.840068 
L 130.04623 74.648136 
L 131.460709 85.089514 
L 132.875188 91.856947 
L 134.289667 95.137988 
L 135.704146 91.766312 
L 137.118625 94.026297 
L 138.533104 85.876103 
L 139.947583 91.622168 
L 141.362062 93.205209 
L 142.776541 93.026602 
L 144.19102 88.197532 
L 145.605499 90.360454 
L 147.019979 90.02264 
L 148.434458 86.867751 
L 149.848937 84.40418 
L 151.263416 78.058836 
L 152.677895 76.450159 
L 154.092374 67.582274 
L 155.506853 70.575218 
L 156.921332 70.107845 
L 158.335811 66.102598 
L 159.75029 62.584153 
L 161.164769 62.954506 
L 162.579248 61.115916 
L 163.993727 57.664609 
L 165.408206 57.15238 
L 166.822685 51.932125 
L 168.237164 55.5617 
L 169.651643 53.712861 
L 171.066122 55.333433 
L 172.480602 50.226607 
L 173.895081 52.263054 
L 175.30956 49.95675 
L 176.724039 49.388254 
L 178.138518 49.971071 
L 179.552997 51.353863 
L 180.967476 52.463733 
L 182.381955 50.755858 
L 183.796434 48.66829 
L 185.210913 53.461961 
L 186.625392 50.176041 
L 188.039871 53.919717 
L 189.45435 54.055172 
L 190.868829 55.507835 
L 193.697787 54.412357 
L 195.112266 56.341298 
L 196.526745 55.235105 
L 197.941224 60.743582 
L 199.355704 56.854464 
L 200.770183 59.648082 
L 202.184662 63.940963 
L 203.599141 62.176416 
L 205.01362 61.891319 
L 206.428099 62.773005 
L 207.842578 63.135497 
L 209.257057 63.79912 
L 210.671536 67.213602 
L 212.086015 68.471808 
L 213.500494 65.917603 
L 214.914973 66.799953 
L 216.329452 69.515997 
L 217.743931 67.600753 
L 221.987368 75.717497 
L 223.401847 74.888001 
L 226.230806 73.862735 
L 231.888722 77.198096 
L 233.303201 79.146134 
L 234.71768 79.959612 
L 240.375596 79.204941 
L 241.790075 79.360294 
L 243.204554 80.607617 
L 244.619033 80.125935 
L 246.033512 80.520453 
L 251.691429 84.109904 
L 253.105908 86.380593 
L 254.520387 86.68734 
L 255.934866 86.785968 
L 260.178303 85.332451 
L 261.592782 86.363476 
L 263.007261 89.087865 
L 264.42174 90.851324 
L 265.836219 91.520018 
L 270.079656 91.150798 
L 271.494135 92.810683 
L 272.908614 95.542146 
L 274.323093 96.27882 
L 278.566531 96.971243 
L 279.98101 97.67581 
L 281.395489 99.334329 
L 282.809968 100.452253 
L 284.224447 100.58685 
L 289.882363 102.779023 
L 291.296842 105.038053 
L 292.711321 106.003905 
L 294.1258 106.759506 
L 298.369237 108.263042 
L 299.783716 110.145881 
L 301.198195 112.390326 
L 302.612675 113.547448 
L 308.270591 116.663767 
L 309.68507 118.209689 
L 311.099549 120.422416 
L 312.514028 122.364489 
L 316.757465 123.990674 
L 318.171944 124.922826 
L 319.586423 126.217777 
L 321.000902 128.212586 
L 322.415381 129.36271 
L 328.073298 130.086557 
L 329.487777 132.79583 
L 330.902256 134.695026 
L 332.316735 134.25429 
L 336.560172 130.331762 
L 337.974651 130.554054 
L 339.38913 136.458013 
L 340.803609 141.368043 
L 342.218088 141.401526 
L 346.461525 140.343316 
L 347.876004 142.481585 
L 349.290483 142.703856 
L 350.704962 142.674624 
L 354.9484 140.53904 
L 356.362879 140.420473 
L 357.777358 141.053555 
L 359.191837 141.207275 
L 364.849753 139.301953 
L 366.264232 139.423373 
L 367.678711 144.941574 
L 369.09319 149.891463 
L 370.507669 150.154229 
L 373.336627 149.605219 
L 374.751106 149.624835 
L 376.165585 150.345411 
L 378.994544 150.159843 
L 383.237981 150.799023 
L 384.65246 151.547816 
L 386.066939 151.474795 
L 387.481418 150.704711 
L 393.139334 149.392684 
L 394.553813 150.441647 
L 395.968292 153.871169 
L 397.382771 154.838054 
L 401.626208 153.281679 
L 403.040687 153.086709 
L 404.455166 154.381871 
L 405.869646 156.266163 
L 407.284125 157.672091 
L 411.527562 156.678803 
L 412.942041 156.726071 
L 414.35652 157.173061 
L 415.770999 156.141413 
L 422.843394 159.357888 
L 424.257873 158.815364 
L 425.672352 157.074809 
L 427.086831 156.345807 
L 431.330269 156.376788 
L 432.744748 157.213638 
L 433 157.678459 
L 433 157.678459 
" clip-path="url(#p1172954493)" style="fill: none; stroke: #2a788e; stroke-width: 1.5; stroke-linecap: square"/>
   </g>
   <g id="line2d_18">
    <path d="M 63.565714 237.298666 
L 64.980193 237.517788 
L 66.394672 237.533939 
L 67.809151 235.530659 
L 72.052589 235.917331 
L 73.467068 237.247166 
L 74.881547 237.050325 
L 76.296026 239.27057 
L 77.710505 240.182037 
L 79.124984 237.001574 
L 80.539463 237.315312 
L 81.953942 239.173175 
L 83.368421 237.683848 
L 84.7829 234.637213 
L 87.611858 237.680507 
L 89.026337 233.548676 
L 90.440816 235.356023 
L 91.855295 234.831726 
L 93.269774 230.480791 
L 94.684253 217.144894 
L 96.098733 207.349873 
L 98.927691 193.599129 
L 100.34217 177.360791 
L 101.756649 144.843019 
L 103.171128 123.713483 
L 104.585607 127.569464 
L 106.000086 141.355062 
L 107.414565 152.277576 
L 108.829044 166.993176 
L 110.243523 170.881567 
L 111.658002 181.121636 
L 113.072481 169.270011 
L 114.48696 165.884515 
L 115.901439 167.628494 
L 117.315918 168.463288 
L 118.730397 157.634954 
L 121.559356 106.635804 
L 122.973835 81.333367 
L 124.388314 64.73082 
L 125.802793 53.138889 
L 127.217272 55.841547 
L 128.631751 63.542252 
L 130.04623 73.707879 
L 131.460709 85.622456 
L 132.875188 91.219298 
L 134.289667 93.672401 
L 135.704146 93.364143 
L 137.118625 91.771042 
L 138.533104 90.441021 
L 139.947583 91.720154 
L 141.362062 91.82485 
L 142.776541 88.104492 
L 144.19102 93.198298 
L 145.605499 90.258574 
L 147.019979 89.863431 
L 148.434458 84.5319 
L 149.848937 83.986294 
L 151.263416 77.630129 
L 152.677895 78.507429 
L 154.092374 75.107402 
L 155.506853 73.482349 
L 156.921332 68.236299 
L 158.335811 68.44001 
L 162.579248 60.011145 
L 163.993727 51.460557 
L 165.408206 55.602818 
L 166.822685 55.101745 
L 168.237164 55.634665 
L 169.651643 49.377304 
L 171.066122 50.298557 
L 172.480602 48.291768 
L 173.895081 50.970132 
L 175.30956 49.629669 
L 176.724039 51.06371 
L 178.138518 49.802984 
L 179.552997 48.900133 
L 180.967476 51.808961 
L 182.381955 47.970678 
L 183.796434 52.534932 
L 185.210913 50.465798 
L 186.625392 50.891644 
L 188.039871 50.352024 
L 189.45435 55.039256 
L 190.868829 56.824394 
L 192.283308 53.893812 
L 193.697787 56.026179 
L 195.112266 58.813418 
L 196.526745 54.336143 
L 197.941224 59.68581 
L 199.355704 60.37888 
L 200.770183 62.609282 
L 202.184662 63.617472 
L 203.599141 65.149714 
L 205.01362 64.128957 
L 206.428099 65.559036 
L 207.842578 61.485437 
L 209.257057 66.619244 
L 210.671536 66.234498 
L 212.086015 69.085131 
L 213.500494 68.738974 
L 214.914973 72.228193 
L 216.329452 68.194763 
L 217.743931 74.552311 
L 220.572889 75.901671 
L 221.987368 74.558218 
L 223.401847 72.810536 
L 224.816327 73.437629 
L 229.059764 75.764876 
L 230.474243 76.965972 
L 231.888722 79.513422 
L 233.303201 82.7659 
L 234.71768 84.269013 
L 237.546638 84.51145 
L 238.961117 84.805983 
L 240.375596 87.08363 
L 241.790075 85.479925 
L 243.204554 82.858029 
L 244.619033 82.997926 
L 247.447991 85.052619 
L 248.86247 86.344344 
L 250.27695 88.0671 
L 251.691429 87.636118 
L 253.105908 83.536075 
L 258.763824 85.291535 
L 260.178303 88.087351 
L 261.592782 90.215116 
L 263.007261 91.610078 
L 267.250698 91.812518 
L 270.079656 94.15673 
L 271.494135 92.060203 
L 275.737573 94.482501 
L 277.152052 95.591239 
L 278.566531 97.604946 
L 279.98101 96.234397 
L 281.395489 93.720139 
L 282.809968 95.058975 
L 285.638926 98.056838 
L 287.053405 100.186148 
L 288.467884 102.889823 
L 289.882363 104.312905 
L 291.296842 104.8368 
L 295.540279 108.182117 
L 296.954758 110.565348 
L 298.369237 111.37755 
L 299.783716 110.778277 
L 301.198195 110.967726 
L 305.441633 114.82292 
L 306.856112 116.770945 
L 308.270591 117.430407 
L 309.68507 117.111911 
L 313.928507 120.548934 
L 315.342986 122.003482 
L 316.757465 123.695335 
L 318.171944 124.668126 
L 319.586423 124.979193 
L 323.82986 128.116218 
L 325.244339 130.252305 
L 326.658818 132.62846 
L 328.073298 132.829219 
L 335.145693 137.730608 
L 336.560172 136.842221 
L 337.974651 135.431451 
L 339.38913 135.396403 
L 342.218088 136.34495 
L 343.632567 137.058169 
L 345.047046 138.204698 
L 346.461525 140.06654 
L 347.876004 142.80676 
L 352.119441 143.326351 
L 353.533921 143.737875 
L 354.9484 143.96066 
L 356.362879 143.597235 
L 357.777358 143.562807 
L 362.020795 146.897581 
L 363.435274 148.424392 
L 364.849753 147.348311 
L 366.264232 146.541172 
L 371.922148 147.986053 
L 373.336627 148.651115 
L 374.751106 148.431675 
L 376.165585 147.015263 
L 377.580064 147.712403 
L 380.409023 149.419937 
L 381.823502 150.742519 
L 383.237981 151.822796 
L 386.066939 151.1841 
L 390.310376 153.390413 
L 391.724855 154.654618 
L 393.139334 154.85707 
L 394.553813 153.934083 
L 395.968292 153.63329 
L 400.211729 154.948189 
L 401.626208 156.044852 
L 403.040687 155.193244 
L 404.455166 153.451728 
L 405.869646 153.667014 
L 408.698604 154.794578 
L 410.113083 155.78574 
L 411.527562 157.156212 
L 412.942041 157.890535 
L 414.35652 157.94237 
L 418.599957 156.810892 
L 420.014436 156.817087 
L 422.843394 158.191517 
L 428.50131 158.394482 
L 429.915789 158.699388 
L 431.330269 159.868726 
L 433 159.92725 
L 433 159.92725 
" clip-path="url(#p1172954493)" style="fill: none; stroke: #22a884; stroke-width: 1.5; stroke-linecap: square"/>
   </g>
   <g id="line2d_19">
    <path d="M 63.565714 238.890361 
L 66.394672 238.549521 
L 67.809151 236.708325 
L 69.223631 234.579533 
L 72.052589 235.145145 
L 73.467068 236.971919 
L 74.881547 234.858405 
L 76.296026 240.838339 
L 77.710505 235.600821 
L 79.124984 238.681695 
L 80.539463 236.086811 
L 81.953942 239.305237 
L 83.368421 236.300048 
L 84.7829 235.221084 
L 86.197379 235.29824 
L 87.611858 238.274368 
L 89.026337 237.088539 
L 90.440816 237.729871 
L 91.855295 232.857931 
L 93.269774 228.433643 
L 94.684253 218.459708 
L 96.098733 206.647117 
L 97.513212 197.083459 
L 98.927691 192.669654 
L 100.34217 176.108942 
L 101.756649 144.085785 
L 103.171128 121.164246 
L 104.585607 126.154105 
L 106.000086 134.38198 
L 107.414565 148.209561 
L 108.829044 157.779035 
L 110.243523 173.862054 
L 111.658002 177.44503 
L 113.072481 169.512484 
L 114.48696 164.517753 
L 115.901439 168.423191 
L 117.315918 163.441979 
L 118.730397 156.483135 
L 120.144876 139.211398 
L 121.559356 108.508403 
L 122.973835 82.974308 
L 124.388314 60.444009 
L 125.802793 57.516563 
L 127.217272 56.435338 
L 128.631751 62.214451 
L 130.04623 67.188595 
L 131.460709 82.919353 
L 132.875188 86.264431 
L 134.289667 90.430683 
L 135.704146 88.173381 
L 137.118625 88.389175 
L 138.533104 88.384191 
L 139.947583 88.887518 
L 141.362062 88.249515 
L 142.776541 91.177143 
L 144.19102 91.65588 
L 145.605499 90.937672 
L 147.019979 90.544442 
L 148.434458 87.19066 
L 149.848937 82.623326 
L 151.263416 79.097277 
L 152.677895 77.847415 
L 154.092374 75.375279 
L 155.506853 71.240965 
L 156.921332 69.477555 
L 158.335811 68.646876 
L 159.75029 62.960148 
L 161.164769 62.518813 
L 162.579248 58.34651 
L 163.993727 60.213127 
L 165.408206 54.459811 
L 166.822685 55.484113 
L 168.237164 51.229684 
L 169.651643 51.700867 
L 171.066122 46.563191 
L 172.480602 48.864108 
L 173.895081 50.86937 
L 175.30956 46.324117 
L 176.724039 44.443636 
L 178.138518 46.472161 
L 179.552997 50.794681 
L 180.967476 47.020991 
L 182.381955 49.866998 
L 183.796434 48.181964 
L 185.210913 50.145398 
L 186.625392 47.428166 
L 188.039871 49.577983 
L 189.45435 49.440693 
L 190.868829 53.324308 
L 192.283308 49.532874 
L 193.697787 53.616871 
L 195.112266 56.359783 
L 197.941224 53.222091 
L 199.355704 57.732938 
L 200.770183 58.946916 
L 202.184662 58.04559 
L 203.599141 61.950033 
L 205.01362 61.945294 
L 206.428099 60.304095 
L 207.842578 62.535784 
L 209.257057 66.083421 
L 212.086015 67.64542 
L 213.500494 67.14504 
L 214.914973 68.110335 
L 216.329452 71.629944 
L 217.743931 70.81948 
L 219.15841 71.895915 
L 221.987368 74.50911 
L 223.401847 75.219365 
L 226.230806 75.486658 
L 229.059764 75.007351 
L 231.888722 74.322639 
L 233.303201 77.786281 
L 234.71768 81.998484 
L 236.132159 83.623729 
L 237.546638 83.799068 
L 238.961117 83.650243 
L 240.375596 83.37613 
L 241.790075 83.283902 
L 244.619033 85.725404 
L 246.033512 86.9598 
L 248.86247 88.244049 
L 250.27695 88.826242 
L 251.691429 86.978716 
L 253.105908 82.439392 
L 254.520387 83.284576 
L 255.934866 84.543738 
L 257.349345 85.626424 
L 260.178303 86.880511 
L 263.007261 88.524423 
L 264.42174 88.822378 
L 265.836219 89.44727 
L 268.665177 89.662969 
L 270.079656 89.949534 
L 272.908614 93.441804 
L 274.323093 94.422038 
L 275.737573 95.238009 
L 279.98101 96.690052 
L 281.395489 95.713253 
L 282.809968 94.235575 
L 287.053405 101.67616 
L 288.467884 104.055637 
L 289.882363 104.387697 
L 291.296842 103.907261 
L 292.711321 104.701253 
L 294.1258 105.631458 
L 295.540279 106.384904 
L 298.369237 107.507573 
L 302.612675 114.900372 
L 304.027154 116.606125 
L 306.856112 119.491336 
L 308.270591 120.700977 
L 309.68507 121.31544 
L 311.099549 122.087623 
L 313.928507 124.437391 
L 316.757465 126.149144 
L 318.171944 125.819551 
L 319.586423 124.605486 
L 321.000902 124.335431 
L 323.82986 126.833156 
L 328.073298 130.053861 
L 329.487777 132.584979 
L 330.902256 134.114817 
L 332.316735 135.305304 
L 333.731214 135.988493 
L 335.145693 136.416795 
L 336.560172 136.725157 
L 337.974651 136.192454 
L 339.38913 135.795263 
L 340.803609 137.992102 
L 342.218088 139.509005 
L 345.047046 142.186377 
L 347.876004 138.574778 
L 349.290483 137.44538 
L 352.119441 139.357443 
L 354.9484 140.827454 
L 356.362879 142.409323 
L 357.777358 144.309589 
L 359.191837 145.588746 
L 360.606316 146.272185 
L 364.849753 147.666906 
L 366.264232 148.562173 
L 367.678711 149.282991 
L 370.507669 150.129685 
L 373.336627 150.182284 
L 374.751106 148.828029 
L 376.165585 147.284947 
L 377.580064 146.046516 
L 380.409023 147.420419 
L 383.237981 147.991215 
L 384.65246 148.982979 
L 386.066939 150.430176 
L 387.481418 151.454769 
L 388.895897 151.968683 
L 390.310376 152.295351 
L 394.553813 152.678174 
L 395.968292 153.374673 
L 398.79725 155.321903 
L 401.626208 156.344041 
L 403.040687 155.292351 
L 404.455166 153.803343 
L 405.869646 152.585048 
L 408.698604 155.925801 
L 411.527562 158.345514 
L 412.942041 158.752071 
L 414.35652 158.332962 
L 415.770999 158.193965 
L 417.185478 158.220847 
L 422.843394 156.964162 
L 424.257873 157.293303 
L 427.086831 158.915737 
L 429.915789 160.010657 
L 433 161.265393 
L 433 161.265393 
" clip-path="url(#p1172954493)" style="fill: none; stroke: #7ad151; stroke-width: 1.5; stroke-linecap: square"/>
   </g>
   <g id="patch_3">
    <path d="M 54 252 
L 54 34.56 
" style="fill: none; stroke: #000000; stroke-width: 0.8; stroke-linejoin: miter; stroke-linecap: square"/>
   </g>
   <g id="patch_4">
    <path d="M 388.8 252 
L 388.8 34.56 
" style="fill: none; stroke: #000000; stroke-width: 0.8; stroke-linejoin: miter; stroke-linecap: square"/>
   </g>
   <g id="patch_5">
    <path d="M 54 252 
L 388.8 252 
" style="fill: none; stroke: #000000; stroke-width: 0.8; stroke-linejoin: miter; stroke-linecap: square"/>
   </g>
   <g id="patch_6">
    <path d="M 54 34.56 
L 388.8 34.56 
" style="fill: none; stroke: #000000; stroke-width: 0.8; stroke-linejoin: miter; stroke-linecap: square"/>
   </g>
   <g id="text_17">
    <!-- PM6 Normalized NEXAFS -->
    <g transform="translate(147.298125 28.56)scale(0.12 -0.12)">
     <defs>
      <path id="DejaVuSans-50" d="M 1259 4147 
L 1259 2394 
L 2053 2394 
Q 2494 2394 2734 2622 
Q 2975 2850 2975 3272 
Q 2975 3691 2734 3919 
Q 2494 4147 2053 4147 
L 1259 4147 
z
M 628 4666 
L 2053 4666 
Q 2838 4666 3239 4311 
Q 3641 3956 3641 3272 
Q 3641 2581 3239 2228 
Q 2838 1875 2053 1875 
L 1259 1875 
L 1259 0 
L 628 0 
L 628 4666 
z
" transform="scale(0.015625)"/>
      <path id="DejaVuSans-4d" d="M 628 4666 
L 1569 4666 
L 2759 1491 
L 3956 4666 
L 4897 4666 
L 4897 0 
L 4281 0 
L 4281 4097 
L 3078 897 
L 2444 897 
L 1241 4097 
L 1241 0 
L 628 0 
L 628 4666 
z
" transform="scale(0.015625)"/>
      <path id="DejaVuSans-36" d="M 2113 2584 
Q 1688 2584 1439 2293 
Q 1191 2003 1191 1497 
Q 1191 994 1439 701 
Q 1688 409 2113 409 
Q 2538 409 2786 701 
Q 3034 994 3034 1497 
Q 3034 2003 2786 2293 
Q 2538 2584 2113 2584 
z
M 3366 4563 
L 3366 3988 
Q 3128 4100 2886 4159 
Q 2644 4219 2406 4219 
Q 1781 4219 1451 3797 
Q 1122 3375 1075 2522 
Q 1259 2794 1537 2939 
Q 1816 3084 2150 3084 
Q 2853 3084 3261 2657 
Q 3669 2231 3669 1497 
Q 3669 778 3244 343 
Q 2819 -91 2113 -91 
Q 1303 -91 875 529 
Q 447 1150 447 2328 
Q 447 3434 972 4092 
Q 1497 4750 2381 4750 
Q 2619 4750 2861 4703 
Q 3103 4656 3366 4563 
z
" transform="scale(0.015625)"/>
      <path id="DejaVuSans-4e" d="M 628 4666 
L 1478 4666 
L 3547 763 
L 3547 4666 
L 4159 4666 
L 4159 0 
L 3309 0 
L 1241 3903 
L 1241 0 
L 628 0 
L 628 4666 
z
" transform="scale(0.015625)"/>
      <path id="DejaVuSans-6d" d="M 3328 2828 
Q 3544 3216 3844 3400 
Q 4144 3584 4550 3584 
Q 5097 3584 5394 3201 
Q 5691 2819 5691 2113 
L 5691 0 
L 5113 0 
L 5113 2094 
Q 5113 2597 4934 2840 
Q 4756 3084 4391 3084 
Q 3944 3084 3684 2787 
Q 3425 2491 3425 1978 
L 3425 0 
L 2847 0 
L 2847 2094 
Q 2847 2600 2669 2842 
Q 2491 3084 2119 3084 
Q 1678 3084 1418 2786 
Q 1159 2488 1159 1978 
L 1159 0 
L 581 0 
L 581 3500 
L 1159 3500 
L 1159 2956 
Q 1356 3278 1631 3431 
Q 1906 3584 2284 3584 
Q 2666 3584 2933 3390 
Q 3200 3197 3328 2828 
z
" transform="scale(0.015625)"/>
      <path id="DejaVuSans-7a" d="M 353 3500 
L 3084 3500 
L 3084 2975 
L 922 459 
L 3084 459 
L 3084 0 
L 275 0 
L 275 525 
L 2438 3041 
L 353 3041 
L 353 3500 
z
" transform="scale(0.015625)"/>
      <path id="DejaVuSans-45" d="M 628 4666 
L 3578 4666 
L 3578 4134 
L 1259 4134 
L 1259 2753 
L 3481 2753 
L 3481 2222 
L 1259 2222 
L 1259 531 
L 3634 531 
L 3634 0 
L 628 0 
L 628 4666 
z
" transform="scale(0.015625)"/>
      <path id="DejaVuSans-58" d="M 403 4666 
L 1081 4666 
L 2241 2931 
L 3406 4666 
L 4084 4666 
L 2584 2425 
L 4184 0 
L 3506 0 
L 2194 1984 
L 872 0 
L 191 0 
L 1856 2491 
L 403 4666 
z
" transform="scale(0.015625)"/>
      <path id="DejaVuSans-41" d="M 2188 4044 
L 1331 1722 
L 3047 1722 
L 2188 4044 
z
M 1831 4666 
L 2547 4666 
L 4325 0 
L 3669 0 
L 3244 1197 
L 1141 1197 
L 716 0 
L 50 0 
L 1831 4666 
z
" transform="scale(0.015625)"/>
      <path id="DejaVuSans-46" d="M 628 4666 
L 3309 4666 
L 3309 4134 
L 1259 4134 
L 1259 2759 
L 3109 2759 
L 3109 2228 
L 1259 2228 
L 1259 0 
L 628 0 
L 628 4666 
z
" transform="scale(0.015625)"/>
      <path id="DejaVuSans-53" d="M 3425 4513 
L 3425 3897 
Q 3066 4069 2747 4153 
Q 2428 4238 2131 4238 
Q 1616 4238 1336 4038 
Q 1056 3838 1056 3469 
Q 1056 3159 1242 3001 
Q 1428 2844 1947 2747 
L 2328 2669 
Q 3034 2534 3370 2195 
Q 3706 1856 3706 1288 
Q 3706 609 3251 259 
Q 2797 -91 1919 -91 
Q 1588 -91 1214 -16 
Q 841 59 441 206 
L 441 856 
Q 825 641 1194 531 
Q 1563 422 1919 422 
Q 2459 422 2753 634 
Q 3047 847 3047 1241 
Q 3047 1584 2836 1778 
Q 2625 1972 2144 2069 
L 1759 2144 
Q 1053 2284 737 2584 
Q 422 2884 422 3419 
Q 422 4038 858 4394 
Q 1294 4750 2059 4750 
Q 2388 4750 2728 4690 
Q 3069 4631 3425 4513 
z
" transform="scale(0.015625)"/>
     </defs>
     <use xlink:href="#DejaVuSans-50"/>
     <use xlink:href="#DejaVuSans-4d" x="60.302734"/>
     <use xlink:href="#DejaVuSans-36" x="146.582031"/>
     <use xlink:href="#DejaVuSans-20" x="210.205078"/>
     <use xlink:href="#DejaVuSans-4e" x="241.992188"/>
     <use xlink:href="#DejaVuSans-6f" x="316.796875"/>
     <use xlink:href="#DejaVuSans-72" x="377.978516"/>
     <use xlink:href="#DejaVuSans-6d" x="417.341797"/>
     <use xlink:href="#DejaVuSans-61" x="514.753906"/>
     <use xlink:href="#DejaVuSans-6c" x="576.033203"/>
     <use xlink:href="#DejaVuSans-69" x="603.816406"/>
     <use xlink:href="#DejaVuSans-7a" x="631.599609"/>
     <use xlink:href="#DejaVuSans-65" x="684.089844"/>
     <use xlink:href="#DejaVuSans-64" x="745.613281"/>
     <use xlink:href="#DejaVuSans-20" x="809.089844"/>
     <use xlink:href="#DejaVuSans-4e" x="840.876953"/>
     <use xlink:href="#DejaVuSans-45" x="915.681641"/>
     <use xlink:href="#DejaVuSans-58" x="978.865234"/>
     <use xlink:href="#DejaVuSans-41" x="1047.371094"/>
     <use xlink:href="#DejaVuSans-46" x="1115.779297"/>
     <use xlink:href="#DejaVuSans-53" x="1171.548828"/>
    </g>
   </g>
   <g id="legend_1">
    <g id="patch_7">
     <path d="M 332.075 115.950625 
L 381.8 115.950625 
Q 383.8 115.950625 383.8 113.950625 
L 383.8 41.56 
Q 383.8 39.56 381.8 39.56 
L 332.075 39.56 
Q 330.075 39.56 330.075 41.56 
L 330.075 113.950625 
Q 330.075 115.950625 332.075 115.950625 
z
" style="fill: #ffffff; opacity: 0.8; stroke: #cccccc; stroke-linejoin: miter"/>
    </g>
    <g id="line2d_20">
     <path d="M 334.075 47.658437 
L 344.075 47.658437 
L 354.075 47.658437 
" style="fill: none; stroke: #440154; stroke-width: 1.5; stroke-linecap: square"/>
    </g>
    <g id="text_18">
     <!-- 30 -->
     <g transform="translate(362.075 51.158437)scale(0.1 -0.1)">
      <defs>
       <path id="DejaVuSans-b0" d="M 1600 4347 
Q 1350 4347 1178 4173 
Q 1006 4000 1006 3750 
Q 1006 3503 1178 3333 
Q 1350 3163 1600 3163 
Q 1850 3163 2022 3333 
Q 2194 3503 2194 3750 
Q 2194 3997 2020 4172 
Q 1847 4347 1600 4347 
z
M 1600 4750 
Q 1800 4750 1984 4673 
Q 2169 4597 2303 4453 
Q 2447 4313 2519 4134 
Q 2591 3956 2591 3750 
Q 2591 3338 2302 3052 
Q 2013 2766 1594 2766 
Q 1172 2766 890 3047 
Q 609 3328 609 3750 
Q 609 4169 896 4459 
Q 1184 4750 1600 4750 
z
" transform="scale(0.015625)"/>
      </defs>
      <use xlink:href="#DejaVuSans-33"/>
      <use xlink:href="#DejaVuSans-30" x="63.623047"/>
      <use xlink:href="#DejaVuSans-b0" x="127.246094"/>
     </g>
    </g>
    <g id="line2d_21">
     <path d="M 334.075 62.336562 
L 344.075 62.336562 
L 354.075 62.336562 
" style="fill: none; stroke: #414487; stroke-width: 1.5; stroke-linecap: square"/>
    </g>
    <g id="text_19">
     <!-- 40 -->
     <g transform="translate(362.075 65.836562)scale(0.1 -0.1)">
      <defs>
       <path id="DejaVuSans-34" d="M 2419 4116 
L 825 1625 
L 2419 1625 
L 2419 4116 
z
M 2253 4666 
L 3047 4666 
L 3047 1625 
L 3713 1625 
L 3713 1100 
L 3047 1100 
L 3047 0 
L 2419 0 
L 2419 1100 
L 313 1100 
L 313 1709 
L 2253 4666 
z
" transform="scale(0.015625)"/>
      </defs>
      <use xlink:href="#DejaVuSans-34"/>
      <use xlink:href="#DejaVuSans-30" x="63.623047"/>
      <use xlink:href="#DejaVuSans-b0" x="127.246094"/>
     </g>
    </g>
    <g id="line2d_22">
     <path d="M 334.075 77.014687 
L 344.075 77.014687 
L 354.075 77.014687 
" style="fill: none; stroke: #2a788e; stroke-width: 1.5; stroke-linecap: square"/>
    </g>
    <g id="text_20">
     <!-- 55 -->
     <g transform="translate(362.075 80.514687)scale(0.1 -0.1)">
      <use xlink:href="#DejaVuSans-35"/>
      <use xlink:href="#DejaVuSans-35" x="63.623047"/>
      <use xlink:href="#DejaVuSans-b0" x="127.246094"/>
     </g>
    </g>
    <g id="line2d_23">
     <path d="M 334.075 91.692813 
L 344.075 91.692813 
L 354.075 91.692813 
" style="fill: none; stroke: #22a884; stroke-width: 1.5; stroke-linecap: square"/>
    </g>
    <g id="text_21">
     <!-- 70 -->
     <g transform="translate(362.075 95.192813)scale(0.1 -0.1)">
      <defs>
       <path id="DejaVuSans-37" d="M 525 4666 
L 3525 4666 
L 3525 4397 
L 1831 0 
L 1172 0 
L 2766 4134 
L 525 4134 
L 525 4666 
z
" transform="scale(0.015625)"/>
      </defs>
      <use xlink:href="#DejaVuSans-37"/>
      <use xlink:href="#DejaVuSans-30" x="63.623047"/>
      <use xlink:href="#DejaVuSans-b0" x="127.246094"/>
     </g>
    </g>
    <g id="line2d_24">
     <path d="M 334.075 106.370937 
L 344.075 106.370937 
L 354.075 106.370937 
" style="fill: none; stroke: #7ad151; stroke-width: 1.5; stroke-linecap: square"/>
    </g>
    <g id="text_22">
     <!-- 90 -->
     <g transform="translate(362.075 109.870937)scale(0.1 -0.1)">
      <use xlink:href="#DejaVuSans-39"/>
      <use xlink:href="#DejaVuSans-30" x="63.623047"/>
      <use xlink:href="#DejaVuSans-b0" x="127.246094"/>
     </g>
    </g>
   </g>
  </g>
 </g>
 <defs>
  <clipPath id="p1172954493">
   <rect x="54" y="34.56" width="334.8" height="217.44"/>
  </clipPath>
 </defs>
</svg>
