<?xml version="1.0" encoding="utf-8" standalone="no"?>
<!DOCTYPE svg PUBLIC "-//W3C//DTD SVG 1.1//EN"
  "http://www.w3.org/Graphics/SVG/1.1/DTD/svg11.dtd">
<svg xmlns:xlink="http://www.w3.org/1999/xlink" width="432pt" height="288pt" viewBox="0 0 432 288" xmlns="http://www.w3.org/2000/svg" version="1.1">
 <metadata>
  <rdf:RDF xmlns:dc="http://purl.org/dc/elements/1.1/" xmlns:cc="http://creativecommons.org/ns#" xmlns:rdf="http://www.w3.org/1999/02/22-rdf-syntax-ns#">
   <cc:Work>
    <dc:type rdf:resource="http://purl.org/dc/dcmitype/StillImage"/>
    <dc:date>2022-12-02T13:36:33.546661</dc:date>
    <dc:format>image/svg+xml</dc:format>
    <dc:creator>
     <cc:Agent>
      <dc:title>Matplotlib v3.5.1, https://matplotlib.org/</dc:title>
     </cc:Agent>
    </dc:creator>
   </cc:Work>
  </rdf:RDF>
 </metadata>
 <defs>
  <style type="text/css">*{stroke-linejoin: round; stroke-linecap: butt}</style>
 </defs>
 <g id="figure_1">
  <g id="patch_1">
   <path d="M 0 288 
L 432 288 
L 432 0 
L 0 0 
L 0 288 
z
" style="fill: none"/>
  </g>
  <g id="axes_1">
   <g id="patch_2">
    <path d="M 54 252 
L 388.8 252 
L 388.8 34.56 
L 54 34.56 
z
" style="fill: #ffffff"/>
   </g>
   <g id="matplotlib.axis_1">
    <g id="xtick_1">
     <g id="line2d_1">
      <defs>
       <path id="m09f63f3159" d="M 0 0 
L 0 3.5 
" style="stroke: #000000; stroke-width: 0.8"/>
      </defs>
      <g>
       <use xlink:href="#m09f63f3159" x="54" y="252" style="stroke: #000000; stroke-width: 0.8"/>
      </g>
     </g>
     <g id="text_1">
      <!-- 280 -->
      <g transform="translate(44.45625 266.598437)scale(0.1 -0.1)">
       <defs>
        <path id="DejaVuSans-32" d="M 1228 531 
L 3431 531 
L 3431 0 
L 469 0 
L 469 531 
Q 828 903 1448 1529 
Q 2069 2156 2228 2338 
Q 2531 2678 2651 2914 
Q 2772 3150 2772 3378 
Q 2772 3750 2511 3984 
Q 2250 4219 1831 4219 
Q 1534 4219 1204 4116 
Q 875 4013 500 3803 
L 500 4441 
Q 881 4594 1212 4672 
Q 1544 4750 1819 4750 
Q 2544 4750 2975 4387 
Q 3406 4025 3406 3419 
Q 3406 3131 3298 2873 
Q 3191 2616 2906 2266 
Q 2828 2175 2409 1742 
Q 1991 1309 1228 531 
z
" transform="scale(0.015625)"/>
        <path id="DejaVuSans-38" d="M 2034 2216 
Q 1584 2216 1326 1975 
Q 1069 1734 1069 1313 
Q 1069 891 1326 650 
Q 1584 409 2034 409 
Q 2484 409 2743 651 
Q 3003 894 3003 1313 
Q 3003 1734 2745 1975 
Q 2488 2216 2034 2216 
z
M 1403 2484 
Q 997 2584 770 2862 
Q 544 3141 544 3541 
Q 544 4100 942 4425 
Q 1341 4750 2034 4750 
Q 2731 4750 3128 4425 
Q 3525 4100 3525 3541 
Q 3525 3141 3298 2862 
Q 3072 2584 2669 2484 
Q 3125 2378 3379 2068 
Q 3634 1759 3634 1313 
Q 3634 634 3220 271 
Q 2806 -91 2034 -91 
Q 1263 -91 848 271 
Q 434 634 434 1313 
Q 434 1759 690 2068 
Q 947 2378 1403 2484 
z
M 1172 3481 
Q 1172 3119 1398 2916 
Q 1625 2713 2034 2713 
Q 2441 2713 2670 2916 
Q 2900 3119 2900 3481 
Q 2900 3844 2670 4047 
Q 2441 4250 2034 4250 
Q 1625 4250 1398 4047 
Q 1172 3844 1172 3481 
z
" transform="scale(0.015625)"/>
        <path id="DejaVuSans-30" d="M 2034 4250 
Q 1547 4250 1301 3770 
Q 1056 3291 1056 2328 
Q 1056 1369 1301 889 
Q 1547 409 2034 409 
Q 2525 409 2770 889 
Q 3016 1369 3016 2328 
Q 3016 3291 2770 3770 
Q 2525 4250 2034 4250 
z
M 2034 4750 
Q 2819 4750 3233 4129 
Q 3647 3509 3647 2328 
Q 3647 1150 3233 529 
Q 2819 -91 2034 -91 
Q 1250 -91 836 529 
Q 422 1150 422 2328 
Q 422 3509 836 4129 
Q 1250 4750 2034 4750 
z
" transform="scale(0.015625)"/>
       </defs>
       <use xlink:href="#DejaVuSans-32"/>
       <use xlink:href="#DejaVuSans-38" x="63.623047"/>
       <use xlink:href="#DejaVuSans-30" x="127.246094"/>
      </g>
     </g>
    </g>
    <g id="xtick_2">
     <g id="line2d_2">
      <g>
       <use xlink:href="#m09f63f3159" x="101.828571" y="252" style="stroke: #000000; stroke-width: 0.8"/>
      </g>
     </g>
     <g id="text_2">
      <!-- 285 -->
      <g transform="translate(92.284821 266.598437)scale(0.1 -0.1)">
       <defs>
        <path id="DejaVuSans-35" d="M 691 4666 
L 3169 4666 
L 3169 4134 
L 1269 4134 
L 1269 2991 
Q 1406 3038 1543 3061 
Q 1681 3084 1819 3084 
Q 2600 3084 3056 2656 
Q 3513 2228 3513 1497 
Q 3513 744 3044 326 
Q 2575 -91 1722 -91 
Q 1428 -91 1123 -41 
Q 819 9 494 109 
L 494 744 
Q 775 591 1075 516 
Q 1375 441 1709 441 
Q 2250 441 2565 725 
Q 2881 1009 2881 1497 
Q 2881 1984 2565 2268 
Q 2250 2553 1709 2553 
Q 1456 2553 1204 2497 
Q 953 2441 691 2322 
L 691 4666 
z
" transform="scale(0.015625)"/>
       </defs>
       <use xlink:href="#DejaVuSans-32"/>
       <use xlink:href="#DejaVuSans-38" x="63.623047"/>
       <use xlink:href="#DejaVuSans-35" x="127.246094"/>
      </g>
     </g>
    </g>
    <g id="xtick_3">
     <g id="line2d_3">
      <g>
       <use xlink:href="#m09f63f3159" x="149.657143" y="252" style="stroke: #000000; stroke-width: 0.8"/>
      </g>
     </g>
     <g id="text_3">
      <!-- 290 -->
      <g transform="translate(140.113393 266.598437)scale(0.1 -0.1)">
       <defs>
        <path id="DejaVuSans-39" d="M 703 97 
L 703 672 
Q 941 559 1184 500 
Q 1428 441 1663 441 
Q 2288 441 2617 861 
Q 2947 1281 2994 2138 
Q 2813 1869 2534 1725 
Q 2256 1581 1919 1581 
Q 1219 1581 811 2004 
Q 403 2428 403 3163 
Q 403 3881 828 4315 
Q 1253 4750 1959 4750 
Q 2769 4750 3195 4129 
Q 3622 3509 3622 2328 
Q 3622 1225 3098 567 
Q 2575 -91 1691 -91 
Q 1453 -91 1209 -44 
Q 966 3 703 97 
z
M 1959 2075 
Q 2384 2075 2632 2365 
Q 2881 2656 2881 3163 
Q 2881 3666 2632 3958 
Q 2384 4250 1959 4250 
Q 1534 4250 1286 3958 
Q 1038 3666 1038 3163 
Q 1038 2656 1286 2365 
Q 1534 2075 1959 2075 
z
" transform="scale(0.015625)"/>
       </defs>
       <use xlink:href="#DejaVuSans-32"/>
       <use xlink:href="#DejaVuSans-39" x="63.623047"/>
       <use xlink:href="#DejaVuSans-30" x="127.246094"/>
      </g>
     </g>
    </g>
    <g id="xtick_4">
     <g id="line2d_4">
      <g>
       <use xlink:href="#m09f63f3159" x="197.485714" y="252" style="stroke: #000000; stroke-width: 0.8"/>
      </g>
     </g>
     <g id="text_4">
      <!-- 295 -->
      <g transform="translate(187.941964 266.598437)scale(0.1 -0.1)">
       <use xlink:href="#DejaVuSans-32"/>
       <use xlink:href="#DejaVuSans-39" x="63.623047"/>
       <use xlink:href="#DejaVuSans-35" x="127.246094"/>
      </g>
     </g>
    </g>
    <g id="xtick_5">
     <g id="line2d_5">
      <g>
       <use xlink:href="#m09f63f3159" x="245.314286" y="252" style="stroke: #000000; stroke-width: 0.8"/>
      </g>
     </g>
     <g id="text_5">
      <!-- 300 -->
      <g transform="translate(235.770536 266.598437)scale(0.1 -0.1)">
       <defs>
        <path id="DejaVuSans-33" d="M 2597 2516 
Q 3050 2419 3304 2112 
Q 3559 1806 3559 1356 
Q 3559 666 3084 287 
Q 2609 -91 1734 -91 
Q 1441 -91 1130 -33 
Q 819 25 488 141 
L 488 750 
Q 750 597 1062 519 
Q 1375 441 1716 441 
Q 2309 441 2620 675 
Q 2931 909 2931 1356 
Q 2931 1769 2642 2001 
Q 2353 2234 1838 2234 
L 1294 2234 
L 1294 2753 
L 1863 2753 
Q 2328 2753 2575 2939 
Q 2822 3125 2822 3475 
Q 2822 3834 2567 4026 
Q 2313 4219 1838 4219 
Q 1578 4219 1281 4162 
Q 984 4106 628 3988 
L 628 4550 
Q 988 4650 1302 4700 
Q 1616 4750 1894 4750 
Q 2613 4750 3031 4423 
Q 3450 4097 3450 3541 
Q 3450 3153 3228 2886 
Q 3006 2619 2597 2516 
z
" transform="scale(0.015625)"/>
       </defs>
       <use xlink:href="#DejaVuSans-33"/>
       <use xlink:href="#DejaVuSans-30" x="63.623047"/>
       <use xlink:href="#DejaVuSans-30" x="127.246094"/>
      </g>
     </g>
    </g>
    <g id="xtick_6">
     <g id="line2d_6">
      <g>
       <use xlink:href="#m09f63f3159" x="293.142857" y="252" style="stroke: #000000; stroke-width: 0.8"/>
      </g>
     </g>
     <g id="text_6">
      <!-- 305 -->
      <g transform="translate(283.599107 266.598437)scale(0.1 -0.1)">
       <use xlink:href="#DejaVuSans-33"/>
       <use xlink:href="#DejaVuSans-30" x="63.623047"/>
       <use xlink:href="#DejaVuSans-35" x="127.246094"/>
      </g>
     </g>
    </g>
    <g id="xtick_7">
     <g id="line2d_7">
      <g>
       <use xlink:href="#m09f63f3159" x="340.971429" y="252" style="stroke: #000000; stroke-width: 0.8"/>
      </g>
     </g>
     <g id="text_7">
      <!-- 310 -->
      <g transform="translate(331.427679 266.598437)scale(0.1 -0.1)">
       <defs>
        <path id="DejaVuSans-31" d="M 794 531 
L 1825 531 
L 1825 4091 
L 703 3866 
L 703 4441 
L 1819 4666 
L 2450 4666 
L 2450 531 
L 3481 531 
L 3481 0 
L 794 0 
L 794 531 
z
" transform="scale(0.015625)"/>
       </defs>
       <use xlink:href="#DejaVuSans-33"/>
       <use xlink:href="#DejaVuSans-31" x="63.623047"/>
       <use xlink:href="#DejaVuSans-30" x="127.246094"/>
      </g>
     </g>
    </g>
    <g id="xtick_8">
     <g id="line2d_8">
      <g>
       <use xlink:href="#m09f63f3159" x="388.8" y="252" style="stroke: #000000; stroke-width: 0.8"/>
      </g>
     </g>
     <g id="text_8">
      <!-- 315 -->
      <g transform="translate(379.25625 266.598437)scale(0.1 -0.1)">
       <use xlink:href="#DejaVuSans-33"/>
       <use xlink:href="#DejaVuSans-31" x="63.623047"/>
       <use xlink:href="#DejaVuSans-35" x="127.246094"/>
      </g>
     </g>
    </g>
    <g id="text_9">
     <!-- energy [eV] -->
     <g transform="translate(191.989062 280.276563)scale(0.1 -0.1)">
      <defs>
       <path id="DejaVuSans-65" d="M 3597 1894 
L 3597 1613 
L 953 1613 
Q 991 1019 1311 708 
Q 1631 397 2203 397 
Q 2534 397 2845 478 
Q 3156 559 3463 722 
L 3463 178 
Q 3153 47 2828 -22 
Q 2503 -91 2169 -91 
Q 1331 -91 842 396 
Q 353 884 353 1716 
Q 353 2575 817 3079 
Q 1281 3584 2069 3584 
Q 2775 3584 3186 3129 
Q 3597 2675 3597 1894 
z
M 3022 2063 
Q 3016 2534 2758 2815 
Q 2500 3097 2075 3097 
Q 1594 3097 1305 2825 
Q 1016 2553 972 2059 
L 3022 2063 
z
" transform="scale(0.015625)"/>
       <path id="DejaVuSans-6e" d="M 3513 2113 
L 3513 0 
L 2938 0 
L 2938 2094 
Q 2938 2591 2744 2837 
Q 2550 3084 2163 3084 
Q 1697 3084 1428 2787 
Q 1159 2491 1159 1978 
L 1159 0 
L 581 0 
L 581 3500 
L 1159 3500 
L 1159 2956 
Q 1366 3272 1645 3428 
Q 1925 3584 2291 3584 
Q 2894 3584 3203 3211 
Q 3513 2838 3513 2113 
z
" transform="scale(0.015625)"/>
       <path id="DejaVuSans-72" d="M 2631 2963 
Q 2534 3019 2420 3045 
Q 2306 3072 2169 3072 
Q 1681 3072 1420 2755 
Q 1159 2438 1159 1844 
L 1159 0 
L 581 0 
L 581 3500 
L 1159 3500 
L 1159 2956 
Q 1341 3275 1631 3429 
Q 1922 3584 2338 3584 
Q 2397 3584 2469 3576 
Q 2541 3569 2628 3553 
L 2631 2963 
z
" transform="scale(0.015625)"/>
       <path id="DejaVuSans-67" d="M 2906 1791 
Q 2906 2416 2648 2759 
Q 2391 3103 1925 3103 
Q 1463 3103 1205 2759 
Q 947 2416 947 1791 
Q 947 1169 1205 825 
Q 1463 481 1925 481 
Q 2391 481 2648 825 
Q 2906 1169 2906 1791 
z
M 3481 434 
Q 3481 -459 3084 -895 
Q 2688 -1331 1869 -1331 
Q 1566 -1331 1297 -1286 
Q 1028 -1241 775 -1147 
L 775 -588 
Q 1028 -725 1275 -790 
Q 1522 -856 1778 -856 
Q 2344 -856 2625 -561 
Q 2906 -266 2906 331 
L 2906 616 
Q 2728 306 2450 153 
Q 2172 0 1784 0 
Q 1141 0 747 490 
Q 353 981 353 1791 
Q 353 2603 747 3093 
Q 1141 3584 1784 3584 
Q 2172 3584 2450 3431 
Q 2728 3278 2906 2969 
L 2906 3500 
L 3481 3500 
L 3481 434 
z
" transform="scale(0.015625)"/>
       <path id="DejaVuSans-79" d="M 2059 -325 
Q 1816 -950 1584 -1140 
Q 1353 -1331 966 -1331 
L 506 -1331 
L 506 -850 
L 844 -850 
Q 1081 -850 1212 -737 
Q 1344 -625 1503 -206 
L 1606 56 
L 191 3500 
L 800 3500 
L 1894 763 
L 2988 3500 
L 3597 3500 
L 2059 -325 
z
" transform="scale(0.015625)"/>
       <path id="DejaVuSans-20" transform="scale(0.015625)"/>
       <path id="DejaVuSans-5b" d="M 550 4863 
L 1875 4863 
L 1875 4416 
L 1125 4416 
L 1125 -397 
L 1875 -397 
L 1875 -844 
L 550 -844 
L 550 4863 
z
" transform="scale(0.015625)"/>
       <path id="DejaVuSans-56" d="M 1831 0 
L 50 4666 
L 709 4666 
L 2188 738 
L 3669 4666 
L 4325 4666 
L 2547 0 
L 1831 0 
z
" transform="scale(0.015625)"/>
       <path id="DejaVuSans-5d" d="M 1947 4863 
L 1947 -844 
L 622 -844 
L 622 -397 
L 1369 -397 
L 1369 4416 
L 622 4416 
L 622 4863 
L 1947 4863 
z
" transform="scale(0.015625)"/>
      </defs>
      <use xlink:href="#DejaVuSans-65"/>
      <use xlink:href="#DejaVuSans-6e" x="61.523438"/>
      <use xlink:href="#DejaVuSans-65" x="124.902344"/>
      <use xlink:href="#DejaVuSans-72" x="186.425781"/>
      <use xlink:href="#DejaVuSans-67" x="225.789062"/>
      <use xlink:href="#DejaVuSans-79" x="289.265625"/>
      <use xlink:href="#DejaVuSans-20" x="348.445312"/>
      <use xlink:href="#DejaVuSans-5b" x="380.232422"/>
      <use xlink:href="#DejaVuSans-65" x="419.246094"/>
      <use xlink:href="#DejaVuSans-56" x="480.769531"/>
      <use xlink:href="#DejaVuSans-5d" x="549.177734"/>
     </g>
    </g>
   </g>
   <g id="matplotlib.axis_2">
    <g id="ytick_1">
     <g id="line2d_9">
      <defs>
       <path id="m35f0343d03" d="M 0 0 
L -3.5 0 
" style="stroke: #000000; stroke-width: 0.8"/>
      </defs>
      <g>
       <use xlink:href="#m35f0343d03" x="54" y="236.666704" style="stroke: #000000; stroke-width: 0.8"/>
      </g>
     </g>
     <g id="text_10">
      <!-- 0.0 -->
      <g transform="translate(31.096875 240.465923)scale(0.1 -0.1)">
       <defs>
        <path id="DejaVuSans-2e" d="M 684 794 
L 1344 794 
L 1344 0 
L 684 0 
L 684 794 
z
" transform="scale(0.015625)"/>
       </defs>
       <use xlink:href="#DejaVuSans-30"/>
       <use xlink:href="#DejaVuSans-2e" x="63.623047"/>
       <use xlink:href="#DejaVuSans-30" x="95.410156"/>
      </g>
     </g>
    </g>
    <g id="ytick_2">
     <g id="line2d_10">
      <g>
       <use xlink:href="#m35f0343d03" x="54" y="211.63711" style="stroke: #000000; stroke-width: 0.8"/>
      </g>
     </g>
     <g id="text_11">
      <!-- 0.5 -->
      <g transform="translate(31.096875 215.436329)scale(0.1 -0.1)">
       <use xlink:href="#DejaVuSans-30"/>
       <use xlink:href="#DejaVuSans-2e" x="63.623047"/>
       <use xlink:href="#DejaVuSans-35" x="95.410156"/>
      </g>
     </g>
    </g>
    <g id="ytick_3">
     <g id="line2d_11">
      <g>
       <use xlink:href="#m35f0343d03" x="54" y="186.607517" style="stroke: #000000; stroke-width: 0.8"/>
      </g>
     </g>
     <g id="text_12">
      <!-- 1.0 -->
      <g transform="translate(31.096875 190.406735)scale(0.1 -0.1)">
       <use xlink:href="#DejaVuSans-31"/>
       <use xlink:href="#DejaVuSans-2e" x="63.623047"/>
       <use xlink:href="#DejaVuSans-30" x="95.410156"/>
      </g>
     </g>
    </g>
    <g id="ytick_4">
     <g id="line2d_12">
      <g>
       <use xlink:href="#m35f0343d03" x="54" y="161.577923" style="stroke: #000000; stroke-width: 0.8"/>
      </g>
     </g>
     <g id="text_13">
      <!-- 1.5 -->
      <g transform="translate(31.096875 165.377142)scale(0.1 -0.1)">
       <use xlink:href="#DejaVuSans-31"/>
       <use xlink:href="#DejaVuSans-2e" x="63.623047"/>
       <use xlink:href="#DejaVuSans-35" x="95.410156"/>
      </g>
     </g>
    </g>
    <g id="ytick_5">
     <g id="line2d_13">
      <g>
       <use xlink:href="#m35f0343d03" x="54" y="136.548329" style="stroke: #000000; stroke-width: 0.8"/>
      </g>
     </g>
     <g id="text_14">
      <!-- 2.0 -->
      <g transform="translate(31.096875 140.347548)scale(0.1 -0.1)">
       <use xlink:href="#DejaVuSans-32"/>
       <use xlink:href="#DejaVuSans-2e" x="63.623047"/>
       <use xlink:href="#DejaVuSans-30" x="95.410156"/>
      </g>
     </g>
    </g>
    <g id="ytick_6">
     <g id="line2d_14">
      <g>
       <use xlink:href="#m35f0343d03" x="54" y="111.518736" style="stroke: #000000; stroke-width: 0.8"/>
      </g>
     </g>
     <g id="text_15">
      <!-- 2.5 -->
      <g transform="translate(31.096875 115.317954)scale(0.1 -0.1)">
       <use xlink:href="#DejaVuSans-32"/>
       <use xlink:href="#DejaVuSans-2e" x="63.623047"/>
       <use xlink:href="#DejaVuSans-35" x="95.410156"/>
      </g>
     </g>
    </g>
    <g id="ytick_7">
     <g id="line2d_15">
      <g>
       <use xlink:href="#m35f0343d03" x="54" y="86.489142" style="stroke: #000000; stroke-width: 0.8"/>
      </g>
     </g>
     <g id="text_16">
      <!-- 3.0 -->
      <g transform="translate(31.096875 90.288361)scale(0.1 -0.1)">
       <use xlink:href="#DejaVuSans-33"/>
       <use xlink:href="#DejaVuSans-2e" x="63.623047"/>
       <use xlink:href="#DejaVuSans-30" x="95.410156"/>
      </g>
     </g>
    </g>
    <g id="ytick_8">
     <g id="line2d_16">
      <g>
       <use xlink:href="#m35f0343d03" x="54" y="61.459548" style="stroke: #000000; stroke-width: 0.8"/>
      </g>
     </g>
     <g id="text_17">
      <!-- 3.5 -->
      <g transform="translate(31.096875 65.258767)scale(0.1 -0.1)">
       <use xlink:href="#DejaVuSans-33"/>
       <use xlink:href="#DejaVuSans-2e" x="63.623047"/>
       <use xlink:href="#DejaVuSans-35" x="95.410156"/>
      </g>
     </g>
    </g>
    <g id="ytick_9">
     <g id="line2d_17">
      <g>
       <use xlink:href="#m35f0343d03" x="54" y="36.429954" style="stroke: #000000; stroke-width: 0.8"/>
      </g>
     </g>
     <g id="text_18">
      <!-- 4.0 -->
      <g transform="translate(31.096875 40.229173)scale(0.1 -0.1)">
       <defs>
        <path id="DejaVuSans-34" d="M 2419 4116 
L 825 1625 
L 2419 1625 
L 2419 4116 
z
M 2253 4666 
L 3047 4666 
L 3047 1625 
L 3713 1625 
L 3713 1100 
L 3047 1100 
L 3047 0 
L 2419 0 
L 2419 1100 
L 313 1100 
L 313 1709 
L 2253 4666 
z
" transform="scale(0.015625)"/>
       </defs>
       <use xlink:href="#DejaVuSans-34"/>
       <use xlink:href="#DejaVuSans-2e" x="63.623047"/>
       <use xlink:href="#DejaVuSans-30" x="95.410156"/>
      </g>
     </g>
    </g>
    <g id="text_19">
     <!-- electron_yield [a.u.] -->
     <g transform="translate(24.739062 193.0925)rotate(-90)scale(0.1 -0.1)">
      <defs>
       <path id="DejaVuSans-6c" d="M 603 4863 
L 1178 4863 
L 1178 0 
L 603 0 
L 603 4863 
z
" transform="scale(0.015625)"/>
       <path id="DejaVuSans-63" d="M 3122 3366 
L 3122 2828 
Q 2878 2963 2633 3030 
Q 2388 3097 2138 3097 
Q 1578 3097 1268 2742 
Q 959 2388 959 1747 
Q 959 1106 1268 751 
Q 1578 397 2138 397 
Q 2388 397 2633 464 
Q 2878 531 3122 666 
L 3122 134 
Q 2881 22 2623 -34 
Q 2366 -91 2075 -91 
Q 1284 -91 818 406 
Q 353 903 353 1747 
Q 353 2603 823 3093 
Q 1294 3584 2113 3584 
Q 2378 3584 2631 3529 
Q 2884 3475 3122 3366 
z
" transform="scale(0.015625)"/>
       <path id="DejaVuSans-74" d="M 1172 4494 
L 1172 3500 
L 2356 3500 
L 2356 3053 
L 1172 3053 
L 1172 1153 
Q 1172 725 1289 603 
Q 1406 481 1766 481 
L 2356 481 
L 2356 0 
L 1766 0 
Q 1100 0 847 248 
Q 594 497 594 1153 
L 594 3053 
L 172 3053 
L 172 3500 
L 594 3500 
L 594 4494 
L 1172 4494 
z
" transform="scale(0.015625)"/>
       <path id="DejaVuSans-6f" d="M 1959 3097 
Q 1497 3097 1228 2736 
Q 959 2375 959 1747 
Q 959 1119 1226 758 
Q 1494 397 1959 397 
Q 2419 397 2687 759 
Q 2956 1122 2956 1747 
Q 2956 2369 2687 2733 
Q 2419 3097 1959 3097 
z
M 1959 3584 
Q 2709 3584 3137 3096 
Q 3566 2609 3566 1747 
Q 3566 888 3137 398 
Q 2709 -91 1959 -91 
Q 1206 -91 779 398 
Q 353 888 353 1747 
Q 353 2609 779 3096 
Q 1206 3584 1959 3584 
z
" transform="scale(0.015625)"/>
       <path id="DejaVuSans-5f" d="M 3263 -1063 
L 3263 -1509 
L -63 -1509 
L -63 -1063 
L 3263 -1063 
z
" transform="scale(0.015625)"/>
       <path id="DejaVuSans-69" d="M 603 3500 
L 1178 3500 
L 1178 0 
L 603 0 
L 603 3500 
z
M 603 4863 
L 1178 4863 
L 1178 4134 
L 603 4134 
L 603 4863 
z
" transform="scale(0.015625)"/>
       <path id="DejaVuSans-64" d="M 2906 2969 
L 2906 4863 
L 3481 4863 
L 3481 0 
L 2906 0 
L 2906 525 
Q 2725 213 2448 61 
Q 2172 -91 1784 -91 
Q 1150 -91 751 415 
Q 353 922 353 1747 
Q 353 2572 751 3078 
Q 1150 3584 1784 3584 
Q 2172 3584 2448 3432 
Q 2725 3281 2906 2969 
z
M 947 1747 
Q 947 1113 1208 752 
Q 1469 391 1925 391 
Q 2381 391 2643 752 
Q 2906 1113 2906 1747 
Q 2906 2381 2643 2742 
Q 2381 3103 1925 3103 
Q 1469 3103 1208 2742 
Q 947 2381 947 1747 
z
" transform="scale(0.015625)"/>
       <path id="DejaVuSans-61" d="M 2194 1759 
Q 1497 1759 1228 1600 
Q 959 1441 959 1056 
Q 959 750 1161 570 
Q 1363 391 1709 391 
Q 2188 391 2477 730 
Q 2766 1069 2766 1631 
L 2766 1759 
L 2194 1759 
z
M 3341 1997 
L 3341 0 
L 2766 0 
L 2766 531 
Q 2569 213 2275 61 
Q 1981 -91 1556 -91 
Q 1019 -91 701 211 
Q 384 513 384 1019 
Q 384 1609 779 1909 
Q 1175 2209 1959 2209 
L 2766 2209 
L 2766 2266 
Q 2766 2663 2505 2880 
Q 2244 3097 1772 3097 
Q 1472 3097 1187 3025 
Q 903 2953 641 2809 
L 641 3341 
Q 956 3463 1253 3523 
Q 1550 3584 1831 3584 
Q 2591 3584 2966 3190 
Q 3341 2797 3341 1997 
z
" transform="scale(0.015625)"/>
       <path id="DejaVuSans-75" d="M 544 1381 
L 544 3500 
L 1119 3500 
L 1119 1403 
Q 1119 906 1312 657 
Q 1506 409 1894 409 
Q 2359 409 2629 706 
Q 2900 1003 2900 1516 
L 2900 3500 
L 3475 3500 
L 3475 0 
L 2900 0 
L 2900 538 
Q 2691 219 2414 64 
Q 2138 -91 1772 -91 
Q 1169 -91 856 284 
Q 544 659 544 1381 
z
M 1991 3584 
L 1991 3584 
z
" transform="scale(0.015625)"/>
      </defs>
      <use xlink:href="#DejaVuSans-65"/>
      <use xlink:href="#DejaVuSans-6c" x="61.523438"/>
      <use xlink:href="#DejaVuSans-65" x="89.306641"/>
      <use xlink:href="#DejaVuSans-63" x="150.830078"/>
      <use xlink:href="#DejaVuSans-74" x="205.810547"/>
      <use xlink:href="#DejaVuSans-72" x="245.019531"/>
      <use xlink:href="#DejaVuSans-6f" x="283.882812"/>
      <use xlink:href="#DejaVuSans-6e" x="345.064453"/>
      <use xlink:href="#DejaVuSans-5f" x="408.443359"/>
      <use xlink:href="#DejaVuSans-79" x="458.443359"/>
      <use xlink:href="#DejaVuSans-69" x="517.623047"/>
      <use xlink:href="#DejaVuSans-65" x="545.40625"/>
      <use xlink:href="#DejaVuSans-6c" x="606.929688"/>
      <use xlink:href="#DejaVuSans-64" x="634.712891"/>
      <use xlink:href="#DejaVuSans-20" x="698.189453"/>
      <use xlink:href="#DejaVuSans-5b" x="729.976562"/>
      <use xlink:href="#DejaVuSans-61" x="768.990234"/>
      <use xlink:href="#DejaVuSans-2e" x="830.269531"/>
      <use xlink:href="#DejaVuSans-75" x="862.056641"/>
      <use xlink:href="#DejaVuSans-2e" x="925.435547"/>
      <use xlink:href="#DejaVuSans-5d" x="957.222656"/>
     </g>
    </g>
   </g>
   <g id="line2d_18">
    <path d="M 63.565714 239.006643 
L 66.394672 237.61987 
L 67.809151 236.500308 
L 70.63811 233.796011 
L 72.052589 236.184702 
L 73.467068 238.817586 
L 74.881547 238.454595 
L 76.296026 235.624286 
L 77.710505 237.687293 
L 79.124984 233.434498 
L 80.539463 235.281117 
L 81.953942 239.154958 
L 83.368421 239.105869 
L 84.7829 235.051862 
L 86.197379 237.08621 
L 87.611858 237.191636 
L 89.026337 234.478904 
L 90.440816 235.446557 
L 93.269774 237.853801 
L 94.684253 224.862957 
L 96.098733 217.973255 
L 97.513212 209.719136 
L 98.927691 209.187851 
L 100.34217 204.779006 
L 101.756649 189.178386 
L 103.171128 169.258209 
L 104.585607 155.133574 
L 106.000086 162.864843 
L 107.414565 175.788114 
L 108.829044 187.166818 
L 110.243523 189.9004 
L 111.658002 201.489541 
L 113.072481 206.062904 
L 114.48696 205.013334 
L 115.901439 197.001505 
L 117.315918 187.089696 
L 118.730397 175.310769 
L 122.973835 88.667638 
L 124.388314 70.133484 
L 125.802793 63.009729 
L 127.217272 59.367731 
L 128.631751 62.287307 
L 130.04623 67.675674 
L 131.460709 75.370603 
L 134.289667 87.746633 
L 135.704146 89.478569 
L 137.118625 91.855628 
L 138.533104 90.194417 
L 139.947583 91.529283 
L 141.362062 90.9563 
L 142.776541 91.744307 
L 144.19102 92.078637 
L 145.605499 91.408797 
L 147.019979 90.470776 
L 148.434458 86.249478 
L 149.848937 87.13875 
L 151.263416 86.661439 
L 152.677895 86.319898 
L 154.092374 77.407516 
L 155.506853 80.568025 
L 156.921332 74.484345 
L 158.335811 76.20199 
L 159.75029 73.716125 
L 161.164769 70.659294 
L 162.579248 62.760547 
L 163.993727 66.104368 
L 165.408206 63.889843 
L 166.822685 58.646267 
L 168.237164 58.238669 
L 169.651643 56.179199 
L 171.066122 52.575914 
L 172.480602 53.228013 
L 173.895081 52.701243 
L 175.30956 51.877058 
L 176.724039 51.493785 
L 178.138518 51.804211 
L 179.552997 49.697636 
L 180.967476 54.510414 
L 182.381955 55.990203 
L 183.796434 58.533605 
L 185.210913 59.007613 
L 186.625392 57.867457 
L 188.039871 59.724233 
L 189.45435 60.951672 
L 190.868829 64.783631 
L 193.697787 66.047509 
L 195.112266 65.547224 
L 196.526745 65.661398 
L 197.941224 71.178712 
L 199.355704 69.782927 
L 200.770183 70.859306 
L 202.184662 68.835931 
L 203.599141 74.207981 
L 205.01362 75.092331 
L 206.428099 73.414002 
L 207.842578 74.375375 
L 209.257057 72.28812 
L 210.671536 72.693071 
L 212.086015 75.115491 
L 213.500494 77.094005 
L 214.914973 74.13588 
L 216.329452 76.402406 
L 217.743931 78.209276 
L 219.15841 77.057629 
L 220.572889 76.904519 
L 221.987368 78.290679 
L 224.816327 77.743493 
L 229.059764 77.129193 
L 231.888722 82.462241 
L 237.546638 82.056418 
L 238.961117 82.224672 
L 240.375596 84.196102 
L 241.790075 84.39261 
L 247.447991 82.781668 
L 248.86247 83.863839 
L 250.27695 86.222917 
L 254.520387 87.00472 
L 257.349345 87.492211 
L 258.763824 89.094258 
L 260.178303 91.083672 
L 261.592782 92.083524 
L 267.250698 93.540298 
L 268.665177 94.79976 
L 270.079656 94.969308 
L 271.494135 95.569118 
L 277.152052 98.648093 
L 279.98101 98.837392 
L 285.638926 105.653853 
L 288.467884 105.174666 
L 289.882363 105.760626 
L 295.540279 112.427225 
L 296.954758 112.36372 
L 298.369237 113.515675 
L 304.027154 116.440483 
L 305.441633 117.888831 
L 306.856112 121.282843 
L 308.270591 122.196917 
L 313.928507 124.950133 
L 315.342986 126.504527 
L 316.757465 128.820929 
L 318.171944 130.373329 
L 323.82986 131.836747 
L 325.244339 132.429498 
L 326.658818 134.829881 
L 332.316735 136.170771 
L 333.731214 136.63399 
L 336.560172 138.062422 
L 339.38913 139.183666 
L 342.218088 140.396695 
L 343.632567 140.63646 
L 345.047046 140.706822 
L 346.461525 140.997116 
L 352.119441 142.982103 
L 353.533921 144.259191 
L 354.9484 146.147028 
L 356.362879 146.869952 
L 362.020795 146.039409 
L 363.435274 145.970989 
L 364.849753 146.07099 
L 371.922148 149.245278 
L 373.336627 149.978833 
L 374.751106 150.478552 
L 380.409023 149.301468 
L 381.823502 149.697085 
L 383.237981 149.131975 
L 384.65246 150.02496 
L 390.310376 151.407197 
L 391.724855 154.131269 
L 393.139334 156.201972 
L 394.553813 157.435983 
L 398.79725 157.015296 
L 400.211729 157.04109 
L 401.626208 156.65211 
L 404.455166 158.032957 
L 408.698604 160.000263 
L 410.113083 160.511534 
L 411.527562 160.474842 
L 412.942041 160.28362 
L 418.599957 160.073584 
L 420.014436 161.171184 
L 421.428915 161.844946 
L 427.086831 161.102104 
L 428.50131 161.092039 
L 431.330269 165.140241 
L 433 165.700035 
L 433 165.700035 
" clip-path="url(#p51ab7a8453)" style="fill: none; stroke: #440154; stroke-width: 1.5; stroke-linecap: square"/>
   </g>
   <g id="line2d_19">
    <path d="M 63.565714 237.334276 
L 64.980193 234.241901 
L 66.394672 234.131503 
L 67.809151 234.139405 
L 70.63811 236.083128 
L 72.052589 236.459073 
L 73.467068 241.299651 
L 74.881547 238.090213 
L 76.296026 237.95885 
L 77.710505 236.680929 
L 79.124984 239.041919 
L 80.539463 236.463955 
L 81.953942 239.370044 
L 83.368421 234.262898 
L 84.7829 238.428196 
L 86.197379 238.827393 
L 87.611858 239.509115 
L 89.026337 231.898267 
L 90.440816 232.512024 
L 91.855295 238.108572 
L 93.269774 237.008065 
L 94.684253 226.703415 
L 96.098733 214.321723 
L 97.513212 209.79697 
L 98.927691 204.551343 
L 100.34217 204.310833 
L 103.171128 167.664221 
L 104.585607 152.818256 
L 106.000086 158.624148 
L 107.414565 173.625497 
L 108.829044 185.372251 
L 110.243523 193.44745 
L 111.658002 193.580631 
L 113.072481 204.536471 
L 114.48696 206.519252 
L 117.315918 189.404528 
L 118.730397 167.546038 
L 120.144876 151.063089 
L 121.559356 115.380006 
L 122.973835 96.90701 
L 124.388314 76.328781 
L 125.802793 66.4427 
L 127.217272 62.453702 
L 128.631751 64.75494 
L 130.04623 69.502219 
L 131.460709 78.001225 
L 132.875188 82.819425 
L 134.289667 89.975812 
L 135.704146 90.750139 
L 137.118625 96.067438 
L 138.533104 93.657878 
L 139.947583 95.171045 
L 141.362062 95.109941 
L 142.776541 96.945648 
L 144.19102 92.361061 
L 145.605499 94.405605 
L 147.019979 92.860405 
L 148.434458 95.10742 
L 149.848937 86.060931 
L 151.263416 86.739646 
L 152.677895 85.436891 
L 154.092374 85.492567 
L 155.506853 76.826392 
L 156.921332 80.326107 
L 158.335811 75.501332 
L 159.75029 77.843145 
L 161.164769 69.346526 
L 162.579248 67.813861 
L 163.993727 67.518174 
L 165.408206 63.248453 
L 166.822685 63.262251 
L 168.237164 58.092639 
L 169.651643 60.852864 
L 171.066122 56.992706 
L 172.480602 58.273603 
L 173.895081 57.879838 
L 175.30956 53.224343 
L 176.724039 55.171767 
L 178.138518 51.041874 
L 179.552997 57.757974 
L 180.967476 54.56822 
L 182.381955 53.903541 
L 183.796434 59.175674 
L 185.210913 60.775619 
L 186.625392 61.745741 
L 188.039871 61.748764 
L 190.868829 64.905012 
L 192.283308 67.551736 
L 193.697787 70.939162 
L 195.112266 64.879327 
L 196.526745 69.983006 
L 197.941224 70.18403 
L 199.355704 71.796173 
L 200.770183 76.222849 
L 202.184662 74.256198 
L 203.599141 73.705648 
L 205.01362 71.645867 
L 206.428099 77.389328 
L 207.842578 72.400263 
L 209.257057 75.413732 
L 210.671536 76.458011 
L 212.086015 75.899473 
L 213.500494 79.204117 
L 214.914973 74.570255 
L 216.329452 76.978214 
L 217.743931 81.106839 
L 220.572889 80.606221 
L 221.987368 80.866082 
L 223.401847 81.265125 
L 226.230806 83.646863 
L 227.645285 84.639358 
L 229.059764 85.260926 
L 231.888722 85.767447 
L 234.71768 86.872385 
L 236.132159 87.006852 
L 237.546638 86.057287 
L 241.790075 87.27782 
L 243.204554 89.195643 
L 244.619033 90.510299 
L 247.447991 86.813133 
L 254.520387 89.594277 
L 255.934866 91.873023 
L 260.178303 94.816695 
L 261.592782 96.582853 
L 263.007261 98.684943 
L 264.42174 95.70586 
L 265.836219 93.457829 
L 270.079656 96.272942 
L 271.494135 97.967203 
L 272.908614 100.491287 
L 274.323093 101.592369 
L 277.152052 102.632545 
L 278.566531 103.096624 
L 279.98101 104.059786 
L 281.395489 106.489709 
L 282.809968 107.868893 
L 284.224447 106.239863 
L 285.638926 105.410825 
L 288.467884 107.4083 
L 289.882363 108.572714 
L 291.296842 109.932842 
L 292.711321 109.215255 
L 294.1258 108.668614 
L 298.369237 112.210441 
L 299.783716 114.741723 
L 301.198195 116.36154 
L 304.027154 119.250937 
L 305.441633 119.768024 
L 306.856112 120.110198 
L 308.270591 120.940576 
L 311.099549 126.362716 
L 312.514028 126.761182 
L 313.928507 126.945553 
L 318.171944 129.702306 
L 319.586423 131.837895 
L 321.000902 132.856287 
L 322.415381 131.831953 
L 323.82986 131.382701 
L 328.073298 131.903782 
L 329.487777 133.861554 
L 330.902256 134.058842 
L 332.316735 134.552132 
L 335.145693 136.168251 
L 336.560172 137.2076 
L 337.974651 139.688114 
L 339.38913 141.735232 
L 342.218088 139.264514 
L 346.461525 139.250575 
L 347.876004 139.969422 
L 349.290483 140.441189 
L 350.704962 140.47241 
L 354.9484 143.805402 
L 356.362879 145.749161 
L 357.777358 147.293501 
L 360.606316 148.708252 
L 362.020795 148.761075 
L 364.849753 148.062456 
L 366.264232 149.388214 
L 367.678711 150.093994 
L 369.09319 144.526676 
L 370.507669 144.664923 
L 373.336627 147.067828 
L 374.751106 148.699314 
L 376.165585 151.48697 
L 377.580064 153.576572 
L 380.409023 153.02887 
L 383.237981 151.897264 
L 384.65246 152.383519 
L 386.066939 153.386012 
L 387.481418 152.837551 
L 388.895897 155.408984 
L 390.310376 156.887661 
L 393.139334 157.114412 
L 394.553813 158.398731 
L 395.968292 159.835919 
L 397.382771 158.159738 
L 398.79725 156.089985 
L 400.211729 156.066714 
L 403.040687 156.903661 
L 404.455166 157.624007 
L 405.869646 158.526879 
L 407.284125 158.998472 
L 411.527562 159.312317 
L 414.35652 159.923362 
L 415.770999 160.609742 
L 417.185478 161.162065 
L 418.599957 161.53465 
L 421.428915 161.779729 
L 422.843394 162.816479 
L 424.257873 164.030449 
L 425.672352 164.512195 
L 427.086831 164.546586 
L 428.50131 165.002255 
L 429.915789 165.616972 
L 431.330269 166.391421 
L 433 168.237095 
L 433 168.237095 
" clip-path="url(#p51ab7a8453)" style="fill: none; stroke: #414487; stroke-width: 1.5; stroke-linecap: square"/>
   </g>
   <g id="line2d_20">
    <path d="M 63.565714 237.141915 
L 64.980193 236.878374 
L 66.394672 236.351664 
L 67.809151 235.34977 
L 70.63811 234.201986 
L 72.052589 236.638358 
L 73.467068 237.874236 
L 74.881547 238.372031 
L 76.296026 236.468119 
L 77.710505 240.486719 
L 79.124984 239.952412 
L 80.539463 235.825381 
L 81.953942 236.247146 
L 83.368421 238.254598 
L 84.7829 236.50752 
L 86.197379 239.875868 
L 87.611858 236.137982 
L 89.026337 235.940427 
L 90.440816 233.249293 
L 91.855295 233.460513 
L 93.269774 236.371583 
L 94.684253 224.634203 
L 96.098733 215.847451 
L 97.513212 206.244859 
L 98.927691 204.934142 
L 100.34217 193.443448 
L 103.171128 162.918485 
L 104.585607 145.12435 
L 106.000086 146.690295 
L 107.414565 156.533254 
L 108.829044 175.723945 
L 111.658002 198.642443 
L 113.072481 201.292842 
L 114.48696 195.867472 
L 115.901439 193.014755 
L 117.315918 181.084188 
L 118.730397 173.3954 
L 122.973835 88.991616 
L 124.388314 72.315311 
L 125.802793 70.278183 
L 127.217272 61.926732 
L 128.631751 64.157106 
L 130.04623 66.755601 
L 131.460709 72.896944 
L 132.875188 82.303913 
L 135.704146 90.822532 
L 137.118625 93.741091 
L 138.533104 89.768862 
L 139.947583 93.382543 
L 141.362062 92.591616 
L 142.776541 94.839007 
L 144.19102 95.252128 
L 145.605499 94.837438 
L 147.019979 93.45884 
L 148.434458 90.396391 
L 149.848937 90.944662 
L 151.263416 87.837194 
L 152.677895 85.769118 
L 154.092374 80.958374 
L 155.506853 81.247356 
L 156.921332 77.26697 
L 158.335811 78.939697 
L 159.75029 73.295716 
L 161.164769 69.378765 
L 162.579248 67.351292 
L 163.993727 65.732505 
L 165.408206 63.808842 
L 168.237164 57.404692 
L 169.651643 56.460329 
L 171.066122 57.315268 
L 172.480602 54.850344 
L 173.895081 51.335209 
L 175.30956 53.671259 
L 176.724039 54.19914 
L 178.138518 47.169521 
L 179.552997 52.334358 
L 180.967476 53.014388 
L 182.381955 54.970135 
L 183.796434 56.606522 
L 185.210913 55.979121 
L 186.625392 55.96519 
L 188.039871 57.482746 
L 189.45435 59.292475 
L 190.868829 61.309865 
L 192.283308 64.769068 
L 193.697787 63.948681 
L 195.112266 65.800904 
L 196.526745 65.056154 
L 197.941224 68.472818 
L 199.355704 70.037749 
L 200.770183 66.962687 
L 203.599141 75.118158 
L 205.01362 71.053223 
L 206.428099 74.040998 
L 207.842578 71.31104 
L 209.257057 75.001495 
L 210.671536 72.85579 
L 212.086015 76.875895 
L 213.500494 76.342376 
L 214.914973 75.595443 
L 216.329452 76.581863 
L 217.743931 78.636556 
L 219.15841 78.42556 
L 220.572889 79.140868 
L 223.401847 81.104357 
L 224.816327 82.483452 
L 230.474243 83.216548 
L 231.888722 82.394091 
L 233.303201 82.445639 
L 234.71768 82.720516 
L 240.375596 82.349702 
L 241.790075 82.947698 
L 243.204554 85.075042 
L 244.619033 85.624051 
L 247.447991 84.260956 
L 248.86247 83.549328 
L 250.27695 84.269236 
L 251.691429 87.662779 
L 253.105908 91.732876 
L 260.178303 91.064442 
L 261.592782 93.548841 
L 263.007261 95.383291 
L 268.665177 93.731234 
L 270.079656 93.012891 
L 271.494135 93.938738 
L 272.908614 95.573521 
L 274.323093 96.069802 
L 277.152052 96.634174 
L 278.566531 97.068724 
L 279.98101 98.378672 
L 281.395489 100.687544 
L 282.809968 102.033959 
L 287.053405 102.942715 
L 288.467884 104.98076 
L 289.882363 107.512782 
L 291.296842 109.169349 
L 296.954758 110.367849 
L 298.369237 110.966704 
L 299.783716 112.92954 
L 301.198195 115.579036 
L 302.612675 117.434959 
L 305.441633 120.523287 
L 306.856112 121.442566 
L 308.270591 119.02603 
L 309.68507 117.339148 
L 312.514028 121.549613 
L 315.342986 125.563597 
L 316.757465 126.535291 
L 318.171944 126.659332 
L 319.586423 128.439018 
L 321.000902 129.845991 
L 325.244339 132.120508 
L 326.658818 128.223234 
L 328.073298 125.639382 
L 329.487777 128.640293 
L 330.902256 130.64399 
L 335.145693 135.348331 
L 336.560172 138.07253 
L 337.974651 141.39221 
L 339.38913 141.716837 
L 343.632567 139.439441 
L 345.047046 139.630026 
L 346.461525 141.266659 
L 347.876004 143.762305 
L 353.533921 144.8465 
L 354.9484 144.333326 
L 356.362879 143.948936 
L 359.191837 145.435595 
L 363.435274 146.623872 
L 364.849753 146.492193 
L 366.264232 146.732906 
L 367.678711 147.835299 
L 370.507669 149.183451 
L 371.922148 149.818652 
L 374.751106 148.95096 
L 376.165585 149.32362 
L 378.994544 150.484217 
L 381.823502 151.542134 
L 383.237981 151.830558 
L 384.65246 152.5369 
L 386.066939 153.896244 
L 387.481418 154.807459 
L 391.724855 155.937985 
L 394.553813 155.34639 
L 395.968292 155.736246 
L 397.382771 155.399965 
L 400.211729 154.280106 
L 401.626208 153.879032 
L 403.040687 154.493583 
L 404.455166 156.046912 
L 405.869646 157.045312 
L 410.113083 159.478556 
L 411.527562 159.50302 
L 412.942041 158.767825 
L 414.35652 159.046863 
L 415.770999 160.316401 
L 420.014436 162.628613 
L 421.428915 162.981631 
L 422.843394 163.100314 
L 424.257873 163.927343 
L 425.672352 164.133694 
L 429.915789 163.721964 
L 431.330269 163.261392 
L 433 163.510456 
L 433 163.510456 
" clip-path="url(#p51ab7a8453)" style="fill: none; stroke: #2a788e; stroke-width: 1.5; stroke-linecap: square"/>
   </g>
   <g id="line2d_21">
    <path d="M 63.565714 234.703607 
L 64.980193 234.931951 
L 67.809151 236.013052 
L 70.63811 237.317243 
L 72.052589 238.235004 
L 73.467068 236.10917 
L 74.881547 234.768837 
L 76.296026 238.946964 
L 77.710505 234.882762 
L 79.124984 237.100872 
L 80.539463 235.273598 
L 81.953942 242.116364 
L 83.368421 240.604654 
L 84.7829 236.702126 
L 86.197379 239.045906 
L 87.611858 234.091928 
L 89.026337 236.141215 
L 90.440816 237.411795 
L 91.855295 233.497815 
L 93.269774 232.482916 
L 94.684253 223.083432 
L 96.098733 215.03874 
L 97.513212 204.947206 
L 98.927691 203.567146 
L 100.34217 190.625192 
L 101.756649 171.113751 
L 104.585607 136.780021 
L 106.000086 135.817622 
L 107.414565 149.105136 
L 108.829044 168.726214 
L 110.243523 182.345827 
L 111.658002 190.92341 
L 113.072481 198.077797 
L 114.48696 194.394029 
L 115.901439 181.172682 
L 117.315918 177.740998 
L 118.730397 163.608693 
L 120.144876 143.416166 
L 121.559356 112.467787 
L 124.388314 74.834567 
L 125.802793 63.300569 
L 127.217272 59.269781 
L 128.631751 62.342975 
L 130.04623 66.489644 
L 131.460709 67.704669 
L 132.875188 75.845835 
L 134.289667 79.896439 
L 135.704146 86.506751 
L 137.118625 88.724595 
L 138.533104 90.644843 
L 139.947583 90.900262 
L 141.362062 95.844327 
L 142.776541 94.181168 
L 144.19102 92.175627 
L 145.605499 93.493577 
L 147.019979 89.057628 
L 148.434458 90.551861 
L 149.848937 90.135577 
L 151.263416 86.434252 
L 152.677895 83.630244 
L 154.092374 83.100933 
L 155.506853 77.455719 
L 156.921332 78.236552 
L 158.335811 73.793464 
L 159.75029 72.749596 
L 161.164769 68.260851 
L 162.579248 67.147215 
L 163.993727 64.530949 
L 165.408206 62.783984 
L 166.822685 57.593118 
L 168.237164 58.621537 
L 169.651643 57.430313 
L 171.066122 54.305783 
L 172.480602 54.522304 
L 173.895081 48.902497 
L 175.30956 49.265221 
L 176.724039 48.751052 
L 178.138518 48.790369 
L 179.552997 50.733443 
L 180.967476 49.913067 
L 182.381955 51.354428 
L 183.796434 49.342444 
L 185.210913 53.202216 
L 186.625392 57.613642 
L 188.039871 53.882483 
L 189.45435 56.337878 
L 190.868829 57.91256 
L 192.283308 57.442544 
L 193.697787 59.853248 
L 195.112266 59.289005 
L 196.526745 64.329504 
L 197.941224 65.112426 
L 199.355704 63.574579 
L 200.770183 68.685434 
L 202.184662 67.809259 
L 203.599141 68.937561 
L 205.01362 68.845764 
L 206.428099 70.267417 
L 207.842578 73.717232 
L 209.257057 71.574058 
L 210.671536 73.130295 
L 212.086015 71.153045 
L 213.500494 76.378231 
L 214.914973 77.162002 
L 216.329452 77.772068 
L 217.743931 78.548961 
L 219.15841 79.763761 
L 220.572889 80.793935 
L 221.987368 79.739665 
L 224.816327 77.928581 
L 226.230806 77.803164 
L 229.059764 77.883986 
L 234.71768 79.758113 
L 237.546638 80.900084 
L 238.961117 81.649372 
L 240.375596 84.436033 
L 241.790075 86.231539 
L 243.204554 87.579277 
L 247.447991 85.986252 
L 248.86247 85.730875 
L 250.27695 86.486934 
L 251.691429 87.930833 
L 258.763824 93.801788 
L 260.178303 93.660634 
L 261.592782 91.175031 
L 263.007261 90.768595 
L 267.250698 94.317777 
L 268.665177 96.138918 
L 270.079656 92.540907 
L 271.494135 92.035239 
L 275.737573 94.272982 
L 277.152052 95.322307 
L 278.566531 97.684251 
L 279.98101 100.44752 
L 281.395489 101.932094 
L 285.638926 103.546588 
L 287.053405 104.703515 
L 288.467884 106.775513 
L 289.882363 108.568248 
L 291.296842 109.455293 
L 295.540279 111.309346 
L 296.954758 113.179067 
L 298.369237 113.206736 
L 299.783716 112.429791 
L 301.198195 112.962998 
L 305.441633 116.124643 
L 306.856112 117.447117 
L 309.68507 117.623002 
L 313.928507 119.738411 
L 315.342986 120.761458 
L 316.757465 123.347683 
L 318.171944 126.668181 
L 319.586423 127.726715 
L 323.82986 124.741765 
L 325.244339 124.869035 
L 328.073298 131.920712 
L 329.487777 133.167568 
L 335.145693 135.267878 
L 336.560172 136.605464 
L 337.974651 137.681272 
L 342.218088 138.750892 
L 343.632567 139.334975 
L 345.047046 140.347034 
L 346.461525 140.291191 
L 352.119441 142.093092 
L 353.533921 142.777838 
L 354.9484 143.065289 
L 356.362879 142.877392 
L 357.777358 142.905841 
L 362.020795 143.972675 
L 363.435274 144.813151 
L 364.849753 146.430669 
L 366.264232 147.538749 
L 369.09319 147.29421 
L 371.922148 146.951574 
L 373.336627 147.793809 
L 374.751106 150.109334 
L 376.165585 151.084884 
L 380.409023 151.406923 
L 381.823502 151.982418 
L 383.237981 153.350513 
L 384.65246 154.489828 
L 390.310376 155.443335 
L 391.724855 156.208684 
L 393.139334 155.713374 
L 394.553813 154.545275 
L 395.968292 154.426821 
L 400.211729 155.040162 
L 401.626208 155.907939 
L 403.040687 157.103092 
L 404.455166 157.927838 
L 408.698604 156.664524 
L 410.113083 156.671342 
L 411.527562 158.093773 
L 412.942041 160.209061 
L 414.35652 161.244014 
L 418.599957 162.198231 
L 421.428915 163.546252 
L 422.843394 163.870792 
L 428.50131 164.411694 
L 429.915789 164.687336 
L 431.330269 165.098815 
L 432.744748 164.483327 
L 433 164.523605 
L 433 164.523605 
" clip-path="url(#p51ab7a8453)" style="fill: none; stroke: #22a884; stroke-width: 1.5; stroke-linecap: square"/>
   </g>
   <g id="line2d_22">
    <path d="M 63.565714 233.267693 
L 64.980193 236.860009 
L 66.394672 239.109159 
L 69.223631 235.461742 
L 70.63811 237.638096 
L 72.052589 237.673004 
L 73.467068 238.087121 
L 74.881547 237.343174 
L 76.296026 232.551906 
L 77.710505 241.140253 
L 79.124984 239.999056 
L 80.539463 238.061914 
L 81.953942 237.831174 
L 83.368421 234.518283 
L 84.7829 236.089304 
L 86.197379 235.662208 
L 87.611858 238.612155 
L 89.026337 233.931881 
L 90.440816 231.547851 
L 91.855295 237.405999 
L 93.269774 232.262525 
L 94.684253 224.988718 
L 96.098733 211.903251 
L 97.513212 203.188905 
L 98.927691 197.232833 
L 100.34217 186.472476 
L 101.756649 169.952899 
L 103.171128 149.152977 
L 104.585607 130.24364 
L 106.000086 125.872952 
L 107.414565 144.030637 
L 108.829044 167.100187 
L 110.243523 178.052835 
L 111.658002 190.440051 
L 113.072481 196.140909 
L 114.48696 191.03015 
L 115.901439 184.472442 
L 117.315918 176.947383 
L 118.730397 165.57521 
L 120.144876 137.354302 
L 122.973835 86.956554 
L 124.388314 70.76763 
L 125.802793 63.958491 
L 127.217272 55.637108 
L 128.631751 57.883677 
L 130.04623 56.605176 
L 131.460709 64.575144 
L 132.875188 70.8359 
L 134.289667 75.944178 
L 135.704146 83.672292 
L 137.118625 85.387224 
L 138.533104 87.912717 
L 139.947583 90.128766 
L 141.362062 93.443775 
L 142.776541 90.605503 
L 144.19102 85.820041 
L 145.605499 88.531117 
L 147.019979 88.243571 
L 148.434458 85.803633 
L 149.848937 81.460363 
L 151.263416 84.380242 
L 152.677895 79.915525 
L 154.092374 77.669352 
L 155.506853 71.411074 
L 156.921332 75.294085 
L 158.335811 73.052431 
L 159.75029 67.948796 
L 161.164769 66.698656 
L 162.579248 61.656083 
L 163.993727 63.091118 
L 166.822685 54.937866 
L 168.237164 53.723476 
L 169.651643 48.499685 
L 171.066122 50.352694 
L 172.480602 48.967965 
L 173.895081 47.966328 
L 175.30956 46.375494 
L 176.724039 44.443636 
L 178.138518 46.710317 
L 179.552997 45.822777 
L 180.967476 49.699696 
L 182.381955 45.610691 
L 183.796434 45.913784 
L 185.210913 49.285283 
L 186.625392 52.337968 
L 188.039871 52.120848 
L 189.45435 52.560616 
L 190.868829 54.619671 
L 192.283308 56.058524 
L 193.697787 58.172902 
L 195.112266 60.660018 
L 197.941224 59.658016 
L 199.355704 62.706849 
L 200.770183 65.442483 
L 202.184662 66.502425 
L 203.599141 66.617808 
L 205.01362 65.71033 
L 206.428099 68.380451 
L 207.842578 67.668388 
L 209.257057 70.729025 
L 210.671536 71.522723 
L 212.086015 70.491369 
L 213.500494 75.606443 
L 214.914973 73.415372 
L 216.329452 74.750845 
L 217.743931 76.278264 
L 219.15841 75.08576 
L 220.572889 74.12221 
L 221.987368 74.711076 
L 226.230806 78.125117 
L 230.474243 82.151909 
L 234.71768 82.9445 
L 236.132159 83.640194 
L 237.546638 84.58974 
L 238.961117 85.394631 
L 240.375596 85.949997 
L 244.619033 86.68416 
L 246.033512 87.71829 
L 248.86247 89.31266 
L 250.27695 89.487263 
L 253.105908 89.109098 
L 254.520387 89.213477 
L 255.934866 89.708185 
L 257.349345 89.429585 
L 258.763824 88.700974 
L 261.592782 89.711994 
L 264.42174 90.811711 
L 265.836219 92.038599 
L 272.908614 95.86153 
L 274.323093 97.016385 
L 275.737573 97.925005 
L 277.152052 98.417284 
L 278.566531 99.132828 
L 282.809968 102.167301 
L 284.224447 103.503193 
L 287.053405 102.86796 
L 288.467884 103.831174 
L 291.296842 106.398781 
L 292.711321 107.942122 
L 294.1258 109.154356 
L 296.954758 108.287245 
L 301.198195 110.452851 
L 304.027154 113.875871 
L 305.441633 115.823766 
L 306.856112 117.17727 
L 309.68507 117.990628 
L 311.099549 118.51487 
L 312.514028 119.47744 
L 315.342986 124.365586 
L 316.757465 125.733146 
L 321.000902 128.733468 
L 322.415381 129.847544 
L 323.82986 129.895589 
L 325.244339 128.689243 
L 329.487777 132.607065 
L 330.902256 134.385543 
L 332.316735 134.907346 
L 333.731214 133.484601 
L 335.145693 132.595061 
L 337.974651 134.142913 
L 339.38913 135.060422 
L 340.803609 136.715601 
L 342.218088 137.65702 
L 343.632567 138.911259 
L 345.047046 139.665215 
L 350.704962 141.320205 
L 352.119441 142.095991 
L 353.533921 143.742636 
L 356.362879 145.047579 
L 357.777358 145.648632 
L 359.191837 146.380372 
L 360.606316 146.925207 
L 362.020795 146.960065 
L 363.435274 147.134598 
L 367.678711 148.998821 
L 369.09319 149.871358 
L 370.507669 149.487398 
L 371.922148 148.039583 
L 373.336627 147.832795 
L 377.580064 150.515483 
L 378.994544 151.659391 
L 380.409023 151.943211 
L 381.823502 151.780015 
L 384.65246 152.265782 
L 387.481418 152.977558 
L 388.895897 153.573079 
L 390.310376 154.678774 
L 391.724855 155.405676 
L 394.553813 155.051234 
L 395.968292 155.135591 
L 397.382771 155.530968 
L 398.79725 156.829113 
L 400.211729 158.380338 
L 401.626208 159.299173 
L 405.869646 159.540022 
L 407.284125 159.961139 
L 408.698604 160.097583 
L 410.113083 159.788367 
L 412.942041 159.649212 
L 414.35652 159.619425 
L 417.185478 160.159525 
L 422.843394 160.023322 
L 424.257873 159.970503 
L 425.672352 160.166507 
L 427.086831 161.400728 
L 428.50131 163.593598 
L 429.915789 164.898977 
L 433 164.384313 
L 433 164.384313 
" clip-path="url(#p51ab7a8453)" style="fill: none; stroke: #7ad151; stroke-width: 1.5; stroke-linecap: square"/>
   </g>
   <g id="patch_3">
    <path d="M 54 252 
L 54 34.56 
" style="fill: none; stroke: #000000; stroke-width: 0.8; stroke-linejoin: miter; stroke-linecap: square"/>
   </g>
   <g id="patch_4">
    <path d="M 388.8 252 
L 388.8 34.56 
" style="fill: none; stroke: #000000; stroke-width: 0.8; stroke-linejoin: miter; stroke-linecap: square"/>
   </g>
   <g id="patch_5">
    <path d="M 54 252 
L 388.8 252 
" style="fill: none; stroke: #000000; stroke-width: 0.8; stroke-linejoin: miter; stroke-linecap: square"/>
   </g>
   <g id="patch_6">
    <path d="M 54 34.56 
L 388.8 34.56 
" style="fill: none; stroke: #000000; stroke-width: 0.8; stroke-linejoin: miter; stroke-linecap: square"/>
   </g>
   <g id="text_20">
    <!-- PM7D5 Normalized NEXAFS -->
    <g transform="translate(138.860625 28.56)scale(0.12 -0.12)">
     <defs>
      <path id="DejaVuSans-50" d="M 1259 4147 
L 1259 2394 
L 2053 2394 
Q 2494 2394 2734 2622 
Q 2975 2850 2975 3272 
Q 2975 3691 2734 3919 
Q 2494 4147 2053 4147 
L 1259 4147 
z
M 628 4666 
L 2053 4666 
Q 2838 4666 3239 4311 
Q 3641 3956 3641 3272 
Q 3641 2581 3239 2228 
Q 2838 1875 2053 1875 
L 1259 1875 
L 1259 0 
L 628 0 
L 628 4666 
z
" transform="scale(0.015625)"/>
      <path id="DejaVuSans-4d" d="M 628 4666 
L 1569 4666 
L 2759 1491 
L 3956 4666 
L 4897 4666 
L 4897 0 
L 4281 0 
L 4281 4097 
L 3078 897 
L 2444 897 
L 1241 4097 
L 1241 0 
L 628 0 
L 628 4666 
z
" transform="scale(0.015625)"/>
      <path id="DejaVuSans-37" d="M 525 4666 
L 3525 4666 
L 3525 4397 
L 1831 0 
L 1172 0 
L 2766 4134 
L 525 4134 
L 525 4666 
z
" transform="scale(0.015625)"/>
      <path id="DejaVuSans-44" d="M 1259 4147 
L 1259 519 
L 2022 519 
Q 2988 519 3436 956 
Q 3884 1394 3884 2338 
Q 3884 3275 3436 3711 
Q 2988 4147 2022 4147 
L 1259 4147 
z
M 628 4666 
L 1925 4666 
Q 3281 4666 3915 4102 
Q 4550 3538 4550 2338 
Q 4550 1131 3912 565 
Q 3275 0 1925 0 
L 628 0 
L 628 4666 
z
" transform="scale(0.015625)"/>
      <path id="DejaVuSans-4e" d="M 628 4666 
L 1478 4666 
L 3547 763 
L 3547 4666 
L 4159 4666 
L 4159 0 
L 3309 0 
L 1241 3903 
L 1241 0 
L 628 0 
L 628 4666 
z
" transform="scale(0.015625)"/>
      <path id="DejaVuSans-6d" d="M 3328 2828 
Q 3544 3216 3844 3400 
Q 4144 3584 4550 3584 
Q 5097 3584 5394 3201 
Q 5691 2819 5691 2113 
L 5691 0 
L 5113 0 
L 5113 2094 
Q 5113 2597 4934 2840 
Q 4756 3084 4391 3084 
Q 3944 3084 3684 2787 
Q 3425 2491 3425 1978 
L 3425 0 
L 2847 0 
L 2847 2094 
Q 2847 2600 2669 2842 
Q 2491 3084 2119 3084 
Q 1678 3084 1418 2786 
Q 1159 2488 1159 1978 
L 1159 0 
L 581 0 
L 581 3500 
L 1159 3500 
L 1159 2956 
Q 1356 3278 1631 3431 
Q 1906 3584 2284 3584 
Q 2666 3584 2933 3390 
Q 3200 3197 3328 2828 
z
" transform="scale(0.015625)"/>
      <path id="DejaVuSans-7a" d="M 353 3500 
L 3084 3500 
L 3084 2975 
L 922 459 
L 3084 459 
L 3084 0 
L 275 0 
L 275 525 
L 2438 3041 
L 353 3041 
L 353 3500 
z
" transform="scale(0.015625)"/>
      <path id="DejaVuSans-45" d="M 628 4666 
L 3578 4666 
L 3578 4134 
L 1259 4134 
L 1259 2753 
L 3481 2753 
L 3481 2222 
L 1259 2222 
L 1259 531 
L 3634 531 
L 3634 0 
L 628 0 
L 628 4666 
z
" transform="scale(0.015625)"/>
      <path id="DejaVuSans-58" d="M 403 4666 
L 1081 4666 
L 2241 2931 
L 3406 4666 
L 4084 4666 
L 2584 2425 
L 4184 0 
L 3506 0 
L 2194 1984 
L 872 0 
L 191 0 
L 1856 2491 
L 403 4666 
z
" transform="scale(0.015625)"/>
      <path id="DejaVuSans-41" d="M 2188 4044 
L 1331 1722 
L 3047 1722 
L 2188 4044 
z
M 1831 4666 
L 2547 4666 
L 4325 0 
L 3669 0 
L 3244 1197 
L 1141 1197 
L 716 0 
L 50 0 
L 1831 4666 
z
" transform="scale(0.015625)"/>
      <path id="DejaVuSans-46" d="M 628 4666 
L 3309 4666 
L 3309 4134 
L 1259 4134 
L 1259 2759 
L 3109 2759 
L 3109 2228 
L 1259 2228 
L 1259 0 
L 628 0 
L 628 4666 
z
" transform="scale(0.015625)"/>
      <path id="DejaVuSans-53" d="M 3425 4513 
L 3425 3897 
Q 3066 4069 2747 4153 
Q 2428 4238 2131 4238 
Q 1616 4238 1336 4038 
Q 1056 3838 1056 3469 
Q 1056 3159 1242 3001 
Q 1428 2844 1947 2747 
L 2328 2669 
Q 3034 2534 3370 2195 
Q 3706 1856 3706 1288 
Q 3706 609 3251 259 
Q 2797 -91 1919 -91 
Q 1588 -91 1214 -16 
Q 841 59 441 206 
L 441 856 
Q 825 641 1194 531 
Q 1563 422 1919 422 
Q 2459 422 2753 634 
Q 3047 847 3047 1241 
Q 3047 1584 2836 1778 
Q 2625 1972 2144 2069 
L 1759 2144 
Q 1053 2284 737 2584 
Q 422 2884 422 3419 
Q 422 4038 858 4394 
Q 1294 4750 2059 4750 
Q 2388 4750 2728 4690 
Q 3069 4631 3425 4513 
z
" transform="scale(0.015625)"/>
     </defs>
     <use xlink:href="#DejaVuSans-50"/>
     <use xlink:href="#DejaVuSans-4d" x="60.302734"/>
     <use xlink:href="#DejaVuSans-37" x="146.582031"/>
     <use xlink:href="#DejaVuSans-44" x="210.205078"/>
     <use xlink:href="#DejaVuSans-35" x="287.207031"/>
     <use xlink:href="#DejaVuSans-20" x="350.830078"/>
     <use xlink:href="#DejaVuSans-4e" x="382.617188"/>
     <use xlink:href="#DejaVuSans-6f" x="457.421875"/>
     <use xlink:href="#DejaVuSans-72" x="518.603516"/>
     <use xlink:href="#DejaVuSans-6d" x="557.966797"/>
     <use xlink:href="#DejaVuSans-61" x="655.378906"/>
     <use xlink:href="#DejaVuSans-6c" x="716.658203"/>
     <use xlink:href="#DejaVuSans-69" x="744.441406"/>
     <use xlink:href="#DejaVuSans-7a" x="772.224609"/>
     <use xlink:href="#DejaVuSans-65" x="824.714844"/>
     <use xlink:href="#DejaVuSans-64" x="886.238281"/>
     <use xlink:href="#DejaVuSans-20" x="949.714844"/>
     <use xlink:href="#DejaVuSans-4e" x="981.501953"/>
     <use xlink:href="#DejaVuSans-45" x="1056.306641"/>
     <use xlink:href="#DejaVuSans-58" x="1119.490234"/>
     <use xlink:href="#DejaVuSans-41" x="1187.996094"/>
     <use xlink:href="#DejaVuSans-46" x="1256.404297"/>
     <use xlink:href="#DejaVuSans-53" x="1312.173828"/>
    </g>
   </g>
   <g id="legend_1">
    <g id="patch_7">
     <path d="M 332.075 115.950625 
L 381.8 115.950625 
Q 383.8 115.950625 383.8 113.950625 
L 383.8 41.56 
Q 383.8 39.56 381.8 39.56 
L 332.075 39.56 
Q 330.075 39.56 330.075 41.56 
L 330.075 113.950625 
Q 330.075 115.950625 332.075 115.950625 
z
" style="fill: #ffffff; opacity: 0.8; stroke: #cccccc; stroke-linejoin: miter"/>
    </g>
    <g id="line2d_23">
     <path d="M 334.075 47.658437 
L 344.075 47.658437 
L 354.075 47.658437 
" style="fill: none; stroke: #440154; stroke-width: 1.5; stroke-linecap: square"/>
    </g>
    <g id="text_21">
     <!-- 30 -->
     <g transform="translate(362.075 51.158437)scale(0.1 -0.1)">
      <defs>
       <path id="DejaVuSans-b0" d="M 1600 4347 
Q 1350 4347 1178 4173 
Q 1006 4000 1006 3750 
Q 1006 3503 1178 3333 
Q 1350 3163 1600 3163 
Q 1850 3163 2022 3333 
Q 2194 3503 2194 3750 
Q 2194 3997 2020 4172 
Q 1847 4347 1600 4347 
z
M 1600 4750 
Q 1800 4750 1984 4673 
Q 2169 4597 2303 4453 
Q 2447 4313 2519 4134 
Q 2591 3956 2591 3750 
Q 2591 3338 2302 3052 
Q 2013 2766 1594 2766 
Q 1172 2766 890 3047 
Q 609 3328 609 3750 
Q 609 4169 896 4459 
Q 1184 4750 1600 4750 
z
" transform="scale(0.015625)"/>
      </defs>
      <use xlink:href="#DejaVuSans-33"/>
      <use xlink:href="#DejaVuSans-30" x="63.623047"/>
      <use xlink:href="#DejaVuSans-b0" x="127.246094"/>
     </g>
    </g>
    <g id="line2d_24">
     <path d="M 334.075 62.336562 
L 344.075 62.336562 
L 354.075 62.336562 
" style="fill: none; stroke: #414487; stroke-width: 1.5; stroke-linecap: square"/>
    </g>
    <g id="text_22">
     <!-- 40 -->
     <g transform="translate(362.075 65.836562)scale(0.1 -0.1)">
      <use xlink:href="#DejaVuSans-34"/>
      <use xlink:href="#DejaVuSans-30" x="63.623047"/>
      <use xlink:href="#DejaVuSans-b0" x="127.246094"/>
     </g>
    </g>
    <g id="line2d_25">
     <path d="M 334.075 77.014687 
L 344.075 77.014687 
L 354.075 77.014687 
" style="fill: none; stroke: #2a788e; stroke-width: 1.5; stroke-linecap: square"/>
    </g>
    <g id="text_23">
     <!-- 55 -->
     <g transform="translate(362.075 80.514687)scale(0.1 -0.1)">
      <use xlink:href="#DejaVuSans-35"/>
      <use xlink:href="#DejaVuSans-35" x="63.623047"/>
      <use xlink:href="#DejaVuSans-b0" x="127.246094"/>
     </g>
    </g>
    <g id="line2d_26">
     <path d="M 334.075 91.692813 
L 344.075 91.692813 
L 354.075 91.692813 
" style="fill: none; stroke: #22a884; stroke-width: 1.5; stroke-linecap: square"/>
    </g>
    <g id="text_24">
     <!-- 70 -->
     <g transform="translate(362.075 95.192813)scale(0.1 -0.1)">
      <use xlink:href="#DejaVuSans-37"/>
      <use xlink:href="#DejaVuSans-30" x="63.623047"/>
      <use xlink:href="#DejaVuSans-b0" x="127.246094"/>
     </g>
    </g>
    <g id="line2d_27">
     <path d="M 334.075 106.370937 
L 344.075 106.370937 
L 354.075 106.370937 
" style="fill: none; stroke: #7ad151; stroke-width: 1.5; stroke-linecap: square"/>
    </g>
    <g id="text_25">
     <!-- 90 -->
     <g transform="translate(362.075 109.870937)scale(0.1 -0.1)">
      <use xlink:href="#DejaVuSans-39"/>
      <use xlink:href="#DejaVuSans-30" x="63.623047"/>
      <use xlink:href="#DejaVuSans-b0" x="127.246094"/>
     </g>
    </g>
   </g>
  </g>
 </g>
 <defs>
  <clipPath id="p51ab7a8453">
   <rect x="54" y="34.56" width="334.8" height="217.44"/>
  </clipPath>
 </defs>
</svg>
