<?xml version="1.0" encoding="utf-8" standalone="no"?>
<!DOCTYPE svg PUBLIC "-//W3C//DTD SVG 1.1//EN"
  "http://www.w3.org/Graphics/SVG/1.1/DTD/svg11.dtd">
<svg xmlns:xlink="http://www.w3.org/1999/xlink" width="432pt" height="288pt" viewBox="0 0 432 288" xmlns="http://www.w3.org/2000/svg" version="1.1">
 <metadata>
  <rdf:RDF xmlns:dc="http://purl.org/dc/elements/1.1/" xmlns:cc="http://creativecommons.org/ns#" xmlns:rdf="http://www.w3.org/1999/02/22-rdf-syntax-ns#">
   <cc:Work>
    <dc:type rdf:resource="http://purl.org/dc/dcmitype/StillImage"/>
    <dc:date>2022-12-02T13:39:05.487271</dc:date>
    <dc:format>image/svg+xml</dc:format>
    <dc:creator>
     <cc:Agent>
      <dc:title>Matplotlib v3.5.1, https://matplotlib.org/</dc:title>
     </cc:Agent>
    </dc:creator>
   </cc:Work>
  </rdf:RDF>
 </metadata>
 <defs>
  <style type="text/css">*{stroke-linejoin: round; stroke-linecap: butt}</style>
 </defs>
 <g id="figure_1">
  <g id="patch_1">
   <path d="M 0 288 
L 432 288 
L 432 0 
L 0 0 
L 0 288 
z
" style="fill: none"/>
  </g>
  <g id="axes_1">
   <g id="patch_2">
    <path d="M 54 252 
L 388.8 252 
L 388.8 34.56 
L 54 34.56 
z
" style="fill: #ffffff"/>
   </g>
   <g id="matplotlib.axis_1">
    <g id="xtick_1">
     <g id="line2d_1">
      <defs>
       <path id="mc6d30b3a8a" d="M 0 0 
L 0 3.5 
" style="stroke: #000000; stroke-width: 0.8"/>
      </defs>
      <g>
       <use xlink:href="#mc6d30b3a8a" x="54" y="252" style="stroke: #000000; stroke-width: 0.8"/>
      </g>
     </g>
     <g id="text_1">
      <!-- 280 -->
      <g transform="translate(44.45625 266.598437)scale(0.1 -0.1)">
       <defs>
        <path id="DejaVuSans-32" d="M 1228 531 
L 3431 531 
L 3431 0 
L 469 0 
L 469 531 
Q 828 903 1448 1529 
Q 2069 2156 2228 2338 
Q 2531 2678 2651 2914 
Q 2772 3150 2772 3378 
Q 2772 3750 2511 3984 
Q 2250 4219 1831 4219 
Q 1534 4219 1204 4116 
Q 875 4013 500 3803 
L 500 4441 
Q 881 4594 1212 4672 
Q 1544 4750 1819 4750 
Q 2544 4750 2975 4387 
Q 3406 4025 3406 3419 
Q 3406 3131 3298 2873 
Q 3191 2616 2906 2266 
Q 2828 2175 2409 1742 
Q 1991 1309 1228 531 
z
" transform="scale(0.015625)"/>
        <path id="DejaVuSans-38" d="M 2034 2216 
Q 1584 2216 1326 1975 
Q 1069 1734 1069 1313 
Q 1069 891 1326 650 
Q 1584 409 2034 409 
Q 2484 409 2743 651 
Q 3003 894 3003 1313 
Q 3003 1734 2745 1975 
Q 2488 2216 2034 2216 
z
M 1403 2484 
Q 997 2584 770 2862 
Q 544 3141 544 3541 
Q 544 4100 942 4425 
Q 1341 4750 2034 4750 
Q 2731 4750 3128 4425 
Q 3525 4100 3525 3541 
Q 3525 3141 3298 2862 
Q 3072 2584 2669 2484 
Q 3125 2378 3379 2068 
Q 3634 1759 3634 1313 
Q 3634 634 3220 271 
Q 2806 -91 2034 -91 
Q 1263 -91 848 271 
Q 434 634 434 1313 
Q 434 1759 690 2068 
Q 947 2378 1403 2484 
z
M 1172 3481 
Q 1172 3119 1398 2916 
Q 1625 2713 2034 2713 
Q 2441 2713 2670 2916 
Q 2900 3119 2900 3481 
Q 2900 3844 2670 4047 
Q 2441 4250 2034 4250 
Q 1625 4250 1398 4047 
Q 1172 3844 1172 3481 
z
" transform="scale(0.015625)"/>
        <path id="DejaVuSans-30" d="M 2034 4250 
Q 1547 4250 1301 3770 
Q 1056 3291 1056 2328 
Q 1056 1369 1301 889 
Q 1547 409 2034 409 
Q 2525 409 2770 889 
Q 3016 1369 3016 2328 
Q 3016 3291 2770 3770 
Q 2525 4250 2034 4250 
z
M 2034 4750 
Q 2819 4750 3233 4129 
Q 3647 3509 3647 2328 
Q 3647 1150 3233 529 
Q 2819 -91 2034 -91 
Q 1250 -91 836 529 
Q 422 1150 422 2328 
Q 422 3509 836 4129 
Q 1250 4750 2034 4750 
z
" transform="scale(0.015625)"/>
       </defs>
       <use xlink:href="#DejaVuSans-32"/>
       <use xlink:href="#DejaVuSans-38" x="63.623047"/>
       <use xlink:href="#DejaVuSans-30" x="127.246094"/>
      </g>
     </g>
    </g>
    <g id="xtick_2">
     <g id="line2d_2">
      <g>
       <use xlink:href="#mc6d30b3a8a" x="101.828571" y="252" style="stroke: #000000; stroke-width: 0.8"/>
      </g>
     </g>
     <g id="text_2">
      <!-- 285 -->
      <g transform="translate(92.284821 266.598437)scale(0.1 -0.1)">
       <defs>
        <path id="DejaVuSans-35" d="M 691 4666 
L 3169 4666 
L 3169 4134 
L 1269 4134 
L 1269 2991 
Q 1406 3038 1543 3061 
Q 1681 3084 1819 3084 
Q 2600 3084 3056 2656 
Q 3513 2228 3513 1497 
Q 3513 744 3044 326 
Q 2575 -91 1722 -91 
Q 1428 -91 1123 -41 
Q 819 9 494 109 
L 494 744 
Q 775 591 1075 516 
Q 1375 441 1709 441 
Q 2250 441 2565 725 
Q 2881 1009 2881 1497 
Q 2881 1984 2565 2268 
Q 2250 2553 1709 2553 
Q 1456 2553 1204 2497 
Q 953 2441 691 2322 
L 691 4666 
z
" transform="scale(0.015625)"/>
       </defs>
       <use xlink:href="#DejaVuSans-32"/>
       <use xlink:href="#DejaVuSans-38" x="63.623047"/>
       <use xlink:href="#DejaVuSans-35" x="127.246094"/>
      </g>
     </g>
    </g>
    <g id="xtick_3">
     <g id="line2d_3">
      <g>
       <use xlink:href="#mc6d30b3a8a" x="149.657143" y="252" style="stroke: #000000; stroke-width: 0.8"/>
      </g>
     </g>
     <g id="text_3">
      <!-- 290 -->
      <g transform="translate(140.113393 266.598437)scale(0.1 -0.1)">
       <defs>
        <path id="DejaVuSans-39" d="M 703 97 
L 703 672 
Q 941 559 1184 500 
Q 1428 441 1663 441 
Q 2288 441 2617 861 
Q 2947 1281 2994 2138 
Q 2813 1869 2534 1725 
Q 2256 1581 1919 1581 
Q 1219 1581 811 2004 
Q 403 2428 403 3163 
Q 403 3881 828 4315 
Q 1253 4750 1959 4750 
Q 2769 4750 3195 4129 
Q 3622 3509 3622 2328 
Q 3622 1225 3098 567 
Q 2575 -91 1691 -91 
Q 1453 -91 1209 -44 
Q 966 3 703 97 
z
M 1959 2075 
Q 2384 2075 2632 2365 
Q 2881 2656 2881 3163 
Q 2881 3666 2632 3958 
Q 2384 4250 1959 4250 
Q 1534 4250 1286 3958 
Q 1038 3666 1038 3163 
Q 1038 2656 1286 2365 
Q 1534 2075 1959 2075 
z
" transform="scale(0.015625)"/>
       </defs>
       <use xlink:href="#DejaVuSans-32"/>
       <use xlink:href="#DejaVuSans-39" x="63.623047"/>
       <use xlink:href="#DejaVuSans-30" x="127.246094"/>
      </g>
     </g>
    </g>
    <g id="xtick_4">
     <g id="line2d_4">
      <g>
       <use xlink:href="#mc6d30b3a8a" x="197.485714" y="252" style="stroke: #000000; stroke-width: 0.8"/>
      </g>
     </g>
     <g id="text_4">
      <!-- 295 -->
      <g transform="translate(187.941964 266.598437)scale(0.1 -0.1)">
       <use xlink:href="#DejaVuSans-32"/>
       <use xlink:href="#DejaVuSans-39" x="63.623047"/>
       <use xlink:href="#DejaVuSans-35" x="127.246094"/>
      </g>
     </g>
    </g>
    <g id="xtick_5">
     <g id="line2d_5">
      <g>
       <use xlink:href="#mc6d30b3a8a" x="245.314286" y="252" style="stroke: #000000; stroke-width: 0.8"/>
      </g>
     </g>
     <g id="text_5">
      <!-- 300 -->
      <g transform="translate(235.770536 266.598437)scale(0.1 -0.1)">
       <defs>
        <path id="DejaVuSans-33" d="M 2597 2516 
Q 3050 2419 3304 2112 
Q 3559 1806 3559 1356 
Q 3559 666 3084 287 
Q 2609 -91 1734 -91 
Q 1441 -91 1130 -33 
Q 819 25 488 141 
L 488 750 
Q 750 597 1062 519 
Q 1375 441 1716 441 
Q 2309 441 2620 675 
Q 2931 909 2931 1356 
Q 2931 1769 2642 2001 
Q 2353 2234 1838 2234 
L 1294 2234 
L 1294 2753 
L 1863 2753 
Q 2328 2753 2575 2939 
Q 2822 3125 2822 3475 
Q 2822 3834 2567 4026 
Q 2313 4219 1838 4219 
Q 1578 4219 1281 4162 
Q 984 4106 628 3988 
L 628 4550 
Q 988 4650 1302 4700 
Q 1616 4750 1894 4750 
Q 2613 4750 3031 4423 
Q 3450 4097 3450 3541 
Q 3450 3153 3228 2886 
Q 3006 2619 2597 2516 
z
" transform="scale(0.015625)"/>
       </defs>
       <use xlink:href="#DejaVuSans-33"/>
       <use xlink:href="#DejaVuSans-30" x="63.623047"/>
       <use xlink:href="#DejaVuSans-30" x="127.246094"/>
      </g>
     </g>
    </g>
    <g id="xtick_6">
     <g id="line2d_6">
      <g>
       <use xlink:href="#mc6d30b3a8a" x="293.142857" y="252" style="stroke: #000000; stroke-width: 0.8"/>
      </g>
     </g>
     <g id="text_6">
      <!-- 305 -->
      <g transform="translate(283.599107 266.598437)scale(0.1 -0.1)">
       <use xlink:href="#DejaVuSans-33"/>
       <use xlink:href="#DejaVuSans-30" x="63.623047"/>
       <use xlink:href="#DejaVuSans-35" x="127.246094"/>
      </g>
     </g>
    </g>
    <g id="xtick_7">
     <g id="line2d_7">
      <g>
       <use xlink:href="#mc6d30b3a8a" x="340.971429" y="252" style="stroke: #000000; stroke-width: 0.8"/>
      </g>
     </g>
     <g id="text_7">
      <!-- 310 -->
      <g transform="translate(331.427679 266.598437)scale(0.1 -0.1)">
       <defs>
        <path id="DejaVuSans-31" d="M 794 531 
L 1825 531 
L 1825 4091 
L 703 3866 
L 703 4441 
L 1819 4666 
L 2450 4666 
L 2450 531 
L 3481 531 
L 3481 0 
L 794 0 
L 794 531 
z
" transform="scale(0.015625)"/>
       </defs>
       <use xlink:href="#DejaVuSans-33"/>
       <use xlink:href="#DejaVuSans-31" x="63.623047"/>
       <use xlink:href="#DejaVuSans-30" x="127.246094"/>
      </g>
     </g>
    </g>
    <g id="xtick_8">
     <g id="line2d_8">
      <g>
       <use xlink:href="#mc6d30b3a8a" x="388.8" y="252" style="stroke: #000000; stroke-width: 0.8"/>
      </g>
     </g>
     <g id="text_8">
      <!-- 315 -->
      <g transform="translate(379.25625 266.598437)scale(0.1 -0.1)">
       <use xlink:href="#DejaVuSans-33"/>
       <use xlink:href="#DejaVuSans-31" x="63.623047"/>
       <use xlink:href="#DejaVuSans-35" x="127.246094"/>
      </g>
     </g>
    </g>
    <g id="text_9">
     <!-- energy [eV] -->
     <g transform="translate(191.989062 280.276563)scale(0.1 -0.1)">
      <defs>
       <path id="DejaVuSans-65" d="M 3597 1894 
L 3597 1613 
L 953 1613 
Q 991 1019 1311 708 
Q 1631 397 2203 397 
Q 2534 397 2845 478 
Q 3156 559 3463 722 
L 3463 178 
Q 3153 47 2828 -22 
Q 2503 -91 2169 -91 
Q 1331 -91 842 396 
Q 353 884 353 1716 
Q 353 2575 817 3079 
Q 1281 3584 2069 3584 
Q 2775 3584 3186 3129 
Q 3597 2675 3597 1894 
z
M 3022 2063 
Q 3016 2534 2758 2815 
Q 2500 3097 2075 3097 
Q 1594 3097 1305 2825 
Q 1016 2553 972 2059 
L 3022 2063 
z
" transform="scale(0.015625)"/>
       <path id="DejaVuSans-6e" d="M 3513 2113 
L 3513 0 
L 2938 0 
L 2938 2094 
Q 2938 2591 2744 2837 
Q 2550 3084 2163 3084 
Q 1697 3084 1428 2787 
Q 1159 2491 1159 1978 
L 1159 0 
L 581 0 
L 581 3500 
L 1159 3500 
L 1159 2956 
Q 1366 3272 1645 3428 
Q 1925 3584 2291 3584 
Q 2894 3584 3203 3211 
Q 3513 2838 3513 2113 
z
" transform="scale(0.015625)"/>
       <path id="DejaVuSans-72" d="M 2631 2963 
Q 2534 3019 2420 3045 
Q 2306 3072 2169 3072 
Q 1681 3072 1420 2755 
Q 1159 2438 1159 1844 
L 1159 0 
L 581 0 
L 581 3500 
L 1159 3500 
L 1159 2956 
Q 1341 3275 1631 3429 
Q 1922 3584 2338 3584 
Q 2397 3584 2469 3576 
Q 2541 3569 2628 3553 
L 2631 2963 
z
" transform="scale(0.015625)"/>
       <path id="DejaVuSans-67" d="M 2906 1791 
Q 2906 2416 2648 2759 
Q 2391 3103 1925 3103 
Q 1463 3103 1205 2759 
Q 947 2416 947 1791 
Q 947 1169 1205 825 
Q 1463 481 1925 481 
Q 2391 481 2648 825 
Q 2906 1169 2906 1791 
z
M 3481 434 
Q 3481 -459 3084 -895 
Q 2688 -1331 1869 -1331 
Q 1566 -1331 1297 -1286 
Q 1028 -1241 775 -1147 
L 775 -588 
Q 1028 -725 1275 -790 
Q 1522 -856 1778 -856 
Q 2344 -856 2625 -561 
Q 2906 -266 2906 331 
L 2906 616 
Q 2728 306 2450 153 
Q 2172 0 1784 0 
Q 1141 0 747 490 
Q 353 981 353 1791 
Q 353 2603 747 3093 
Q 1141 3584 1784 3584 
Q 2172 3584 2450 3431 
Q 2728 3278 2906 2969 
L 2906 3500 
L 3481 3500 
L 3481 434 
z
" transform="scale(0.015625)"/>
       <path id="DejaVuSans-79" d="M 2059 -325 
Q 1816 -950 1584 -1140 
Q 1353 -1331 966 -1331 
L 506 -1331 
L 506 -850 
L 844 -850 
Q 1081 -850 1212 -737 
Q 1344 -625 1503 -206 
L 1606 56 
L 191 3500 
L 800 3500 
L 1894 763 
L 2988 3500 
L 3597 3500 
L 2059 -325 
z
" transform="scale(0.015625)"/>
       <path id="DejaVuSans-20" transform="scale(0.015625)"/>
       <path id="DejaVuSans-5b" d="M 550 4863 
L 1875 4863 
L 1875 4416 
L 1125 4416 
L 1125 -397 
L 1875 -397 
L 1875 -844 
L 550 -844 
L 550 4863 
z
" transform="scale(0.015625)"/>
       <path id="DejaVuSans-56" d="M 1831 0 
L 50 4666 
L 709 4666 
L 2188 738 
L 3669 4666 
L 4325 4666 
L 2547 0 
L 1831 0 
z
" transform="scale(0.015625)"/>
       <path id="DejaVuSans-5d" d="M 1947 4863 
L 1947 -844 
L 622 -844 
L 622 -397 
L 1369 -397 
L 1369 4416 
L 622 4416 
L 622 4863 
L 1947 4863 
z
" transform="scale(0.015625)"/>
      </defs>
      <use xlink:href="#DejaVuSans-65"/>
      <use xlink:href="#DejaVuSans-6e" x="61.523438"/>
      <use xlink:href="#DejaVuSans-65" x="124.902344"/>
      <use xlink:href="#DejaVuSans-72" x="186.425781"/>
      <use xlink:href="#DejaVuSans-67" x="225.789062"/>
      <use xlink:href="#DejaVuSans-79" x="289.265625"/>
      <use xlink:href="#DejaVuSans-20" x="348.445312"/>
      <use xlink:href="#DejaVuSans-5b" x="380.232422"/>
      <use xlink:href="#DejaVuSans-65" x="419.246094"/>
      <use xlink:href="#DejaVuSans-56" x="480.769531"/>
      <use xlink:href="#DejaVuSans-5d" x="549.177734"/>
     </g>
    </g>
   </g>
   <g id="matplotlib.axis_2">
    <g id="ytick_1">
     <g id="line2d_9">
      <defs>
       <path id="ma318dca182" d="M 0 0 
L -3.5 0 
" style="stroke: #000000; stroke-width: 0.8"/>
      </defs>
      <g>
       <use xlink:href="#ma318dca182" x="54" y="238.069847" style="stroke: #000000; stroke-width: 0.8"/>
      </g>
     </g>
     <g id="text_10">
      <!-- 0.0 -->
      <g transform="translate(31.096875 241.869065)scale(0.1 -0.1)">
       <defs>
        <path id="DejaVuSans-2e" d="M 684 794 
L 1344 794 
L 1344 0 
L 684 0 
L 684 794 
z
" transform="scale(0.015625)"/>
       </defs>
       <use xlink:href="#DejaVuSans-30"/>
       <use xlink:href="#DejaVuSans-2e" x="63.623047"/>
       <use xlink:href="#DejaVuSans-30" x="95.410156"/>
      </g>
     </g>
    </g>
    <g id="ytick_2">
     <g id="line2d_10">
      <g>
       <use xlink:href="#ma318dca182" x="54" y="204.88178" style="stroke: #000000; stroke-width: 0.8"/>
      </g>
     </g>
     <g id="text_11">
      <!-- 0.5 -->
      <g transform="translate(31.096875 208.680999)scale(0.1 -0.1)">
       <use xlink:href="#DejaVuSans-30"/>
       <use xlink:href="#DejaVuSans-2e" x="63.623047"/>
       <use xlink:href="#DejaVuSans-35" x="95.410156"/>
      </g>
     </g>
    </g>
    <g id="ytick_3">
     <g id="line2d_11">
      <g>
       <use xlink:href="#ma318dca182" x="54" y="171.693714" style="stroke: #000000; stroke-width: 0.8"/>
      </g>
     </g>
     <g id="text_12">
      <!-- 1.0 -->
      <g transform="translate(31.096875 175.492933)scale(0.1 -0.1)">
       <use xlink:href="#DejaVuSans-31"/>
       <use xlink:href="#DejaVuSans-2e" x="63.623047"/>
       <use xlink:href="#DejaVuSans-30" x="95.410156"/>
      </g>
     </g>
    </g>
    <g id="ytick_4">
     <g id="line2d_12">
      <g>
       <use xlink:href="#ma318dca182" x="54" y="138.505648" style="stroke: #000000; stroke-width: 0.8"/>
      </g>
     </g>
     <g id="text_13">
      <!-- 1.5 -->
      <g transform="translate(31.096875 142.304866)scale(0.1 -0.1)">
       <use xlink:href="#DejaVuSans-31"/>
       <use xlink:href="#DejaVuSans-2e" x="63.623047"/>
       <use xlink:href="#DejaVuSans-35" x="95.410156"/>
      </g>
     </g>
    </g>
    <g id="ytick_5">
     <g id="line2d_13">
      <g>
       <use xlink:href="#ma318dca182" x="54" y="105.317581" style="stroke: #000000; stroke-width: 0.8"/>
      </g>
     </g>
     <g id="text_14">
      <!-- 2.0 -->
      <g transform="translate(31.096875 109.1168)scale(0.1 -0.1)">
       <use xlink:href="#DejaVuSans-32"/>
       <use xlink:href="#DejaVuSans-2e" x="63.623047"/>
       <use xlink:href="#DejaVuSans-30" x="95.410156"/>
      </g>
     </g>
    </g>
    <g id="ytick_6">
     <g id="line2d_14">
      <g>
       <use xlink:href="#ma318dca182" x="54" y="72.129515" style="stroke: #000000; stroke-width: 0.8"/>
      </g>
     </g>
     <g id="text_15">
      <!-- 2.5 -->
      <g transform="translate(31.096875 75.928734)scale(0.1 -0.1)">
       <use xlink:href="#DejaVuSans-32"/>
       <use xlink:href="#DejaVuSans-2e" x="63.623047"/>
       <use xlink:href="#DejaVuSans-35" x="95.410156"/>
      </g>
     </g>
    </g>
    <g id="ytick_7">
     <g id="line2d_15">
      <g>
       <use xlink:href="#ma318dca182" x="54" y="38.941449" style="stroke: #000000; stroke-width: 0.8"/>
      </g>
     </g>
     <g id="text_16">
      <!-- 3.0 -->
      <g transform="translate(31.096875 42.740667)scale(0.1 -0.1)">
       <use xlink:href="#DejaVuSans-33"/>
       <use xlink:href="#DejaVuSans-2e" x="63.623047"/>
       <use xlink:href="#DejaVuSans-30" x="95.410156"/>
      </g>
     </g>
    </g>
    <g id="text_17">
     <!-- electron_yield [a.u.] -->
     <g transform="translate(24.739062 193.0925)rotate(-90)scale(0.1 -0.1)">
      <defs>
       <path id="DejaVuSans-6c" d="M 603 4863 
L 1178 4863 
L 1178 0 
L 603 0 
L 603 4863 
z
" transform="scale(0.015625)"/>
       <path id="DejaVuSans-63" d="M 3122 3366 
L 3122 2828 
Q 2878 2963 2633 3030 
Q 2388 3097 2138 3097 
Q 1578 3097 1268 2742 
Q 959 2388 959 1747 
Q 959 1106 1268 751 
Q 1578 397 2138 397 
Q 2388 397 2633 464 
Q 2878 531 3122 666 
L 3122 134 
Q 2881 22 2623 -34 
Q 2366 -91 2075 -91 
Q 1284 -91 818 406 
Q 353 903 353 1747 
Q 353 2603 823 3093 
Q 1294 3584 2113 3584 
Q 2378 3584 2631 3529 
Q 2884 3475 3122 3366 
z
" transform="scale(0.015625)"/>
       <path id="DejaVuSans-74" d="M 1172 4494 
L 1172 3500 
L 2356 3500 
L 2356 3053 
L 1172 3053 
L 1172 1153 
Q 1172 725 1289 603 
Q 1406 481 1766 481 
L 2356 481 
L 2356 0 
L 1766 0 
Q 1100 0 847 248 
Q 594 497 594 1153 
L 594 3053 
L 172 3053 
L 172 3500 
L 594 3500 
L 594 4494 
L 1172 4494 
z
" transform="scale(0.015625)"/>
       <path id="DejaVuSans-6f" d="M 1959 3097 
Q 1497 3097 1228 2736 
Q 959 2375 959 1747 
Q 959 1119 1226 758 
Q 1494 397 1959 397 
Q 2419 397 2687 759 
Q 2956 1122 2956 1747 
Q 2956 2369 2687 2733 
Q 2419 3097 1959 3097 
z
M 1959 3584 
Q 2709 3584 3137 3096 
Q 3566 2609 3566 1747 
Q 3566 888 3137 398 
Q 2709 -91 1959 -91 
Q 1206 -91 779 398 
Q 353 888 353 1747 
Q 353 2609 779 3096 
Q 1206 3584 1959 3584 
z
" transform="scale(0.015625)"/>
       <path id="DejaVuSans-5f" d="M 3263 -1063 
L 3263 -1509 
L -63 -1509 
L -63 -1063 
L 3263 -1063 
z
" transform="scale(0.015625)"/>
       <path id="DejaVuSans-69" d="M 603 3500 
L 1178 3500 
L 1178 0 
L 603 0 
L 603 3500 
z
M 603 4863 
L 1178 4863 
L 1178 4134 
L 603 4134 
L 603 4863 
z
" transform="scale(0.015625)"/>
       <path id="DejaVuSans-64" d="M 2906 2969 
L 2906 4863 
L 3481 4863 
L 3481 0 
L 2906 0 
L 2906 525 
Q 2725 213 2448 61 
Q 2172 -91 1784 -91 
Q 1150 -91 751 415 
Q 353 922 353 1747 
Q 353 2572 751 3078 
Q 1150 3584 1784 3584 
Q 2172 3584 2448 3432 
Q 2725 3281 2906 2969 
z
M 947 1747 
Q 947 1113 1208 752 
Q 1469 391 1925 391 
Q 2381 391 2643 752 
Q 2906 1113 2906 1747 
Q 2906 2381 2643 2742 
Q 2381 3103 1925 3103 
Q 1469 3103 1208 2742 
Q 947 2381 947 1747 
z
" transform="scale(0.015625)"/>
       <path id="DejaVuSans-61" d="M 2194 1759 
Q 1497 1759 1228 1600 
Q 959 1441 959 1056 
Q 959 750 1161 570 
Q 1363 391 1709 391 
Q 2188 391 2477 730 
Q 2766 1069 2766 1631 
L 2766 1759 
L 2194 1759 
z
M 3341 1997 
L 3341 0 
L 2766 0 
L 2766 531 
Q 2569 213 2275 61 
Q 1981 -91 1556 -91 
Q 1019 -91 701 211 
Q 384 513 384 1019 
Q 384 1609 779 1909 
Q 1175 2209 1959 2209 
L 2766 2209 
L 2766 2266 
Q 2766 2663 2505 2880 
Q 2244 3097 1772 3097 
Q 1472 3097 1187 3025 
Q 903 2953 641 2809 
L 641 3341 
Q 956 3463 1253 3523 
Q 1550 3584 1831 3584 
Q 2591 3584 2966 3190 
Q 3341 2797 3341 1997 
z
" transform="scale(0.015625)"/>
       <path id="DejaVuSans-75" d="M 544 1381 
L 544 3500 
L 1119 3500 
L 1119 1403 
Q 1119 906 1312 657 
Q 1506 409 1894 409 
Q 2359 409 2629 706 
Q 2900 1003 2900 1516 
L 2900 3500 
L 3475 3500 
L 3475 0 
L 2900 0 
L 2900 538 
Q 2691 219 2414 64 
Q 2138 -91 1772 -91 
Q 1169 -91 856 284 
Q 544 659 544 1381 
z
M 1991 3584 
L 1991 3584 
z
" transform="scale(0.015625)"/>
      </defs>
      <use xlink:href="#DejaVuSans-65"/>
      <use xlink:href="#DejaVuSans-6c" x="61.523438"/>
      <use xlink:href="#DejaVuSans-65" x="89.306641"/>
      <use xlink:href="#DejaVuSans-63" x="150.830078"/>
      <use xlink:href="#DejaVuSans-74" x="205.810547"/>
      <use xlink:href="#DejaVuSans-72" x="245.019531"/>
      <use xlink:href="#DejaVuSans-6f" x="283.882812"/>
      <use xlink:href="#DejaVuSans-6e" x="345.064453"/>
      <use xlink:href="#DejaVuSans-5f" x="408.443359"/>
      <use xlink:href="#DejaVuSans-79" x="458.443359"/>
      <use xlink:href="#DejaVuSans-69" x="517.623047"/>
      <use xlink:href="#DejaVuSans-65" x="545.40625"/>
      <use xlink:href="#DejaVuSans-6c" x="606.929688"/>
      <use xlink:href="#DejaVuSans-64" x="634.712891"/>
      <use xlink:href="#DejaVuSans-20" x="698.189453"/>
      <use xlink:href="#DejaVuSans-5b" x="729.976562"/>
      <use xlink:href="#DejaVuSans-61" x="768.990234"/>
      <use xlink:href="#DejaVuSans-2e" x="830.269531"/>
      <use xlink:href="#DejaVuSans-75" x="862.056641"/>
      <use xlink:href="#DejaVuSans-2e" x="925.435547"/>
      <use xlink:href="#DejaVuSans-5d" x="957.222656"/>
     </g>
    </g>
   </g>
   <g id="line2d_16">
    <path d="M 63.565714 237.962416 
L 64.980193 240.148794 
L 66.394672 238.973528 
L 67.809151 237.624618 
L 69.223631 239.218968 
L 70.63811 240.146952 
L 72.052589 239.201797 
L 73.467068 238.853773 
L 74.881547 239.949237 
L 76.296026 240.37416 
L 77.710505 238.035703 
L 79.124984 237.863383 
L 80.539463 238.178585 
L 81.953942 240.900062 
L 83.368421 238.016538 
L 84.7829 237.397929 
L 86.197379 238.923407 
L 87.611858 237.614472 
L 89.026337 237.581909 
L 90.440816 235.252344 
L 91.855295 227.248205 
L 93.269774 202.733085 
L 94.684253 164.133161 
L 96.098733 153.44991 
L 97.513212 157.417759 
L 98.927691 125.063764 
L 100.34217 102.607592 
L 101.756649 126.775089 
L 103.171128 164.77954 
L 104.585607 181.79331 
L 106.000086 180.959843 
L 107.414565 164.779432 
L 108.829044 150.878658 
L 111.658002 133.046261 
L 114.48696 118.686478 
L 115.901439 116.757463 
L 117.315918 118.885019 
L 118.730397 115.922013 
L 120.144876 102.568361 
L 121.559356 86.159812 
L 122.973835 78.90257 
L 124.388314 74.052786 
L 125.802793 71.362315 
L 127.217272 60.824048 
L 128.631751 45.462475 
L 130.04623 44.443636 
L 131.460709 54.842369 
L 132.875188 69.376467 
L 134.289667 80.238376 
L 135.704146 88.027416 
L 137.118625 90.162125 
L 139.947583 93.674865 
L 141.362062 93.769685 
L 142.776541 89.321326 
L 144.19102 87.741367 
L 145.605499 88.139875 
L 147.019979 90.137165 
L 148.434458 92.521167 
L 149.848937 91.911744 
L 151.263416 92.194429 
L 152.677895 92.875103 
L 154.092374 90.153884 
L 155.506853 90.546455 
L 156.921332 88.15643 
L 158.335811 84.768049 
L 161.164769 76.031054 
L 162.579248 74.40264 
L 163.993727 71.284327 
L 165.408206 71.04377 
L 166.822685 67.631793 
L 168.237164 66.622338 
L 169.651643 66.463369 
L 171.066122 67.145623 
L 172.480602 66.128146 
L 173.895081 65.499932 
L 175.30956 67.445629 
L 176.724039 66.907201 
L 178.138518 67.347248 
L 179.552997 67.965767 
L 180.967476 69.49306 
L 182.381955 69.601278 
L 183.796434 70.300516 
L 185.210913 71.918703 
L 186.625392 74.032491 
L 188.039871 74.905162 
L 189.45435 76.132437 
L 190.868829 76.920208 
L 192.283308 77.462432 
L 193.697787 79.389589 
L 196.526745 82.476843 
L 199.355704 85.028106 
L 200.770183 87.028619 
L 202.184662 86.584062 
L 203.599141 89.437834 
L 205.01362 88.48097 
L 206.428099 85.819263 
L 207.842578 91.013708 
L 209.257057 91.351726 
L 210.671536 93.902437 
L 212.086015 93.282814 
L 213.500494 94.386756 
L 214.914973 94.279315 
L 216.329452 96.493491 
L 217.743931 96.944096 
L 219.15841 97.681301 
L 224.816327 99.482295 
L 226.230806 100.434236 
L 227.645285 101.714745 
L 229.059764 102.585499 
L 230.474243 102.94903 
L 231.888722 103.875228 
L 234.71768 104.391604 
L 237.546638 106.812492 
L 238.961117 107.502165 
L 240.375596 108.847731 
L 241.790075 109.339219 
L 244.619033 109.861854 
L 246.033512 109.560639 
L 247.447991 108.407894 
L 248.86247 109.551818 
L 250.27695 111.445215 
L 254.520387 112.231832 
L 255.934866 111.417637 
L 257.349345 110.863656 
L 258.763824 112.417048 
L 260.178303 114.151006 
L 261.592782 115.261271 
L 263.007261 116.029032 
L 264.42174 116.31255 
L 265.836219 116.44692 
L 267.250698 116.405716 
L 268.665177 117.109878 
L 270.079656 117.494832 
L 272.908614 117.355981 
L 277.152052 119.457174 
L 278.566531 120.87426 
L 279.98101 122.019408 
L 281.395489 122.465125 
L 282.809968 122.754776 
L 285.638926 122.950593 
L 287.053405 123.365604 
L 288.467884 124.714319 
L 289.882363 125.723638 
L 292.711321 126.69605 
L 295.540279 126.607579 
L 296.954758 126.870222 
L 298.369237 128.408996 
L 299.783716 128.668367 
L 301.198195 128.583192 
L 302.612675 128.642916 
L 304.027154 129.260463 
L 305.441633 129.692966 
L 306.856112 131.648145 
L 308.270591 131.901455 
L 311.099549 132.145029 
L 312.514028 132.420287 
L 313.928507 132.98702 
L 315.342986 134.080228 
L 316.757465 135.552105 
L 318.171944 136.666423 
L 319.586423 137.270848 
L 321.000902 137.589119 
L 322.415381 137.71263 
L 323.82986 137.960475 
L 325.244339 138.537221 
L 326.658818 140.349015 
L 329.487777 140.894895 
L 332.316735 140.414311 
L 333.731214 140.665775 
L 336.560172 143.201661 
L 339.38913 143.586477 
L 342.218088 142.979581 
L 343.632567 143.058576 
L 346.461525 144.296049 
L 349.290483 144.0248 
L 352.119441 144.317772 
L 353.533921 144.997586 
L 354.9484 145.852357 
L 356.362879 146.166589 
L 357.777358 146.12436 
L 359.191837 146.831341 
L 360.606316 147.711414 
L 363.435274 148.272931 
L 364.849753 148.39771 
L 366.264232 148.173362 
L 367.678711 148.069445 
L 369.09319 149.235471 
L 371.922148 149.89289 
L 373.336627 150.512138 
L 374.751106 150.949667 
L 376.165585 150.798033 
L 377.580064 150.512692 
L 380.409023 149.586221 
L 381.823502 150.048081 
L 383.237981 150.771315 
L 384.65246 151.036324 
L 387.481418 150.613005 
L 388.895897 151.265358 
L 390.310376 151.524327 
L 391.724855 152.659251 
L 393.139334 153.027342 
L 395.968292 152.858365 
L 400.211729 153.51644 
L 403.040687 154.518884 
L 405.869646 154.218491 
L 408.698604 154.425147 
L 410.113083 155.026224 
L 411.527562 155.955595 
L 412.942041 156.550625 
L 415.770999 156.831858 
L 417.185478 155.854288 
L 418.599957 155.363561 
L 420.014436 156.064493 
L 421.428915 156.594476 
L 425.672352 157.509733 
L 427.086831 156.718505 
L 428.50131 156.620792 
L 431.330269 157.632866 
L 433 157.511049 
L 433 157.511049 
" clip-path="url(#p8be188c03b)" style="fill: none; stroke: #440154; stroke-width: 1.5; stroke-linecap: square"/>
   </g>
   <g id="line2d_17">
    <path d="M 63.565714 239.804817 
L 64.980193 238.627239 
L 67.809151 237.754965 
L 70.63811 239.538044 
L 72.052589 238.399672 
L 73.467068 239.902228 
L 74.881547 239.483159 
L 76.296026 239.995937 
L 77.710505 242.116364 
L 79.124984 239.695435 
L 80.539463 240.026127 
L 81.953942 238.62047 
L 83.368421 238.26171 
L 84.7829 235.643835 
L 86.197379 238.011826 
L 89.026337 236.99558 
L 90.440816 232.840849 
L 91.855295 229.413141 
L 93.269774 208.784332 
L 94.684253 175.110638 
L 96.098733 168.06313 
L 97.513212 166.253796 
L 100.34217 115.551512 
L 101.756649 140.415676 
L 103.171128 170.275952 
L 104.585607 186.607069 
L 106.000086 184.54022 
L 107.414565 167.597759 
L 108.829044 157.046215 
L 110.243523 148.264277 
L 111.658002 142.767493 
L 114.48696 129.986092 
L 115.901439 122.460932 
L 117.315918 122.864662 
L 118.730397 120.132623 
L 120.144876 108.598616 
L 121.559356 94.100575 
L 122.973835 85.314475 
L 124.388314 80.604592 
L 125.802793 76.88673 
L 128.631751 54.184604 
L 130.04623 52.658748 
L 131.460709 61.577738 
L 134.289667 85.639454 
L 135.704146 91.960528 
L 137.118625 92.744015 
L 138.533104 95.123525 
L 139.947583 97.061791 
L 141.362062 95.869825 
L 142.776541 94.181585 
L 144.19102 88.17373 
L 145.605499 88.897325 
L 147.019979 90.978966 
L 148.434458 90.611122 
L 149.848937 93.403882 
L 151.263416 90.804061 
L 152.677895 90.777231 
L 154.092374 88.260337 
L 155.506853 88.43352 
L 156.921332 87.221655 
L 158.335811 82.667963 
L 159.75029 77.403442 
L 161.164769 73.181643 
L 162.579248 72.590123 
L 163.993727 67.917322 
L 165.408206 67.323356 
L 166.822685 64.283379 
L 168.237164 62.323227 
L 169.651643 62.685687 
L 171.066122 61.841482 
L 172.480602 61.714648 
L 173.895081 60.802535 
L 175.30956 61.930357 
L 176.724039 61.834692 
L 178.138518 64.107433 
L 179.552997 63.442817 
L 180.967476 64.523668 
L 182.381955 65.753822 
L 183.796434 65.301315 
L 185.210913 67.15378 
L 186.625392 69.874492 
L 188.039871 70.632624 
L 189.45435 71.573408 
L 190.868829 72.759793 
L 192.283308 73.652276 
L 193.697787 76.056356 
L 195.112266 77.322214 
L 196.526745 78.814908 
L 197.941224 78.47256 
L 199.355704 81.021503 
L 200.770183 80.988298 
L 202.184662 82.419362 
L 205.01362 84.549372 
L 206.428099 86.121563 
L 207.842578 86.492115 
L 209.257057 85.548489 
L 210.671536 87.033628 
L 212.086015 89.111663 
L 213.500494 91.540177 
L 214.914973 90.549672 
L 216.329452 90.385481 
L 217.743931 92.540622 
L 219.15841 93.628584 
L 220.572889 94.091911 
L 223.401847 96.041292 
L 224.816327 96.980186 
L 226.230806 96.219869 
L 227.645285 95.629761 
L 231.888722 97.607226 
L 234.71768 99.438955 
L 236.132159 99.06616 
L 237.546638 98.389067 
L 238.961117 99.001412 
L 241.790075 101.19904 
L 244.619033 105.88283 
L 246.033512 106.387697 
L 247.447991 105.249738 
L 253.105908 107.559884 
L 254.520387 108.294247 
L 255.934866 109.324188 
L 257.349345 109.964967 
L 260.178303 109.675695 
L 261.592782 110.197289 
L 263.007261 111.014639 
L 264.42174 111.311465 
L 265.836219 112.264043 
L 267.250698 112.586701 
L 270.079656 112.235856 
L 271.494135 112.696907 
L 272.908614 113.848375 
L 275.737573 113.067947 
L 278.566531 114.095601 
L 279.98101 115.033359 
L 281.395489 117.217064 
L 282.809968 119.048227 
L 284.224447 119.06864 
L 288.467884 119.499449 
L 289.882363 119.785083 
L 291.296842 120.240501 
L 295.540279 122.353646 
L 298.369237 123.494039 
L 299.783716 125.212545 
L 301.198195 126.147777 
L 304.027154 126.471414 
L 306.856112 126.571952 
L 308.270591 127.041187 
L 309.68507 129.158278 
L 311.099549 131.63483 
L 312.514028 133.597081 
L 316.757465 133.300447 
L 318.171944 133.175079 
L 319.586423 134.129271 
L 321.000902 135.361979 
L 323.82986 136.082391 
L 328.073298 136.97746 
L 329.487777 138.817369 
L 330.902256 137.431457 
L 332.316735 136.695633 
L 335.145693 136.780646 
L 336.560172 136.985362 
L 337.974651 138.485174 
L 339.38913 140.313393 
L 340.803609 141.847404 
L 342.218088 141.849006 
L 346.461525 140.901352 
L 347.876004 141.221554 
L 349.290483 141.859173 
L 350.704962 143.27444 
L 352.119441 144.305588 
L 354.9484 145.07204 
L 356.362879 146.201994 
L 357.777358 146.99194 
L 359.191837 146.654025 
L 360.606316 145.751548 
L 364.849753 146.585618 
L 367.678711 149.941553 
L 369.09319 148.399269 
L 370.507669 146.561044 
L 371.922148 146.436921 
L 373.336627 146.544641 
L 374.751106 147.032355 
L 377.580064 149.970913 
L 380.409023 150.627531 
L 383.237981 150.419335 
L 384.65246 151.24638 
L 386.066939 152.52213 
L 387.481418 151.885821 
L 388.895897 151.00416 
L 390.310376 150.494376 
L 393.139334 150.222851 
L 394.553813 151.17874 
L 395.968292 152.308007 
L 397.382771 152.334367 
L 398.79725 151.904064 
L 403.040687 151.874759 
L 404.455166 152.142906 
L 405.869646 152.714688 
L 408.698604 154.424378 
L 411.527562 154.292593 
L 414.35652 154.532503 
L 417.185478 156.495928 
L 421.428915 156.425648 
L 422.843394 157.239174 
L 424.257873 158.217282 
L 425.672352 157.982445 
L 427.086831 157.304669 
L 428.50131 157.312796 
L 429.915789 157.593873 
L 431.330269 158.023353 
L 433 159.445936 
L 433 159.445936 
" clip-path="url(#p8be188c03b)" style="fill: none; stroke: #414487; stroke-width: 1.5; stroke-linecap: square"/>
   </g>
   <g id="line2d_18">
    <path d="M 63.565714 239.395235 
L 64.980193 239.15838 
L 66.394672 238.66098 
L 67.809151 238.323427 
L 70.63811 238.519305 
L 72.052589 238.434381 
L 73.467068 238.175223 
L 74.881547 239.071886 
L 77.710505 238.799138 
L 79.124984 239.397012 
L 81.953942 239.238405 
L 83.368421 239.096654 
L 84.7829 237.868378 
L 86.197379 237.515026 
L 87.611858 236.106162 
L 89.026337 238.29221 
L 90.440816 234.837877 
L 91.855295 231.793327 
L 93.269774 219.490184 
L 94.684253 199.267722 
L 96.098733 193.782635 
L 97.513212 189.172853 
L 98.927691 176.312148 
L 100.34217 159.01301 
L 101.756649 174.629677 
L 103.171128 191.633162 
L 104.585607 202.554585 
L 106.000086 200.120446 
L 107.414565 193.391071 
L 108.829044 184.587504 
L 110.243523 178.774402 
L 111.658002 174.692579 
L 114.48696 162.20929 
L 115.901439 142.025277 
L 117.315918 142.244672 
L 118.730397 140.231969 
L 120.144876 131.479359 
L 121.559356 116.175242 
L 122.973835 106.60744 
L 124.388314 100.093384 
L 125.802793 97.5787 
L 127.217272 89.856034 
L 128.631751 79.636591 
L 130.04623 78.956949 
L 131.460709 87.523865 
L 134.289667 101.639914 
L 135.704146 105.116706 
L 137.118625 106.327916 
L 138.533104 104.841114 
L 139.947583 105.685903 
L 141.362062 105.207404 
L 142.776541 101.006896 
L 144.19102 97.66367 
L 147.019979 94.107386 
L 148.434458 92.809789 
L 149.848937 91.802592 
L 151.263416 92.769969 
L 152.677895 90.508737 
L 154.092374 89.323009 
L 155.506853 86.302509 
L 156.921332 84.979031 
L 158.335811 79.702763 
L 159.75029 75.84145 
L 161.164769 73.090054 
L 162.579248 71.276335 
L 163.993727 66.234096 
L 165.408206 63.688883 
L 166.822685 63.143987 
L 168.237164 60.650347 
L 169.651643 61.953845 
L 171.066122 59.129476 
L 172.480602 58.92598 
L 173.895081 57.604221 
L 175.30956 58.880217 
L 176.724039 58.213568 
L 178.138518 58.056103 
L 179.552997 58.142254 
L 180.967476 58.467377 
L 182.381955 59.821265 
L 183.796434 59.734149 
L 185.210913 61.412721 
L 186.625392 61.365276 
L 188.039871 62.853279 
L 189.45435 63.965618 
L 190.868829 66.425573 
L 192.283308 65.984229 
L 195.112266 67.45433 
L 196.526745 67.698616 
L 199.355704 69.038863 
L 200.770183 69.078336 
L 202.184662 71.188493 
L 203.599141 71.030892 
L 205.01362 72.188966 
L 206.428099 71.801146 
L 207.842578 72.644415 
L 209.257057 73.207708 
L 212.086015 75.643961 
L 213.500494 74.610539 
L 214.914973 76.482267 
L 216.329452 74.487841 
L 217.743931 76.319564 
L 220.572889 76.748435 
L 221.987368 78.185986 
L 223.401847 79.373056 
L 224.816327 80.05441 
L 230.474243 81.421663 
L 231.888722 81.891133 
L 233.303201 83.388264 
L 234.71768 84.444342 
L 240.375596 85.518271 
L 241.790075 85.529929 
L 244.619033 88.312125 
L 247.447991 88.864941 
L 250.27695 89.350678 
L 251.691429 89.780822 
L 253.105908 91.624277 
L 258.763824 91.932765 
L 260.178303 92.742539 
L 261.592782 95.124308 
L 263.007261 96.830432 
L 270.079656 96.254058 
L 271.494135 97.933227 
L 272.908614 99.819542 
L 274.323093 100.537256 
L 277.152052 101.587626 
L 278.566531 101.572271 
L 279.98101 100.727197 
L 281.395489 101.186173 
L 282.809968 102.923996 
L 288.467884 106.033286 
L 289.882363 107.600063 
L 291.296842 109.941142 
L 298.369237 112.176623 
L 299.783716 113.821836 
L 301.198195 115.646327 
L 302.612675 116.58786 
L 305.441633 117.910184 
L 306.856112 118.300858 
L 308.270591 117.946712 
L 309.68507 118.191258 
L 312.514028 121.051163 
L 315.342986 123.747259 
L 316.757465 124.347553 
L 318.171944 124.61626 
L 319.586423 125.603753 
L 321.000902 126.986944 
L 325.244339 129.343728 
L 326.658818 129.180635 
L 328.073298 129.282031 
L 329.487777 131.17127 
L 330.902256 132.186649 
L 335.145693 134.030193 
L 336.560172 134.909301 
L 339.38913 137.594938 
L 345.047046 139.081523 
L 346.461525 138.87635 
L 347.876004 140.999935 
L 354.9484 141.478962 
L 356.362879 142.073657 
L 357.777358 143.016529 
L 359.191837 143.63489 
L 363.435274 144.39245 
L 364.849753 144.078348 
L 366.264232 144.531868 
L 367.678711 145.163168 
L 370.507669 145.326044 
L 371.922148 145.372573 
L 373.336627 145.642452 
L 374.751106 146.679299 
L 376.165585 148.188415 
L 378.994544 148.434626 
L 383.237981 148.676988 
L 384.65246 150.332717 
L 386.066939 151.11126 
L 387.481418 151.48919 
L 391.724855 151.172041 
L 394.553813 150.730235 
L 395.968292 151.356456 
L 397.382771 151.369471 
L 401.626208 150.844378 
L 403.040687 151.212648 
L 404.455166 152.166512 
L 405.869646 152.140568 
L 410.113083 151.565055 
L 411.527562 151.963348 
L 414.35652 154.684681 
L 415.770999 154.95588 
L 420.014436 154.425515 
L 421.428915 154.751473 
L 422.843394 155.197553 
L 424.257873 156.151005 
L 425.672352 156.415569 
L 429.915789 156.240063 
L 431.330269 155.962932 
L 433 156.311298 
L 433 156.311298 
" clip-path="url(#p8be188c03b)" style="fill: none; stroke: #2a788e; stroke-width: 1.5; stroke-linecap: square"/>
   </g>
   <g id="line2d_19">
    <path d="M 63.565714 238.809423 
L 64.980193 237.934258 
L 67.809151 238.943323 
L 69.223631 238.421071 
L 70.63811 237.585945 
L 72.052589 238.124575 
L 73.467068 239.101023 
L 74.881547 239.050169 
L 76.296026 238.67453 
L 77.710505 239.049412 
L 79.124984 236.454415 
L 80.539463 239.525353 
L 81.953942 237.268266 
L 83.368421 237.571924 
L 84.7829 238.533949 
L 86.197379 237.377193 
L 87.611858 238.660292 
L 89.026337 238.170718 
L 90.440816 236.971291 
L 91.855295 234.787823 
L 93.269774 230.356379 
L 94.684253 221.978197 
L 96.098733 216.592073 
L 97.513212 217.105211 
L 98.927691 208.495383 
L 100.34217 201.989232 
L 101.756649 204.767432 
L 103.171128 215.452273 
L 104.585607 218.806351 
L 106.000086 219.477198 
L 107.414565 215.725083 
L 108.829044 212.381228 
L 110.243523 208.032092 
L 111.658002 206.016454 
L 113.072481 201.441877 
L 114.48696 192.638266 
L 115.901439 165.666839 
L 117.315918 157.818238 
L 118.730397 157.394128 
L 120.144876 153.500188 
L 121.559356 136.720713 
L 122.973835 127.168027 
L 124.388314 120.017724 
L 125.802793 115.005863 
L 127.217272 110.407591 
L 128.631751 104.859214 
L 130.04623 104.638172 
L 131.460709 108.377293 
L 132.875188 113.20047 
L 134.289667 114.685758 
L 135.704146 117.163054 
L 137.118625 118.359097 
L 138.533104 117.344016 
L 139.947583 114.109866 
L 141.362062 112.299616 
L 144.19102 104.635827 
L 145.605499 100.234258 
L 147.019979 96.448328 
L 148.434458 93.735283 
L 149.848937 92.583782 
L 151.263416 90.92098 
L 152.677895 89.059608 
L 154.092374 88.126966 
L 156.921332 84.204458 
L 159.75029 76.68495 
L 162.579248 67.859292 
L 163.993727 65.219532 
L 165.408206 62.129771 
L 166.822685 61.400039 
L 168.237164 59.065978 
L 169.651643 58.24433 
L 171.066122 56.315633 
L 172.480602 56.307718 
L 173.895081 55.96245 
L 175.30956 53.559785 
L 176.724039 52.506598 
L 178.138518 52.75884 
L 179.552997 54.343753 
L 180.967476 53.305391 
L 182.381955 54.496992 
L 183.796434 53.179401 
L 185.210913 54.889813 
L 186.625392 54.78025 
L 188.039871 56.046562 
L 189.45435 55.678421 
L 190.868829 56.031284 
L 192.283308 56.265015 
L 193.697787 57.717549 
L 195.112266 58.620594 
L 196.526745 59.102135 
L 197.941224 58.715298 
L 199.355704 59.400156 
L 200.770183 58.868836 
L 202.184662 59.85525 
L 203.599141 59.227513 
L 205.01362 60.462181 
L 206.428099 59.1724 
L 207.842578 60.391155 
L 209.257057 59.861006 
L 210.671536 61.398668 
L 212.086015 61.882596 
L 213.500494 61.965436 
L 214.914973 62.753072 
L 216.329452 62.421911 
L 217.743931 62.871969 
L 219.15841 63.990202 
L 221.987368 63.776649 
L 224.816327 63.912513 
L 226.230806 64.801599 
L 227.645285 66.422929 
L 229.059764 67.472695 
L 231.888722 68.785376 
L 233.303201 69.45609 
L 234.71768 69.420333 
L 236.132159 70.157999 
L 237.546638 70.649745 
L 238.961117 70.924272 
L 240.375596 73.181612 
L 241.790075 74.267361 
L 244.619033 75.491291 
L 247.447991 75.149303 
L 248.86247 75.465584 
L 251.691429 76.856146 
L 258.763824 77.690488 
L 260.178303 79.155472 
L 263.007261 79.148928 
L 264.42174 79.88335 
L 265.836219 80.924158 
L 267.250698 81.680875 
L 270.079656 84.916647 
L 271.494135 85.706733 
L 272.908614 86.218282 
L 275.737573 85.89697 
L 277.152052 86.827563 
L 279.98101 90.968267 
L 281.395489 91.895381 
L 282.809968 92.367057 
L 284.224447 91.665317 
L 285.638926 91.236307 
L 287.053405 92.699929 
L 288.467884 94.725418 
L 289.882363 96.252332 
L 291.296842 97.168203 
L 292.711321 97.839951 
L 295.540279 98.803271 
L 298.369237 102.334818 
L 299.783716 103.434946 
L 301.198195 104.261572 
L 304.027154 108.098925 
L 305.441633 109.231458 
L 306.856112 110.579369 
L 309.68507 112.648278 
L 311.099549 113.543255 
L 313.928507 114.436594 
L 315.342986 116.232933 
L 316.757465 118.415979 
L 318.171944 120.306007 
L 319.586423 121.479599 
L 321.000902 121.704027 
L 322.415381 121.058633 
L 323.82986 120.871851 
L 325.244339 122.503375 
L 326.658818 124.372394 
L 328.073298 125.696075 
L 329.487777 126.612227 
L 330.902256 128.25866 
L 332.316735 129.597332 
L 336.560172 131.789471 
L 339.38913 132.810603 
L 343.632567 135.405899 
L 346.461525 137.698161 
L 347.876004 138.155144 
L 349.290483 138.46284 
L 350.704962 138.584422 
L 352.119441 138.939093 
L 356.362879 140.626035 
L 357.777358 140.828361 
L 362.020795 141.16925 
L 364.849753 142.827888 
L 366.264232 143.208068 
L 367.678711 143.444712 
L 369.09319 143.870172 
L 370.507669 145.124677 
L 371.922148 145.628399 
L 373.336627 146.485369 
L 374.751106 147.740738 
L 376.165585 147.919493 
L 377.580064 147.879404 
L 380.409023 146.957315 
L 381.823502 147.394261 
L 383.237981 148.139181 
L 384.65246 148.577404 
L 386.066939 148.608733 
L 390.310376 149.186113 
L 393.139334 150.537138 
L 394.553813 150.717399 
L 397.382771 150.849376 
L 400.211729 150.981481 
L 403.040687 152.005617 
L 407.284125 151.29479 
L 408.698604 151.314075 
L 410.113083 151.779562 
L 411.527562 152.719645 
L 412.942041 153.419306 
L 414.35652 153.573994 
L 418.599957 153.62337 
L 421.428915 154.879629 
L 422.843394 155.248919 
L 425.672352 155.601196 
L 427.086831 155.068111 
L 428.50131 155.088842 
L 429.915789 155.593254 
L 431.330269 156.783268 
L 433 157.017092 
L 433 157.017092 
" clip-path="url(#p8be188c03b)" style="fill: none; stroke: #22a884; stroke-width: 1.5; stroke-linecap: square"/>
   </g>
   <g id="line2d_20">
    <path d="M 63.565714 237.664189 
L 67.809151 237.875583 
L 70.63811 237.099508 
L 72.052589 238.952387 
L 73.467068 238.000172 
L 74.881547 238.430382 
L 76.296026 239.279301 
L 77.710505 237.36306 
L 79.124984 239.049802 
L 80.539463 237.756608 
L 81.953942 238.903137 
L 84.7829 238.970524 
L 86.197379 238.419034 
L 87.611858 236.489298 
L 89.026337 237.489968 
L 90.440816 238.86984 
L 91.855295 236.977725 
L 93.269774 234.561537 
L 94.684253 230.470873 
L 96.098733 229.575376 
L 97.513212 227.467678 
L 98.927691 223.616041 
L 100.34217 217.711427 
L 101.756649 218.983876 
L 103.171128 223.797887 
L 104.585607 226.287993 
L 106.000086 226.450523 
L 107.414565 224.039484 
L 108.829044 222.151229 
L 110.243523 219.941213 
L 111.658002 219.334598 
L 113.072481 215.15704 
L 114.48696 201.876592 
L 115.901439 176.458292 
L 117.315918 164.439583 
L 118.730397 163.923202 
L 120.144876 158.889469 
L 121.559356 146.029656 
L 122.973835 134.410987 
L 124.388314 127.734947 
L 127.217272 117.896987 
L 128.631751 113.948725 
L 130.04623 112.138477 
L 131.460709 115.856174 
L 132.875188 118.772862 
L 134.289667 120.204684 
L 135.704146 119.998259 
L 137.118625 121.531564 
L 138.533104 119.446215 
L 139.947583 117.156889 
L 141.362062 114.362375 
L 144.19102 104.845256 
L 145.605499 100.570007 
L 147.019979 95.730396 
L 148.434458 90.226566 
L 149.848937 88.001457 
L 151.263416 87.880847 
L 152.677895 85.817074 
L 154.092374 86.09995 
L 155.506853 82.138597 
L 156.921332 82.567102 
L 158.335811 78.424911 
L 159.75029 73.221265 
L 161.164769 70.030079 
L 162.579248 66.087539 
L 163.993727 63.822167 
L 165.408206 60.746358 
L 166.822685 58.935062 
L 168.237164 56.073299 
L 169.651643 55.40901 
L 171.066122 53.752243 
L 172.480602 53.323435 
L 173.895081 50.777506 
L 175.30956 50.490132 
L 178.138518 49.466258 
L 179.552997 48.074841 
L 180.967476 48.084665 
L 182.381955 49.339698 
L 183.796434 49.28618 
L 185.210913 49.922022 
L 186.625392 48.516769 
L 188.039871 50.206984 
L 189.45435 50.037952 
L 190.868829 51.497842 
L 192.283308 50.283673 
L 193.697787 51.587928 
L 195.112266 51.696661 
L 196.526745 51.607072 
L 197.941224 50.880659 
L 199.355704 51.487264 
L 200.770183 51.224426 
L 202.184662 53.890555 
L 203.599141 50.823847 
L 205.01362 52.635532 
L 206.428099 51.928397 
L 207.842578 52.442081 
L 209.257057 52.358067 
L 210.671536 54.131374 
L 212.086015 54.164912 
L 213.500494 53.85793 
L 214.914973 54.839758 
L 216.329452 54.631893 
L 217.743931 54.722926 
L 219.15841 55.198052 
L 221.987368 57.458961 
L 223.401847 58.196302 
L 224.816327 58.641904 
L 227.645285 59.89922 
L 229.059764 60.525341 
L 230.474243 60.701609 
L 231.888722 59.808744 
L 233.303201 60.432149 
L 234.71768 61.20024 
L 238.961117 64.695826 
L 240.375596 65.374867 
L 241.790075 65.878843 
L 244.619033 66.511209 
L 246.033512 67.531108 
L 247.447991 68.006096 
L 250.27695 68.712569 
L 251.691429 69.83059 
L 253.105908 70.144122 
L 254.520387 70.754309 
L 255.934866 71.781769 
L 257.349345 72.63391 
L 258.763824 72.979994 
L 261.592782 72.996797 
L 264.42174 74.424403 
L 265.836219 75.804801 
L 267.250698 76.657263 
L 268.665177 77.171528 
L 271.494135 77.421439 
L 272.908614 77.930117 
L 275.737573 79.751914 
L 277.152052 80.358035 
L 278.566531 81.634168 
L 279.98101 83.257565 
L 281.395489 84.348555 
L 282.809968 85.146585 
L 285.638926 87.219502 
L 287.053405 88.132573 
L 289.882363 91.072412 
L 291.296842 92.187595 
L 295.540279 96.245587 
L 296.954758 96.991261 
L 298.369237 97.118822 
L 299.783716 97.40297 
L 301.198195 98.458863 
L 302.612675 100.416769 
L 304.027154 101.970943 
L 306.856112 104.545124 
L 308.270591 105.186211 
L 311.099549 107.053673 
L 313.928507 109.844384 
L 315.342986 110.914255 
L 316.757465 113.298515 
L 318.171944 114.906705 
L 321.000902 116.993208 
L 323.82986 119.178999 
L 325.244339 120.158009 
L 329.487777 123.669329 
L 332.316735 126.864997 
L 333.731214 128.014725 
L 335.145693 128.311611 
L 336.560172 127.925447 
L 337.974651 127.922309 
L 339.38913 128.811942 
L 340.803609 130.395759 
L 342.218088 131.307914 
L 343.632567 132.050801 
L 345.047046 132.159665 
L 346.461525 132.472175 
L 352.119441 135.229031 
L 353.533921 135.765367 
L 356.362879 138.218852 
L 359.191837 139.431556 
L 360.606316 140.034389 
L 367.678711 141.991009 
L 370.507669 143.239299 
L 373.336627 143.710911 
L 377.580064 144.251216 
L 380.409023 145.49073 
L 384.65246 146.246382 
L 387.481418 147.190254 
L 388.895897 147.693084 
L 390.310376 148.019503 
L 393.139334 148.263 
L 395.968292 148.878078 
L 398.79725 149.990502 
L 405.869646 150.96045 
L 408.698604 152.098836 
L 410.113083 152.249923 
L 412.942041 151.757135 
L 414.35652 151.866887 
L 417.185478 152.8744 
L 418.599957 153.097545 
L 420.014436 153.134915 
L 421.428915 152.628137 
L 424.257873 153.134164 
L 428.50131 154.622762 
L 433 155.734255 
L 433 155.734255 
" clip-path="url(#p8be188c03b)" style="fill: none; stroke: #7ad151; stroke-width: 1.5; stroke-linecap: square"/>
   </g>
   <g id="patch_3">
    <path d="M 54 252 
L 54 34.56 
" style="fill: none; stroke: #000000; stroke-width: 0.8; stroke-linejoin: miter; stroke-linecap: square"/>
   </g>
   <g id="patch_4">
    <path d="M 388.8 252 
L 388.8 34.56 
" style="fill: none; stroke: #000000; stroke-width: 0.8; stroke-linejoin: miter; stroke-linecap: square"/>
   </g>
   <g id="patch_5">
    <path d="M 54 252 
L 388.8 252 
" style="fill: none; stroke: #000000; stroke-width: 0.8; stroke-linejoin: miter; stroke-linecap: square"/>
   </g>
   <g id="patch_6">
    <path d="M 54 34.56 
L 388.8 34.56 
" style="fill: none; stroke: #000000; stroke-width: 0.8; stroke-linejoin: miter; stroke-linecap: square"/>
   </g>
   <g id="text_18">
    <!-- Y247 Normalized NEXAFS -->
    <g transform="translate(144.793125 28.56)scale(0.12 -0.12)">
     <defs>
      <path id="DejaVuSans-59" d="M -13 4666 
L 666 4666 
L 1959 2747 
L 3244 4666 
L 3922 4666 
L 2272 2222 
L 2272 0 
L 1638 0 
L 1638 2222 
L -13 4666 
z
" transform="scale(0.015625)"/>
      <path id="DejaVuSans-34" d="M 2419 4116 
L 825 1625 
L 2419 1625 
L 2419 4116 
z
M 2253 4666 
L 3047 4666 
L 3047 1625 
L 3713 1625 
L 3713 1100 
L 3047 1100 
L 3047 0 
L 2419 0 
L 2419 1100 
L 313 1100 
L 313 1709 
L 2253 4666 
z
" transform="scale(0.015625)"/>
      <path id="DejaVuSans-37" d="M 525 4666 
L 3525 4666 
L 3525 4397 
L 1831 0 
L 1172 0 
L 2766 4134 
L 525 4134 
L 525 4666 
z
" transform="scale(0.015625)"/>
      <path id="DejaVuSans-4e" d="M 628 4666 
L 1478 4666 
L 3547 763 
L 3547 4666 
L 4159 4666 
L 4159 0 
L 3309 0 
L 1241 3903 
L 1241 0 
L 628 0 
L 628 4666 
z
" transform="scale(0.015625)"/>
      <path id="DejaVuSans-6d" d="M 3328 2828 
Q 3544 3216 3844 3400 
Q 4144 3584 4550 3584 
Q 5097 3584 5394 3201 
Q 5691 2819 5691 2113 
L 5691 0 
L 5113 0 
L 5113 2094 
Q 5113 2597 4934 2840 
Q 4756 3084 4391 3084 
Q 3944 3084 3684 2787 
Q 3425 2491 3425 1978 
L 3425 0 
L 2847 0 
L 2847 2094 
Q 2847 2600 2669 2842 
Q 2491 3084 2119 3084 
Q 1678 3084 1418 2786 
Q 1159 2488 1159 1978 
L 1159 0 
L 581 0 
L 581 3500 
L 1159 3500 
L 1159 2956 
Q 1356 3278 1631 3431 
Q 1906 3584 2284 3584 
Q 2666 3584 2933 3390 
Q 3200 3197 3328 2828 
z
" transform="scale(0.015625)"/>
      <path id="DejaVuSans-7a" d="M 353 3500 
L 3084 3500 
L 3084 2975 
L 922 459 
L 3084 459 
L 3084 0 
L 275 0 
L 275 525 
L 2438 3041 
L 353 3041 
L 353 3500 
z
" transform="scale(0.015625)"/>
      <path id="DejaVuSans-45" d="M 628 4666 
L 3578 4666 
L 3578 4134 
L 1259 4134 
L 1259 2753 
L 3481 2753 
L 3481 2222 
L 1259 2222 
L 1259 531 
L 3634 531 
L 3634 0 
L 628 0 
L 628 4666 
z
" transform="scale(0.015625)"/>
      <path id="DejaVuSans-58" d="M 403 4666 
L 1081 4666 
L 2241 2931 
L 3406 4666 
L 4084 4666 
L 2584 2425 
L 4184 0 
L 3506 0 
L 2194 1984 
L 872 0 
L 191 0 
L 1856 2491 
L 403 4666 
z
" transform="scale(0.015625)"/>
      <path id="DejaVuSans-41" d="M 2188 4044 
L 1331 1722 
L 3047 1722 
L 2188 4044 
z
M 1831 4666 
L 2547 4666 
L 4325 0 
L 3669 0 
L 3244 1197 
L 1141 1197 
L 716 0 
L 50 0 
L 1831 4666 
z
" transform="scale(0.015625)"/>
      <path id="DejaVuSans-46" d="M 628 4666 
L 3309 4666 
L 3309 4134 
L 1259 4134 
L 1259 2759 
L 3109 2759 
L 3109 2228 
L 1259 2228 
L 1259 0 
L 628 0 
L 628 4666 
z
" transform="scale(0.015625)"/>
      <path id="DejaVuSans-53" d="M 3425 4513 
L 3425 3897 
Q 3066 4069 2747 4153 
Q 2428 4238 2131 4238 
Q 1616 4238 1336 4038 
Q 1056 3838 1056 3469 
Q 1056 3159 1242 3001 
Q 1428 2844 1947 2747 
L 2328 2669 
Q 3034 2534 3370 2195 
Q 3706 1856 3706 1288 
Q 3706 609 3251 259 
Q 2797 -91 1919 -91 
Q 1588 -91 1214 -16 
Q 841 59 441 206 
L 441 856 
Q 825 641 1194 531 
Q 1563 422 1919 422 
Q 2459 422 2753 634 
Q 3047 847 3047 1241 
Q 3047 1584 2836 1778 
Q 2625 1972 2144 2069 
L 1759 2144 
Q 1053 2284 737 2584 
Q 422 2884 422 3419 
Q 422 4038 858 4394 
Q 1294 4750 2059 4750 
Q 2388 4750 2728 4690 
Q 3069 4631 3425 4513 
z
" transform="scale(0.015625)"/>
     </defs>
     <use xlink:href="#DejaVuSans-59"/>
     <use xlink:href="#DejaVuSans-32" x="61.083984"/>
     <use xlink:href="#DejaVuSans-34" x="124.707031"/>
     <use xlink:href="#DejaVuSans-37" x="188.330078"/>
     <use xlink:href="#DejaVuSans-20" x="251.953125"/>
     <use xlink:href="#DejaVuSans-4e" x="283.740234"/>
     <use xlink:href="#DejaVuSans-6f" x="358.544922"/>
     <use xlink:href="#DejaVuSans-72" x="419.726562"/>
     <use xlink:href="#DejaVuSans-6d" x="459.089844"/>
     <use xlink:href="#DejaVuSans-61" x="556.501953"/>
     <use xlink:href="#DejaVuSans-6c" x="617.78125"/>
     <use xlink:href="#DejaVuSans-69" x="645.564453"/>
     <use xlink:href="#DejaVuSans-7a" x="673.347656"/>
     <use xlink:href="#DejaVuSans-65" x="725.837891"/>
     <use xlink:href="#DejaVuSans-64" x="787.361328"/>
     <use xlink:href="#DejaVuSans-20" x="850.837891"/>
     <use xlink:href="#DejaVuSans-4e" x="882.625"/>
     <use xlink:href="#DejaVuSans-45" x="957.429688"/>
     <use xlink:href="#DejaVuSans-58" x="1020.613281"/>
     <use xlink:href="#DejaVuSans-41" x="1089.119141"/>
     <use xlink:href="#DejaVuSans-46" x="1157.527344"/>
     <use xlink:href="#DejaVuSans-53" x="1213.296875"/>
    </g>
   </g>
   <g id="legend_1">
    <g id="patch_7">
     <path d="M 332.075 115.950625 
L 381.8 115.950625 
Q 383.8 115.950625 383.8 113.950625 
L 383.8 41.56 
Q 383.8 39.56 381.8 39.56 
L 332.075 39.56 
Q 330.075 39.56 330.075 41.56 
L 330.075 113.950625 
Q 330.075 115.950625 332.075 115.950625 
z
" style="fill: #ffffff; opacity: 0.8; stroke: #cccccc; stroke-linejoin: miter"/>
    </g>
    <g id="line2d_21">
     <path d="M 334.075 47.658437 
L 344.075 47.658437 
L 354.075 47.658437 
" style="fill: none; stroke: #440154; stroke-width: 1.5; stroke-linecap: square"/>
    </g>
    <g id="text_19">
     <!-- 30 -->
     <g transform="translate(362.075 51.158437)scale(0.1 -0.1)">
      <defs>
       <path id="DejaVuSans-b0" d="M 1600 4347 
Q 1350 4347 1178 4173 
Q 1006 4000 1006 3750 
Q 1006 3503 1178 3333 
Q 1350 3163 1600 3163 
Q 1850 3163 2022 3333 
Q 2194 3503 2194 3750 
Q 2194 3997 2020 4172 
Q 1847 4347 1600 4347 
z
M 1600 4750 
Q 1800 4750 1984 4673 
Q 2169 4597 2303 4453 
Q 2447 4313 2519 4134 
Q 2591 3956 2591 3750 
Q 2591 3338 2302 3052 
Q 2013 2766 1594 2766 
Q 1172 2766 890 3047 
Q 609 3328 609 3750 
Q 609 4169 896 4459 
Q 1184 4750 1600 4750 
z
" transform="scale(0.015625)"/>
      </defs>
      <use xlink:href="#DejaVuSans-33"/>
      <use xlink:href="#DejaVuSans-30" x="63.623047"/>
      <use xlink:href="#DejaVuSans-b0" x="127.246094"/>
     </g>
    </g>
    <g id="line2d_22">
     <path d="M 334.075 62.336562 
L 344.075 62.336562 
L 354.075 62.336562 
" style="fill: none; stroke: #414487; stroke-width: 1.5; stroke-linecap: square"/>
    </g>
    <g id="text_20">
     <!-- 40 -->
     <g transform="translate(362.075 65.836562)scale(0.1 -0.1)">
      <use xlink:href="#DejaVuSans-34"/>
      <use xlink:href="#DejaVuSans-30" x="63.623047"/>
      <use xlink:href="#DejaVuSans-b0" x="127.246094"/>
     </g>
    </g>
    <g id="line2d_23">
     <path d="M 334.075 77.014687 
L 344.075 77.014687 
L 354.075 77.014687 
" style="fill: none; stroke: #2a788e; stroke-width: 1.5; stroke-linecap: square"/>
    </g>
    <g id="text_21">
     <!-- 55 -->
     <g transform="translate(362.075 80.514687)scale(0.1 -0.1)">
      <use xlink:href="#DejaVuSans-35"/>
      <use xlink:href="#DejaVuSans-35" x="63.623047"/>
      <use xlink:href="#DejaVuSans-b0" x="127.246094"/>
     </g>
    </g>
    <g id="line2d_24">
     <path d="M 334.075 91.692813 
L 344.075 91.692813 
L 354.075 91.692813 
" style="fill: none; stroke: #22a884; stroke-width: 1.5; stroke-linecap: square"/>
    </g>
    <g id="text_22">
     <!-- 70 -->
     <g transform="translate(362.075 95.192813)scale(0.1 -0.1)">
      <use xlink:href="#DejaVuSans-37"/>
      <use xlink:href="#DejaVuSans-30" x="63.623047"/>
      <use xlink:href="#DejaVuSans-b0" x="127.246094"/>
     </g>
    </g>
    <g id="line2d_25">
     <path d="M 334.075 106.370937 
L 344.075 106.370937 
L 354.075 106.370937 
" style="fill: none; stroke: #7ad151; stroke-width: 1.5; stroke-linecap: square"/>
    </g>
    <g id="text_23">
     <!-- 90 -->
     <g transform="translate(362.075 109.870937)scale(0.1 -0.1)">
      <use xlink:href="#DejaVuSans-39"/>
      <use xlink:href="#DejaVuSans-30" x="63.623047"/>
      <use xlink:href="#DejaVuSans-b0" x="127.246094"/>
     </g>
    </g>
   </g>
  </g>
 </g>
 <defs>
  <clipPath id="p8be188c03b">
   <rect x="54" y="34.56" width="334.8" height="217.44"/>
  </clipPath>
 </defs>
</svg>
