<?xml version="1.0" encoding="utf-8" standalone="no"?>
<!DOCTYPE svg PUBLIC "-//W3C//DTD SVG 1.1//EN"
  "http://www.w3.org/Graphics/SVG/1.1/DTD/svg11.dtd">
<svg xmlns:xlink="http://www.w3.org/1999/xlink" width="432pt" height="288pt" viewBox="0 0 432 288" xmlns="http://www.w3.org/2000/svg" version="1.1">
 <metadata>
  <rdf:RDF xmlns:dc="http://purl.org/dc/elements/1.1/" xmlns:cc="http://creativecommons.org/ns#" xmlns:rdf="http://www.w3.org/1999/02/22-rdf-syntax-ns#">
   <cc:Work>
    <dc:type rdf:resource="http://purl.org/dc/dcmitype/StillImage"/>
    <dc:date>2022-12-13T15:02:28.332375</dc:date>
    <dc:format>image/svg+xml</dc:format>
    <dc:creator>
     <cc:Agent>
      <dc:title>Matplotlib v3.5.1, https://matplotlib.org/</dc:title>
     </cc:Agent>
    </dc:creator>
   </cc:Work>
  </rdf:RDF>
 </metadata>
 <defs>
  <style type="text/css">*{stroke-linejoin: round; stroke-linecap: butt}</style>
 </defs>
 <g id="figure_1">
  <g id="patch_1">
   <path d="M 0 288 
L 432 288 
L 432 0 
L 0 0 
L 0 288 
z
" style="fill: none"/>
  </g>
  <g id="axes_1">
   <g id="patch_2">
    <path d="M 54 252 
L 388.8 252 
L 388.8 34.56 
L 54 34.56 
z
" style="fill: #ffffff"/>
   </g>
   <g id="matplotlib.axis_1">
    <g id="xtick_1">
     <g id="line2d_1">
      <defs>
       <path id="mb0ea1be811" d="M 0 0 
L 0 3.5 
" style="stroke: #000000; stroke-width: 0.8"/>
      </defs>
      <g>
       <use xlink:href="#mb0ea1be811" x="54" y="252" style="stroke: #000000; stroke-width: 0.8"/>
      </g>
     </g>
     <g id="text_1">
      <!-- 280 -->
      <g transform="translate(44.45625 266.598437)scale(0.1 -0.1)">
       <defs>
        <path id="DejaVuSans-32" d="M 1228 531 
L 3431 531 
L 3431 0 
L 469 0 
L 469 531 
Q 828 903 1448 1529 
Q 2069 2156 2228 2338 
Q 2531 2678 2651 2914 
Q 2772 3150 2772 3378 
Q 2772 3750 2511 3984 
Q 2250 4219 1831 4219 
Q 1534 4219 1204 4116 
Q 875 4013 500 3803 
L 500 4441 
Q 881 4594 1212 4672 
Q 1544 4750 1819 4750 
Q 2544 4750 2975 4387 
Q 3406 4025 3406 3419 
Q 3406 3131 3298 2873 
Q 3191 2616 2906 2266 
Q 2828 2175 2409 1742 
Q 1991 1309 1228 531 
z
" transform="scale(0.015625)"/>
        <path id="DejaVuSans-38" d="M 2034 2216 
Q 1584 2216 1326 1975 
Q 1069 1734 1069 1313 
Q 1069 891 1326 650 
Q 1584 409 2034 409 
Q 2484 409 2743 651 
Q 3003 894 3003 1313 
Q 3003 1734 2745 1975 
Q 2488 2216 2034 2216 
z
M 1403 2484 
Q 997 2584 770 2862 
Q 544 3141 544 3541 
Q 544 4100 942 4425 
Q 1341 4750 2034 4750 
Q 2731 4750 3128 4425 
Q 3525 4100 3525 3541 
Q 3525 3141 3298 2862 
Q 3072 2584 2669 2484 
Q 3125 2378 3379 2068 
Q 3634 1759 3634 1313 
Q 3634 634 3220 271 
Q 2806 -91 2034 -91 
Q 1263 -91 848 271 
Q 434 634 434 1313 
Q 434 1759 690 2068 
Q 947 2378 1403 2484 
z
M 1172 3481 
Q 1172 3119 1398 2916 
Q 1625 2713 2034 2713 
Q 2441 2713 2670 2916 
Q 2900 3119 2900 3481 
Q 2900 3844 2670 4047 
Q 2441 4250 2034 4250 
Q 1625 4250 1398 4047 
Q 1172 3844 1172 3481 
z
" transform="scale(0.015625)"/>
        <path id="DejaVuSans-30" d="M 2034 4250 
Q 1547 4250 1301 3770 
Q 1056 3291 1056 2328 
Q 1056 1369 1301 889 
Q 1547 409 2034 409 
Q 2525 409 2770 889 
Q 3016 1369 3016 2328 
Q 3016 3291 2770 3770 
Q 2525 4250 2034 4250 
z
M 2034 4750 
Q 2819 4750 3233 4129 
Q 3647 3509 3647 2328 
Q 3647 1150 3233 529 
Q 2819 -91 2034 -91 
Q 1250 -91 836 529 
Q 422 1150 422 2328 
Q 422 3509 836 4129 
Q 1250 4750 2034 4750 
z
" transform="scale(0.015625)"/>
       </defs>
       <use xlink:href="#DejaVuSans-32"/>
       <use xlink:href="#DejaVuSans-38" x="63.623047"/>
       <use xlink:href="#DejaVuSans-30" x="127.246094"/>
      </g>
     </g>
    </g>
    <g id="xtick_2">
     <g id="line2d_2">
      <g>
       <use xlink:href="#mb0ea1be811" x="101.828571" y="252" style="stroke: #000000; stroke-width: 0.8"/>
      </g>
     </g>
     <g id="text_2">
      <!-- 285 -->
      <g transform="translate(92.284821 266.598437)scale(0.1 -0.1)">
       <defs>
        <path id="DejaVuSans-35" d="M 691 4666 
L 3169 4666 
L 3169 4134 
L 1269 4134 
L 1269 2991 
Q 1406 3038 1543 3061 
Q 1681 3084 1819 3084 
Q 2600 3084 3056 2656 
Q 3513 2228 3513 1497 
Q 3513 744 3044 326 
Q 2575 -91 1722 -91 
Q 1428 -91 1123 -41 
Q 819 9 494 109 
L 494 744 
Q 775 591 1075 516 
Q 1375 441 1709 441 
Q 2250 441 2565 725 
Q 2881 1009 2881 1497 
Q 2881 1984 2565 2268 
Q 2250 2553 1709 2553 
Q 1456 2553 1204 2497 
Q 953 2441 691 2322 
L 691 4666 
z
" transform="scale(0.015625)"/>
       </defs>
       <use xlink:href="#DejaVuSans-32"/>
       <use xlink:href="#DejaVuSans-38" x="63.623047"/>
       <use xlink:href="#DejaVuSans-35" x="127.246094"/>
      </g>
     </g>
    </g>
    <g id="xtick_3">
     <g id="line2d_3">
      <g>
       <use xlink:href="#mb0ea1be811" x="149.657143" y="252" style="stroke: #000000; stroke-width: 0.8"/>
      </g>
     </g>
     <g id="text_3">
      <!-- 290 -->
      <g transform="translate(140.113393 266.598437)scale(0.1 -0.1)">
       <defs>
        <path id="DejaVuSans-39" d="M 703 97 
L 703 672 
Q 941 559 1184 500 
Q 1428 441 1663 441 
Q 2288 441 2617 861 
Q 2947 1281 2994 2138 
Q 2813 1869 2534 1725 
Q 2256 1581 1919 1581 
Q 1219 1581 811 2004 
Q 403 2428 403 3163 
Q 403 3881 828 4315 
Q 1253 4750 1959 4750 
Q 2769 4750 3195 4129 
Q 3622 3509 3622 2328 
Q 3622 1225 3098 567 
Q 2575 -91 1691 -91 
Q 1453 -91 1209 -44 
Q 966 3 703 97 
z
M 1959 2075 
Q 2384 2075 2632 2365 
Q 2881 2656 2881 3163 
Q 2881 3666 2632 3958 
Q 2384 4250 1959 4250 
Q 1534 4250 1286 3958 
Q 1038 3666 1038 3163 
Q 1038 2656 1286 2365 
Q 1534 2075 1959 2075 
z
" transform="scale(0.015625)"/>
       </defs>
       <use xlink:href="#DejaVuSans-32"/>
       <use xlink:href="#DejaVuSans-39" x="63.623047"/>
       <use xlink:href="#DejaVuSans-30" x="127.246094"/>
      </g>
     </g>
    </g>
    <g id="xtick_4">
     <g id="line2d_4">
      <g>
       <use xlink:href="#mb0ea1be811" x="197.485714" y="252" style="stroke: #000000; stroke-width: 0.8"/>
      </g>
     </g>
     <g id="text_4">
      <!-- 295 -->
      <g transform="translate(187.941964 266.598437)scale(0.1 -0.1)">
       <use xlink:href="#DejaVuSans-32"/>
       <use xlink:href="#DejaVuSans-39" x="63.623047"/>
       <use xlink:href="#DejaVuSans-35" x="127.246094"/>
      </g>
     </g>
    </g>
    <g id="xtick_5">
     <g id="line2d_5">
      <g>
       <use xlink:href="#mb0ea1be811" x="245.314286" y="252" style="stroke: #000000; stroke-width: 0.8"/>
      </g>
     </g>
     <g id="text_5">
      <!-- 300 -->
      <g transform="translate(235.770536 266.598437)scale(0.1 -0.1)">
       <defs>
        <path id="DejaVuSans-33" d="M 2597 2516 
Q 3050 2419 3304 2112 
Q 3559 1806 3559 1356 
Q 3559 666 3084 287 
Q 2609 -91 1734 -91 
Q 1441 -91 1130 -33 
Q 819 25 488 141 
L 488 750 
Q 750 597 1062 519 
Q 1375 441 1716 441 
Q 2309 441 2620 675 
Q 2931 909 2931 1356 
Q 2931 1769 2642 2001 
Q 2353 2234 1838 2234 
L 1294 2234 
L 1294 2753 
L 1863 2753 
Q 2328 2753 2575 2939 
Q 2822 3125 2822 3475 
Q 2822 3834 2567 4026 
Q 2313 4219 1838 4219 
Q 1578 4219 1281 4162 
Q 984 4106 628 3988 
L 628 4550 
Q 988 4650 1302 4700 
Q 1616 4750 1894 4750 
Q 2613 4750 3031 4423 
Q 3450 4097 3450 3541 
Q 3450 3153 3228 2886 
Q 3006 2619 2597 2516 
z
" transform="scale(0.015625)"/>
       </defs>
       <use xlink:href="#DejaVuSans-33"/>
       <use xlink:href="#DejaVuSans-30" x="63.623047"/>
       <use xlink:href="#DejaVuSans-30" x="127.246094"/>
      </g>
     </g>
    </g>
    <g id="xtick_6">
     <g id="line2d_6">
      <g>
       <use xlink:href="#mb0ea1be811" x="293.142857" y="252" style="stroke: #000000; stroke-width: 0.8"/>
      </g>
     </g>
     <g id="text_6">
      <!-- 305 -->
      <g transform="translate(283.599107 266.598437)scale(0.1 -0.1)">
       <use xlink:href="#DejaVuSans-33"/>
       <use xlink:href="#DejaVuSans-30" x="63.623047"/>
       <use xlink:href="#DejaVuSans-35" x="127.246094"/>
      </g>
     </g>
    </g>
    <g id="xtick_7">
     <g id="line2d_7">
      <g>
       <use xlink:href="#mb0ea1be811" x="340.971429" y="252" style="stroke: #000000; stroke-width: 0.8"/>
      </g>
     </g>
     <g id="text_7">
      <!-- 310 -->
      <g transform="translate(331.427679 266.598437)scale(0.1 -0.1)">
       <defs>
        <path id="DejaVuSans-31" d="M 794 531 
L 1825 531 
L 1825 4091 
L 703 3866 
L 703 4441 
L 1819 4666 
L 2450 4666 
L 2450 531 
L 3481 531 
L 3481 0 
L 794 0 
L 794 531 
z
" transform="scale(0.015625)"/>
       </defs>
       <use xlink:href="#DejaVuSans-33"/>
       <use xlink:href="#DejaVuSans-31" x="63.623047"/>
       <use xlink:href="#DejaVuSans-30" x="127.246094"/>
      </g>
     </g>
    </g>
    <g id="xtick_8">
     <g id="line2d_8">
      <g>
       <use xlink:href="#mb0ea1be811" x="388.8" y="252" style="stroke: #000000; stroke-width: 0.8"/>
      </g>
     </g>
     <g id="text_8">
      <!-- 315 -->
      <g transform="translate(379.25625 266.598437)scale(0.1 -0.1)">
       <use xlink:href="#DejaVuSans-33"/>
       <use xlink:href="#DejaVuSans-31" x="63.623047"/>
       <use xlink:href="#DejaVuSans-35" x="127.246094"/>
      </g>
     </g>
    </g>
    <g id="text_9">
     <!-- energy [eV] -->
     <g transform="translate(191.989062 280.276563)scale(0.1 -0.1)">
      <defs>
       <path id="DejaVuSans-65" d="M 3597 1894 
L 3597 1613 
L 953 1613 
Q 991 1019 1311 708 
Q 1631 397 2203 397 
Q 2534 397 2845 478 
Q 3156 559 3463 722 
L 3463 178 
Q 3153 47 2828 -22 
Q 2503 -91 2169 -91 
Q 1331 -91 842 396 
Q 353 884 353 1716 
Q 353 2575 817 3079 
Q 1281 3584 2069 3584 
Q 2775 3584 3186 3129 
Q 3597 2675 3597 1894 
z
M 3022 2063 
Q 3016 2534 2758 2815 
Q 2500 3097 2075 3097 
Q 1594 3097 1305 2825 
Q 1016 2553 972 2059 
L 3022 2063 
z
" transform="scale(0.015625)"/>
       <path id="DejaVuSans-6e" d="M 3513 2113 
L 3513 0 
L 2938 0 
L 2938 2094 
Q 2938 2591 2744 2837 
Q 2550 3084 2163 3084 
Q 1697 3084 1428 2787 
Q 1159 2491 1159 1978 
L 1159 0 
L 581 0 
L 581 3500 
L 1159 3500 
L 1159 2956 
Q 1366 3272 1645 3428 
Q 1925 3584 2291 3584 
Q 2894 3584 3203 3211 
Q 3513 2838 3513 2113 
z
" transform="scale(0.015625)"/>
       <path id="DejaVuSans-72" d="M 2631 2963 
Q 2534 3019 2420 3045 
Q 2306 3072 2169 3072 
Q 1681 3072 1420 2755 
Q 1159 2438 1159 1844 
L 1159 0 
L 581 0 
L 581 3500 
L 1159 3500 
L 1159 2956 
Q 1341 3275 1631 3429 
Q 1922 3584 2338 3584 
Q 2397 3584 2469 3576 
Q 2541 3569 2628 3553 
L 2631 2963 
z
" transform="scale(0.015625)"/>
       <path id="DejaVuSans-67" d="M 2906 1791 
Q 2906 2416 2648 2759 
Q 2391 3103 1925 3103 
Q 1463 3103 1205 2759 
Q 947 2416 947 1791 
Q 947 1169 1205 825 
Q 1463 481 1925 481 
Q 2391 481 2648 825 
Q 2906 1169 2906 1791 
z
M 3481 434 
Q 3481 -459 3084 -895 
Q 2688 -1331 1869 -1331 
Q 1566 -1331 1297 -1286 
Q 1028 -1241 775 -1147 
L 775 -588 
Q 1028 -725 1275 -790 
Q 1522 -856 1778 -856 
Q 2344 -856 2625 -561 
Q 2906 -266 2906 331 
L 2906 616 
Q 2728 306 2450 153 
Q 2172 0 1784 0 
Q 1141 0 747 490 
Q 353 981 353 1791 
Q 353 2603 747 3093 
Q 1141 3584 1784 3584 
Q 2172 3584 2450 3431 
Q 2728 3278 2906 2969 
L 2906 3500 
L 3481 3500 
L 3481 434 
z
" transform="scale(0.015625)"/>
       <path id="DejaVuSans-79" d="M 2059 -325 
Q 1816 -950 1584 -1140 
Q 1353 -1331 966 -1331 
L 506 -1331 
L 506 -850 
L 844 -850 
Q 1081 -850 1212 -737 
Q 1344 -625 1503 -206 
L 1606 56 
L 191 3500 
L 800 3500 
L 1894 763 
L 2988 3500 
L 3597 3500 
L 2059 -325 
z
" transform="scale(0.015625)"/>
       <path id="DejaVuSans-20" transform="scale(0.015625)"/>
       <path id="DejaVuSans-5b" d="M 550 4863 
L 1875 4863 
L 1875 4416 
L 1125 4416 
L 1125 -397 
L 1875 -397 
L 1875 -844 
L 550 -844 
L 550 4863 
z
" transform="scale(0.015625)"/>
       <path id="DejaVuSans-56" d="M 1831 0 
L 50 4666 
L 709 4666 
L 2188 738 
L 3669 4666 
L 4325 4666 
L 2547 0 
L 1831 0 
z
" transform="scale(0.015625)"/>
       <path id="DejaVuSans-5d" d="M 1947 4863 
L 1947 -844 
L 622 -844 
L 622 -397 
L 1369 -397 
L 1369 4416 
L 622 4416 
L 622 4863 
L 1947 4863 
z
" transform="scale(0.015625)"/>
      </defs>
      <use xlink:href="#DejaVuSans-65"/>
      <use xlink:href="#DejaVuSans-6e" x="61.523438"/>
      <use xlink:href="#DejaVuSans-65" x="124.902344"/>
      <use xlink:href="#DejaVuSans-72" x="186.425781"/>
      <use xlink:href="#DejaVuSans-67" x="225.789062"/>
      <use xlink:href="#DejaVuSans-79" x="289.265625"/>
      <use xlink:href="#DejaVuSans-20" x="348.445312"/>
      <use xlink:href="#DejaVuSans-5b" x="380.232422"/>
      <use xlink:href="#DejaVuSans-65" x="419.246094"/>
      <use xlink:href="#DejaVuSans-56" x="480.769531"/>
      <use xlink:href="#DejaVuSans-5d" x="549.177734"/>
     </g>
    </g>
   </g>
   <g id="matplotlib.axis_2">
    <g id="ytick_1">
     <g id="line2d_9">
      <defs>
       <path id="m3ad31e84fb" d="M 0 0 
L -3.5 0 
" style="stroke: #000000; stroke-width: 0.8"/>
      </defs>
      <g>
       <use xlink:href="#m3ad31e84fb" x="54" y="238.526668" style="stroke: #000000; stroke-width: 0.8"/>
      </g>
     </g>
     <g id="text_10">
      <!-- 0.0 -->
      <g transform="translate(31.096875 242.325887)scale(0.1 -0.1)">
       <defs>
        <path id="DejaVuSans-2e" d="M 684 794 
L 1344 794 
L 1344 0 
L 684 0 
L 684 794 
z
" transform="scale(0.015625)"/>
       </defs>
       <use xlink:href="#DejaVuSans-30"/>
       <use xlink:href="#DejaVuSans-2e" x="63.623047"/>
       <use xlink:href="#DejaVuSans-30" x="95.410156"/>
      </g>
     </g>
    </g>
    <g id="ytick_2">
     <g id="line2d_10">
      <g>
       <use xlink:href="#m3ad31e84fb" x="54" y="213.864803" style="stroke: #000000; stroke-width: 0.8"/>
      </g>
     </g>
     <g id="text_11">
      <!-- 0.5 -->
      <g transform="translate(31.096875 217.664022)scale(0.1 -0.1)">
       <use xlink:href="#DejaVuSans-30"/>
       <use xlink:href="#DejaVuSans-2e" x="63.623047"/>
       <use xlink:href="#DejaVuSans-35" x="95.410156"/>
      </g>
     </g>
    </g>
    <g id="ytick_3">
     <g id="line2d_11">
      <g>
       <use xlink:href="#m3ad31e84fb" x="54" y="189.202939" style="stroke: #000000; stroke-width: 0.8"/>
      </g>
     </g>
     <g id="text_12">
      <!-- 1.0 -->
      <g transform="translate(31.096875 193.002158)scale(0.1 -0.1)">
       <use xlink:href="#DejaVuSans-31"/>
       <use xlink:href="#DejaVuSans-2e" x="63.623047"/>
       <use xlink:href="#DejaVuSans-30" x="95.410156"/>
      </g>
     </g>
    </g>
    <g id="ytick_4">
     <g id="line2d_12">
      <g>
       <use xlink:href="#m3ad31e84fb" x="54" y="164.541074" style="stroke: #000000; stroke-width: 0.8"/>
      </g>
     </g>
     <g id="text_13">
      <!-- 1.5 -->
      <g transform="translate(31.096875 168.340293)scale(0.1 -0.1)">
       <use xlink:href="#DejaVuSans-31"/>
       <use xlink:href="#DejaVuSans-2e" x="63.623047"/>
       <use xlink:href="#DejaVuSans-35" x="95.410156"/>
      </g>
     </g>
    </g>
    <g id="ytick_5">
     <g id="line2d_13">
      <g>
       <use xlink:href="#m3ad31e84fb" x="54" y="139.87921" style="stroke: #000000; stroke-width: 0.8"/>
      </g>
     </g>
     <g id="text_14">
      <!-- 2.0 -->
      <g transform="translate(31.096875 143.678429)scale(0.1 -0.1)">
       <use xlink:href="#DejaVuSans-32"/>
       <use xlink:href="#DejaVuSans-2e" x="63.623047"/>
       <use xlink:href="#DejaVuSans-30" x="95.410156"/>
      </g>
     </g>
    </g>
    <g id="ytick_6">
     <g id="line2d_14">
      <g>
       <use xlink:href="#m3ad31e84fb" x="54" y="115.217345" style="stroke: #000000; stroke-width: 0.8"/>
      </g>
     </g>
     <g id="text_15">
      <!-- 2.5 -->
      <g transform="translate(31.096875 119.016564)scale(0.1 -0.1)">
       <use xlink:href="#DejaVuSans-32"/>
       <use xlink:href="#DejaVuSans-2e" x="63.623047"/>
       <use xlink:href="#DejaVuSans-35" x="95.410156"/>
      </g>
     </g>
    </g>
    <g id="ytick_7">
     <g id="line2d_15">
      <g>
       <use xlink:href="#m3ad31e84fb" x="54" y="90.555481" style="stroke: #000000; stroke-width: 0.8"/>
      </g>
     </g>
     <g id="text_16">
      <!-- 3.0 -->
      <g transform="translate(31.096875 94.3547)scale(0.1 -0.1)">
       <use xlink:href="#DejaVuSans-33"/>
       <use xlink:href="#DejaVuSans-2e" x="63.623047"/>
       <use xlink:href="#DejaVuSans-30" x="95.410156"/>
      </g>
     </g>
    </g>
    <g id="ytick_8">
     <g id="line2d_16">
      <g>
       <use xlink:href="#m3ad31e84fb" x="54" y="65.893616" style="stroke: #000000; stroke-width: 0.8"/>
      </g>
     </g>
     <g id="text_17">
      <!-- 3.5 -->
      <g transform="translate(31.096875 69.692835)scale(0.1 -0.1)">
       <use xlink:href="#DejaVuSans-33"/>
       <use xlink:href="#DejaVuSans-2e" x="63.623047"/>
       <use xlink:href="#DejaVuSans-35" x="95.410156"/>
      </g>
     </g>
    </g>
    <g id="ytick_9">
     <g id="line2d_17">
      <g>
       <use xlink:href="#m3ad31e84fb" x="54" y="41.231752" style="stroke: #000000; stroke-width: 0.8"/>
      </g>
     </g>
     <g id="text_18">
      <!-- 4.0 -->
      <g transform="translate(31.096875 45.030971)scale(0.1 -0.1)">
       <defs>
        <path id="DejaVuSans-34" d="M 2419 4116 
L 825 1625 
L 2419 1625 
L 2419 4116 
z
M 2253 4666 
L 3047 4666 
L 3047 1625 
L 3713 1625 
L 3713 1100 
L 3047 1100 
L 3047 0 
L 2419 0 
L 2419 1100 
L 313 1100 
L 313 1709 
L 2253 4666 
z
" transform="scale(0.015625)"/>
       </defs>
       <use xlink:href="#DejaVuSans-34"/>
       <use xlink:href="#DejaVuSans-2e" x="63.623047"/>
       <use xlink:href="#DejaVuSans-30" x="95.410156"/>
      </g>
     </g>
    </g>
    <g id="text_19">
     <!-- electron_yield [a.u.] -->
     <g transform="translate(24.739062 193.0925)rotate(-90)scale(0.1 -0.1)">
      <defs>
       <path id="DejaVuSans-6c" d="M 603 4863 
L 1178 4863 
L 1178 0 
L 603 0 
L 603 4863 
z
" transform="scale(0.015625)"/>
       <path id="DejaVuSans-63" d="M 3122 3366 
L 3122 2828 
Q 2878 2963 2633 3030 
Q 2388 3097 2138 3097 
Q 1578 3097 1268 2742 
Q 959 2388 959 1747 
Q 959 1106 1268 751 
Q 1578 397 2138 397 
Q 2388 397 2633 464 
Q 2878 531 3122 666 
L 3122 134 
Q 2881 22 2623 -34 
Q 2366 -91 2075 -91 
Q 1284 -91 818 406 
Q 353 903 353 1747 
Q 353 2603 823 3093 
Q 1294 3584 2113 3584 
Q 2378 3584 2631 3529 
Q 2884 3475 3122 3366 
z
" transform="scale(0.015625)"/>
       <path id="DejaVuSans-74" d="M 1172 4494 
L 1172 3500 
L 2356 3500 
L 2356 3053 
L 1172 3053 
L 1172 1153 
Q 1172 725 1289 603 
Q 1406 481 1766 481 
L 2356 481 
L 2356 0 
L 1766 0 
Q 1100 0 847 248 
Q 594 497 594 1153 
L 594 3053 
L 172 3053 
L 172 3500 
L 594 3500 
L 594 4494 
L 1172 4494 
z
" transform="scale(0.015625)"/>
       <path id="DejaVuSans-6f" d="M 1959 3097 
Q 1497 3097 1228 2736 
Q 959 2375 959 1747 
Q 959 1119 1226 758 
Q 1494 397 1959 397 
Q 2419 397 2687 759 
Q 2956 1122 2956 1747 
Q 2956 2369 2687 2733 
Q 2419 3097 1959 3097 
z
M 1959 3584 
Q 2709 3584 3137 3096 
Q 3566 2609 3566 1747 
Q 3566 888 3137 398 
Q 2709 -91 1959 -91 
Q 1206 -91 779 398 
Q 353 888 353 1747 
Q 353 2609 779 3096 
Q 1206 3584 1959 3584 
z
" transform="scale(0.015625)"/>
       <path id="DejaVuSans-5f" d="M 3263 -1063 
L 3263 -1509 
L -63 -1509 
L -63 -1063 
L 3263 -1063 
z
" transform="scale(0.015625)"/>
       <path id="DejaVuSans-69" d="M 603 3500 
L 1178 3500 
L 1178 0 
L 603 0 
L 603 3500 
z
M 603 4863 
L 1178 4863 
L 1178 4134 
L 603 4134 
L 603 4863 
z
" transform="scale(0.015625)"/>
       <path id="DejaVuSans-64" d="M 2906 2969 
L 2906 4863 
L 3481 4863 
L 3481 0 
L 2906 0 
L 2906 525 
Q 2725 213 2448 61 
Q 2172 -91 1784 -91 
Q 1150 -91 751 415 
Q 353 922 353 1747 
Q 353 2572 751 3078 
Q 1150 3584 1784 3584 
Q 2172 3584 2448 3432 
Q 2725 3281 2906 2969 
z
M 947 1747 
Q 947 1113 1208 752 
Q 1469 391 1925 391 
Q 2381 391 2643 752 
Q 2906 1113 2906 1747 
Q 2906 2381 2643 2742 
Q 2381 3103 1925 3103 
Q 1469 3103 1208 2742 
Q 947 2381 947 1747 
z
" transform="scale(0.015625)"/>
       <path id="DejaVuSans-61" d="M 2194 1759 
Q 1497 1759 1228 1600 
Q 959 1441 959 1056 
Q 959 750 1161 570 
Q 1363 391 1709 391 
Q 2188 391 2477 730 
Q 2766 1069 2766 1631 
L 2766 1759 
L 2194 1759 
z
M 3341 1997 
L 3341 0 
L 2766 0 
L 2766 531 
Q 2569 213 2275 61 
Q 1981 -91 1556 -91 
Q 1019 -91 701 211 
Q 384 513 384 1019 
Q 384 1609 779 1909 
Q 1175 2209 1959 2209 
L 2766 2209 
L 2766 2266 
Q 2766 2663 2505 2880 
Q 2244 3097 1772 3097 
Q 1472 3097 1187 3025 
Q 903 2953 641 2809 
L 641 3341 
Q 956 3463 1253 3523 
Q 1550 3584 1831 3584 
Q 2591 3584 2966 3190 
Q 3341 2797 3341 1997 
z
" transform="scale(0.015625)"/>
       <path id="DejaVuSans-75" d="M 544 1381 
L 544 3500 
L 1119 3500 
L 1119 1403 
Q 1119 906 1312 657 
Q 1506 409 1894 409 
Q 2359 409 2629 706 
Q 2900 1003 2900 1516 
L 2900 3500 
L 3475 3500 
L 3475 0 
L 2900 0 
L 2900 538 
Q 2691 219 2414 64 
Q 2138 -91 1772 -91 
Q 1169 -91 856 284 
Q 544 659 544 1381 
z
M 1991 3584 
L 1991 3584 
z
" transform="scale(0.015625)"/>
      </defs>
      <use xlink:href="#DejaVuSans-65"/>
      <use xlink:href="#DejaVuSans-6c" x="61.523438"/>
      <use xlink:href="#DejaVuSans-65" x="89.306641"/>
      <use xlink:href="#DejaVuSans-63" x="150.830078"/>
      <use xlink:href="#DejaVuSans-74" x="205.810547"/>
      <use xlink:href="#DejaVuSans-72" x="245.019531"/>
      <use xlink:href="#DejaVuSans-6f" x="283.882812"/>
      <use xlink:href="#DejaVuSans-6e" x="345.064453"/>
      <use xlink:href="#DejaVuSans-5f" x="408.443359"/>
      <use xlink:href="#DejaVuSans-79" x="458.443359"/>
      <use xlink:href="#DejaVuSans-69" x="517.623047"/>
      <use xlink:href="#DejaVuSans-65" x="545.40625"/>
      <use xlink:href="#DejaVuSans-6c" x="606.929688"/>
      <use xlink:href="#DejaVuSans-64" x="634.712891"/>
      <use xlink:href="#DejaVuSans-20" x="698.189453"/>
      <use xlink:href="#DejaVuSans-5b" x="729.976562"/>
      <use xlink:href="#DejaVuSans-61" x="768.990234"/>
      <use xlink:href="#DejaVuSans-2e" x="830.269531"/>
      <use xlink:href="#DejaVuSans-75" x="862.056641"/>
      <use xlink:href="#DejaVuSans-2e" x="925.435547"/>
      <use xlink:href="#DejaVuSans-5d" x="957.222656"/>
     </g>
    </g>
   </g>
   <g id="line2d_18">
    <path d="M 63.565714 240.637076 
L 64.980193 240.090348 
L 67.809151 238.592014 
L 69.223631 239.181646 
L 70.63811 240.309036 
L 72.052589 239.504299 
L 73.467068 242.116364 
L 74.881547 240.898021 
L 76.296026 238.99249 
L 77.710505 239.957664 
L 79.124984 239.459218 
L 80.539463 238.729696 
L 81.953942 237.750805 
L 83.368421 238.558993 
L 84.7829 241.26815 
L 86.197379 238.073443 
L 87.611858 237.920691 
L 89.026337 235.699852 
L 90.440816 234.353201 
L 91.855295 227.664618 
L 93.269774 194.751871 
L 94.684253 150.971892 
L 96.098733 136.636372 
L 97.513212 140.434071 
L 98.927691 103.502134 
L 100.34217 72.801778 
L 101.756649 99.301909 
L 103.171128 149.767477 
L 104.585607 170.976253 
L 106.000086 169.258863 
L 107.414565 147.501303 
L 108.829044 127.81244 
L 110.243523 121.036244 
L 111.658002 112.562678 
L 113.072481 104.978319 
L 114.48696 100.993269 
L 115.901439 111.0799 
L 117.315918 118.265554 
L 118.730397 116.988371 
L 120.144876 97.457267 
L 121.559356 84.096779 
L 122.973835 77.762892 
L 124.388314 75.992247 
L 125.802793 73.52738 
L 127.217272 61.04157 
L 128.631751 44.443636 
L 130.04623 44.542378 
L 131.460709 56.434621 
L 132.875188 75.415629 
L 134.289667 89.889422 
L 135.704146 97.653055 
L 137.118625 102.858549 
L 138.533104 107.606406 
L 139.947583 109.680917 
L 141.362062 112.903735 
L 142.776541 107.676866 
L 144.19102 109.514447 
L 145.605499 113.163939 
L 147.019979 119.229957 
L 148.434458 122.128712 
L 149.848937 127.065164 
L 151.263416 128.244186 
L 152.677895 130.430129 
L 154.092374 126.650109 
L 155.506853 124.158181 
L 156.921332 125.534699 
L 158.335811 121.882291 
L 159.75029 120.572033 
L 161.164769 114.478399 
L 162.579248 114.353197 
L 163.993727 111.263763 
L 165.408206 112.083025 
L 166.822685 110.296568 
L 168.237164 107.629231 
L 169.651643 110.351091 
L 171.066122 111.552088 
L 172.480602 110.746906 
L 173.895081 113.15856 
L 175.30956 116.320021 
L 176.724039 118.477608 
L 178.138518 118.495108 
L 179.552997 119.187502 
L 180.967476 122.581402 
L 182.381955 122.633154 
L 183.796434 124.435246 
L 185.210913 125.528065 
L 186.625392 126.414391 
L 188.039871 128.359006 
L 189.45435 131.547569 
L 190.868829 131.231288 
L 192.283308 131.609964 
L 193.697787 133.946224 
L 195.112266 135.815766 
L 196.526745 137.210729 
L 197.941224 137.998683 
L 199.355704 141.201778 
L 200.770183 139.418141 
L 202.184662 144.519212 
L 203.599141 143.072322 
L 205.01362 145.157533 
L 206.428099 145.075266 
L 207.842578 146.849037 
L 209.257057 145.415852 
L 210.671536 149.820836 
L 212.086015 148.484455 
L 213.500494 150.098606 
L 214.914973 150.087585 
L 216.329452 150.739301 
L 217.743931 154.505257 
L 219.15841 153.588402 
L 220.572889 153.45171 
L 223.401847 155.34484 
L 224.816327 156.473921 
L 226.230806 156.49829 
L 227.645285 156.393698 
L 229.059764 156.630307 
L 230.474243 157.037566 
L 231.888722 157.857603 
L 233.303201 157.973202 
L 234.71768 158.337693 
L 236.132159 159.305168 
L 237.546638 160.038373 
L 238.961117 160.501803 
L 240.375596 161.24472 
L 241.790075 160.871475 
L 243.204554 161.045227 
L 244.619033 162.098685 
L 247.447991 162.93527 
L 248.86247 164.067453 
L 250.27695 165.683101 
L 253.105908 166.733391 
L 254.520387 166.605396 
L 255.934866 166.085001 
L 257.349345 165.791762 
L 258.763824 166.413669 
L 261.592782 166.949747 
L 263.007261 166.744024 
L 264.42174 166.717974 
L 265.836219 165.780146 
L 267.250698 165.67544 
L 268.665177 166.063453 
L 271.494135 166.321734 
L 272.908614 167.527597 
L 274.323093 168.076212 
L 277.152052 168.830189 
L 278.566531 169.465947 
L 279.98101 169.874414 
L 282.809968 171.0741 
L 284.224447 170.686514 
L 287.053405 170.513985 
L 288.467884 170.973908 
L 289.882363 171.117023 
L 291.296842 170.920415 
L 292.711321 170.575486 
L 294.1258 169.985936 
L 295.540279 169.72075 
L 296.954758 169.699257 
L 299.783716 171.837635 
L 301.198195 172.185739 
L 302.612675 171.638756 
L 304.027154 170.962067 
L 305.441633 170.712021 
L 306.856112 171.542461 
L 308.270591 170.828682 
L 309.68507 170.95454 
L 311.099549 171.652139 
L 313.928507 172.311494 
L 315.342986 172.284521 
L 316.757465 172.46485 
L 319.586423 172.145802 
L 321.000902 172.389861 
L 322.415381 172.404497 
L 323.82986 172.243817 
L 325.244339 171.721349 
L 326.658818 171.927216 
L 328.073298 170.506803 
L 329.487777 170.381886 
L 330.902256 170.786609 
L 332.316735 170.584631 
L 333.731214 169.841175 
L 335.145693 169.952344 
L 336.560172 170.356731 
L 337.974651 171.565996 
L 339.38913 172.183855 
L 340.803609 173.124973 
L 342.218088 174.287724 
L 345.047046 173.314931 
L 346.461525 172.886605 
L 347.876004 172.874952 
L 349.290483 172.611655 
L 352.119441 172.963964 
L 354.9484 174.013419 
L 356.362879 174.101345 
L 359.191837 173.293633 
L 360.606316 172.671035 
L 362.020795 172.281362 
L 363.435274 172.105811 
L 364.849753 171.656091 
L 366.264232 171.747751 
L 367.678711 172.073119 
L 369.09319 172.898965 
L 370.507669 173.541964 
L 373.336627 173.214736 
L 374.751106 173.824094 
L 376.165585 174.940679 
L 377.580064 175.760117 
L 378.994544 176.25287 
L 380.409023 176.499822 
L 381.823502 176.428337 
L 383.237981 176.565563 
L 384.65246 177.141825 
L 386.066939 177.067334 
L 390.310376 175.441531 
L 391.724855 176.042517 
L 394.553813 175.365323 
L 395.968292 175.289166 
L 398.79725 176.283561 
L 401.626208 176.100213 
L 403.040687 176.220373 
L 404.455166 176.061616 
L 405.869646 175.783586 
L 408.698604 177.711914 
L 410.113083 177.197862 
L 411.527562 176.840218 
L 412.942041 178.445208 
L 414.35652 179.816082 
L 415.770999 179.698481 
L 417.185478 180.005483 
L 418.599957 179.592874 
L 420.014436 179.392307 
L 421.428915 178.973695 
L 422.843394 178.098232 
L 424.257873 177.97449 
L 427.086831 179.715997 
L 428.50131 179.89369 
L 431.330269 179.78392 
L 433 179.498536 
L 433 179.498536 
" clip-path="url(#p153ece1731)" style="fill: none; stroke: #440154; stroke-width: 1.5; stroke-linecap: square"/>
   </g>
   <g id="line2d_19">
    <path d="M 63.565714 238.498275 
L 66.394672 238.374575 
L 67.809151 239.235911 
L 70.63811 238.190269 
L 72.052589 238.276041 
L 73.467068 238.498228 
L 74.881547 238.364342 
L 76.296026 238.854594 
L 77.710505 239.028725 
L 79.124984 238.766726 
L 83.368421 239.004484 
L 84.7829 238.063741 
L 86.197379 237.342052 
L 87.611858 238.485222 
L 89.026337 238.688455 
L 90.440816 239.170614 
L 91.855295 237.061144 
L 93.269774 239.850752 
L 96.098733 241.273852 
L 97.513212 238.591246 
L 100.34217 239.049171 
L 103.171128 236.210094 
L 104.585607 235.183578 
L 106.000086 235.519063 
L 107.414565 235.325342 
L 108.829044 236.890166 
L 110.243523 235.331947 
L 111.658002 234.826256 
L 113.072481 232.179843 
L 114.48696 223.275864 
L 115.901439 197.741663 
L 117.315918 190.426121 
L 118.730397 189.358966 
L 120.144876 189.178089 
L 121.559356 180.600885 
L 122.973835 170.714463 
L 124.388314 166.586265 
L 125.802793 164.013144 
L 127.217272 163.784403 
L 128.631751 162.026872 
L 130.04623 160.954312 
L 131.460709 161.842866 
L 132.875188 161.039386 
L 134.289667 161.552602 
L 135.704146 159.58099 
L 137.118625 160.196358 
L 138.533104 157.842685 
L 139.947583 157.623606 
L 141.362062 152.360183 
L 142.776541 150.437057 
L 144.19102 145.196265 
L 145.605499 142.103276 
L 147.019979 136.347974 
L 148.434458 134.315539 
L 149.848937 129.74462 
L 151.263416 129.512155 
L 152.677895 128.493749 
L 154.092374 127.881981 
L 155.506853 127.666047 
L 156.921332 123.789924 
L 158.335811 122.921457 
L 159.75029 117.778718 
L 161.164769 117.744227 
L 162.579248 114.124652 
L 163.993727 113.309277 
L 165.408206 110.527286 
L 166.822685 109.849637 
L 168.237164 109.721834 
L 169.651643 106.368373 
L 171.066122 106.254962 
L 172.480602 106.780772 
L 173.895081 105.646407 
L 175.30956 104.896269 
L 176.724039 102.904754 
L 178.138518 102.199403 
L 179.552997 103.182323 
L 180.967476 102.179685 
L 182.381955 102.682099 
L 183.796434 101.870586 
L 185.210913 102.458123 
L 186.625392 102.406443 
L 188.039871 102.192487 
L 189.45435 101.094504 
L 190.868829 102.000866 
L 192.283308 101.868299 
L 193.697787 101.283598 
L 195.112266 101.044746 
L 196.526745 100.553934 
L 197.941224 100.576043 
L 199.355704 100.185029 
L 200.770183 101.047214 
L 202.184662 99.908893 
L 203.599141 100.293647 
L 205.01362 100.316463 
L 206.428099 100.784286 
L 209.257057 101.051068 
L 210.671536 100.45861 
L 212.086015 100.944363 
L 213.500494 100.880781 
L 214.914973 101.181736 
L 216.329452 101.807958 
L 217.743931 101.780789 
L 220.572889 102.344518 
L 224.816327 103.063142 
L 230.474243 103.972497 
L 231.888722 104.271198 
L 233.303201 104.912024 
L 234.71768 104.750295 
L 237.546638 105.396428 
L 238.961117 105.710092 
L 241.790075 107.143174 
L 244.619033 108.483141 
L 246.033512 109.103456 
L 247.447991 109.469948 
L 250.27695 109.67342 
L 251.691429 110.13196 
L 253.105908 110.742901 
L 255.934866 111.665625 
L 257.349345 112.284898 
L 258.763824 112.509709 
L 260.178303 113.112049 
L 261.592782 113.146292 
L 263.007261 113.561978 
L 264.42174 113.686914 
L 265.836219 114.299854 
L 267.250698 114.731844 
L 268.665177 115.450662 
L 270.079656 116.294702 
L 271.494135 116.878545 
L 272.908614 117.250584 
L 274.323093 117.94828 
L 277.152052 119.043306 
L 278.566531 119.79619 
L 279.98101 121.002724 
L 281.395489 122.419903 
L 282.809968 123.549537 
L 287.053405 126.0984 
L 288.467884 127.073685 
L 289.882363 128.202902 
L 291.296842 129.977941 
L 295.540279 131.452612 
L 296.954758 132.522991 
L 298.369237 133.284141 
L 299.783716 133.819589 
L 301.198195 134.581279 
L 304.027154 136.468925 
L 306.856112 138.095191 
L 311.099549 141.904681 
L 313.928507 143.603037 
L 316.757465 145.62713 
L 318.171944 147.078162 
L 319.586423 148.845718 
L 321.000902 149.857916 
L 323.82986 150.913115 
L 326.658818 152.814128 
L 329.487777 155.695518 
L 332.316735 156.940108 
L 333.731214 157.817075 
L 336.560172 159.148441 
L 337.974651 159.062737 
L 339.38913 159.56201 
L 340.803609 159.933379 
L 342.218088 160.037903 
L 343.632567 160.62936 
L 346.461525 162.263545 
L 347.876004 163.497019 
L 352.119441 164.811814 
L 354.9484 165.229891 
L 356.362879 166.409777 
L 357.777358 167.757022 
L 359.191837 168.696199 
L 360.606316 169.356009 
L 364.849753 170.43038 
L 367.678711 170.354802 
L 369.09319 170.689712 
L 371.922148 171.006425 
L 373.336627 171.278742 
L 374.751106 171.729561 
L 376.165585 171.994229 
L 381.823502 171.527642 
L 383.237981 171.558494 
L 384.65246 172.232971 
L 386.066939 173.127319 
L 388.895897 174.053517 
L 390.310376 174.310531 
L 391.724855 174.303262 
L 394.553813 175.074717 
L 395.968292 175.556428 
L 398.79725 176.260812 
L 403.040687 176.890591 
L 404.455166 176.885431 
L 407.284125 177.041022 
L 408.698604 177.018311 
L 411.527562 177.767225 
L 414.35652 177.422042 
L 415.770999 177.57768 
L 417.185478 177.563636 
L 420.014436 177.865237 
L 421.428915 178.180117 
L 422.843394 178.685729 
L 424.257873 179.31589 
L 425.672352 179.347481 
L 428.50131 178.941442 
L 429.915789 178.852894 
L 431.330269 179.019262 
L 433 179.563677 
L 433 179.563677 
" clip-path="url(#p153ece1731)" style="fill: none; stroke: #7ad151; stroke-width: 1.5; stroke-linecap: square"/>
   </g>
   <g id="patch_3">
    <path d="M 54 252 
L 54 34.56 
" style="fill: none; stroke: #000000; stroke-width: 0.8; stroke-linejoin: miter; stroke-linecap: square"/>
   </g>
   <g id="patch_4">
    <path d="M 388.8 252 
L 388.8 34.56 
" style="fill: none; stroke: #000000; stroke-width: 0.8; stroke-linejoin: miter; stroke-linecap: square"/>
   </g>
   <g id="patch_5">
    <path d="M 54 252 
L 388.8 252 
" style="fill: none; stroke: #000000; stroke-width: 0.8; stroke-linejoin: miter; stroke-linecap: square"/>
   </g>
   <g id="patch_6">
    <path d="M 54 34.56 
L 388.8 34.56 
" style="fill: none; stroke: #000000; stroke-width: 0.8; stroke-linejoin: miter; stroke-linecap: square"/>
   </g>
   <g id="text_20">
    <!-- Y6 Normalized NEXAFS -->
    <g transform="translate(152.428125 28.56)scale(0.12 -0.12)">
     <defs>
      <path id="DejaVuSans-59" d="M -13 4666 
L 666 4666 
L 1959 2747 
L 3244 4666 
L 3922 4666 
L 2272 2222 
L 2272 0 
L 1638 0 
L 1638 2222 
L -13 4666 
z
" transform="scale(0.015625)"/>
      <path id="DejaVuSans-36" d="M 2113 2584 
Q 1688 2584 1439 2293 
Q 1191 2003 1191 1497 
Q 1191 994 1439 701 
Q 1688 409 2113 409 
Q 2538 409 2786 701 
Q 3034 994 3034 1497 
Q 3034 2003 2786 2293 
Q 2538 2584 2113 2584 
z
M 3366 4563 
L 3366 3988 
Q 3128 4100 2886 4159 
Q 2644 4219 2406 4219 
Q 1781 4219 1451 3797 
Q 1122 3375 1075 2522 
Q 1259 2794 1537 2939 
Q 1816 3084 2150 3084 
Q 2853 3084 3261 2657 
Q 3669 2231 3669 1497 
Q 3669 778 3244 343 
Q 2819 -91 2113 -91 
Q 1303 -91 875 529 
Q 447 1150 447 2328 
Q 447 3434 972 4092 
Q 1497 4750 2381 4750 
Q 2619 4750 2861 4703 
Q 3103 4656 3366 4563 
z
" transform="scale(0.015625)"/>
      <path id="DejaVuSans-4e" d="M 628 4666 
L 1478 4666 
L 3547 763 
L 3547 4666 
L 4159 4666 
L 4159 0 
L 3309 0 
L 1241 3903 
L 1241 0 
L 628 0 
L 628 4666 
z
" transform="scale(0.015625)"/>
      <path id="DejaVuSans-6d" d="M 3328 2828 
Q 3544 3216 3844 3400 
Q 4144 3584 4550 3584 
Q 5097 3584 5394 3201 
Q 5691 2819 5691 2113 
L 5691 0 
L 5113 0 
L 5113 2094 
Q 5113 2597 4934 2840 
Q 4756 3084 4391 3084 
Q 3944 3084 3684 2787 
Q 3425 2491 3425 1978 
L 3425 0 
L 2847 0 
L 2847 2094 
Q 2847 2600 2669 2842 
Q 2491 3084 2119 3084 
Q 1678 3084 1418 2786 
Q 1159 2488 1159 1978 
L 1159 0 
L 581 0 
L 581 3500 
L 1159 3500 
L 1159 2956 
Q 1356 3278 1631 3431 
Q 1906 3584 2284 3584 
Q 2666 3584 2933 3390 
Q 3200 3197 3328 2828 
z
" transform="scale(0.015625)"/>
      <path id="DejaVuSans-7a" d="M 353 3500 
L 3084 3500 
L 3084 2975 
L 922 459 
L 3084 459 
L 3084 0 
L 275 0 
L 275 525 
L 2438 3041 
L 353 3041 
L 353 3500 
z
" transform="scale(0.015625)"/>
      <path id="DejaVuSans-45" d="M 628 4666 
L 3578 4666 
L 3578 4134 
L 1259 4134 
L 1259 2753 
L 3481 2753 
L 3481 2222 
L 1259 2222 
L 1259 531 
L 3634 531 
L 3634 0 
L 628 0 
L 628 4666 
z
" transform="scale(0.015625)"/>
      <path id="DejaVuSans-58" d="M 403 4666 
L 1081 4666 
L 2241 2931 
L 3406 4666 
L 4084 4666 
L 2584 2425 
L 4184 0 
L 3506 0 
L 2194 1984 
L 872 0 
L 191 0 
L 1856 2491 
L 403 4666 
z
" transform="scale(0.015625)"/>
      <path id="DejaVuSans-41" d="M 2188 4044 
L 1331 1722 
L 3047 1722 
L 2188 4044 
z
M 1831 4666 
L 2547 4666 
L 4325 0 
L 3669 0 
L 3244 1197 
L 1141 1197 
L 716 0 
L 50 0 
L 1831 4666 
z
" transform="scale(0.015625)"/>
      <path id="DejaVuSans-46" d="M 628 4666 
L 3309 4666 
L 3309 4134 
L 1259 4134 
L 1259 2759 
L 3109 2759 
L 3109 2228 
L 1259 2228 
L 1259 0 
L 628 0 
L 628 4666 
z
" transform="scale(0.015625)"/>
      <path id="DejaVuSans-53" d="M 3425 4513 
L 3425 3897 
Q 3066 4069 2747 4153 
Q 2428 4238 2131 4238 
Q 1616 4238 1336 4038 
Q 1056 3838 1056 3469 
Q 1056 3159 1242 3001 
Q 1428 2844 1947 2747 
L 2328 2669 
Q 3034 2534 3370 2195 
Q 3706 1856 3706 1288 
Q 3706 609 3251 259 
Q 2797 -91 1919 -91 
Q 1588 -91 1214 -16 
Q 841 59 441 206 
L 441 856 
Q 825 641 1194 531 
Q 1563 422 1919 422 
Q 2459 422 2753 634 
Q 3047 847 3047 1241 
Q 3047 1584 2836 1778 
Q 2625 1972 2144 2069 
L 1759 2144 
Q 1053 2284 737 2584 
Q 422 2884 422 3419 
Q 422 4038 858 4394 
Q 1294 4750 2059 4750 
Q 2388 4750 2728 4690 
Q 3069 4631 3425 4513 
z
" transform="scale(0.015625)"/>
     </defs>
     <use xlink:href="#DejaVuSans-59"/>
     <use xlink:href="#DejaVuSans-36" x="61.083984"/>
     <use xlink:href="#DejaVuSans-20" x="124.707031"/>
     <use xlink:href="#DejaVuSans-4e" x="156.494141"/>
     <use xlink:href="#DejaVuSans-6f" x="231.298828"/>
     <use xlink:href="#DejaVuSans-72" x="292.480469"/>
     <use xlink:href="#DejaVuSans-6d" x="331.84375"/>
     <use xlink:href="#DejaVuSans-61" x="429.255859"/>
     <use xlink:href="#DejaVuSans-6c" x="490.535156"/>
     <use xlink:href="#DejaVuSans-69" x="518.318359"/>
     <use xlink:href="#DejaVuSans-7a" x="546.101562"/>
     <use xlink:href="#DejaVuSans-65" x="598.591797"/>
     <use xlink:href="#DejaVuSans-64" x="660.115234"/>
     <use xlink:href="#DejaVuSans-20" x="723.591797"/>
     <use xlink:href="#DejaVuSans-4e" x="755.378906"/>
     <use xlink:href="#DejaVuSans-45" x="830.183594"/>
     <use xlink:href="#DejaVuSans-58" x="893.367188"/>
     <use xlink:href="#DejaVuSans-41" x="961.873047"/>
     <use xlink:href="#DejaVuSans-46" x="1030.28125"/>
     <use xlink:href="#DejaVuSans-53" x="1086.050781"/>
    </g>
   </g>
   <g id="legend_1">
    <g id="patch_7">
     <path d="M 332.075 71.91625 
L 381.8 71.91625 
Q 383.8 71.91625 383.8 69.91625 
L 383.8 41.56 
Q 383.8 39.56 381.8 39.56 
L 332.075 39.56 
Q 330.075 39.56 330.075 41.56 
L 330.075 69.91625 
Q 330.075 71.91625 332.075 71.91625 
z
" style="fill: #ffffff; opacity: 0.8; stroke: #cccccc; stroke-linejoin: miter"/>
    </g>
    <g id="line2d_20">
     <path d="M 334.075 47.658437 
L 344.075 47.658437 
L 354.075 47.658437 
" style="fill: none; stroke: #440154; stroke-width: 1.5; stroke-linecap: square"/>
    </g>
    <g id="text_21">
     <!-- 0° -->
     <g transform="translate(362.075 51.158437)scale(0.1 -0.1)">
      <defs>
       <path id="DejaVuSans-b0" d="M 1600 4347 
Q 1350 4347 1178 4173 
Q 1006 4000 1006 3750 
Q 1006 3503 1178 3333 
Q 1350 3163 1600 3163 
Q 1850 3163 2022 3333 
Q 2194 3503 2194 3750 
Q 2194 3997 2020 4172 
Q 1847 4347 1600 4347 
z
M 1600 4750 
Q 1800 4750 1984 4673 
Q 2169 4597 2303 4453 
Q 2447 4313 2519 4134 
Q 2591 3956 2591 3750 
Q 2591 3338 2302 3052 
Q 2013 2766 1594 2766 
Q 1172 2766 890 3047 
Q 609 3328 609 3750 
Q 609 4169 896 4459 
Q 1184 4750 1600 4750 
z
" transform="scale(0.015625)"/>
      </defs>
      <use xlink:href="#DejaVuSans-30"/>
      <use xlink:href="#DejaVuSans-b0" x="63.623047"/>
     </g>
    </g>
    <g id="line2d_21">
     <path d="M 334.075 62.336562 
L 344.075 62.336562 
L 354.075 62.336562 
" style="fill: none; stroke: #7ad151; stroke-width: 1.5; stroke-linecap: square"/>
    </g>
    <g id="text_22">
     <!-- 90° -->
     <g transform="translate(362.075 65.836562)scale(0.1 -0.1)">
      <use xlink:href="#DejaVuSans-39"/>
      <use xlink:href="#DejaVuSans-30" x="63.623047"/>
      <use xlink:href="#DejaVuSans-b0" x="127.246094"/>
     </g>
    </g>
   </g>
  </g>
 </g>
 <defs>
  <clipPath id="p153ece1731">
   <rect x="54" y="34.56" width="334.8" height="217.44"/>
  </clipPath>
 </defs>
</svg>
