<?xml version="1.0" encoding="utf-8" standalone="no"?>
<!DOCTYPE svg PUBLIC "-//W3C//DTD SVG 1.1//EN"
  "http://www.w3.org/Graphics/SVG/1.1/DTD/svg11.dtd">
<svg xmlns:xlink="http://www.w3.org/1999/xlink" width="432pt" height="288pt" viewBox="0 0 432 288" xmlns="http://www.w3.org/2000/svg" version="1.1">
 <metadata>
  <rdf:RDF xmlns:dc="http://purl.org/dc/elements/1.1/" xmlns:cc="http://creativecommons.org/ns#" xmlns:rdf="http://www.w3.org/1999/02/22-rdf-syntax-ns#">
   <cc:Work>
    <dc:type rdf:resource="http://purl.org/dc/dcmitype/StillImage"/>
    <dc:date>2022-12-02T13:38:52.439818</dc:date>
    <dc:format>image/svg+xml</dc:format>
    <dc:creator>
     <cc:Agent>
      <dc:title>Matplotlib v3.5.1, https://matplotlib.org/</dc:title>
     </cc:Agent>
    </dc:creator>
   </cc:Work>
  </rdf:RDF>
 </metadata>
 <defs>
  <style type="text/css">*{stroke-linejoin: round; stroke-linecap: butt}</style>
 </defs>
 <g id="figure_1">
  <g id="patch_1">
   <path d="M 0 288 
L 432 288 
L 432 0 
L 0 0 
L 0 288 
z
" style="fill: none"/>
  </g>
  <g id="axes_1">
   <g id="patch_2">
    <path d="M 54 252 
L 388.8 252 
L 388.8 34.56 
L 54 34.56 
z
" style="fill: #ffffff"/>
   </g>
   <g id="matplotlib.axis_1">
    <g id="xtick_1">
     <g id="line2d_1">
      <defs>
       <path id="m61e5869df1" d="M 0 0 
L 0 3.5 
" style="stroke: #000000; stroke-width: 0.8"/>
      </defs>
      <g>
       <use xlink:href="#m61e5869df1" x="54" y="252" style="stroke: #000000; stroke-width: 0.8"/>
      </g>
     </g>
     <g id="text_1">
      <!-- 280 -->
      <g transform="translate(44.45625 266.598437)scale(0.1 -0.1)">
       <defs>
        <path id="DejaVuSans-32" d="M 1228 531 
L 3431 531 
L 3431 0 
L 469 0 
L 469 531 
Q 828 903 1448 1529 
Q 2069 2156 2228 2338 
Q 2531 2678 2651 2914 
Q 2772 3150 2772 3378 
Q 2772 3750 2511 3984 
Q 2250 4219 1831 4219 
Q 1534 4219 1204 4116 
Q 875 4013 500 3803 
L 500 4441 
Q 881 4594 1212 4672 
Q 1544 4750 1819 4750 
Q 2544 4750 2975 4387 
Q 3406 4025 3406 3419 
Q 3406 3131 3298 2873 
Q 3191 2616 2906 2266 
Q 2828 2175 2409 1742 
Q 1991 1309 1228 531 
z
" transform="scale(0.015625)"/>
        <path id="DejaVuSans-38" d="M 2034 2216 
Q 1584 2216 1326 1975 
Q 1069 1734 1069 1313 
Q 1069 891 1326 650 
Q 1584 409 2034 409 
Q 2484 409 2743 651 
Q 3003 894 3003 1313 
Q 3003 1734 2745 1975 
Q 2488 2216 2034 2216 
z
M 1403 2484 
Q 997 2584 770 2862 
Q 544 3141 544 3541 
Q 544 4100 942 4425 
Q 1341 4750 2034 4750 
Q 2731 4750 3128 4425 
Q 3525 4100 3525 3541 
Q 3525 3141 3298 2862 
Q 3072 2584 2669 2484 
Q 3125 2378 3379 2068 
Q 3634 1759 3634 1313 
Q 3634 634 3220 271 
Q 2806 -91 2034 -91 
Q 1263 -91 848 271 
Q 434 634 434 1313 
Q 434 1759 690 2068 
Q 947 2378 1403 2484 
z
M 1172 3481 
Q 1172 3119 1398 2916 
Q 1625 2713 2034 2713 
Q 2441 2713 2670 2916 
Q 2900 3119 2900 3481 
Q 2900 3844 2670 4047 
Q 2441 4250 2034 4250 
Q 1625 4250 1398 4047 
Q 1172 3844 1172 3481 
z
" transform="scale(0.015625)"/>
        <path id="DejaVuSans-30" d="M 2034 4250 
Q 1547 4250 1301 3770 
Q 1056 3291 1056 2328 
Q 1056 1369 1301 889 
Q 1547 409 2034 409 
Q 2525 409 2770 889 
Q 3016 1369 3016 2328 
Q 3016 3291 2770 3770 
Q 2525 4250 2034 4250 
z
M 2034 4750 
Q 2819 4750 3233 4129 
Q 3647 3509 3647 2328 
Q 3647 1150 3233 529 
Q 2819 -91 2034 -91 
Q 1250 -91 836 529 
Q 422 1150 422 2328 
Q 422 3509 836 4129 
Q 1250 4750 2034 4750 
z
" transform="scale(0.015625)"/>
       </defs>
       <use xlink:href="#DejaVuSans-32"/>
       <use xlink:href="#DejaVuSans-38" x="63.623047"/>
       <use xlink:href="#DejaVuSans-30" x="127.246094"/>
      </g>
     </g>
    </g>
    <g id="xtick_2">
     <g id="line2d_2">
      <g>
       <use xlink:href="#m61e5869df1" x="101.828571" y="252" style="stroke: #000000; stroke-width: 0.8"/>
      </g>
     </g>
     <g id="text_2">
      <!-- 285 -->
      <g transform="translate(92.284821 266.598437)scale(0.1 -0.1)">
       <defs>
        <path id="DejaVuSans-35" d="M 691 4666 
L 3169 4666 
L 3169 4134 
L 1269 4134 
L 1269 2991 
Q 1406 3038 1543 3061 
Q 1681 3084 1819 3084 
Q 2600 3084 3056 2656 
Q 3513 2228 3513 1497 
Q 3513 744 3044 326 
Q 2575 -91 1722 -91 
Q 1428 -91 1123 -41 
Q 819 9 494 109 
L 494 744 
Q 775 591 1075 516 
Q 1375 441 1709 441 
Q 2250 441 2565 725 
Q 2881 1009 2881 1497 
Q 2881 1984 2565 2268 
Q 2250 2553 1709 2553 
Q 1456 2553 1204 2497 
Q 953 2441 691 2322 
L 691 4666 
z
" transform="scale(0.015625)"/>
       </defs>
       <use xlink:href="#DejaVuSans-32"/>
       <use xlink:href="#DejaVuSans-38" x="63.623047"/>
       <use xlink:href="#DejaVuSans-35" x="127.246094"/>
      </g>
     </g>
    </g>
    <g id="xtick_3">
     <g id="line2d_3">
      <g>
       <use xlink:href="#m61e5869df1" x="149.657143" y="252" style="stroke: #000000; stroke-width: 0.8"/>
      </g>
     </g>
     <g id="text_3">
      <!-- 290 -->
      <g transform="translate(140.113393 266.598437)scale(0.1 -0.1)">
       <defs>
        <path id="DejaVuSans-39" d="M 703 97 
L 703 672 
Q 941 559 1184 500 
Q 1428 441 1663 441 
Q 2288 441 2617 861 
Q 2947 1281 2994 2138 
Q 2813 1869 2534 1725 
Q 2256 1581 1919 1581 
Q 1219 1581 811 2004 
Q 403 2428 403 3163 
Q 403 3881 828 4315 
Q 1253 4750 1959 4750 
Q 2769 4750 3195 4129 
Q 3622 3509 3622 2328 
Q 3622 1225 3098 567 
Q 2575 -91 1691 -91 
Q 1453 -91 1209 -44 
Q 966 3 703 97 
z
M 1959 2075 
Q 2384 2075 2632 2365 
Q 2881 2656 2881 3163 
Q 2881 3666 2632 3958 
Q 2384 4250 1959 4250 
Q 1534 4250 1286 3958 
Q 1038 3666 1038 3163 
Q 1038 2656 1286 2365 
Q 1534 2075 1959 2075 
z
" transform="scale(0.015625)"/>
       </defs>
       <use xlink:href="#DejaVuSans-32"/>
       <use xlink:href="#DejaVuSans-39" x="63.623047"/>
       <use xlink:href="#DejaVuSans-30" x="127.246094"/>
      </g>
     </g>
    </g>
    <g id="xtick_4">
     <g id="line2d_4">
      <g>
       <use xlink:href="#m61e5869df1" x="197.485714" y="252" style="stroke: #000000; stroke-width: 0.8"/>
      </g>
     </g>
     <g id="text_4">
      <!-- 295 -->
      <g transform="translate(187.941964 266.598437)scale(0.1 -0.1)">
       <use xlink:href="#DejaVuSans-32"/>
       <use xlink:href="#DejaVuSans-39" x="63.623047"/>
       <use xlink:href="#DejaVuSans-35" x="127.246094"/>
      </g>
     </g>
    </g>
    <g id="xtick_5">
     <g id="line2d_5">
      <g>
       <use xlink:href="#m61e5869df1" x="245.314286" y="252" style="stroke: #000000; stroke-width: 0.8"/>
      </g>
     </g>
     <g id="text_5">
      <!-- 300 -->
      <g transform="translate(235.770536 266.598437)scale(0.1 -0.1)">
       <defs>
        <path id="DejaVuSans-33" d="M 2597 2516 
Q 3050 2419 3304 2112 
Q 3559 1806 3559 1356 
Q 3559 666 3084 287 
Q 2609 -91 1734 -91 
Q 1441 -91 1130 -33 
Q 819 25 488 141 
L 488 750 
Q 750 597 1062 519 
Q 1375 441 1716 441 
Q 2309 441 2620 675 
Q 2931 909 2931 1356 
Q 2931 1769 2642 2001 
Q 2353 2234 1838 2234 
L 1294 2234 
L 1294 2753 
L 1863 2753 
Q 2328 2753 2575 2939 
Q 2822 3125 2822 3475 
Q 2822 3834 2567 4026 
Q 2313 4219 1838 4219 
Q 1578 4219 1281 4162 
Q 984 4106 628 3988 
L 628 4550 
Q 988 4650 1302 4700 
Q 1616 4750 1894 4750 
Q 2613 4750 3031 4423 
Q 3450 4097 3450 3541 
Q 3450 3153 3228 2886 
Q 3006 2619 2597 2516 
z
" transform="scale(0.015625)"/>
       </defs>
       <use xlink:href="#DejaVuSans-33"/>
       <use xlink:href="#DejaVuSans-30" x="63.623047"/>
       <use xlink:href="#DejaVuSans-30" x="127.246094"/>
      </g>
     </g>
    </g>
    <g id="xtick_6">
     <g id="line2d_6">
      <g>
       <use xlink:href="#m61e5869df1" x="293.142857" y="252" style="stroke: #000000; stroke-width: 0.8"/>
      </g>
     </g>
     <g id="text_6">
      <!-- 305 -->
      <g transform="translate(283.599107 266.598437)scale(0.1 -0.1)">
       <use xlink:href="#DejaVuSans-33"/>
       <use xlink:href="#DejaVuSans-30" x="63.623047"/>
       <use xlink:href="#DejaVuSans-35" x="127.246094"/>
      </g>
     </g>
    </g>
    <g id="xtick_7">
     <g id="line2d_7">
      <g>
       <use xlink:href="#m61e5869df1" x="340.971429" y="252" style="stroke: #000000; stroke-width: 0.8"/>
      </g>
     </g>
     <g id="text_7">
      <!-- 310 -->
      <g transform="translate(331.427679 266.598437)scale(0.1 -0.1)">
       <defs>
        <path id="DejaVuSans-31" d="M 794 531 
L 1825 531 
L 1825 4091 
L 703 3866 
L 703 4441 
L 1819 4666 
L 2450 4666 
L 2450 531 
L 3481 531 
L 3481 0 
L 794 0 
L 794 531 
z
" transform="scale(0.015625)"/>
       </defs>
       <use xlink:href="#DejaVuSans-33"/>
       <use xlink:href="#DejaVuSans-31" x="63.623047"/>
       <use xlink:href="#DejaVuSans-30" x="127.246094"/>
      </g>
     </g>
    </g>
    <g id="xtick_8">
     <g id="line2d_8">
      <g>
       <use xlink:href="#m61e5869df1" x="388.8" y="252" style="stroke: #000000; stroke-width: 0.8"/>
      </g>
     </g>
     <g id="text_8">
      <!-- 315 -->
      <g transform="translate(379.25625 266.598437)scale(0.1 -0.1)">
       <use xlink:href="#DejaVuSans-33"/>
       <use xlink:href="#DejaVuSans-31" x="63.623047"/>
       <use xlink:href="#DejaVuSans-35" x="127.246094"/>
      </g>
     </g>
    </g>
    <g id="text_9">
     <!-- energy [eV] -->
     <g transform="translate(191.989062 280.276563)scale(0.1 -0.1)">
      <defs>
       <path id="DejaVuSans-65" d="M 3597 1894 
L 3597 1613 
L 953 1613 
Q 991 1019 1311 708 
Q 1631 397 2203 397 
Q 2534 397 2845 478 
Q 3156 559 3463 722 
L 3463 178 
Q 3153 47 2828 -22 
Q 2503 -91 2169 -91 
Q 1331 -91 842 396 
Q 353 884 353 1716 
Q 353 2575 817 3079 
Q 1281 3584 2069 3584 
Q 2775 3584 3186 3129 
Q 3597 2675 3597 1894 
z
M 3022 2063 
Q 3016 2534 2758 2815 
Q 2500 3097 2075 3097 
Q 1594 3097 1305 2825 
Q 1016 2553 972 2059 
L 3022 2063 
z
" transform="scale(0.015625)"/>
       <path id="DejaVuSans-6e" d="M 3513 2113 
L 3513 0 
L 2938 0 
L 2938 2094 
Q 2938 2591 2744 2837 
Q 2550 3084 2163 3084 
Q 1697 3084 1428 2787 
Q 1159 2491 1159 1978 
L 1159 0 
L 581 0 
L 581 3500 
L 1159 3500 
L 1159 2956 
Q 1366 3272 1645 3428 
Q 1925 3584 2291 3584 
Q 2894 3584 3203 3211 
Q 3513 2838 3513 2113 
z
" transform="scale(0.015625)"/>
       <path id="DejaVuSans-72" d="M 2631 2963 
Q 2534 3019 2420 3045 
Q 2306 3072 2169 3072 
Q 1681 3072 1420 2755 
Q 1159 2438 1159 1844 
L 1159 0 
L 581 0 
L 581 3500 
L 1159 3500 
L 1159 2956 
Q 1341 3275 1631 3429 
Q 1922 3584 2338 3584 
Q 2397 3584 2469 3576 
Q 2541 3569 2628 3553 
L 2631 2963 
z
" transform="scale(0.015625)"/>
       <path id="DejaVuSans-67" d="M 2906 1791 
Q 2906 2416 2648 2759 
Q 2391 3103 1925 3103 
Q 1463 3103 1205 2759 
Q 947 2416 947 1791 
Q 947 1169 1205 825 
Q 1463 481 1925 481 
Q 2391 481 2648 825 
Q 2906 1169 2906 1791 
z
M 3481 434 
Q 3481 -459 3084 -895 
Q 2688 -1331 1869 -1331 
Q 1566 -1331 1297 -1286 
Q 1028 -1241 775 -1147 
L 775 -588 
Q 1028 -725 1275 -790 
Q 1522 -856 1778 -856 
Q 2344 -856 2625 -561 
Q 2906 -266 2906 331 
L 2906 616 
Q 2728 306 2450 153 
Q 2172 0 1784 0 
Q 1141 0 747 490 
Q 353 981 353 1791 
Q 353 2603 747 3093 
Q 1141 3584 1784 3584 
Q 2172 3584 2450 3431 
Q 2728 3278 2906 2969 
L 2906 3500 
L 3481 3500 
L 3481 434 
z
" transform="scale(0.015625)"/>
       <path id="DejaVuSans-79" d="M 2059 -325 
Q 1816 -950 1584 -1140 
Q 1353 -1331 966 -1331 
L 506 -1331 
L 506 -850 
L 844 -850 
Q 1081 -850 1212 -737 
Q 1344 -625 1503 -206 
L 1606 56 
L 191 3500 
L 800 3500 
L 1894 763 
L 2988 3500 
L 3597 3500 
L 2059 -325 
z
" transform="scale(0.015625)"/>
       <path id="DejaVuSans-20" transform="scale(0.015625)"/>
       <path id="DejaVuSans-5b" d="M 550 4863 
L 1875 4863 
L 1875 4416 
L 1125 4416 
L 1125 -397 
L 1875 -397 
L 1875 -844 
L 550 -844 
L 550 4863 
z
" transform="scale(0.015625)"/>
       <path id="DejaVuSans-56" d="M 1831 0 
L 50 4666 
L 709 4666 
L 2188 738 
L 3669 4666 
L 4325 4666 
L 2547 0 
L 1831 0 
z
" transform="scale(0.015625)"/>
       <path id="DejaVuSans-5d" d="M 1947 4863 
L 1947 -844 
L 622 -844 
L 622 -397 
L 1369 -397 
L 1369 4416 
L 622 4416 
L 622 4863 
L 1947 4863 
z
" transform="scale(0.015625)"/>
      </defs>
      <use xlink:href="#DejaVuSans-65"/>
      <use xlink:href="#DejaVuSans-6e" x="61.523438"/>
      <use xlink:href="#DejaVuSans-65" x="124.902344"/>
      <use xlink:href="#DejaVuSans-72" x="186.425781"/>
      <use xlink:href="#DejaVuSans-67" x="225.789062"/>
      <use xlink:href="#DejaVuSans-79" x="289.265625"/>
      <use xlink:href="#DejaVuSans-20" x="348.445312"/>
      <use xlink:href="#DejaVuSans-5b" x="380.232422"/>
      <use xlink:href="#DejaVuSans-65" x="419.246094"/>
      <use xlink:href="#DejaVuSans-56" x="480.769531"/>
      <use xlink:href="#DejaVuSans-5d" x="549.177734"/>
     </g>
    </g>
   </g>
   <g id="matplotlib.axis_2">
    <g id="ytick_1">
     <g id="line2d_9">
      <defs>
       <path id="m4775e1aa40" d="M 0 0 
L -3.5 0 
" style="stroke: #000000; stroke-width: 0.8"/>
      </defs>
      <g>
       <use xlink:href="#m4775e1aa40" x="54" y="236.883602" style="stroke: #000000; stroke-width: 0.8"/>
      </g>
     </g>
     <g id="text_10">
      <!-- 0.0 -->
      <g transform="translate(31.096875 240.682821)scale(0.1 -0.1)">
       <defs>
        <path id="DejaVuSans-2e" d="M 684 794 
L 1344 794 
L 1344 0 
L 684 0 
L 684 794 
z
" transform="scale(0.015625)"/>
       </defs>
       <use xlink:href="#DejaVuSans-30"/>
       <use xlink:href="#DejaVuSans-2e" x="63.623047"/>
       <use xlink:href="#DejaVuSans-30" x="95.410156"/>
      </g>
     </g>
    </g>
    <g id="ytick_2">
     <g id="line2d_10">
      <g>
       <use xlink:href="#m4775e1aa40" x="54" y="206.167855" style="stroke: #000000; stroke-width: 0.8"/>
      </g>
     </g>
     <g id="text_11">
      <!-- 0.5 -->
      <g transform="translate(31.096875 209.967074)scale(0.1 -0.1)">
       <use xlink:href="#DejaVuSans-30"/>
       <use xlink:href="#DejaVuSans-2e" x="63.623047"/>
       <use xlink:href="#DejaVuSans-35" x="95.410156"/>
      </g>
     </g>
    </g>
    <g id="ytick_3">
     <g id="line2d_11">
      <g>
       <use xlink:href="#m4775e1aa40" x="54" y="175.452108" style="stroke: #000000; stroke-width: 0.8"/>
      </g>
     </g>
     <g id="text_12">
      <!-- 1.0 -->
      <g transform="translate(31.096875 179.251327)scale(0.1 -0.1)">
       <use xlink:href="#DejaVuSans-31"/>
       <use xlink:href="#DejaVuSans-2e" x="63.623047"/>
       <use xlink:href="#DejaVuSans-30" x="95.410156"/>
      </g>
     </g>
    </g>
    <g id="ytick_4">
     <g id="line2d_12">
      <g>
       <use xlink:href="#m4775e1aa40" x="54" y="144.736361" style="stroke: #000000; stroke-width: 0.8"/>
      </g>
     </g>
     <g id="text_13">
      <!-- 1.5 -->
      <g transform="translate(31.096875 148.53558)scale(0.1 -0.1)">
       <use xlink:href="#DejaVuSans-31"/>
       <use xlink:href="#DejaVuSans-2e" x="63.623047"/>
       <use xlink:href="#DejaVuSans-35" x="95.410156"/>
      </g>
     </g>
    </g>
    <g id="ytick_5">
     <g id="line2d_13">
      <g>
       <use xlink:href="#m4775e1aa40" x="54" y="114.020614" style="stroke: #000000; stroke-width: 0.8"/>
      </g>
     </g>
     <g id="text_14">
      <!-- 2.0 -->
      <g transform="translate(31.096875 117.819833)scale(0.1 -0.1)">
       <use xlink:href="#DejaVuSans-32"/>
       <use xlink:href="#DejaVuSans-2e" x="63.623047"/>
       <use xlink:href="#DejaVuSans-30" x="95.410156"/>
      </g>
     </g>
    </g>
    <g id="ytick_6">
     <g id="line2d_14">
      <g>
       <use xlink:href="#m4775e1aa40" x="54" y="83.304867" style="stroke: #000000; stroke-width: 0.8"/>
      </g>
     </g>
     <g id="text_15">
      <!-- 2.5 -->
      <g transform="translate(31.096875 87.104085)scale(0.1 -0.1)">
       <use xlink:href="#DejaVuSans-32"/>
       <use xlink:href="#DejaVuSans-2e" x="63.623047"/>
       <use xlink:href="#DejaVuSans-35" x="95.410156"/>
      </g>
     </g>
    </g>
    <g id="ytick_7">
     <g id="line2d_15">
      <g>
       <use xlink:href="#m4775e1aa40" x="54" y="52.58912" style="stroke: #000000; stroke-width: 0.8"/>
      </g>
     </g>
     <g id="text_16">
      <!-- 3.0 -->
      <g transform="translate(31.096875 56.388338)scale(0.1 -0.1)">
       <use xlink:href="#DejaVuSans-33"/>
       <use xlink:href="#DejaVuSans-2e" x="63.623047"/>
       <use xlink:href="#DejaVuSans-30" x="95.410156"/>
      </g>
     </g>
    </g>
    <g id="text_17">
     <!-- electron_yield [a.u.] -->
     <g transform="translate(24.739062 193.0925)rotate(-90)scale(0.1 -0.1)">
      <defs>
       <path id="DejaVuSans-6c" d="M 603 4863 
L 1178 4863 
L 1178 0 
L 603 0 
L 603 4863 
z
" transform="scale(0.015625)"/>
       <path id="DejaVuSans-63" d="M 3122 3366 
L 3122 2828 
Q 2878 2963 2633 3030 
Q 2388 3097 2138 3097 
Q 1578 3097 1268 2742 
Q 959 2388 959 1747 
Q 959 1106 1268 751 
Q 1578 397 2138 397 
Q 2388 397 2633 464 
Q 2878 531 3122 666 
L 3122 134 
Q 2881 22 2623 -34 
Q 2366 -91 2075 -91 
Q 1284 -91 818 406 
Q 353 903 353 1747 
Q 353 2603 823 3093 
Q 1294 3584 2113 3584 
Q 2378 3584 2631 3529 
Q 2884 3475 3122 3366 
z
" transform="scale(0.015625)"/>
       <path id="DejaVuSans-74" d="M 1172 4494 
L 1172 3500 
L 2356 3500 
L 2356 3053 
L 1172 3053 
L 1172 1153 
Q 1172 725 1289 603 
Q 1406 481 1766 481 
L 2356 481 
L 2356 0 
L 1766 0 
Q 1100 0 847 248 
Q 594 497 594 1153 
L 594 3053 
L 172 3053 
L 172 3500 
L 594 3500 
L 594 4494 
L 1172 4494 
z
" transform="scale(0.015625)"/>
       <path id="DejaVuSans-6f" d="M 1959 3097 
Q 1497 3097 1228 2736 
Q 959 2375 959 1747 
Q 959 1119 1226 758 
Q 1494 397 1959 397 
Q 2419 397 2687 759 
Q 2956 1122 2956 1747 
Q 2956 2369 2687 2733 
Q 2419 3097 1959 3097 
z
M 1959 3584 
Q 2709 3584 3137 3096 
Q 3566 2609 3566 1747 
Q 3566 888 3137 398 
Q 2709 -91 1959 -91 
Q 1206 -91 779 398 
Q 353 888 353 1747 
Q 353 2609 779 3096 
Q 1206 3584 1959 3584 
z
" transform="scale(0.015625)"/>
       <path id="DejaVuSans-5f" d="M 3263 -1063 
L 3263 -1509 
L -63 -1509 
L -63 -1063 
L 3263 -1063 
z
" transform="scale(0.015625)"/>
       <path id="DejaVuSans-69" d="M 603 3500 
L 1178 3500 
L 1178 0 
L 603 0 
L 603 3500 
z
M 603 4863 
L 1178 4863 
L 1178 4134 
L 603 4134 
L 603 4863 
z
" transform="scale(0.015625)"/>
       <path id="DejaVuSans-64" d="M 2906 2969 
L 2906 4863 
L 3481 4863 
L 3481 0 
L 2906 0 
L 2906 525 
Q 2725 213 2448 61 
Q 2172 -91 1784 -91 
Q 1150 -91 751 415 
Q 353 922 353 1747 
Q 353 2572 751 3078 
Q 1150 3584 1784 3584 
Q 2172 3584 2448 3432 
Q 2725 3281 2906 2969 
z
M 947 1747 
Q 947 1113 1208 752 
Q 1469 391 1925 391 
Q 2381 391 2643 752 
Q 2906 1113 2906 1747 
Q 2906 2381 2643 2742 
Q 2381 3103 1925 3103 
Q 1469 3103 1208 2742 
Q 947 2381 947 1747 
z
" transform="scale(0.015625)"/>
       <path id="DejaVuSans-61" d="M 2194 1759 
Q 1497 1759 1228 1600 
Q 959 1441 959 1056 
Q 959 750 1161 570 
Q 1363 391 1709 391 
Q 2188 391 2477 730 
Q 2766 1069 2766 1631 
L 2766 1759 
L 2194 1759 
z
M 3341 1997 
L 3341 0 
L 2766 0 
L 2766 531 
Q 2569 213 2275 61 
Q 1981 -91 1556 -91 
Q 1019 -91 701 211 
Q 384 513 384 1019 
Q 384 1609 779 1909 
Q 1175 2209 1959 2209 
L 2766 2209 
L 2766 2266 
Q 2766 2663 2505 2880 
Q 2244 3097 1772 3097 
Q 1472 3097 1187 3025 
Q 903 2953 641 2809 
L 641 3341 
Q 956 3463 1253 3523 
Q 1550 3584 1831 3584 
Q 2591 3584 2966 3190 
Q 3341 2797 3341 1997 
z
" transform="scale(0.015625)"/>
       <path id="DejaVuSans-75" d="M 544 1381 
L 544 3500 
L 1119 3500 
L 1119 1403 
Q 1119 906 1312 657 
Q 1506 409 1894 409 
Q 2359 409 2629 706 
Q 2900 1003 2900 1516 
L 2900 3500 
L 3475 3500 
L 3475 0 
L 2900 0 
L 2900 538 
Q 2691 219 2414 64 
Q 2138 -91 1772 -91 
Q 1169 -91 856 284 
Q 544 659 544 1381 
z
M 1991 3584 
L 1991 3584 
z
" transform="scale(0.015625)"/>
      </defs>
      <use xlink:href="#DejaVuSans-65"/>
      <use xlink:href="#DejaVuSans-6c" x="61.523438"/>
      <use xlink:href="#DejaVuSans-65" x="89.306641"/>
      <use xlink:href="#DejaVuSans-63" x="150.830078"/>
      <use xlink:href="#DejaVuSans-74" x="205.810547"/>
      <use xlink:href="#DejaVuSans-72" x="245.019531"/>
      <use xlink:href="#DejaVuSans-6f" x="283.882812"/>
      <use xlink:href="#DejaVuSans-6e" x="345.064453"/>
      <use xlink:href="#DejaVuSans-5f" x="408.443359"/>
      <use xlink:href="#DejaVuSans-79" x="458.443359"/>
      <use xlink:href="#DejaVuSans-69" x="517.623047"/>
      <use xlink:href="#DejaVuSans-65" x="545.40625"/>
      <use xlink:href="#DejaVuSans-6c" x="606.929688"/>
      <use xlink:href="#DejaVuSans-64" x="634.712891"/>
      <use xlink:href="#DejaVuSans-20" x="698.189453"/>
      <use xlink:href="#DejaVuSans-5b" x="729.976562"/>
      <use xlink:href="#DejaVuSans-61" x="768.990234"/>
      <use xlink:href="#DejaVuSans-2e" x="830.269531"/>
      <use xlink:href="#DejaVuSans-75" x="862.056641"/>
      <use xlink:href="#DejaVuSans-2e" x="925.435547"/>
      <use xlink:href="#DejaVuSans-5d" x="957.222656"/>
     </g>
    </g>
   </g>
   <g id="line2d_16">
    <path d="M 63.565714 239.444222 
L 64.980193 239.584998 
L 66.394672 240.232844 
L 67.809151 239.302322 
L 69.223631 238.144013 
L 70.63811 237.271214 
L 72.052589 236.742648 
L 73.467068 239.14361 
L 74.881547 239.374935 
L 76.296026 241.35513 
L 77.710505 238.295246 
L 79.124984 235.909876 
L 80.539463 236.283829 
L 81.953942 238.626616 
L 83.368421 236.132163 
L 84.7829 236.73138 
L 86.197379 232.366398 
L 87.611858 237.704057 
L 89.026337 233.437936 
L 90.440816 234.551659 
L 91.855295 223.920549 
L 94.684253 166.208163 
L 97.513212 154.159882 
L 98.927691 132.24711 
L 100.34217 124.232216 
L 101.756649 148.901263 
L 103.171128 177.169667 
L 104.585607 189.68633 
L 106.000086 181.237233 
L 107.414565 162.004682 
L 108.829044 137.302391 
L 110.243523 117.732749 
L 111.658002 115.038714 
L 113.072481 116.055129 
L 114.48696 123.983073 
L 115.901439 128.990042 
L 118.730397 145.158821 
L 120.144876 137.434352 
L 121.559356 111.924643 
L 122.973835 90.084389 
L 124.388314 78.286134 
L 125.802793 68.767385 
L 127.217272 55.203572 
L 128.631751 46.347945 
L 130.04623 46.084089 
L 131.460709 56.871236 
L 132.875188 61.950054 
L 134.289667 71.942245 
L 135.704146 76.7745 
L 137.118625 87.409136 
L 138.533104 91.389557 
L 139.947583 99.478072 
L 141.362062 98.190869 
L 142.776541 100.803791 
L 144.19102 100.212017 
L 145.605499 98.542657 
L 147.019979 95.599035 
L 148.434458 98.710206 
L 149.848937 100.336371 
L 151.263416 92.353429 
L 152.677895 94.949807 
L 154.092374 91.144176 
L 155.506853 90.728379 
L 156.921332 84.727451 
L 158.335811 82.497118 
L 159.75029 81.847458 
L 162.579248 75.462215 
L 163.993727 71.804945 
L 165.408206 73.161929 
L 166.822685 72.473289 
L 168.237164 73.645265 
L 169.651643 70.758263 
L 171.066122 71.281849 
L 172.480602 67.929195 
L 173.895081 67.651367 
L 175.30956 69.754809 
L 176.724039 68.618557 
L 178.138518 71.975112 
L 179.552997 74.027509 
L 180.967476 74.785257 
L 182.381955 75.021335 
L 183.796434 78.303055 
L 185.210913 80.936831 
L 186.625392 79.92412 
L 188.039871 80.292704 
L 190.868829 88.086246 
L 192.283308 89.553856 
L 195.112266 93.317584 
L 196.526745 93.758326 
L 199.355704 99.46745 
L 200.770183 99.601714 
L 202.184662 103.32986 
L 203.599141 106.41931 
L 205.01362 105.422192 
L 206.428099 97.103337 
L 207.842578 99.716553 
L 209.257057 99.044179 
L 210.671536 100.756601 
L 212.086015 100.09419 
L 213.500494 97.795582 
L 214.914973 99.644225 
L 216.329452 102.187149 
L 217.743931 106.998287 
L 219.15841 107.072684 
L 220.572889 106.841214 
L 224.816327 105.453061 
L 229.059764 104.517544 
L 230.474243 104.423223 
L 231.888722 104.921836 
L 233.303201 103.143382 
L 234.71768 101.181859 
L 236.132159 100.865247 
L 237.546638 100.981021 
L 238.961117 101.310181 
L 240.375596 102.616098 
L 241.790075 102.986126 
L 243.204554 104.032231 
L 244.619033 104.550868 
L 247.447991 105.328986 
L 248.86247 106.825117 
L 250.27695 109.123849 
L 251.691429 110.486433 
L 253.105908 112.696339 
L 254.520387 114.32948 
L 257.349345 115.481638 
L 258.763824 116.85935 
L 260.178303 118.426303 
L 261.592782 117.97525 
L 263.007261 116.750321 
L 264.42174 116.805901 
L 267.250698 118.165618 
L 268.665177 119.738014 
L 270.079656 120.967079 
L 271.494135 121.276856 
L 272.908614 120.430593 
L 275.737573 122.537643 
L 277.152052 124.120709 
L 278.566531 126.462134 
L 279.98101 128.368963 
L 281.395489 129.350223 
L 282.809968 130.171632 
L 287.053405 131.158946 
L 288.467884 132.430961 
L 289.882363 130.907074 
L 291.296842 127.932466 
L 292.711321 127.24967 
L 295.540279 128.133101 
L 296.954758 128.843279 
L 298.369237 130.89079 
L 299.783716 130.656024 
L 301.198195 126.240292 
L 302.612675 126.242263 
L 304.027154 126.796059 
L 305.441633 127.995776 
L 306.856112 130.962401 
L 308.270591 131.630432 
L 309.68507 131.291411 
L 311.099549 131.117779 
L 313.928507 132.613866 
L 315.342986 133.921012 
L 316.757465 135.632499 
L 318.171944 137.110743 
L 321.000902 138.995125 
L 323.82986 140.478476 
L 325.244339 141.421511 
L 326.658818 143.657243 
L 328.073298 143.263894 
L 329.487777 137.425491 
L 330.902256 137.122693 
L 332.316735 137.889336 
L 333.731214 138.858872 
L 335.145693 140.771689 
L 336.560172 142.132888 
L 339.38913 139.173719 
L 343.632567 142.621832 
L 345.047046 144.383248 
L 346.461525 145.897406 
L 347.876004 146.524136 
L 349.290483 146.789603 
L 352.119441 146.020307 
L 353.533921 146.377592 
L 356.362879 147.533405 
L 360.606316 148.493563 
L 362.020795 148.792164 
L 363.435274 149.499053 
L 364.849753 149.945297 
L 367.678711 148.845994 
L 370.507669 148.527153 
L 371.922148 148.556702 
L 373.336627 148.934938 
L 376.165585 150.021595 
L 377.580064 150.300558 
L 380.409023 149.689195 
L 381.823502 150.040368 
L 383.237981 150.674494 
L 384.65246 151.467478 
L 386.066939 152.015112 
L 387.481418 152.284477 
L 390.310376 152.439471 
L 391.724855 153.851058 
L 393.139334 154.42459 
L 394.553813 153.600936 
L 395.968292 153.6761 
L 398.79725 154.644427 
L 400.211729 155.285292 
L 401.626208 156.381592 
L 403.040687 156.192099 
L 405.869646 154.257983 
L 408.698604 153.69224 
L 410.113083 154.030532 
L 411.527562 154.732235 
L 412.942041 155.073001 
L 414.35652 155.931408 
L 415.770999 156.172235 
L 418.599957 154.884384 
L 420.014436 154.607363 
L 421.428915 155.006034 
L 424.257873 157.252702 
L 425.672352 157.085206 
L 428.50131 156.104981 
L 429.915789 156.093474 
L 431.330269 156.509532 
L 433 157.883557 
L 433 157.883557 
" clip-path="url(#pf77b1559c9)" style="fill: none; stroke: #440154; stroke-width: 1.5; stroke-linecap: square"/>
   </g>
   <g id="line2d_17">
    <path d="M 63.565714 236.627068 
L 66.394672 234.497362 
L 67.809151 237.721952 
L 69.223631 241.401911 
L 72.052589 239.73991 
L 73.467068 242.116364 
L 74.881547 239.932091 
L 76.296026 241.272053 
L 77.710505 238.398922 
L 79.124984 239.963923 
L 80.539463 235.870152 
L 81.953942 237.484317 
L 83.368421 232.818289 
L 84.7829 236.58982 
L 86.197379 234.528597 
L 87.611858 236.559352 
L 89.026337 235.32181 
L 90.440816 232.050031 
L 91.855295 225.528549 
L 93.269774 200.712546 
L 94.684253 165.601103 
L 96.098733 165.485965 
L 97.513212 160.12043 
L 98.927691 138.983956 
L 100.34217 133.005504 
L 101.756649 153.59006 
L 103.171128 181.24848 
L 104.585607 191.368223 
L 106.000086 185.344946 
L 107.414565 165.637175 
L 108.829044 139.73893 
L 110.243523 124.901223 
L 111.658002 119.996056 
L 113.072481 124.786779 
L 114.48696 123.578405 
L 115.901439 123.292607 
L 117.315918 136.389387 
L 118.730397 145.046611 
L 120.144876 134.390762 
L 121.559356 109.634015 
L 122.973835 88.28434 
L 125.802793 71.920144 
L 128.631751 49.759172 
L 130.04623 52.542306 
L 131.460709 59.799304 
L 132.875188 70.01864 
L 134.289667 71.786023 
L 135.704146 81.442251 
L 137.118625 89.580114 
L 138.533104 95.218232 
L 139.947583 96.787484 
L 141.362062 98.667001 
L 142.776541 103.38505 
L 144.19102 103.44867 
L 145.605499 101.880293 
L 147.019979 95.687347 
L 148.434458 97.397924 
L 149.848937 98.860444 
L 151.263416 99.212921 
L 152.677895 102.980599 
L 154.092374 99.697655 
L 155.506853 97.349279 
L 156.921332 94.037921 
L 158.335811 86.557038 
L 159.75029 88.173996 
L 161.164769 81.259995 
L 162.579248 79.052099 
L 163.993727 76.076938 
L 165.408206 77.967114 
L 166.822685 74.637319 
L 168.237164 72.894522 
L 169.651643 75.461129 
L 171.066122 76.240723 
L 172.480602 76.580447 
L 173.895081 74.13245 
L 175.30956 77.676578 
L 176.724039 78.617514 
L 178.138518 79.786803 
L 179.552997 77.522264 
L 180.967476 78.661555 
L 182.381955 82.770109 
L 183.796434 83.759932 
L 185.210913 79.624182 
L 186.625392 85.049534 
L 188.039871 85.402855 
L 189.45435 88.615515 
L 190.868829 93.651145 
L 192.283308 91.964418 
L 193.697787 94.339773 
L 195.112266 97.43285 
L 196.526745 97.956376 
L 197.941224 99.777237 
L 199.355704 103.242544 
L 200.770183 103.713042 
L 202.184662 107.329135 
L 203.599141 104.369746 
L 205.01362 107.834911 
L 206.428099 108.251964 
L 207.842578 108.976911 
L 209.257057 111.983421 
L 210.671536 114.715373 
L 212.086015 111.550658 
L 213.500494 112.678705 
L 214.914973 111.501273 
L 217.743931 119.278176 
L 220.572889 118.674368 
L 231.888722 111.771006 
L 234.71768 109.377395 
L 236.132159 109.479549 
L 241.790075 111.811223 
L 243.204554 114.948676 
L 244.619033 115.140563 
L 247.447991 111.921901 
L 250.27695 108.605084 
L 251.691429 107.781978 
L 258.763824 108.899945 
L 260.178303 109.162498 
L 261.592782 110.149051 
L 263.007261 109.224307 
L 264.42174 110.299037 
L 268.665177 111.476118 
L 270.079656 112.075303 
L 271.494135 114.628775 
L 272.908614 117.936777 
L 274.323093 118.078161 
L 278.566531 117.94597 
L 279.98101 118.362108 
L 282.809968 123.674588 
L 288.467884 124.461625 
L 289.882363 123.486167 
L 291.296842 121.962682 
L 292.711321 121.845659 
L 298.369237 125.659887 
L 299.783716 127.886061 
L 301.198195 129.52041 
L 302.612675 129.451308 
L 306.856112 128.675218 
L 308.270591 129.598313 
L 311.099549 137.792137 
L 315.342986 139.45745 
L 316.757465 139.804424 
L 318.171944 138.589376 
L 319.586423 138.522761 
L 326.658818 142.174375 
L 328.073298 140.800652 
L 329.487777 140.77327 
L 330.902256 140.505918 
L 335.145693 141.322864 
L 336.560172 141.776684 
L 339.38913 145.773377 
L 342.218088 145.50258 
L 345.047046 145.142467 
L 346.461525 146.002543 
L 347.876004 148.494982 
L 349.290483 150.15676 
L 354.9484 152.099519 
L 356.362879 153.37659 
L 357.777358 151.595199 
L 359.191837 150.605765 
L 364.849753 150.32175 
L 367.678711 153.288626 
L 369.09319 152.529591 
L 373.336627 149.317724 
L 374.751106 149.680535 
L 376.165585 152.786711 
L 377.580064 155.390319 
L 383.237981 154.159904 
L 384.65246 155.176511 
L 386.066939 156.817372 
L 388.895897 156.871608 
L 394.553813 156.918758 
L 395.968292 157.112185 
L 397.382771 157.133787 
L 401.626208 156.465921 
L 403.040687 156.447622 
L 405.869646 158.16252 
L 411.527562 157.493824 
L 412.942041 158.8901 
L 414.35652 160.842776 
L 415.770999 160.566575 
L 421.428915 157.398209 
L 422.843394 159.261875 
L 424.257873 161.589625 
L 425.672352 162.161783 
L 429.915789 161.615371 
L 431.330269 161.599956 
L 433 162.571256 
L 433 162.571256 
" clip-path="url(#pf77b1559c9)" style="fill: none; stroke: #414487; stroke-width: 1.5; stroke-linecap: square"/>
   </g>
   <g id="line2d_18">
    <path d="M 63.565714 238.420397 
L 67.809151 235.975798 
L 69.223631 236.777603 
L 70.63811 238.194909 
L 72.052589 238.813706 
L 73.467068 235.964546 
L 74.881547 234.574469 
L 76.296026 238.583626 
L 77.710505 238.387755 
L 79.124984 238.381937 
L 80.539463 237.01308 
L 81.953942 236.045155 
L 83.368421 236.971549 
L 84.7829 238.580895 
L 86.197379 238.582856 
L 87.611858 238.352389 
L 89.026337 233.607551 
L 90.440816 235.724853 
L 91.855295 231.289387 
L 93.269774 217.573792 
L 94.684253 199.556536 
L 96.098733 195.316675 
L 97.513212 190.491675 
L 98.927691 177.084303 
L 100.34217 176.80834 
L 103.171128 201.800879 
L 104.585607 205.601873 
L 106.000086 202.447181 
L 107.414565 193.013735 
L 108.829044 177.084825 
L 110.243523 166.874874 
L 111.658002 161.622777 
L 113.072481 163.241423 
L 114.48696 163.059282 
L 115.901439 151.469628 
L 117.315918 159.496925 
L 118.730397 161.027938 
L 120.144876 156.77729 
L 121.559356 135.871267 
L 122.973835 121.053481 
L 124.388314 108.527706 
L 125.802793 99.28832 
L 127.217272 93.627969 
L 128.631751 86.430725 
L 130.04623 84.713582 
L 132.875188 92.814587 
L 134.289667 102.518763 
L 135.704146 105.348351 
L 137.118625 111.207744 
L 138.533104 113.025135 
L 139.947583 115.927753 
L 141.362062 117.595916 
L 142.776541 117.2123 
L 144.19102 114.207935 
L 145.605499 109.367813 
L 147.019979 107.883136 
L 148.434458 107.894386 
L 149.848937 109.774786 
L 151.263416 101.730484 
L 152.677895 94.485437 
L 155.506853 88.872978 
L 156.921332 86.177378 
L 158.335811 84.313833 
L 159.75029 81.189934 
L 161.164769 77.724637 
L 162.579248 74.598038 
L 163.993727 70.679045 
L 165.408206 72.053643 
L 166.822685 71.956427 
L 168.237164 69.971124 
L 169.651643 70.218935 
L 171.066122 69.224316 
L 172.480602 67.197287 
L 173.895081 66.861833 
L 175.30956 65.36929 
L 176.724039 67.199517 
L 178.138518 63.822712 
L 179.552997 65.033709 
L 180.967476 65.555246 
L 182.381955 67.662512 
L 183.796434 69.556501 
L 185.210913 70.0043 
L 186.625392 71.773294 
L 188.039871 72.729219 
L 189.45435 76.12293 
L 190.868829 76.31395 
L 192.283308 77.966435 
L 193.697787 78.274906 
L 197.941224 83.100203 
L 199.355704 84.954498 
L 200.770183 83.666429 
L 202.184662 86.076252 
L 203.599141 85.264886 
L 205.01362 87.210703 
L 206.428099 84.521146 
L 207.842578 89.15662 
L 209.257057 90.418949 
L 210.671536 88.801885 
L 212.086015 87.435159 
L 213.500494 87.941951 
L 217.743931 88.502133 
L 219.15841 88.093945 
L 223.401847 86.049215 
L 224.816327 86.080589 
L 226.230806 86.684663 
L 227.645285 87.906291 
L 229.059764 88.44698 
L 231.888722 87.802697 
L 233.303201 88.529186 
L 234.71768 88.758822 
L 237.546638 88.148947 
L 240.375596 87.717796 
L 241.790075 87.823218 
L 244.619033 90.864277 
L 247.447991 91.370814 
L 251.691429 93.366171 
L 253.105908 95.497364 
L 254.520387 95.55536 
L 255.934866 95.070528 
L 257.349345 94.860623 
L 260.178303 95.69996 
L 263.007261 99.190268 
L 264.42174 98.831805 
L 265.836219 98.26304 
L 267.250698 98.124261 
L 270.079656 98.503616 
L 272.908614 102.202591 
L 275.737573 106.388581 
L 277.152052 106.131855 
L 278.566531 105.656322 
L 279.98101 105.627753 
L 281.395489 106.658964 
L 282.809968 108.523612 
L 284.224447 111.171301 
L 285.638926 113.171456 
L 289.882363 113.0128 
L 291.296842 114.327148 
L 294.1258 114.739365 
L 295.540279 115.247087 
L 298.369237 116.803332 
L 301.198195 121.020448 
L 302.612675 122.054562 
L 304.027154 122.795034 
L 308.270591 124.509551 
L 311.099549 126.844377 
L 312.514028 128.46407 
L 313.928507 130.594313 
L 316.757465 131.478672 
L 318.171944 132.281005 
L 319.586423 133.419677 
L 321.000902 134.406384 
L 323.82986 135.446559 
L 328.073298 136.763029 
L 329.487777 138.5503 
L 330.902256 139.404531 
L 332.316735 137.055766 
L 333.731214 136.556692 
L 336.560172 137.714134 
L 337.974651 138.9174 
L 339.38913 140.275542 
L 342.218088 143.566387 
L 345.047046 143.488171 
L 346.461525 143.396308 
L 347.876004 145.411428 
L 349.290483 145.592632 
L 350.704962 146.196937 
L 352.119441 146.649205 
L 354.9484 146.99495 
L 356.362879 147.713106 
L 357.777358 148.644511 
L 359.191837 147.802231 
L 360.606316 146.220482 
L 362.020795 145.956046 
L 364.849753 147.509156 
L 366.264232 148.647093 
L 367.678711 149.568669 
L 369.09319 148.344202 
L 370.507669 148.221123 
L 373.336627 148.758049 
L 374.751106 149.307164 
L 376.165585 150.471605 
L 378.994544 151.265922 
L 383.237981 152.461269 
L 384.65246 153.371312 
L 386.066939 154.647279 
L 387.481418 154.686258 
L 388.895897 154.09783 
L 394.553813 155.205925 
L 395.968292 156.235675 
L 397.382771 154.754536 
L 398.79725 152.959252 
L 400.211729 152.997121 
L 401.626208 153.579122 
L 403.040687 154.469568 
L 404.455166 156.261276 
L 405.869646 156.810951 
L 408.698604 156.235617 
L 411.527562 155.262179 
L 412.942041 155.147232 
L 414.35652 155.426972 
L 415.770999 157.159045 
L 417.185478 159.476482 
L 418.599957 160.888423 
L 422.843394 161.140026 
L 424.257873 162.038744 
L 425.672352 162.317177 
L 427.086831 160.861135 
L 428.50131 160.704791 
L 431.330269 161.729311 
L 433 163.039267 
L 433 163.039267 
" clip-path="url(#pf77b1559c9)" style="fill: none; stroke: #2a788e; stroke-width: 1.5; stroke-linecap: square"/>
   </g>
   <g id="line2d_19">
    <path d="M 63.565714 234.585706 
L 64.980193 234.659811 
L 66.394672 235.007345 
L 67.809151 238.21864 
L 69.223631 238.131713 
L 70.63811 236.68166 
L 73.467068 234.77922 
L 74.881547 236.698676 
L 76.296026 238.085352 
L 77.710505 238.518083 
L 79.124984 238.332221 
L 80.539463 234.926616 
L 81.953942 239.35732 
L 84.7829 240.066421 
L 86.197379 236.082658 
L 87.611858 236.360129 
L 89.026337 236.112997 
L 90.440816 237.31094 
L 91.855295 235.290107 
L 93.269774 228.575085 
L 94.684253 220.616123 
L 96.098733 215.418379 
L 97.513212 214.854624 
L 98.927691 207.509572 
L 100.34217 203.501618 
L 101.756649 210.847761 
L 103.171128 216.676789 
L 104.585607 219.38791 
L 106.000086 217.228576 
L 108.829044 206.052919 
L 110.243523 198.753264 
L 111.658002 197.459272 
L 113.072481 193.258435 
L 114.48696 185.479551 
L 115.901439 164.988535 
L 117.315918 159.070185 
L 118.730397 158.303803 
L 120.144876 152.308483 
L 122.973835 115.356748 
L 124.388314 104.902379 
L 127.217272 86.562827 
L 130.04623 79.673303 
L 131.460709 86.177519 
L 132.875188 89.987445 
L 134.289667 94.414471 
L 135.704146 96.315448 
L 137.118625 95.184236 
L 138.533104 99.944904 
L 139.947583 102.375662 
L 141.362062 103.091178 
L 142.776541 98.566671 
L 144.19102 97.260562 
L 145.605499 89.277889 
L 147.019979 86.090231 
L 148.434458 87.924578 
L 149.848937 86.359184 
L 151.263416 85.690337 
L 152.677895 81.30569 
L 155.506853 77.302868 
L 156.921332 74.556048 
L 158.335811 71.501618 
L 159.75029 67.28781 
L 161.164769 61.890572 
L 162.579248 58.60082 
L 163.993727 55.606079 
L 165.408206 55.073701 
L 166.822685 52.361076 
L 169.651643 48.055013 
L 171.066122 49.293331 
L 172.480602 48.434758 
L 173.895081 46.414577 
L 175.30956 45.424954 
L 176.724039 46.594385 
L 178.138518 44.443636 
L 179.552997 46.034363 
L 180.967476 47.083925 
L 182.381955 48.957489 
L 183.796434 51.951642 
L 185.210913 49.964 
L 186.625392 51.347472 
L 188.039871 48.51183 
L 189.45435 51.303678 
L 190.868829 55.323918 
L 192.283308 57.815267 
L 193.697787 58.258148 
L 195.112266 58.24285 
L 196.526745 59.232998 
L 197.941224 60.395301 
L 199.355704 61.816209 
L 200.770183 64.438006 
L 202.184662 59.27738 
L 203.599141 64.903927 
L 205.01362 64.772851 
L 206.428099 66.074096 
L 207.842578 66.877104 
L 209.257057 65.676034 
L 210.671536 65.877109 
L 212.086015 65.701571 
L 213.500494 67.235186 
L 214.914973 63.894484 
L 216.329452 63.814925 
L 217.743931 63.860379 
L 220.572889 63.076884 
L 221.987368 63.359246 
L 224.816327 64.306137 
L 226.230806 63.755248 
L 229.059764 62.061679 
L 230.474243 61.688254 
L 233.303201 62.076821 
L 234.71768 61.484562 
L 237.546638 59.604258 
L 238.961117 58.865366 
L 240.375596 60.453067 
L 241.790075 62.508416 
L 243.204554 65.625536 
L 244.619033 67.543035 
L 247.447991 67.565127 
L 248.86247 67.879501 
L 250.27695 68.689747 
L 251.691429 69.761083 
L 258.763824 72.84727 
L 260.178303 74.989827 
L 261.592782 75.377858 
L 263.007261 75.584857 
L 267.250698 76.887921 
L 270.079656 80.015436 
L 271.494135 80.255773 
L 275.737573 80.160251 
L 277.152052 80.475522 
L 279.98101 83.472877 
L 281.395489 86.247578 
L 285.638926 87.716499 
L 287.053405 88.902677 
L 288.467884 90.735192 
L 289.882363 93.405788 
L 291.296842 95.448505 
L 294.1258 97.153054 
L 295.540279 97.956003 
L 298.369237 102.521177 
L 299.783716 103.368825 
L 304.027154 106.592638 
L 305.441633 107.795009 
L 306.856112 109.428714 
L 308.270591 109.545054 
L 309.68507 109.942364 
L 313.928507 113.637207 
L 315.342986 115.204893 
L 316.757465 117.221419 
L 318.171944 119.026141 
L 319.586423 120.021235 
L 321.000902 120.323411 
L 323.82986 120.365432 
L 325.244339 121.593234 
L 328.073298 124.93053 
L 330.902256 127.472876 
L 336.560172 132.75863 
L 337.974651 130.663984 
L 342.218088 133.766258 
L 343.632567 135.048066 
L 345.047046 136.784324 
L 346.461525 135.943639 
L 347.876004 133.773894 
L 349.290483 133.790569 
L 352.119441 136.232519 
L 354.9484 139.136794 
L 356.362879 139.243408 
L 357.777358 139.078775 
L 362.020795 140.390509 
L 363.435274 141.297281 
L 364.849753 142.830838 
L 366.264232 144.585929 
L 367.678711 145.815107 
L 371.922148 146.63314 
L 373.336627 147.416795 
L 374.751106 147.648053 
L 376.165585 146.224197 
L 377.580064 145.804361 
L 380.409023 146.852158 
L 381.823502 147.88201 
L 383.237981 149.266201 
L 384.65246 148.158689 
L 386.066939 146.540599 
L 387.481418 146.623398 
L 390.310376 147.465424 
L 391.724855 148.473892 
L 393.139334 149.989448 
L 394.553813 151.765499 
L 397.382771 151.379245 
L 398.79725 151.130987 
L 400.211729 150.997816 
L 401.626208 151.510265 
L 403.040687 152.785077 
L 404.455166 153.642952 
L 405.869646 154.075287 
L 408.698604 153.89013 
L 410.113083 154.256037 
L 411.527562 155.174725 
L 412.942041 154.73059 
L 414.35652 153.514135 
L 415.770999 153.71705 
L 418.599957 155.061045 
L 420.014436 156.115631 
L 421.428915 156.77852 
L 422.843394 156.036999 
L 424.257873 155.114723 
L 428.50131 155.07245 
L 429.915789 155.334693 
L 431.330269 157.418936 
L 432.744748 159.214203 
L 433 159.352317 
L 433 159.352317 
" clip-path="url(#pf77b1559c9)" style="fill: none; stroke: #22a884; stroke-width: 1.5; stroke-linecap: square"/>
   </g>
   <g id="line2d_20">
    <path d="M 63.565714 236.045631 
L 64.980193 238.329746 
L 67.809151 238.919812 
L 69.223631 237.140894 
L 70.63811 234.937707 
L 72.052589 237.147807 
L 73.467068 234.748424 
L 74.881547 236.036748 
L 76.296026 237.877976 
L 77.710505 237.11247 
L 79.124984 236.042853 
L 80.539463 237.304331 
L 81.953942 237.153059 
L 83.368421 237.554116 
L 84.7829 234.713846 
L 86.197379 236.239112 
L 87.611858 237.209047 
L 89.026337 237.049033 
L 90.440816 238.77217 
L 91.855295 235.595711 
L 93.269774 229.083818 
L 94.684253 231.468693 
L 96.098733 229.66271 
L 97.513212 227.533621 
L 98.927691 223.355577 
L 100.34217 221.546475 
L 101.756649 224.514543 
L 103.171128 225.295431 
L 104.585607 228.674967 
L 106.000086 225.603317 
L 107.414565 224.908143 
L 108.829044 223.94342 
L 110.243523 222.264412 
L 111.658002 218.44092 
L 113.072481 213.282425 
L 114.48696 206.105763 
L 115.901439 182.519058 
L 117.315918 176.402916 
L 118.730397 172.391796 
L 120.144876 166.498855 
L 122.973835 138.832147 
L 124.388314 128.898068 
L 125.802793 123.521956 
L 127.217272 114.080303 
L 128.631751 110.894573 
L 130.04623 109.972889 
L 131.460709 112.755112 
L 134.289667 120.23342 
L 135.704146 122.026092 
L 137.118625 124.362463 
L 138.533104 123.546895 
L 141.362062 123.258697 
L 142.776541 121.469545 
L 144.19102 113.11867 
L 145.605499 106.990419 
L 147.019979 104.616012 
L 148.434458 98.673482 
L 149.848937 99.076643 
L 151.263416 102.234676 
L 152.677895 97.520747 
L 154.092374 96.343692 
L 155.506853 90.992733 
L 156.921332 90.751407 
L 158.335811 87.223943 
L 159.75029 84.344585 
L 161.164769 81.983743 
L 162.579248 76.008777 
L 163.993727 75.529445 
L 165.408206 72.880648 
L 166.822685 71.386299 
L 168.237164 67.483094 
L 169.651643 68.458821 
L 171.066122 66.114452 
L 172.480602 66.309079 
L 173.895081 66.795399 
L 175.30956 67.16313 
L 176.724039 66.722326 
L 178.138518 64.673034 
L 179.552997 64.139113 
L 180.967476 64.077101 
L 182.381955 65.986901 
L 183.796434 66.564298 
L 185.210913 66.360546 
L 186.625392 65.211386 
L 189.45435 71.233128 
L 190.868829 71.406155 
L 192.283308 71.224443 
L 193.697787 73.377418 
L 195.112266 76.85736 
L 196.526745 76.440162 
L 197.941224 77.794928 
L 199.355704 75.060282 
L 200.770183 79.338518 
L 202.184662 79.594338 
L 203.599141 82.704732 
L 205.01362 79.664692 
L 206.428099 80.949987 
L 209.257057 81.170069 
L 210.671536 82.3421 
L 212.086015 80.146475 
L 213.500494 81.573652 
L 214.914973 77.252109 
L 216.329452 82.685683 
L 217.743931 85.865755 
L 221.987368 87.269081 
L 224.816327 88.176092 
L 226.230806 87.204362 
L 227.645285 86.539232 
L 231.888722 91.605653 
L 234.71768 94.917237 
L 236.132159 92.904814 
L 237.546638 89.248422 
L 238.961117 86.906885 
L 244.619033 81.263121 
L 246.033512 81.758212 
L 247.447991 83.056792 
L 253.105908 83.009724 
L 254.520387 83.636555 
L 257.349345 85.649675 
L 263.007261 88.189572 
L 264.42174 89.898977 
L 265.836219 92.973502 
L 267.250698 94.373166 
L 272.908614 94.0191 
L 275.737573 97.488707 
L 277.152052 98.395341 
L 281.395489 100.366625 
L 282.809968 101.360488 
L 285.638926 103.954592 
L 294.1258 110.574186 
L 295.540279 111.333263 
L 301.198195 112.067526 
L 302.612675 113.165811 
L 304.027154 117.399212 
L 309.68507 121.416941 
L 311.099549 122.838245 
L 313.928507 126.770768 
L 322.415381 133.048157 
L 323.82986 133.84374 
L 329.487777 135.766661 
L 330.902256 137.328283 
L 332.316735 139.20137 
L 333.731214 140.12517 
L 337.974651 141.078642 
L 339.38913 141.530117 
L 340.803609 142.660831 
L 342.218088 143.103199 
L 347.876004 144.181679 
L 349.290483 145.093473 
L 350.704962 147.420877 
L 352.119441 149.330202 
L 357.777358 149.76141 
L 359.191837 150.416393 
L 360.606316 151.271662 
L 364.849753 152.947482 
L 367.678711 154.035751 
L 369.09319 153.292398 
L 370.507669 153.410467 
L 373.336627 154.059962 
L 376.165585 154.639789 
L 377.580064 155.073632 
L 380.409023 157.604664 
L 391.724855 157.937156 
L 394.553813 158.040602 
L 395.968292 158.340993 
L 397.382771 158.140855 
L 398.79725 158.402866 
L 401.626208 159.398219 
L 404.455166 160.290804 
L 405.869646 160.512966 
L 408.698604 156.564688 
L 414.35652 159.860544 
L 415.770999 160.922701 
L 417.185478 161.337694 
L 418.599957 160.91026 
L 422.843394 160.137581 
L 424.257873 160.2521 
L 425.672352 161.666937 
L 427.086831 162.845669 
L 429.915789 163.715841 
L 433 164.512435 
L 433 164.512435 
" clip-path="url(#pf77b1559c9)" style="fill: none; stroke: #7ad151; stroke-width: 1.5; stroke-linecap: square"/>
   </g>
   <g id="patch_3">
    <path d="M 54 252 
L 54 34.56 
" style="fill: none; stroke: #000000; stroke-width: 0.8; stroke-linejoin: miter; stroke-linecap: square"/>
   </g>
   <g id="patch_4">
    <path d="M 388.8 252 
L 388.8 34.56 
" style="fill: none; stroke: #000000; stroke-width: 0.8; stroke-linejoin: miter; stroke-linecap: square"/>
   </g>
   <g id="patch_5">
    <path d="M 54 252 
L 388.8 252 
" style="fill: none; stroke: #000000; stroke-width: 0.8; stroke-linejoin: miter; stroke-linecap: square"/>
   </g>
   <g id="patch_6">
    <path d="M 54 34.56 
L 388.8 34.56 
" style="fill: none; stroke: #000000; stroke-width: 0.8; stroke-linejoin: miter; stroke-linecap: square"/>
   </g>
   <g id="text_18">
    <!-- Y7BO Normalized NEXAFS -->
    <g transform="translate(143.693438 28.56)scale(0.12 -0.12)">
     <defs>
      <path id="DejaVuSans-59" d="M -13 4666 
L 666 4666 
L 1959 2747 
L 3244 4666 
L 3922 4666 
L 2272 2222 
L 2272 0 
L 1638 0 
L 1638 2222 
L -13 4666 
z
" transform="scale(0.015625)"/>
      <path id="DejaVuSans-37" d="M 525 4666 
L 3525 4666 
L 3525 4397 
L 1831 0 
L 1172 0 
L 2766 4134 
L 525 4134 
L 525 4666 
z
" transform="scale(0.015625)"/>
      <path id="DejaVuSans-42" d="M 1259 2228 
L 1259 519 
L 2272 519 
Q 2781 519 3026 730 
Q 3272 941 3272 1375 
Q 3272 1813 3026 2020 
Q 2781 2228 2272 2228 
L 1259 2228 
z
M 1259 4147 
L 1259 2741 
L 2194 2741 
Q 2656 2741 2882 2914 
Q 3109 3088 3109 3444 
Q 3109 3797 2882 3972 
Q 2656 4147 2194 4147 
L 1259 4147 
z
M 628 4666 
L 2241 4666 
Q 2963 4666 3353 4366 
Q 3744 4066 3744 3513 
Q 3744 3084 3544 2831 
Q 3344 2578 2956 2516 
Q 3422 2416 3680 2098 
Q 3938 1781 3938 1306 
Q 3938 681 3513 340 
Q 3088 0 2303 0 
L 628 0 
L 628 4666 
z
" transform="scale(0.015625)"/>
      <path id="DejaVuSans-4f" d="M 2522 4238 
Q 1834 4238 1429 3725 
Q 1025 3213 1025 2328 
Q 1025 1447 1429 934 
Q 1834 422 2522 422 
Q 3209 422 3611 934 
Q 4013 1447 4013 2328 
Q 4013 3213 3611 3725 
Q 3209 4238 2522 4238 
z
M 2522 4750 
Q 3503 4750 4090 4092 
Q 4678 3434 4678 2328 
Q 4678 1225 4090 567 
Q 3503 -91 2522 -91 
Q 1538 -91 948 565 
Q 359 1222 359 2328 
Q 359 3434 948 4092 
Q 1538 4750 2522 4750 
z
" transform="scale(0.015625)"/>
      <path id="DejaVuSans-4e" d="M 628 4666 
L 1478 4666 
L 3547 763 
L 3547 4666 
L 4159 4666 
L 4159 0 
L 3309 0 
L 1241 3903 
L 1241 0 
L 628 0 
L 628 4666 
z
" transform="scale(0.015625)"/>
      <path id="DejaVuSans-6d" d="M 3328 2828 
Q 3544 3216 3844 3400 
Q 4144 3584 4550 3584 
Q 5097 3584 5394 3201 
Q 5691 2819 5691 2113 
L 5691 0 
L 5113 0 
L 5113 2094 
Q 5113 2597 4934 2840 
Q 4756 3084 4391 3084 
Q 3944 3084 3684 2787 
Q 3425 2491 3425 1978 
L 3425 0 
L 2847 0 
L 2847 2094 
Q 2847 2600 2669 2842 
Q 2491 3084 2119 3084 
Q 1678 3084 1418 2786 
Q 1159 2488 1159 1978 
L 1159 0 
L 581 0 
L 581 3500 
L 1159 3500 
L 1159 2956 
Q 1356 3278 1631 3431 
Q 1906 3584 2284 3584 
Q 2666 3584 2933 3390 
Q 3200 3197 3328 2828 
z
" transform="scale(0.015625)"/>
      <path id="DejaVuSans-7a" d="M 353 3500 
L 3084 3500 
L 3084 2975 
L 922 459 
L 3084 459 
L 3084 0 
L 275 0 
L 275 525 
L 2438 3041 
L 353 3041 
L 353 3500 
z
" transform="scale(0.015625)"/>
      <path id="DejaVuSans-45" d="M 628 4666 
L 3578 4666 
L 3578 4134 
L 1259 4134 
L 1259 2753 
L 3481 2753 
L 3481 2222 
L 1259 2222 
L 1259 531 
L 3634 531 
L 3634 0 
L 628 0 
L 628 4666 
z
" transform="scale(0.015625)"/>
      <path id="DejaVuSans-58" d="M 403 4666 
L 1081 4666 
L 2241 2931 
L 3406 4666 
L 4084 4666 
L 2584 2425 
L 4184 0 
L 3506 0 
L 2194 1984 
L 872 0 
L 191 0 
L 1856 2491 
L 403 4666 
z
" transform="scale(0.015625)"/>
      <path id="DejaVuSans-41" d="M 2188 4044 
L 1331 1722 
L 3047 1722 
L 2188 4044 
z
M 1831 4666 
L 2547 4666 
L 4325 0 
L 3669 0 
L 3244 1197 
L 1141 1197 
L 716 0 
L 50 0 
L 1831 4666 
z
" transform="scale(0.015625)"/>
      <path id="DejaVuSans-46" d="M 628 4666 
L 3309 4666 
L 3309 4134 
L 1259 4134 
L 1259 2759 
L 3109 2759 
L 3109 2228 
L 1259 2228 
L 1259 0 
L 628 0 
L 628 4666 
z
" transform="scale(0.015625)"/>
      <path id="DejaVuSans-53" d="M 3425 4513 
L 3425 3897 
Q 3066 4069 2747 4153 
Q 2428 4238 2131 4238 
Q 1616 4238 1336 4038 
Q 1056 3838 1056 3469 
Q 1056 3159 1242 3001 
Q 1428 2844 1947 2747 
L 2328 2669 
Q 3034 2534 3370 2195 
Q 3706 1856 3706 1288 
Q 3706 609 3251 259 
Q 2797 -91 1919 -91 
Q 1588 -91 1214 -16 
Q 841 59 441 206 
L 441 856 
Q 825 641 1194 531 
Q 1563 422 1919 422 
Q 2459 422 2753 634 
Q 3047 847 3047 1241 
Q 3047 1584 2836 1778 
Q 2625 1972 2144 2069 
L 1759 2144 
Q 1053 2284 737 2584 
Q 422 2884 422 3419 
Q 422 4038 858 4394 
Q 1294 4750 2059 4750 
Q 2388 4750 2728 4690 
Q 3069 4631 3425 4513 
z
" transform="scale(0.015625)"/>
     </defs>
     <use xlink:href="#DejaVuSans-59"/>
     <use xlink:href="#DejaVuSans-37" x="61.083984"/>
     <use xlink:href="#DejaVuSans-42" x="124.707031"/>
     <use xlink:href="#DejaVuSans-4f" x="191.560547"/>
     <use xlink:href="#DejaVuSans-20" x="270.271484"/>
     <use xlink:href="#DejaVuSans-4e" x="302.058594"/>
     <use xlink:href="#DejaVuSans-6f" x="376.863281"/>
     <use xlink:href="#DejaVuSans-72" x="438.044922"/>
     <use xlink:href="#DejaVuSans-6d" x="477.408203"/>
     <use xlink:href="#DejaVuSans-61" x="574.820312"/>
     <use xlink:href="#DejaVuSans-6c" x="636.099609"/>
     <use xlink:href="#DejaVuSans-69" x="663.882812"/>
     <use xlink:href="#DejaVuSans-7a" x="691.666016"/>
     <use xlink:href="#DejaVuSans-65" x="744.15625"/>
     <use xlink:href="#DejaVuSans-64" x="805.679688"/>
     <use xlink:href="#DejaVuSans-20" x="869.15625"/>
     <use xlink:href="#DejaVuSans-4e" x="900.943359"/>
     <use xlink:href="#DejaVuSans-45" x="975.748047"/>
     <use xlink:href="#DejaVuSans-58" x="1038.931641"/>
     <use xlink:href="#DejaVuSans-41" x="1107.4375"/>
     <use xlink:href="#DejaVuSans-46" x="1175.845703"/>
     <use xlink:href="#DejaVuSans-53" x="1231.615234"/>
    </g>
   </g>
   <g id="legend_1">
    <g id="patch_7">
     <path d="M 332.075 115.950625 
L 381.8 115.950625 
Q 383.8 115.950625 383.8 113.950625 
L 383.8 41.56 
Q 383.8 39.56 381.8 39.56 
L 332.075 39.56 
Q 330.075 39.56 330.075 41.56 
L 330.075 113.950625 
Q 330.075 115.950625 332.075 115.950625 
z
" style="fill: #ffffff; opacity: 0.8; stroke: #cccccc; stroke-linejoin: miter"/>
    </g>
    <g id="line2d_21">
     <path d="M 334.075 47.658437 
L 344.075 47.658437 
L 354.075 47.658437 
" style="fill: none; stroke: #440154; stroke-width: 1.5; stroke-linecap: square"/>
    </g>
    <g id="text_19">
     <!-- 30 -->
     <g transform="translate(362.075 51.158437)scale(0.1 -0.1)">
      <defs>
       <path id="DejaVuSans-b0" d="M 1600 4347 
Q 1350 4347 1178 4173 
Q 1006 4000 1006 3750 
Q 1006 3503 1178 3333 
Q 1350 3163 1600 3163 
Q 1850 3163 2022 3333 
Q 2194 3503 2194 3750 
Q 2194 3997 2020 4172 
Q 1847 4347 1600 4347 
z
M 1600 4750 
Q 1800 4750 1984 4673 
Q 2169 4597 2303 4453 
Q 2447 4313 2519 4134 
Q 2591 3956 2591 3750 
Q 2591 3338 2302 3052 
Q 2013 2766 1594 2766 
Q 1172 2766 890 3047 
Q 609 3328 609 3750 
Q 609 4169 896 4459 
Q 1184 4750 1600 4750 
z
" transform="scale(0.015625)"/>
      </defs>
      <use xlink:href="#DejaVuSans-33"/>
      <use xlink:href="#DejaVuSans-30" x="63.623047"/>
      <use xlink:href="#DejaVuSans-b0" x="127.246094"/>
     </g>
    </g>
    <g id="line2d_22">
     <path d="M 334.075 62.336562 
L 344.075 62.336562 
L 354.075 62.336562 
" style="fill: none; stroke: #414487; stroke-width: 1.5; stroke-linecap: square"/>
    </g>
    <g id="text_20">
     <!-- 40 -->
     <g transform="translate(362.075 65.836562)scale(0.1 -0.1)">
      <defs>
       <path id="DejaVuSans-34" d="M 2419 4116 
L 825 1625 
L 2419 1625 
L 2419 4116 
z
M 2253 4666 
L 3047 4666 
L 3047 1625 
L 3713 1625 
L 3713 1100 
L 3047 1100 
L 3047 0 
L 2419 0 
L 2419 1100 
L 313 1100 
L 313 1709 
L 2253 4666 
z
" transform="scale(0.015625)"/>
      </defs>
      <use xlink:href="#DejaVuSans-34"/>
      <use xlink:href="#DejaVuSans-30" x="63.623047"/>
      <use xlink:href="#DejaVuSans-b0" x="127.246094"/>
     </g>
    </g>
    <g id="line2d_23">
     <path d="M 334.075 77.014687 
L 344.075 77.014687 
L 354.075 77.014687 
" style="fill: none; stroke: #2a788e; stroke-width: 1.5; stroke-linecap: square"/>
    </g>
    <g id="text_21">
     <!-- 55 -->
     <g transform="translate(362.075 80.514687)scale(0.1 -0.1)">
      <use xlink:href="#DejaVuSans-35"/>
      <use xlink:href="#DejaVuSans-35" x="63.623047"/>
      <use xlink:href="#DejaVuSans-b0" x="127.246094"/>
     </g>
    </g>
    <g id="line2d_24">
     <path d="M 334.075 91.692813 
L 344.075 91.692813 
L 354.075 91.692813 
" style="fill: none; stroke: #22a884; stroke-width: 1.5; stroke-linecap: square"/>
    </g>
    <g id="text_22">
     <!-- 70 -->
     <g transform="translate(362.075 95.192813)scale(0.1 -0.1)">
      <use xlink:href="#DejaVuSans-37"/>
      <use xlink:href="#DejaVuSans-30" x="63.623047"/>
      <use xlink:href="#DejaVuSans-b0" x="127.246094"/>
     </g>
    </g>
    <g id="line2d_25">
     <path d="M 334.075 106.370937 
L 344.075 106.370937 
L 354.075 106.370937 
" style="fill: none; stroke: #7ad151; stroke-width: 1.5; stroke-linecap: square"/>
    </g>
    <g id="text_23">
     <!-- 90 -->
     <g transform="translate(362.075 109.870937)scale(0.1 -0.1)">
      <use xlink:href="#DejaVuSans-39"/>
      <use xlink:href="#DejaVuSans-30" x="63.623047"/>
      <use xlink:href="#DejaVuSans-b0" x="127.246094"/>
     </g>
    </g>
   </g>
  </g>
 </g>
 <defs>
  <clipPath id="pf77b1559c9">
   <rect x="54" y="34.56" width="334.8" height="217.44"/>
  </clipPath>
 </defs>
</svg>
