<?xml version="1.0" encoding="utf-8" standalone="no"?>
<!DOCTYPE svg PUBLIC "-//W3C//DTD SVG 1.1//EN"
  "http://www.w3.org/Graphics/SVG/1.1/DTD/svg11.dtd">
<svg xmlns:xlink="http://www.w3.org/1999/xlink" width="576pt" height="576pt" viewBox="0 0 576 576" xmlns="http://www.w3.org/2000/svg" version="1.1">
 <metadata>
  <rdf:RDF xmlns:dc="http://purl.org/dc/elements/1.1/" xmlns:cc="http://creativecommons.org/ns#" xmlns:rdf="http://www.w3.org/1999/02/22-rdf-syntax-ns#">
   <cc:Work>
    <dc:type rdf:resource="http://purl.org/dc/dcmitype/StillImage"/>
    <dc:date>2022-12-05T11:25:45.005760</dc:date>
    <dc:format>image/svg+xml</dc:format>
    <dc:creator>
     <cc:Agent>
      <dc:title>Matplotlib v3.5.1, https://matplotlib.org/</dc:title>
     </cc:Agent>
    </dc:creator>
   </cc:Work>
  </rdf:RDF>
 </metadata>
 <defs>
  <style type="text/css">*{stroke-linejoin: round; stroke-linecap: butt}</style>
 </defs>
 <g id="figure_1">
  <g id="patch_1">
   <path d="M 0 576 
L 576 576 
L 576 0 
L 0 0 
L 0 576 
z
" style="fill: none"/>
  </g>
  <g id="axes_1">
   <g id="patch_2">
    <path d="M 72 266.792727 
L 518.4 266.792727 
L 518.4 69.12 
L 72 69.12 
z
" style="fill: #ffffff"/>
   </g>
   <g id="matplotlib.axis_1">
    <g id="xtick_1">
     <g id="line2d_1">
      <defs>
       <path id="mce4b3519f8" d="M 0 0 
L 0 3.5 
" style="stroke: #000000; stroke-width: 0.8"/>
      </defs>
      <g>
       <use xlink:href="#mce4b3519f8" x="72" y="266.792727" style="stroke: #000000; stroke-width: 0.8"/>
      </g>
     </g>
    </g>
    <g id="xtick_2">
     <g id="line2d_2">
      <g>
       <use xlink:href="#mce4b3519f8" x="135.771429" y="266.792727" style="stroke: #000000; stroke-width: 0.8"/>
      </g>
     </g>
    </g>
    <g id="xtick_3">
     <g id="line2d_3">
      <g>
       <use xlink:href="#mce4b3519f8" x="199.542857" y="266.792727" style="stroke: #000000; stroke-width: 0.8"/>
      </g>
     </g>
    </g>
    <g id="xtick_4">
     <g id="line2d_4">
      <g>
       <use xlink:href="#mce4b3519f8" x="263.314286" y="266.792727" style="stroke: #000000; stroke-width: 0.8"/>
      </g>
     </g>
    </g>
    <g id="xtick_5">
     <g id="line2d_5">
      <g>
       <use xlink:href="#mce4b3519f8" x="327.085714" y="266.792727" style="stroke: #000000; stroke-width: 0.8"/>
      </g>
     </g>
    </g>
    <g id="xtick_6">
     <g id="line2d_6">
      <g>
       <use xlink:href="#mce4b3519f8" x="390.857143" y="266.792727" style="stroke: #000000; stroke-width: 0.8"/>
      </g>
     </g>
    </g>
    <g id="xtick_7">
     <g id="line2d_7">
      <g>
       <use xlink:href="#mce4b3519f8" x="454.628571" y="266.792727" style="stroke: #000000; stroke-width: 0.8"/>
      </g>
     </g>
    </g>
    <g id="xtick_8">
     <g id="line2d_8">
      <g>
       <use xlink:href="#mce4b3519f8" x="518.4" y="266.792727" style="stroke: #000000; stroke-width: 0.8"/>
      </g>
     </g>
    </g>
   </g>
   <g id="matplotlib.axis_2">
    <g id="ytick_1">
     <g id="line2d_9">
      <defs>
       <path id="mea28f7fa8b" d="M 0 0 
L -3.5 0 
" style="stroke: #000000; stroke-width: 0.8"/>
      </defs>
      <g>
       <use xlink:href="#mea28f7fa8b" x="72" y="244.539868" style="stroke: #000000; stroke-width: 0.8"/>
      </g>
     </g>
     <g id="text_1">
      <!-- −0.0005 -->
      <g transform="translate(21.629687 248.339087)scale(0.1 -0.1)">
       <defs>
        <path id="DejaVuSans-2212" d="M 678 2272 
L 4684 2272 
L 4684 1741 
L 678 1741 
L 678 2272 
z
" transform="scale(0.015625)"/>
        <path id="DejaVuSans-30" d="M 2034 4250 
Q 1547 4250 1301 3770 
Q 1056 3291 1056 2328 
Q 1056 1369 1301 889 
Q 1547 409 2034 409 
Q 2525 409 2770 889 
Q 3016 1369 3016 2328 
Q 3016 3291 2770 3770 
Q 2525 4250 2034 4250 
z
M 2034 4750 
Q 2819 4750 3233 4129 
Q 3647 3509 3647 2328 
Q 3647 1150 3233 529 
Q 2819 -91 2034 -91 
Q 1250 -91 836 529 
Q 422 1150 422 2328 
Q 422 3509 836 4129 
Q 1250 4750 2034 4750 
z
" transform="scale(0.015625)"/>
        <path id="DejaVuSans-2e" d="M 684 794 
L 1344 794 
L 1344 0 
L 684 0 
L 684 794 
z
" transform="scale(0.015625)"/>
        <path id="DejaVuSans-35" d="M 691 4666 
L 3169 4666 
L 3169 4134 
L 1269 4134 
L 1269 2991 
Q 1406 3038 1543 3061 
Q 1681 3084 1819 3084 
Q 2600 3084 3056 2656 
Q 3513 2228 3513 1497 
Q 3513 744 3044 326 
Q 2575 -91 1722 -91 
Q 1428 -91 1123 -41 
Q 819 9 494 109 
L 494 744 
Q 775 591 1075 516 
Q 1375 441 1709 441 
Q 2250 441 2565 725 
Q 2881 1009 2881 1497 
Q 2881 1984 2565 2268 
Q 2250 2553 1709 2553 
Q 1456 2553 1204 2497 
Q 953 2441 691 2322 
L 691 4666 
z
" transform="scale(0.015625)"/>
       </defs>
       <use xlink:href="#DejaVuSans-2212"/>
       <use xlink:href="#DejaVuSans-30" x="83.789062"/>
       <use xlink:href="#DejaVuSans-2e" x="147.412109"/>
       <use xlink:href="#DejaVuSans-30" x="179.199219"/>
       <use xlink:href="#DejaVuSans-30" x="242.822266"/>
       <use xlink:href="#DejaVuSans-30" x="306.445312"/>
       <use xlink:href="#DejaVuSans-35" x="370.068359"/>
      </g>
     </g>
    </g>
    <g id="ytick_2">
     <g id="line2d_10">
      <g>
       <use xlink:href="#mea28f7fa8b" x="72" y="212.875339" style="stroke: #000000; stroke-width: 0.8"/>
      </g>
     </g>
     <g id="text_2">
      <!-- 0.0000 -->
      <g transform="translate(30.009375 216.674558)scale(0.1 -0.1)">
       <use xlink:href="#DejaVuSans-30"/>
       <use xlink:href="#DejaVuSans-2e" x="63.623047"/>
       <use xlink:href="#DejaVuSans-30" x="95.410156"/>
       <use xlink:href="#DejaVuSans-30" x="159.033203"/>
       <use xlink:href="#DejaVuSans-30" x="222.65625"/>
       <use xlink:href="#DejaVuSans-30" x="286.279297"/>
      </g>
     </g>
    </g>
    <g id="ytick_3">
     <g id="line2d_11">
      <g>
       <use xlink:href="#mea28f7fa8b" x="72" y="181.210811" style="stroke: #000000; stroke-width: 0.8"/>
      </g>
     </g>
     <g id="text_3">
      <!-- 0.0005 -->
      <g transform="translate(30.009375 185.010029)scale(0.1 -0.1)">
       <use xlink:href="#DejaVuSans-30"/>
       <use xlink:href="#DejaVuSans-2e" x="63.623047"/>
       <use xlink:href="#DejaVuSans-30" x="95.410156"/>
       <use xlink:href="#DejaVuSans-30" x="159.033203"/>
       <use xlink:href="#DejaVuSans-30" x="222.65625"/>
       <use xlink:href="#DejaVuSans-35" x="286.279297"/>
      </g>
     </g>
    </g>
    <g id="ytick_4">
     <g id="line2d_12">
      <g>
       <use xlink:href="#mea28f7fa8b" x="72" y="149.546282" style="stroke: #000000; stroke-width: 0.8"/>
      </g>
     </g>
     <g id="text_4">
      <!-- 0.0010 -->
      <g transform="translate(30.009375 153.345501)scale(0.1 -0.1)">
       <defs>
        <path id="DejaVuSans-31" d="M 794 531 
L 1825 531 
L 1825 4091 
L 703 3866 
L 703 4441 
L 1819 4666 
L 2450 4666 
L 2450 531 
L 3481 531 
L 3481 0 
L 794 0 
L 794 531 
z
" transform="scale(0.015625)"/>
       </defs>
       <use xlink:href="#DejaVuSans-30"/>
       <use xlink:href="#DejaVuSans-2e" x="63.623047"/>
       <use xlink:href="#DejaVuSans-30" x="95.410156"/>
       <use xlink:href="#DejaVuSans-30" x="159.033203"/>
       <use xlink:href="#DejaVuSans-31" x="222.65625"/>
       <use xlink:href="#DejaVuSans-30" x="286.279297"/>
      </g>
     </g>
    </g>
    <g id="ytick_5">
     <g id="line2d_13">
      <g>
       <use xlink:href="#mea28f7fa8b" x="72" y="117.881753" style="stroke: #000000; stroke-width: 0.8"/>
      </g>
     </g>
     <g id="text_5">
      <!-- 0.0015 -->
      <g transform="translate(30.009375 121.680972)scale(0.1 -0.1)">
       <use xlink:href="#DejaVuSans-30"/>
       <use xlink:href="#DejaVuSans-2e" x="63.623047"/>
       <use xlink:href="#DejaVuSans-30" x="95.410156"/>
       <use xlink:href="#DejaVuSans-30" x="159.033203"/>
       <use xlink:href="#DejaVuSans-31" x="222.65625"/>
       <use xlink:href="#DejaVuSans-35" x="286.279297"/>
      </g>
     </g>
    </g>
    <g id="ytick_6">
     <g id="line2d_14">
      <g>
       <use xlink:href="#mea28f7fa8b" x="72" y="86.217225" style="stroke: #000000; stroke-width: 0.8"/>
      </g>
     </g>
     <g id="text_6">
      <!-- 0.0020 -->
      <g transform="translate(30.009375 90.016443)scale(0.1 -0.1)">
       <defs>
        <path id="DejaVuSans-32" d="M 1228 531 
L 3431 531 
L 3431 0 
L 469 0 
L 469 531 
Q 828 903 1448 1529 
Q 2069 2156 2228 2338 
Q 2531 2678 2651 2914 
Q 2772 3150 2772 3378 
Q 2772 3750 2511 3984 
Q 2250 4219 1831 4219 
Q 1534 4219 1204 4116 
Q 875 4013 500 3803 
L 500 4441 
Q 881 4594 1212 4672 
Q 1544 4750 1819 4750 
Q 2544 4750 2975 4387 
Q 3406 4025 3406 3419 
Q 3406 3131 3298 2873 
Q 3191 2616 2906 2266 
Q 2828 2175 2409 1742 
Q 1991 1309 1228 531 
z
" transform="scale(0.015625)"/>
       </defs>
       <use xlink:href="#DejaVuSans-30"/>
       <use xlink:href="#DejaVuSans-2e" x="63.623047"/>
       <use xlink:href="#DejaVuSans-30" x="95.410156"/>
       <use xlink:href="#DejaVuSans-30" x="159.033203"/>
       <use xlink:href="#DejaVuSans-32" x="222.65625"/>
       <use xlink:href="#DejaVuSans-30" x="286.279297"/>
      </g>
     </g>
    </g>
    <g id="text_7">
     <!-- δ [a.u.] -->
     <g transform="translate(15.55 185.917301)rotate(-90)scale(0.1 -0.1)">
      <defs>
       <path id="DejaVuSans-3b4" d="M 3138 4053 
Q 2819 4272 2072 4272 
Q 1281 4272 1281 3906 
Q 1281 3619 2106 3469 
Q 2756 3353 3122 3003 
Q 3566 2581 3566 1716 
Q 3566 888 3138 400 
Q 2709 -91 1959 -91 
Q 1213 -91 781 400 
Q 353 888 353 1747 
Q 353 2384 781 2900 
Q 947 3100 1181 3213 
Q 694 3459 694 3900 
Q 694 4750 2072 4750 
Q 2763 4750 3138 4531 
L 3138 4053 
z
M 1613 3056 
Q 1400 2966 1228 2738 
Q 959 2384 959 1747 
Q 959 1113 1225 756 
Q 1494 397 1959 397 
Q 2419 397 2687 759 
Q 2956 1122 2956 1716 
Q 2956 2338 2672 2638 
Q 2369 2959 1975 2994 
Q 1775 3013 1613 3056 
z
" transform="scale(0.015625)"/>
       <path id="DejaVuSans-20" transform="scale(0.015625)"/>
       <path id="DejaVuSans-5b" d="M 550 4863 
L 1875 4863 
L 1875 4416 
L 1125 4416 
L 1125 -397 
L 1875 -397 
L 1875 -844 
L 550 -844 
L 550 4863 
z
" transform="scale(0.015625)"/>
       <path id="DejaVuSans-61" d="M 2194 1759 
Q 1497 1759 1228 1600 
Q 959 1441 959 1056 
Q 959 750 1161 570 
Q 1363 391 1709 391 
Q 2188 391 2477 730 
Q 2766 1069 2766 1631 
L 2766 1759 
L 2194 1759 
z
M 3341 1997 
L 3341 0 
L 2766 0 
L 2766 531 
Q 2569 213 2275 61 
Q 1981 -91 1556 -91 
Q 1019 -91 701 211 
Q 384 513 384 1019 
Q 384 1609 779 1909 
Q 1175 2209 1959 2209 
L 2766 2209 
L 2766 2266 
Q 2766 2663 2505 2880 
Q 2244 3097 1772 3097 
Q 1472 3097 1187 3025 
Q 903 2953 641 2809 
L 641 3341 
Q 956 3463 1253 3523 
Q 1550 3584 1831 3584 
Q 2591 3584 2966 3190 
Q 3341 2797 3341 1997 
z
" transform="scale(0.015625)"/>
       <path id="DejaVuSans-75" d="M 544 1381 
L 544 3500 
L 1119 3500 
L 1119 1403 
Q 1119 906 1312 657 
Q 1506 409 1894 409 
Q 2359 409 2629 706 
Q 2900 1003 2900 1516 
L 2900 3500 
L 3475 3500 
L 3475 0 
L 2900 0 
L 2900 538 
Q 2691 219 2414 64 
Q 2138 -91 1772 -91 
Q 1169 -91 856 284 
Q 544 659 544 1381 
z
M 1991 3584 
L 1991 3584 
z
" transform="scale(0.015625)"/>
       <path id="DejaVuSans-5d" d="M 1947 4863 
L 1947 -844 
L 622 -844 
L 622 -397 
L 1369 -397 
L 1369 4416 
L 622 4416 
L 622 4863 
L 1947 4863 
z
" transform="scale(0.015625)"/>
      </defs>
      <use xlink:href="#DejaVuSans-3b4"/>
      <use xlink:href="#DejaVuSans-20" x="61.181641"/>
      <use xlink:href="#DejaVuSans-5b" x="92.96875"/>
      <use xlink:href="#DejaVuSans-61" x="131.982422"/>
      <use xlink:href="#DejaVuSans-2e" x="193.261719"/>
      <use xlink:href="#DejaVuSans-75" x="225.048828"/>
      <use xlink:href="#DejaVuSans-2e" x="288.427734"/>
      <use xlink:href="#DejaVuSans-5d" x="320.214844"/>
     </g>
    </g>
   </g>
   <g id="line2d_15">
    <path d="M -1 125.55398 
L 33.188709 134.158509 
L 72 148.398604 
L 86.640258 155.830161 
L 88.52623 159.282479 
L 90.412202 160.532798 
L 92.298174 159.431497 
L 94.184146 161.069548 
L 96.070118 163.404158 
L 97.95609 162.53204 
L 99.842062 167.281256 
L 101.728034 166.38973 
L 103.614006 162.25786 
L 107.385951 163.704165 
L 109.271923 167.086139 
L 111.157895 168.805881 
L 113.043867 173.122308 
L 114.929839 176.659337 
L 118.701783 184.423265 
L 120.587755 187.373215 
L 122.473727 188.646493 
L 124.359699 192.581849 
L 126.245671 200.754125 
L 128.131643 206.715279 
L 130.017615 200.308085 
L 131.903588 197.422776 
L 133.78956 206.46106 
L 135.675532 204.754453 
L 137.561504 190.320526 
L 139.447476 173.075372 
L 141.333448 174.885277 
L 143.21942 189.659914 
L 145.105392 200.42677 
L 146.991364 214.371433 
L 148.877336 223.271555 
L 150.763308 220.38017 
L 152.64928 221.11649 
L 154.535252 225.814408 
L 156.421224 229.305598 
L 158.307197 234.204169 
L 160.193169 240.491344 
L 162.079141 242.930889 
L 163.965113 231.6684 
L 165.851085 218.225478 
L 169.623029 198.91309 
L 171.509001 186.302109 
L 173.394973 178.260447 
L 175.280945 178.898299 
L 177.166917 181.356194 
L 179.052889 181.093858 
L 180.938861 181.004071 
L 182.824834 182.596026 
L 184.710806 180.622028 
L 186.596778 177.608011 
L 188.48275 177.330194 
L 190.368722 174.875988 
L 192.254694 171.113646 
L 194.140666 175.252293 
L 196.026638 179.767773 
L 197.91261 177.322897 
L 199.798582 175.969552 
L 201.684554 179.001819 
L 203.570526 177.082698 
L 207.34247 171.138509 
L 209.228443 171.993121 
L 211.114415 171.480576 
L 213.000387 165.738985 
L 214.886359 165.42396 
L 216.772331 164.69905 
L 218.658303 162.609524 
L 220.544275 162.118375 
L 222.430247 157.549318 
L 224.316219 155.762198 
L 226.202191 157.308301 
L 228.088163 154.721332 
L 229.974135 152.726766 
L 231.860107 149.253568 
L 233.746079 146.977136 
L 235.632052 147.737788 
L 237.518024 149.183274 
L 239.403996 146.37142 
L 241.289968 140.761208 
L 243.17594 142.42309 
L 245.061912 141.903208 
L 246.947884 140.6123 
L 248.833856 137.696806 
L 250.719828 135.952887 
L 252.6058 138.705299 
L 254.491772 133.750808 
L 256.377744 129.86286 
L 258.263716 133.349141 
L 260.149689 133.762301 
L 262.035661 128.539577 
L 263.921633 126.737131 
L 265.807605 127.020563 
L 267.693577 125.08694 
L 269.579549 125.582516 
L 271.465521 123.437642 
L 273.351493 120.102313 
L 275.237465 121.542413 
L 277.123437 124.31153 
L 279.009409 124.253005 
L 280.895381 122.637732 
L 282.781353 118.940165 
L 284.667325 118.213197 
L 286.553298 119.435077 
L 288.43927 118.767936 
L 290.325242 119.255872 
L 292.211214 118.639291 
L 295.983158 119.347147 
L 299.755102 121.272651 
L 301.641074 121.154797 
L 303.527046 120.329084 
L 305.413018 118.903726 
L 307.29899 116.129205 
L 309.184962 114.987306 
L 311.070934 114.997775 
L 312.956907 113.018452 
L 316.728851 107.813817 
L 320.500795 102.495237 
L 322.386767 99.427841 
L 324.272739 96.956568 
L 326.158711 98.250409 
L 328.044683 100.012093 
L 329.930655 98.398934 
L 333.702599 92.435899 
L 335.588571 89.089896 
L 337.474544 89.613928 
L 339.360516 93.789894 
L 341.246488 96.056651 
L 343.13246 96.936901 
L 345.018432 97.995233 
L 346.904404 98.773235 
L 348.790376 98.304736 
L 350.676348 97.677162 
L 352.56232 97.622159 
L 354.448292 97.339629 
L 356.334264 96.18553 
L 358.220236 94.640879 
L 360.106208 93.631174 
L 361.99218 93.873458 
L 363.878153 95.448378 
L 365.764125 96.400399 
L 367.650097 95.006636 
L 369.536069 91.596467 
L 373.308013 82.843845 
L 375.193985 82.354049 
L 377.079957 86.858236 
L 378.965929 90.402332 
L 380.851901 92.135131 
L 382.737873 92.957776 
L 384.623845 92.287739 
L 386.509817 90.167173 
L 388.395789 87.787587 
L 390.281762 85.655247 
L 392.167734 83.935824 
L 395.939678 82.018135 
L 397.82565 84.061351 
L 399.711622 90.711063 
L 401.597594 94.012106 
L 403.483566 91.960198 
L 405.369538 89.298 
L 407.25551 85.424752 
L 409.141482 83.028284 
L 411.027454 84.268628 
L 412.913426 85.966987 
L 414.799398 87.24843 
L 416.685371 88.241164 
L 418.571343 88.303749 
L 420.457315 88.158743 
L 422.343287 86.31936 
L 424.229259 81.983065 
L 426.115231 79.882001 
L 429.887175 83.86351 
L 431.773147 84.77182 
L 433.659119 85.525114 
L 435.545091 85.188147 
L 437.431063 83.277507 
L 439.317035 83.826252 
L 441.203008 86.515116 
L 443.08898 87.430748 
L 444.974952 86.904787 
L 446.860924 86.033666 
L 448.746896 86.169035 
L 450.632868 86.803398 
L 452.51884 88.221109 
L 454.404812 89.840491 
L 456.290784 90.223743 
L 458.176756 89.825024 
L 460.062728 89.254315 
L 463.834672 91.078103 
L 465.720644 91.167973 
L 467.606617 91.550842 
L 469.492589 92.096275 
L 471.378561 92.849812 
L 473.264533 92.591044 
L 475.150505 92.50535 
L 478.922449 95.841219 
L 480.808421 96.302955 
L 482.694393 96.072543 
L 484.580365 94.996201 
L 486.466337 93.078888 
L 488.352309 92.04487 
L 490.238281 93.364718 
L 492.124253 95.182701 
L 494.010226 95.573212 
L 495.896198 94.810751 
L 497.78217 93.8133 
L 499.668142 94.07688 
L 501.554114 95.779263 
L 503.440086 97.863569 
L 505.326058 99.317796 
L 507.21203 99.589204 
L 510.983974 99.295989 
L 512.869946 99.859235 
L 514.755918 100.91206 
L 516.64189 100.792987 
L 518.4 100.047215 
L 577 99.840617 
L 577 99.840617 
" clip-path="url(#pb5c9bd1396)" style="fill: none; stroke: #440154; stroke-width: 2; stroke-linecap: square"/>
   </g>
   <g id="line2d_16">
    <path d="M -1 133.475411 
L 33.188709 143.361495 
L 72 160.587616 
L 84.754286 169.508631 
L 86.640258 171.253999 
L 88.52623 171.025511 
L 90.412202 172.541482 
L 92.298174 175.247161 
L 94.184146 175.32069 
L 96.070118 173.977856 
L 97.95609 176.843993 
L 99.842062 174.886119 
L 101.728034 179.959769 
L 103.614006 189.397674 
L 105.499979 191.951228 
L 109.271923 195.818494 
L 111.157895 200.4755 
L 113.043867 199.152867 
L 114.929839 199.56861 
L 116.815811 203.514262 
L 118.701783 208.108984 
L 120.587755 214.177779 
L 122.473727 224.169986 
L 124.359699 233.360669 
L 126.245671 237.049994 
L 128.131643 236.955947 
L 130.017615 245.341028 
L 131.903588 256.10534 
L 133.78956 261.198216 
L 135.675532 259.518743 
L 137.561504 241.578797 
L 139.447476 225.787228 
L 141.333448 209.045425 
L 143.21942 188.51641 
L 145.105392 178.347248 
L 146.991364 173.744489 
L 148.877336 182.539629 
L 150.763308 198.5479 
L 154.535252 202.99314 
L 156.421224 215.597532 
L 158.307197 231.042975 
L 160.193169 240.394937 
L 162.079141 239.588436 
L 163.965113 238.02448 
L 165.851085 227.243136 
L 167.737057 207.663733 
L 169.623029 192.308548 
L 173.394973 179.050842 
L 175.280945 174.032221 
L 177.166917 173.794069 
L 179.052889 177.037307 
L 180.938861 178.352625 
L 182.824834 176.006647 
L 184.710806 175.793556 
L 186.596778 176.43914 
L 188.48275 176.510215 
L 190.368722 177.76162 
L 192.254694 181.456605 
L 194.140666 178.953387 
L 196.026638 177.007591 
L 197.91261 180.503655 
L 199.798582 181.621559 
L 201.684554 176.823902 
L 203.570526 176.609222 
L 205.456498 177.884341 
L 207.34247 177.80324 
L 209.228443 174.378221 
L 211.114415 173.205956 
L 213.000387 176.092516 
L 214.886359 173.185009 
L 216.772331 171.393605 
L 218.658303 168.9899 
L 220.544275 164.578343 
L 222.430247 165.119864 
L 224.316219 163.854952 
L 226.202191 158.903332 
L 228.088163 156.5671 
L 229.974135 152.826878 
L 231.860107 152.973646 
L 233.746079 152.383689 
L 235.632052 146.473161 
L 237.518024 140.194806 
L 239.403996 139.754271 
L 241.289968 142.739183 
L 243.17594 137.523189 
L 245.061912 134.242422 
L 248.833856 132.815189 
L 250.719828 129.29596 
L 252.6058 123.103287 
L 254.491772 127.282488 
L 256.377744 128.655879 
L 258.263716 120.573007 
L 260.149689 119.24236 
L 262.035661 122.064653 
L 263.921633 119.927881 
L 265.807605 117.269676 
L 267.693577 116.971609 
L 269.579549 114.983826 
L 271.465521 116.621684 
L 273.351493 119.164293 
L 275.237465 115.852742 
L 277.123437 109.444015 
L 279.009409 106.953081 
L 280.895381 107.708955 
L 282.781353 110.764174 
L 284.667325 110.288256 
L 286.553298 107.156085 
L 288.43927 106.223566 
L 290.325242 104.307812 
L 292.211214 104.20463 
L 294.097186 103.545738 
L 295.983158 103.411061 
L 297.86913 102.062455 
L 299.755102 99.892631 
L 301.641074 98.64565 
L 303.527046 97.902028 
L 305.413018 97.533326 
L 307.29899 97.918516 
L 311.070934 94.428929 
L 312.956907 96.869407 
L 314.842879 100.363425 
L 316.728851 103.202229 
L 318.614823 105.35164 
L 320.500795 107.717584 
L 322.386767 110.288368 
L 324.272739 111.321395 
L 328.044683 105.632958 
L 329.930655 106.495442 
L 331.816627 108.960361 
L 333.702599 112.379166 
L 335.588571 116.800733 
L 337.474544 114.774721 
L 339.360516 107.681309 
L 341.246488 103.740738 
L 343.13246 101.534725 
L 346.904404 96.230643 
L 348.790376 95.297985 
L 350.676348 95.34379 
L 354.448292 95.030899 
L 358.220236 95.471519 
L 360.106208 95.233225 
L 361.99218 93.413166 
L 363.878153 90.650373 
L 365.764125 89.262361 
L 367.650097 89.971137 
L 369.536069 92.442895 
L 371.422041 96.204509 
L 373.308013 100.545791 
L 375.193985 99.722216 
L 377.079957 92.693028 
L 378.965929 86.925473 
L 380.851901 83.778255 
L 382.737873 82.035889 
L 384.623845 82.596445 
L 386.509817 84.675596 
L 388.395789 86.267829 
L 390.281762 87.485229 
L 392.167734 88.478883 
L 395.939678 88.851174 
L 397.82565 86.091252 
L 399.711622 78.558136 
L 401.597594 74.714511 
L 403.483566 76.597596 
L 405.369538 79.197494 
L 407.25551 82.711749 
L 409.141482 84.993453 
L 411.027454 84.067652 
L 412.913426 82.265137 
L 414.799398 80.780889 
L 416.685371 80.099926 
L 418.571343 80.515622 
L 420.457315 81.151785 
L 422.343287 83.625882 
L 424.229259 88.315099 
L 426.115231 89.951041 
L 428.001203 87.275517 
L 429.887175 84.929797 
L 431.773147 83.884563 
L 433.659119 83.127169 
L 435.545091 83.762129 
L 437.431063 85.352159 
L 439.317035 84.844052 
L 441.203008 83.411907 
L 443.08898 83.863468 
L 444.974952 85.497867 
L 446.860924 87.334451 
L 448.746896 87.701682 
L 450.632868 86.195885 
L 452.51884 83.524202 
L 454.404812 82.238121 
L 456.290784 82.947572 
L 458.176756 84.017294 
L 460.062728 85.591826 
L 461.9487 85.486506 
L 463.834672 85.250577 
L 465.720644 85.701275 
L 467.606617 85.451166 
L 469.492589 85.318006 
L 471.378561 84.903302 
L 473.264533 85.034842 
L 475.150505 84.704524 
L 477.036477 82.954603 
L 478.922449 81.85836 
L 480.808421 82.024866 
L 482.694393 82.739748 
L 484.580365 84.511432 
L 486.466337 86.695074 
L 488.352309 86.923101 
L 490.238281 85.391134 
L 492.124253 84.83699 
L 494.010226 85.951719 
L 495.896198 87.73281 
L 497.78217 89.813709 
L 499.668142 90.622465 
L 501.554114 89.088193 
L 503.440086 86.427744 
L 505.326058 84.510622 
L 507.21203 84.166555 
L 510.983974 84.831612 
L 512.869946 84.495199 
L 514.755918 83.845711 
L 516.64189 84.514499 
L 518.4 85.863353 
L 577 93.629268 
L 577 93.629268 
" clip-path="url(#pb5c9bd1396)" style="fill: none; stroke: #7ad151; stroke-width: 2; stroke-linecap: square"/>
   </g>
   <g id="patch_3">
    <path d="M 72 266.792727 
L 72 69.12 
" style="fill: none; stroke: #000000; stroke-width: 0.8; stroke-linejoin: miter; stroke-linecap: square"/>
   </g>
   <g id="patch_4">
    <path d="M 518.4 266.792727 
L 518.4 69.12 
" style="fill: none; stroke: #000000; stroke-width: 0.8; stroke-linejoin: miter; stroke-linecap: square"/>
   </g>
   <g id="patch_5">
    <path d="M 72 266.792727 
L 518.4 266.792727 
" style="fill: none; stroke: #000000; stroke-width: 0.8; stroke-linejoin: miter; stroke-linecap: square"/>
   </g>
   <g id="patch_6">
    <path d="M 72 69.12 
L 518.4 69.12 
" style="fill: none; stroke: #000000; stroke-width: 0.8; stroke-linejoin: miter; stroke-linecap: square"/>
   </g>
   <g id="text_8">
    <!-- δ -->
    <g transform="translate(291.52875 63.12)scale(0.12 -0.12)">
     <use xlink:href="#DejaVuSans-3b4"/>
    </g>
   </g>
   <g id="legend_1">
    <g id="patch_7">
     <path d="M 461.675 261.792727 
L 511.4 261.792727 
Q 513.4 261.792727 513.4 259.792727 
L 513.4 231.436477 
Q 513.4 229.436477 511.4 229.436477 
L 461.675 229.436477 
Q 459.675 229.436477 459.675 231.436477 
L 459.675 259.792727 
Q 459.675 261.792727 461.675 261.792727 
z
" style="fill: #ffffff; opacity: 0.8; stroke: #cccccc; stroke-linejoin: miter"/>
    </g>
    <g id="line2d_17">
     <path d="M 463.675 237.534915 
L 473.675 237.534915 
L 483.675 237.534915 
" style="fill: none; stroke: #440154; stroke-width: 2; stroke-linecap: square"/>
    </g>
    <g id="text_9">
     <!-- 0° -->
     <g transform="translate(491.675 241.034915)scale(0.1 -0.1)">
      <defs>
       <path id="DejaVuSans-b0" d="M 1600 4347 
Q 1350 4347 1178 4173 
Q 1006 4000 1006 3750 
Q 1006 3503 1178 3333 
Q 1350 3163 1600 3163 
Q 1850 3163 2022 3333 
Q 2194 3503 2194 3750 
Q 2194 3997 2020 4172 
Q 1847 4347 1600 4347 
z
M 1600 4750 
Q 1800 4750 1984 4673 
Q 2169 4597 2303 4453 
Q 2447 4313 2519 4134 
Q 2591 3956 2591 3750 
Q 2591 3338 2302 3052 
Q 2013 2766 1594 2766 
Q 1172 2766 890 3047 
Q 609 3328 609 3750 
Q 609 4169 896 4459 
Q 1184 4750 1600 4750 
z
" transform="scale(0.015625)"/>
      </defs>
      <use xlink:href="#DejaVuSans-30"/>
      <use xlink:href="#DejaVuSans-b0" x="63.623047"/>
     </g>
    </g>
    <g id="line2d_18">
     <path d="M 463.675 252.21304 
L 473.675 252.21304 
L 483.675 252.21304 
" style="fill: none; stroke: #7ad151; stroke-width: 2; stroke-linecap: square"/>
    </g>
    <g id="text_10">
     <!-- 90° -->
     <g transform="translate(491.675 255.71304)scale(0.1 -0.1)">
      <defs>
       <path id="DejaVuSans-39" d="M 703 97 
L 703 672 
Q 941 559 1184 500 
Q 1428 441 1663 441 
Q 2288 441 2617 861 
Q 2947 1281 2994 2138 
Q 2813 1869 2534 1725 
Q 2256 1581 1919 1581 
Q 1219 1581 811 2004 
Q 403 2428 403 3163 
Q 403 3881 828 4315 
Q 1253 4750 1959 4750 
Q 2769 4750 3195 4129 
Q 3622 3509 3622 2328 
Q 3622 1225 3098 567 
Q 2575 -91 1691 -91 
Q 1453 -91 1209 -44 
Q 966 3 703 97 
z
M 1959 2075 
Q 2384 2075 2632 2365 
Q 2881 2656 2881 3163 
Q 2881 3666 2632 3958 
Q 2384 4250 1959 4250 
Q 1534 4250 1286 3958 
Q 1038 3666 1038 3163 
Q 1038 2656 1286 2365 
Q 1534 2075 1959 2075 
z
" transform="scale(0.015625)"/>
      </defs>
      <use xlink:href="#DejaVuSans-39"/>
      <use xlink:href="#DejaVuSans-30" x="63.623047"/>
      <use xlink:href="#DejaVuSans-b0" x="127.246094"/>
     </g>
    </g>
   </g>
  </g>
  <g id="axes_2">
   <g id="patch_8">
    <path d="M 72 504 
L 518.4 504 
L 518.4 306.327273 
L 72 306.327273 
z
" style="fill: #ffffff"/>
   </g>
   <g id="matplotlib.axis_3">
    <g id="xtick_9">
     <g id="line2d_19">
      <g>
       <use xlink:href="#mce4b3519f8" x="72" y="504" style="stroke: #000000; stroke-width: 0.8"/>
      </g>
     </g>
     <g id="text_11">
      <!-- 280 -->
      <g transform="translate(62.45625 518.598437)scale(0.1 -0.1)">
       <defs>
        <path id="DejaVuSans-38" d="M 2034 2216 
Q 1584 2216 1326 1975 
Q 1069 1734 1069 1313 
Q 1069 891 1326 650 
Q 1584 409 2034 409 
Q 2484 409 2743 651 
Q 3003 894 3003 1313 
Q 3003 1734 2745 1975 
Q 2488 2216 2034 2216 
z
M 1403 2484 
Q 997 2584 770 2862 
Q 544 3141 544 3541 
Q 544 4100 942 4425 
Q 1341 4750 2034 4750 
Q 2731 4750 3128 4425 
Q 3525 4100 3525 3541 
Q 3525 3141 3298 2862 
Q 3072 2584 2669 2484 
Q 3125 2378 3379 2068 
Q 3634 1759 3634 1313 
Q 3634 634 3220 271 
Q 2806 -91 2034 -91 
Q 1263 -91 848 271 
Q 434 634 434 1313 
Q 434 1759 690 2068 
Q 947 2378 1403 2484 
z
M 1172 3481 
Q 1172 3119 1398 2916 
Q 1625 2713 2034 2713 
Q 2441 2713 2670 2916 
Q 2900 3119 2900 3481 
Q 2900 3844 2670 4047 
Q 2441 4250 2034 4250 
Q 1625 4250 1398 4047 
Q 1172 3844 1172 3481 
z
" transform="scale(0.015625)"/>
       </defs>
       <use xlink:href="#DejaVuSans-32"/>
       <use xlink:href="#DejaVuSans-38" x="63.623047"/>
       <use xlink:href="#DejaVuSans-30" x="127.246094"/>
      </g>
     </g>
    </g>
    <g id="xtick_10">
     <g id="line2d_20">
      <g>
       <use xlink:href="#mce4b3519f8" x="135.771429" y="504" style="stroke: #000000; stroke-width: 0.8"/>
      </g>
     </g>
     <g id="text_12">
      <!-- 285 -->
      <g transform="translate(126.227679 518.598437)scale(0.1 -0.1)">
       <use xlink:href="#DejaVuSans-32"/>
       <use xlink:href="#DejaVuSans-38" x="63.623047"/>
       <use xlink:href="#DejaVuSans-35" x="127.246094"/>
      </g>
     </g>
    </g>
    <g id="xtick_11">
     <g id="line2d_21">
      <g>
       <use xlink:href="#mce4b3519f8" x="199.542857" y="504" style="stroke: #000000; stroke-width: 0.8"/>
      </g>
     </g>
     <g id="text_13">
      <!-- 290 -->
      <g transform="translate(189.999107 518.598437)scale(0.1 -0.1)">
       <use xlink:href="#DejaVuSans-32"/>
       <use xlink:href="#DejaVuSans-39" x="63.623047"/>
       <use xlink:href="#DejaVuSans-30" x="127.246094"/>
      </g>
     </g>
    </g>
    <g id="xtick_12">
     <g id="line2d_22">
      <g>
       <use xlink:href="#mce4b3519f8" x="263.314286" y="504" style="stroke: #000000; stroke-width: 0.8"/>
      </g>
     </g>
     <g id="text_14">
      <!-- 295 -->
      <g transform="translate(253.770536 518.598437)scale(0.1 -0.1)">
       <use xlink:href="#DejaVuSans-32"/>
       <use xlink:href="#DejaVuSans-39" x="63.623047"/>
       <use xlink:href="#DejaVuSans-35" x="127.246094"/>
      </g>
     </g>
    </g>
    <g id="xtick_13">
     <g id="line2d_23">
      <g>
       <use xlink:href="#mce4b3519f8" x="327.085714" y="504" style="stroke: #000000; stroke-width: 0.8"/>
      </g>
     </g>
     <g id="text_15">
      <!-- 300 -->
      <g transform="translate(317.541964 518.598437)scale(0.1 -0.1)">
       <defs>
        <path id="DejaVuSans-33" d="M 2597 2516 
Q 3050 2419 3304 2112 
Q 3559 1806 3559 1356 
Q 3559 666 3084 287 
Q 2609 -91 1734 -91 
Q 1441 -91 1130 -33 
Q 819 25 488 141 
L 488 750 
Q 750 597 1062 519 
Q 1375 441 1716 441 
Q 2309 441 2620 675 
Q 2931 909 2931 1356 
Q 2931 1769 2642 2001 
Q 2353 2234 1838 2234 
L 1294 2234 
L 1294 2753 
L 1863 2753 
Q 2328 2753 2575 2939 
Q 2822 3125 2822 3475 
Q 2822 3834 2567 4026 
Q 2313 4219 1838 4219 
Q 1578 4219 1281 4162 
Q 984 4106 628 3988 
L 628 4550 
Q 988 4650 1302 4700 
Q 1616 4750 1894 4750 
Q 2613 4750 3031 4423 
Q 3450 4097 3450 3541 
Q 3450 3153 3228 2886 
Q 3006 2619 2597 2516 
z
" transform="scale(0.015625)"/>
       </defs>
       <use xlink:href="#DejaVuSans-33"/>
       <use xlink:href="#DejaVuSans-30" x="63.623047"/>
       <use xlink:href="#DejaVuSans-30" x="127.246094"/>
      </g>
     </g>
    </g>
    <g id="xtick_14">
     <g id="line2d_24">
      <g>
       <use xlink:href="#mce4b3519f8" x="390.857143" y="504" style="stroke: #000000; stroke-width: 0.8"/>
      </g>
     </g>
     <g id="text_16">
      <!-- 305 -->
      <g transform="translate(381.313393 518.598437)scale(0.1 -0.1)">
       <use xlink:href="#DejaVuSans-33"/>
       <use xlink:href="#DejaVuSans-30" x="63.623047"/>
       <use xlink:href="#DejaVuSans-35" x="127.246094"/>
      </g>
     </g>
    </g>
    <g id="xtick_15">
     <g id="line2d_25">
      <g>
       <use xlink:href="#mce4b3519f8" x="454.628571" y="504" style="stroke: #000000; stroke-width: 0.8"/>
      </g>
     </g>
     <g id="text_17">
      <!-- 310 -->
      <g transform="translate(445.084821 518.598437)scale(0.1 -0.1)">
       <use xlink:href="#DejaVuSans-33"/>
       <use xlink:href="#DejaVuSans-31" x="63.623047"/>
       <use xlink:href="#DejaVuSans-30" x="127.246094"/>
      </g>
     </g>
    </g>
    <g id="xtick_16">
     <g id="line2d_26">
      <g>
       <use xlink:href="#mce4b3519f8" x="518.4" y="504" style="stroke: #000000; stroke-width: 0.8"/>
      </g>
     </g>
     <g id="text_18">
      <!-- 315 -->
      <g transform="translate(508.85625 518.598437)scale(0.1 -0.1)">
       <use xlink:href="#DejaVuSans-33"/>
       <use xlink:href="#DejaVuSans-31" x="63.623047"/>
       <use xlink:href="#DejaVuSans-35" x="127.246094"/>
      </g>
     </g>
    </g>
    <g id="text_19">
     <!-- energy [eV] -->
     <g transform="translate(265.789062 532.276562)scale(0.1 -0.1)">
      <defs>
       <path id="DejaVuSans-65" d="M 3597 1894 
L 3597 1613 
L 953 1613 
Q 991 1019 1311 708 
Q 1631 397 2203 397 
Q 2534 397 2845 478 
Q 3156 559 3463 722 
L 3463 178 
Q 3153 47 2828 -22 
Q 2503 -91 2169 -91 
Q 1331 -91 842 396 
Q 353 884 353 1716 
Q 353 2575 817 3079 
Q 1281 3584 2069 3584 
Q 2775 3584 3186 3129 
Q 3597 2675 3597 1894 
z
M 3022 2063 
Q 3016 2534 2758 2815 
Q 2500 3097 2075 3097 
Q 1594 3097 1305 2825 
Q 1016 2553 972 2059 
L 3022 2063 
z
" transform="scale(0.015625)"/>
       <path id="DejaVuSans-6e" d="M 3513 2113 
L 3513 0 
L 2938 0 
L 2938 2094 
Q 2938 2591 2744 2837 
Q 2550 3084 2163 3084 
Q 1697 3084 1428 2787 
Q 1159 2491 1159 1978 
L 1159 0 
L 581 0 
L 581 3500 
L 1159 3500 
L 1159 2956 
Q 1366 3272 1645 3428 
Q 1925 3584 2291 3584 
Q 2894 3584 3203 3211 
Q 3513 2838 3513 2113 
z
" transform="scale(0.015625)"/>
       <path id="DejaVuSans-72" d="M 2631 2963 
Q 2534 3019 2420 3045 
Q 2306 3072 2169 3072 
Q 1681 3072 1420 2755 
Q 1159 2438 1159 1844 
L 1159 0 
L 581 0 
L 581 3500 
L 1159 3500 
L 1159 2956 
Q 1341 3275 1631 3429 
Q 1922 3584 2338 3584 
Q 2397 3584 2469 3576 
Q 2541 3569 2628 3553 
L 2631 2963 
z
" transform="scale(0.015625)"/>
       <path id="DejaVuSans-67" d="M 2906 1791 
Q 2906 2416 2648 2759 
Q 2391 3103 1925 3103 
Q 1463 3103 1205 2759 
Q 947 2416 947 1791 
Q 947 1169 1205 825 
Q 1463 481 1925 481 
Q 2391 481 2648 825 
Q 2906 1169 2906 1791 
z
M 3481 434 
Q 3481 -459 3084 -895 
Q 2688 -1331 1869 -1331 
Q 1566 -1331 1297 -1286 
Q 1028 -1241 775 -1147 
L 775 -588 
Q 1028 -725 1275 -790 
Q 1522 -856 1778 -856 
Q 2344 -856 2625 -561 
Q 2906 -266 2906 331 
L 2906 616 
Q 2728 306 2450 153 
Q 2172 0 1784 0 
Q 1141 0 747 490 
Q 353 981 353 1791 
Q 353 2603 747 3093 
Q 1141 3584 1784 3584 
Q 2172 3584 2450 3431 
Q 2728 3278 2906 2969 
L 2906 3500 
L 3481 3500 
L 3481 434 
z
" transform="scale(0.015625)"/>
       <path id="DejaVuSans-79" d="M 2059 -325 
Q 1816 -950 1584 -1140 
Q 1353 -1331 966 -1331 
L 506 -1331 
L 506 -850 
L 844 -850 
Q 1081 -850 1212 -737 
Q 1344 -625 1503 -206 
L 1606 56 
L 191 3500 
L 800 3500 
L 1894 763 
L 2988 3500 
L 3597 3500 
L 2059 -325 
z
" transform="scale(0.015625)"/>
       <path id="DejaVuSans-56" d="M 1831 0 
L 50 4666 
L 709 4666 
L 2188 738 
L 3669 4666 
L 4325 4666 
L 2547 0 
L 1831 0 
z
" transform="scale(0.015625)"/>
      </defs>
      <use xlink:href="#DejaVuSans-65"/>
      <use xlink:href="#DejaVuSans-6e" x="61.523438"/>
      <use xlink:href="#DejaVuSans-65" x="124.902344"/>
      <use xlink:href="#DejaVuSans-72" x="186.425781"/>
      <use xlink:href="#DejaVuSans-67" x="225.789062"/>
      <use xlink:href="#DejaVuSans-79" x="289.265625"/>
      <use xlink:href="#DejaVuSans-20" x="348.445312"/>
      <use xlink:href="#DejaVuSans-5b" x="380.232422"/>
      <use xlink:href="#DejaVuSans-65" x="419.246094"/>
      <use xlink:href="#DejaVuSans-56" x="480.769531"/>
      <use xlink:href="#DejaVuSans-5d" x="549.177734"/>
     </g>
    </g>
   </g>
   <g id="matplotlib.axis_4">
    <g id="ytick_7">
     <g id="line2d_27">
      <g>
       <use xlink:href="#mea28f7fa8b" x="72" y="504" style="stroke: #000000; stroke-width: 0.8"/>
      </g>
     </g>
     <g id="text_20">
      <!-- 0.0000 -->
      <g transform="translate(30.009375 507.799219)scale(0.1 -0.1)">
       <use xlink:href="#DejaVuSans-30"/>
       <use xlink:href="#DejaVuSans-2e" x="63.623047"/>
       <use xlink:href="#DejaVuSans-30" x="95.410156"/>
       <use xlink:href="#DejaVuSans-30" x="159.033203"/>
       <use xlink:href="#DejaVuSans-30" x="222.65625"/>
       <use xlink:href="#DejaVuSans-30" x="286.279297"/>
      </g>
     </g>
    </g>
    <g id="ytick_8">
     <g id="line2d_28">
      <g>
       <use xlink:href="#mea28f7fa8b" x="72" y="466.287497" style="stroke: #000000; stroke-width: 0.8"/>
      </g>
     </g>
     <g id="text_21">
      <!-- 0.0005 -->
      <g transform="translate(30.009375 470.086715)scale(0.1 -0.1)">
       <use xlink:href="#DejaVuSans-30"/>
       <use xlink:href="#DejaVuSans-2e" x="63.623047"/>
       <use xlink:href="#DejaVuSans-30" x="95.410156"/>
       <use xlink:href="#DejaVuSans-30" x="159.033203"/>
       <use xlink:href="#DejaVuSans-30" x="222.65625"/>
       <use xlink:href="#DejaVuSans-35" x="286.279297"/>
      </g>
     </g>
    </g>
    <g id="ytick_9">
     <g id="line2d_29">
      <g>
       <use xlink:href="#mea28f7fa8b" x="72" y="428.574993" style="stroke: #000000; stroke-width: 0.8"/>
      </g>
     </g>
     <g id="text_22">
      <!-- 0.0010 -->
      <g transform="translate(30.009375 432.374212)scale(0.1 -0.1)">
       <use xlink:href="#DejaVuSans-30"/>
       <use xlink:href="#DejaVuSans-2e" x="63.623047"/>
       <use xlink:href="#DejaVuSans-30" x="95.410156"/>
       <use xlink:href="#DejaVuSans-30" x="159.033203"/>
       <use xlink:href="#DejaVuSans-31" x="222.65625"/>
       <use xlink:href="#DejaVuSans-30" x="286.279297"/>
      </g>
     </g>
    </g>
    <g id="ytick_10">
     <g id="line2d_30">
      <g>
       <use xlink:href="#mea28f7fa8b" x="72" y="390.86249" style="stroke: #000000; stroke-width: 0.8"/>
      </g>
     </g>
     <g id="text_23">
      <!-- 0.0015 -->
      <g transform="translate(30.009375 394.661709)scale(0.1 -0.1)">
       <use xlink:href="#DejaVuSans-30"/>
       <use xlink:href="#DejaVuSans-2e" x="63.623047"/>
       <use xlink:href="#DejaVuSans-30" x="95.410156"/>
       <use xlink:href="#DejaVuSans-30" x="159.033203"/>
       <use xlink:href="#DejaVuSans-31" x="222.65625"/>
       <use xlink:href="#DejaVuSans-35" x="286.279297"/>
      </g>
     </g>
    </g>
    <g id="ytick_11">
     <g id="line2d_31">
      <g>
       <use xlink:href="#mea28f7fa8b" x="72" y="353.149987" style="stroke: #000000; stroke-width: 0.8"/>
      </g>
     </g>
     <g id="text_24">
      <!-- 0.0020 -->
      <g transform="translate(30.009375 356.949206)scale(0.1 -0.1)">
       <use xlink:href="#DejaVuSans-30"/>
       <use xlink:href="#DejaVuSans-2e" x="63.623047"/>
       <use xlink:href="#DejaVuSans-30" x="95.410156"/>
       <use xlink:href="#DejaVuSans-30" x="159.033203"/>
       <use xlink:href="#DejaVuSans-32" x="222.65625"/>
       <use xlink:href="#DejaVuSans-30" x="286.279297"/>
      </g>
     </g>
    </g>
    <g id="ytick_12">
     <g id="line2d_32">
      <g>
       <use xlink:href="#mea28f7fa8b" x="72" y="315.437484" style="stroke: #000000; stroke-width: 0.8"/>
      </g>
     </g>
     <g id="text_25">
      <!-- 0.0025 -->
      <g transform="translate(30.009375 319.236702)scale(0.1 -0.1)">
       <use xlink:href="#DejaVuSans-30"/>
       <use xlink:href="#DejaVuSans-2e" x="63.623047"/>
       <use xlink:href="#DejaVuSans-30" x="95.410156"/>
       <use xlink:href="#DejaVuSans-30" x="159.033203"/>
       <use xlink:href="#DejaVuSans-32" x="222.65625"/>
       <use xlink:href="#DejaVuSans-35" x="286.279297"/>
      </g>
     </g>
    </g>
    <g id="text_26">
     <!-- β [a.u.] -->
     <g transform="translate(23.929687 423.255824)rotate(-90)scale(0.1 -0.1)">
      <defs>
       <path id="DejaVuSans-3b2" d="M 1178 216 
L 1178 -1331 
L 600 -1331 
L 600 3478 
Q 600 4903 1931 4903 
Q 3288 4903 3288 3700 
Q 3288 2844 2750 2531 
Q 3625 2250 3625 1416 
Q 3625 -66 2119 -66 
Q 1456 -66 1178 216 
z
M 1178 966 
Q 1525 425 2141 425 
Q 3041 425 3041 1406 
Q 3041 2288 1591 2219 
L 1591 2750 
Q 2725 2750 2725 3750 
Q 2725 4434 1994 4434 
Q 1178 4434 1178 3459 
L 1178 966 
z
" transform="scale(0.015625)"/>
      </defs>
      <use xlink:href="#DejaVuSans-3b2"/>
      <use xlink:href="#DejaVuSans-20" x="63.818359"/>
      <use xlink:href="#DejaVuSans-5b" x="95.605469"/>
      <use xlink:href="#DejaVuSans-61" x="134.619141"/>
      <use xlink:href="#DejaVuSans-2e" x="195.898438"/>
      <use xlink:href="#DejaVuSans-75" x="227.685547"/>
      <use xlink:href="#DejaVuSans-2e" x="291.064453"/>
      <use xlink:href="#DejaVuSans-5d" x="322.851562"/>
     </g>
    </g>
   </g>
   <g id="line2d_33">
    <path d="M -1 468.232752 
L 84.754286 470.405259 
L 86.640258 471.072995 
L 88.52623 473.116352 
L 90.412202 466.615074 
L 92.298174 468.418638 
L 94.184146 469.410253 
L 96.070118 468.692719 
L 97.95609 464.877564 
L 99.842062 473.446631 
L 101.728034 454.855311 
L 103.614006 467.481374 
L 105.499979 462.728033 
L 107.385951 471.866142 
L 109.271923 469.605505 
L 111.157895 472.988044 
L 113.043867 474.567598 
L 114.929839 472.76777 
L 116.815811 473.918721 
L 118.701783 470.107863 
L 120.587755 468.956651 
L 122.473727 464.508273 
L 124.359699 469.466884 
L 126.245671 464.469428 
L 128.131643 454.702789 
L 130.017615 435.437708 
L 131.903588 450.313418 
L 133.78956 442.466317 
L 135.675532 423.728991 
L 137.561504 413.449527 
L 139.447476 423.310399 
L 141.333448 456.255838 
L 143.21942 459.915029 
L 145.105392 461.101491 
L 146.991364 460.314391 
L 148.877336 441.389661 
L 150.763308 428.777344 
L 152.64928 432.27216 
L 154.535252 423.751156 
L 156.421224 419.583691 
L 158.307197 410.898619 
L 160.193169 401.411615 
L 163.965113 354.652734 
L 165.851085 352.424426 
L 167.737057 346.138992 
L 169.623029 346.378366 
L 171.509001 342.068483 
L 173.394973 359.312969 
L 175.280945 364.011663 
L 177.166917 369.859811 
L 179.052889 363.976385 
L 180.938861 370.823691 
L 182.824834 364.96974 
L 184.710806 363.90093 
L 186.596778 361.536016 
L 188.48275 366.315503 
L 190.368722 358.784707 
L 192.254694 366.902787 
L 194.140666 371.655319 
L 196.026638 366.995437 
L 197.91261 358.728077 
L 199.798582 364.234347 
L 201.684554 360.287682 
L 203.570526 352.807312 
L 205.456498 353.099944 
L 207.34247 349.894096 
L 209.228443 355.504736 
L 211.114415 344.45232 
L 213.000387 345.618801 
L 214.886359 349.297669 
L 216.772331 344.248492 
L 218.658303 345.641019 
L 220.544275 343.436629 
L 222.430247 338.964352 
L 224.316219 346.711439 
L 226.202191 343.014996 
L 228.088163 340.105265 
L 229.974135 341.33394 
L 231.860107 337.743773 
L 233.746079 344.120672 
L 235.632052 343.424971 
L 237.518024 344.500279 
L 239.403996 335.457525 
L 241.289968 340.341361 
L 243.17594 345.755512 
L 245.061912 338.843431 
L 246.947884 343.619792 
L 248.833856 336.344912 
L 250.719828 346.157847 
L 252.6058 341.78915 
L 254.491772 335.908834 
L 256.377744 344.18574 
L 258.263716 347.631407 
L 260.149689 340.279186 
L 262.035661 339.056871 
L 263.921633 345.184952 
L 265.807605 344.005461 
L 267.693577 344.481797 
L 269.579549 347.913609 
L 271.465521 342.235263 
L 273.351493 348.858019 
L 275.237465 352.125329 
L 277.123437 353.052241 
L 279.009409 347.881094 
L 280.895381 348.940276 
L 282.781353 345.196076 
L 284.667325 354.887062 
L 286.553298 350.444598 
L 288.43927 354.406281 
L 290.325242 352.687966 
L 292.211214 354.027354 
L 294.097186 354.613725 
L 295.983158 354.718112 
L 297.86913 355.170889 
L 299.755102 353.315903 
L 301.641074 351.101077 
L 305.413018 347.118481 
L 307.29899 345.345429 
L 309.184962 348.267478 
L 311.070934 345.87225 
L 312.956907 344.056695 
L 314.842879 343.323228 
L 316.728851 343.253633 
L 318.614823 343.749564 
L 320.500795 344.730086 
L 322.386767 346.135892 
L 324.272739 350.330486 
L 326.158711 356.060268 
L 328.044683 353.924878 
L 329.930655 352.234867 
L 331.816627 352.498677 
L 333.702599 354.881462 
L 335.588571 358.01004 
L 337.474544 367.962577 
L 339.360516 369.85413 
L 341.246488 369.396044 
L 343.13246 369.07095 
L 345.018432 369.650347 
L 346.904404 368.135944 
L 348.790376 367.144052 
L 350.676348 367.284257 
L 352.56232 367.62747 
L 354.448292 366.678327 
L 356.334264 366.180826 
L 358.220236 366.58202 
L 361.99218 370.410987 
L 363.878153 371.41377 
L 367.650097 365.737184 
L 369.536069 363.811588 
L 371.422041 365.054907 
L 373.308013 368.367839 
L 375.193985 378.563944 
L 377.079957 382.854947 
L 380.851901 380.582464 
L 382.737873 378.379233 
L 384.623845 375.920379 
L 386.509817 374.370157 
L 388.395789 375.088198 
L 390.281762 376.216753 
L 394.053706 381.690843 
L 395.939678 385.146241 
L 397.82565 392.147313 
L 399.711622 394.695106 
L 401.597594 386.19188 
L 403.483566 382.701653 
L 405.369538 381.136152 
L 407.25551 380.795185 
L 409.141482 386.27812 
L 411.027454 390.427245 
L 412.913426 391.054479 
L 414.799398 391.835624 
L 420.457315 389.142357 
L 422.343287 386.372903 
L 424.229259 386.804975 
L 426.115231 393.542804 
L 428.001203 397.989012 
L 431.773147 398.775232 
L 433.659119 398.972075 
L 435.545091 397.902751 
L 437.431063 398.692497 
L 439.317035 404.190565 
L 441.203008 404.344871 
L 443.08898 403.029127 
L 444.974952 402.461161 
L 446.860924 403.4415 
L 448.746896 405.773742 
L 450.632868 406.706719 
L 452.51884 408.913203 
L 454.404812 407.939262 
L 456.290784 407.263107 
L 458.176756 406.710884 
L 460.062728 407.824509 
L 461.9487 409.945259 
L 463.834672 409.049227 
L 469.492589 410.518004 
L 471.378561 410.686243 
L 473.264533 409.668135 
L 475.150505 411.888373 
L 477.036477 413.061134 
L 478.922449 411.764212 
L 480.808421 410.243333 
L 484.580365 407.68048 
L 486.466337 407.849173 
L 490.238281 413.649073 
L 492.124253 413.156377 
L 494.010226 411.915555 
L 495.896198 411.376038 
L 497.78217 412.524038 
L 499.668142 415.252972 
L 501.554114 416.84059 
L 503.440086 416.980585 
L 507.21203 414.010439 
L 510.983974 413.32014 
L 512.869946 414.250603 
L 514.755918 413.209255 
L 516.64189 411.399173 
L 518.4 411.030692 
L 577 415.162859 
L 577 415.162859 
" clip-path="url(#p971efc01a2)" style="fill: none; stroke: #0d0887; stroke-width: 2; stroke-linecap: square"/>
   </g>
   <g id="line2d_34">
    <path d="M -1 468.232752 
L 84.754286 470.405259 
L 86.640258 469.226142 
L 88.52623 467.12899 
L 90.412202 471.175188 
L 92.298174 468.154334 
L 94.184146 466.700085 
L 96.070118 466.486656 
L 97.95609 473.255894 
L 99.842062 464.630407 
L 101.728034 486.864534 
L 103.614006 472.433089 
L 105.499979 475.609188 
L 107.385951 466.54837 
L 109.271923 472.031986 
L 111.157895 465.73648 
L 113.043867 460.926203 
L 114.929839 466.228949 
L 116.815811 466.573533 
L 118.701783 468.440092 
L 120.587755 468.414113 
L 122.473727 469.77603 
L 124.359699 457.726283 
L 128.131643 438.810285 
L 130.017615 445.148535 
L 131.903588 423.199374 
L 133.78956 408.854688 
L 135.675532 376.796705 
L 137.561504 353.38816 
L 139.447476 354.205516 
L 141.333448 340.918538 
L 143.21942 352.19405 
L 145.105392 369.76637 
L 146.991364 385.67356 
L 148.877336 412.643932 
L 150.763308 410.091469 
L 152.64928 399.728592 
L 154.535252 410.911202 
L 156.421224 413.698132 
L 158.307197 406.971113 
L 160.193169 384.679126 
L 162.079141 364.650145 
L 163.965113 351.205668 
L 165.851085 323.052878 
L 167.737057 318.711497 
L 169.623029 321.323379 
L 171.509001 333.517698 
L 173.394973 329.820656 
L 175.280945 345.142065 
L 177.166917 346.538809 
L 179.052889 357.674571 
L 180.938861 347.507085 
L 182.824834 354.100878 
L 184.710806 351.491749 
L 186.596778 357.101342 
L 188.48275 352.12831 
L 190.368722 359.172642 
L 192.254694 353.161707 
L 194.140666 347.976533 
L 196.026638 351.263297 
L 197.91261 352.936593 
L 199.798582 344.019902 
L 201.684554 340.558919 
L 203.570526 346.55392 
L 205.456498 340.308943 
L 207.34247 340.493984 
L 209.228443 331.659384 
L 211.114415 340.433698 
L 213.000387 333.190905 
L 214.886359 328.136137 
L 216.772331 328.394105 
L 218.658303 322.554177 
L 220.544275 322.885627 
L 222.430247 326.183092 
L 224.316219 317.271939 
L 226.202191 317.651498 
L 228.088163 317.846047 
L 229.974135 315.702337 
L 231.860107 322.075428 
L 233.746079 312.396804 
L 237.518024 312.084731 
L 239.403996 323.233023 
L 241.289968 318.121408 
L 243.17594 312.370719 
L 245.061912 320.134132 
L 246.947884 317.481985 
L 248.833856 321.058975 
L 250.719828 314.012448 
L 252.6058 320.948413 
L 254.491772 330.97315 
L 256.377744 318.511071 
L 258.263716 318.784991 
L 260.149689 329.543876 
L 262.035661 328.044337 
L 263.921633 325.011422 
L 265.807605 328.343283 
L 267.693577 330.195025 
L 269.579549 329.63733 
L 271.465521 337.301926 
L 273.351493 330.626547 
L 275.237465 327.154137 
L 277.123437 325.858417 
L 279.009409 335.995526 
L 280.895381 336.374497 
L 282.781353 342.679909 
L 284.667325 332.400384 
L 286.553298 338.999449 
L 288.43927 336.141596 
L 290.325242 340.477882 
L 292.211214 341.081085 
L 294.097186 342.481628 
L 295.983158 343.477944 
L 297.86913 342.425203 
L 299.755102 344.445962 
L 307.29899 353.830906 
L 309.184962 352.760048 
L 311.070934 359.568902 
L 312.956907 365.00952 
L 314.842879 366.846552 
L 316.728851 367.177281 
L 318.614823 366.839407 
L 320.500795 366.908616 
L 322.386767 364.831224 
L 324.272739 360.702861 
L 326.158711 355.894093 
L 328.044683 359.491549 
L 329.930655 362.482836 
L 331.816627 363.606474 
L 333.702599 362.973107 
L 335.588571 359.120813 
L 337.474544 345.478768 
L 339.360516 344.598308 
L 341.246488 346.23739 
L 343.13246 347.447036 
L 345.018432 347.352837 
L 348.790376 353.255537 
L 350.676348 355.410525 
L 352.56232 355.993959 
L 354.448292 357.605727 
L 356.334264 358.195058 
L 358.220236 358.411482 
L 360.106208 357.611796 
L 361.99218 356.300098 
L 363.878153 357.80644 
L 367.650097 365.667772 
L 369.536069 368.537658 
L 371.422041 368.993582 
L 373.308013 365.940234 
L 375.193985 354.870965 
L 377.079957 351.078361 
L 380.851901 358.24155 
L 384.623845 368.193071 
L 386.509817 370.693058 
L 388.395789 370.965766 
L 390.281762 371.460045 
L 392.167734 370.424403 
L 395.939678 367.682374 
L 397.82565 362.046418 
L 399.711622 361.622451 
L 401.597594 372.424054 
L 403.483566 378.208564 
L 405.369538 381.525949 
L 407.25551 383.515782 
L 409.141482 380.47458 
L 411.027454 378.086046 
L 412.913426 378.625055 
L 414.799398 379.989475 
L 416.685371 382.985272 
L 418.571343 385.549587 
L 420.457315 387.756419 
L 422.343287 391.709435 
L 424.229259 391.587462 
L 426.115231 385.134251 
L 428.001203 382.106571 
L 429.887175 383.617243 
L 431.773147 384.70883 
L 433.659119 386.479437 
L 435.545091 389.159934 
L 437.431063 389.336216 
L 439.317035 387.091162 
L 441.203008 389.106949 
L 443.08898 391.627174 
L 444.974952 392.807463 
L 446.860924 392.273754 
L 448.746896 389.454032 
L 450.632868 387.907233 
L 452.51884 387.680215 
L 454.404812 391.83112 
L 456.290784 393.683271 
L 458.176756 395.318767 
L 460.062728 395.645865 
L 461.9487 393.524193 
L 463.834672 395.561324 
L 465.720644 394.700242 
L 467.606617 395.04025 
L 469.492589 395.078842 
L 471.378561 395.239185 
L 473.264533 396.259835 
L 475.150505 394.984704 
L 477.036477 395.299275 
L 478.922449 397.965295 
L 480.808421 400.30045 
L 484.580365 404.393759 
L 486.466337 403.776089 
L 488.352309 401.25389 
L 490.238281 401.031399 
L 492.124253 403.623046 
L 494.010226 405.393378 
L 495.896198 406.090909 
L 497.78217 405.405256 
L 499.668142 402.071538 
L 501.554114 399.316255 
L 503.440086 398.93357 
L 505.326058 401.102787 
L 507.21203 403.514123 
L 509.098002 404.765943 
L 510.983974 405.727081 
L 512.869946 405.646086 
L 514.755918 407.565801 
L 516.64189 410.115216 
L 518.4 411.030692 
L 577 415.162859 
L 577 415.162859 
" clip-path="url(#p971efc01a2)" style="fill: none; stroke: #fca636; stroke-width: 2; stroke-linecap: square"/>
   </g>
   <g id="patch_9">
    <path d="M 72 504 
L 72 306.327273 
" style="fill: none; stroke: #000000; stroke-width: 0.8; stroke-linejoin: miter; stroke-linecap: square"/>
   </g>
   <g id="patch_10">
    <path d="M 518.4 504 
L 518.4 306.327273 
" style="fill: none; stroke: #000000; stroke-width: 0.8; stroke-linejoin: miter; stroke-linecap: square"/>
   </g>
   <g id="patch_11">
    <path d="M 72 504 
L 518.4 504 
" style="fill: none; stroke: #000000; stroke-width: 0.8; stroke-linejoin: miter; stroke-linecap: square"/>
   </g>
   <g id="patch_12">
    <path d="M 72 306.327273 
L 518.4 306.327273 
" style="fill: none; stroke: #000000; stroke-width: 0.8; stroke-linejoin: miter; stroke-linecap: square"/>
   </g>
   <g id="text_27">
    <!-- β -->
    <g transform="translate(291.37125 300.327273)scale(0.12 -0.12)">
     <use xlink:href="#DejaVuSans-3b2"/>
    </g>
   </g>
   <g id="legend_2">
    <g id="patch_13">
     <path d="M 461.675 343.683523 
L 511.4 343.683523 
Q 513.4 343.683523 513.4 341.683523 
L 513.4 313.327273 
Q 513.4 311.327273 511.4 311.327273 
L 461.675 311.327273 
Q 459.675 311.327273 459.675 313.327273 
L 459.675 341.683523 
Q 459.675 343.683523 461.675 343.683523 
z
" style="fill: #ffffff; opacity: 0.8; stroke: #cccccc; stroke-linejoin: miter"/>
    </g>
    <g id="line2d_35">
     <path d="M 463.675 319.42571 
L 473.675 319.42571 
L 483.675 319.42571 
" style="fill: none; stroke: #0d0887; stroke-width: 2; stroke-linecap: square"/>
    </g>
    <g id="text_28">
     <!-- 0° -->
     <g transform="translate(491.675 322.92571)scale(0.1 -0.1)">
      <use xlink:href="#DejaVuSans-30"/>
      <use xlink:href="#DejaVuSans-b0" x="63.623047"/>
     </g>
    </g>
    <g id="line2d_36">
     <path d="M 463.675 334.103835 
L 473.675 334.103835 
L 483.675 334.103835 
" style="fill: none; stroke: #fca636; stroke-width: 2; stroke-linecap: square"/>
    </g>
    <g id="text_29">
     <!-- 90° -->
     <g transform="translate(491.675 337.603835)scale(0.1 -0.1)">
      <use xlink:href="#DejaVuSans-39"/>
      <use xlink:href="#DejaVuSans-30" x="63.623047"/>
      <use xlink:href="#DejaVuSans-b0" x="127.246094"/>
     </g>
    </g>
   </g>
  </g>
 </g>
 <defs>
  <clipPath id="pb5c9bd1396">
   <rect x="72" y="69.12" width="446.4" height="197.672727"/>
  </clipPath>
  <clipPath id="p971efc01a2">
   <rect x="72" y="306.327273" width="446.4" height="197.672727"/>
  </clipPath>
 </defs>
</svg>
