<?xml version="1.0" encoding="utf-8" standalone="no"?>
<!DOCTYPE svg PUBLIC "-//W3C//DTD SVG 1.1//EN"
  "http://www.w3.org/Graphics/SVG/1.1/DTD/svg11.dtd">
<svg xmlns:xlink="http://www.w3.org/1999/xlink" width="576pt" height="576pt" viewBox="0 0 576 576" xmlns="http://www.w3.org/2000/svg" version="1.1">
 <metadata>
  <rdf:RDF xmlns:dc="http://purl.org/dc/elements/1.1/" xmlns:cc="http://creativecommons.org/ns#" xmlns:rdf="http://www.w3.org/1999/02/22-rdf-syntax-ns#">
   <cc:Work>
    <dc:type rdf:resource="http://purl.org/dc/dcmitype/StillImage"/>
    <dc:date>2023-05-08T13:54:15.119342</dc:date>
    <dc:format>image/svg+xml</dc:format>
    <dc:creator>
     <cc:Agent>
      <dc:title>Matplotlib v3.7.1, https://matplotlib.org/</dc:title>
     </cc:Agent>
    </dc:creator>
   </cc:Work>
  </rdf:RDF>
 </metadata>
 <defs>
  <style type="text/css">*{stroke-linejoin: round; stroke-linecap: butt}</style>
 </defs>
 <g id="figure_1">
  <g id="patch_1">
   <path d="M 0 576 
L 576 576 
L 576 0 
L 0 0 
z
" style="fill: #ffffff"/>
  </g>
  <g id="axes_1">
   <g id="patch_2">
    <path d="M 72 270.72 
L 518.4 270.72 
L 518.4 69.12 
L 72 69.12 
z
" style="fill: #ffffff"/>
   </g>
   <g id="matplotlib.axis_1">
    <g id="xtick_1">
     <g id="line2d_1">
      <defs>
       <path id="m9ef2c3f51c" d="M 0 0 
L 0 3.5 
" style="stroke: #000000; stroke-width: 0.8"/>
      </defs>
      <g>
       <use xlink:href="#m9ef2c3f51c" x="72" y="270.72" style="stroke: #000000; stroke-width: 0.8"/>
      </g>
     </g>
    </g>
    <g id="xtick_2">
     <g id="line2d_2">
      <g>
       <use xlink:href="#m9ef2c3f51c" x="135.771429" y="270.72" style="stroke: #000000; stroke-width: 0.8"/>
      </g>
     </g>
    </g>
    <g id="xtick_3">
     <g id="line2d_3">
      <g>
       <use xlink:href="#m9ef2c3f51c" x="199.542857" y="270.72" style="stroke: #000000; stroke-width: 0.8"/>
      </g>
     </g>
    </g>
    <g id="xtick_4">
     <g id="line2d_4">
      <g>
       <use xlink:href="#m9ef2c3f51c" x="263.314286" y="270.72" style="stroke: #000000; stroke-width: 0.8"/>
      </g>
     </g>
    </g>
    <g id="xtick_5">
     <g id="line2d_5">
      <g>
       <use xlink:href="#m9ef2c3f51c" x="327.085714" y="270.72" style="stroke: #000000; stroke-width: 0.8"/>
      </g>
     </g>
    </g>
    <g id="xtick_6">
     <g id="line2d_6">
      <g>
       <use xlink:href="#m9ef2c3f51c" x="390.857143" y="270.72" style="stroke: #000000; stroke-width: 0.8"/>
      </g>
     </g>
    </g>
    <g id="xtick_7">
     <g id="line2d_7">
      <g>
       <use xlink:href="#m9ef2c3f51c" x="454.628571" y="270.72" style="stroke: #000000; stroke-width: 0.8"/>
      </g>
     </g>
    </g>
    <g id="xtick_8">
     <g id="line2d_8">
      <g>
       <use xlink:href="#m9ef2c3f51c" x="518.4" y="270.72" style="stroke: #000000; stroke-width: 0.8"/>
      </g>
     </g>
    </g>
   </g>
   <g id="matplotlib.axis_2">
    <g id="ytick_1">
     <g id="line2d_9">
      <defs>
       <path id="m17732d6553" d="M 0 0 
L -3.5 0 
" style="stroke: #000000; stroke-width: 0.8"/>
      </defs>
      <g>
       <use xlink:href="#m17732d6553" x="72" y="258.210558" style="stroke: #000000; stroke-width: 0.8"/>
      </g>
     </g>
     <g id="text_1">
      <!-- −0.0010 -->
      <g transform="translate(21.629687 262.009777) scale(0.1 -0.1)">
       <defs>
        <path id="DejaVuSans-2212" d="M 678 2272 
L 4684 2272 
L 4684 1741 
L 678 1741 
L 678 2272 
z
" transform="scale(0.015625)"/>
        <path id="DejaVuSans-30" d="M 2034 4250 
Q 1547 4250 1301 3770 
Q 1056 3291 1056 2328 
Q 1056 1369 1301 889 
Q 1547 409 2034 409 
Q 2525 409 2770 889 
Q 3016 1369 3016 2328 
Q 3016 3291 2770 3770 
Q 2525 4250 2034 4250 
z
M 2034 4750 
Q 2819 4750 3233 4129 
Q 3647 3509 3647 2328 
Q 3647 1150 3233 529 
Q 2819 -91 2034 -91 
Q 1250 -91 836 529 
Q 422 1150 422 2328 
Q 422 3509 836 4129 
Q 1250 4750 2034 4750 
z
" transform="scale(0.015625)"/>
        <path id="DejaVuSans-2e" d="M 684 794 
L 1344 794 
L 1344 0 
L 684 0 
L 684 794 
z
" transform="scale(0.015625)"/>
        <path id="DejaVuSans-31" d="M 794 531 
L 1825 531 
L 1825 4091 
L 703 3866 
L 703 4441 
L 1819 4666 
L 2450 4666 
L 2450 531 
L 3481 531 
L 3481 0 
L 794 0 
L 794 531 
z
" transform="scale(0.015625)"/>
       </defs>
       <use xlink:href="#DejaVuSans-2212"/>
       <use xlink:href="#DejaVuSans-30" x="83.789062"/>
       <use xlink:href="#DejaVuSans-2e" x="147.412109"/>
       <use xlink:href="#DejaVuSans-30" x="179.199219"/>
       <use xlink:href="#DejaVuSans-30" x="242.822266"/>
       <use xlink:href="#DejaVuSans-31" x="306.445312"/>
       <use xlink:href="#DejaVuSans-30" x="370.068359"/>
      </g>
     </g>
    </g>
    <g id="ytick_2">
     <g id="line2d_10">
      <g>
       <use xlink:href="#m17732d6553" x="72" y="229.154185" style="stroke: #000000; stroke-width: 0.8"/>
      </g>
     </g>
     <g id="text_2">
      <!-- −0.0005 -->
      <g transform="translate(21.629687 232.953403) scale(0.1 -0.1)">
       <defs>
        <path id="DejaVuSans-35" d="M 691 4666 
L 3169 4666 
L 3169 4134 
L 1269 4134 
L 1269 2991 
Q 1406 3038 1543 3061 
Q 1681 3084 1819 3084 
Q 2600 3084 3056 2656 
Q 3513 2228 3513 1497 
Q 3513 744 3044 326 
Q 2575 -91 1722 -91 
Q 1428 -91 1123 -41 
Q 819 9 494 109 
L 494 744 
Q 775 591 1075 516 
Q 1375 441 1709 441 
Q 2250 441 2565 725 
Q 2881 1009 2881 1497 
Q 2881 1984 2565 2268 
Q 2250 2553 1709 2553 
Q 1456 2553 1204 2497 
Q 953 2441 691 2322 
L 691 4666 
z
" transform="scale(0.015625)"/>
       </defs>
       <use xlink:href="#DejaVuSans-2212"/>
       <use xlink:href="#DejaVuSans-30" x="83.789062"/>
       <use xlink:href="#DejaVuSans-2e" x="147.412109"/>
       <use xlink:href="#DejaVuSans-30" x="179.199219"/>
       <use xlink:href="#DejaVuSans-30" x="242.822266"/>
       <use xlink:href="#DejaVuSans-30" x="306.445312"/>
       <use xlink:href="#DejaVuSans-35" x="370.068359"/>
      </g>
     </g>
    </g>
    <g id="ytick_3">
     <g id="line2d_11">
      <g>
       <use xlink:href="#m17732d6553" x="72" y="200.097811" style="stroke: #000000; stroke-width: 0.8"/>
      </g>
     </g>
     <g id="text_3">
      <!-- 0.0000 -->
      <g transform="translate(30.009375 203.89703) scale(0.1 -0.1)">
       <use xlink:href="#DejaVuSans-30"/>
       <use xlink:href="#DejaVuSans-2e" x="63.623047"/>
       <use xlink:href="#DejaVuSans-30" x="95.410156"/>
       <use xlink:href="#DejaVuSans-30" x="159.033203"/>
       <use xlink:href="#DejaVuSans-30" x="222.65625"/>
       <use xlink:href="#DejaVuSans-30" x="286.279297"/>
      </g>
     </g>
    </g>
    <g id="ytick_4">
     <g id="line2d_12">
      <g>
       <use xlink:href="#m17732d6553" x="72" y="171.041437" style="stroke: #000000; stroke-width: 0.8"/>
      </g>
     </g>
     <g id="text_4">
      <!-- 0.0005 -->
      <g transform="translate(30.009375 174.840656) scale(0.1 -0.1)">
       <use xlink:href="#DejaVuSans-30"/>
       <use xlink:href="#DejaVuSans-2e" x="63.623047"/>
       <use xlink:href="#DejaVuSans-30" x="95.410156"/>
       <use xlink:href="#DejaVuSans-30" x="159.033203"/>
       <use xlink:href="#DejaVuSans-30" x="222.65625"/>
       <use xlink:href="#DejaVuSans-35" x="286.279297"/>
      </g>
     </g>
    </g>
    <g id="ytick_5">
     <g id="line2d_13">
      <g>
       <use xlink:href="#m17732d6553" x="72" y="141.985063" style="stroke: #000000; stroke-width: 0.8"/>
      </g>
     </g>
     <g id="text_5">
      <!-- 0.0010 -->
      <g transform="translate(30.009375 145.784282) scale(0.1 -0.1)">
       <use xlink:href="#DejaVuSans-30"/>
       <use xlink:href="#DejaVuSans-2e" x="63.623047"/>
       <use xlink:href="#DejaVuSans-30" x="95.410156"/>
       <use xlink:href="#DejaVuSans-30" x="159.033203"/>
       <use xlink:href="#DejaVuSans-31" x="222.65625"/>
       <use xlink:href="#DejaVuSans-30" x="286.279297"/>
      </g>
     </g>
    </g>
    <g id="ytick_6">
     <g id="line2d_14">
      <g>
       <use xlink:href="#m17732d6553" x="72" y="112.92869" style="stroke: #000000; stroke-width: 0.8"/>
      </g>
     </g>
     <g id="text_6">
      <!-- 0.0015 -->
      <g transform="translate(30.009375 116.727908) scale(0.1 -0.1)">
       <use xlink:href="#DejaVuSans-30"/>
       <use xlink:href="#DejaVuSans-2e" x="63.623047"/>
       <use xlink:href="#DejaVuSans-30" x="95.410156"/>
       <use xlink:href="#DejaVuSans-30" x="159.033203"/>
       <use xlink:href="#DejaVuSans-31" x="222.65625"/>
       <use xlink:href="#DejaVuSans-35" x="286.279297"/>
      </g>
     </g>
    </g>
    <g id="ytick_7">
     <g id="line2d_15">
      <g>
       <use xlink:href="#m17732d6553" x="72" y="83.872316" style="stroke: #000000; stroke-width: 0.8"/>
      </g>
     </g>
     <g id="text_7">
      <!-- 0.0020 -->
      <g transform="translate(30.009375 87.671534) scale(0.1 -0.1)">
       <defs>
        <path id="DejaVuSans-32" d="M 1228 531 
L 3431 531 
L 3431 0 
L 469 0 
L 469 531 
Q 828 903 1448 1529 
Q 2069 2156 2228 2338 
Q 2531 2678 2651 2914 
Q 2772 3150 2772 3378 
Q 2772 3750 2511 3984 
Q 2250 4219 1831 4219 
Q 1534 4219 1204 4116 
Q 875 4013 500 3803 
L 500 4441 
Q 881 4594 1212 4672 
Q 1544 4750 1819 4750 
Q 2544 4750 2975 4387 
Q 3406 4025 3406 3419 
Q 3406 3131 3298 2873 
Q 3191 2616 2906 2266 
Q 2828 2175 2409 1742 
Q 1991 1309 1228 531 
z
" transform="scale(0.015625)"/>
       </defs>
       <use xlink:href="#DejaVuSans-30"/>
       <use xlink:href="#DejaVuSans-2e" x="63.623047"/>
       <use xlink:href="#DejaVuSans-30" x="95.410156"/>
       <use xlink:href="#DejaVuSans-30" x="159.033203"/>
       <use xlink:href="#DejaVuSans-32" x="222.65625"/>
       <use xlink:href="#DejaVuSans-30" x="286.279297"/>
      </g>
     </g>
    </g>
    <g id="text_8">
     <!-- δ [a.u.] -->
     <g transform="translate(15.55 187.880937) rotate(-90) scale(0.1 -0.1)">
      <defs>
       <path id="DejaVuSans-3b4" d="M 3138 4053 
Q 2819 4272 2072 4272 
Q 1281 4272 1281 3906 
Q 1281 3619 2106 3469 
Q 2756 3353 3122 3003 
Q 3566 2581 3566 1716 
Q 3566 888 3138 400 
Q 2709 -91 1959 -91 
Q 1213 -91 781 400 
Q 353 888 353 1747 
Q 353 2384 781 2900 
Q 947 3100 1181 3213 
Q 694 3459 694 3900 
Q 694 4750 2072 4750 
Q 2763 4750 3138 4531 
L 3138 4053 
z
M 1613 3056 
Q 1400 2966 1228 2738 
Q 959 2384 959 1747 
Q 959 1113 1225 756 
Q 1494 397 1959 397 
Q 2419 397 2687 759 
Q 2956 1122 2956 1716 
Q 2956 2338 2672 2638 
Q 2369 2959 1975 2994 
Q 1775 3013 1613 3056 
z
" transform="scale(0.015625)"/>
       <path id="DejaVuSans-20" transform="scale(0.015625)"/>
       <path id="DejaVuSans-5b" d="M 550 4863 
L 1875 4863 
L 1875 4416 
L 1125 4416 
L 1125 -397 
L 1875 -397 
L 1875 -844 
L 550 -844 
L 550 4863 
z
" transform="scale(0.015625)"/>
       <path id="DejaVuSans-61" d="M 2194 1759 
Q 1497 1759 1228 1600 
Q 959 1441 959 1056 
Q 959 750 1161 570 
Q 1363 391 1709 391 
Q 2188 391 2477 730 
Q 2766 1069 2766 1631 
L 2766 1759 
L 2194 1759 
z
M 3341 1997 
L 3341 0 
L 2766 0 
L 2766 531 
Q 2569 213 2275 61 
Q 1981 -91 1556 -91 
Q 1019 -91 701 211 
Q 384 513 384 1019 
Q 384 1609 779 1909 
Q 1175 2209 1959 2209 
L 2766 2209 
L 2766 2266 
Q 2766 2663 2505 2880 
Q 2244 3097 1772 3097 
Q 1472 3097 1187 3025 
Q 903 2953 641 2809 
L 641 3341 
Q 956 3463 1253 3523 
Q 1550 3584 1831 3584 
Q 2591 3584 2966 3190 
Q 3341 2797 3341 1997 
z
" transform="scale(0.015625)"/>
       <path id="DejaVuSans-75" d="M 544 1381 
L 544 3500 
L 1119 3500 
L 1119 1403 
Q 1119 906 1312 657 
Q 1506 409 1894 409 
Q 2359 409 2629 706 
Q 2900 1003 2900 1516 
L 2900 3500 
L 3475 3500 
L 3475 0 
L 2900 0 
L 2900 538 
Q 2691 219 2414 64 
Q 2138 -91 1772 -91 
Q 1169 -91 856 284 
Q 544 659 544 1381 
z
M 1991 3584 
L 1991 3584 
z
" transform="scale(0.015625)"/>
       <path id="DejaVuSans-5d" d="M 1947 4863 
L 1947 -844 
L 622 -844 
L 622 -397 
L 1369 -397 
L 1369 4416 
L 622 4416 
L 622 4863 
L 1947 4863 
z
" transform="scale(0.015625)"/>
      </defs>
      <use xlink:href="#DejaVuSans-3b4"/>
      <use xlink:href="#DejaVuSans-20" x="61.181641"/>
      <use xlink:href="#DejaVuSans-5b" x="92.96875"/>
      <use xlink:href="#DejaVuSans-61" x="131.982422"/>
      <use xlink:href="#DejaVuSans-2e" x="193.261719"/>
      <use xlink:href="#DejaVuSans-75" x="225.048828"/>
      <use xlink:href="#DejaVuSans-2e" x="288.427734"/>
      <use xlink:href="#DejaVuSans-5d" x="320.214844"/>
     </g>
    </g>
   </g>
   <g id="line2d_16">
    <path d="M -1 122.554282 
L 33.188709 132.322474 
L 84.754286 159.620835 
L 86.640258 161.415036 
L 88.52623 162.916686 
L 92.298174 164.92153 
L 94.184146 166.950808 
L 96.070118 168.658685 
L 97.95609 171.24433 
L 99.842062 175.000848 
L 101.728034 177.101884 
L 103.614006 179.382484 
L 107.385951 185.86736 
L 111.157895 191.670224 
L 113.043867 197.49417 
L 116.815811 210.347874 
L 118.701783 218.606083 
L 120.587755 230.047779 
L 122.473727 249.005984 
L 124.359699 265.01434 
L 126.245671 259.219504 
L 128.131643 241.363358 
L 130.017615 239.538104 
L 131.903588 236.471766 
L 133.78956 202.565483 
L 135.675532 164.88841 
L 137.561504 159.968291 
L 139.447476 179.406172 
L 141.333448 201.018108 
L 143.21942 212.713031 
L 145.105392 210.51122 
L 146.991364 205.299843 
L 148.877336 201.401767 
L 150.763308 195.030466 
L 152.64928 185.214424 
L 154.535252 179.286604 
L 156.421224 182.824695 
L 158.307197 192.061825 
L 160.193169 195.676637 
L 162.079141 189.328467 
L 163.965113 181.057447 
L 165.851085 174.956044 
L 167.737057 172.890483 
L 169.623029 169.728708 
L 171.509001 156.104842 
L 173.394973 135.885291 
L 175.280945 119.319044 
L 177.166917 111.186234 
L 179.052889 110.868819 
L 180.938861 112.69609 
L 182.824834 113.901737 
L 184.710806 115.335707 
L 186.596778 116.58697 
L 188.48275 118.870707 
L 190.368722 118.629076 
L 192.254694 114.858402 
L 194.140666 112.211031 
L 196.026638 111.74642 
L 197.91261 112.425961 
L 199.798582 114.076424 
L 201.684554 116.622037 
L 203.570526 119.921348 
L 205.456498 122.589947 
L 207.34247 122.235797 
L 209.228443 123.039145 
L 211.114415 124.17661 
L 213.000387 124.72493 
L 214.886359 123.549915 
L 216.772331 121.247631 
L 220.544275 116.966531 
L 222.430247 115.671786 
L 226.202191 108.697542 
L 228.088163 107.316361 
L 229.974135 104.901158 
L 231.860107 101.907325 
L 233.746079 100.440296 
L 235.632052 100.183352 
L 237.518024 99.516947 
L 239.403996 97.581467 
L 241.289968 96.705362 
L 243.17594 96.243282 
L 245.061912 95.192683 
L 246.947884 94.535632 
L 248.833856 93.428959 
L 250.719828 92.146174 
L 252.6058 92.270137 
L 254.491772 92.555638 
L 256.377744 91.29794 
L 258.263716 90.258212 
L 260.149689 90.048656 
L 262.035661 90.009637 
L 263.921633 89.396118 
L 265.807605 89.828693 
L 267.693577 89.273213 
L 269.579549 89.217537 
L 271.465521 90.074444 
L 273.351493 89.875158 
L 275.237465 89.970882 
L 277.123437 90.207398 
L 279.009409 89.433339 
L 280.895381 89.393939 
L 282.781353 90.173045 
L 284.667325 89.936355 
L 286.553298 89.995336 
L 288.43927 89.038907 
L 290.325242 89.671882 
L 292.211214 91.025347 
L 295.983158 90.535778 
L 297.86913 90.612724 
L 301.641074 91.74313 
L 303.527046 91.852331 
L 307.29899 91.546114 
L 311.070934 91.701044 
L 312.956907 91.444701 
L 314.842879 91.34173 
L 318.614823 91.730312 
L 320.500795 92.116042 
L 322.386767 92.318852 
L 324.272739 91.91863 
L 326.158711 91.791077 
L 328.044683 91.902464 
L 331.816627 91.499568 
L 333.702599 91.980474 
L 339.360516 94.344767 
L 341.246488 94.710922 
L 345.018432 94.543343 
L 348.790376 95.264148 
L 352.56232 95.959146 
L 354.448292 95.95712 
L 356.334264 95.45187 
L 363.878153 94.299289 
L 367.650097 94.703131 
L 371.422041 94.90556 
L 375.193985 95.404946 
L 378.965929 96.566201 
L 380.851901 96.753848 
L 384.623845 96.939289 
L 388.395789 97.758715 
L 390.281762 98.015995 
L 392.167734 97.982384 
L 394.053706 97.647446 
L 395.939678 97.074247 
L 397.82565 96.688202 
L 399.711622 97.044659 
L 401.597594 97.857806 
L 403.483566 98.452804 
L 405.369538 98.485787 
L 407.25551 98.091055 
L 411.027454 98.302566 
L 412.913426 97.883669 
L 414.799398 97.797492 
L 418.571343 98.245201 
L 424.229259 98.979219 
L 428.001203 99.113781 
L 431.773147 99.718372 
L 433.659119 99.789912 
L 435.545091 100.082151 
L 437.431063 100.067114 
L 439.317035 99.399441 
L 441.203008 99.193537 
L 443.08898 99.272421 
L 444.974952 98.874084 
L 448.746896 97.403613 
L 450.632868 97.079974 
L 454.404812 97.151771 
L 458.176756 98.749932 
L 460.062728 99.011096 
L 463.834672 98.901192 
L 471.378561 98.321449 
L 473.264533 98.599923 
L 475.150505 99.105931 
L 477.036477 99.483838 
L 478.922449 99.666664 
L 480.808421 99.621387 
L 484.580365 99.094798 
L 486.466337 98.668183 
L 490.238281 97.482217 
L 492.124253 97.17772 
L 495.896198 97.442856 
L 497.78217 97.033535 
L 499.668142 96.479069 
L 501.554114 96.341214 
L 503.440086 96.627852 
L 507.21203 97.473671 
L 509.098002 97.738548 
L 510.983974 97.803605 
L 512.869946 98.142383 
L 514.755918 98.748107 
L 516.64189 99.133978 
L 518.527863 99.162014 
L 520.413835 98.774833 
L 522.299807 98.650731 
L 524.185779 98.82303 
L 526.071751 98.632074 
L 527.957723 98.192174 
L 529.843695 97.906483 
L 533.615639 98.156046 
L 539.273555 97.895925 
L 543.045499 96.873192 
L 546.817444 97.483703 
L 548.703416 96.776502 
L 550.589388 96.264645 
L 556.247304 98.084423 
L 558.133276 98.532192 
L 561.90522 98.978119 
L 563.791192 98.734325 
L 565.677164 97.99418 
L 567.563136 97.495484 
L 569.449108 97.640658 
L 571.335081 98.013063 
L 575.107025 98.366697 
L 577 98.241865 
L 577 98.241865 
" clip-path="url(#p7e3648f25d)" style="fill: none; stroke: #440154; stroke-width: 2; stroke-linecap: square"/>
   </g>
   <g id="line2d_17">
    <path d="M -1 121.47068 
L 33.188709 129.459496 
L 84.754286 146.746276 
L 86.640258 147.541117 
L 88.52623 148.135076 
L 90.412202 149.190198 
L 92.298174 150.543507 
L 94.184146 151.291699 
L 96.070118 151.905478 
L 101.728034 154.589857 
L 103.614006 155.894535 
L 109.271923 159.450852 
L 111.157895 161.062728 
L 113.043867 162.390434 
L 114.929839 162.859235 
L 116.815811 163.701646 
L 118.701783 165.253665 
L 120.587755 167.274581 
L 124.359699 168.820917 
L 126.245671 171.461345 
L 128.131643 174.815486 
L 130.017615 177.279948 
L 131.903588 178.729956 
L 135.675532 184.362583 
L 137.561504 186.582125 
L 139.447476 188.330461 
L 141.333448 190.549963 
L 143.21942 193.292663 
L 145.105392 197.534624 
L 146.991364 202.860692 
L 148.877336 208.989361 
L 150.763308 217.957595 
L 152.64928 229.34405 
L 154.535252 230.457276 
L 156.421224 222.122019 
L 158.307197 217.985599 
L 160.193169 219.336042 
L 162.079141 221.416116 
L 163.965113 218.439957 
L 165.851085 213.362303 
L 167.737057 209.042999 
L 169.623029 206.094926 
L 171.509001 204.053091 
L 173.394973 201.51835 
L 175.280945 200.040966 
L 177.166917 199.332848 
L 180.938861 199.182394 
L 182.824834 199.523178 
L 184.710806 200.34476 
L 186.596778 201.878437 
L 188.48275 202.95509 
L 190.368722 203.219607 
L 192.254694 203.341361 
L 194.140666 202.768552 
L 196.026638 201.183133 
L 197.91261 199.031908 
L 199.798582 196.371897 
L 201.684554 193.321888 
L 203.570526 191.636672 
L 205.456498 190.271721 
L 207.34247 190.289098 
L 209.228443 189.726785 
L 211.114415 188.999626 
L 213.000387 187.357694 
L 214.886359 185.288349 
L 216.772331 183.676129 
L 220.544275 179.460283 
L 222.430247 176.809855 
L 224.316219 175.586002 
L 226.202191 173.57758 
L 228.088163 170.505062 
L 229.974135 168.901149 
L 231.860107 167.673435 
L 233.746079 166.289204 
L 235.632052 164.381036 
L 237.518024 161.594294 
L 239.403996 159.748638 
L 245.061912 154.9136 
L 246.947884 153.262257 
L 250.719828 151.114206 
L 254.491772 147.860208 
L 256.377744 147.032677 
L 258.263716 145.891865 
L 262.035661 143.195407 
L 263.921633 141.789759 
L 265.807605 140.244543 
L 269.579549 138.006118 
L 271.465521 136.36881 
L 275.237465 133.777336 
L 279.009409 131.883977 
L 286.553298 126.714051 
L 297.86913 120.640981 
L 303.527046 117.718681 
L 309.184962 114.549195 
L 312.956907 112.885145 
L 320.500795 108.404847 
L 324.272739 106.69982 
L 328.044683 105.40182 
L 329.930655 104.889372 
L 331.816627 104.243778 
L 337.474544 101.533627 
L 343.13246 99.331864 
L 350.676348 96.45417 
L 360.106208 91.847028 
L 361.99218 91.206464 
L 367.650097 88.704836 
L 369.536069 87.745591 
L 373.308013 85.574027 
L 375.193985 84.884788 
L 378.965929 84.045523 
L 384.623845 82.217125 
L 386.509817 81.560341 
L 388.395789 81.456419 
L 390.281762 81.60108 
L 392.167734 81.265103 
L 394.053706 80.680838 
L 395.939678 80.2234 
L 397.82565 79.971787 
L 399.711622 79.55243 
L 403.483566 78.465789 
L 407.25551 77.658609 
L 411.027454 76.503078 
L 412.913426 76.251902 
L 416.685371 76.103656 
L 420.457315 75.526776 
L 424.229259 74.82566 
L 426.115231 75.01382 
L 428.001203 75.555229 
L 429.887175 75.835016 
L 433.659119 75.573568 
L 435.545091 75.400121 
L 437.431063 75.404428 
L 441.203008 76.473491 
L 444.974952 77.046037 
L 446.860924 77.474894 
L 448.746896 78.037098 
L 450.632868 78.35533 
L 452.51884 78.414934 
L 454.404812 78.602721 
L 456.290784 78.548726 
L 458.176756 78.312366 
L 461.9487 78.137303 
L 463.834672 78.453407 
L 465.720644 78.958717 
L 469.492589 79.55292 
L 471.378561 79.658804 
L 475.150505 79.087859 
L 477.036477 79.376244 
L 486.466337 82.422037 
L 488.352309 82.93897 
L 495.896198 83.822801 
L 497.78217 83.971843 
L 499.668142 84.249825 
L 503.440086 85.126345 
L 505.326058 85.303127 
L 507.21203 85.31629 
L 509.098002 85.204882 
L 512.869946 84.53346 
L 514.755918 84.62513 
L 522.299807 85.746145 
L 526.071751 85.876461 
L 529.843695 86.372878 
L 535.501611 87.345306 
L 537.387583 87.723906 
L 543.045499 88.384597 
L 546.817444 88.49198 
L 550.589388 89.207751 
L 558.133276 89.317563 
L 563.791192 89.272729 
L 565.677164 89.659405 
L 567.563136 90.201027 
L 569.449108 90.496874 
L 571.335081 90.564933 
L 577 90.322623 
L 577 90.322623 
" clip-path="url(#p7e3648f25d)" style="fill: none; stroke: #7ad151; stroke-width: 2; stroke-linecap: square"/>
   </g>
   <g id="patch_3">
    <path d="M 72 270.72 
L 72 69.12 
" style="fill: none; stroke: #000000; stroke-width: 0.8; stroke-linejoin: miter; stroke-linecap: square"/>
   </g>
   <g id="patch_4">
    <path d="M 518.4 270.72 
L 518.4 69.12 
" style="fill: none; stroke: #000000; stroke-width: 0.8; stroke-linejoin: miter; stroke-linecap: square"/>
   </g>
   <g id="patch_5">
    <path d="M 72 270.72 
L 518.4 270.72 
" style="fill: none; stroke: #000000; stroke-width: 0.8; stroke-linejoin: miter; stroke-linecap: square"/>
   </g>
   <g id="patch_6">
    <path d="M 72 69.12 
L 518.4 69.12 
" style="fill: none; stroke: #000000; stroke-width: 0.8; stroke-linejoin: miter; stroke-linecap: square"/>
   </g>
   <g id="text_9">
    <!-- δ -->
    <g transform="translate(291.52875 63.12) scale(0.12 -0.12)">
     <use xlink:href="#DejaVuSans-3b4"/>
    </g>
   </g>
   <g id="legend_1">
    <g id="patch_7">
     <path d="M 461.675 265.72 
L 511.4 265.72 
Q 513.4 265.72 513.4 263.72 
L 513.4 235.36375 
Q 513.4 233.36375 511.4 233.36375 
L 461.675 233.36375 
Q 459.675 233.36375 459.675 235.36375 
L 459.675 263.72 
Q 459.675 265.72 461.675 265.72 
z
" style="fill: #ffffff; opacity: 0.8; stroke: #cccccc; stroke-linejoin: miter"/>
    </g>
    <g id="line2d_18">
     <path d="M 463.675 241.462187 
L 473.675 241.462187 
L 483.675 241.462187 
" style="fill: none; stroke: #440154; stroke-width: 2; stroke-linecap: square"/>
    </g>
    <g id="text_10">
     <!-- 0° -->
     <g transform="translate(491.675 244.962187) scale(0.1 -0.1)">
      <defs>
       <path id="DejaVuSans-b0" d="M 1600 4347 
Q 1350 4347 1178 4173 
Q 1006 4000 1006 3750 
Q 1006 3503 1178 3333 
Q 1350 3163 1600 3163 
Q 1850 3163 2022 3333 
Q 2194 3503 2194 3750 
Q 2194 3997 2020 4172 
Q 1847 4347 1600 4347 
z
M 1600 4750 
Q 1800 4750 1984 4673 
Q 2169 4597 2303 4453 
Q 2447 4313 2519 4134 
Q 2591 3956 2591 3750 
Q 2591 3338 2302 3052 
Q 2013 2766 1594 2766 
Q 1172 2766 890 3047 
Q 609 3328 609 3750 
Q 609 4169 896 4459 
Q 1184 4750 1600 4750 
z
" transform="scale(0.015625)"/>
      </defs>
      <use xlink:href="#DejaVuSans-30"/>
      <use xlink:href="#DejaVuSans-b0" x="63.623047"/>
     </g>
    </g>
    <g id="line2d_19">
     <path d="M 463.675 256.140312 
L 473.675 256.140312 
L 483.675 256.140312 
" style="fill: none; stroke: #7ad151; stroke-width: 2; stroke-linecap: square"/>
    </g>
    <g id="text_11">
     <!-- 90° -->
     <g transform="translate(491.675 259.640312) scale(0.1 -0.1)">
      <defs>
       <path id="DejaVuSans-39" d="M 703 97 
L 703 672 
Q 941 559 1184 500 
Q 1428 441 1663 441 
Q 2288 441 2617 861 
Q 2947 1281 2994 2138 
Q 2813 1869 2534 1725 
Q 2256 1581 1919 1581 
Q 1219 1581 811 2004 
Q 403 2428 403 3163 
Q 403 3881 828 4315 
Q 1253 4750 1959 4750 
Q 2769 4750 3195 4129 
Q 3622 3509 3622 2328 
Q 3622 1225 3098 567 
Q 2575 -91 1691 -91 
Q 1453 -91 1209 -44 
Q 966 3 703 97 
z
M 1959 2075 
Q 2384 2075 2632 2365 
Q 2881 2656 2881 3163 
Q 2881 3666 2632 3958 
Q 2384 4250 1959 4250 
Q 1534 4250 1286 3958 
Q 1038 3666 1038 3163 
Q 1038 2656 1286 2365 
Q 1534 2075 1959 2075 
z
" transform="scale(0.015625)"/>
      </defs>
      <use xlink:href="#DejaVuSans-39"/>
      <use xlink:href="#DejaVuSans-30" x="63.623047"/>
      <use xlink:href="#DejaVuSans-b0" x="127.246094"/>
     </g>
    </g>
   </g>
  </g>
  <g id="axes_2">
   <g id="patch_8">
    <path d="M 72 512.64 
L 518.4 512.64 
L 518.4 311.04 
L 72 311.04 
z
" style="fill: #ffffff"/>
   </g>
   <g id="matplotlib.axis_3">
    <g id="xtick_9">
     <g id="line2d_20">
      <g>
       <use xlink:href="#m9ef2c3f51c" x="72" y="512.64" style="stroke: #000000; stroke-width: 0.8"/>
      </g>
     </g>
     <g id="text_12">
      <!-- 280 -->
      <g transform="translate(62.45625 527.238438) scale(0.1 -0.1)">
       <defs>
        <path id="DejaVuSans-38" d="M 2034 2216 
Q 1584 2216 1326 1975 
Q 1069 1734 1069 1313 
Q 1069 891 1326 650 
Q 1584 409 2034 409 
Q 2484 409 2743 651 
Q 3003 894 3003 1313 
Q 3003 1734 2745 1975 
Q 2488 2216 2034 2216 
z
M 1403 2484 
Q 997 2584 770 2862 
Q 544 3141 544 3541 
Q 544 4100 942 4425 
Q 1341 4750 2034 4750 
Q 2731 4750 3128 4425 
Q 3525 4100 3525 3541 
Q 3525 3141 3298 2862 
Q 3072 2584 2669 2484 
Q 3125 2378 3379 2068 
Q 3634 1759 3634 1313 
Q 3634 634 3220 271 
Q 2806 -91 2034 -91 
Q 1263 -91 848 271 
Q 434 634 434 1313 
Q 434 1759 690 2068 
Q 947 2378 1403 2484 
z
M 1172 3481 
Q 1172 3119 1398 2916 
Q 1625 2713 2034 2713 
Q 2441 2713 2670 2916 
Q 2900 3119 2900 3481 
Q 2900 3844 2670 4047 
Q 2441 4250 2034 4250 
Q 1625 4250 1398 4047 
Q 1172 3844 1172 3481 
z
" transform="scale(0.015625)"/>
       </defs>
       <use xlink:href="#DejaVuSans-32"/>
       <use xlink:href="#DejaVuSans-38" x="63.623047"/>
       <use xlink:href="#DejaVuSans-30" x="127.246094"/>
      </g>
     </g>
    </g>
    <g id="xtick_10">
     <g id="line2d_21">
      <g>
       <use xlink:href="#m9ef2c3f51c" x="135.771429" y="512.64" style="stroke: #000000; stroke-width: 0.8"/>
      </g>
     </g>
     <g id="text_13">
      <!-- 285 -->
      <g transform="translate(126.227679 527.238438) scale(0.1 -0.1)">
       <use xlink:href="#DejaVuSans-32"/>
       <use xlink:href="#DejaVuSans-38" x="63.623047"/>
       <use xlink:href="#DejaVuSans-35" x="127.246094"/>
      </g>
     </g>
    </g>
    <g id="xtick_11">
     <g id="line2d_22">
      <g>
       <use xlink:href="#m9ef2c3f51c" x="199.542857" y="512.64" style="stroke: #000000; stroke-width: 0.8"/>
      </g>
     </g>
     <g id="text_14">
      <!-- 290 -->
      <g transform="translate(189.999107 527.238438) scale(0.1 -0.1)">
       <use xlink:href="#DejaVuSans-32"/>
       <use xlink:href="#DejaVuSans-39" x="63.623047"/>
       <use xlink:href="#DejaVuSans-30" x="127.246094"/>
      </g>
     </g>
    </g>
    <g id="xtick_12">
     <g id="line2d_23">
      <g>
       <use xlink:href="#m9ef2c3f51c" x="263.314286" y="512.64" style="stroke: #000000; stroke-width: 0.8"/>
      </g>
     </g>
     <g id="text_15">
      <!-- 295 -->
      <g transform="translate(253.770536 527.238438) scale(0.1 -0.1)">
       <use xlink:href="#DejaVuSans-32"/>
       <use xlink:href="#DejaVuSans-39" x="63.623047"/>
       <use xlink:href="#DejaVuSans-35" x="127.246094"/>
      </g>
     </g>
    </g>
    <g id="xtick_13">
     <g id="line2d_24">
      <g>
       <use xlink:href="#m9ef2c3f51c" x="327.085714" y="512.64" style="stroke: #000000; stroke-width: 0.8"/>
      </g>
     </g>
     <g id="text_16">
      <!-- 300 -->
      <g transform="translate(317.541964 527.238438) scale(0.1 -0.1)">
       <defs>
        <path id="DejaVuSans-33" d="M 2597 2516 
Q 3050 2419 3304 2112 
Q 3559 1806 3559 1356 
Q 3559 666 3084 287 
Q 2609 -91 1734 -91 
Q 1441 -91 1130 -33 
Q 819 25 488 141 
L 488 750 
Q 750 597 1062 519 
Q 1375 441 1716 441 
Q 2309 441 2620 675 
Q 2931 909 2931 1356 
Q 2931 1769 2642 2001 
Q 2353 2234 1838 2234 
L 1294 2234 
L 1294 2753 
L 1863 2753 
Q 2328 2753 2575 2939 
Q 2822 3125 2822 3475 
Q 2822 3834 2567 4026 
Q 2313 4219 1838 4219 
Q 1578 4219 1281 4162 
Q 984 4106 628 3988 
L 628 4550 
Q 988 4650 1302 4700 
Q 1616 4750 1894 4750 
Q 2613 4750 3031 4423 
Q 3450 4097 3450 3541 
Q 3450 3153 3228 2886 
Q 3006 2619 2597 2516 
z
" transform="scale(0.015625)"/>
       </defs>
       <use xlink:href="#DejaVuSans-33"/>
       <use xlink:href="#DejaVuSans-30" x="63.623047"/>
       <use xlink:href="#DejaVuSans-30" x="127.246094"/>
      </g>
     </g>
    </g>
    <g id="xtick_14">
     <g id="line2d_25">
      <g>
       <use xlink:href="#m9ef2c3f51c" x="390.857143" y="512.64" style="stroke: #000000; stroke-width: 0.8"/>
      </g>
     </g>
     <g id="text_17">
      <!-- 305 -->
      <g transform="translate(381.313393 527.238438) scale(0.1 -0.1)">
       <use xlink:href="#DejaVuSans-33"/>
       <use xlink:href="#DejaVuSans-30" x="63.623047"/>
       <use xlink:href="#DejaVuSans-35" x="127.246094"/>
      </g>
     </g>
    </g>
    <g id="xtick_15">
     <g id="line2d_26">
      <g>
       <use xlink:href="#m9ef2c3f51c" x="454.628571" y="512.64" style="stroke: #000000; stroke-width: 0.8"/>
      </g>
     </g>
     <g id="text_18">
      <!-- 310 -->
      <g transform="translate(445.084821 527.238438) scale(0.1 -0.1)">
       <use xlink:href="#DejaVuSans-33"/>
       <use xlink:href="#DejaVuSans-31" x="63.623047"/>
       <use xlink:href="#DejaVuSans-30" x="127.246094"/>
      </g>
     </g>
    </g>
    <g id="xtick_16">
     <g id="line2d_27">
      <g>
       <use xlink:href="#m9ef2c3f51c" x="518.4" y="512.64" style="stroke: #000000; stroke-width: 0.8"/>
      </g>
     </g>
     <g id="text_19">
      <!-- 315 -->
      <g transform="translate(508.85625 527.238438) scale(0.1 -0.1)">
       <use xlink:href="#DejaVuSans-33"/>
       <use xlink:href="#DejaVuSans-31" x="63.623047"/>
       <use xlink:href="#DejaVuSans-35" x="127.246094"/>
      </g>
     </g>
    </g>
    <g id="text_20">
     <!-- energy [eV] -->
     <g transform="translate(265.789062 540.916563) scale(0.1 -0.1)">
      <defs>
       <path id="DejaVuSans-65" d="M 3597 1894 
L 3597 1613 
L 953 1613 
Q 991 1019 1311 708 
Q 1631 397 2203 397 
Q 2534 397 2845 478 
Q 3156 559 3463 722 
L 3463 178 
Q 3153 47 2828 -22 
Q 2503 -91 2169 -91 
Q 1331 -91 842 396 
Q 353 884 353 1716 
Q 353 2575 817 3079 
Q 1281 3584 2069 3584 
Q 2775 3584 3186 3129 
Q 3597 2675 3597 1894 
z
M 3022 2063 
Q 3016 2534 2758 2815 
Q 2500 3097 2075 3097 
Q 1594 3097 1305 2825 
Q 1016 2553 972 2059 
L 3022 2063 
z
" transform="scale(0.015625)"/>
       <path id="DejaVuSans-6e" d="M 3513 2113 
L 3513 0 
L 2938 0 
L 2938 2094 
Q 2938 2591 2744 2837 
Q 2550 3084 2163 3084 
Q 1697 3084 1428 2787 
Q 1159 2491 1159 1978 
L 1159 0 
L 581 0 
L 581 3500 
L 1159 3500 
L 1159 2956 
Q 1366 3272 1645 3428 
Q 1925 3584 2291 3584 
Q 2894 3584 3203 3211 
Q 3513 2838 3513 2113 
z
" transform="scale(0.015625)"/>
       <path id="DejaVuSans-72" d="M 2631 2963 
Q 2534 3019 2420 3045 
Q 2306 3072 2169 3072 
Q 1681 3072 1420 2755 
Q 1159 2438 1159 1844 
L 1159 0 
L 581 0 
L 581 3500 
L 1159 3500 
L 1159 2956 
Q 1341 3275 1631 3429 
Q 1922 3584 2338 3584 
Q 2397 3584 2469 3576 
Q 2541 3569 2628 3553 
L 2631 2963 
z
" transform="scale(0.015625)"/>
       <path id="DejaVuSans-67" d="M 2906 1791 
Q 2906 2416 2648 2759 
Q 2391 3103 1925 3103 
Q 1463 3103 1205 2759 
Q 947 2416 947 1791 
Q 947 1169 1205 825 
Q 1463 481 1925 481 
Q 2391 481 2648 825 
Q 2906 1169 2906 1791 
z
M 3481 434 
Q 3481 -459 3084 -895 
Q 2688 -1331 1869 -1331 
Q 1566 -1331 1297 -1286 
Q 1028 -1241 775 -1147 
L 775 -588 
Q 1028 -725 1275 -790 
Q 1522 -856 1778 -856 
Q 2344 -856 2625 -561 
Q 2906 -266 2906 331 
L 2906 616 
Q 2728 306 2450 153 
Q 2172 0 1784 0 
Q 1141 0 747 490 
Q 353 981 353 1791 
Q 353 2603 747 3093 
Q 1141 3584 1784 3584 
Q 2172 3584 2450 3431 
Q 2728 3278 2906 2969 
L 2906 3500 
L 3481 3500 
L 3481 434 
z
" transform="scale(0.015625)"/>
       <path id="DejaVuSans-79" d="M 2059 -325 
Q 1816 -950 1584 -1140 
Q 1353 -1331 966 -1331 
L 506 -1331 
L 506 -850 
L 844 -850 
Q 1081 -850 1212 -737 
Q 1344 -625 1503 -206 
L 1606 56 
L 191 3500 
L 800 3500 
L 1894 763 
L 2988 3500 
L 3597 3500 
L 2059 -325 
z
" transform="scale(0.015625)"/>
       <path id="DejaVuSans-56" d="M 1831 0 
L 50 4666 
L 709 4666 
L 2188 738 
L 3669 4666 
L 4325 4666 
L 2547 0 
L 1831 0 
z
" transform="scale(0.015625)"/>
      </defs>
      <use xlink:href="#DejaVuSans-65"/>
      <use xlink:href="#DejaVuSans-6e" x="61.523438"/>
      <use xlink:href="#DejaVuSans-65" x="124.902344"/>
      <use xlink:href="#DejaVuSans-72" x="186.425781"/>
      <use xlink:href="#DejaVuSans-67" x="225.789062"/>
      <use xlink:href="#DejaVuSans-79" x="289.265625"/>
      <use xlink:href="#DejaVuSans-20" x="348.445312"/>
      <use xlink:href="#DejaVuSans-5b" x="380.232422"/>
      <use xlink:href="#DejaVuSans-65" x="419.246094"/>
      <use xlink:href="#DejaVuSans-56" x="480.769531"/>
      <use xlink:href="#DejaVuSans-5d" x="549.177734"/>
     </g>
    </g>
   </g>
   <g id="matplotlib.axis_4">
    <g id="ytick_8">
     <g id="line2d_28">
      <g>
       <use xlink:href="#m17732d6553" x="72" y="512.64" style="stroke: #000000; stroke-width: 0.8"/>
      </g>
     </g>
     <g id="text_21">
      <!-- 0.0000 -->
      <g transform="translate(30.009375 516.439219) scale(0.1 -0.1)">
       <use xlink:href="#DejaVuSans-30"/>
       <use xlink:href="#DejaVuSans-2e" x="63.623047"/>
       <use xlink:href="#DejaVuSans-30" x="95.410156"/>
       <use xlink:href="#DejaVuSans-30" x="159.033203"/>
       <use xlink:href="#DejaVuSans-30" x="222.65625"/>
       <use xlink:href="#DejaVuSans-30" x="286.279297"/>
      </g>
     </g>
    </g>
    <g id="ytick_9">
     <g id="line2d_29">
      <g>
       <use xlink:href="#m17732d6553" x="72" y="479.721906" style="stroke: #000000; stroke-width: 0.8"/>
      </g>
     </g>
     <g id="text_22">
      <!-- 0.0005 -->
      <g transform="translate(30.009375 483.521125) scale(0.1 -0.1)">
       <use xlink:href="#DejaVuSans-30"/>
       <use xlink:href="#DejaVuSans-2e" x="63.623047"/>
       <use xlink:href="#DejaVuSans-30" x="95.410156"/>
       <use xlink:href="#DejaVuSans-30" x="159.033203"/>
       <use xlink:href="#DejaVuSans-30" x="222.65625"/>
       <use xlink:href="#DejaVuSans-35" x="286.279297"/>
      </g>
     </g>
    </g>
    <g id="ytick_10">
     <g id="line2d_30">
      <g>
       <use xlink:href="#m17732d6553" x="72" y="446.803813" style="stroke: #000000; stroke-width: 0.8"/>
      </g>
     </g>
     <g id="text_23">
      <!-- 0.0010 -->
      <g transform="translate(30.009375 450.603032) scale(0.1 -0.1)">
       <use xlink:href="#DejaVuSans-30"/>
       <use xlink:href="#DejaVuSans-2e" x="63.623047"/>
       <use xlink:href="#DejaVuSans-30" x="95.410156"/>
       <use xlink:href="#DejaVuSans-30" x="159.033203"/>
       <use xlink:href="#DejaVuSans-31" x="222.65625"/>
       <use xlink:href="#DejaVuSans-30" x="286.279297"/>
      </g>
     </g>
    </g>
    <g id="ytick_11">
     <g id="line2d_31">
      <g>
       <use xlink:href="#m17732d6553" x="72" y="413.885719" style="stroke: #000000; stroke-width: 0.8"/>
      </g>
     </g>
     <g id="text_24">
      <!-- 0.0015 -->
      <g transform="translate(30.009375 417.684938) scale(0.1 -0.1)">
       <use xlink:href="#DejaVuSans-30"/>
       <use xlink:href="#DejaVuSans-2e" x="63.623047"/>
       <use xlink:href="#DejaVuSans-30" x="95.410156"/>
       <use xlink:href="#DejaVuSans-30" x="159.033203"/>
       <use xlink:href="#DejaVuSans-31" x="222.65625"/>
       <use xlink:href="#DejaVuSans-35" x="286.279297"/>
      </g>
     </g>
    </g>
    <g id="ytick_12">
     <g id="line2d_32">
      <g>
       <use xlink:href="#m17732d6553" x="72" y="380.967626" style="stroke: #000000; stroke-width: 0.8"/>
      </g>
     </g>
     <g id="text_25">
      <!-- 0.0020 -->
      <g transform="translate(30.009375 384.766845) scale(0.1 -0.1)">
       <use xlink:href="#DejaVuSans-30"/>
       <use xlink:href="#DejaVuSans-2e" x="63.623047"/>
       <use xlink:href="#DejaVuSans-30" x="95.410156"/>
       <use xlink:href="#DejaVuSans-30" x="159.033203"/>
       <use xlink:href="#DejaVuSans-32" x="222.65625"/>
       <use xlink:href="#DejaVuSans-30" x="286.279297"/>
      </g>
     </g>
    </g>
    <g id="ytick_13">
     <g id="line2d_33">
      <g>
       <use xlink:href="#m17732d6553" x="72" y="348.049532" style="stroke: #000000; stroke-width: 0.8"/>
      </g>
     </g>
     <g id="text_26">
      <!-- 0.0025 -->
      <g transform="translate(30.009375 351.848751) scale(0.1 -0.1)">
       <use xlink:href="#DejaVuSans-30"/>
       <use xlink:href="#DejaVuSans-2e" x="63.623047"/>
       <use xlink:href="#DejaVuSans-30" x="95.410156"/>
       <use xlink:href="#DejaVuSans-30" x="159.033203"/>
       <use xlink:href="#DejaVuSans-32" x="222.65625"/>
       <use xlink:href="#DejaVuSans-35" x="286.279297"/>
      </g>
     </g>
    </g>
    <g id="ytick_14">
     <g id="line2d_34">
      <g>
       <use xlink:href="#m17732d6553" x="72" y="315.131439" style="stroke: #000000; stroke-width: 0.8"/>
      </g>
     </g>
     <g id="text_27">
      <!-- 0.0030 -->
      <g transform="translate(30.009375 318.930657) scale(0.1 -0.1)">
       <use xlink:href="#DejaVuSans-30"/>
       <use xlink:href="#DejaVuSans-2e" x="63.623047"/>
       <use xlink:href="#DejaVuSans-30" x="95.410156"/>
       <use xlink:href="#DejaVuSans-30" x="159.033203"/>
       <use xlink:href="#DejaVuSans-33" x="222.65625"/>
       <use xlink:href="#DejaVuSans-30" x="286.279297"/>
      </g>
     </g>
    </g>
    <g id="text_28">
     <!-- β [a.u.] -->
     <g transform="translate(23.929687 429.932187) rotate(-90) scale(0.1 -0.1)">
      <defs>
       <path id="DejaVuSans-3b2" d="M 1178 216 
L 1178 -1331 
L 600 -1331 
L 600 3478 
Q 600 4903 1931 4903 
Q 3288 4903 3288 3700 
Q 3288 2844 2750 2531 
Q 3625 2250 3625 1416 
Q 3625 -66 2119 -66 
Q 1456 -66 1178 216 
z
M 1178 966 
Q 1525 425 2141 425 
Q 3041 425 3041 1406 
Q 3041 2288 1591 2219 
L 1591 2750 
Q 2725 2750 2725 3750 
Q 2725 4434 1994 4434 
Q 1178 4434 1178 3459 
L 1178 966 
z
" transform="scale(0.015625)"/>
      </defs>
      <use xlink:href="#DejaVuSans-3b2"/>
      <use xlink:href="#DejaVuSans-20" x="63.818359"/>
      <use xlink:href="#DejaVuSans-5b" x="95.605469"/>
      <use xlink:href="#DejaVuSans-61" x="134.619141"/>
      <use xlink:href="#DejaVuSans-2e" x="195.898438"/>
      <use xlink:href="#DejaVuSans-75" x="227.685547"/>
      <use xlink:href="#DejaVuSans-2e" x="291.064453"/>
      <use xlink:href="#DejaVuSans-5d" x="322.851562"/>
     </g>
    </g>
   </g>
   <g id="line2d_35">
    <path d="M -1 492.733799 
L 84.754286 494.096249 
L 86.640258 493.621347 
L 90.412202 492.303817 
L 92.298174 492.860607 
L 94.184146 493.905638 
L 96.070118 493.196298 
L 97.95609 495.589319 
L 99.842062 494.504366 
L 101.728034 492.795425 
L 103.614006 493.692999 
L 105.499979 493.261599 
L 107.385951 492.620354 
L 109.271923 491.752652 
L 111.157895 492.507553 
L 113.043867 494.988466 
L 114.929839 492.108745 
L 116.815811 491.991031 
L 118.701783 489.995498 
L 120.587755 488.793679 
L 122.473727 482.741451 
L 124.359699 452.878124 
L 126.245671 413.147514 
L 128.131643 400.151908 
L 130.017615 403.620903 
L 131.903588 370.108094 
L 133.78956 342.253416 
L 135.675532 366.335712 
L 137.561504 412.178159 
L 139.447476 431.455935 
L 141.333448 429.917137 
L 143.21942 410.182195 
L 145.105392 392.325562 
L 146.991364 386.193363 
L 148.877336 378.519952 
L 150.763308 371.653893 
L 152.64928 368.05591 
L 154.535252 377.234727 
L 156.421224 383.779478 
L 158.307197 382.640094 
L 160.193169 364.92645 
L 162.079141 352.815582 
L 163.965113 347.084709 
L 165.851085 345.497146 
L 167.737057 343.279211 
L 169.623029 331.96241 
L 171.509001 316.911845 
L 173.394973 317.021527 
L 175.280945 327.839464 
L 177.166917 345.093841 
L 179.052889 358.255718 
L 180.938861 365.32486 
L 182.824834 370.071227 
L 184.710806 374.402038 
L 186.596778 376.305468 
L 188.48275 379.251511 
L 190.368722 374.52536 
L 192.254694 376.213572 
L 194.140666 379.546935 
L 196.026638 385.074431 
L 197.91261 387.726078 
L 199.798582 392.227889 
L 201.684554 393.31799 
L 203.570526 395.322328 
L 205.456498 391.909649 
L 207.34247 389.666505 
L 209.228443 390.93581 
L 211.114415 387.638912 
L 213.000387 386.468614 
L 214.886359 380.955067 
L 216.772331 380.860719 
L 218.658303 378.074873 
L 220.544275 378.838023 
L 222.430247 377.235198 
L 224.316219 374.83252 
L 226.202191 377.323107 
L 228.088163 378.432748 
L 229.974135 377.720786 
L 231.860107 379.929624 
L 233.746079 382.819245 
L 235.632052 384.797336 
L 237.518024 384.832239 
L 239.403996 385.479905 
L 241.289968 388.58046 
L 243.17594 388.646377 
L 245.061912 390.301542 
L 246.947884 391.312671 
L 248.833856 392.136281 
L 250.719828 393.920769 
L 252.6058 396.834711 
L 254.491772 396.56629 
L 256.377744 396.928849 
L 258.263716 399.06883 
L 260.149689 400.785012 
L 262.035661 402.070257 
L 263.921633 402.804321 
L 265.807605 405.731261 
L 267.693577 404.13031 
L 269.579549 408.780523 
L 271.465521 407.485277 
L 273.351493 409.397087 
L 275.237465 409.340839 
L 277.123437 410.969812 
L 279.009409 409.686899 
L 280.895381 413.70491 
L 282.781353 412.509839 
L 284.667325 413.99377 
L 286.553298 414.002047 
L 288.43927 414.612049 
L 290.325242 418.049698 
L 292.211214 417.235413 
L 294.097186 417.129473 
L 297.86913 418.88467 
L 299.755102 419.927948 
L 301.641074 419.968141 
L 303.527046 419.891213 
L 305.413018 420.124063 
L 307.29899 420.511833 
L 309.184962 421.274371 
L 311.070934 421.397266 
L 312.956907 421.746124 
L 314.842879 422.642453 
L 316.728851 423.326043 
L 318.614823 423.764656 
L 320.500795 424.457012 
L 322.386767 424.135886 
L 324.272739 424.311398 
L 326.158711 425.28564 
L 329.930655 426.080608 
L 331.816627 427.126253 
L 333.702599 428.610848 
L 337.474544 429.599649 
L 339.360516 429.500971 
L 341.246488 429.045975 
L 343.13246 428.797208 
L 345.018432 429.37935 
L 348.790376 429.900946 
L 350.676348 429.731538 
L 352.56232 429.725244 
L 354.448292 428.891047 
L 356.334264 428.813285 
L 358.220236 429.182877 
L 361.99218 429.451881 
L 363.878153 430.56399 
L 365.764125 431.079305 
L 369.536069 431.798191 
L 371.422041 432.392555 
L 373.308013 432.780518 
L 377.079957 433.903899 
L 378.965929 433.568986 
L 382.737873 433.446273 
L 384.623845 433.880808 
L 386.509817 434.027661 
L 388.395789 433.866029 
L 390.281762 433.569699 
L 392.167734 433.051232 
L 394.053706 432.827259 
L 395.939678 432.824529 
L 399.711622 434.799636 
L 401.597594 435.132421 
L 403.483566 434.652459 
L 405.369538 434.054702 
L 407.25551 433.844305 
L 409.141482 434.614946 
L 411.027454 433.98344 
L 412.913426 434.114285 
L 414.799398 434.764236 
L 418.571343 435.395935 
L 420.457315 435.387917 
L 422.343287 435.568101 
L 426.115231 435.311238 
L 428.001203 435.549217 
L 429.887175 435.578861 
L 431.773147 435.449297 
L 433.659119 434.991213 
L 435.545091 435.19442 
L 437.431063 433.920972 
L 439.317035 433.823786 
L 441.203008 434.207482 
L 443.08898 434.040279 
L 444.974952 433.381402 
L 446.860924 433.498486 
L 448.746896 433.881783 
L 450.632868 434.995871 
L 452.51884 435.572951 
L 454.404812 436.443521 
L 456.290784 437.515307 
L 460.062728 436.664018 
L 461.9487 436.291065 
L 463.834672 436.296423 
L 465.720644 436.073269 
L 469.492589 436.42492 
L 473.264533 437.409478 
L 475.150505 437.505114 
L 478.922449 436.803263 
L 480.808421 436.25369 
L 482.694393 435.915585 
L 484.580365 435.771879 
L 486.466337 435.379209 
L 488.352309 435.478079 
L 490.238281 435.78913 
L 492.124253 436.554585 
L 494.010226 437.153995 
L 497.78217 436.88797 
L 499.668142 437.456768 
L 501.554114 438.486098 
L 503.440086 439.245603 
L 505.326058 439.70846 
L 507.21203 439.948114 
L 509.098002 439.89861 
L 510.983974 440.03859 
L 512.869946 440.577186 
L 514.755918 440.524888 
L 520.413835 439.094574 
L 522.299807 439.655511 
L 526.071751 439.071071 
L 527.957723 439.017111 
L 531.729667 439.950315 
L 535.501611 439.814067 
L 537.387583 439.938251 
L 541.159527 439.571757 
L 544.931472 441.35266 
L 546.817444 440.900887 
L 548.703416 440.591108 
L 550.589388 442.063345 
L 552.47536 443.322988 
L 554.361332 443.231102 
L 556.247304 443.524727 
L 558.133276 443.164937 
L 560.019248 442.997656 
L 561.90522 442.632375 
L 563.791192 441.85226 
L 565.677164 441.754674 
L 569.449108 443.365407 
L 571.335081 443.541457 
L 575.107025 443.471142 
L 577 443.207618 
L 577 443.207618 
" clip-path="url(#p0d9eaf397b)" style="fill: none; stroke: #0d0887; stroke-width: 2; stroke-linecap: square"/>
   </g>
   <g id="line2d_36">
    <path d="M -1 492.733799 
L 86.640258 494.073474 
L 88.52623 494.015211 
L 90.412202 494.869858 
L 94.184146 493.894629 
L 96.070118 493.997122 
L 97.95609 494.231865 
L 99.842062 494.121294 
L 101.728034 494.61592 
L 103.614006 494.803972 
L 105.499979 494.569081 
L 111.157895 494.856958 
L 113.043867 493.963769 
L 114.929839 493.282965 
L 116.815811 494.410485 
L 118.701783 494.626519 
L 120.587755 495.112997 
L 122.473727 493.086346 
L 124.359699 495.810296 
L 128.131643 497.227927 
L 130.017615 494.645389 
L 133.78956 495.126914 
L 137.561504 492.411223 
L 139.447476 491.434448 
L 141.333448 491.778374 
L 143.21942 491.609102 
L 145.105392 493.14506 
L 146.991364 491.652577 
L 148.877336 491.180702 
L 150.763308 488.63294 
L 152.64928 480.017194 
L 154.535252 455.275106 
L 156.421224 448.199609 
L 158.307197 447.183139 
L 160.193169 447.026064 
L 162.079141 438.727048 
L 163.965113 429.158458 
L 165.851085 425.173584 
L 167.737057 422.696639 
L 169.623029 422.493009 
L 171.509001 420.806884 
L 173.394973 419.784948 
L 175.280945 420.664675 
L 177.166917 419.903609 
L 179.052889 420.419315 
L 180.938861 418.525457 
L 182.824834 419.140165 
L 184.710806 416.875767 
L 186.596778 416.681257 
L 188.48275 411.595222 
L 190.368722 409.748244 
L 192.254694 404.684099 
L 194.140666 401.702651 
L 196.026638 396.139532 
L 197.91261 394.186447 
L 199.798582 389.77177 
L 201.684554 389.56406 
L 203.570526 388.594197 
L 205.456498 388.018624 
L 207.34247 387.826863 
L 209.228443 384.085793 
L 211.114415 383.261219 
L 213.000387 378.291859 
L 214.886359 378.275937 
L 216.772331 374.783534 
L 218.658303 374.010336 
L 220.544275 371.330085 
L 222.430247 370.690387 
L 224.316219 370.583847 
L 226.202191 367.349362 
L 228.088163 367.256726 
L 229.974135 367.783914 
L 231.860107 366.701207 
L 233.746079 365.991058 
L 235.632052 364.07712 
L 237.518024 363.410348 
L 239.403996 364.380665 
L 241.289968 363.425563 
L 243.17594 363.929883 
L 245.061912 363.160062 
L 246.947884 363.746874 
L 248.833856 363.713811 
L 250.719828 363.523364 
L 252.6058 362.475651 
L 254.491772 363.371524 
L 256.377744 363.259922 
L 258.263716 362.709861 
L 260.149689 362.495145 
L 262.035661 362.036076 
L 263.921633 362.074363 
L 265.807605 361.712019 
L 267.693577 362.564875 
L 269.579549 361.477818 
L 271.465521 361.867659 
L 273.351493 361.906505 
L 275.237465 362.376849 
L 279.009409 362.668864 
L 280.895381 362.110979 
L 282.781353 362.598609 
L 284.667325 362.553526 
L 286.553298 362.861908 
L 288.43927 363.485676 
L 290.325242 363.475828 
L 294.097186 364.055396 
L 299.755102 364.801444 
L 307.29899 365.748499 
L 309.184962 366.054403 
L 311.070934 366.69204 
L 312.956907 366.551418 
L 316.728851 367.21031 
L 318.614823 367.530603 
L 322.386767 368.952456 
L 326.158711 370.283921 
L 328.044683 370.901454 
L 329.930655 371.272831 
L 333.702599 371.502048 
L 335.588571 371.962614 
L 337.474544 372.57094 
L 341.246488 373.497427 
L 343.13246 374.113761 
L 345.018432 374.347564 
L 346.904404 374.947432 
L 348.790376 374.996394 
L 350.676348 375.415218 
L 352.56232 375.552078 
L 354.448292 376.162133 
L 356.334264 376.596698 
L 358.220236 377.309376 
L 360.106208 378.143459 
L 361.99218 378.725206 
L 363.878153 379.101545 
L 365.764125 379.79365 
L 369.536069 380.886527 
L 371.422041 381.63208 
L 373.308013 382.817514 
L 375.193985 384.207187 
L 377.079957 385.318007 
L 382.737873 387.835744 
L 384.623845 388.796801 
L 386.509817 389.907105 
L 388.395789 391.643638 
L 394.053706 393.119332 
L 395.939678 394.172468 
L 397.82565 394.925724 
L 399.711622 395.460094 
L 401.597594 396.213829 
L 405.369538 398.074463 
L 409.141482 399.681549 
L 414.799398 403.420591 
L 418.571343 405.097365 
L 422.343287 407.089921 
L 424.229259 408.51185 
L 426.115231 410.24069 
L 428.001203 411.23704 
L 431.773147 412.289846 
L 435.545091 414.162752 
L 439.317035 416.986243 
L 443.08898 418.222447 
L 444.974952 419.087473 
L 448.746896 420.407697 
L 450.632868 420.339158 
L 452.51884 420.837851 
L 454.404812 421.212494 
L 456.290784 421.328357 
L 458.176756 421.916378 
L 461.9487 423.529955 
L 463.834672 424.740477 
L 469.492589 426.05858 
L 473.264533 426.492651 
L 475.150505 427.651086 
L 477.036477 428.971789 
L 478.922449 429.896767 
L 480.808421 430.550824 
L 486.466337 431.635239 
L 490.238281 431.590248 
L 492.124253 431.92913 
L 495.896198 432.264423 
L 497.78217 432.542548 
L 499.668142 432.993746 
L 501.554114 433.264413 
L 509.098002 432.867844 
L 510.983974 432.911681 
L 512.869946 433.579622 
L 514.755918 434.460752 
L 518.527863 435.38659 
L 520.413835 435.649639 
L 522.299807 435.656393 
L 526.071751 436.432021 
L 527.957723 436.912881 
L 531.729667 437.623354 
L 537.387583 438.275055 
L 539.273555 438.283681 
L 543.045499 438.46176 
L 544.931472 438.453311 
L 548.703416 439.206621 
L 552.47536 438.89891 
L 554.361332 439.06331 
L 556.247304 439.063151 
L 560.019248 439.382477 
L 561.90522 439.701219 
L 563.791192 440.204895 
L 565.677164 440.829327 
L 567.563136 440.873309 
L 571.335081 440.506212 
L 573.221053 440.433639 
L 575.107025 440.608239 
L 577 441.109203 
L 577 441.109203 
" clip-path="url(#p0d9eaf397b)" style="fill: none; stroke: #fca636; stroke-width: 2; stroke-linecap: square"/>
   </g>
   <g id="patch_9">
    <path d="M 72 512.64 
L 72 311.04 
" style="fill: none; stroke: #000000; stroke-width: 0.8; stroke-linejoin: miter; stroke-linecap: square"/>
   </g>
   <g id="patch_10">
    <path d="M 518.4 512.64 
L 518.4 311.04 
" style="fill: none; stroke: #000000; stroke-width: 0.8; stroke-linejoin: miter; stroke-linecap: square"/>
   </g>
   <g id="patch_11">
    <path d="M 72 512.64 
L 518.4 512.64 
" style="fill: none; stroke: #000000; stroke-width: 0.8; stroke-linejoin: miter; stroke-linecap: square"/>
   </g>
   <g id="patch_12">
    <path d="M 72 311.04 
L 518.4 311.04 
" style="fill: none; stroke: #000000; stroke-width: 0.8; stroke-linejoin: miter; stroke-linecap: square"/>
   </g>
   <g id="text_29">
    <!-- β -->
    <g transform="translate(291.37125 305.04) scale(0.12 -0.12)">
     <use xlink:href="#DejaVuSans-3b2"/>
    </g>
   </g>
   <g id="legend_2">
    <g id="patch_13">
     <path d="M 461.675 348.39625 
L 511.4 348.39625 
Q 513.4 348.39625 513.4 346.39625 
L 513.4 318.04 
Q 513.4 316.04 511.4 316.04 
L 461.675 316.04 
Q 459.675 316.04 459.675 318.04 
L 459.675 346.39625 
Q 459.675 348.39625 461.675 348.39625 
z
" style="fill: #ffffff; opacity: 0.8; stroke: #cccccc; stroke-linejoin: miter"/>
    </g>
    <g id="line2d_37">
     <path d="M 463.675 324.138438 
L 473.675 324.138438 
L 483.675 324.138438 
" style="fill: none; stroke: #0d0887; stroke-width: 2; stroke-linecap: square"/>
    </g>
    <g id="text_30">
     <!-- 0° -->
     <g transform="translate(491.675 327.638438) scale(0.1 -0.1)">
      <use xlink:href="#DejaVuSans-30"/>
      <use xlink:href="#DejaVuSans-b0" x="63.623047"/>
     </g>
    </g>
    <g id="line2d_38">
     <path d="M 463.675 338.816562 
L 473.675 338.816562 
L 483.675 338.816562 
" style="fill: none; stroke: #fca636; stroke-width: 2; stroke-linecap: square"/>
    </g>
    <g id="text_31">
     <!-- 90° -->
     <g transform="translate(491.675 342.316562) scale(0.1 -0.1)">
      <use xlink:href="#DejaVuSans-39"/>
      <use xlink:href="#DejaVuSans-30" x="63.623047"/>
      <use xlink:href="#DejaVuSans-b0" x="127.246094"/>
     </g>
    </g>
   </g>
  </g>
  <g id="text_32">
   <!-- Y6 dielectric functions -->
   <g transform="translate(221.459063 20.638125) scale(0.12 -0.12)">
    <defs>
     <path id="DejaVuSans-59" d="M -13 4666 
L 666 4666 
L 1959 2747 
L 3244 4666 
L 3922 4666 
L 2272 2222 
L 2272 0 
L 1638 0 
L 1638 2222 
L -13 4666 
z
" transform="scale(0.015625)"/>
     <path id="DejaVuSans-36" d="M 2113 2584 
Q 1688 2584 1439 2293 
Q 1191 2003 1191 1497 
Q 1191 994 1439 701 
Q 1688 409 2113 409 
Q 2538 409 2786 701 
Q 3034 994 3034 1497 
Q 3034 2003 2786 2293 
Q 2538 2584 2113 2584 
z
M 3366 4563 
L 3366 3988 
Q 3128 4100 2886 4159 
Q 2644 4219 2406 4219 
Q 1781 4219 1451 3797 
Q 1122 3375 1075 2522 
Q 1259 2794 1537 2939 
Q 1816 3084 2150 3084 
Q 2853 3084 3261 2657 
Q 3669 2231 3669 1497 
Q 3669 778 3244 343 
Q 2819 -91 2113 -91 
Q 1303 -91 875 529 
Q 447 1150 447 2328 
Q 447 3434 972 4092 
Q 1497 4750 2381 4750 
Q 2619 4750 2861 4703 
Q 3103 4656 3366 4563 
z
" transform="scale(0.015625)"/>
     <path id="DejaVuSans-64" d="M 2906 2969 
L 2906 4863 
L 3481 4863 
L 3481 0 
L 2906 0 
L 2906 525 
Q 2725 213 2448 61 
Q 2172 -91 1784 -91 
Q 1150 -91 751 415 
Q 353 922 353 1747 
Q 353 2572 751 3078 
Q 1150 3584 1784 3584 
Q 2172 3584 2448 3432 
Q 2725 3281 2906 2969 
z
M 947 1747 
Q 947 1113 1208 752 
Q 1469 391 1925 391 
Q 2381 391 2643 752 
Q 2906 1113 2906 1747 
Q 2906 2381 2643 2742 
Q 2381 3103 1925 3103 
Q 1469 3103 1208 2742 
Q 947 2381 947 1747 
z
" transform="scale(0.015625)"/>
     <path id="DejaVuSans-69" d="M 603 3500 
L 1178 3500 
L 1178 0 
L 603 0 
L 603 3500 
z
M 603 4863 
L 1178 4863 
L 1178 4134 
L 603 4134 
L 603 4863 
z
" transform="scale(0.015625)"/>
     <path id="DejaVuSans-6c" d="M 603 4863 
L 1178 4863 
L 1178 0 
L 603 0 
L 603 4863 
z
" transform="scale(0.015625)"/>
     <path id="DejaVuSans-63" d="M 3122 3366 
L 3122 2828 
Q 2878 2963 2633 3030 
Q 2388 3097 2138 3097 
Q 1578 3097 1268 2742 
Q 959 2388 959 1747 
Q 959 1106 1268 751 
Q 1578 397 2138 397 
Q 2388 397 2633 464 
Q 2878 531 3122 666 
L 3122 134 
Q 2881 22 2623 -34 
Q 2366 -91 2075 -91 
Q 1284 -91 818 406 
Q 353 903 353 1747 
Q 353 2603 823 3093 
Q 1294 3584 2113 3584 
Q 2378 3584 2631 3529 
Q 2884 3475 3122 3366 
z
" transform="scale(0.015625)"/>
     <path id="DejaVuSans-74" d="M 1172 4494 
L 1172 3500 
L 2356 3500 
L 2356 3053 
L 1172 3053 
L 1172 1153 
Q 1172 725 1289 603 
Q 1406 481 1766 481 
L 2356 481 
L 2356 0 
L 1766 0 
Q 1100 0 847 248 
Q 594 497 594 1153 
L 594 3053 
L 172 3053 
L 172 3500 
L 594 3500 
L 594 4494 
L 1172 4494 
z
" transform="scale(0.015625)"/>
     <path id="DejaVuSans-66" d="M 2375 4863 
L 2375 4384 
L 1825 4384 
Q 1516 4384 1395 4259 
Q 1275 4134 1275 3809 
L 1275 3500 
L 2222 3500 
L 2222 3053 
L 1275 3053 
L 1275 0 
L 697 0 
L 697 3053 
L 147 3053 
L 147 3500 
L 697 3500 
L 697 3744 
Q 697 4328 969 4595 
Q 1241 4863 1831 4863 
L 2375 4863 
z
" transform="scale(0.015625)"/>
     <path id="DejaVuSans-6f" d="M 1959 3097 
Q 1497 3097 1228 2736 
Q 959 2375 959 1747 
Q 959 1119 1226 758 
Q 1494 397 1959 397 
Q 2419 397 2687 759 
Q 2956 1122 2956 1747 
Q 2956 2369 2687 2733 
Q 2419 3097 1959 3097 
z
M 1959 3584 
Q 2709 3584 3137 3096 
Q 3566 2609 3566 1747 
Q 3566 888 3137 398 
Q 2709 -91 1959 -91 
Q 1206 -91 779 398 
Q 353 888 353 1747 
Q 353 2609 779 3096 
Q 1206 3584 1959 3584 
z
" transform="scale(0.015625)"/>
     <path id="DejaVuSans-73" d="M 2834 3397 
L 2834 2853 
Q 2591 2978 2328 3040 
Q 2066 3103 1784 3103 
Q 1356 3103 1142 2972 
Q 928 2841 928 2578 
Q 928 2378 1081 2264 
Q 1234 2150 1697 2047 
L 1894 2003 
Q 2506 1872 2764 1633 
Q 3022 1394 3022 966 
Q 3022 478 2636 193 
Q 2250 -91 1575 -91 
Q 1294 -91 989 -36 
Q 684 19 347 128 
L 347 722 
Q 666 556 975 473 
Q 1284 391 1588 391 
Q 1994 391 2212 530 
Q 2431 669 2431 922 
Q 2431 1156 2273 1281 
Q 2116 1406 1581 1522 
L 1381 1569 
Q 847 1681 609 1914 
Q 372 2147 372 2553 
Q 372 3047 722 3315 
Q 1072 3584 1716 3584 
Q 2034 3584 2315 3537 
Q 2597 3491 2834 3397 
z
" transform="scale(0.015625)"/>
    </defs>
    <use xlink:href="#DejaVuSans-59"/>
    <use xlink:href="#DejaVuSans-36" x="61.083984"/>
    <use xlink:href="#DejaVuSans-20" x="124.707031"/>
    <use xlink:href="#DejaVuSans-64" x="156.494141"/>
    <use xlink:href="#DejaVuSans-69" x="219.970703"/>
    <use xlink:href="#DejaVuSans-65" x="247.753906"/>
    <use xlink:href="#DejaVuSans-6c" x="309.277344"/>
    <use xlink:href="#DejaVuSans-65" x="337.060547"/>
    <use xlink:href="#DejaVuSans-63" x="398.583984"/>
    <use xlink:href="#DejaVuSans-74" x="453.564453"/>
    <use xlink:href="#DejaVuSans-72" x="492.773438"/>
    <use xlink:href="#DejaVuSans-69" x="533.886719"/>
    <use xlink:href="#DejaVuSans-63" x="561.669922"/>
    <use xlink:href="#DejaVuSans-20" x="616.650391"/>
    <use xlink:href="#DejaVuSans-66" x="648.4375"/>
    <use xlink:href="#DejaVuSans-75" x="683.642578"/>
    <use xlink:href="#DejaVuSans-6e" x="747.021484"/>
    <use xlink:href="#DejaVuSans-63" x="810.400391"/>
    <use xlink:href="#DejaVuSans-74" x="865.380859"/>
    <use xlink:href="#DejaVuSans-69" x="904.589844"/>
    <use xlink:href="#DejaVuSans-6f" x="932.373047"/>
    <use xlink:href="#DejaVuSans-6e" x="993.554688"/>
    <use xlink:href="#DejaVuSans-73" x="1056.933594"/>
   </g>
  </g>
 </g>
 <defs>
  <clipPath id="p7e3648f25d">
   <rect x="72" y="69.12" width="446.4" height="201.6"/>
  </clipPath>
  <clipPath id="p0d9eaf397b">
   <rect x="72" y="311.04" width="446.4" height="201.6"/>
  </clipPath>
 </defs>
</svg>
